<svg id="Layer_1" data-name="Layer 1" xmlns="http://www.w3.org/2000/svg" viewBox="0 0 1019.69 774.8"><title>happy</title><path d="M324.84,233.75a50.45,50.45,0,0,0,4.84-4.86c9.82-13,18.28-26.47,21.64-42.87,2.25-11,6.12-21.66,9.42-32.42,1.19-3.87,3.58-6.75,8.08-7,3.53-.18,5,.66,6.23,4,.73,2,1.15,4.07,1.92,6.83,1-1.54,1.66-2.5,2.26-3.5,5-8.5,10.83-16.37,18.66-22.53a20.09,20.09,0,0,1,5.16-3c5.44-2.09,10.17-.6,13.2,4.38,1.68,2.76,2.72,5.91,4.23,9.28,1-.85,2.11-1.67,3.08-2.62,3-2.91,5.84-6,9-8.78,3.67-3.27,7.5-6.31,9-11.3a7,7,0,0,1,1.48-2.27c3.62-4.3,8.54-3.58,10.71,1.64a19.32,19.32,0,0,1,1,4.77c.2,1.53.22,3.09.39,5.81,1.66-2.24,2.61-3.47,3.5-4.74,6.54-9.29,14.05-17.6,23.92-23.54,7-4.22,11.42-2.89,14.55,4.75,1.29,3.15,2,6.53,3,9.81.33.07.82.3,1,.17,5.61-5.16,11.22-10.32,16.72-15.6a14.38,14.38,0,0,0,2.22-3.7c.93-1.77,1.68-3.64,2.72-5.34,1.4-2.32,3.41-3.81,6.29-3.49a5.67,5.67,0,0,1,5.29,4.79c.58,3.89,1.29,8.1.4,11.8-2.45,10.22-5.68,20.26-8.64,30.35-1.12,3.8-2.37,7.57-3.82,12.21,1.91-.41,3.19-.35,4.06-.93,4-2.66,7.27-6,8.4-10.92,3.41-14.86,10-28.41,17.69-41.44A53.16,53.16,0,0,1,559,85c1.45-1.6,3.47-2.78,5.87-1.63s3.21,3.49,2.81,6c-1.17,7.16-2.22,14.37-3.9,21.43-5.08,21.38-10.44,42.69-15.67,64-.34,1.36-.52,2.76-.8,4.29a5.91,5.91,0,0,0,1.45-.32c20.45-12.62,40.38-25.92,57.34-43.18,7.58-7.72,14.36-16,17.79-26.45a3.21,3.21,0,0,1,.7-1.46c1-.82,2.16-1.5,3.25-2.24.56,1.2,1.81,2.58,1.55,3.56-1.52,5.76-2.63,11.83-5.36,17-2.83,5.37-7,10.13-11.18,14.67a128.3,128.3,0,0,1-26,21.48Q568.28,174,549.37,185.43a11.52,11.52,0,0,0-5.78,7.92c-5,21.43-10.37,42.77-19.81,62.76a161.52,161.52,0,0,1-12.08,21.27,29,29,0,0,1-19.58,12.76c-7.76,1.33-14-1.2-18.55-7.57A35.45,35.45,0,0,1,467,258.89a77.8,77.8,0,0,1,10.32-34.14,38.79,38.79,0,0,1,5.55-7.37c5.67-5.86,12.56-7.71,20.12-5.38,5.85-4.81,11.49-9.35,17-14.06a7,7,0,0,0,2-3.65c2.88-14.06,5.65-28.14,8.43-42.22a8.08,8.08,0,0,0-.19-1.9c-1.42.94-2.6,1.72-3.77,2.52-9,6.18-16.22,2.95-17.73-8-1.09-7.88-.05-15.58,2.14-23.17,1.06-3.64,2.19-7.25,3.6-11.91-1.67,1.14-2.64,1.67-3.46,2.38-1.09,1-2,2.16-3.12,3-5.54,4.27-7.81,9.6-7.71,16.83.13,9.08-2.11,18-5,26.67a47.23,47.23,0,0,1-11.09,17.93,24.32,24.32,0,0,1-13.16,7.27c-6.14,1.16-9.91-1.48-10.91-7.6-1.18-7.24-.49-14.29,3.92-20.35A166.26,166.26,0,0,1,476,141.17a17.72,17.72,0,0,0,4.8-8.3c1.51-6.73,3.29-13.4,4.84-20.12.48-2.08.55-4.25.9-7.1a37.25,37.25,0,0,0-4.44,1.54,45.58,45.58,0,0,0-14.89,12.57c-1.92,2.42-3.62,5-5.51,7.45a44,44,0,0,0-8.7,20.73c-1.92,12.17-5.41,24.09-8.26,36.11-4,17-7.94,34-12.19,50.87a132,132,0,0,1-5.42,15.39,14.33,14.33,0,0,1-7.23,7.85c-4.11,2-8.07.54-8.83-3.92a49,49,0,0,1-.6-14c3.82-31.27,10.29-62,20.61-91.81a80.8,80.8,0,0,0,3.28-12.17,74.5,74.5,0,0,0-12.26,11.93c-.87,1.08-.75,3.07-.86,4.66-1,15.56-4,30.68-11.45,44.51a79.37,79.37,0,0,1-9.51,13.19,16.83,16.83,0,0,1-10.95,5.57c-6.14.82-11.5-2.33-12.83-8.32a21.37,21.37,0,0,1,.14-10.12,38.7,38.7,0,0,1,5.48-11.17c3.3-4.76,6.79-9.58,11-13.45,6-5.43,9-12.18,10.88-19.64,1.18-4.75,1.84-9.63,2.59-14.47a31,31,0,0,0,0-4.73c-5-1.06-7.9,1.67-10.72,4.1-6,5.14-10.48,11.47-14.69,18.13-5.15,8.17-7.4,17.26-9.78,26.41-5.85,22.49-11.94,44.93-17.89,67.4-2.08,7.9-3.91,15.87-6.06,23.76a55.15,55.15,0,0,1-3.68,10.2c-1.9,3.82-5.18,5.27-8.47,4.5-3.1-.72-5.33-3.76-5.36-7.95a34.2,34.2,0,0,1,.87-7.54c4-18.27,8.12-36.52,12.17-54.78a8.81,8.81,0,0,0-.16-1.87c-1,1.56-1.75,2.57-2.32,3.68-1.91,3.72-3.61,7.55-5.66,11.19a62,62,0,0,1-5.69,8.61c-2.84,3.52-6.4,6.16-11.3,5.05-5.18-1.16-7-5.4-8.2-9.93-.38-1.36-.56-2.77-1-5-1.14,1.42-2,2.25-2.57,3.22-3.66,5.85-7.11,11.85-11,17.56a31,31,0,0,1-7,7.49c-6.39,4.71-13,3.27-17.28-3.43-4.15-6.47-5.59-13.84-5.94-21.31-1.16-25.23,8.17-46.54,25.27-64.61,3.16-3.34,7.38-5.9,11.5-8.09s8.3-2.22,12.12,1.29c2.46,2.27,5.32,4.11,8.35,6.41.65-1,1.59-2.39,2.59-3.78,2.15-3,4.71-5.59,8.39-6.65s6.69,1.21,6,5.14q-1.36,8.33-3.42,16.53c-3.07,12.33-6.47,24.59-9.45,36.94-1.27,5.27-1.81,10.71-2.69,16.07Zm175-17.19c-4.35-1.29-7.77-.55-10.42,1.67a34.31,34.31,0,0,0-7.9,8.78,90.14,90.14,0,0,0-10.38,29.64c-1.29,7.58-.17,14.87,4.41,21.3,5,7.06,13.21,8.44,19.91,2.91a34,34,0,0,0,7.17-8.76,79,79,0,0,0,9.75-24.7c2.53-12.25,4.56-24.61,6.77-36.92.26-1.47.35-3,.68-5.81l-13.55,10.51c.4,3,.9,5.28,1,7.61.2,4.8-.45,9.46-3.54,13.38-1.63,2.08-3.71,3.75-6.54,2.85-2.59-.82-2.28-3.43-2.6-5.52-.14-.88.05-1.81,0-2.71C494.24,225.58,496.9,221.41,499.85,216.56Zm-216,33.22c3.61.08,5.78-1.77,7.42-3.78,5.48-6.73,10.75-13.64,15.93-20.61a8.18,8.18,0,0,0,1.35-4.58c.09-15.32,4.37-29.68,9.84-43.78a15.64,15.64,0,0,0,.81-2c.65-2.77-1.39-7-4-8.3-3.14-1.62-4.84.78-6.31,2.67a48.58,48.58,0,0,0-5.88,9.12c-4.78,10.35-9.49,20.76-13.79,31.33-4.49,11.06-5.91,22.76-5.83,34.64C283.44,246.21,283.71,247.94,283.88,249.78Zm182.39-78.71c5.48-6.79,8.14-14.76,9.78-23.15C470.19,154.51,462.81,160.43,466.27,171.07Zm-83,31c4.2-3.54,11.06-18.31,11.67-24.38C389.54,185.08,382.52,191.69,383.28,202.06ZM498,235c4-4.33,5-8.4,3.63-13.58C498.58,225.35,496.64,229.28,498,235Z"/><path d="M569.24,508a14.89,14.89,0,0,1-.83,2.83c-4.91,9.53-9.68,19.15-16.52,27.52-.34.42-.67.87-1,1.29-4.55,5.49-10.56,9.32-17.49,8.2-7.84-1.27-14.2-6.3-16.43-14.32a113.16,113.16,0,0,1-4.16-23c-1.15-18-.82-36,2.13-53.83,1.57-9.49,3.28-19,4.91-28.44.12-.69.08-1.4.15-2.92-2.18.87-4,1.48-5.67,2.29-12,5.72-23.88,11.57-35.9,17.18-3.31,1.54-4.77,3.69-5.44,7.29-5.91,31.63-12.82,63-22.78,93.67a273.55,273.55,0,0,1-21.66,50.52,129.79,129.79,0,0,1-38.15,42.8C379,647.19,366.56,653,352.45,654.67c-15,1.8-26.78-4.56-33.34-18.19-5.22-10.86-6.08-22.42-5-34.12,3.14-34.6,16.73-64.49,41.65-88.86a85.3,85.3,0,0,1,17.37-13c15.78-8.93,29.32-3.9,34.92,13.27,6.39,19.58,3.68,38-9.49,54.43a34.11,34.11,0,0,1-4.63,4.6c-6.7,5.62-11.89,5.49-18.79-.32.3,0,.67-.22.88-.1,7.77,4.26,12.34,3.77,18.34-2.68a37.33,37.33,0,0,0,6.49-9.34c6.57-13.94,8.32-28.54,4.5-43.55a35.21,35.21,0,0,0-4.42-9.88c-4.14-6.57-10.34-8.88-17.9-7.2a41.79,41.79,0,0,0-15.15,7.24C354.78,516.3,344.58,528.3,336.4,542c-11.88,19.91-18.72,41.38-18.09,64.75.17,6.27,1.6,12.58,3.1,18.72a29,29,0,0,0,4.58,9.19c4.56,6.6,11,9.17,19,7.86a50.92,50.92,0,0,0,18.15-7.13c15-9.06,26.1-21.83,35.44-36.4C415,573.35,426,545.38,433.71,516c4.23-16.16,7.85-32.49,11.72-48.74.25-1,.3-2.12.52-3.78-5.05,1.67-8.82,4.65-12.77,7.23-4.25,2.79-8.42,5.73-12.45,8.83-3.86,2.95-7.49,6.2-12.11,10.06,0-2-.43-3.37.08-4,2.16-2.66,4.28-5.53,7-7.55,9.18-6.82,18.48-13.51,28-19.8a10.58,10.58,0,0,0,5.14-7.67c3.45-19.71,6.51-39.46,7.2-59.49.42-12.37,0-24.73-2.49-36.91-1.42-7-3.9-8.66-11.13-7.88a46.43,46.43,0,0,0-20.38,7.23,163,163,0,0,0-15.84,11.54c-29.49,24.41-51.89,54.27-67.88,89a53.28,53.28,0,0,0-3.59,9.69c-.79,3.28-.84,6.74-1.3,10.89-.84-1.23-1.76-2-1.78-2.71-.07-2.7-.33-5.55.39-8.08A112.37,112.37,0,0,1,337.62,448a268,268,0,0,1,72.79-95.44c9-7.54,18.79-13.7,30.48-16.3s19.23.42,25.66,10.42,9,21.36,10.83,32.89c2.57,15.77,1.44,31.53-.49,47.27-.53,4.29-1.08,8.58-1.68,13.42,1.9-.8,3.23-1.31,4.52-1.9,12.53-5.81,25-11.79,37.61-17.36,3.58-1.57,5.18-3.69,6-7.43,5.26-22.85,10.87-45.61,20.68-67.06,4.91-10.75,10-21.42,17.2-30.9a51.28,51.28,0,0,1,7.58-7.73c1.81-1.56,4.19-2.45,6.52-.74s1.9,4.16,1.09,6.44c-4.43,12.5-8.78,25-13.43,37.45-6.52,17.4-11,35.36-15.06,53.45-.19.84-.26,1.7-.5,3.35,2.27-.82,3.9-1.39,5.51-2,12.09-4.5,24.16-9.05,36.28-13.47a21.88,21.88,0,0,1,6.37-1.24c2.33-.11,3.58,1.2,3.35,3.15-4.44,1.2-8.5,1.94-12.29,3.39-12.38,4.73-24.66,9.76-37,14.59a7.09,7.09,0,0,0-4.8,5.28c-6.82,25.47-12.78,51.11-15.57,77.38-.9,8.49-1.39,17-1.91,25.55a89.6,89.6,0,0,0,.23,9.26c.25,5.44,3,9.75,7.92,11.35,4.54,1.48,9.06-.7,12.24-4.25a151.76,151.76,0,0,0,10.52-13.2c3-4.14,5.45-8.59,8.16-12.9.65-1,1.33-2,2-3Z"/><path d="M277.33,284.28a25.21,25.21,0,0,1-.84,2.85c-5.49,13.3-13.74,24.73-23.92,34.82a20.39,20.39,0,0,1-3.86,3c-6.15,3.64-12.19,2.26-16.06-3.76-3.22-5-4.41-10.7-5.05-16.54-1.56-14-.17-28,1.69-41.84q5.37-40,14.34-79.36c.34-1.51.41-3.08.74-5.6-4.28,2.71-7.75,4.94-11.25,7.12-3.7,2.31-7.37,4.68-11.18,6.8-2.43,1.36-3.49,3.25-4.21,5.91-5.35,19.81-10.39,39.73-16.51,59.3a230.26,230.26,0,0,1-34.68,68.84,193.74,193.74,0,0,1-18.23,20.92,46.75,46.75,0,0,1-13,8.79c-7.14,3.37-13.74,1.79-18.49-4.52a59.29,59.29,0,0,1-8.07-14.7c-7-18.72-7.27-38-3.85-57.51a116.18,116.18,0,0,1,11.65-34.46,59.32,59.32,0,0,1,16.54-20,29.58,29.58,0,0,1,13.83-6.08c6.18-.88,11.33,1.63,16.24,5.33,1.3-.91,2.45-1.75,3.63-2.53,5-3.3,9.71-7.25,15.09-9.71,7.14-3.26,10.35-8.24,12-15.82,5.51-24.85,10.9-49.71,13.54-75a165.32,165.32,0,0,0,.35-25.57c-.46-9.1-3.86-11.58-12.43-8.81a71.52,71.52,0,0,0-17.06,8.26,159.55,159.55,0,0,0-34.79,31.22,200.78,200.78,0,0,0-32.22,53.51c-2.38,5.8-4,11.92-6.72,17.88a48.93,48.93,0,0,1,.63-6.45,132.77,132.77,0,0,1,15-37.29,218.5,218.5,0,0,1,57.67-64.7,121.16,121.16,0,0,1,12.9-8.13,34.51,34.51,0,0,1,7.53-3.13c8.66-2.5,15.32,0,20.19,7.63s6.81,16.37,8,25.25c2.57,19.15.49,38.09-2.71,57-1.07,6.27-2.35,12.5-3.5,18.75a34.26,34.26,0,0,0-.2,3.5c5.06-3.28,9.24-6.52,13.87-8.89,9-4.61,13.39-11.56,15.95-21.56,8.73-34,22.85-65.89,43.07-94.78a223.63,223.63,0,0,1,18.62-22.73,35.48,35.48,0,0,1,11.46-8.08c9.33-4.2,18,.23,20.95,10,1.85,6.13,1.16,12.24-.3,18.31-3,12.51-8.48,24-15.18,34.84a215.65,215.65,0,0,1-51.5,57.29,20.5,20.5,0,0,0-7.56,10.83c-11.12,37.26-22.17,74.53-30.39,112.56-2.27,10.52-3.57,21.15-2.76,31.94a35,35,0,0,0,1,6.44c1.58,5.87,4.79,7.25,10.17,4.24a30,30,0,0,0,6-4.61,99.94,99.94,0,0,0,19.84-26.52c.86-1.67,1.88-3.26,2.82-4.88ZM164.56,224.9c.67,1.29,1,1.94,1.33,2.55,6.69,11.56,5.82,23.28.71,35.05a17.43,17.43,0,0,1-3,4.51c-4.7,5.26-11.21,4.52-14-2a24.66,24.66,0,0,1-1.81-10.56c.38-9,4-16.9,9.44-24l3.4-4.38a16.24,16.24,0,0,0-15.79-4.57c-6.09,1.32-10.91,4.85-15.26,9.09-6.34,6.2-10.77,13.68-14.31,21.73-6,13.67-8.74,28.08-9.33,42.91-.57,14.38,1.65,28.3,8.24,41.25a34.74,34.74,0,0,0,6,8.34c3.4,3.46,6.42,3.55,10.17.54a46.08,46.08,0,0,0,6.85-7c7.28-8.94,12.77-19,17.73-29.34C169.65,278.36,180,246,189.16,213.26a16.67,16.67,0,0,0,0-3.69C180.31,214.09,172,218.39,164.56,224.9Zm109.68-74.57a10.26,10.26,0,0,0,2.12-.66c23.7-19.77,43.4-42.75,56.32-71a84.31,84.31,0,0,0,5.52-17c.82-3.78.44-7.92,0-11.84-.27-2.67-1.37-5.56-4.42-6.3-2.84-.7-4.87,1.4-6.4,3.37a133.29,133.29,0,0,0-9.12,12.84c-12.91,21.48-24.77,43.51-34.54,66.61C280.53,134,277.63,141.76,274.24,150.33Zm-112.5,77.15c-7.89,9.48-12.69,19.44-12,31.48a13.47,13.47,0,0,0,1.75,5.63c3.14,5.53,8.1,5.61,11.29.14a37.23,37.23,0,0,0,4.77-23C167,236.87,165.81,232.17,161.74,227.48Z"/><path d="M289,461.69c-1.19,1.28-2,2.32-3,3.23-7.28,6.84-15,13.25-21.8,20.53-25.68,27.54-50,56.26-72,86.83-15.78,21.89-29.72,44.85-40.12,69.79a125.81,125.81,0,0,0-7.5,23.83c-3.74,19,2.1,35.23,16.63,48,8.54,7.52,18.68,12.55,29.33,16.43a289.76,289.76,0,0,0,56.41,14.34c9.57,1.43,19.53.28,29.31.19,2.54,0,5.07-.46,7.6-.69,7.61-.69,12.28,4.51,10.93,12.16-1.41,8-7.55,13.5-16.22,15.62-18.78,4.59-37.44,3-56.13-.4A184.8,184.8,0,0,1,182.74,760,132.45,132.45,0,0,1,155,743.93c-26.84-20.12-37.34-51.9-26.92-83.81A211.71,211.71,0,0,1,141,630.18c15-29.47,34.61-55.84,55.24-81.55,19.51-24.3,41.31-46.44,63.37-68.32,6.53-6.47,14.39-11.62,21.79-17.17C283.28,461.72,285.54,460.12,289,461.69Z"/><path d="M648.7,410.13l-9.64-8.38a33.11,33.11,0,0,0-1.79,3.18c-6.53,15.59-12.49,31.43-19.68,46.7-7,14.78-15.12,29-22.84,43.39a24.37,24.37,0,0,1-3.57,4.79c-7.8,8.51-20.36,8-27.49-1.15a33.85,33.85,0,0,1-6.87-14.08c-.39-1.93-.92-3.83-1.4-5.82-5.59-.58-6.87,6.5-11.9,6.52-1.6-1.95-.24-3.2.88-4.31,2.45-2.42,5-4.81,7.6-7a7.61,7.61,0,0,0,3-6c.84-21.27,9.77-38.86,24.93-53.43a62.29,62.29,0,0,1,9.61-7.07c3.68-2.38,7.9-2.61,12.12-2,6.48.94,9.17,4.5,8.21,11-1.24,8.44-4.17,16.32-9.88,22.69a178.18,178.18,0,0,1-16.39,15.89c-2.86,2.46-4.51,4.86-4.61,8.64-.21,7.26-.76,14.5-1.08,21.75a14,14,0,0,0,.49,4.32c1.36,4.66,4.94,5.89,8.56,2.73a43.4,43.4,0,0,0,6.15-6.89c8.26-11.14,14.85-23.29,20.7-35.81,6.06-13,11.75-26.18,17.58-39.3,1.1-2.49,2-5.1,3.12-7.55,1.68-3.52,1.45-6.64-.22-10.29-6.13-13.41-3.75-26.6,1.93-39.52a9.71,9.71,0,0,1,1.54-2.24c1.5-1.77,3.55-3.26,5.66-2.13a6.54,6.54,0,0,1,3.05,4.59,150.38,150.38,0,0,1-.55,19,85.74,85.74,0,0,1-3.11,14.36,7.46,7.46,0,0,0,1.29,7.12c4,5.25,8.1,10.18,15.27,11.24,3.43.51,5.44,3.2,5.8,6.46a59.71,59.71,0,0,1,.28,12.46c-.86,8.67-2.23,17.29-3.35,25.94-.16,1.24-.14,2.51-.24,4.56A23.47,23.47,0,0,0,665,452c6.74-7.65,10.27-17.06,14.2-26.24.53-1.23.26-2.85.2-4.29-.9-23,5.15-44.27,17.19-63.74,3.1-5,7.41-9.4,11.63-13.61,4.39-4.37,10.11-6.32,16.28-6.77s9.73,2.47,10.3,8.59a29.57,29.57,0,0,1-.26,8.14c-3.21,16.69-9.87,31.73-23.48,42.49-6.93,5.48-10.75,11.83-11.24,20.57-.27,4.88-1.5,9.69-1.88,14.57-.22,2.8-.47,6.47,2.46,7.78,3.35,1.5,5.72-1.48,7.65-3.85,3.44-4.23,6.68-8.62,10-13q11-14.56,22-29.16c1-1.35,2.27-2.54,3.42-3.8l1,.46a9.43,9.43,0,0,1,.11,2.74,7.86,7.86,0,0,1-1.4,2.31Q727.76,417,712.28,438.82a43.61,43.61,0,0,1-4.5,5.47c-6.38,6.46-15.31,6-20.81-1.25-2.13-2.82-3.66-6.11-5.85-9.86-1.09,2.55-1.84,4.5-2.75,6.38-3.09,6.36-6,12.87-9.49,19a30.48,30.48,0,0,1-7.52,8.45c-5.2,4.09-10.81,3-14.58-2.45a24.7,24.7,0,0,1-3.32-6.83c-3.5-11.95-3.85-24-.09-36C644.61,417.82,646.8,414.19,648.7,410.13ZM705.36,395A55.09,55.09,0,0,0,719,381.8a54.14,54.14,0,0,0,10.54-28.19c.17-2.22.74-4.69-1.39-6.73a15.83,15.83,0,0,0-7.92,7.3C713,366.86,709.08,380.82,705.36,395Zm-123.23,54,1.06.59c9.93-9.9,21.81-18.54,22.16-35.15-5.15.6-8,3.76-10,7.34-4.55,8.25-8.62,16.76-12.84,25.18A7.38,7.38,0,0,0,582.13,448.93Zm58-66.34c3.23-9.58,5.1-19.3,2.86-29.89-2.63,1.15-2.93,3-3.24,4.69C638.2,365.76,637.13,374.14,640.14,382.59Z"/><path d="M971.12,614.39c4.09,8.57,1.71,18.45-4.92,23.54s-18.1,4.46-27.91-5.39c-3.72.72-7.45,1.46-11.18,2.16C920,636,913,635.22,906,633.51c-16.1-4-27.15-13.44-32.06-29.49-2.87-9.38-5.46-18.84-8.23-28.24a45.83,45.83,0,0,0-2.83-8.22c-5.11-9.82-10.46-19.52-15.73-29.27-9.25-17.12-17.88-34.5-22.16-53.69-3.28-14.7-1.34-28.68,4-42.7,9.73-25.56,27.36-43.82,50.74-57,7.1-4,14.87-6.88,21.87-11,8.84-5.27,18.65-7.15,28.38-9,34.08-6.49,60.07,6.75,77.31,34.9,8.87,14.49,11.78,30.34,12,46.92.2,13.82.59,27.65.16,41.45-.63,20.81-3.75,41.25-11.44,60.77-2.46,6.25-4.84,12.55-7.65,18.65C992.65,584.35,985.48,601.56,971.12,614.39Zm-49.27-45.52c5.44-1.74,10.55-3.43,15.13-6.52-1.74-3.53-3.36-6.57-4.69-9.73-.32-.76.32-1.93.52-2.91,1,.22,2.14.17,2.87.71a12.83,12.83,0,0,1,2.44,2.91c1.48,2,2.91,4.06,4.71,6.58l14.28-9.7c-1.17-3.5-2.38-6.18-2.85-9a4.92,4.92,0,0,1,1.81-4c1.62-1.08,3,.34,3.93,1.84,1,1.67,1.9,3.39,3.17,5.65,3.7-3.62,7-6.9,10.38-10.13a49.11,49.11,0,0,1,5.66-5.05,3.39,3.39,0,0,1,3.28.11c.57.62.28,2.26,0,3.36a6,6,0,0,1-1.52,2.24c-3.28,3.63-6.31,7.58-10,10.75s-6.53,6.27-3.07,11.27a.78.78,0,0,1,.17.51c-.31,1.13-.46,3.1-1,3.22a4.82,4.82,0,0,1-3.72-.86c-1.27-1.07-2-2.74-3-4.17l-15.07,10a36.05,36.05,0,0,1,1.63,5.72,3.34,3.34,0,0,1-1.42,2.49c-.37.26-1.76-.33-2.24-.91a47.45,47.45,0,0,1-3-4.59l-18.68,7.11c.79,2.71,1.62,5.08,2.13,7.51.18.88-.09,2.39-.69,2.77a3,3,0,0,1-2.93-.2,13.39,13.39,0,0,1-2.54-4.06,48.68,48.68,0,0,1-1.63-5L898.36,579c.51,3.7,1.08,7.06,1.43,10.44.39,3.86-.57,5.85-2.77,6.3s-3.5-1.08-4.42-5.07-1.71-7.7-2.63-11.87l-15.34,1.06c2.45,7.64,4.48,14.6,6.92,21.43,6.5,18.14,21.5,28.65,40.73,27.22,20.19-1.5,37.18-10.53,51-25.25a46.12,46.12,0,0,0,6.3-9.5c3.5-6.37,7-12.78,10-19.36,10-21.45,19-43.19,22-67a243.5,243.5,0,0,0,.46-51.63c-.55-6.13-1.92-12.2-2.32-18.34a59.49,59.49,0,0,0-5.17-20.48,27.26,27.26,0,0,1-2.17-5.56c-1.63-8.28-6.64-14.39-12.49-20-1.44-1.38-3-2.67-4.43-4a46.25,46.25,0,0,0-21.88-11.61c-9.55-2.12-19.19-1.24-28.74-.17-7,.78-14,2.15-21,3.5-4.84.94-10.48-1.41-14.4,3.41-6.59.23-11.22,4.76-16.48,7.75a105,105,0,0,0-46.44,52.44c-5.72,13.76-7.62,27.61-3.8,42,4.55,17.15,12.43,32.95,21,48.33,7.42,13.36,15.12,26.5,19.44,41.29.14.45.66.79,1,1.2l14.34-1.73c-.58-2.41-1.17-4.29-1.48-6.23a20.84,20.84,0,0,1-.48-6.45,5,5,0,0,1,2.91-3.23c.76-.26,2.41,1.14,3.21,2.15a10.89,10.89,0,0,1,1.34,3.54c1.06,3.25,2.09,6.51,3.36,10.48l17.05-3.1c1.28-5.09-1.87-10.25,1.86-14.77C921.24,559.19,919.39,564.66,921.85,568.87Zm44.79,49.53-22.58,12.27c7.64,6,13.44,6.55,19.2,1.83C967.13,629.34,968.73,622.82,966.64,618.4Z"/><path d="M780.9,146.79q-.75,35.61-1.48,71.23l1.2.59c3.16-2.19,5.65-5.22,8.35-7.94s5.39-5.86,8.31-9.06A82.64,82.64,0,0,0,814.66,220a12,12,0,0,1,4.85,8.73c.83,10.14,1.88,20.26,2.59,30.4.51,7.43.65,14.88.92,22.32a64.84,64.84,0,0,1,0,6.54c-.38,6.27-1.91,11.74-7,16.34-8.51,7.63-16.31,16.05-24.44,24.11-3.42,3.39-4,3.44-8,1.43-7.68-3.84-14.19-9.36-20.81-14.69-.81-.65-1.15-2.21-1.24-3.39-.47-6.15-1.1-12.32-1.12-18.48q-.15-47.43,0-94.86c0-9.81.57-19.61.76-29.42a9.4,9.4,0,0,1,3-7.23c5.35-5.1,10.49-10.41,15.71-15.64ZM780.82,226a13.1,13.1,0,0,0-.6,2.5q.21,30.21.52,60.41c0,3.84.57,7.57,5,9.32,1.08.43,1.78,1.77,2.68,2.66,3.2,3.19,10.54,7.43,14.63,8.29a68.76,68.76,0,0,0,.3-7c-.9-16.3-2-32.59-2.78-48.89-.34-7.19-2.83-12.7-8.84-17C787.8,233.54,784.68,229.72,780.82,226Z"/><path d="M304.35,390.49c.19,3.18-2,3.94-3.45,5-18.76,13.76-37.29,27.85-56.41,41.09-28.24,19.56-56.83,38.61-85.39,57.69-17.09,11.42-34.72,21.95-53.39,30.61-10.92,5.07-22.16,9.19-34.14,10.94a56.47,56.47,0,0,1-32-4.18c-8.54-3.84-15.67-9.45-20.06-17.76C1.86,480.48-5.17,445.43,4.09,408a84.82,84.82,0,0,1,15.8-32A24.51,24.51,0,0,1,24,371.65c3.95-3.06,8.38-1.44,8.66,3.49a52.93,52.93,0,0,1-1,14.05,325.8,325.8,0,0,0-6.87,78.54,155.41,155.41,0,0,0,4.78,32.83C34.15,519.17,49.66,530,68.86,528.1a96.29,96.29,0,0,0,23.8-5.62,211.12,211.12,0,0,0,38.19-18.54c23.69-14.55,47.34-29.18,70.5-44.56,30-19.9,59.44-40.57,89.13-60.91,3.45-2.36,6.87-4.76,10.39-7A13.44,13.44,0,0,1,304.35,390.49Z"/><path d="M696.37,195.27c-3.63,6-3.36,8.07,2,12.58,3.9,3.26,7.75,6.58,11.76,9.7a7.26,7.26,0,0,1,3.16,5.4c.37,4.52,1.06,9,1.33,13.54,1,17.57,1.86,35.16,2.94,52.73a9,9,0,0,1-3.37,8,107.7,107.7,0,0,0-7.73,7.68c-2,2.16-5,3.74-5,7.33,0,.28-.4.59-.66.84l-17.18,17.2c-7.21-5-13.44-10.62-20.71-14-6.52-3-7.39-7.11-7.13-13.14q.91-20.68,1.14-41.39c.09-7.44-.25-14.89-.75-22.31a10.64,10.64,0,0,1,3-8.84c9.24-9.49,18.25-19.21,27.6-28.57C689.55,199.35,693.16,197.52,696.37,195.27Zm-18.62,31.29-1,.68c.74,22-2,44.08-.74,65.37l21.85,13.58c0-2.27.09-4,0-5.74-.86-14.11-1.71-28.22-2.66-42.32-.35-5.24-.9-10.46-1.5-15.68-.16-1.38-.44-3.16-1.36-4C687.56,234.37,682.62,230.51,677.75,226.56Z"/><path d="M616.55,335.61c-1.81-38-3.56-75-5.32-112L582,220.87c1.26-1.6,2-2.75,2.94-3.71,4.08-4.15,8.38-8.09,12.27-12.4,2.45-2.71,5.07-3.8,8.63-3.2a30.22,30.22,0,0,0,5,.05c1.34-4.13.8-8.12.18-12-.81-5.08.33-9,4.42-12.51,4.92-4.22,9.27-9.09,14.53-14.34a103.05,103.05,0,0,1,1.16,20.13c-.26,6.49-.81,13,.16,19.34H661.7c-1.08,1.26-2,2.5-3.12,3.61-3.57,3.63-7.4,7-10.73,10.86a14.36,14.36,0,0,1-11.35,5.39,43.89,43.89,0,0,0-4.47.45,39.37,39.37,0,0,0-.21,4c.93,18.88,2,37.74,2.81,56.62.44,10,.58,20,.69,29.94,0,1.66-.37,3.8-1.42,4.92C628.46,323.81,622.75,329.37,616.55,335.61Z"/><path d="M886.94,304.52l4.29-3.52c2.51,3.26,2.88,4.89.76,7.1-6,6.28-12.22,12.36-18.34,18.5-8.38-3-14.48-8.34-20.43-13.93-.65-.62-1-1.65-1.75-2.06-5.7-3.16-5.75-8.45-5.93-14q-.88-26-2.35-52a19.6,19.6,0,0,1,6.57-16.47c10.34-9.68,20.47-19.57,30.73-29.33.74-.7,1.84-1,3.41-1.84-.52,2-1.35,3.48-1.11,4.76s1.4,2.53,2.4,3.55c4,4.17,8,8.37,12.33,12.3a9.25,9.25,0,0,1,3.34,8.13,80.77,80.77,0,0,0-.15,10.89,11.85,11.85,0,0,1-4,9.65c-8.65,8.55-16.93,17.52-27.12,24.3-3.75,2.5-4.41,5.69-4.18,9.75.21,3.67.19,6.89,3.83,9.46,4.1,2.89,7.43,6.86,11.24,10.2A77.79,77.79,0,0,0,886.94,304.52Zm-21.75-34.95c5.27-4.44,9.89-8.17,14.29-12.15a6.06,6.06,0,0,0,1.44-3.83c1-13,.91-13-8.61-22.08-2.1-2-4.08-4.12-6.16-6.15-.68-.67-1.47-1.21-2.86-2.34C863,238.77,863.19,253.59,865.19,269.57Z"/><path d="M500.3,702.6a35.17,35.17,0,0,1,2.26-5.08c5.73-8.84,11.24-17.85,17.42-26.37,18.28-25.22,39-48.43,60.92-70.48,54.75-55,111.44-108.06,170.85-158.08,12.36-10.41,25.48-19.92,38.27-29.82a22.1,22.1,0,0,1,4.09-2.67,1.79,1.79,0,0,1,2.22,2.78,18.61,18.61,0,0,1-3.21,2.92C718.64,475.42,649.57,541,582.7,608.85c-15.68,15.92-30.76,32.47-45.33,49.41-11.12,12.93-21,26.93-31.43,40.45-1.27,1.64-2.57,3.25-3.85,4.88Z"/><path d="M840.45,28.32a25.75,25.75,0,0,1-3.38,3.9c-5.72,4.45-11.28,9.2-17.4,13.05-24,15.11-47,31.65-69.51,48.88-12.55,9.6-24.71,19.7-37.29,29.25-7.07,5.37-14.6,10.15-22,15a14.83,14.83,0,0,1-5.52,2.07c-2.06.36-4.31-.36-4.89-2.52a6.65,6.65,0,0,1,.7-5,24.21,24.21,0,0,1,5.76-5.71c8.89-6.29,17.92-12.38,26.91-18.53,1.35-.92,2.79-1.7,4.15-2.6q53.13-34.72,106.23-69.47c3.95-2.59,7.68-5.49,11.53-8.23C837,27.6,838.22,26.2,840.45,28.32Z"/><path d="M793.71,1.58A23.44,23.44,0,0,1,791.24,5q-6.43,6.27-13,12.36c-17,15.62-34,31.13-50.83,46.86-4.76,4.45-8.81,9.66-13.42,14.27-5.25,5.25-10.64,10.37-16.22,15.27C694,97,691.17,97.24,689,95.2c-2.33-2.2-1.87-4.93,1.77-9,1.81-2,3.62-4.24,5.9-5.58,9.65-5.68,17.62-13.39,25.66-21,18.75-17.7,37.54-35.32,58-51.09,3.3-2.54,6.22-5.56,9.46-8.19.67-.53,2-.4,3-.34C793,.07,793.29.88,793.71,1.58Z"/><path d="M705.37,555c-1.31,1.65-2.53,3.36-3.93,4.93C684.38,579,667.16,598,650.25,617.27c-20.38,23.22-40.72,46.51-58.88,71.55-8.2,11.31-15.61,23.21-23.38,34.83-.47.69-1,1.35-1.48,2l-1.08-.43c.65-2.09,1-4.37,2-6.25,3.94-7.16,7.81-14.38,12.23-21.24,12.52-19.46,27.68-36.9,42.57-54.55,25.21-29.88,51.83-58.48,78.89-86.7a39.66,39.66,0,0,1,3.1-2.65Z"/><path d="M169.61,418.77q114.64-71.62,235.64-131.88l.76,1a12.36,12.36,0,0,1-2.3,2.17c-7,3.84-14,7.65-21.1,11.37Q281.28,354.65,183,413.26c-3.12,1.86-6.23,3.73-9.41,5.49a18.92,18.92,0,0,1-3.38,1.14Z"/><path d="M868.06,79c-1.68,1.6-2.7,3.06-4.09,3.82-5.4,3-10.8,6-16.41,8.5-9.58,4.34-19.43,8.09-28.95,12.57-9.84,4.63-19.4,9.84-29.09,14.78-3.88,2-7.7,4.08-11.67,5.84-4.15,1.83-7.46.77-8.79-2.45s.24-6.77,3.94-8.49a69.27,69.27,0,0,1,7.74-2.52c7.91-2.59,15.94-4.89,23.7-7.88,14.22-5.46,28.31-11.29,42.4-17.07,5-2.06,9.93-4.45,14.88-6.69C863.3,78.67,864.75,77.3,868.06,79Z"/><path d="M895.25,459.11a87.2,87.2,0,0,1-6.28,28c-3.17,7.5-8.69,11.94-17.08,12.08-1.53,0-3.52-.24-4.52-1.2-3.92-3.72-8-7.43-11.12-11.79-3.91-5.44-4.85-11.7-3.93-18.61,1.47-11,4.6-21.2,10.47-30.57,3.58-5.73,7.27-7.06,13.85-5.27C889.41,435.2,895.57,443.69,895.25,459.11Z"/><path d="M986.28,449.66a71.55,71.55,0,0,1-6.65,27.53c-2.64,5.46-6.64,10.34-10.57,15-1.2,1.44-4.25,2.06-6.35,1.89a12,12,0,0,1-9.63-6.35c-4.29-7.58-7.06-15.5-5.73-24.42,1.08-7.2,2.42-14.3,5.52-21,1.86-4,4.13-7.63,7.76-10.33,8.28-6.17,19.7-3.14,23.34,6.55C985.28,442.08,985.54,446,986.28,449.66Z"/><path d="M898.29,506.75c.36-5.13,1.72-10.76,6-15.52,1.87-2.08,2.94-4.87,4.37-7.33a26.36,26.36,0,0,1,2.49-4.18c1.77-2.06,4.11-1.63,5,.95a39.11,39.11,0,0,1,1.62,6.86c1,6.79,2.17,13.58,2.88,20.41.87,8.3-6.9,14-14.72,11C899.3,516.37,898.13,514.66,898.29,506.75Z"/><path d="M924.71,495.25a48.08,48.08,0,0,1,.34-6.48c.68-3.61,3.68-4.73,6.34-2.21,4.75,4.5,8.93,9.49,10.34,16.16,1,4.83-1.67,8.92-6.59,10.12-4,1-7.76-1.16-8.95-5.8-1-3.81-1.21-7.82-1.77-11.73Z"/><path d="M904.34,401.2c.58,3.18-1.56,4.47-3.53,5.56a58.69,58.69,0,0,1-7,3c-5.74,2.25-11.49,4.51-17.28,6.64a17.79,17.79,0,0,1-5.27,1.12,3.1,3.1,0,0,1-2.48-1.56,3.22,3.22,0,0,1,.91-2.78,11.31,11.31,0,0,1,3.77-2.09q14.6-5.21,29.25-10.26C903,400.75,903.41,401,904.34,401.2Z"/><path d="M990,414.35c-1.07.5-2.1,1.44-2.73,1.22-5.46-1.92-10.9-4-16.24-6.22-.79-.34-1.42-2-1.37-3.06a3,3,0,0,1,2.37-1.63c6,1.37,11.88,3.29,16.66,7.47A9.75,9.75,0,0,1,990,414.35Z"/></svg>