<svg id="Layer_1" data-name="Layer 1" xmlns="http://www.w3.org/2000/svg" viewBox="0 0 2266.22 1594.21"><title>lessons</title><path d="M1896.38,1404.34a10,10,0,0,0-.22,2.7c6.32,21.82.42,41.2-11,59.94-24.82,40.75-61.62,64.3-106.84,76.62-47.46,12.93-92.44,7.15-135.13-16.8-11.61-6.52-22.62-14.09-34-21.06-6.81-4.18-13.53-8.58-20.69-12.08-8.73-4.28-13.08-3.19-19.47,3.88a116.52,116.52,0,0,0-8.54,11.08q-7.2,10.2-14.13,20.61c-22.53,33.78-55.22,50-94.56,54.54-44,5.08-83-7-117.67-34.27-19.17-15.11-36.44-32.21-52.83-50.24-6.95-7.64-13.84-15.34-21-22.8-3.17-3.31-6.9-6.09-11.36-10-3.3,3.72-6.52,6.51-8.67,10-3.7,5.92-6.7,12.27-10,18.42-4.77,8.78-9.25,17.74-14.42,26.27-19.12,31.52-48.41,47.89-83.71,54.15-18.9,3.36-37.12-.45-54.21-9.39-15.81-8.28-29.64-19.22-42.06-31.88-12.6-12.85-24.37-26.51-37.11-39.2-13-12.9-26-25.87-40.22-37.32-14.69-11.83-20.21-10.53-33,3.36-5.63,6.14-11,12.5-16.82,18.49a104.37,104.37,0,0,1-29.68,21.76c-23.31,11.24-45.81,9.55-67.37-4.58-14.23-9.34-24.72-22.21-33.55-36.53-14.17-23-22.06-48.4-28.12-74.45-3-13-5.58-26-8.47-39.06-.77-3.46-2-6.83-3.42-11.73-5,4.28-9,7.66-12.91,11.06-11.88,10.22-23.7,20.52-38.25,27-18,8-34.7,5.73-49.3-7.2a94.54,94.54,0,0,1-15.91-19.08c-9.89-15.14-16.73-31.8-22.06-49.06-1.67-5.41-3.29-10.84-4.67-16.33-2.28-9.09-4.63-18.08-13.09-22.81-35.29,51.69-69,105-108.66,154.17-23.07,28.63-47.28,56.31-78.2,76.74-48.23,31.85-99.46,58.19-153,79.84-23.92,9.67-49.35,13.72-74.59,18.28-10.49,1.9-20.93,4.1-31.45,5.84-23.58,3.92-34.3-3.19-39.69-26.55-3.46-15-5.56-30.27-2.64-45.59a36.07,36.07,0,0,1,6.28-14.29c3.74-5,9.1-4.91,12.3.35,3.1,5.08,7.27,5.69,11.89,5,12.51-1.83,25-3.76,37.39-6.34,29.34-6.11,58.88-11.56,87.84-19.17,75.94-20,139.26-60.72,191.77-118.87,29.13-32.27,53.68-68,78.62-103.37,6.11-8.69,11.89-17.62,18.76-27.84-9.21,2.23-16.64,4.62-24.27,5.77-30.86,4.67-60.45.31-88.31-14a74.07,74.07,0,0,1-15.78-10.46c-28.2-25.39-44.65-56.91-47.26-95-.93-13.54,2.23-26.53,10.65-38a18.62,18.62,0,0,0-3-2.76c-40.34-22.95-66.94-57.23-82.79-100.35a248.79,248.79,0,0,1-15.21-71.1c-2.85-47,14.49-84.53,53.19-111.81a99.27,99.27,0,0,1,33.54-15.06c3.21-.8,6.4-1.67,10.38-2.72-2.08-3.6-3.72-6.83-5.72-9.82C328.3,718.12,316.24,659,320.35,596.1c1.71-26.15,7.81-51.41,21-74.41,21.51-37.41,54.17-57.61,96.86-62.25,19.38-2.11,38.62-.23,57.86,1.51,16,1.46,17.5.51,19.51-15.67,2.84-22.8,4.61-45.79,8.69-68.37,6.87-38,19.63-74.13,41.37-106.38,43.24-64.15,104.55-92.3,181-89.4,22.47.86,44.44,5.35,65.7,12,23.22,7.3,40.9,1.08,55.86-17.07,10.59-12.86,21.74-25.26,32.65-37.85C919.31,117,938.83,97,962.23,81.19,978.91,69.9,996.75,61.06,1016.32,56c29.49-7.63,58.37-4.81,86,7.16,15.54,6.71,30.24,15.38,45.2,23.4,13.49,7.24,26.57,15.28,40.27,22.1,21.65,10.78,43.91,10.75,65.53.14,13.41-6.59,26.24-14.44,39-22.3,16.73-10.32,32.84-21.64,49.7-31.71,18.12-10.83,37.53-18.63,58.7-21.59,27.74-3.88,53.29,1.9,75.65,18.49,12.23,9.06,23.14,20,34,30.74,8.77,8.64,16.49,18.33,24.92,27.33a207.09,207.09,0,0,0,15.79,15.29c14.54,12.53,23.56,13.27,39.41,2.11,9.5-6.68,18.18-14.57,27-22.18,16.39-14.16,32.12-29.12,49-42.65,22.06-17.68,46.75-30.67,74.63-36.86q37.3-8.28,70.36,10.87c18.73,10.84,34.23,25.39,47.66,42.15,8.55,10.65,16.43,21.83,24.73,32.68,5,6.62,10,13.33,15.58,19.52,7.72,8.62,11.53,8.76,19.78.37,6.52-6.64,12.23-14.07,18.39-21.07,12.11-13.75,23.54-28.2,36.57-41,30.93-30.39,67.08-52.58,109.11-64.18s79.9-1.7,114.06,23.83c16.7,12.47,28.57,28.79,33,49.76a18.81,18.81,0,0,0,1.49,3.75c10-3,19.32-6.87,29-8.6,25-4.48,47.29,2.52,65,20.45,30.15,30.52,38.4,67.55,29,108.81-5,21.82-15.6,41-29.18,58.61-16.43,21.28-36.18,39.09-58.35,54.24-2.46,1.68-4.94,3.34-8.16,5.52,2,2.5,3.74,4.79,5.62,6.95,21.7,25,38.3,52.79,46,85.38,5.53,23.5,1.69,45.28-13.7,64a304.48,304.48,0,0,1-29.71,30.93,360.72,360.72,0,0,1-58.65,43.25,43.46,43.46,0,0,0-4.19,2.71c-.43.32-.46,1.16-.9,2.44,3.72,1,7.43,2,11.14,3.09,26.57,7.45,50.2,19.83,68,41.5,16,19.47,25.12,41.49,23.21,67.22a90.68,90.68,0,0,1-10.79,37.18c-8,14.58-16.46,29-25.86,42.69-21.5,31.35-44.69,61.45-70.46,89.48-2,2.13-3.67,4.5-6.15,7.56,5.31,1.58,9.7,2.93,14.11,4.19,19.74,5.63,36.6,15.9,50.09,31.42,20.21,23.25,27.15,49.81,19.9,80-5.85,24.32-16.78,46.27-30.53,66.93-24.61,37-55,68.57-90.13,95.58-5,3.86-10.13,7.61-15.13,11.5-10.93,8.51-11.35,10.2-6.06,22.62,2.74,6.43,5.71,12.78,8.16,19.33,12.57,33.54,9.39,65.61-10.62,95.33a211,211,0,0,1-25.43,30.69c-22.27,22.37-48.4,39.68-76,54.74-35.24,19.21-71.72,35.31-111.44,42.92C1912.14,1402.23,1904.56,1403.11,1896.38,1404.34ZM108.32,1524.84a103,103,0,0,0,4.87,42.85c3,9.17,5.86,10.84,15.63,10,2.32-.2,4.62-.65,6.91-1.07,12.78-2.33,25.51-4.93,38.33-7,33.11-5.34,65-14.56,95-29.81q44.07-22.44,87.71-45.73c32.12-17.15,59.62-40.16,83.42-67.63q11.46-13.21,22.52-26.78c35.51-43.43,64.69-91.36,97.12-137,2.61-3.68,3.66-8.47,5.45-12.74.88-2.11,1.2-5.18,2.78-6.13a24.92,24.92,0,0,0,9.35-9.54c2.44-4.29,8.62-3.74,11.86.61,2,2.62,2.88,6,4.71,8.76,1.95,3,4.56,5.46,6.63,8.34s4.43,5.75,5.54,9c2.47,7.24,4.24,14.71,6.29,22.1,4.82,17.4,11,34.28,20.2,49.88a99,99,0,0,0,13.62,18.38c9.8,10.22,21.79,12.62,34.66,6.17a115.6,115.6,0,0,0,18.57-11.63c9-6.91,17.31-14.61,26.08-21.78,14.2-11.6,24.13-8.54,29.37,9.2,2.16,7.33,3.61,14.88,5.2,22.37,5.24,24.78,10.48,49.56,20.35,73,7.17,17,16.3,32.86,29.77,45.78,22.09,21.18,46.53,23.62,71.46,6,9.41-6.65,17.26-15.55,25.64-23.61,5.51-5.31,10.3-11.4,16.09-16.36,9.85-8.42,21.15-9.49,32.65-3.72,5.92,3,11.87,6.39,16.75,10.77q19.31,17.34,37.62,35.79c12.9,13,24.69,27.16,38,39.77a237.61,237.61,0,0,0,32.09,25.28c14,9.3,29.91,13.59,46.7,11,30.23-4.61,56-17.56,72.9-44.06,7.52-11.75,13.31-24.59,20.26-36.72,4-6.9,8-14,13.18-19.9,8.27-9.47,18.24-10.07,28.51-2.69a70.12,70.12,0,0,1,9.7,8.62c6.89,7.24,13.58,14.67,20.3,22.07,16.15,17.8,33.11,34.72,52,49.7,30.68,24.34,65.33,35.32,104.44,31.22,34.8-3.65,64.11-17.24,84.21-47.21,4.82-7.19,9.69-14.37,14.69-21.44a139.57,139.57,0,0,1,9.75-12.66c11.1-12.35,22.58-14.87,37.75-7.91,6.63,3,12.86,7,19.09,10.86,12.78,7.84,25.13,16.42,38.21,23.71,27.36,15.26,56.68,23,88.25,20.67,19.78-1.47,38.64-6.79,57.11-13.77,32.11-12.13,56.4-33.38,74.35-62.46,10.46-16.94,13.91-34.12,6.2-53.23-4.5-11.16-.46-16,11.48-16.83,9.62-.65,19.41-1,28.74-3.18,66.26-15.24,124.92-45.5,175.47-91,8.84-7.95,16.59-17.41,23.48-27.13,19-26.81,22.06-55.8,9.54-86.28-2.78-6.78-5.9-13.42-8.59-20.24-5.75-14.54-3.54-23.61,8.44-33.74,5.85-5,12.08-9.43,18.18-14.08,35.29-26.91,65.65-58.47,89.87-95.76,11.87-18.28,21.27-37.67,26.39-59,6-25,0-46.81-16.92-65.84a85.12,85.12,0,0,0-41-25.59c-6.72-1.92-13.61-3.44-20.06-6.06-9.43-3.83-11.9-11.78-6.36-20.24,3.26-5,7.45-9.39,11.47-13.82A821.2,821.2,0,0,0,2265.55,725a235.14,235.14,0,0,0,17.3-31.47c11.76-25.78,8.94-50.58-6.79-74a95.57,95.57,0,0,0-43.42-35.68c-11.63-4.8-24-7.85-36-11.68-3.8-1.2-7.82-1.92-11.38-3.63-9.46-4.53-10.53-13.28-2.49-19.83a74.51,74.51,0,0,1,10.08-6.47A357.86,357.86,0,0,0,2253,499.38a341.79,341.79,0,0,0,30.21-30.45c13.18-15.15,16.23-33.1,11.59-52.51-4.08-17-11.11-32.76-20.16-47.67-8.69-14.31-19.23-27.13-30.84-39.19-8.44-8.77-7-14.25,2.76-20.78,13.25-8.86,26.63-17.76,38.7-28.11,21.74-18.66,39.36-40.77,49.54-68,12.08-32.25,10.17-63.35-8.43-92.88-21.24-33.74-59.67-40-88.38-20.24-13.29,9.13-21.31,2.81-22.26-10.55-1.16-16.21-8.73-30.12-20.81-40.95-28.76-25.78-62.16-37.31-100.55-29-38.71,8.35-71.56,28.41-101.08,54.23-18.15,15.88-33,34.81-48.27,53.29-5.93,7.16-12.15,14.27-19.19,20.29-11.37,9.72-23.34,9.38-34.07-1-7.13-6.91-13.2-15-19.34-22.84-9.22-11.83-17.79-24.16-27.18-35.84a153.78,153.78,0,0,0-40.16-35.69c-19.2-11.63-39.63-14.94-61.48-9.88a146,146,0,0,0-53.44,24c-15.86,11.54-30.87,24.3-45.88,37-12.23,10.3-23.56,21.68-36,31.72a112.21,112.21,0,0,1-23,13.86c-11.72,5.5-23.59,4-34.29-3a110,110,0,0,1-17.8-14.45c-11.2-11.4-21.85-23.35-32.66-35.14s-22-23.27-35.47-32.14c-18.57-12.2-38.76-17-60.89-14.17-18.53,2.37-35.63,8.83-51.43,18.29-18.86,11.28-36.85,24-55.69,35.32-14.24,8.55-28.79,16.82-44,23.49-21.38,9.38-43.58,9.12-65.13-.06-11.61-4.94-22.83-10.89-33.92-16.94-15.21-8.29-29.82-17.7-45.21-25.6-44-22.58-87.48-20.66-129.13,5.92a263.41,263.41,0,0,0-39.22,30.73c-14,13.26-26.29,28.3-39.29,42.59-10.1,11.09-19.81,22.54-30.31,33.22-15,15.3-33.2,20.06-54.1,14.46-10.94-2.92-22-5.38-33-7.87-29.27-6.61-58.72-8.18-88.26-2C633.93,213.58,591.09,250,564.17,306c-17.67,36.81-26.44,76-30.27,116.4-1.12,11.93-2,23.95-4.29,35.69-2.73,14.13-10.36,19.61-24.72,19.5-4.32,0-8.63-.71-12.95-.83-17-.48-34-2.21-50.89-1-37.88,2.75-66.8,21-85.72,54.23-9.7,17-15.11,35.58-17.35,54.92-7.36,63.74,3.78,123.42,39.71,177.53a148.41,148.41,0,0,1,8.74,14.56c5.2,10.22,2.28,16.51-8.68,19.38-2.57.67-5.21,1.07-7.83,1.57a94.16,94.16,0,0,0-46.72,23.44c-24.81,22.55-36,50.78-34.53,84a225.54,225.54,0,0,0,24.61,94c14.82,28.86,36.13,51.74,64.39,68,6.09,3.5,11.68,5,18.66,1.53,4.2-2.09,9.69-2.3,14.56-2.14a10.21,10.21,0,0,1,10.05,8.31c1.22,5.25-1.38,9.12-5.47,11.91-5.43,3.72-11.75,5.4-18.09,4s-9.32,1.46-12.23,6c-5.54,8.57-6.42,18.14-5.79,27.89,1.69,26.32,13.45,48.49,29.32,68.77,8.6,11,19.78,18.74,32.62,24.11,19.09,8,39.05,11,59.61,10.27,16.64-.62,32.6-3.31,44.36-16.9.43-.5,1-1.15,1.52-1.25,2.47-.41,5.73-1.75,7.28-.68,2,1.38,3.18,4.62,3.73,7.27.43,2-1.67,4.87-.9,6.54,3.69,8,.2,14.44-3.83,20.58-10.23,15.6-20.58,31.14-31.32,46.39-23.61,33.53-47.61,66.73-75.87,96.65-54,57.14-118.4,97-194.69,116.27-33.54,8.49-67.75,14.39-101.72,21.1C136.13,1526.61,122.66,1529.93,108.32,1524.84Z" transform="translate(-92.32)"/><path d="M1197.24,437.77c4.57-8.5,8.71-17.24,13.8-25.38,6.34-10.12,13.16-20,20.4-29.48,2.94-3.86,7.23-6.91,11.4-9.58,9.65-6.18,19.47-4,24.19,6.44,3.37,7.43,5.92,15.83,6.25,23.91.48,11.53-1.06,23.2-2.38,34.73-1.2,10.42-3.27,20.74-4.19,31.34,7.2-7.42,10.86-16.59,14.25-25.86q13.71-37.51,27.25-75.1c1.56-4.36,2-9.16,3.68-13.44,3.19-8,6.29-16.12,10.69-23.44,4.25-7.05,9.61-8.87,14-6.71,6,3,5.77,8.54,5.09,13.9-3.28,25.92,3.59,50.75,7.07,77.38,3.43-2,5.61-3.16,7.7-4.48,14.89-9.47,29.72-19.06,44.7-28.41a40.28,40.28,0,0,1,10.91-4.81c1.73-.46,4.9.67,5.84,2.11s.67,4.62-.33,6.27c-1.31,2.14-3.75,3.7-5.91,5.21-17.72,12.45-35.37,25-53.32,37.12-4.85,3.27-6.3,6.67-5.44,12.41,2.7,18-3.58,33.64-15.15,46.94-3.93,4.53-9.94,7.87-15.64,10.11-7.66,3-13.66-.22-17.1-7.76-3-6.57-4.46-13.67-1.25-20.34,3.73-7.73,7.79-15.54,13.16-22.14,4.35-5.35,5.35-9.88,3.43-16.26-3.9-13-7.14-26.13-11.25-41.44-2.87,7.6-5.22,13.06-7,18.71-5.43,17.14-10.31,34.47-16.06,51.5-2.85,8.46-7,16.51-10.86,24.59-1.27,2.63-3.49,4.87-5.5,7.08-5.65,6.23-12.21,10.77-21.09,8.11-8.54-2.56-12.9-9.21-14.5-17.57-3-15.88-3.47-31.82.71-47.58,2.65-10,6.08-19.73,8.66-29.71,1.64-6.33,2.36-12.89,3.5-19.34l-2.13-1.41c-3.51,2.66-7.4,4.95-10.48,8.05C1221.82,406,1215,422,1208.34,438c-1.14,2.76-1.43,5.93-2.85,8.5-7.5,13.62-8.47,28.53-9.31,43.57-.58,10.29-1.69,20.57-2.85,30.82-.73,6.41-3,12.32-7.64,17-6,6.09-14.4,5.81-18.64-1.49a35,35,0,0,1-4.85-15.9c-.38-13.64.44-27.31.81-41,.46-16.65,1-33.3,1.38-49.95a38.7,38.7,0,0,0-.87-5.7c-7,3.18-9.93,8.6-12.78,14.11-5.2,10.06-10.26,20.18-15.59,30.17-1.71,3.21-3.48,6.86-6.26,8.95-7.08,5.34-8.68,12.57-9.87,20.73-2.61,17.8-10.42,33.65-20.58,48.31a54.32,54.32,0,0,1-9.36,10.32c-13.64,11.56-32.2,8.17-40.51-7.67a48.51,48.51,0,0,1-4.64-16.15,160.49,160.49,0,0,1-1.2-23.91c.16-7.6,1.34-15.17,2.21-24.15-5.78,3.45-8.82,8.19-12.44,12.17-4.71,5.16-11.1,10-13,16.16s.66,13.63,1.73,20.47c4.21,26.65-3.73,48-27,62.77a36.26,36.26,0,0,1-9,4.19c-7.09,2.12-13.47-.45-16.92-7-4.19-7.95-6.31-16.54-1.89-24.92a161.82,161.82,0,0,1,14-21.74c2.87-3.8,4.27-7.1,3.11-11.8-5.65-22.92-11.19-45.88-11.43-71.49-2.16,2.33-3.41,3.24-4.09,4.47-12.87,23.32-25.57,46.74-38.59,70-2.88,5.14-2.72,9.6-.83,15,4,11.62,7.94,23.36,10.54,35.35,3.58,16.47.28,31.78-11.16,44.81-8.36,9.53-19.2,13-31.38,12.33-11-.64-16.72-7.53-16.4-18.59a54.66,54.66,0,0,1,9.5-29.13c7.1-10.5,7.46-20.18,2-31.54-3.82-8-5.24-17.14-7.76-25.76-.54-1.85-1.18-3.66-2.21-6.85-2.07,3.16-3.67,5.1-4.72,7.3-10.36,21.63-20.52,43.36-31,64.94-6.38,13.19-12.38,26.66-20,39.1-5.68,9.23-13.09,17.65-20.88,25.26-8.43,8.24-17.29,8.39-27.41,2.23-10.33-6.28-17.28-15.4-21.71-26.61-6.47-16.34-7.19-33-3.58-50.09,1.31-6.19,2.71-12.36,4-18.55,3.85-18.54,14.39-32.69,28.93-44.22a35.57,35.57,0,0,1,3.25-2.33c14.22-8.89,28.93-1.25,29.64,15.63a63.14,63.14,0,0,1-1.33,14.88c-4,20.08-12.76,37.93-27.07,52.59-5.31,5.45-6.71,11.1-5.39,18,1.67,8.73,1.95,18,9.83,25.65,2.88-1.84,6.31-3.25,8.65-5.7a163.48,163.48,0,0,0,15.54-18.17,212.52,212.52,0,0,0,14-23.08c14.37-27.07,28.65-54.19,42.54-81.5,3.26-6.42,4.91-13.66,7.2-20.56,1-3.15,1.67-6.46,2.8-9.58,3-8.29,7.32-12.28,13-11.85,7.18.54,10.07,5.77,12,11.74,1,3.16,1.53,6.49,2.6,9.63,2.66,7.72,5.51,15.37,9,25,2.81-4.74,4.5-7.43,6-10.21,14.74-26.88,29.53-53.72,44.1-80.69,2.67-4.94,4.38-10.4,6.55-15.61,4-9.75,8.44-13.71,14.39-12.95,6.4.82,9.75,6.61,11.21,16.84,3.15,22.07,6.76,44.08,10.26,66.1a55.82,55.82,0,0,0,2,6.62c2.48-2.26,4.39-3.84,6.1-5.61,5.33-5.51,10.39-11.29,15.9-16.6,6.52-6.28,12.25-12.86,16.21-21.24,2.48-5.25,6.88-9.78,11.09-13.95a23.05,23.05,0,0,1,9.51-5.17c7.74-2.24,12.27,2.37,10.68,10.24-2.24,11.08-4.87,22.1-6.51,33.27-2.16,14.82-3.64,29.75-5.16,44.66-.46,4.52-1.23,9.37,3,13.74,5.47.35,10.11-2.52,13.24-6.74,5.12-6.9,10.13-14.1,13.76-21.84,4-8.61,6.48-18,9.89-27.75-13.44-2.58-17.62-11.75-19.08-22.54a17.1,17.1,0,0,1,2.06-10.36c4.68-7.77,13.91-7.91,18.73-.22,3,4.7,4.51,10.27,7,16.26,1.71-1.51,3.76-2.6,4.73-4.3,4.76-8.36,9.09-17,13.86-25.32s9-17.17,15-24.54c9.13-11.2,22.91-10.4,31.19,1.6C1191.65,423.13,1194,430.63,1197.24,437.77ZM804.09,547.9c-15.1,16.62-19.1,34.15-17.74,53.37C797.69,586,807.24,570.13,804.09,547.9Zm98.66,49.36-2.33-.15c-2.19,4.44-4.75,8.73-6.48,13.34a56.75,56.75,0,0,0-3.71,14.37c-.61,6.83,3.38,8.89,9.5,5.55,5.69-3.1,9.19-10.73,7.64-18.11C906.3,607.16,904.32,602.25,902.75,597.26ZM986.4,551c-6.88,9.47-12.78,17-14.66,26.54a9.87,9.87,0,0,0,2.73,7.78c2.85,2.57,5.47-.36,7.6-2.42C991.08,574.2,989,563.91,986.4,551Zm328-66.66c8.8-8.5,11.77-18.11,8.59-26.09C1317.29,465.71,1311.33,472.7,1314.44,484.35ZM1108.5,453.67c-5.73,9.24-3.17,15.75,6.63,19.32Z" transform="translate(-92.32)"/><path d="M1712.06,905.58c-3-15.31-6.53-30.53-8.73-45.94-4.85-33.95-8.56-68.06-13.58-102q-5.34-36-13-71.71c-7-32.64-13.35-65.28-12.49-98.86a104.05,104.05,0,0,1,1.76-15.83,16.46,16.46,0,0,1,3.36-7.11c4.54-5.6,10.51-4.91,13.08,1.82a133.27,133.27,0,0,1,6.93,22.9c8,43,20.43,84.79,32,126.83,4.82,17.49,6.18,35.38,7.82,53.29,3.64,39.51,10,78.61,18,117.44,5.86,28.36,12.77,56.52,18,85,2.57,14,2.39,28.41,3.48,42.63.27,3.6.49,7.22,1,10.79,1.24,7.81-1.65,14-7.94,16.5s-13.41.18-17.61-5.77a14,14,0,0,1-2.63-5.32c-2.12-11.93-9.73-20.88-15.84-30.77-11.73-19-23.22-38.13-33.9-57.72-23.47-43-48.87-84.88-77.16-124.93a146.65,146.65,0,0,0-20.7-23.83,18,18,0,0,0,1,3.57c20.69,41.31,33.71,85.43,47.44,129.28,10.45,33.38,20.4,66.9,26.36,101.45q4.76,27.54,9.51,55.09a31.22,31.22,0,0,1,.71,6.92,13.36,13.36,0,0,1-9.92,12.4c-5.71,1.41-11.58-.6-14.54-6.13-2.65-4.94-4.36-10.41-6.21-15.75-23.92-69.26-44.88-139.41-64.29-210.07-10.71-39-27.41-75.73-45.23-111.93-7.06-14.33-14-28.72-21.08-43.05-1.64-3.33-4-6.89-.35-9.94s8.27-4.56,13-1.78c6.87,4.07,14.18,7.63,20.37,12.57,32.65,26,63.31,54.14,88.65,87.62,23.34,30.84,46.35,61.88,66,95.27,1.49,2.53,3.19,4.94,4.8,7.41Z" transform="translate(-92.32)"/><path d="M1501.56,1030.44l-17.89,17.07c6.69,14.26,12.74,27.54,19.13,40.66,9.06,18.6,17.18,37.55,21.72,57.84.72,3.21,1.48,6.6,1.21,9.82-.7,8.17-7.33,11.48-14.21,7a34,34,0,0,1-8.68-8.14c-4.35-5.87-8.28-12.07-12-18.34-38.47-63.93-67.14-132.29-92.75-202.17-23.83-65-48.85-129.61-73.83-194.2-8.28-21.41-18.16-42.2-27.14-63.35-2.86-6.73-5.26-13.66-7.72-20.55s.05-12.2,5.37-16.78c17.39-15,36.61-16.78,56.69-6.92,11.32,5.56,21.83,12.78,32.67,19.29,1.71,1,3.26,2.32,5,3.39,45.92,29.14,80.36,68.17,103.78,117.45,13.72,28.87,29.39,56.85,38.13,87.82,11.36,40.23,13.7,80.71,1.12,121.13-3.34,10.74-8.32,21-12.78,32,27.32,13,43.49,37.29,57.29,63.5,22.35,42.46,45.22,84.61,71.1,125,9.16,14.3,18.73,28.34,28.07,42.53,2.2,3.33,4.35,6.7,6.32,10.17,2.4,4.25,1.79,8.4-1.29,12.06s-7.33,5-11.72,3.39c-3.67-1.32-7.53-3.13-10.28-5.79-20.13-19.44-40.33-38.83-54.85-63.19-20.5-34.41-37.1-70.77-54.22-106.88-5.55-11.73-11.19-23.44-17.34-34.87C1525.73,1047.15,1516.15,1037.59,1501.56,1030.44Zm-23.67,5.16c13.51-21.19,25.93-40.92,33-63.27a115.26,115.26,0,0,0,5-27.38c2.34-37.18-3.19-73.15-19.62-106.84-15.17-31.09-30.93-61.91-46.84-92.64a138.46,138.46,0,0,0-26.64-36c-22.63-21.92-47.8-40.42-76-54.4-6.34-3.13-13.87-4.12-21-5.32a11.39,11.39,0,0,0-11.09,4.15q65.89,139.9,120.22,283.48c11.29,29.91,23,59.62,37.45,88.15C1473.85,1028.42,1475.49,1031.22,1477.89,1035.6Z" transform="translate(-92.32)"/><path d="M1484.56,515c11.37-2.46,22.7-4.74,34-7.37,44.1-10.31,88.14-20.89,132.3-30.93,7.26-1.65,11.32-5.49,15.12-11.44,21.65-33.9,37.79-70.4,52-107.86q25.81-68.24,51.44-136.55c.74-2,1.86-3.79,3.71-7.5,2.16,7.85-.26,13.06-2,18.09q-12.19,34.92-24.88,69.65-17.66,48.35-35.64,96.57c-8.89,23.75-19.06,46.92-32.88,68.31a22.83,22.83,0,0,0-1.36,3.66c3.42-.7,6.27-1.17,9.06-1.87A1570,1570,0,0,0,1940,379.84c13.06-5.82,25.69-12.64,38.31-19.39,9.81-5.25,18.26-12.23,24-22,.83-1.42,1.75-3.33,3.07-3.81,2.58-.93,6.07-2.15,8-1.11s4,4.89,3.72,7.19c-.52,3.78-2.55,7.53-4.58,10.91-5.65,9.41-14,16.33-23.48,21.22-21,10.79-42,21.73-63.76,30.95-30,12.75-60.7,24-91.09,35.87-1.85.72-3.66,1.54-7.67,3.24,4,.46,6,1,7.93.88,39.62-1.66,76.67,7.91,111.64,26,37.35,19.29,73.54,40.51,107.14,65.91a223.73,223.73,0,0,1,37.36,36c3.38,4.09,3.35,4.11,2.42,10.74-2.83-1.88-5.47-3.07-7.37-5-42-42.2-93.54-70.35-145.44-97.76-31.61-16.7-65.64-25.7-101.37-28.08-6.53-.43-13.52,0-17.23-6.49-32.49,9.69-64.57,19.77-97,28.81-82.46,23-166,41.78-249.63,59.86-106.82,23.09-212.73,49.68-317.26,81.64-56.5,17.28-111.22,39-163.67,66.34-3.49,1.82-6.95,3.71-11.49,6.14,1.81.87,2.53,1.55,3.15,1.47,25.89-3.53,51.27,0,76.25,6.31,24.51,6.22,49,12.61,73,20.54,12.13,4,23.18,11.44,34.52,17.68,3.31,1.83,7.73,4.53,4.92,9.34s-7.21,2-10.59.26c-38.2-20.11-79.54-30.47-121.51-38.37-28.34-5.34-56.83-5.37-85.37,1a75.45,75.45,0,0,0-21.67,8.65c-57,32.68-104.28,76.85-148.82,124.67C739.13,890.33,705.27,948.75,683,1014.32c-6.56,19.37-11.24,39.06-9.9,59.75.12,2,.35,4.46-.67,5.8-1.63,2.16-4.11,4.61-6.52,5-1.82.26-5-2.12-6-4.1-1.37-2.86-1.56-6.41-1.74-9.69-1.16-20.6,2.78-40.51,9.16-59.92,19.65-59.79,47.82-114.92,89.66-162.5,31.51-35.83,63.86-70.82,101.26-100.67,41.87-33.42,88.15-59.86,135.59-84.33,67.83-35,139.71-59.18,212.95-79.81,82.4-23.2,165.25-44.53,249-62.29a27.81,27.81,0,0,0,14.55-7.92c21.8-21.81,40.77-45.72,56.08-72.55,27.58-48.36,54-97.3,76.14-148.45,4.1-9.47,8.26-19,11.47-28.76,3.16-9.62,5.15-19.63,8-30.74a20.47,20.47,0,0,1,.69,13.2c-2.31,9.7-4.18,19.66-7.91,28.83-26.06,63.93-55.74,126.15-90.52,185.84a242.85,242.85,0,0,1-36.83,48.42,39.62,39.62,0,0,0-3.13,3.81C1484.26,513.38,1484.44,513.83,1484.56,515Z" transform="translate(-92.32)"/><path d="M920.05,929.66A140,140,0,0,1,909,885.6c-1.64-20.26,1-39.88,9.06-58.62,3.73-8.67,8.89-16.42,16.27-22.46,13.28-10.88,29.57-9.61,40.89,3.53,10.86,12.59,12.45,27.67,10,43.33-3,19.52-11.65,36.82-23.3,52.47-4.55,6.1-4.25,10.65-.75,17,16.21,29.24,36.38,55.79,55.59,83,15,21.22,30.43,42.14,45.38,63.39,30,42.6,56.59,87.18,78.62,134.39,18.56,39.77,31.51,81.29,36.42,125.08.66,5.9.85,11.86,1.3,18.38,3,.26,5.53.62,8.08.69q44.45,1.34,88.88,2.58c9.32.26,18.64.39,28,.55,8.92.15,13.57,2.62,14.47,7.74.94,5.34-3.28,11-11.94,12.36a167.64,167.64,0,0,1-32.74,1.93c-30.28-1.2-60.53-3.22-90.8-4.88a38.15,38.15,0,0,0-4.48.34c-1.3,6.57-2.42,13.08-3.88,19.51-4.14,18.2-11.57,34.79-25,48.08-14.67,14.49-32.12,19.75-52.23,14.09-15.84-4.45-25.13-15.35-26.41-31.49a91.44,91.44,0,0,1,2.5-28.57c3.52-14.4,12.78-25.21,27.08-29.8,15.14-4.85,30.77-8.14,47.67-12.49a73.47,73.47,0,0,0-.65-7.82c-7.09-42.47-22.22-82.11-42-120.18-33.46-64.38-74.51-123.8-118.13-181.56-21.11-27.94-41.38-56.42-57.4-87.69a30.9,30.9,0,0,0-2.52-3.55c-1.5,1-2.89,1.84-4.19,2.81-18.71,13.88-36.77,28.76-56.27,41.44-22.82,14.83-33.87,36-38.15,61.66-.89,5.37.62,11.14.94,16.73.12,2.13,0,4.26,0,6.17-4.67,1.58-6.64-1-7.61-3.8-1.41-4-2.91-8.35-2.83-12.51.56-27.58,9.27-51.57,31.56-69.38q25.38-20.28,50.48-40.9C907.47,941.64,913.59,935.56,920.05,929.66Zm229.4,436.5c-12.92-1.43-24.4.18-35.73,2.77-19.9,4.54-30.4,18.87-29.17,39.13,1,16.4,11.87,25.27,28.2,23a26.71,26.71,0,0,0,16.51-8.48C1143.72,1406.87,1149.51,1388,1149.45,1366.16Zm-201-474.42,2.64.4c4.63-9.81,9.67-19.46,13.71-29.5,2.32-5.77,3.45-12.13,4.32-18.33,1-7,0-14-4-20.1-4.81-7.32-11.08-7.37-15.57,0A40.67,40.67,0,0,0,945,835.16C940.05,854.4,942.12,873.24,948.47,891.74Z" transform="translate(-92.32)"/><path d="M1397.78,1138.68l-28.36,14.94c1.18,2.89,2.61,6.17,3.85,9.51,5.21,14,10.55,28,15.43,42.19a47.21,47.21,0,0,1,2.72,14.65c.06,8.58-6.25,11.94-13.48,7.41a32.23,32.23,0,0,1-9-7.86c-7.24-9.92-14.66-19.81-20.81-30.42-26.22-45.29-43.32-94.3-57.81-144.34-12.6-43.52-24.47-87.24-31.21-132.12-3.51-23.36-5.7-46.93-9-70.33-2.5-17.78-5.91-35.44-8.71-53.18a105.85,105.85,0,0,1-1.67-17.8c.11-6.92,4.4-11.91,10.26-13.12,6.31-1.31,11.44,1.23,14.51,6.5,5.18,8.92,9.72,18.2,14.48,27.36,30,57.78,53.82,118.14,75,179.6,7.61,22,16.33,43.67,24.76,65.41,18,46.44,41.76,90,67.65,132.42,8.46,13.87,15,28.93,22.13,43.59,3.09,6.38,2.07,10.85-2,13.33-3.8,2.32-7.83,1.55-12.19-3.58-13.14-15.45-27.55-29.91-36.71-48.44-4.86-9.85-10.45-19.34-15.76-29C1400.71,1143.16,1399.23,1141,1397.78,1138.68Zm-117.72-289-2.3.68c3.8,20.23,6.67,40.69,11.57,60.64,18.12,73.8,42.38,145.67,69.65,216.55a26.27,26.27,0,0,0,2,3.54l26.77-12.82c-.75-1.84-1.33-3.37-2-4.86-26-57.34-48.4-116.12-69.34-175.45-9.42-26.7-18.59-53.43-31.23-78.83C1283.55,855.89,1281.76,852.79,1280.06,849.64Z" transform="translate(-92.32)"/><path d="M736.93,722.31l136.13-60.79c2,4.78-1,6.56-3.29,8a136.23,136.23,0,0,1-17.26,10c-35.2,15.94-70.41,31.88-105.88,47.19-7.83,3.38-10.76,7.47-11.19,16.08-1.7,33.94-9.28,66.54-25.33,96.83-7.86,14.82-17.35,28.44-29.43,40.13-7.49,7.25-15.81,13.33-25.72,16.88-21.27,7.63-39.26-3.79-41.47-26.3-1.14-11.58,1.66-22.54,5.91-33.14,14.78-36.9,38.58-66.83,71.33-89.22,7.52-5.15,9.64-10.23,8.37-18.84-4.7-31.6-8.81-63.3-13.26-95.84-2,.88-3.54,1.2-4.61,2.1-25.62,21.31-51.3,42.55-76.72,64.1-14.27,12.11-27.17,25.56-37.28,41.5-8.53,13.44-14.75,27.7-15.24,43.81-.19,6.15.9,12.34,1.41,18.54-6.53-.4-8.35-1.79-9.22-8.59-1.63-12.74-.63-25.33,4.11-37.38a134.48,134.48,0,0,1,32.55-48.66c12-11.48,24.86-22.16,37.49-33,19.2-16.51,38.37-33.07,57.88-49.21,6.21-5.13,8.68-10.61,8.37-18.79A378,378,0,0,1,689.87,531c4.78-28.71,18.42-52.64,40-71.9a65.16,65.16,0,0,1,17.54-11.23c15.44-6.58,29,.89,32.39,17.41A76.13,76.13,0,0,1,778.66,501c-8.3,30.76-23.33,58-44,82.08-5,5.8-7.13,11.5-6.48,18.89,2.31,26.19,4.57,52.4,6.57,78.62C735.74,693.82,736.15,707.14,736.93,722.31Zm-37,29.63c-4,2.44-6.07,3.47-7.89,4.81a205.38,205.38,0,0,0-60.52,70.65,100.35,100.35,0,0,0-8.35,22.34,51.41,51.41,0,0,0-1.14,18.73c2.1,15.65,15.87,22,28.48,12.66a96,96,0,0,0,20.28-20.37C694,828.92,698.67,791.93,700,751.94Zm63.72-285.16c-26.78,11-40.66,66.88-34.06,103.78,16.52-22,29.28-45,36-71a51.92,51.92,0,0,0,1.51-15.8C766.8,478.32,765,473,763.68,466.78Z" transform="translate(-92.32)"/><path d="M1077.22,891.17c3.92,15.23,9,29.28,16.32,42.39,6,10.74,11.94,21.61,18.85,31.79,18.35,27,35.37,54.84,51.43,83.24,13,22.9,25.46,46,38.18,69.06,1.73,3.12,3.55,6.19,5,8.65,14-7.1,27.16-14,40.55-20.48a41.51,41.51,0,0,1,13.23-4c6.21-.68,10.87,2.53,13.49,8.29,2.46,5.39,1.83,11.85-3.49,15.32-15.72,10.24-29,25-49.66,27l45.31,101.39c6.64-4.32,12.18-7.33,17-11.21,12.35-9.85,27.27-13.58,41.79-18.34a15.66,15.66,0,0,1,4.94-.52c4.77,0,8.32,2.1,10.15,6.65a9.3,9.3,0,0,1-2.51,11c-19.68,17.39-38.61,35.9-64.68,44-11.26,3.48-20,1.22-26.82-9.33-11.54-17.89-23.68-35.6-33.13-54.6q-46.7-93.93-97.19-185.85c-4.48-8.16-10.15-15.65-14.8-23.72-11.13-19.32-22.36-38.59-32.83-58.26-9.35-17.56-13.09-37-15.87-56.45-2-13.69,2.27-24.93,14.1-32.89,13.51-9.1,26.94-18.35,40.4-27.53,1.36-.94,2.75-1.85,4-2.89,8.19-6.54,11.44-6.23,19.28,1.89,6.8,7,7.49,13.6,1.18,20.07a73.37,73.37,0,0,1-13.37,10.37C1104.9,874.49,1091.48,882.48,1077.22,891.17Z" transform="translate(-92.32)"/><path d="M1836.46,1135.67c-3.85.53-6.12.59-8.24,1.17q-46.21,12.77-92.4,25.65c-1.61.45-3.16,1.07-4.78,1.46-2.85.7-6.41,2.32-8-1.33-1.82-4.29,2.27-5.68,5.11-7.11a97.55,97.55,0,0,1,12.79-5.63q36.48-12.14,73.08-23.92c9.19-2.93,18.54-5.44,27.91-7.74a17.61,17.61,0,0,0,11.07-7.65c31.34-45.57,71.7-82.25,115.11-115.83,10.55-8.16,21.91-15.53,35.44-17.64a39.47,39.47,0,0,1,16.61,1c8.35,2.42,13,8.86,14.18,17.61s-1.37,16.53-5,24.12c-7.94,16.49-19.59,30.07-33.35,42-26.56,23-56.88,39.42-89.54,51.75-11.2,4.23-22.62,8-34.14,11.26-5.94,1.67-9.67,4.8-12.89,9.92-17.59,27.91-35.09,55.88-53.34,83.36-42.76,64.41-94.36,120.64-156.46,167-33,24.62-68.91,43-109.43,51.55-15.4,3.27-31,5-46.67,3.14a62.4,62.4,0,0,1-15.46-3.7c-14.28-5.61-18.45-17.44-10.28-30.56a81.71,81.71,0,0,1,14.88-17.33c20.75-18.55,43.79-34.1,69.16-45.31s51.41-20.21,77.35-29.69c4.78-1.75,10.42-1.53,15.66-1.52,3.16,0,6.2,2.19,5.53,5.67-.39,2-2.92,4.37-5,5.11-45.05,15.87-88.48,35.23-129.46,59.86-8.27,5-16.48,10.14-24.23,15.88a70.36,70.36,0,0,0-13.57,13.13c-5.86,7.54-4.11,13.36,5.25,15.47a84.41,84.41,0,0,0,25.68,1.91,189.9,189.9,0,0,0,32.3-6.22c35.55-9.64,67.3-26.91,96.37-49.3,23.56-18.15,45.07-38.56,65.47-60.15,40.63-43,77.24-89.13,108.75-139.25C1819.71,1161.44,1827.73,1149.23,1836.46,1135.67Zm42.91-29.93c3.48-.84,5.69-1.18,7.76-1.91,32.19-11.41,62.72-26.17,90.33-46.39a183.43,183.43,0,0,0,26.87-23.74c6.17-6.74,10.71-15.18,15-23.38,2.71-5.2,4.84-11.72,0-16.93-5.2-5.57-12.12-3.66-17.75-1-8.4,3.92-16.84,8.29-24.13,13.93-34.65,26.8-66.16,56.89-92.93,91.72C1882.91,1100.06,1881.61,1102.34,1879.37,1105.74Z" transform="translate(-92.32)"/><path d="M1923.94,902.78c-8.72-37.29-17.29-73.81-25.8-110.35-1-4.21-2.21-8.45-2.43-12.73-1.24-23.72-7.17-46.66-11.44-69.87-3.57-19.44-5.38-38.9-2.74-58.61.3-2.27.31-4.58.54-8.26-5.91-.1-11.4,0-16.87-.33-4.61-.24-9.47-.14-13.7-1.66-2.5-.9-5-4.41-5.66-7.19-.94-3.84,2.39-5.93,5.89-6.72,8.1-1.83,16.22-3.62,24.38-5.12,3.58-.66,7.38-.18,10.94-.87,16.61-3.22,31,2.17,44.16,11.5,16,11.41,28.22,26,35.62,44.62,14,35.36,24,72,33.82,108.61a120.64,120.64,0,0,1,.7,61.32c-6.7,26.37-24.41,44.83-45.92,59.63-10.87,7.47-23.33,12.71-35.33,18.41a21.5,21.5,0,0,1-11.66,1.68,10.74,10.74,0,0,1-7.27-5.38c-.76-1.72,1.28-5.73,3.21-7.37,3.76-3.19,8.25-5.54,12.57-8C1919.47,904.61,1922.24,903.57,1923.94,902.78ZM1948.78,889c11.61-11.35,22.7-23,25.06-39.42,3.31-23.09,4.62-46.36-4.58-68.8a70.58,70.58,0,0,1-3.33-11.48c-6.25-28.22-12.6-56.32-24.49-83-5.58-12.52-12.88-23.22-22.89-32.16-5.28-4.71-11.29-8.67-19.32-10.12,3.48,23.43,7.23,45.58,13.42,67.37,4.72,16.57,7.88,33.6,11.41,50.49,1.5,7.14,1.84,14.51,3.27,21.67C1934.25,818,1941.35,852.52,1948.78,889Z" transform="translate(-92.32)"/><path d="M1819.55,836.75c10.44-2.09,20.15-4.17,29.93-5.93a63.41,63.41,0,0,1,12.88-1.12c4.57.13,8.7,2,9.66,7.08,1,5.29-2.54,7.83-6.87,9.57l-41.81,16.76,15.57,93.49a67.79,67.79,0,0,0,8.4-2.06c19.75-7.48,40.61-6.66,61.13-8.29a20,20,0,0,1,7.8,1.27,11.17,11.17,0,0,1,7.89,9.45,11.79,11.79,0,0,1-5.27,12.12,19.52,19.52,0,0,1-4.42,2.29c-20.34,7.39-40.65,14.82-61.07,22a82,82,0,0,1-14.57,3.39c-12.78,2-21.94-2.8-28.19-14.06-6.63-12-8.17-25.32-10.47-38.37-6.69-38-12.22-76.28-19.44-114.21-9.27-48.73-19.93-97.19-29.57-145.86a337.44,337.44,0,0,1-4.76-37.57c-1-11.45,4-20.25,14.88-24.64,12-4.84,24.17-9.39,36.49-13.34,3.46-1.11,8-.44,11.56.76,3.75,1.25,3.69,5.64.2,7.76-2,1.2-4.32,1.69-6.46,2.62-8.55,3.71-17.21,7.19-25.57,11.28-8.6,4.21-8.85,5-6.74,13.93,1.69,7.12,3.16,14.37,5.68,21.21,15.17,41.07,24.44,83.69,33.85,126.29C1813.41,806.83,1816.28,821.16,1819.55,836.75Z" transform="translate(-92.32)"/><path d="M1840.91,1260.53c-6.52-1.1-13.13-1.84-19.5-3.5-2-.52-3.35-3.49-5-5.33,2-1.39,3.75-3.62,5.9-4,45.44-9,87.59-27.06,129.16-46.62,18.66-8.78,36.84-18.55,55.26-27.82a41.89,41.89,0,0,1,8.2-3.52c5.34-1.35,9.77.59,12,4.81s1.44,8.47-1.64,12a20.3,20.3,0,0,1-5.34,4.43c-39.09,22.06-77.51,45.54-121.18,58.07C1879.85,1254.46,1860.88,1259.38,1840.91,1260.53Z" transform="translate(-92.32)"/><path d="M1543.9,1265.52c1.83,1.31,5,2.42,5.62,4.33.72,2.35-.69,5.39-1.33,8.09-.13.54-.91.93-1.42,1.36-22.62,19.07-45.15,38.24-67.91,57.15-17.4,14.45-35.11,28.53-52.63,42.84-3.25,2.66-6.43,5-10.65,2.16-3.51-2.41-4.1-6.56-1.43-11.65a34.59,34.59,0,0,1,5.11-7.34c29.76-32,60.49-62.81,98.47-85.26,5.43-3.2,11.1-6,16.8-8.73C1537.19,1267.21,1540.19,1266.66,1543.9,1265.52Z" transform="translate(-92.32)"/></svg>