<svg data-name="Layer 1" xmlns="http://www.w3.org/2000/svg" viewBox="0 0 1103.23 1029.71"><path d="M334.66 630.5c5.46 5.46 8.43 11.1 5.8 18.52-2.5 7.05-8.71 9.27-15.46 11.77 2 8.11 4 16 6.08 24.25 2.56-1.13 4.31-.13 5.77 2.31 4.2 7 8.63 13.89 12.95 20.82q10.68 17.1 21.33 34.22c2.68 4.32 5.19 8.76 8.06 13 8.32 12.12 16.88 24.08 25.18 36.22 11.91 17.43 25.19 33.8 38.61 50.07 2.78 3.36 2.82 3.32 8 1.62-.71-2.1-1.13-4.37-2.18-6.3a75.78 75.78 0 0 0-6.1-9.68c-17.47-23.07-32.76-47.57-47.4-72.49q-17.27-29.37-34.56-58.7c-2.68-4.53-5.85-8.79-8.37-13.4-4.76-8.76-9.22-17.69-13.78-26.56-.12-.24.1-.68.25-1.5.92.17 2.24 0 2.66.56a39.2 39.2 0 0 1 3.39 5.55c3.39 6.42 6.48 13 10.12 19.27 10.13 17.43 20.23 34.89 30.8 52.06q22.86 37.11 46.43 73.8c5.86 9.17 12.49 17.85 18.58 26.88 3.55 5.27 4.23 8.45 3.87 13.7 3.41 3 7.21 4.72 11.92 4.35 2.65-.2 5.11.68 5.95 3.69.76 2.68-.61 5.69-3.55 7.26a14.73 14.73 0 0 1-5.13 1.67c-5.06.54-10.14 1-15.22 1.12-4.6.1-6.26-1.92-5.69-6.51a18.38 18.38 0 0 1 1.54-4.57c.53-1.28 1.23-2.49 2.08-4.17-1.53-.33-2.51-.62-3.5-.74-1.95-.25-4-.11-5.87-.65-11.67-3.41-23.35-6.81-34.94-10.51-7.09-2.26-14-5.11-21-7.55-3.24-1.13-6.59-1.93-10.88-3.17.61 2.51 1 4.34 1.52 6.13 3.07 10.64 6.07 21.3 9.29 31.9 1.58 5.2 3.51 10.31 5.41 15.42q10.14 27.32 20.36 54.62a18.47 18.47 0 0 1 1 3.1c.95 5.33 1.94 10.72-5.51 13.87 2 .89 3 1.55 4.09 1.73 1.41.24 2.91 0 4.34.15 3.47.46 7.75 4.39 8.44 7.7.74 3.55-1.95 5.21-4.1 7.09-6.7 5.88-14.34 7.46-22.86 4.84-2.78-.85-5.62-1.51-8.35-2.5-4.22-1.55-4.87-3.87-2.06-7.46a32.37 32.37 0 0 1 4-3.67l5.14-4.67c-6.63-.52-8.65-4.5-9.83-9.28-.48-1.94-1.14-3.83-1.75-5.74-.83-2.55-1.35-5.22-4.13-6.71-1-.52-1.51-2-2.15-3.08-6.8-11.6-13.83-23.07-20.32-34.84s-12.21-24-18.66-35.74c-7.42-13.57-14-27.51-20.13-41.69-2.23-5.15-5.14-10-7.78-15a2.87 2.87 0 0 0-1.65-1.33c0 14.2.33 28.24 2.62 43-3.18.63-6.27 1.62-9.41 1.77-3.82.18-4.77-.84-5.21-4.73-.54-4.69-.84-9.41-1.2-14.12-.75-9.78-1.46-19.55-2.23-29.78a27.28 27.28 0 0 0-3.72 1.2C247.18 818 209.13 837.75 171.85 859c-10.88 6.2-21.27 13.28-31.82 20-1.49 1-2.56 2.54-3.95 3.69a23.52 23.52 0 0 1-4.3 3c-2.51 1.25-3 3-.82 4.82a45.94 45.94 0 0 0 5.07 3.17c4.62 2.89 5 7.4.42 10.39a19.19 19.19 0 0 1-8.6 3c-5.59.46-11.25.16-16.88.11a9.06 9.06 0 0 1-2.66-.54c-4.38-1.47-5.31-5.06-2.07-8.35a23.64 23.64 0 0 1 4.72-3.67c4.74-2.79 7.13-7 8.37-13.07l-5-3.53c.86-1.86 1.4-3.17 2-4.44 18.5-35.9 39.52-70.3 61.81-104 13.44-20.3 26.08-41.13 39.22-61.63 8.63-13.46 17.55-26.73 26.26-40.14 2-3 3.59-6.23 5.56-9.68-6.06-3.73-8.38-8.68-7.39-15.36 1-6.48 4.67-10.84 10.64-14.61-1.58-.76-2.41-1.26-3.31-1.58-6.54-2.34-12.8-5.21-18.27-9.56a7.37 7.37 0 0 0-7.06-1.44q-26.35 6.87-52.79 13.4a13.69 13.69 0 0 0-7.15 4.55c-4.77 5.21-9.72 10.27-14.52 15.45-4.07 4.4-8.3 8.67-12 13.37-5.32 6.76-7.25 7.22-14.59 1.8a44.2 44.2 0 0 1-3.22 4.84c-3 3.42-5.72 7.13-9.19 9.93-4.55 3.67-10.11 3.79-15.4 1.58a10.47 10.47 0 0 1-6.54-12.33c.79-3.44 2.64-6.69 4.37-9.84 2-3.64 4.52-7 6.57-10.63 1.48-2.61 2.67-5.08 1.45-8.61-1.36-4 2-8.35 6.13-9.61 2.26-.68 4.53-1.29 6.79-2a9 9 0 0 1 8.68 1.92c8.1 6.8 10 16.57 5.29 26-1 2.07-2.13 4.12-3.35 6.45 1.09.49 1.88.87 2.68 1.22 3.74 1.65 4.28 1.75 6.26-1.51 4.52-7.42 10.83-13.13 17.24-18.78.13-.12.28-.24.4-.37 3.35-3.82 7.23-7.31 9.91-11.56 3-4.75-2.21-9.19-1.75-14.32-10.15 7-17 17.16-26.17 24.95-2-2-1.61-3.48-.07-5 7.62-7.54 15.19-15.13 22.86-22.62 1-1 2.38-2.08 3.64-2.15 7.64-.4 13.92-4.78 21-6.9S194.11 600.3 201 598c.15-.05.25-.26.7-.74-2.63-.72-5.07-1.38-7.51-2.07-4.18-1.17-6.42-3.85-6.54-8.27-.07-2.34-.33-4.67-.53-7.4-8.78-.27-17.45-.73-26.12-.74-5.18 0-5.73-.12-7.93-4.65a62 62 0 0 1-5.64-20.37c-1-8.47-1.95-17-3.43-25.35-1.07-6-3.48-11.89-4.39-17.95a199.48 199.48 0 0 0-8.61-33.75c-1.49-4.47-2.43-9.11-3.61-13.68-5-19.52-10.09-39-18.35-57.53a47.13 47.13 0 0 1-2.71-8.82c-.49-2.17.16-3.94 2.93-4.14l25.52-2c15.54-1.3 30.26 2.48 44.93 6.91 9.37 2.83 18.83 5.31 28.28 7.87a6.67 6.67 0 0 0 3.67.12c5.13-1.78 10.17-3.82 15.28-5.68 1.79-.66 3.45-1.33 3.51-3.58.13-4.75 3.4-6.29 7.27-7.57a614.51 614.51 0 0 1 73.61-19.84c16.2-3.21 32.39-6.57 48.69-9.19a139.18 139.18 0 0 1 25.5-1.58c5.85.15 12.45.75 16.57 5.63 3.64 4.32 8.1 6.34 13.16 7.79 5.52 1.58 8.07 5.28 7.42 10.66.65.55.9.95 1.2 1 5.71 1 8.15 4.38 9.66 10 3.18 12 4.11 24.35 6.29 36.49 1.73 9.66 3.47 19.31 3.43 29.18a19.93 19.93 0 0 0 .55 2.86c5.44-.5 10.79-.88 16.12-1.52 3.37-.4 5.61.23 7.09 3.1 2.63 5.11 3.19 10.47.45 15.69a7.07 7.07 0 0 1-3.89 3.3 114.84 114.84 0 0 1-11.72 2.06c-2.23.35-4.47.58-6.7.87l.19 1.48c11-.84 21.92-1.66 32.88-2.55a51.39 51.39 0 0 0 7.52-1.07 96 96 0 0 0 9.25-2.71 34.26 34.26 0 0 0 6.91-2.91 26.8 26.8 0 0 0 6.65-5.39c3.05-3.69 7.05-4.66 11.42-5.3q16.69-2.43 33.37-5.09c8.2-1.32 14.34 2.49 19.27 11 6.1 10.51 6.51 21.71 5.34 33.26-.45 4.52-1 9-1.74 13.51-.48 3-1.28 6-1.89 9-1.64 8.13-7.43 11.31-14.87 11.42-9.61.16-19.23-.49-28.84-.75-7.45-.19-14.9-.41-22.34-.43-3.13 0-5.63-.13-6.68-3.92-.65-2.36-3.19-2.53-5.44-2.49-6.9.11-13.82 0-20.7.35-11.43.62-22.92 1-34.24 2.55-7.76 1.06-15.16-.32-22.71-.83a4.78 4.78 0 0 1-3-1.09c-3.32-3.62-8-4.62-12.12-6.67a27.85 27.85 0 0 1-11.7-11.14c-5.52-9.48-10-19.46-11-30.52-1-12.27 1.18-24.2 5.08-35.88a38.54 38.54 0 0 1 9.24-15.16c2.13-2.15 4.3-3.77 7.49-3.85s6.5-.57 9.76-.67c11.38-.33 18.53 7.23 21.74 15.92 1.67 4.54 2.13 9.52 3.2 14.6l-6.34 2c3.55 1.25 5.84.68 8.64.15a142.49 142.49 0 0 0-1.69-22.19c-1.27-8.43-2.36-16.9-3.89-25.29-1.44-7.85-3.4-15.6-5-23.42-.5-2.43-2.24-3.13-4.24-3.61-4.41-1.07-8.8-2.26-13.26-3.11-3.92-.75-5.94-2.77-6.52-6.79a33.3 33.3 0 0 0-2.5-7.74c-1.18-2.88-3.25-4.32-6.86-2.93-1.32 4.05-2.72 8.32-4.11 12.6-1.3 4-3.52 6.32-8.24 6.37-4.28.05-8.53 1.25-13 2 3.32 20.82 3.39 41.36 4.43 61.82.86 16.87.42 33.8.88 50.69.28 10.17 1.23 20.31 1.81 30.46.32 5.61.49 11.22.75 17.3 4.53.57 9 1.43 13.41 1.59 5.47.2 8.82 2.59 10.4 7.81q3.48 11.46 7.2 22.85a53 53 0 0 0 2.49 5.51l6.26-1.43c1.2-8.13 2.42-16 3.53-23.91 1.22-8.66 3.66-11.48 12.17-13.77 1.2-.33 2.38-.69 3.71-1.07a60.48 60.48 0 0 1 1-7.1c.19-.75 1.53-1.2 2.34-1.79.48.82 1.51 1.75 1.38 2.45-1.74 9-.5 18.07-.41 27.11a114 114 0 0 1-.34 11.4c-.42 4.66-4.91 8.73-9.51 9.29q-11.22 1.35-22.4 3a5.73 5.73 0 0 0-3.1 1.64 100.55 100.55 0 0 1-36.67 24.81c-11.46 4.58-22.86 9.17-34.85 14.02zm32.07-240.65a28 28 0 0 0-11.77 1 77.1 77.1 0 0 1-10 2.17c-3.22.56-6.5.75-9.7 1.38q-29.91 6-59.79 12.05c-31.13 6.36-62.26 12.65-93.33 19.26-9.94 2.11-20.44 1.88-29.41 6.55 2 33.58 3.9 66.84 5.85 100.16l215 3.66c-.14-3-.25-5.35-.37-7.67-.6-11.79-1.84-23.58-1.69-35.36.36-27.1-1.18-54.12-2.65-81.14-.47-7.22-1.41-14.39-2.14-22.06zm-94.82 268.54a27 27 0 0 1-1.52 3.37c-8.94 14.12-17.82 28.27-26.9 42.29-11.85 18.29-24.48 36.1-35.66 54.79-21.53 36-42.27 72.48-63.32 108.76-.87 1.5-1.54 3.12-2.92 5.91 2.65-1.51 4.24-2.25 5.64-3.24 23.49-16.67 49.25-29.42 74.54-42.95 20.8-11.13 41.9-21.73 63-32.33 3.54-1.77 4.43-3.88 4.3-7.61q-1.1-30.78-1.72-61.56c-.39-19.07-.48-38.15-.77-57.23-.05-3.37-.4-6.73-.63-10.2zm101.94-70.15v-38.63c-5.14 0-9.66-.07-14.19 0-23.08.41-46.14.09-69.22-1.11-22.86-1.19-45.76-1.57-68.65-2.32-1.45 0-2.9-.17-4.36-.21q-27.5-.93-55-1.83a14.35 14.35 0 0 0-2.72.5c.8 10.14 1.57 20 2.35 30 1.47.16 2.54.31 3.61.37 12 .67 23.93 1.49 35.91 2 15.61.61 31.25.79 46.86 1.45 14.52.62 29 1.53 43.51 2.5 11.24.76 22.47 1.72 33.68 2.75 8.68.8 17.32 1.94 26 2.78 7.37.67 14.76 1.16 22.22 1.75zm26.59 4.48l-.93-1.55c-5 .92-9.94 2.07-15 2.65a35 35 0 0 1-8.95-.42c-2.23-.32-4.34-1.62-6.57-1.84-4.51-.45-9.08-.26-13.6-.71-10.65-1.06-21.26-2.5-31.92-3.49-12.3-1.14-24.62-2.07-36.94-2.88-17.59-1.16-35.16-2.32-52.8-2.47-13.8-.12-27.58-1.27-41.37-1.93a4.22 4.22 0 0 0-1.4.43v3.35c.24 6.43.69 7.29 6.78 8.47 7.2 1.39 14.38 3.42 21.85.51 2.53-1 5.75 0 8.59-.34 3.2-.39 5.19 3.45 8.68 2a85 85 0 0 1 8.85-2.62 5.08 5.08 0 0 1 .52-.15c3.61-.63 5.14-.1 6.45 3.28 1.83 4.73 3.28 9.62 4.8 14.46a2.54 2.54 0 0 1-1.78 3.45 43.35 43.35 0 0 1-4.19 1.17c-4.16 1-8.32 1.86-13.19 2.94a19.88 19.88 0 0 0 2.54 1.81c12.76 5.94 26 10.39 40.09 11.55 6 .49 12 .72 18 .77 13 .11 25.77-1.46 38-6 10.7-4 21.27-8.33 31.91-12.49 9.92-3.88 18.48-10 27-16.26 1.57-1.18 3.06-2.41 4.58-3.69zm-36.57 231a52.4 52.4 0 0 0-.9-7c-1.71-6.67-4.2-13.19-5.38-19.94a152.13 152.13 0 0 0-7.6-27.21c-2.16-5.77-4.15-11.63-5.77-17.57-2.44-8.92-4.45-18-6.72-26.93q-6.13-24.27-12.39-48.52c-1.26-4.88-2.71-9.71-4.16-14.86H307.8c.62 2.13 1.15 3.84 1.62 5.56 5 18.22 10.15 36.38 14.79 54.67 4.32 17.07 8.08 34.27 12 51.43 7.15 31.14 15 62.09 23.76 92.84 7.67 26.92 16.77 53.32 25.45 79.88 1.33 4.09 3 5.14 7.3 4.68a20.64 20.64 0 0 0 2.66-.56c10.84-2.74 10.9-5.92 7.87-14.15-6.64-18.06-13.4-36.08-20.1-54.12-1.77-4.76-3.72-9.47-5.2-14.32-3.74-12.33-7.2-24.75-10.92-37.09-.67-2.33-2.03-4.44-3.16-6.82zm-52.94-20.83c6.23 13.37 11.94 26.32 18.26 39 6.41 12.84 13.65 25.26 20.1 38.07 8.4 16.69 17.06 31.67 21.14 35.66-3.23-11.16-6.59-22.63-9.88-34.12-8.94-31.24-18.41-62.33-25-94.21-3.31-16-8.08-31.67-11.44-47.66-5.31-25.25-12.11-50.1-19.24-74.88-1.44-5-1.72-5-7.39-4.17 2 44.6 4.05 89.21 6.09 134.22 3.64 1.66 7.13 3.48 10.78 4.86 6.78 2.58 13.65 4.94 20.51 7.33 1.55.55 3.32.76 2.52 3.76-9.32-.29-16.99-6.49-26.45-7.89zm128.36 41.48c-12.73-16.94-25.47-33.66-38-50.57s-24.27-34-35.15-51.8-22.19-35.65-33.3-53.46a2.64 2.64 0 0 0-.66 2.35c3.5 13.34 7 26.68 10.55 40 2.74 10.16 5.51 20.31 8.5 30.39 2.84 9.56 6.88 18.85 8.77 28.58s5.19 19.25 7.46 28.94c.66 2.81 1.82 4.33 4.85 4.93a113.79 113.79 0 0 1 13.11 3.64c17.28 5.52 34.53 11.14 51.79 16.7a11.58 11.58 0 0 0 2.08.27zM253.53 659.16c-2 3.35-3.68 6.35-5.56 9.21-6.9 10.47-14.05 20.77-20.78 31.35-12.29 19.31-23.94 39-36.59 58.11-20.3 30.59-40.11 61.47-58.13 93.47-4.63 8.21-9 16.57-13.57 25 3.41 4.31 8 5 13.14 5.93.36-.54.81-1.12 1.16-1.75 40.31-75.17 85.8-147.18 132.28-218.61a6 6 0 0 0 .37-1.78zm301.62-193.48c-10.35 1.45-20.17 3.35-30.07 4-7 .48-12.7 2.41-17.07 7.84-2.25 2.78-5 5.43-6.33 8.62-3.1 7.3-3.74 15.13-2.81 23 .7 5.93 1.41 11.9 4.55 17.23 1.54 2.6 2.9 5.3 4.81 8.81 16.18-1.51 33 2.46 50.2.81a83.69 83.69 0 0 1-3.28-70.31zm-66.4 21.83c-4.53.33-8.42.62-12.31.89-6.34.43-12.7 1.42-19 1.12s-12.44 2.48-18.8 1.54c-.49-.08-1.05.26-1.58.38-2.27.5-4.56 1-6.83 1.49a31.56 31.56 0 0 0-6.27 1.64 74 74 0 0 0-9.4 5.36c-2.18 1.45-3.57 3.32-2.49 6.45a10.37 10.37 0 0 1 .14 6.42c-1.72 4.76-.31 8.68 1.68 13 1.73 3.7 4.22 5.26 8 5.29 6.72 0 13.44.25 20.15 0 14.5-.62 29-1.48 43.49-2.28 1.88-.11 3.74-.44 6.31-.76-6.58-13.6-7.75-26.82-3.09-40.54zm-331 84.8c-.33-5.5-.57-11-1-16.5-.95-12.09-2.2-24.17-3-36.27-1.54-24.82-2.85-49.66-4.24-74.49-.3-5.25-.6-10.5-.75-15.76 0-1.35.5-2.71.91-4.76 3.14.62 5.89 1.83 8.47 1.54 6-.66 11.85-2.05 18.36-3.25-1-.94-1.34-1.43-1.78-1.61q-14.56-6.07-29.15-12.07c-4-1.65-8.07-3.28-12.18-4.7q-9.24-3.18-18.58-6c-1.22-.38-2.66-.06-4.4-.06.86 2.31 1.44 4.21 2.26 6 8.24 18.09 13 37.29 18.18 56.37 1.66 6.12 3.34 12.23 4.94 18.37 2.34 8.94 4.67 17.88 6.89 26.85 1.39 5.62 2.57 11.29 3.85 16.94.52 2.3 1.24 4.57 1.56 6.89 1.31 9.33 2.46 18.69 3.74 28 .75 5.2 2.28 10.2 5.92 14.51zm273.7-121.41c-1.68-8.33-5.43-13.91-12-16.49-11.63-4.58-25.57.85-29.41 13.38a176.08 176.08 0 0 0-5.22 23.31c-2.6 16 2.83 29.74 10.56 42.91 2.79 4.74 6.88 8.78 13.2 10.43-.33-2-.58-3.51-.89-5.35-4.26.18-7.93-.92-9.88-4.7a19 19 0 0 1-1.94-13.2c.94-4.1 2-5.08 6.33-4.86 2.67.13 5.3 1.16 8.6 1.94 4.68-3.51 9.57-8.54 17.06-8.48a7 7 0 0 0 3.09-1c2.83-1.49 5.59-3.12 9-2.91a52.1 52.1 0 0 0-7.55-.41c-2.54 0-5.09-.17-7.63-.13-9.23.14-11.48-3.93-10-13 .12-.71.7-1.4.64-2.06-.36-3.75 3.3-7.13.92-11.21-3.93 1.86-7.85 2.43-11.65-.37a12.46 12.46 0 0 1-4.51-13.58c1.64-6.33 6.29-8.49 12-5.33a11.06 11.06 0 0 1 3.76 3.72 64.28 64.28 0 0 1 3.39 7c3.77-3.33 7.43-2.82 12.13.39zM257 629.43c-1 1.08-1.77 2.67-2.89 3-6.92 1.93-8.6 7.15-8.68 13.34-.06 4.86 1.46 6.84 6.06 8.51a27.5 27.5 0 0 0 14.51 1.17c11.8-2.14 23.49-1.13 35.21.76 5.53.89 11.18 1.12 16.78 1.51.86.06 1.77-.61 3.16-1.14-1-.89-1.44-1.39-2-1.81-6.19-4.79-5.78-11.31.9-15.28a35.54 35.54 0 0 0 3.81-3.08 9.81 9.81 0 0 1 6.6 5.77c2 4.39 1.44 8.61-2.28 12.9 4.93-1.28 7.25-4 8.56-7.53a10.88 10.88 0 0 0-2.41-11.65c-2.8-3.09-6.08-5-10.59-3.15a22.4 22.4 0 0 1-6.41 1.13c-20.33 1.87-40.54 1.86-60.33-4.45zm-22.55-232.57c7.76-1.84 15.09-3.85 22.53-5.29q48.33-9.33 96.74-18.37a23.92 23.92 0 0 1 14.92 1.57c4.26 2 8.62 3.8 13 5.59a51.21 51.21 0 0 0 5 1.46c2-6.4 3.85-12.24 5.74-18.23a20.13 20.13 0 0 0-2.56-1.1c-1-.29-2.13-.4-3.2-.59-9.69-1.76-19.2.47-28.66 1.7-23.24 3-46 8.53-68.72 14.13-16.88 4.17-33.51 9.4-50.22 14.26-2.1.61-4.96.82-4.57 4.87zm142.64-14.45c-3.29-1.36-5.48-2.15-7.57-3.16a25.61 25.61 0 0 0-17.44-1.92c-6.9 1.55-13.9 2.62-20.85 3.93q-34.49 6.56-69 13.12a313.47 313.47 0 0 0-44.55 12.26c-4.73 1.64-8.29 5.47-8.79 9.5 2-.36 3.93-.68 5.86-1.08 37.12-7.65 74.2-15.53 111.38-22.86 12.76-2.51 25.5-5.33 38.53-6.46 3.84-.33 7.53-1.96 12.43-3.33zM373.69 540c-36.27-.72-71.85-1.84-107.44-2s-71.33-2-106.89-1.5c-.77 3.69 1.19 4.07 3.36 4.06 7.26-.05 14.53-.43 21.78-.19 19.06.63 38.1 1.54 57.15 2.31 28.67 1.14 57.33 2.46 86 3.31 14.32.43 28.67 0 43-.07a18.75 18.75 0 0 0 3.32-.67c-.09-1.79-.18-3.36-.28-5.25zm184.25-71.31c-.77 2.13-1.68 4.31-2.35 6.56-5.17 17.41-3.12 34.51 2.49 51.37a19.6 19.6 0 0 0 4 6.43c2.2 2.51 4.62 2.34 6.2-.54a27.68 27.68 0 0 0 3.41-9.11c1.54-11.31 3.6-22.59 2.62-34.12-.6-7-3.92-12.75-7.66-18.33-1.86-2.72-4.6-4.1-8.71-2.23zM303.07 842.51c-.6-7.13-1.32-13.79-1.69-20.48-.93-16.67-1.72-33.35-2.55-50-1-20.85-2.13-41.69-3.06-62.54-.55-12.51-.77-25-1.28-37.55a89.2 89.2 0 0 0-1.24-10.81c-.15-.89-1.26-1.63-1.93-2.44l-1.22.49c1.6 61 .25 122.14 6.49 183.36zM121.81 395.63c3.94 1.46 6.83 2.41 9.63 3.58 13.72 5.72 27.88 10.62 41 17.55 9.57 5.06 18.25 3.88 27.58 1.34a5.46 5.46 0 0 0 1.58-.36 7 7 0 0 0 2.37-2c1.18-2 2.09-4.16 2.9-5.84-10-3.16-19.84-6.32-29.7-9.36-17.7-5.44-35.61-8.54-55.36-4.91zm107.86 214.11c-.65-3-1-5.08-1.6-7.15-1.95-7.34-2.32-7.71-9.72-5.62-11.15 3.16-22.2 6.64-33.28 10-1.19.37-2.84.71-3.34 1.59-2 3.59-5.56 3.65-8.89 4.36s-6.55 1.49-10.15 2.31c1 3.89 1.73 7 2.47 10 3.41 1 6.09-.38 8.83-1.07q23.17-5.81 46.33-11.69c2.95-.7 5.83-1.68 9.35-2.73zm176.63-23.42c-.36-1.78-.54-3.2-.94-4.57-2-6.79-4-13.57-6.05-20.34a19.88 19.88 0 0 0-2.09-5 5.71 5.71 0 0 0-3.17-2.54c-5.14-.89-10.33-1.43-15.43-2.09-2.49 10.64-1.62 32.83 1.38 39.22zM460 463.67c-12.75 1.55-24.19 3.28-35.69 4.11-3.33.24-4.48 1.59-5.51 3.89-2.81 6.27-.69 10 6.16 10 9.25-.08 18.49-.76 27.74-1.29 2.77-.16 5.53-.66 9.34-1.14-4.67-4.93-4.04-9.73-2.04-15.57zM105.3 645.92c-3.57 5.51-7 10.62-10.23 15.83a15 15 0 0 0-2.49 5.38 14.31 14.31 0 0 0 .55 6.76c1.17 3.21 3.92 3.69 6.45 1.27a40.81 40.81 0 0 0 4.78-5.9c4.19-5.9 8.37-11.82 12.41-17.84a61.94 61.94 0 0 0 4.84-8.49c2.29-5 .49-9.38-4.62-11.74a11.34 11.34 0 0 0 .47 1.56c2.14 4.51 1.74 10.28-1.1 13.18-3.45 3.52-7 1.5-10.52 0a1.59 1.59 0 0 0-.54-.01zm332.28-96.49c-3.57 1.41-6.06 2.32-8.5 3.36a5.45 5.45 0 0 0-3.56 4.45c-1.24 8.58-2.58 17.14-4 26.6 2.68-.71 4.69-1.24 6.69-1.79 1.35-.37 2.69-1.09 4.05-1.12 4.76-.09 5.15-.06 5.28-4.6.2-8.52.04-17.04.04-26.9zm-53.36 416.29l.4 1.46c3.81 1 7.62 1.94 11.41 3 8.39 2.23 14.11-2.15 19.56-7.39-1.34-3.56-3.38-5.58-7-5.23s-6.8-.67-8.51-4.37l-6.68 1.53c.15 1.14.28 2.16.4 3.14zm-276.11-64.15c.69.8.92 1.29 1.15 1.3 7 0 14 .24 21-.1 2.3-.11 5-1.22 5.2-4.62-2.61-1.75-5.17-3.39-7.66-5.13-3-2.11-1.82-5.49-2.09-8.42l-3.67-1c-.12 9.4-8.33 12.76-13.93 17.97zm123.12-302.71c.67 2.95 1 6.8 2.53 10.13.77 1.7 3.67 3.56 5.48 3.45 4.72-.28 9.61-.77 14-3.37-1.44-4.66-2.8-9.08-4.34-14.09-3.27.74-6 1.39-8.78 2s-5.61 1.18-8.89 1.88zm268.37-71.1a47.82 47.82 0 0 1-4.77-22.06c0-7.45 1.74-14.9 2.71-22.37-2.92.65-4.56 2.54-5.56 5.66-4 12.42-2.73 24.38 2.68 36 .82 1.84 1.75 3.76 4.94 2.77zm-30.18 327.31c-7.09-.94-14.3-.32-18.19-8.94a77.92 77.92 0 0 1-2.66 7.46c-1.08 2.19-3 4.08-1.71 6.79 11.08 1.1 19.14-.51 22.56-5.31zM103.28 677.59c9.68-2 23.85-23.56 23-34zm312.15-226.27c-1.25-2.82-1.95-5.31-3.35-7.31-2-2.82-6.28-2.57-7.72.13-1.6 3-.88 8.31 1.58 10.6 1.76 1.64 4 3.23 6.25 1.68 1.52-1.05 2.18-3.34 3.24-5.1zm-8.56 63.28c0-3.61.12-7.19 0-10.75-.08-1.81-.71-3.65-2.95-3.89-2-.21-4.65 1.73-4.54 3.77a33 33 0 0 0 1.75 8.85c.64 1.93 2.59 2.87 5.74 2.02zm22-52c0-2.33.4-4.89-.16-7.23a5.59 5.59 0 0 0-3.41-3.37c-.85-.25-3.1 1.4-3.34 2.5-.53 2.48-1 5.51 0 7.63 1.05 2.28 4.11 1.39 6.4 1 .12-.01.24-.22.51-.48zM114.73 638.49c0-3.14-1.66-5.28-4.21-5.34-2.81-.06-5.5 2.23-5.62 4.78-.1 2.2 3.3 4.91 6.23 5 2.31.01 3.57-1.53 3.6-4.44zm210.58 3.2c-3 1.14-6.79 1.44-6.76 6.07a3.77 3.77 0 0 0 3.51 4.06 6.85 6.85 0 0 0 4.76-1.43c1.89-1.72 1.1-5.11-1.51-8.7zm93.62-260.11c-.43-5.47-3.17-7.41-10.48-7.75.7 6.48 1.85 7.35 10.48 7.75zm45.71 85.27h-1.13c-1.82 5.17-1.82 5.17 1.68 8.6-.19-3.34-.38-5.97-.55-8.6z"/><path d="M380.34 397.9c1.25 1.73 2.56 2.8 2.38 3.48-.31 1.17-1.54 2.1-2.39 3.13-.82-.79-2.32-1.61-2.3-2.38.04-1.13 1.16-2.25 2.31-4.23zM426.26 400.2l-3.42 3.71c-.71-.85-2.06-1.77-2-2.54a4.87 4.87 0 0 1 2.07-3.06c.39-.26 1.78.96 3.35 1.89zM428.71 920.59c-.86.52-1.44 1.13-1.93 1.07s-.9-.8-1.35-1.24a6.84 6.84 0 0 1 1.71-1.42c.22-.09.86.83 1.57 1.59zM259.67 455.37c2.56.54 4.62 1 6.71 1.42 11.16 2 18.58 8.1 22 19.18 3.49 11.32 1.19 21-6.76 29.66-6.58 7.2-14.44 10.76-24.19 10-4.34-.36-8.72-.47-13-1.2-18.88-3.23-26.76-21.87-24.71-36.68A58 58 0 0 1 239 441.53q6.69-6 13.82-11.48a45.7 45.7 0 0 1 8.33-5.08c4-1.89 5.16-1.31 7.78 2.13 1.63 2.14 3.5 4.12 5.33 6.1 2.85 3.08 2.7 4.23-.38 7.13-4.22 4-8.27 8.11-12.34 12.23a18.2 18.2 0 0 0-1.87 2.81zm4.26-28c-3.63 2.42-7.3 4.43-10.44 7.06-4.57 3.84-8.34 8.77-13.27 12-4 2.65-6.49 6.11-8.91 9.88a53.73 53.73 0 0 0-7.92 23.48c-1.26 11.15 5.32 28.05 21 30.57 5.34.86 10.83.72 16.23 1.27 12.06 1.24 24.51-13.05 25.23-22.31.83-10.55-1.79-19.76-11.47-25.82-4.18-2.62-8.84-3.1-13.5-3.71-2.1-.27-4.22-.44-7.43-.76 3.94-10 11.39-16 18.23-22.35zM188.16 558.51c-.21 7.67-4.76 13.63-10.63 13.27-7.37-.46-13.67-3.35-13.32-12.31.31-8.16 3.72-11.94 12-12.16 7.18-.2 12.12 4.83 11.95 11.2zm-20.2.63c-.52 5.87 2.42 8.06 9.17 9 3.71.48 7.07-4.09 7.28-9.26.18-4.35-3.68-7.92-8.53-7.88-5.18 0-7.81 2.71-7.88 8.14zM405 475.25v2.83c-.15 4.64-2.22 8.12-5.45 9.21s-8.16-.79-10.67-3.91c-4-4.89-3.79-14.41.26-19.3a8.58 8.58 0 0 1 8.16-3.31c3.54.54 5.7 3.17 6.51 6.53a76.29 76.29 0 0 1 1.19 7.95zm-15.5-1.7c.18 3.63.82 7 4.07 9.05 3.81 2.45 7 1.34 7.38-3.13a39 39 0 0 0-1.11-11.7c-.7-3.09-3.52-3.94-6.47-2.43-3.37 1.73-3.62 5.03-3.83 8.21zM262 651.69c-4-.14-7.07-1-9.38-3.65a7.52 7.52 0 0 1 2.17-11.88c.64-.34 1.34-.57 1.95-.94 3.28-1.94 6.55-2.07 9.68.2 2.76 2 4.38 7.44 3.43 10.87s-3.96 5.39-7.85 5.4zm-2-3.66c3.36-.09 5.91-.36 6.11-3a10.3 10.3 0 0 0-1.72-6c-1.24-1.89-3.45-1.49-5.39-.57-.65.3-1.33.53-2 .81-3.16 1.35-3.9 4.5-1.31 6.66a16.42 16.42 0 0 0 4.36 2.07zM324.07 388.79c-1.08 1.26-1.59 2.46-2.31 2.6q-12.22 2.43-24.51 4.53c-.8.13-1.76-.66-2.83-1.09 3.77-3.56 21.42-7.24 29.65-6.04zM286.46 395.64c-1.09 4.46-3.91 4.05-5.91 4.45-3.86.79-7.82 1.13-11.75 1.61a77.64 77.64 0 0 1-8 .78c-.95 0-1.92-.94-2.88-1.45.5-.82.62-1.27.89-1.39a7.25 7.25 0 0 1 2-.59c8.24-1.12 16.53-2.21 25.65-3.41zM336.5 385.7c.83-.55 1.6-1.44 2.5-1.61 7.75-1.5 15.53-2.88 23.31-4.23.38-.06.88.52 2.12 1.3-1.84 1.11-2.85 2.09-4 2.37-7.74 1.81-15.52 3.5-23.48 3.72-.18-.51-.31-1.03-.45-1.55zM219.75 409.58a9.83 9.83 0 0 1 2-1.12c7.17-1.76 14.35-3.46 21.53-5.18.35-.08.77-.34 1-.23.88.38 1.7.89 2.55 1.35-.49.67-.84 1.72-1.49 2a62 62 0 0 1-7.76 2.36c-4.73 1.08-9.51 2-14.28 2.92-1.37.24-2.85.4-3.55-2.1zM247.59 601.8c-2.54 1.79-4 .69-5-1.24a2.48 2.48 0 0 1 .81-2.24 2.36 2.36 0 0 1 2.26.33 14.51 14.51 0 0 1 1.93 3.15zM250.55 607.06a25.8 25.8 0 0 1-3.46 2.07c-.19.08-1.29-1.18-1.17-1.39a5.15 5.15 0 0 1 2-2.16c.35-.2 1.28.69 2.63 1.48z"/><path d="M243.5 482.57c0-6.07 3.89-10.82 9-11a12.21 12.21 0 0 1 12.77 10.8c.6 6.51-2.86 11.26-8.22 13-6.21 1.99-14.36-6.83-13.55-12.8zm16.63 1.78c0-3.79-1.19-5.86-3.93-7a4.83 4.83 0 0 0-5.91 1.13c-1.84 2-1.88 5.75-.16 8.63 1.48 2.49 4 3.75 6.28 3.11 2.5-.72 3.72-2.64 3.72-5.87z"/></svg>