<svg data-name="Layer 1" xmlns="http://www.w3.org/2000/svg" viewBox="0 0 760.86 854.44"><path d="M-.03 438.07c.49-55.14 10.73-108.4 29.86-160 12.12-32.7 24.68-65.25 39.83-96.71 13.93-28.93 30.34-56.37 51.77-80.43 8.56-9.6 18.34-18.12 27.54-27.15 1.8-1.76 3.49-3.63 5.24-5.43a9.45 9.45 0 0 1 1.57-1.47c3.78-2.45 7.7-4.67 11.35-7.29 20.49-14.72 42.78-26 65.93-35.86 13.41-5.71 26.74-11.4 41.2-13.81 11.1-1.86 22.22-3.69 33.38-5.22C327.12 2 346.66 0 366.32 0a444.3 444.3 0 0 1 135.75 20.92 870.59 870.59 0 0 1 118.22 47.53 295.8 295.8 0 0 1 53.81 34c31.14 24.74 53.2 55.88 66.45 93.34a382.51 382.51 0 0 1 15.35 56.74c6 31.68 6.24 63.51 2.44 95.41-5.75 48.44-14.37 96.31-27.37 143.34-10.19 37-25.25 72-43 105.82-25.69 49-56.24 94.64-92.8 136.21-18.9 21.49-39.43 41.24-62.64 58.1-31.27 22.73-66.17 37.71-103.15 48.22-24.35 6.92-49.06 12-74.34 13.9a325 325 0 0 1-57.18-.74c-23.21-2.37-46-6.7-68-14.66-36.44-13.13-66.89-34.67-91.89-64.23C85.79 712.07 46.56 643 21.37 566c-9.18-28-16.05-56.62-18.87-86-1.33-13.95-1.7-28-2.53-41.93zM239.25 85.35c1.63 12.46-3.54 21.5-13 28.34a103.12 103.12 0 0 1-11.62 7.07c-4 2.13-8.29 3.71-12.33 5.77-4.86 2.46-9.68 5-14.35 7.8-6.32 3.78-9.86 9.68-11 16.79a63.46 63.46 0 0 0-.58 13c.32 7.07 1.4 14.11 1.63 21.18.44 13.78-5.63 24.4-17.47 31.1a90.24 90.24 0 0 1-21.51 9 331.52 331.52 0 0 1-34.79 6.6c-22.4 3.32-41 13.05-55.11 31-2.92 3.71-5.82 7.44-9 11-.9 1-2.59 1.31-4.4 2.17-.18.43-.62 1.42-1 2.44C18.97 321.12 9 364.86 6.16 410.2A421.37 421.37 0 0 0 8 486.95c3.31 27.52 10.1 54.24 18.83 80.52 24.53 73.85 62.27 140.26 111.92 200.07 21.84 26.31 47.77 47.11 79.27 60.81 31.12 13.52 63.91 19.22 97.51 21a315.63 315.63 0 0 0 85-7.42c32.41-7.15 63.81-17.22 93.43-32.42 35.1-18 64.58-43.12 91-72.07 35.82-39.28 65.82-82.69 91.52-129.16C702.1 562 722.02 513.68 733.63 462c8.06-35.82 14.64-71.89 19.29-108.33 3.49-27.34 4.44-54.69.92-82.09-.28-2.18-1.33-4.26-2.29-7.19 1.45-4.57 1.2-5.22-4-7.75a42.72 42.72 0 0 0-4-1.71 36.72 36.72 0 0 1-18.14-14.23c-5.35-7.79-10.94-15.42-16.1-23.33-6.39-9.81-15.33-14.63-26.92-14.89-8.17-.17-16.36-.23-24.52-.69a128.15 128.15 0 0 1-17.29-2c-11-2.15-20.26-7.77-28.53-15.18-6-5.34-11.78-10.83-18-15.86-9.37-7.61-20.25-11.1-32.36-10.95-12.66.16-24.83 3.16-37 6-8.66 2-17.32 4.17-26.1 5.51-14.42 2.21-27.09-2-37.22-12.54-4.5-4.69-8.23-10.14-12.22-15.31-3.65-4.75-7-9.76-10.81-14.37-6-7.18-13.74-11-23.08-12-8.08-.81-16 .21-23.8 2q-17.55 3.93-34.92 8.58c-22.22 5.95-42.06 1.79-59.58-13.26-4.55-3.9-9.19-7.73-14-11.24a142.85 142.85 0 0 0-15.52-10.06c-8.71-4.66-18.14-6.11-28.19-5.76zM39.74 266l.79.42c2.52-3.08 5-6.18 7.56-9.23a80.77 80.77 0 0 1 47.23-28.27c8.9-1.78 17.94-2.87 26.88-4.47 11.84-2.11 23.46-5 34.09-10.94 12-6.68 17.76-16.76 17-30.49-.11-2-.38-4-.54-6-.51-6.7-1.56-13.41-1.4-20.1.29-12.23 5.25-22.18 16.39-28.27 4.94-2.7 10-5.18 15-7.68 4.55-2.26 9.43-4 13.66-6.75a67.22 67.22 0 0 0 13.57-10.82c3.88-4.3 6.46-9.67 3.49-16a4.21 4.21 0 0 1 .51-3.4 7.5 7.5 0 0 1 6.76-3.6 62.59 62.59 0 0 1 37.44 11.43c5.79 4.07 11.25 8.61 16.9 12.88 4.93 3.73 9.74 7.64 14.9 11 9.11 5.94 19.25 8.73 30.1 7.5 7.55-.86 15-2.43 22.48-4 13.14-2.76 26.14-6.35 39.37-8.52 18-2.95 33 2.53 43.82 17.86 2.61 3.72 5.27 7.41 7.93 11.09 1.92 2.65 3.87 5.28 5.82 7.9 11 14.83 25.7 20.18 43.65 16.38 12.8-2.71 25.49-5.88 38.28-8.58a136.39 136.39 0 0 1 15.11-2c17.29-1.65 32.23 3.77 45.09 15.27 5.83 5.2 11.5 10.6 17.49 15.61a50.94 50.94 0 0 0 28.73 12c7.59.65 15.23.72 22.85 1.09 5.8.29 11.63.42 17.4 1a30.61 30.61 0 0 1 21.82 12c2.44 3.16 4.67 6.48 7 9.74 5 7 9.79 14 14.86 20.87 4.6 6.23 11.31 9 18.92 11.26-.2-1.84-.23-3.1-.48-4.32a365.1 365.1 0 0 0-13-47.26c-10-28.66-24.5-54.62-46.09-76.36-20.06-20.19-43-36.31-68.28-49.21-35.35-18-72.23-32.48-109.64-45.55A449.32 449.32 0 0 0 380.76 5c-25.89-.94-51.59 1.35-77.14 5.09-6.45 1-13.79-.52-19.13 5-.18.19-.71 0-1.07.06-2.7.33-5.43.54-8.1 1-14.35 2.85-28.35 6.44-41.22 13.58a16.16 16.16 0 0 1-3.48 1.3c-1.88.53-3.9.69-5.66 1.46-14.99 6.51-29.63 13.94-43.22 23.09-6.94 4.66-15.17 7.91-19.66 15.72-.24.41-.91.56-1.36.86-3.52 2.3-7.39 4.21-10.48 7-7.28 6.57-14.51 13.25-21.2 20.41-18.62 19.92-33.31 42.65-46.22 66.55-17 31.58-29.84 65-42.75 98.41a9.31 9.31 0 0 0-.33 1.47z"/><path d="M287.97 674.64c-12.61 2.23-25.5 4.29-38.28 6.89-4.9 1-9.61 3.1-14.3 5-3.48 1.39-5.81 1-7-2.51-3.58-10.58-11-19.2-14.94-29.57-1.86-4.89-4-9.67-5.95-14.55-1.66-4.22-2.64-8.82-4.91-12.67s-1.9-6.74-.17-10.19c2.36-4.71 4.48-9.54 7-14.18 5.15-9.61 10.66-19 15.62-28.72 1.77-3.47 4.09-4.72 7.69-4.74 11.81-.07 23.62-.25 35.43-.33 4.18 0 8.38-.08 12.53.27a137.16 137.16 0 0 1 13.68 1.9c3 .57 4.07 3.2 5.19 5.8 5.87 13.65 11.88 27.25 18.12 41.51a35.13 35.13 0 0 0 2.65-3.32c4.57-7.84 8.82-15.87 13.71-23.49 2.81-4.39 6.54-8.2 10.06-12.08.53-.58 2.35-.4 3.31 0 .41.17.57 2.14.12 2.83a52.93 52.93 0 0 1-4.08 5.07 58.85 58.85 0 0 0-5.11 6.32c-4.65 7.57-9.11 15.26-13.63 22.91-.64 1.07-1.23 2.16-2.1 3.72a10.52 10.52 0 0 0 2.42.12c14-3.17 28-6.35 41.91-9.66a5.56 5.56 0 0 0 3.28-2.32q5.85-10.44 11.31-21.11c2.16-4.2 4-8.54 6-12.83.39-.84.75-1.69 1.41-3.19 3.57 4.9 7.25 3.74 10.74 3.2 14.37-2.2 28.72-4.5 43.08-6.72 5-.78 5-.71 7.5 3.85a205.28 205.28 0 0 1 15.37 35.39c.83 2.55 2.06 5 3.33 8 7-.52 13.86-1 20.7-1.52 4.35-.31 8.7-.73 13-.75a10.71 10.71 0 0 0 7.44-2.69q8.42-7.35 16.94-14.58c2.35-2 4.74-4 7.24-5.76 1.33-1 3.1-1.74 4.32.08s-.3 2.84-1.62 3.93c-7.44 6.12-14.82 12.3-22.2 18.47a9.89 9.89 0 0 0-1.14 1.48l3.05 4.74c1.53-1.25 2.79-2.22 4-3.27 5.46-4.8 10.83-9.7 16.39-14.38a13.43 13.43 0 0 1 5.25-2.57c.88-.23 2.09.86 3.16 1.36-.55 1-.83 2.42-1.67 2.92-9.1 5.45-16.39 13-24.47 20.05 5.16 10.23 8 21.23 15.17 30.23 2.91 3.65 5 8 7 12.26s.94 6.13-3.47 7.15c-7.79 1.78-15.56 3.74-23.44 5a179.86 179.86 0 0 0-36.13 10.13c-2 .78-4 1.66-6.09 2.38-4.26 1.49-5.88 1.26-8.53-2.36-4.61-6.29-8.92-12.8-13.28-19.28-1.3-1.93-2.34-4-3.8-6.58-5.63 1.08-11.24 1.71-16.58 3.27-11.18 3.25-22.34 6.5-34 7.36a7 7 0 0 0-6.07 3.79c-5.52 9.39-11.4 18.58-15.4 28.78-.33.84-1.06 1.64-1.09 2.47-.22 5.39-3.86 6.61-8.28 7.49-8.55 1.7-17.07 3.57-25.52 5.72-5.44 1.39-10.75 3.29-16.06 5.14-5.74 2-7.61 1.38-10.51-4-7-13.14-13.95-26.3-21-39.43-1.37-2.7-2.93-5.22-4.3-7.63zm-54.62 6.75c9.92-4.15 20-6.08 30.32-7.5 7.35-1 14.58-2.94 21.88-4.35 3.38-.66 5.26-2.78 6.76-5.71 6.63-12.92 12.06-26.49 20.45-38.47a4.86 4.86 0 0 0 .24-5.58c-.93-1.77-1.66-3.64-2.48-5.46-5.09-11.44-10.44-22.78-15.14-34.37a7.91 7.91 0 0 0-7.72-5.45c-17.62-.43-35.26-.45-52.88-.75-3.42-.06-5.25 1.5-6.72 4.38-6.13 12-12.22 24-18.73 35.71-2.78 5-3.22 9.38-.87 14.77 4.35 9.95 7.06 20.57 12.64 30.06 4.28 7.33 8.06 14.96 12.22 22.72zm86.32 40.84c1.93-.71 3.6-1.36 5.29-1.92 4.66-1.53 9.26-3.25 14-4.47 7.91-2.05 15.86-4 23.88-5.51 3.92-.74 5.95-2.68 7.32-6.23a152.06 152.06 0 0 1 14.15-27.57 45 45 0 0 0 4.2-7.62 9.26 9.26 0 0 0 .43-5.66 105.48 105.48 0 0 0-4.32-11.14c-4.22-10-8.56-20-12.71-30.07-2.58-6.24-3.38-6.72-10.25-5.16-9.37 2.14-18.78 4.14-28.15 6.35-4.23 1-8.38 2.35-12.57 3.57a10.31 10.31 0 0 0-6.65 5.18c-2.45 4.66-5.13 9.2-7.55 13.87-4.83 9.28-9.55 18.61-14.19 27.69zm76-54.59c6.83-1.26 13.23-2.21 19.51-3.65 8.13-1.86 16.09-4.53 24.28-6 4-.73 6.85-2.07 8.41-5.72 4.29-10 8.23-20.16 12.84-30 2.36-5 2.13-9.34 0-14.29-3.3-7.65-5.8-15.64-9-23.34-1.72-4.14-4.15-8-6.29-12-6.11.87-11.85 1.68-17.59 2.51-11.15 1.6-22.27 3.41-33.45 4.68-3 .34-4.55 1.3-5.79 3.84-4.29 8.79-8.72 17.52-13.25 26.58l2.34 3.18c-2.52 2-2.46 4.05-1.34 6.75 5.21 12.56 10.16 25.23 15.24 37.85a36.19 36.19 0 0 0 2.09 3.58c2.66-3.91 5.11-7.2 7.23-10.69 3.47-5.75 6.72-11.63 10.08-17.46a8.36 8.36 0 0 1 1.76-2.71 10.7 10.7 0 0 1 3.26-1.09 14.51 14.51 0 0 1 .63 3.45 5.67 5.67 0 0 1-1.19 2.41c-6.47 9.85-11.22 20.81-19 29.82-.35.32-.37.94-.79 2.3zm55.1-9.3c5.09 9.55 10.74 19.15 18.78 27.86 21.16-11.12 44.67-12.85 68-19-3.48-5.56-6.41-10.52-9.62-15.28a61.48 61.48 0 0 1-8.1-15.92 30.63 30.63 0 0 0-4.52-9.23c-1.31-1.71-2.65-3.1-3.18-5.33-.6-2.52-2.37-3.82-5.27-3.57-2.7.24-5.44-.17-8.15 0-9.78.5-19.55 1.21-29.34 1.6-2.82.12-3.69 1.69-4.43 3.88-1.33 3.95-2.59 7.94-4.18 11.78-3.18 7.68-6.57 15.28-10.01 23.21zM198.73 352.39c-7.63-4.51-15.28-9-22.9-13.57-1.52-.9-4.7-1-3.17-3.87 1.32-2.46 3.67-.74 5.27.11 6.74 3.56 13.4 7.28 20.05 11 9 5.07 18.07 10.13 28.47 12a188.3 188.3 0 0 0 46.67 2.67 92.51 92.51 0 0 0 32.45-8.73 51.44 51.44 0 0 0 10.75-7.32c4.17-3.47 7.91-7.45 11.93-11.12.67-.61 2.4-1.21 2.62-.95.7.84 1.55 2.36 1.22 3.11a13 13 0 0 1-3.29 4.16c-6 5.31-12 10.51-18 15.75l.13-.13c-5.1 1.8-10.12 4-15.34 5.3-9.12 2.32-18.36 4.11-28.07 6.23-.3 3.72-.66 8.18-1 12.63a10.3 10.3 0 0 1-.23 2.69c-.29.74-1.26 1.91-1.58 1.8-.91-.28-2.14-1-2.32-1.78a16.31 16.31 0 0 1-.12-4.84c.23-3.59.56-7.17.87-10.9l-42.84-4.15c-2 5.25-4.11 10.95-6.24 16.66a14 14 0 0 1-1.41 3.51 3 3 0 0 1-2.57 1.11 2.85 2.85 0 0 1-1.3-2.49 72.64 72.64 0 0 1 2.47-7.19l4.84-13.51-17.46-8.29zM505.65 365.91c-1.7 4.64-3.27 8.87-4.78 13.12-.52 1.47-1.16 2.92-3 2.41s-1.77-2.18-1.24-3.61c1.62-4.4 3.35-8.76 5.08-13.22-4-2.52-8.7-4.93-12.74-8.18s-7.17-7.14-11.27-11.33c-1.57 1.89-2.91 3.45-4.16 5.06-.89 1.15-1.47 2.66-2.57 3.47-.79.57-2.23.23-3.38.3 0-1-.32-2.17.11-2.92 1.35-2.35 3-4.54 4.52-6.79l2.25-3.22c-1.45-2.21-2.89-4.27-4.2-6.41-.8-1.3-1.33-3 .46-3.68.74-.29 2.36.56 3 1.35 2.19 2.66 4.12 5.53 6.16 8.31A57.39 57.39 0 0 0 504.26 360c16.4 6.85 33.48 10 51.11 7.48 16.35-2.32 29-10.83 37.34-25.37a10.55 10.55 0 0 1 1.68-2.76c.69-.6 2.07-1.16 2.7-.84a3.12 3.12 0 0 1 1.16 2.62 10 10 0 0 1-1.46 3.48c-1.23 2.22-2.55 4.38-3.57 6.12 1.92 2.66 3.77 5 5.31 7.5.39.65-.24 1.91-.4 2.89-1.1-.3-2.73-.24-3.2-1-1.42-2.15-2.66-4.28-4.72-4.63l-22.75 15c-.13 3.36 3.11 7.25 1.78 11.73-3.9.68-3.75-2.16-4.38-4.28s-1.26-4.11-2-6.53a112.12 112.12 0 0 1-57.21-5.5zM568.4 580c-.75 1.91-1.77 5.79-3.69 9.16-2.2 3.85-8.51 5.28-12.61 3.52s-5.68-5.7-4.63-11a15 15 0 0 1 12.88-12.19c4.8-.61 8.05 2.82 8.05 10.51zm-5.91-5.31c-6.92 1.1-9.88 3.41-10.54 8-.31 2.23-.39 4.53 2.17 5.53a5.11 5.11 0 0 0 6.36-1.67c2.26-3.44 4.15-7.22 2.01-11.9zM246.48 724.28l6.67 2.09a36.89 36.89 0 0 1 3.82-4.37c.79-.67 2.18-.65 3.29-.94.07 1.14.6 2.53.13 3.37-1.24 2.19-3 4.09-4.39 6.2-1.29 2-2.29 4.11-3.67 6-.5.69-2 1.39-2.57 1.12a3.12 3.12 0 0 1-1.25-2.58 24.07 24.07 0 0 1 1.32-4.72l-5.5-1.9a20.22 20.22 0 0 1-1.69 3.74 2.71 2.71 0 0 1-2.19 1.06c-.66-.15-1.66-1.35-1.55-1.87.73-3.15-.7-6.91 2.87-9.32 1.25-.85 1.71-2.79 2.87-3.89.9-.85 2.54-1.87 3.46-1.58 1.91.61 1.07 2.29.41 3.62-.54 1.1-1.11 2.2-2.03 3.97zM123.11 620.42c-.89 1.29-1.81 2.57-2.68 3.88s-1.83 3.11-3.78 1.81c-1.78-1.18-1-2.88-.11-4.33 1-1.73 2.08-3.4 3.11-5.11 1.59-2.63 3.13-5.3 4.78-7.89 1-1.56 2.45-2.37 4.08-1a2.4 2.4 0 0 1 .09 3.81c-1.34 1.42-2.92 2.77-1.76 5.25 2.87-.11 3-2.81 4.38-4.25s2.09-4.31 4.42-2.89c2.79 1.71.24 3.75-.74 5.46-1.78 3.16-3.67 6.25-5.57 9.33-.91 1.48-1.64 3.7-3.94 2.77-2.06-.83-1.06-2.67-.71-4.25a6.76 6.76 0 0 0-.35-2.34z"/><path d="M349.83 565l-5.74-2.31a29.63 29.63 0 0 1-1.63 4c-.39.66-1.5 1.54-1.95 1.38a3.65 3.65 0 0 1-2.09-2 5.3 5.3 0 0 1 .42-3.15 69.42 69.42 0 0 1 3.83-8.41c.55-1 2.15-1.36 3.27-2a23.59 23.59 0 0 1 .81 3.37 9.51 9.51 0 0 1-.62 2.58l6.09 2.13a37.25 37.25 0 0 1 3.56-4.49 3.15 3.15 0 0 1 2.79-.67c.57.27.93 1.82.76 2.68-1.1 5.46-5.41 9.08-8.15 13.6a2.84 2.84 0 0 1-2.74.59 3.05 3.05 0 0 1-.76-2.7 26 26 0 0 1 2.15-4.6zM422.33 709.94l-4.91-1.76a4.54 4.54 0 0 0-1 .74c-.86 1.18-.49 3.68-2.89 3.18s-2.41-2.58-1.89-4.35a58.59 58.59 0 0 1 3.33-9 3.93 3.93 0 0 1 3.3-1.75c1.86.41 1.44 2.13.88 3.56-.31.81-.56 1.64-.9 2.66 3.6 1.86 6.84 3.77 10.3 0 .45-.49 1.91-.06 2.89-.05-.1 1.12.13 2.43-.38 3.32-2 3.42-4.05 6.76-6.29 10-.59.85-1.87 1.22-2.84 1.8-.46-1.06-1.35-2.17-1.26-3.19.13-1.57.94-3.1 1.66-5.16zM333.37 545.12a9.8 9.8 0 0 1 2.53.76c1.52.86 2.6 2.19 1.64 4s-2.14 1.1-3.66.51c-3.6-1.4-8.46 2.56-7.77 6.23a3.77 3.77 0 0 0 2 2.3c1.8.8 3.86 1 5.65 1.85.93.43 1.51 1.63 2.25 2.48-.94.69-1.81 1.9-2.81 2-5.59.61-11.93-4.11-11.93-8.64-.03-5.85 5.77-11.61 12.1-11.49zM144.75 623.09c.15 4.89-4.85 10.31-9.83 10.68-2.45.18-3.79-.89-4.1-3.26-.51-3.85 3.51-10.62 7.09-11.94 4.23-1.57 6.71.07 6.84 4.52zm-8.5 3.93c2.5-.24 3.62-1.35 3-4.67zM357.78 580.79c-1.43-1.83-2.7-3.7-.26-5.55.42-.32.53-1.2.59-1.83.31-3.4 1.14-4.19 3.91-3.66s4.16 2.43 3.19 5.1c-.67 1.83-1.64 3.34-1.18 5.55s-.61 4.76-3 5.05a17.9 17.9 0 0 1-7.7-1.1c-1.26-.43-1.06-2.35.35-3 1.07-.5 2.43-.35 4.1-.56zM522.65 376.28c-1.78 6.22-3.3 11.77-5 17.25-.25.78-1.56 1.23-2.38 1.83-.55-1-1.75-2.17-1.55-3 1.45-5.74 3.12-11.44 4.92-17.09.22-.69 2-1.6 2.4-1.36a6.63 6.63 0 0 1 1.61 2.37zM239.74 368.16c-.63 6.11-1 11.17-1.75 16.19-.13 1-1.3 2.42-2.11 2.5-1.87.19-2.31-1.49-2.16-3 .52-5 1.07-10.09 1.84-15.1.15-1 1.37-1.79 2.09-2.67zM475.34 373.15c-.46-.86-1.2-1.67-1.25-2.52a3.84 3.84 0 0 1 1-2.42c3.12-3.51 6.27-7 9.58-10.31.55-.56 1.9-.33 2.88-.46.12 1 .7 2.3.28 2.81-3.44 4.16-7.06 8.19-10.68 12.22-.25.34-.91.36-1.81.68zM545.53 384c0-2.77-.11-4.57.06-6.36 0-.53.88-1.41 1.33-1.4a3 3 0 0 1 2.18 1 9.19 9.19 0 0 1 .71 3.11c.61 3.87 1.26 7.75 1.76 11.64a2.75 2.75 0 0 1-.76 2.27 2.5 2.5 0 0 1-2.4-.15 8.19 8.19 0 0 1-2.08-3.61 57.72 57.72 0 0 1-.8-6.5zM181.64 621.6c2.21.4 5.43.87 8.6 1.59 1.49.34 2.86 1.45 1.94 3.12a3.68 3.68 0 0 1-3 1.23c-3.41-.3-6.8-1-10.19-1.44-1.64-.23-3.68-.35-3.25-2.57.16-.82 2.09-1.36 3.28-1.89.42-.21 1.04-.04 2.62-.04zM275.58 695.77c-.56-1.24-1.65-2.6-1.33-3.16 2.2-3.94 4.61-7.76 7.17-11.47.37-.54 2-.5 2.9-.23.37.12.75 1.78.43 2.33-2.16 3.76-4.48 7.44-6.84 11.08-.34.53-1.16.74-2.33 1.45zM162.63 627c-2.25-.53-4.9-1-7.42-1.84-.66-.22-1.2-1.65-1.22-2.54 0-.44 1.28-1.35 1.95-1.31 4.09.22 8.19.58 12.26 1.09a1.91 1.91 0 0 1 .17 3.71 47.47 47.47 0 0 1-5.74.89zM270.33 703.65c-.05.3 0 .72-.19 1-2.27 3.22-4.52 6.47-6.94 9.57a2.42 2.42 0 0 1-2.36.16c-.56-.37-1.12-1.8-.84-2.22a99.18 99.18 0 0 1 7.16-9.92c1.04-1.24 3.11-.13 3.17 1.41zM436.1 679.36c1.2-4.49 3.37-7.55 6.73-9.59.64-.39 2.09.07 2.86.59.34.22.24 1.86-.22 2.38-2.13 2.46-4.51 4.68-4.91 8.22-.06.47-1.74 1.31-2 1.1a16.18 16.18 0 0 1-2.46-2.7zM427.08 693.41a65 65 0 0 1 4.57-7.67 3.86 3.86 0 0 1 3.69-.6c1.56.85.85 2.35 0 3.67a32.48 32.48 0 0 0-3.11 5.5c-.6 1.41-1.06 3.07-2.79 2.42-1.02-.37-1.47-2.03-2.36-3.32zM310.76 355.6c1.89-.93 2.91 0 3.92 1.57 1.13 1.77 2.67 3.27 3.81 5a8.46 8.46 0 0 1 .65 2.78c-1 .18-2.08.71-3 .48-3.5-.89-5.6-5-5.27-10zM288.39 374.15c-.44.7-1.06 1.66-1.68 2.63-.95-.86-2.36-1.56-2.75-2.62a17.59 17.59 0 0 1-.86-5.87c0-.8 1.08-1.59 1.66-2.39.77.61 1.95 1.08 2.23 1.87a50.52 50.52 0 0 1 1.4 6.38zM198.58 352.25c-.67 2.73-1.21 5.51-2.13 8.16-.21.59-1.81 1-2.69.94-.58-.07-1.58-1.46-1.42-1.94a19.61 19.61 0 0 1 2.72-5.77c.65-.85 2.41-.87 3.67-1.25zM351.06 663.47c-.7.43-1.3 1.11-1.91 1.12-3.18.07-4.85 2-6.14 4.56-.71 1.43-1.5 3.4-3.53 2.44-2.26-1.07-1.31-3-.48-4.66.38-.78.72-1.59 1.23-2.71-1.22-.47-2.17-.89-3.16-1.18s-2.07-.45-3.37-.72a23.54 23.54 0 0 1-2.15 3.85 11.91 11.91 0 0 1-2.83 1.91c-.42-1.24-1.4-2.61-1.15-3.7a21.8 21.8 0 0 1 2.52-6 35 35 0 0 1 4.09-5.72 3.38 3.38 0 0 1 2.79-.63c.44.08.9 1.48.84 2.23a20.34 20.34 0 0 1-1.12 3.8l7.19 1.85a25 25 0 0 1 2.93-3.93 3.58 3.58 0 0 1 2.92-.35c.46.14.71 1.43.83 2.24.23 1.68.31 3.37.5 5.6zM356.63 641.22a94.37 94.37 0 0 1-6 7.72c-1 1.11-3.39-.6-2.68-2a50.16 50.16 0 0 1 5.65-8.47c1.01-1.16 3.04.04 3.03 2.75zM366.04 624.26c-2.61 3.51-4.54 6.54-6.95 9.13-1 1-2.41 0-2.68-1.54-.39-2.14 3.92-8.6 6.17-9 .87-.12 1.92.75 3.46 1.41zM419.89 605.41c1.4 3.53 1.05 6.74 4.94 6.78a13.88 13.88 0 0 1 2.33-2.63c.75-.51 2.27-.91 2.8-.51a2.94 2.94 0 0 1 .64 2.81c-2 3.59-4.3 7.08-6.66 10.49a2.53 2.53 0 0 1-2.38.38 2.65 2.65 0 0 1-1.16-2.14 18.23 18.23 0 0 1 1.12-3.85c-.95-.76-1.91-1.52-3-2.38a9 9 0 0 0-1.2 1.12 14.88 14.88 0 0 1-2.07 3 2.73 2.73 0 0 1-2.49 0c-.62-.35-1.37-1.67-1.15-2.12a59.94 59.94 0 0 1 4.33-7.49c.83-1.18 2.2-1.96 3.95-3.46z"/></svg>