<svg data-name="Layer 1" xmlns="http://www.w3.org/2000/svg" viewBox="0 0 1348.95 998.71"><path d="M744.45 587.1c2.56-.39 4.08-.68 5.61-.84 6-.65 11.89-1.7 17.85-1.79 11.61-.17 18.22 5 21.78 16a83.86 83.86 0 0 1 3.67 28.53c-.12 4.53 1.5 7.4 5.16 9.94a30.14 30.14 0 0 0 16.3 5.45 144.24 144.24 0 0 0 16.89.12 615.57 615.57 0 0 1 73-.81 60.2 60.2 0 0 0 8.17-.12c7.87-.7 14.22-4.12 18.59-10.87a16.82 16.82 0 0 0 1.43-2.32c7.38-16.83 22.54-21.42 38.62-24.6a71.41 71.41 0 0 0 9.46-2.06c5.15-1.79 10.41-2.44 15.52-.86 7 2.15 14 2.46 21.21 2.85a258 258 0 0 1 27.51 3.42c11.27 1.86 22.46 4.27 33.71 6.27a6.22 6.22 0 0 1 5.55 5c2.7 9.64 1.86 18.45-4.18 26.87-4.55 6.32-7.91 13.48-12.32 19.9-4.73 6.88-10.1 13.31-15.16 19.95-1.75 2.3-3.41 4.66-5.81 7.94a34.84 34.84 0 0 0 4.3-1.23c22.57-10.31 40.89-25.51 53.82-46.9 6.32-10.43 12.77-20.81 15-33.07 1.32-7.32 2.37-14.7 3.44-22.07a327.05 327.05 0 0 0 3-60.23c-.35-8.71-.31-17.5-1.51-26.1-2.5-18-5.27-36-13.19-52.63-1.31-2.76-2.18-5.75-3.33-8.84h-20.72c-12.54 0-25.07-.11-37.6.17-14.89.33-29.78 1-44.67 1.56-24.16.86-48.31 1.57-72.49-.19-10.86-.8-21.8-.5-32.7-.92-11.25-.44-22.5-1.12-33.74-1.76a29.46 29.46 0 0 1-4.82-.83c-6.15-1.4-7-2.4-7.33-8.83-.12-2.36-.12-4.73-.12-7.09a25.83 25.83 0 0 1 8.59-19.91 71.25 71.25 0 0 1 9.59-7.14 18.65 18.65 0 0 1 15.67-2.43 27.83 27.83 0 0 0 3.15.45c-2.69-7.17-3.35-14.08-3.35-21.16-.07-29.33 29.45-48.7 55.19-41.71 12.42 3.38 20.75 11.57 25 23.76.54 1.51 1 3 1.67 4.94 10.3-7.43 20.76-11.08 32.59-2.77 0-3.66-.09-6.66 0-9.65.19-4.89-.29-10 .93-14.61 4.54-17.28 16.76-26.81 33.6-30.45 14.19-3.07 27.08.18 37.71 10.53 6.15 6 8.8 13.64 9.8 22 .37 3 .49 6.11.75 9.64 1.76-.35 3.26-.71 4.78-.94 3.05-.46 6.09-1.05 9.16-1.22 7.54-.42 13.59 2 16.79 9.43a15.78 15.78 0 0 0 1.61 2.2c5-10.55 11.15-19.19 22.66-22.54 10.81-3.15 21.31-4.92 32 3.46-.45-3.72-.77-6.48-1.11-9.23-.86-6.9-1-13.77.69-20.58 3.28-12.86 14-21.44 27.75-22.23 13.38-.78 23.77 6.2 28.68 19 4.22 11 3.57 22.08.64 33.2-.79 3-1.7 5.89-2.72 9.42 1.84 0 3.36.07 4.87 0a46.11 46.11 0 0 1 18.73 2.77c6.51 2.42 10.88 6.88 11.53 13.87.54 5.72.11 11.52.11 17.68 4.4-1.05 8.51-2.22 12.7-3 7.87-1.46 15.15-.35 21.35 5.33a20 20 0 0 1 6.25 10 56.76 56.76 0 0 1 2 18.33c-.08 1.22 0 2.44 0 4.3 3.45 0 6.69-.12 9.91 0 4.84.22 7.86 2.74 9.84 7.27 3.9 9 2.59 17.76 0 26.63-.74 2.55-2.71 3.17-5 3.35-6.89.55-13.76 1.26-20.65 1.65q-29.67 1.67-59.34 3.09c-9.44.45-18.9.47-28.35.81-13.63.49-27.19 1.62-40.57 4.46-4.1.87-5.11.56-5.55-3.49-.59-5.52-.5-11.12-.71-16.87-7-1.44-20.45.67-25.4 4.45.62 2.81 1.45 5.77 1.9 8.78 3.38 22.64 7 45.25 5.07 68.32-.86 10.13-.82 20.34-1.55 30.48-1.29 17.92-1.9 36-6.46 53.46-3.82 14.64-8.92 28.8-18.7 40.78a75.42 75.42 0 0 0-5.35 7.57c-8.39 13.32-20 23.4-32.61 32.45-6.17 4.43-12.22 9.11-18.74 13a48.17 48.17 0 0 1-14.52 5.82c-11.89 2.42-11.84 2.18-19.46 11.56-4.46 5.49-9.34 10.63-14 15.93-2.16 2.45-4.38 4.86-6.44 7.39-8.83 10.85-17.57 21.77-26.42 32.6-6.9 8.43-14 16.69-20.85 25.19-2.79 3.47-6.13 4.48-10.42 4.65-26 1-51.92 2.27-77.89 3.36q-13.87.57-27.77.67c-2.79 0-6.41.65-7.86-2.46-2-4.31-4.67-8.85-1.79-13.86a29.38 29.38 0 0 1 3.75-5.33c5.92-6.41 12-12.72 18-19a6 6 0 0 1 1.65-1.37 1.62 1.62 0 0 1 1.5.11c.4.49.83 1.46.6 1.84a20.15 20.15 0 0 1-2.67 3.38c-5.06 5.47-10.18 10.89-15.22 16.38-1.42 1.55-2.61 3.31-4.67 6 3.86.14 6.51.44 9.12.28 25-1.49 50.08-2.49 75-6a213.14 213.14 0 0 1 25-1.57c3.87-.08 6.58-1.33 8.75-4.38s4.62-5.65 6.53-8.73c11.06-17.83 24.42-33.84 38.21-49.6a1082.93 1082.93 0 0 0 69-87.15c4.06-5.74 7.46-12 11.54-18.56a483.61 483.61 0 0 0-62-10.85l-.48 1.19c3.27 2.07 6.51 4.17 9.81 6.19 6.72 4.13 11.81 9.72 14.46 17.17a18.85 18.85 0 0 1 .86 8.47c-.73 5.6-5.38 7.62-10.49 5.22s-10.52-4.67-16.79-7.42c.28 3.7.56 6.33.67 9 .22 5.25.46 10.52.47 15.78 0 3.35-.76 6.61-3.86 8.56-1.76 1.11-1.51 2.64-1.6 4.27a56.29 56.29 0 0 1-.81 8.63c-1 4.68-2.88 6.3-6.75 6.56-4.17.28-7.85-1.58-9.29-5.28a85.25 85.25 0 0 1-2.61-9.43c-.7-2.63-1.39-5.26-2-7.9-.66-2.8-2.55-3.36-5-2.67a28.49 28.49 0 0 0-4.51 1.85c-5.87 2.86-11.71 5.77-17.56 8.66a21.38 21.38 0 0 0-3.83 2 4.19 4.19 0 0 0-1.48 2.73c-.15 4 4.71 8.53 8.86 8.52a64.85 64.85 0 0 1 8.71.08 26.9 26.9 0 0 1 8.28 2.38 6.87 6.87 0 0 1 .76 12.07c-15 9.19-31.49 11.42-45.78-4.29-2.92-3.21-6.47-5.83-9.62-8.84-1.69-1.62-3.14-3.5-5-5.6-3.06 2.84-4.75 6.54-6.83 10s-4.58 6.49-6.8 9.57c8.69 14.66 8.67 18.07.07 26.41 1.15 12.11 0 14.77-8.39 18.6-.85 9-3.08 11.45-12.12 13.31a62.29 62.29 0 0 1-1.12 6.26c-1.86 6.52-8 9.55-14.08 6.74a25.31 25.31 0 0 1-7.1-4.9c-5.45-5.34-10.62-11-15.91-16.47a22.88 22.88 0 0 0-2.33-2.29c-3.79-3-7.75-2.85-10.42 1-10.46 15.21-27 20.79-42.92 27.37-3.72 1.54-8.2 1.32-12.35 1.75-29.68 3.1-59.41 4.66-89.27 3.31-15.8-.72-31.64-.54-47.41-1.59-15.19-1-30.29-3.37-45.48-4.61-11.93-1-23.94-1.18-35.91-1.67a19.42 19.42 0 0 0-3.78.72c3.32 12 4 23.77-2.94 35.32 4.33-.8 8-2.15 11.61-2 3.42.17 6.76 2 10.44 3.12a7.33 7.33 0 0 0 .77-1.91c2.15-12.14 19.46-23.2 33.46-19.21 4.34 1.24 8.2 3.16 10.9 6.77 4.32 5.79 8.4 11.75 12.6 17.67 10.7-6 16.92-5.09 25.72 4 7.13-10 17.47-12.26 28.84-11.86a16.72 16.72 0 0 1 12.48 5.85c1.79 2 3.6 4.09 5.34 6.19 5.18 6.26 8.22 13.22 6.57 22.31 1.87-.83 3.12-1.31 4.29-1.93 11.14-5.93 22.54-4.66 33.78-.68 2.66.94 5 3.6 6.81 6 3 4 5.49 8.47 8.35 13 12.13-4.37 24.52-7.55 36.27 1 11.32 8.14 13.45 20.41 14.11 33.61 6.09 1.19 13.31-.67 18.62 5.16 2.46-2.86 4.81-5.73 9-5.33 5.14.5 10.14 1.4 13.75 5.6a34.4 34.4 0 0 1 2.4 3.62l1.42-.6q2-5.17 4-10.35c.26-.68.55-1.35.77-2 2.3-7.19 5.76-13.42 13.53-15.92 8.83-2.85 17.57-2.82 25.9 1.66 7.42 4 13.26 9.58 16.32 17.62 2.32 6.08 4.47 12.23 6.83 18.73 3.31-2.17 7-3.06 11-1.35a14.82 14.82 0 0 1 8.49 9.45c1.23 3.91 2.44 8.15 2.15 12.13-.47 6.37-3.84 7.44-8.18 7.14-7.61-.51-15.26-1-22.87-.75-32.34.87-64.67 2.19-97 2.93-18.17.42-36.35.11-54.52 0-19.26-.15-38.52-.5-57.78-.7-2.32 0-4.65.34-8 .6 2.5 3.32 4.39 6.1 6.56 8.64a22.4 22.4 0 0 1 5 10.14c.49 2.33 1.66 4.52 2.75 7.38-.77.91-2 2.38-2.62 3.1a69.36 69.36 0 0 0-7.44 0c-14.79 1.74-29.56 3.73-44.37 5.31a131.63 131.63 0 0 1-17.43.52c-34.93-.94-69.8.62-104.65 2.5-15.94.86-31.79 3.28-47.71 4.76-7.23.67-14.51 1-21.77 1.08-17.85.15-35.56 1.92-53.27 3.85-9.75 1.06-19.54 1.79-29.32 2.61-13.21 1.1-26.42 2.31-39.65 3.17-9.59.63-17.73-2.28-23.68-10.49s-2.69-24.55 11.72-26c2.69-.27 5.39-.39 8.61-.62-.32-8.3 1.95-15.79 7.22-23.28-7.43-.72-13.69-1.44-20-1.93-21.73-1.69-43.49-3.1-65.2-5a576.31 576.31 0 0 0-66.47-1.84q-30.78.84-61.5 3.38c-13 1.08-25.86 3.88-38.83 5.56-17.11 2.22-34.26 4.15-51.41 6.09-13 1.47-26 2.69-39 4.17-7.49.86-11.42-1.73-13-9-1.27-5.94-1.8-12 .08-17.79 1-3 2.39-6.38 4.67-8.4 8.26-7.35 17.7-11.39 29-7.7 1.2.39 2.39.85 3.52 1.25.34-.31.78-.53.78-.75.16-8.5 5.16-13.42 12.58-15.95 4.21-1.44 8.81-1.78 13.26-2.48a40.92 40.92 0 0 1 5.53 0 35.48 35.48 0 0 0-2.25-3.05c-8.17-8.43-14.34-18.28-20.21-28.34a51.22 51.22 0 0 1-6.43-17.85c-1.91-11.84.2-22.73 7.45-32.52a89.33 89.33 0 0 1 34.08-28.21c12.11-5.72 24-5 35.48 1.67 6.14 3.53 12.15 7.29 18.6 11.17.53-1.36 1-2.44 1.38-3.56.59-1.91 1.17-3.82 1.63-5.76 5.06-21.07 29.5-26.8 44.64-18.35l5.12 2.82c-.26-3.25-.5-5.82-.66-8.4-.68-10.77 3.21-19.59 11.63-26.28 5.79-4.6 12.24-6.23 19.35-3 .65.29 1.35.45 2.67.88-.3-1.69-.44-3-.77-4.23-3.51-13.37.78-24.11 12.66-31.17 6.65-4 13.76-6.65 21.67-6.3a28.3 28.3 0 0 1 16.13 5.9c1.57 1.19 3.12 2.39 5.46 4.18-.22-2.32-.25-3.82-.52-5.28-2.22-11.9.76-22 10.36-29.73a115.36 115.36 0 0 1 10.45-7.85c12-7.64 25.77-5.4 34.34 6 3.22 4.27 5.5 9.38 7.57 14.37 3.08 7.47 3.75 15.5 4.18 23.51.1 1.79.17 3.58.27 5.69 9-1.25 16 1 19.32 11.31 4.59-7 10.61-9.7 17.94-9.94 7-.23 13.17 2 19.39 7.07-.62-4.65-1.15-8.29-1.58-11.94-.92-7.61-1.23-15.23.48-22.78 2.54-11.26 9.48-19 19.73-23.9a17.16 17.16 0 0 1 13.28-.73 31.64 31.64 0 0 1 7 3c16.45 10.69 27 25.25 28.3 45.32.29 4.28-.65 8.67-1.2 13-.29 2.31-1 4.57-1.59 7.47 5.39-2.11 9.92-6 15.62-3.87 5.34 2 9.6 5.13 10.41 11.63 3.42-1.64 6.33-3.49 9.51-4.42s6.72-1 10.47-1.44v-3.76c-.49-18.35-1.46-36.71.84-55 1.66-13.21 5.76-25.47 14-36.16 3.38-4.39 7.2-8.28 12.11-10.8 6.14-3.15 12.38-6.1 18.73-8.78 2.43-1 5.29-1 7.94-1.53 1.31-.26 2.58-.66 4.29-1.11-.7-1-.9-1.52-1.27-1.77-15-9.92-26.08-23.55-36-38.25-9.63-14.24-16.45-29.86-23.06-45.64-15-35.79-24.17-73.12-29-111.47-4.8-37.82-1.21-75.11 10-111.57 5.86-19.1 11.93-38.16 21.3-55.94 6.06-11.5 13.24-22.15 23.74-30.19 6-4.58 12.22-8.34 20-9.29 3.32-.41 6.54-2.11 9.68-3.51 3.48-1.55 6.87-3.34 10.2-5.19a113.53 113.53 0 0 1 38.37-13.33c14-2.13 27.84-5.28 41.8-7.68a149.6 149.6 0 0 1 16.8-1.54c1.25-.07 3.54.77 3.64 1.46a5.62 5.62 0 0 1-1.45 4.04c-2.48 2.59-5.39 4.78-6.78 8.27 5.82 2.8 5.72 2.86 9.06 9 2.32 4.23 5.65 7.32 10.82 7.64 15.43.95 29.76 6.46 44.32 10.91 8.87 2.71 16.05 8.28 22.37 15.05 19.53 20.94 31.92 45.72 39.88 73 4.14 14.19 5.92 28.81 8.22 43.33a256 256 0 0 1 2.4 62 400.63 400.63 0 0 1-11.21 65.46c-4.28 16.71-8.5 33.46-13.6 49.92-6.84 22.08-18.12 42-31.94 60.45-1.06 1.28-2.05 2.74-3.69 5.07zM636.86 827.34c-.44-.25-.86-.36-1.05-.62a6.92 6.92 0 0 1-1-1.87c-2.27-7.29-6.93-13.13-11.52-19-3.33-4.27-7.82-6.28-13.21-6.63a24.23 24.23 0 0 0-25.57 19.66c-.33 1.64-1.43 3.12-2.18 4.68-1.54-.76-3.43-1.18-4.56-2.34-3.5-3.58-7.63-4.1-12.07-2.83a77.19 77.19 0 0 0-8 3.3c-1.9.79-3.88 3-5.87.8s.4-3.7 1.43-5.19c8.76-12.63 8.39-25.94 2.74-39.46-3.51-8.38-10.31-12.54-19.31-12.66a32 32 0 0 0-15.32 3.3 14.25 14.25 0 0 1-4 1.64 3.54 3.54 0 0 1-2.71-1.09c-.36-.38-.08-1.79.37-2.4a56.12 56.12 0 0 1 4-4.47c7-7.47 7.29-20.26 0-27.62s-12.82-8.95-22.19-2.77c-1.21.8-2.33 1.74-3.55 2.54-1 .64-2.06 1.17-3.86 2.17-.61-2.64-1.11-4.66-1.53-6.7-1.38-6.64-8-10.15-14.11-7.22-3.27 1.55-6.24 3.71-9.38 5.53-1 .59-2.12 1-4.15 1.92.31-2.47.38-4 .73-5.52.64-2.64 1.54-5.23 2.17-7.87a51.05 51.05 0 0 0-22.94-56.1 38 38 0 0 0-6.84-3.34 15.38 15.38 0 0 0-13.16 1c-8.66 4.67-14.44 11.66-16.19 21.4a56.9 56.9 0 0 0-.69 14.1c.49 6.68 1.76 13.31 2.64 20 .27 2.07 1.59 4.66-.77 6-2.54 1.45-3.82-1.28-5.26-2.73-10.35-10.41-22.24-10.41-32.19 0-1.56 1.64-3 3.77-6 3-2.39-3.62-1.9-9-6.87-11.18-4.53-2-8.82-.17-13.85.56-.15-2.3-.27-4.21-.4-6.11-.42-6-.43-12-1.37-17.9a48.32 48.32 0 0 0-9.3-22.43c-7.37-9.44-19.09-11.66-29-5.2a102 102 0 0 0-13.19 10.49 20.5 20.5 0 0 0-6.57 18.8c.77 5.34 2.4 10.56 3.73 15.82.42 1.67 1.93 3.23-.28 5.6a46.31 46.31 0 0 1-3.93-2.84c-3.41-3-6.58-6.28-10.13-9.1-6-4.83-13.12-6.12-20.6-4.66a38.29 38.29 0 0 0-16.25 7.38c-7.33 5.66-10.08 13.17-8.19 22.18.66 3.15 2.24 6.1 3.25 9.19a22.84 22.84 0 0 1 .57 4 17.94 17.94 0 0 1-4.48-.24 60.46 60.46 0 0 1-6-2.57 14 14 0 0 0-13.54 1.19 25.5 25.5 0 0 0-11.1 14.34c-2 6.25-1.55 12.57 0 18.83a15.12 15.12 0 0 1-.69 9.41l-3.18-3.7c-12.68-14.9-39.83-9.63-45.15 7.51-1.18 3.82-2.26 7.66-3.29 11.52-1.39 5.15-2.6 5.67-7.13 2.93-6.38-3.85-12.64-7.92-19.18-11.48-9.26-5.06-18.9-6-28.82-1.64A81.43 81.43 0 0 0 50 812a33.06 33.06 0 0 0-5.13 19.72A50.54 50.54 0 0 0 52 855.44c5.84 9.88 12.1 19.44 20.07 27.78 1.92 2 4.5 3.8 4.45 7.81a33.55 33.55 0 0 1-5.07.91c-2.16.07-4.34-.35-6.52-.37a27.84 27.84 0 0 0-17.79 5.77c-4 3.12-3.66 7.54-3.77 11.94-.09 3.72-1.63 4.49-4.86 2.51-9-5.59-17.61-3.81-26.15 1.3-8 4.8-8.66 12.37-8.15 20.47a39.41 39.41 0 0 0 .46 4.34c1.07 5.84 2.95 7.25 9 6.82.73-.06 1.45-.17 2.17-.25 10.3-1.08 20.61-2.08 30.89-3.26 20.4-2.34 40.84-4.32 61.14-7.3 22.31-3.28 44.61-6.45 67.13-7.63 45.86-2.4 91.55.28 137.2 4.59 15.16 1.43 30.38 2.26 45.36 3.35 7.82-7 17-9.17 26.75-8.26-1.26-5.44-3-10.77-3.62-16.23a15.77 15.77 0 0 1 6.76-14.73c4.45-3.11 9.82-4.9 15-7.35-.13-.53-.4-1.4-.56-2.28-2.44-13.69 1.51-25.13 12.14-34.17 3.26-2.77 7.06-4.81 11.36-4.74 7.05.12 14.11.61 21.12 1.34a13.09 13.09 0 0 1 6.41 2.74 5.81 5.81 0 0 1 1.76 4.65c-.32 2.12-1.81 4-4.56 3.61-.48-.07-.89-.56-1.39-.9.8-1.54 1.44-2.74 2.19-4.19a14.57 14.57 0 0 0-2.54-1.43 54.76 54.76 0 0 0-22.64-2.15 18.3 18.3 0 0 0-11 5.53c-8.63 8.7-11.75 18.92-8.55 30.93 1.3 4.86.68 5.68-4.25 6.48-1.07.18-2.18.18-3.24.41-7.19 1.59-12 5.8-14 13a16.56 16.56 0 0 0 1.39 11.67c1.38 3 3.19 5.69 4.73 8.57 1.33 2.49.6 3.94-2.1 3.94a26.72 26.72 0 0 1-5.39-.7c-5.59-1.13-10.72.36-15.86 2.41-4.12 1.64-5.68 5.44-8 8.6-4.22 5.74-6.64 12.07-6 19.34.06.73.05 1.46.07 2.18.06 2.57-1.17 3.44-3.72 3.4a72.09 72.09 0 0 0-10.28.5c-4.62.58-7.4 3.54-8.9 7.82-2.64 7.51 2.26 17 10.5 19.35a35.51 35.51 0 0 0 11.77 1.33c8.33-.5 16.61-1.84 24.94-2.49 12.13-1 24.35-1.12 36.43-2.51 22.77-2.62 45.54-4.86 68.48-4.93 4 0 8-.34 12-.72 16.81-1.62 33.6-3.51 50.44-4.88 10.31-.84 20.69-.92 31-1.37 23.79-1 47.57-2.28 71.4-1.09a91.68 91.68 0 0 0 14.16-.34c15.35-1.63 30.68-3.5 46-5.31 2.46-.29 4.9-.72 7.73-1.14-.7-4.62-1.1-8.71-3.9-12.13-2-2.39-3.79-4.88-5.74-7.28-1.67-2.06-4.56-3.8-3.08-6.93s4.71-2.34 7.31-2.37c15.09-.16 30.18-.37 45.27-.2 16 .18 32 1.37 47.95 1.08 32.71-.61 65.4-2 98.1-2.86 14.9-.37 29.81-.09 44.72 0 2.6 0 5-.13 5.14-3.31.38-6.47-1.36-12.33-6.47-16.6-3.51-2.93-6.41-2.47-9.56.8-1.19 1.24-2.43 2.42-4.45 4.43-.87-2.67-1.73-4.25-1.85-5.88-.58-8.37-3.79-15.91-7.53-23.18-4.12-8-11.11-12.94-19.8-15-13.18-3.15-22.27 1.83-27.07 14.4-1.48 3.9-2.8 7.87-4.36 11.74-1.85 4.62-4.55 5.2-8.3 1.86-1.22-1.08-2.15-2.49-3.39-3.53a14.66 14.66 0 0 0-11.22-3.25c-3.25.32-3.93 3.36-5.23 5.71-1.51 2.76-3.33 2.95-4.68.12-1.75-3.69-4.59-5-8.24-5.14-3.43-.15-6.88 0-10.31-.1a31.59 31.59 0 0 1-3.94-.64c3-6.87 1.54-13.19-.22-19.44-4.05-14.33-16.47-21.93-31-18.87a110.89 110.89 0 0 0-12.49 3.82c-2.58.87-3.89.09-5.09-2.38a110.64 110.64 0 0 0-7.25-12.7c-1.25-1.87-3.2-3.87-5.24-4.52-10.45-3.35-21-4.59-31.11 1.2-2.64 1.51-5.14 3.26-7.65 4.86-3.11-1.89-1.7-4.51-1.34-6.55 2.29-12.84-5.38-20.84-13.69-28.47-1.23-1.13-3.25-1.58-5-1.94-11.94-2.49-22.75 2.4-29 13-.81 1.39-1.32 3.06-3.8 2.58-1.4-3.28-1.54-7.42-5.23-9.54-3.42-2-7.19-3.56-10.86-1.91-3.32 1.48-6.08 4.21-9.03 6.35zm33-652.07c-3.91.3-7 .29-9.94.82-14.3 2.56-28.5 5.73-42.87 7.78a121.21 121.21 0 0 0-42 14.29 116.47 116.47 0 0 1-10.79 5.22A32.86 32.86 0 0 1 556 206a32 32 0 0 0-14.47 5.87 70.82 70.82 0 0 0-16.7 16.3 130.09 130.09 0 0 0-15.33 27.57c-11.18 27.49-20.54 55.52-24.58 85.09-2.93 21.34-3.8 42.77-1.15 64.15 4.85 39.09 13.82 77.15 28.92 113.7 8.08 19.56 17.1 38.47 29.86 55.5 11.32 15.13 25 27.15 42.15 35.37 20.85 10 42.66 16.51 65.73 18.43 11.24.93 22.52 1.25 33.64-1.36 15.7-3.7 28.64-12.2 40-23.31 25-24.47 43.31-53.28 53.6-86.73 5.87-19.07 10.5-38.54 15.06-58 6.44-27.52 10.13-55.42 9-83.75-.76-19.83-3.79-39.46-7.8-58.83-6.43-31.09-18.88-59.46-40.34-83.41-6.16-6.88-12.88-13.08-21.81-15.79-12.78-3.8-25.26-9.14-38.78-10.4-3.07-.29-6.12-.87-9.18-1.26a10.33 10.33 0 0 1-8.53-5.93c-.71-1.47-1.62-2.84-2.29-4.32-1.18-2.57-2.64-4.45-5.73-5.23-3.74-.94-4.51-3.17-2.67-6.63 1.24-2.38 3.01-4.48 5.29-7.76zm256.18 505c0 5.42 3.2 8.29 6.51 11.17s6.5 5.81 9.58 8.88c12.7 12.62 26.85 10 39.35 2.46a3.17 3.17 0 0 0-.28-5.72 22.54 22.54 0 0 0-7.25-2c-3.05-.34-6.2.2-9.25-.13-2-.23-4.57-.78-5.85-2.15a32.34 32.34 0 0 1-5.14-8.22 5.53 5.53 0 0 1 1.54-6.5 19.92 19.92 0 0 1 4.49-2.95q9.47-4.77 19-9.37a30.41 30.41 0 0 1 5.58-2.13c4.46-1.13 7 .12 8.56 4.41a73.14 73.14 0 0 1 2.22 7.85c.82 3.16 1.43 6.38 2.37 9.51.78 2.58 2.91 3.69 5.47 3.69 2.85 0 3.57-2.25 3.87-4.45a38 38 0 0 0 .28-7.07c-.32-6.34-.87-12.68-1.16-19a24.07 24.07 0 0 1 .71-4.86l1.49-.07c3.71 4.45.23 10.92 3.73 15.55a22.67 22.67 0 0 0 1.27-7.43c-.5-10.68-1.19-21.36-1.89-32-.32-4.92-2.78-8-7.84-9a51.19 51.19 0 0 1-5.6-1.69c.59-1.17.72-1.74 1.08-2a2.6 2.6 0 0 1 1.48-.52c7.71-.24 13.17 4.38 14.28 12 .38 2.66.77 5.31 1.09 7.53 6.24 2.66 11.93 5 17.56 7.5 3.69 1.62 5.43.88 5.86-3.09a12.38 12.38 0 0 0-.76-5.27 26.73 26.73 0 0 0-11-13.88 181.6 181.6 0 0 0-22-11.91 52.37 52.37 0 0 0-15.26-3.64c-4.38-.49-9.13-.18-10.46 5.56-4.48-1.9-7.39-2.27-11.93-1.07-3.68 1-7.29 2.23-10.88 3.51-9.06 3.25-16.48 8.41-20.24 17.74a16.44 16.44 0 0 1-1.37 2.36c-4.43 7.23-10.73 12-19.17 13-6.27.73-12.66.49-19 .53-17.08.1-34.16 0-51.23.23-11.07.16-22.1 1.8-33.21.43a36.58 36.58 0 0 1-16.2-5.82c-4.86-3.23-7-7.05-6.91-13.08.22-9.43-.6-18.85-3.78-27.93-3.09-8.83-8-12.86-17.22-13.16a75.13 75.13 0 0 0-24.72 3.49 19.33 19.33 0 0 0-8.55 5.56c-4.46 4.77-9.05 9.46-13.92 13.81-16.34 14.61-35.57 22.07-57.69 21.62a199.08 199.08 0 0 1-40-4.93c-16.07-3.61-31.2-9.71-45.74-17.31-2.81-1.47-5.15-2.32-7.89 0a6.14 6.14 0 0 1-6 1.33c-1.54-.42-3.58.38-5.24 1-4 1.62-8 3.49-12 5.25-12.4 5.46-20.17 15.29-25.07 27.46a79.4 79.4 0 0 0-4.56 16.77c-3.53 21.65-2 43.4-1 65.06 5.92 3.86 9.74 8.83 11.13 15.72 1.35 6.72 1.18 13.14-2.79 19.73 7.46-1.08 14.11-2.38 20.68.1a24.55 24.55 0 0 1 14.3 13.49h12.43c15.1.15 30 1.94 45 3.54 20.94 2.22 42 2.92 63.1 3.88A660 660 0 0 0 789.5 780a34.46 34.46 0 0 0 10.43-2.86c7.7-3.65 15.25-7.66 22.72-11.78a39.11 39.11 0 0 0 12.35-11.3c4.87-6.5 9.76-7.36 16.76-2a22.86 22.86 0 0 1 2.33 2.29c5.32 5.46 10.61 11 16 16.37a20 20 0 0 0 4.36 3.23c3.64 2 6 1.8 8.46-.53a7.36 7.36 0 0 0 1.46-8.56c-3.46-6.36-6.48-13.08-12.56-17.6a18.4 18.4 0 0 1-3-3.06 1.52 1.52 0 0 1 .07-1.49c.46-.44 1.33-.92 1.82-.75a10.21 10.21 0 0 1 2.73 1.68 40.88 40.88 0 0 1 11.33 13.77c2 3.76 6.2 4.61 9.71 2.39s4.42-5.51 1.68-9.27c-3.08-4.23-6.6-8.17-10-12.14-1.9-2.2-4.12-4.12-5.95-6.36-.46-.56 0-1.87 0-2.84a7.39 7.39 0 0 1 2.44.35 8.25 8.25 0 0 1 2 1.88c4.24 4.71 8.58 9.34 12.65 14.2 1.71 2 3.72 2.77 5.66 1.47a9.58 9.58 0 0 0 3.74-4.93c1.32-4.77-.4-9.07-3.81-12.44-4.12-4.08-8.56-7.83-12.86-11.73-1.25-1.14-3.4-1.73-2.61-4.15 3.72-.32 3.72-.32 20.84 15.71 5.71-4.85 6.56-9.19 2.5-15a30.77 30.77 0 0 0-6.93-7.61C896 701.45 888 696.45 880 691.39a7.63 7.63 0 0 0-4.08-1.19 93.87 93.87 0 0 0-11.37.93c-11.12 1.69-21.11 6.46-31 11.52s-18.84 11.57-29.21 15.78a101.57 101.57 0 0 1-24.08 6.77 456.61 456.61 0 0 1-81.5 4.9c-14.35-.49-28.7-1.21-43-1.29a239.93 239.93 0 0 1-42.3-3.52c-6.76-1.24-13.72-1.4-20.58-2.08-7.2-.72-10.23-3.06-11.72-10-1.19-5.49-1.84-11.1-2.52-16.69-.11-.9.88-1.94 1.35-2.91h1.31a41.1 41.1 0 0 1 1.39 4.77c.8 4.65 1.45 9.32 2.17 14 .65 4.17 3.13 6.39 7.3 6.8l6.51.65c5.06.47 10.22.47 15.17 1.48 14 2.87 28.08 3.63 42.28 3.69 10.18.05 20.37.2 30.53.73 24.73 1.29 49.41 1.1 74-1.85 3.71-.44 7.39-1.2 11-1.79.18-3 .3-5.35.47-7.7.42-5.62.46-11.17-1.64-16.59a27.62 27.62 0 0 1-1.59-7.39c-.78-8.5-1.29-17-2.05-25.52-.57-6.33-1.43-12.64-2-19-.18-1.85-.66-3.93 1.68-6 .66 1.37 1.45 2.31 1.56 3.32 1.54 15.18 3 30.37 4.49 45.55.19 1.9.67 3.76 1 5.38 7.27 1 13.9 1.91 20.53 2.86 11.81 1.69 23.59.51 35.37-.38a33.93 33.93 0 0 0 8.41-1.84c11.63-4 22.89-9.19 35.68-9.08 3.65 0 6.68.22 9.48 2.58s5.55 2.73 9 .9a42.27 42.27 0 0 1 9.71-3.48c7.7-1.84 15.63-3.47 24.32-5.39zm81-313.08c-3.6 1-4.68-1.28-6.12-2.72-3.08-3.07-6.6-5.3-11-5.3a23.32 23.32 0 0 0-16.43 6.21c-5.36 5-6.07 4.94-7.84-2.5-3.77-16-17.36-26.82-34.21-26.15-15 .59-26.92 7.15-34.25 19.86-7.58 13.15-7.86 27.31-.64 41.17 1 1.93 3.82 4 1.52 6.21-2 1.93-4-.57-5.78-1.53-5.29-2.85-10.84-4-16.13-.93a75.39 75.39 0 0 0-12.49 9.5 15.53 15.53 0 0 0-5.06 10.62c-.33 5-.08 10.11-.08 15.73 3.5.68 6.63 1.65 9.81 1.86 9.6.64 19.22 1.08 28.85 1.42 13.62.5 27.24 1 40.87 1.21 19.08.32 38.18 1.1 57.23.4 24.52-.89 49-2.28 73.57-1.57 12.51.36 25 .06 38.52.06-1.69-4.41-2.63-8.14-4.49-11.35-1.73-3-1.54-6-1-8.93 1.11-6.27 10.27-10.53 16-7.85 3 1.41 6.19 2.53 10.41 4.23l8.49 24.83c1-.06 2-.09 3.1-.19 8.31-.78 16.61-1.68 24.93-2.32 3.81-.29 4.55.79 3.75 4.47-.23 1.07-.72 2.08-.89 3.15-.69 4.42-1.18 8.85.22 13 11.88-1.32 23.2-3.16 34.58-3.74 34.3-1.77 68.63-3 103-4.56 4.68-.21 9.35-.92 13.83-1.39 3.81-9.79 3.89-16.89.61-24.65a6.91 6.91 0 0 0-6-4.71c-5.11-.69-10-.74-15.3 3.26 0-2.43-.32-3.83.06-5 2.42-7.77 1.2-15.37-.3-23.14-1.29-6.65-9.78-14.27-18.14-13.72a61.07 61.07 0 0 0-9.69 1.44c-5 1.15-10 2.45-12 8.13-.21.58-1.88 1.29-2.09 1.1a5.13 5.13 0 0 1-1.44-2.58c-.13-.6.39-1.36.65-2 2.82-7.32 2.91-14.94 2.23-22.58-.33-3.71-1.65-7.36-5-9.3-8.85-5.12-18.28-6.8-28.25-3.52-.95.31-1.88.71-3.88 1.47a47.56 47.56 0 0 1 .84-5.23c1.3-4.53 2.9-9 4.08-13.55 2.76-10.67 2.77-21.25-1.89-31.47-3.19-7-8.3-12.05-16-13.56-14-2.75-31.15 3.54-32.71 23.19-.62 7.68.76 15.52 1.28 23.29.07 1.08.71 2.19.55 3.19-.22 1.33-.65 3.13-1.59 3.68s-2.55-.36-3.79-.83c-.62-.24-1.08-.95-1.57-1.49a16.7 16.7 0 0 0-14.18-5.68 88.66 88.66 0 0 0-15.94 3.14 22.55 22.55 0 0 0-14 11.41c-2 3.82-3.75 7.83-5.73 11.69a22.45 22.45 0 0 1-2.47 3.27 17.3 17.3 0 0 1-2.68-3 34 34 0 0 1-2-5c-2-5.74-6.33-8.38-12.17-8.17-6.33.22-12.81.4-17.52 5.75-.15.18-.68 0-1.7 0a27.47 27.47 0 0 1-.53-3.79c0-3.45.3-6.92.11-10.35-.89-15.43-9.47-26.86-23.43-30.74-15-4.15-28.46-1-40.08 9.38a32.61 32.61 0 0 0-11.43 26.09c.12 5.45.67 10.88 1 16.33-.03 1.75-.11 3.53-.11 5.39zm24.08 338.32a10.39 10.39 0 0 0 3 1c5.23 0 9.91-1.45 14.88-3.53 9.49-4 18.08-9.12 26.65-14.64a136.06 136.06 0 0 0 24.44-20.75 94.76 94.76 0 0 0 7.62-9.21c2.81-3.79 5.17-7.91 8-11.64 9.32-12.06 14.53-26 17.71-40.6a290 290 0 0 0 4.87-35c2.08-22.66 2.88-45.32 2.92-68a98.92 98.92 0 0 0-.65-10.87c-.81-7.58-1.67-15.16-2.72-22.72a210.41 210.41 0 0 0-11.56-46.41 5.92 5.92 0 0 0-2.14-2.89c-2.47-1.5-5.17-2.61-7.71-4-3.52-1.94-6.28-.3-8.93 1.79s-3 4.71-1.79 7.81c3.7 9.66 6.9 19.54 11 29 7.27 16.73 10.18 34.47 12.25 52.3 3 25.72 1.14 51.52-.24 77.28a44.87 44.87 0 0 1-.89 5.37c-.74 4.11-1.7 8.19-2.2 12.33-1.33 11.06-3.2 22-8.76 31.82-3.66 6.49-7.24 13.05-11.41 19.2-8.71 12.89-18.8 24.56-32.34 32.69-8.08 4.85-16.23 9.63-24.62 13.9-3.15 1.6-6.68 3.21-10.82 1.35-3.1-1.47-4.59-.09-6.49 4.46zm50.18-79.71c-1.34 2-2.1 3.23-2.91 4.39-8.67 12.32-17.16 24.77-26.07 36.91-5.91 8.05-12.53 15.57-18.61 23.5-4 5.17-7.24 10.89-11.37 15.9-4.82 5.84-10.43 11-15.37 16.77-9.84 11.42-19.83 22.73-29 34.63-8 10.31-15 21.38-22.79 32.62.41 2.1 1 4.89 1.51 7.68l1.19.74c1.05-1.44 2-2.94 3.16-4.31 11-13.32 22.12-26.5 32.89-40 7.71-9.63 14.86-19.69 23.6-28.5 4.81-4.85 9.08-10.25 13.77-15.6-3-2.17-5.15-4.49-3.34-8 .81-1.56 2-3.48 3.49-4 2.92-1 6.15-1.26 9.71-1.9 2.64-3.66 5.26-8.1 8.65-11.84 11.8-13 20.34-28.26 29.45-43.1 2.82-4.46 4.44-9.35 2.11-15.85zM838.8 806c10.21 0 19.83.33 29.41-.06 25.18-1 50.35-2.37 75.53-3.59 2.83-.14 5.65-.37 9-.6-.39-3.55-.72-6.51-1.1-10-9.63.6-18.72.69-27.67 1.83-24.32 3.08-48.72 4.85-73.18 5.88-4.49.19-9 0-14.05 0 .81 2.54 1.39 4.38 2.06 6.54zm-13.74-104L776 699.42v21.82c19.13.07 34.27-8.63 49.06-19.24zm94.23-16.17c-10.26.81-18.65 3.58-27.63 7.54l15.7 11.1c3.85-6.03 7.64-11.88 11.93-18.64z"/><path d="M300.45 550.75c-1.36 3.94-4.23 4.53-6.67 5.23-4.88 1.4-9.88 2.39-14.83 3.54-18.24 4.22-36.41 8.67-53.52 16.52-2.75 1.26-5.49 2.57-8.61 4 1.45 1.71 2.56 2.87 3.49 4.14 2.2 3 2 5.43-1 7.48a29.76 29.76 0 0 1-6.79 3.4c-2.92 1-4.4 0-5-3.09-.4-1.93-.54-3.91-.89-6.62-5.85 2.47-11 5.3-16.34 8.13 1.09 2.11 2.16 4 3 5.89 1.53 3.49 1 5.32-1.87 6.86-3.77 2-7.45 1.61-9.21-1.31a47.12 47.12 0 0 1-2.54-6l-21.34 9.69c.46 2.27 1 4.36 1.29 6.47.64 4.22-1.4 6.71-5.53 6.87-3.05.12-4.34-1.06-4.41-4.14a22.58 22.58 0 0 1 .26-2.71c.09-.86.18-1.73.35-3.42-2.35.63-4.2 1.08-6 1.61-8.79 2.53-17.7 4-26.89 3.18Q100 615 91.52 599.81a63.48 63.48 0 0 1-7.36-24.92c-1-10.29-1.44-20.65-2.17-31-1-13.58-1.5-27.22-3.08-40.73-2.53-21.6-12-40.26-26.16-56.53-6.56-7.53-13.5-14.74-20.34-22-9.52-10.14-17.79-21.12-23.38-34C.24 370.46-.51 349.89 6.16 329c7.28-22.85 21.24-41.13 38.68-57.09 22.94-21 49.47-36.21 77.9-48.35 3.2-1.36 6.28-2.78 8.23-5.86a17.4 17.4 0 0 0 1.7-2.78c5.22-13.48 13.59-25.22 20.75-37.63 2.73-4.73 6.28-7 12.23-7.25 11.95-.57 23.84-2.45 35.75-3.8 5-.58 10.1-1.21 15.16-1.79a10.49 10.49 0 0 1 2.17 0c3.25.33 4.16 1.65 3 4.72a57.14 57.14 0 0 1-3.28 6.89c-5.07 9.23-10.35 18.36-15.26 27.67-2.81 5.33-6.54 8.13-12.86 8.24-15.53.25-30.61 3.73-45.59 7.5a83.74 83.74 0 0 0-13.83 4.86c-11.84 5.35-23.79 10.52-35.24 16.62C70.24 254.41 47.5 271.47 29.29 294a110.36 110.36 0 0 0-20.72 40.49c-5.83 21.21-3.12 41.35 6.91 60.74 6.87 13.27 17.11 23.84 27.13 34.65 7 7.59 14 15.28 20.26 23.52 12.95 17.14 19.4 36.89 21.1 58.14 1.1 13.76 1.28 27.59 2.3 41.36a393.07 393.07 0 0 0 3.48 30.82 46.94 46.94 0 0 0 4.43 12.81c5 10.42 13.64 15.74 25.14 16.37 10.72.59 20.86-2.1 31.45-5.68a42.4 42.4 0 0 0-.8-4.67 41.17 41.17 0 0 0-1.66-4c-.81-2.07-1.8-4.69.41-5.94a12 12 0 0 1 7.17-1.16c2.35.33 2.49 3 2.21 4.94-.34 2.46-1.1 4.87-1.68 7.33 4.22.13 16.67-5.2 23-9.86a21.07 21.07 0 0 0-2.06-2.76c-.9-.88-2.08-1.46-3-2.29-3.66-3.2-3.59-5.37.22-8.33s6.43-2 7.4 2.56c.3 1.41.27 2.89.48 4.33.51 3.58 2 4.58 5.11 3.07 6.21-3 12.29-6.21 19-9.64-2.64-1.87-4.89-3.32-7-5-3.88-3.09-3.78-5.76.25-8.66a12.6 12.6 0 0 1 2.87-1.54c2.77-1.06 4.54-.29 5.5 2.57.57 1.71.74 3.55 1.14 5.32.69 3.15 2.44 4.21 5.39 3.28a11 11 0 0 0 1.47-.7c20.13-10.14 41.76-15.67 63.55-20.76 5.82-1.36 11.56-3.06 17.36-4.53a16.78 16.78 0 0 1 3.35-.03zM217.34 170l-1-.91c-12.53 6.4-25.07 12.77-36.49 22.36l17.27 15.05c6.95-12.56 13.59-24.5 20.22-36.5zm-45.16 21.05c-4.56-5-8.84-9.62-13.49-14.7-7.7 12.66-16.2 24.55-22.42 39zM191.62 207l-15.05-13.41c-10.17 5.08-27.92 17.3-30.46 20.8zM177 188.31c4.74-3.32 9.09-6.57 13.64-9.5 4.39-2.82 9-5.31 13.5-7.95l-.48-1.11-41.11 4.69A68.48 68.48 0 0 0 177 188.31zM211.08 592l7-4.23c-2.09-2.6-3.47-5-7-5.25zm-21.36 10.19c-1.6-5.61-1.89-5.87-5.67-5 .84 6.51 1.18 6.81 5.67 5zm15-33.75l-4.54 3.36 5.29 3.59c-.33-2.67-.47-4.21-.79-6.95zM154 599.33c-.1-1.69-.18-3.06-.27-4.44-.63.11-1.7 0-1.84.37-.72 1.57-.56 3.03 2.11 4.07zm.34 12.91v6.13c2.52-2.08 1.24-3.52-.04-6.13zm23.46-29.74c-1.95 2.72-1.95 2.72.86 4-.3-1.22-.5-2.17-.9-4zM963.24 277.69l2.51 10.05c2.2 0 4.34-.07 6.48 0 7.09.28 12.72 7.94 10.59 14.73a5.63 5.63 0 0 1-3.42 2.92 26.27 26.27 0 0 1-6.48.67q-7.63.32-15.27.47c-22.71.42-45.42.91-68.13 1.2-14.18.18-28.36 0-42.53.08-10 .07-20 .4-30 .51-2.63 0-5.89.72-6.83-2.87s-1.75-7.61 1.68-10.66c3.17-2.83 6.65-5.08 11.13-5.13.86 0 1.72-.13 2.92-.23-1.55-5.94-4.74-11.63-1.29-17.52s9.23-6.4 15.43-6.34c-.77-6.84 3.74-10.4 8.11-13.89-1.28-2.56-2.86-4.83-3.59-7.35-2-6.79 1.14-12.22 8-14.28a77.72 77.72 0 0 1 7.8-1.52c-.61-6.44-1.42-12.73-1.73-19a37.23 37.23 0 0 1 4.44-18.89A31.28 31.28 0 0 1 866 186c11-14.73 30-13.64 39 2.39 2.48 4.39 4.17 9.23 6.4 14.26a31.81 31.81 0 0 1 3.16-1.55 111.85 111.85 0 0 1 11.79-4c7.24-1.69 12.71 1.46 16.92 7.21.83 1.14 1.52 2.39 2.31 3.64 3.95-4 7.55-8 11.54-11.56 5.68-5.08 12.45-5.74 19.42-3.31 6.73 2.34 10.68 7.31 11.91 14.35.41 2.3.68 4.62.95 6.55 4.78.39 9.3.32 13.6 1.25 4.62 1 8.05 4.08 10.1 9.41 1.9-2.47 3.51-4.39 4.94-6.43 4.59-6.55 10.95-9.9 18.8-10.64a41.4 41.4 0 0 1 18.25 2.27c7.49 2.72 11 8.68 11.81 16.25.41 3.77.1 7.62.11 11.44v6.27c2.3-.45 4.24-.78 6.16-1.19 5.73-1.22 11.21-.11 16.54 1.9 4.55 1.72 6.25 5.81 7.82 10.25 2.71-.41 5.34-.85 8-1.21 8.75-1.17 14.43 3 15.93 11.66 0 .18 0 .36.07.54 1.26 8.64-1.16 11.89-9.92 12.22-12 .46-24 .78-36 .66-34.71-.33-69.43-.93-104.14-1.38-2.6 0-5.26.28-8.23.44zm48-44.92a45.86 45.86 0 0 1-1.66-5.44c-.73-4.46-3.43-7-7.54-8.43a17.14 17.14 0 0 0-12.21.41c-2.91 1.1-4 .39-4.42-2.6-.29-2.34-.11-4.74-.44-7.07-1.79-12.86-15.11-18.29-25.38-10.31a36.14 36.14 0 0 0-10.77 12.81c-1.63 3.36-3.54 3.33-5.51.26-.68-1.07-1.16-2.26-1.76-3.38-4.15-7.68-9.11-10-17.6-7.5a56 56 0 0 0-9.85 4.44c-3.82 2-5.1 1.66-6.73-2.14-.5-1.17-.75-2.44-1.29-3.59-1.91-4.1-3.38-8.52-5.94-12.17-7.71-11-20.78-11.5-29.68-1.45a31.59 31.59 0 0 0-7.61 17.75c-.93 7.85.23 15.57 1.76 23.25.33 1.68.37 3.41.59 5.53h-4.87a30.11 30.11 0 0 0-5.38.16c-3.08.58-6.06 1.55-6.94 5.2a9.43 9.43 0 0 0 2.92 9.88c.76.68 1.56 1.32 2.27 1.91-1.51 3.48-1.51 3.48-5.05 6.39-4.76 3.91-5.18 6.56-2 11.67a13.72 13.72 0 0 1 1 3.27 22 22 0 0 1-3.91-.27c-1.39-.34-2.65-1.2-4-1.57-8-2.09-13.91 3.73-11.69 11.68.77 2.76 2.33 5.29 3.38 8 .42 1.09 1 2.91.53 3.38a6.11 6.11 0 0 1-3.76 1.18c-1.42.08-2.87-.54-4.31-.55-6.61 0-10.74 4.71-9 11 54.74-.76 109.63-.52 164.51-2.57-.36-9-3.3-11.6-10.71-10.12-5.59 1.12-5.59 1.12-6.46-4.51a15 15 0 0 1-.26-1.61c-.2-4.1-2-6.79-6.29-7.47-.2 0-.32-.59-.6-1.16 1.23-2.62 3.84-2.87 6.29-3.05 4-.28 8-.45 12-.37 13.62.28 27.24.86 40.86 1 22.72.22 45.43.21 68.15.23 8.54 0 17.08-.1 25.61-.27a59.93 59.93 0 0 0 7-.79c2.62-.37 3.78-2 3.58-4.59-.6-7.54-2.9-12.93-12.5-11.77a34.34 34.34 0 0 0-5.31 1.12c-5.16 1.5-5.37 1.6-6.85-3.61-1.3-4.59-4.16-6.93-8.64-8a31.53 31.53 0 0 0-17.17 1.07c-1.3.41-2.65.7-4.11 1.08-1.66-4-.26-7.61-.35-11.14-.11-4.7.11-9.46-.63-14.07a12.66 12.66 0 0 0-8.65-10.36A38.53 38.53 0 0 0 1034 212a18.21 18.21 0 0 0-11.77 7.27c-2.48 3.36-4.89 6.77-7.42 10.08a40 40 0 0 1-3.55 3.42z"/><path d="M280.25 332.46c-.27-3.2-.74-6.43-.78-9.66-.13-11.56 10.35-22.94 21.86-24a11.11 11.11 0 0 1 9.38 3.35 37.62 37.62 0 0 1 8.81 13c1 2.52 1.86 5.1 3 8.15 7.69-4.77 15.46-8.49 22.66 1l3.43-2.8a62.79 62.79 0 0 1 5.49-4.45c8-5.19 17-2.09 20.24 6.9.73 2 1.24 4.1 1.82 6.09 10-.65 10-.65 14.83 7.9 2.25-.31 4.56-.77 6.89-.91 4.71-.26 7 1.22 8.94 5.53 2.75 6 2.37 12 0 18-.52 1.35-1.26 2.61-1.6 3.32l6.23 9.93c3.23.22 7.23.28 11.17.8 4.53.59 6.21 2.44 7.16 6.93a19.24 19.24 0 0 1-2.46 13.63c-.64 1.14-2.54 2-4 2.18-4.49.65-9 .85-13.55 1.36-7.39.82-14.76 1.95-22.17 2.58-9.77.82-19.56 1.6-29.35 1.8a225.28 225.28 0 0 1-23.37-1c-12.66-1.08-25.26-2.84-38-1.75a63.88 63.88 0 0 1-10.35-.12c-5.18-.39-7.55-4.19-5.06-8.76 1.56-2.87 4.34-5.09 7.18-8.28.77-2.5 1.86-6.07 3-10h-26.06c-4.84 7.41-6.9 8.09-16.93 5.41-3.18 8.77-9.79 12.8-18.94 11.44-7.71-1.14-8.77-7.69-9.39-14.65-1.78.17-3.31.3-4.84.47-4.86.52-9.72 1.31-14.59 1.51s-6-1.75-4.73-6.52a18.63 18.63 0 0 1 6.63-9.74c3.26-2.66 7-2.45 11-1.05 1.48-8.18 7.18-12.33 13.12-16.35 7.88-5.33 15.85-1.91 20.17 3.88 1 1.3 1.75 2.73 2.55 4H263c2.14-11.88 6.94-17 17.25-19.12zm5.81 5.44c-2-.34-2.86-.43-3.71-.64-5.06-1.25-8.84.67-11.87 4.65s-4.36 8.31-2.62 13.26a10.91 10.91 0 0 1 .32 2.4c-2.68 1.57-4.54 0-6.33-1-4.23-2.33-8.19-2.7-11.94.87-.19.17-.69 0-1.11 0-.25-.14-.71-.23-.86-.49-.86-1.59-1.65-3.22-2.49-4.82-3.82-7.36-10.29-9.21-17.11-4.69a35.55 35.55 0 0 0-7.09 5.88 14.27 14.27 0 0 0-3 6.21c-1.06 4.91-1.2 5.18-5.94 4.08-6.87-1.58-11.63 2.2-12.1 9.74 8.1 1.25 15.95-3.08 24.24-1.49.13 3 0 5.71.42 8.36.58 4 3 6 7.1 6.11 6.19.22 10.23-2.53 12.43-8.44a21.48 21.48 0 0 1 1-2.54c.88-1.64 2.16-2.45 4-1.48.65.34 1.24.77 1.9 1.08 5.36 2.52 7.31 1.67 9.92-3.81a4.42 4.42 0 0 1 3.16-2.18c10-.28 19.95-.32 29.93-.43a12.23 12.23 0 0 1 2.18 0c2.05.33 2.78 1.68 1.83 3.51a16.29 16.29 0 0 1-1.93 2.63c-2.72 3.38-4.89 6.85-1.78 11.23-3.94 2.81-10.22 2.9-9.77 9.86 4.39 1.18 8.7 1 13 .75a128.73 128.73 0 0 1 14.15-.39c8.52.5 17 1.5 25.52 2.2 4.88.41 9.77.86 14.66.91a337.8 337.8 0 0 0 50.52-3.71c7-1 14.05-1.34 20.8-2 2.94-5.7 3.27-7.7 2.45-11.32-.55-2.43-1.7-3.9-4.39-3.9-3.6 0-7.21-.31-10.8-.13s-4.18-.05-4.66-3.49c-.22-1.57-.4-3.15-.64-5h-3.56c-1.67.05-3.74 1.74-4.86-.59-1-2.16 1.26-3.07 2.38-4.34 5.12-5.79 6.8-12.32 4.15-19.69-1.45-4-2.65-4.66-7-4-2.8.41-5.57 1-8.54 1.61-.67-1.78-1.19-3.11-1.67-4.45-1.6-4.39-2.76-5.11-7.3-4.41-.71.11-1.4.4-2.11.53-3.35.62-4 .17-4.83-3.29a50.77 50.77 0 0 0-1.42-5.81c-2.5-6.7-8.48-8.79-14.49-5a30.76 30.76 0 0 0-5.42 4.52c-1.61 1.63-2.93 3.55-4.73 5.78-2.2-2.21-3.56-3.59-4.94-5-3.85-3.85-6.33-4.38-11.2-2a56.22 56.22 0 0 0-5.47 3.56c-1.16.75-2.36 1.45-4.24 2.6-.71-2.23-1.3-3.83-1.72-5.47-1.78-7-4.52-13.48-9.78-18.57-1.48-1.43-3.62-3-5.5-3a16.06 16.06 0 0 0-11.16 3.62c-8.64 7.34-10.87 16.75-6.59 27.45.44 1.01.35 2.27.61 4.17zM1087.4 69.32L1053 82c-2.91-6.36-5.71-12.21-8.21-18.17a15.29 15.29 0 0 1-.91-5.84c0-2.64 1.67-4.34 4-5.3 2.18-.89 3.94.12 5.35 1.66 1.59 1.73 2.89 3.73 4.54 5.39.92.93 2.57 2.24 3.43 2 6.25-2 12.38-4.44 18.54-6.73-.06-.36-.11-.71-.17-1.07-2.58-.57-5.18-1-7.72-1.74-3.93-1.08-5.82-2.89-5.52-5 .4-2.73 3.45-4.7 7.31-4.12 7.89 1.2 15.8 2.41 23.56 4.22a12.71 12.71 0 0 0 7.3-.43 172.44 172.44 0 0 1 16.67-4.88 8.71 8.71 0 0 1 10.3 6.73c.84 3.45 0 5.67-3.18 7.2a61.21 61.21 0 0 1-7.68 2.69c-6.38 2.06-12.76 4.08-19.14 6.12q-4.14 8.55-8.27 17.11c-1.65 3.43-3.16 6.94-5 10.28-1 1.89-2.34 4-5 3.07-2.38-.8-2.22-3-2.25-5-.09-5.62 2-10.64 4.25-15.62.62-1.39 1.14-2.72 2.2-5.25zM1054.54 77c.51.06.72.14.87.08 22.33-8.13 44.39-17.06 67.43-23.13a14.76 14.76 0 0 0 2.56-.92c3-1.42 3.52-3.87.82-5.79a8.58 8.58 0 0 0-5.51-1.34 42.4 42.4 0 0 0-8.94 2.29c-15.77 5.49-31.5 11.08-47.26 16.62-5.08 1.79-7 1.17-10.17-3.28-1.46-2-2.59-4.38-5.31-5.07-2 3.11-2.1 3.17-.77 6.41 1.93 4.68 4.1 9.26 6.28 14.13zm30.22 12.21c3.1-3.72 10.07-18.9 10.29-22.31-.72.24-1.75.26-2 .73-1.78 3.08-3.55 6.2-5 9.44-1.76 3.74-3.44 7.57-3.29 12.13zm-13.29-42.84c-.07.65-.15 1.3-.22 2 3.46.73 6.91 1.93 10.4 2.06 3.23.12 6.53 3.87 10.38-.56zM363 69.73c-1.37 2.41-3 1.37-4.51 1-5.87-1.53-9.52 0-12.66 5.23-1.71 2.88-2.11 3-5.11 1.43-.8-.42-1.56-.93-2.35-1.38-4.61-2.69-7-2.27-10.1 2-1.35 1.89-2.36 4-4 6.82-.83-1.18-2.08-2.22-1.89-2.79 1.54-4.77 3.84-9.26 8.95-10.87 2-.64 4.57 0 6.8.48 1.33.27 2.52 1.29 3.73 1.94 7.74-8.84 16.19-9.59 21.14-3.86zM456 142c2.22-1 4.29-2.13 6.46-3 5.4-2.19 8.17-1.55 12.1 2.77a31.4 31.4 0 0 1 3.7 4.69c.44.72.09 1.91.1 2.89-.95-.17-2.2 0-2.79-.57-1.45-1.35-2.54-3.07-3.89-4.54-2.64-2.9-4-3.2-7.69-1.8a21.6 21.6 0 0 0-3.44 1.62c-3.27 2-6.29 2.75-9-.92-1.3-1.75-3.2-1.64-4.89-.55-2.72 1.76-5.32 3.7-8 5.55-.56.38-1.16.71-2.68 1.63.09-1.81-.26-3.14.25-3.78a22 22 0 0 1 11.64-7.57c3.53-1 5.67 1.58 8.13 3.58zM280.75 122.43c-.42-1.25-1.15-2.4-.87-2.74a16 16 0 0 1 4.15-4c6.32-3.59 9.68-2.51 13.68 4 9.19-.07 11.82 1.51 15.38 9.84-1.4-.11-2.57.1-3.4-.35a7.38 7.38 0 0 1-2.18-2.38c-2.27-3.18-5.12-4.44-8.95-3-2.56 1-4-.06-4.94-2.62-1.47-3.94-3.23-4.67-6.94-2.9-1.89.88-3.49 2.4-5.93 4.15zM452.2 88c-2.08-3.2-1.65-4.16 2.73-6.68 5.71-3.27 8.66-1.79 12.64 6.53 3.28.22 7.06.3 7.89 4.67.44 2.35.94 5.08-2.76 6.75a20 20 0 0 1-.89-3.48c-.28-3.93-.47-4.42-3.91-3.75-2.91.57-4.1-.23-4.27-3.06a6.4 6.4 0 0 0-.54-2.08c-1.46-3.53-3.58-4.27-6.78-2.23A44.33 44.33 0 0 0 452.2 88zM378 37.07c-2.57-.66-2-2.21-1.62-3.56 1.26-4 7.6-9.69 11.46-8.83a74.31 74.31 0 0 0 13.33 1.88c1.41.06 2.79 2.53 4 4 .26.32 0 1.51-.45 1.84s-1.68.4-1.91.09c-2.49-3.34-5.33-2.85-8.65-1.38-.84.38-2.85-.53-3.54-1.44-1.68-2.19-3.55-1.88-5.21-.61a53.26 53.26 0 0 0-5.77 5.58 17.65 17.65 0 0 0-1.64 2.43zM445.2 46.08c-.57-.48-1.23-.76-1.31-1.15-.66-3.29 1.7-5 3.86-6.55 2-1.45 4.29-2.55 6.42-.45 1.47 1.45 2.77 1 4.43.66 4.51-.85 6.9 1.68 6.79 7-3.06 1.15-2.95-2.63-5.5-3.33l-5.32 1.93-3.57-3.94zM457.88 7.65L454 4.22c-2 .75-4 1.5-5.92 2.23-4.95-3.39-4.95-3.39-11 1.6-.22-1.44-.79-2.63-.47-3.48 1.15-3 6.31-5.64 9-4.13 2.53 1.41 4.55 1.14 7.08.48 3.65-.95 5.6.5 6.16 4.07.15.56-.37 1.22-.97 2.66zM1347 833.74c1.33 2.17 2.07 3 1.93 3.2a7.53 7.53 0 0 1-1.87 1.37 5 5 0 0 1-.82-1.72 11.22 11.22 0 0 1 .76-2.85zM720.74 368.83c-13.9 7.91-27.07 15.9-40.69 23.05-20.49 10.77-41.12 10-61.56-.66a177.77 177.77 0 0 1-26.71-17.76c-1.83-1.43-2-2.93-.83-4.66a40.78 40.78 0 0 1 3.49-4.17c12.75-13.74 28.82-21.09 47-24.3 9.49-1.67 19-3 28.67-1.45a56.93 56.93 0 0 1 25.42 10.43c7.86 5.83 15.8 11.56 23.67 17.37a9.89 9.89 0 0 1 1.54 2.15zm-38.59-22.66c.62 2.88 1.07 4.78 1.44 6.68 2.79 14.48-7.86 30.87-22.16 34.34-10.53 2.56-20.49.88-30.33-3.21a19.34 19.34 0 0 1-11.32-11.8c-2.19-6.12-1.4-12.16 1.05-18.07.49-1.17.86-2.39 1.56-4.35-11.39 4.91-20.53 11.24-28.11 20.53 2.51 2.14 4.64 4.42 7.19 6 6.9 4.37 13.75 8.92 21 12.57 17.22 8.62 35 9.74 52.49 1.06 13-6.45 25.35-14.15 38-21.31.13-.08.19-.3.58-1-10.85-5.87-18.66-16.28-31.39-21.44zM660.42 342a115.74 115.74 0 0 0-27.87 4.34c-1 .28-2.31.45-3 1.15-5.15 5.5-8.27 11.9-7.26 19.62.72 5.47 3.24 10.13 8.48 12.49 8.7 3.91 17.66 6.17 27.42 4.39 14.88-2.7 25-18.56 21-33.21-1.31-4.77-4.26-7.46-9.06-8.05-3.19-.39-6.46-.49-9.71-.73z"/><path d="M663.46 361.58c-.09 7.71-7.54 12.78-13.93 10.32-5.24-2-6.79-10-2.56-14.22a21.33 21.33 0 0 1 6.16-4.21c4.54-2 7.69-.52 9.39 4.2a29.8 29.8 0 0 1 .94 3.91zm-3.71.51c-.09-3-1.55-5.34-3.44-5.45-3.66-.22-8 3.65-8.16 7.31-.09 2.2.68 3.92 2.94 4.62 4.1 1.29 8.8-2.24 8.66-6.48z"/></svg>