<svg data-name="Layer 1" xmlns="http://www.w3.org/2000/svg" viewBox="0 0 617.38 343.56"><path d="M306.31 65.54c3 1.39 5.38 2.59 7.83 3.64 1.66.71 3.46 1.11 5.12 1.85 4.16 1.84 4.52 3.57 2.35 7.69-2.35 4.47-4.49 9.05-6.54 13.67-.72 1.62-1.4 3.92.67 4.84a6.81 6.81 0 0 0 5.09-.19 15.23 15.23 0 0 0 5-4.07c5.1-6.15 10-12.42 15-18.73a12.08 12.08 0 0 0 1.49-3.46 63.35 63.35 0 0 1 10.91-19.37 23 23 0 0 1 6.56-5.59c5.59-3 10.2 0 10.2 6.4a14.21 14.21 0 0 1-4.89 11.15 177.17 177.17 0 0 1-14.19 11c-5.08 3.52-5.84 5.26-3.6 12 5 .25 9.12-2.06 12.2-5.73 6.53-7.78 12.73-15.84 19-23.85 2-2.57 3.56-5.54 5.78-7.91a30.84 30.84 0 0 1 7.53-6.11c4-2.21 6.66-1 8.71 3.29a24.17 24.17 0 0 1 .83 2.39c1.79-1.7 3.18-3.08 4.63-4.38 3.42-3.07 7.08-5.69 11.75-6.54 5.1-.94 9.2 2.06 9.21 7.24a17.76 17.76 0 0 1-1.61 6.77c-1.56 3.67-3.63 7.12-5.28 10.75a74.09 74.09 0 0 0-2.37 7.09 11.23 11.23 0 0 0 9.14-4.32c4.14-5 8.47-10.07 11.62-15.73 4.84-8.71 8.76-17.94 13-27a11.18 11.18 0 0 0 .42-2.42c-17.59-2.51-34.62-2.59-50.76 5.46-3.2 1.6-6 4-8.94 6.15-1.42 1-2.91 2-4.29.37s-.36-3.06.89-4.28c6.71-6.56 15-10.07 23.91-12.39 12-3.12 24.1-2.92 36.27-1.5 2 .23 3.95.31 6 .47 1.89-3.15 3.62-6.13 5.45-9a20 20 0 0 1 3.28-4.32c.76-.68 2.22-.59 3.36-.85.26 1.28 1.11 2.83.66 3.78-1.54 3.24-3.53 6.26-5.73 10a33.25 33.25 0 0 0 4.61.2c8.26-.88 16-3.1 22.74-8.29 1.58-1.22 3.25-2.33 4.93-3.41 1.49-.95 3.16-1.41 4.4.22s.58 3.25-1 4.21c-5.55 3.41-10.88 7.44-16.87 9.77-5.46 2.14-11.63 2.71-17.55 3.33-3.34.36-5.19 1.48-6.45 4.57-3 7.4-6.38 14.66-7.27 22.74-.33 3-.63 5.92 2.58 7.64s6.73 2.73 9.75.22a98.58 98.58 0 0 0 9.48-9.58c1.39-1.53 1.91-4.27 4.83-3.21 2 .71 2.23 2.87 0 6.13a55.27 55.27 0 0 1-7.73 9.06c-8.94 8.43-20.88 4.42-25-4.48-2.75 3.79-5.1 7.67-8.08 11a70.38 70.38 0 0 1-10.42 9.4c-1.74 1.28-4.4 1.73-6.67 1.78-3.79.09-6.23-2.44-6-6.2a25.24 25.24 0 0 1 1.93-7.86c1.61-3.84 3.76-7.45 5.51-11.25a42.52 42.52 0 0 0 1.73-5.5c-3.42-1.85-6-.69-8 1.08-4 3.63-8.34 7.2-11.33 11.62-5.06 7.49-9.29 15.56-13.66 23.5-2.19 4-3.45 5.39-5.2 4.14-3-2.15-.89-4.6.06-6.78 3.11-7.16 6.46-14.22 9.56-21.38 1.1-2.56 2.61-5.16 1.71-8.57-3.89 1.39-6 4.36-8.1 7.25-4.19 5.72-8.13 11.62-12.45 17.23a104.17 104.17 0 0 1-10.7 12.34 31.83 31.83 0 0 1-9.93 6.43c-7.28 2.88-9.93 1.5-13.46-6-2.52 3-4.87 5.84-7.33 8.61a82.25 82.25 0 0 1-6.35 6.71 12.38 12.38 0 0 1-9 3.21c-5.82-.22-9.43-3.87-8.33-9.58.92-4.74 3-9.26 4.72-13.83a31.54 31.54 0 0 1 2.21-4l-13-5.64c-3 4.51-6 9-9.08 13.49-4.09 6-7.89 12.25-12.43 17.9a38.37 38.37 0 0 1-10.16 8.84c-6.12 3.63-11.3.14-11-7a37.91 37.91 0 0 1 1.26-8.05c.68-2.61 1.83-5.1 2.9-8l-13.4-5.23c-.72 1.06-1.43 2.05-2.07 3.08-5.79 9.23-11.35 18.61-17.43 27.65-2.7 4-6.32 7.46-9.78 10.91a16.62 16.62 0 0 1-5.5 3.41c-5.1 2-9 .27-10.93-4.79-.59-1.51-.93-3.12-1.54-5.24a35 35 0 0 0-2.24 2.82c-2.44 3.83-4.61 7.84-7.28 11.5a40.7 40.7 0 0 1-6.74 7.08c-6.39 5.34-13.3 6.16-19.7 2.67-6.82-3.72-10.36-10.61-9.05-18.84a73.39 73.39 0 0 1 10.46-28.44 21.12 21.12 0 0 1 2.7-3.4 5.33 5.33 0 0 1 2.33-1.3 2.25 2.25 0 0 1 2.73 2.9 6.13 6.13 0 0 1-1.16 1.78c-6.81 8.52-9.53 18.65-11.47 29.08a11.78 11.78 0 0 0-.1 3.25c.94 10 10.87 14.66 18.7 8.46a41.09 41.09 0 0 0 9.57-11c5-8.42 9.32-17.26 13.83-26 1.67-3.22 3.08-6.58 4.69-9.84a10.09 10.09 0 0 1 2.33-3.62 4.46 4.46 0 0 1 3.74-.79c1.67.71 1.15 2.3.35 3.71a58 58 0 0 0-7.27 21 39.39 39.39 0 0 0-.1 10.29c.48 3.73 2.74 4.73 5.76 2.49s6.41-5 8.59-8.25c7-10.39 13.49-21.1 20.22-31.67 1.2-1.88 1.14-3.42 0-5.47-5.49-9.59-4.22-19.25.73-28.53a17.25 17.25 0 0 1 6.11-6c3.41-2.12 7.2-.73 8.28 3.13a22.1 22.1 0 0 1 .66 9.62c-1 5.32-2.75 10.51-4.31 15.71-.67 2.23-1.64 4.36-2.69 7.1 3.13 1.3 5.87 2.66 8.75 3.6 9.65 3.16 10 3.77 6.22 12.94a23.43 23.43 0 0 0-2 12.66c1.39-.42 2.74-.45 3.54-1.13 2.61-2.22 5.49-4.36 7.43-7.11 7.12-10.09 13.87-20.44 20.84-30.64 1.29-1.88 1.09-3.62.67-5.67-2.27-10.86-1.12-21.36 4.23-31.16a25.48 25.48 0 0 1 5.73-7.15c3.58-3 7.55-1.73 8.9 2.8a16.26 16.26 0 0 1 .44 6.94 85.47 85.47 0 0 1-8.7 26.26c-.82 1.74-1.73 3.5-3.09 6.16zm-57.32 5.1c3.43-7.51 7.1-14.95 5.4-24.07-6.96 5.11-9.23 14.92-5.4 24.07zm54.9-14.92c5.22-6.29 9.5-21.57 7.49-27.43-6.12 8.36-8.65 17.11-7.49 27.43zm60.13-4.77c-5.56 1.55-12.26 10.18-12.94 16.31 9.36-5.48 12.57-9.4 12.94-16.31z"/><path d="M163.77 181.45c-.44 4.89-2.8 6.59-6.69 7.39-9.8 2-19.52 4.45-29.61 4a68.81 68.81 0 0 1-12.42-1.44c-19-4.4-30.14-16.61-34-35.48-2.78-13.48-1-26.77 2.68-39.86a167.4 167.4 0 0 1 16.14-38c1-1.7 1.88-3.42 3.33-6.06-5.46.37-10.07.56-14.66 1-25.72 2.52-49.15 11-69.58 27.11-5.45 4.31-10.33 9.17-13.72 15.34-.35.63-.66 1.5-1.21 1.76a4.65 4.65 0 0 1-2.94.44 2.51 2.51 0 0 1-1-2.22 15.16 15.16 0 0 1 1.78-4.49 58 58 0 0 1 13.39-14.93c18.28-15 39.4-23.75 62.64-27.36a223.85 223.85 0 0 1 24.4-2.21 9.32 9.32 0 0 0 8-4.39c12.59-17.4 27.83-32.04 46.51-42.93 11.24-6.55 23.11-11.44 36.07-13.3 8.39-1.2 16.8-1.16 24.54 2.72a33.28 33.28 0 0 1 9.93 7.36c5.5 6.2 5.6 14.87 1 22.31-3.14 5-7.53 8.82-12.44 12-11.91 7.77-25.21 11.94-38.9 15.1-20.12 4.66-40.62 5.76-61.16 6.24-3.86.09-6.23 1.19-8.27 4.6-9.48 15.88-16.93 32.54-20.51 50.77-2.06 10.44-2.48 20.91.4 31.32 4.39 15.89 16.08 25.88 32.42 28.27 13.13 1.93 25.65-1 38.24-3.87 1.69-.36 3.42-.72 5.64-1.19zm-48-116.34a5.2 5.2 0 0 0 1.54.56c22.78-.19 45.37-2.07 67.43-8.18 9.3-2.58 18.45-5.77 26.5-11.19a50.29 50.29 0 0 0 11.32-10c5.78-7.26 4.1-15.6-3.81-20.55a31.26 31.26 0 0 0-9.51-3.84c-10.88-2.51-21.35 0-31.48 3.72-25.52 9.47-45.23 26.52-61.46 47.95a5.87 5.87 0 0 0-.55 1.53zM440.09 191.79c0 6.53.46 13.09-.11 19.56-.75 8.36-5.4 12.68-13.15 13.43-9.14.89-15.06-2.28-17.53-10.25a79.54 79.54 0 0 1-3.15-16c-1.24-13.38-2.07-26.8-3-40.2-.33-5.08-.4-10.17-.51-15.25a9.66 9.66 0 0 1 .54-3.72 2.75 2.75 0 0 1 2.06-1.41 2.81 2.81 0 0 1 2.08 1.36 8.86 8.86 0 0 1 .55 3.16c1 12.49 2 25 2.86 37.47.39 5.43.35 10.91 1 16.31a110.94 110.94 0 0 0 2.87 16c1.46 5.46 5.28 7.45 11.34 6.86 5.32-.51 8.3-3 8.41-8.85.19-10.51-.05-21.05-.6-31.55-.7-13.22-1.9-26.41-2.86-39.62a5.54 5.54 0 0 1 0-2.66 4.18 4.18 0 0 1 2.22-2 2.57 2.57 0 0 1 2.22 1.11 10.64 10.64 0 0 1 1.24 4.07c1.31 17.38 2.54 34.76 3.79 52.13zM313.65 149.01c.74 10.23 3.11 19.5 10.56 26.93 1.79 1.79 3.24 3.92 4.93 5.82 10 11.21 12.85 24.55 11.41 39-.91 9.18-6.79 14.53-15.79 14.93-5.55.25-9.83-2.2-13.14-6.42-3.83-4.89-4.87-10.86-6-16.73-.36-1.86-.1-3.87 2.34-4.13 2-.21 2.72 1.39 3.15 3.08a73.67 73.67 0 0 0 2.41 8.92 19.58 19.58 0 0 0 4.17 6.88c2.9 2.76 6.52 3.45 10.6 1.94 4.4-1.63 6.23-4.93 6.63-9.12 1.12-11.95-.79-23.19-8.6-32.83-2.63-3.24-5.43-6.34-8.07-9.58-10.28-12.61-12.1-27-7.67-42.07 3.09-10.54 14-12.66 21.84-4.81 3.52 3.53 5 8 5.63 12.7.13.95-.91 2.08-1.41 3.12-1.18-.59-2.74-.9-3.41-1.84-.78-1.1-.72-2.77-1.13-4.16a12.19 12.19 0 0 0-6.14-7.95c-4.28-2.19-8.1-1-9.58 3.6-1.35 4.13-1.86 8.48-2.73 12.72zM252.69 184.64c1 .91 2.58 1.75 2.65 2.7a4.09 4.09 0 0 1-2.13 3.13c-34.54 14.08-65.75 33.9-95.78 55.69-8.37 6.06-16.51 12.5-22.33 21.33a3.58 3.58 0 0 1-3.1 1.24c-1.59-.48-2-2.11-1.19-3.6a22.73 22.73 0 0 1 3.54-5.42c5.57-5.45 11.05-11.06 17.11-15.94 19.57-15.78 41-28.73 63-40.85 10.16-5.62 20.66-10.63 31.06-15.79a59.28 59.28 0 0 1 7.17-2.49zM484.2 83.36c-.68-.45-1.63-.74-1.76-1.24-.24-.95-.42-2.42.1-2.95a25.31 25.31 0 0 1 5.15-3.94c20.75-12.05 41.64-23.85 64.19-32.31 18.71-7 37.49-13.82 56.24-20.7 1.36-.5 2.76-.92 4.16-1.29 2-.52 4.26-.95 5 1.65.63 2.25-1.23 3.13-3.07 3.72-.69.22-1.37.48-2.07.69-23.68 7.17-46.62 16.37-69.38 26-19.11 8.05-37.28 18-55.16 28.52-1.1.58-2.2 1.18-3.4 1.85zM501.95 125.6c.61 16.36 1.2 32.43 1.82 49.12a40 40 0 0 1 6.68-.92c1.18 0 2.33 1.1 3.5 1.7-.74 1.07-1.26 2.74-2.27 3.11a61.57 61.57 0 0 1-8.17 2 56.48 56.48 0 0 0-.43 6c.31 9.61.71 19.22 1.09 28.83.09 2.18.25 4.36.28 6.54 0 1.64 0 3.53-2.18 3.73s-2.62-1.56-2.79-3.25c-.7-7.42-1.67-14.82-2-22.25-.29-7.25.39-14.54.18-21.8-.5-17.62-1.21-35.23-2-52.83-.19-4.52.51-5.74 4.85-5.95 6.52-.32 13-.49 19.58-.69a5.84 5.84 0 0 1 2.66.27 3 3 0 0 1 1.56 1.95 2.71 2.71 0 0 1-1.15 2.19 9.79 9.79 0 0 1-3.62.89c-5.53.44-11.14.85-17.59 1.36zM365.55 131.58c-2.88-.28-5.72-.55-8.56-.84a72.77 72.77 0 0 1-8.1-1 3.71 3.71 0 0 1-2.4-2.37c-.27-1.84 1.37-2.29 2.91-2.37a22.48 22.48 0 0 1 2.72.09c11.6.8 23.18 1.89 34.81.51 2.29-.27 5.45-.61 5.66 2.58.22 3.37-3.06 2.93-5.3 3.07-5.22.33-10.45.52-16.33.8.2 4.08.07 7.87.62 11.56a408.72 408.72 0 0 1 4.31 45.58c.35 9.23 1.7 18.43 2.61 27.64.15 1.45.44 2.88.54 4.33s-.44 3.24-2.16 3.14a4.67 4.67 0 0 1-3.12-2.31 12.89 12.89 0 0 1-1.07-4.75c-.88-8.67-1.74-17.34-2.48-26q-2.09-24.15-4-48.31c-.32-3.61-.45-7.21-.66-11.35zM462.22 126.94c1 16.21 2 31.9 3 48.28 2.18.09 4.28.17 6.37.27 1.92.1 4 .52 3.89 2.82s-2.26 2.47-4.15 2.47h-6.31c0 3.09-.14 5.6 0 8.09.62 9.6 1.35 19.2 2 28.8a14.61 14.61 0 0 1-.16 4.86 4 4 0 0 1-2.51 2.22c-.55.14-1.63-1.12-2.2-1.93a4.76 4.76 0 0 1-.32-2.12c-1.38-17-3.13-34-2.53-51.11v-1.63c-.92-12.48-1.73-25-2.82-37.42-.72-8.13-.48-8.65 7.52-9.67 4.15-.53 8.28-1.12 12.42-1.62 1.25-.15 2.67-.47 3.75 0a4.07 4.07 0 0 1 2.15 2.62c.14.66-.93 2.09-1.71 2.33a40.43 40.43 0 0 1-6.41 1.17c-3.9.52-7.81 1.01-11.98 1.57zM267.73 216.63a18.8 18.8 0 0 0-2.91 1.45c-16.06 11.75-30 25.71-43.16 40.56-7 7.93-12.82 16.61-18.78 25.25-.62.89-1.19 2-2.07 2.45a3.79 3.79 0 0 1-3-.07 2.54 2.54 0 0 1-.92-2.26 17 17 0 0 1 2.11-4.36c16-24.86 36.27-45.76 59.64-63.73a14.44 14.44 0 0 1 5.27-2.63c.89-.22 2.14 1.07 3.23 1.67zM579.08 67.43c.57.47 2.07 1.12 2.47 2.18.72 1.9-.7 3-2.48 3.46-6.19 1.41-12.44 2.54-18.58 4.15q-27.6 7.2-55.19 14.79a51.68 51.68 0 0 0-7.5 3.17c-1.73.79-3.62 1.71-4.69-.53s.8-3.3 2.43-4.13a52.69 52.69 0 0 1 6.93-3.16 574.42 574.42 0 0 1 74.15-19.51c.53-.15 1.07-.21 2.46-.42zM497.71 57.89c-2.75-.08-3.84-1.9-2.78-3.49a14.39 14.39 0 0 1 2.7-2.64 293.58 293.58 0 0 1 50.82-35.49c4.61-2.56 9.11-5.29 13.68-7.91a9.64 9.64 0 0 1 3.4-1.62 3.86 3.86 0 0 1 3.16 1.18c.45.75.05 2.44-.57 3.28s-2 1.46-3.13 2.09c-7.38 4.3-14.79 8.53-22.14 12.86a290.68 290.68 0 0 0-40.96 28.86 45.31 45.31 0 0 1-4.18 2.88zM219.01 230.09c-2-.22-3.09-1.2-2.54-2.91a6.32 6.32 0 0 1 2.23-2.92c11-8.26 21.88-16.76 33.23-24.53 6.69-4.59 14.18-8 21.32-11.94.95-.52 2-1.29 3-1.24a5.61 5.61 0 0 1 3.56 1.43c.38.41-.41 2.22-1 3.17a5.32 5.32 0 0 1-2.26 1.43c-17.31 7.85-32.45 19.06-47.44 30.52-2.59 2-5.25 3.87-7.91 5.76a24.4 24.4 0 0 1-2.19 1.23zM160.61 316.85c-.72-.44-1.74-.72-2.07-1.36a3 3 0 0 1 .09-2.49 6.92 6.92 0 0 1 2.37-2.15q11.59-7 23.25-13.88a16.81 16.81 0 0 1 2-.86c1.85-.79 3.71-1 4.59 1.2.76 1.9-.67 2.94-2.23 3.74-4.81 2.49-9.67 4.89-14.39 7.56-3.61 2-7 4.44-10.54 6.65-.91.57-1.9.99-3.07 1.59zM193.49 287.62a22.22 22.22 0 0 1-3.08 1.36c-9.21 2.46-17.57 6.82-25.86 11.39-1 .54-3.1.46-3.79-.23-1.52-1.5-.35-3.12 1.12-4a117.87 117.87 0 0 1 26.07-12.28 3.52 3.52 0 0 1 2.59.26c.82.48 1.35 1.49 2.95 3.5zM143.61 229.54c-3.77 1.07-7.58 2-11.27 3.29-1.57.54-3.07.93-3.7-.67a4.45 4.45 0 0 1 .55-3.85 8.33 8.33 0 0 1 4.21-2.24 44.51 44.51 0 0 1 20.5 0 10.56 10.56 0 0 1 4.35 2.1 3.55 3.55 0 0 1 .9 3.2c-.31.69-2.12 1.17-3.12 1-4.06-.76-8.06-1.81-12.42-2.83zM135.64 243.88c-5.79-.58-11 1.54-16.19 3.58-1.9.75-4 2.53-5.75-.06-1.16-1.69.12-3.51 3.6-4.91 5.87-2.37 11.82-4.53 18.34-3.87a28.84 28.84 0 0 1 3.25.39c1.64.36 3.31 1 3.13 3s-2 2.25-3.65 2.12c-.93-.04-1.83-.12-2.73-.25zM117.02 283.49c2.45.22 3.22 2.28 1.75 4.18-2.22 2.87-4.7 5.53-7 8.34-2.07 2.53-4 5.2-6.08 7.69-1 1.18-2.59 1.84-3.74.41-.62-.76-.9-2.66-.39-3.31 4.34-5.57 8.88-11 13.44-16.39.52-.6 1.58-.73 2.02-.92zM186.89 311.33a15.26 15.26 0 0 1-1.81 2.55c-4.26 4.18-8.59 8.28-12.9 12.4-1.21 1.15-2.66 2.55-4.09.83a3.83 3.83 0 0 1 0-3.73c4.6-4.84 9.31-9.58 14.27-14.06 2.03-1.77 4.46-.73 4.53 2.01zM190 271.25c1 .81 2.68 1.51 2.85 2.47s-1 2.5-2 3.08c-1.35.78-3.12.78-4.66 1.28-4.25 1.4-8.49 2.85-12.7 4.38-1.46.53-3.11 1-3.7-.65-.35-1 .4-2.61 1.1-3.65a5.35 5.35 0 0 1 2.7-1.69c5.3-1.74 10.58-3.38 16.41-5.22zM176.4 343.56c-1-.95-2.15-1.61-2.58-2.58a4.3 4.3 0 0 1 .15-3.13c2.31-5.08 4.66-10.15 7.28-15.07.5-.94 2.25-1.21 3.43-1.8.36 1.25 1.36 2.73 1 3.7-2.16 5.7-4.59 11.3-7 16.88-.35.71-1.29 1.14-2.28 2zM123.43 254.48c3.36.53 6.71-.58 7 2.58.32 3.63-3.19 2.31-5.27 2.74-3 .63-6 1.32-9 2-1.23.3-2.44 1.11-3.62 1s-2.42-.93-3.62-1.44c.67-1.13 1.1-2.93 2.06-3.27 4.41-1.47 8.96-2.61 12.45-3.61zM105.54 281.58c-2.43.2-3.74-1.44-2.92-3.16a6.89 6.89 0 0 1 2.43-2.78c3.39-2.07 6.89-4 10.37-5.87a3.28 3.28 0 0 1 2-.59 24.93 24.93 0 0 1 3.56 1.66c-.63 1-1.05 2.32-1.94 2.88-3.23 2-6.63 3.68-9.93 5.55-1.35.74-2.66 1.74-3.57 2.31zM210.03 289.89a10.3 10.3 0 0 1 2.31 2.13c2.27 3.68 4.47 7.41 6.44 11.25.42.82.13 2.75-.51 3.17s-2.26.09-3.35-.23a3.21 3.21 0 0 1-1.45-1.54c-2-3.61-4.11-7.21-5.93-10.92-1.07-2.21-.02-4.02 2.49-3.86zM196.8 322.52a41.63 41.63 0 0 1-.11 6.52 3.77 3.77 0 0 1-2.31 2.32c-.54.17-2.2-1.08-2.23-1.73-.16-5-.13-10.1.09-15.13 0-.6 1.58-1.62 2.36-1.56a2.88 2.88 0 0 1 2 2 74 74 0 0 1 .1 7.6zM150.82 274.93c.19 1.79.71 3.63.45 5.35-.16 1.12-1.46 2.08-2.26 3.11-.88-.76-2.43-1.44-2.53-2.28a125.4 125.4 0 0 1-.84-13.42c0-.86 1.46-1.72 2.24-2.58.91.93 2.41 1.76 2.59 2.82a40.68 40.68 0 0 1 .13 7zM211.11 315.85c-1 1-1.67 2.41-2.56 2.54a3.38 3.38 0 0 1-2.87-1.58 120.62 120.62 0 0 1-4-12.27 3.36 3.36 0 0 1 1.23-3 3.24 3.24 0 0 1 3 1c1.87 4.26 3.42 8.66 5.2 13.31zM165.11 263.86c0 1.44.32 3-.1 4.28a4 4 0 0 1-2.5 2.15c-.54.14-2-1.13-2.1-1.9-.65-4.26-1.12-8.56-1.39-12.85a2.93 2.93 0 0 1 1.74-2.26c.77-.18 2.42.5 2.63 1.15 1 3 1.59 6.2 2.33 9.31zM202.81 255.5c1 .74 2.7 1.49 2.65 2.1-.1 1.15-1 2.82-1.92 3.21a90.85 90.85 0 0 1-11.31 3.64c-.88.22-2.7-.53-3-1.26s.32-2.8 1-3.11c4.05-1.68 8.16-3.01 12.58-4.58zM171.21 249.83c.27-2 .17-2.79.52-3.36s1.26-1.7 1.85-1.65a3.32 3.32 0 0 1 2.49 1.49 78.52 78.52 0 0 1 2.73 9.29c.15.63-.62 2.08-1.11 2.15-1.1.15-3 .05-3.33-.6a67.78 67.78 0 0 1-3.15-7.32zM223.45 290.25c-.46-.19-1.3-.28-1.72-.75a84.66 84.66 0 0 1-5.87-7 2.9 2.9 0 0 1 .42-2.78c.59-.53 2.38-.71 2.83-.25a56.71 56.71 0 0 1 6.56 7.73c.96 1.44-.24 2.68-2.22 3.05zM133.39 285.01a21.67 21.67 0 0 1-1.23 4.63 3.77 3.77 0 0 1-2.75 1.91c-1.8 0-2.08-1.66-1.89-3.21a28 28 0 0 1 .91-5.83 4.33 4.33 0 0 1 2.68-2.63c1.7-.24 2.25 1.38 2.28 3 .01.52 0 1.06 0 2.13zM227.56 272.39c-.59.31-1.53 1.19-2.5 1.23-1.59.07-3.57-2.69-3-4.31a3.59 3.59 0 0 1 2.52-2c1.6-.16 3.24 2.45 2.98 5.08z"/></svg>