<svg data-name="Layer 1" xmlns="http://www.w3.org/2000/svg" viewBox="0 0 1000 816.79"><path d="M708.19 589.41c-.46 1.39-.79 2.18-1 3-.32 1.42-.51 2.86-.85 4.27-4.2 17.65-16 27.24-34.17 27.91a66.23 66.23 0 0 1-28.63-5.7A81 81 0 0 1 617 600.2c-4.89-5.05-8.05-11.14-10.49-17.69a78.48 78.48 0 0 0-5.25-11.94c-4.75-8.26-14.64-10.14-22-4-8.74 7.35-14.54 16.59-16.11 28.21a41.66 41.66 0 0 0 2.3 20.18c3.07 8.52 5.28 17.36 7.8 26.09a13.51 13.51 0 0 1 .56 4.28 4.16 4.16 0 0 1-3.48 4.28c-2.21.45-4.17-.74-4.91-3.28-1-3.3-1.67-6.69-2.54-10-4.06-15.55-9.3-30.61-18.48-44a59.83 59.83 0 0 0-4.54-6.12c-4.38-4.88-9-5.1-13.63-.39a88.29 88.29 0 0 0-7.06 9c-5.56 7.41-11.07 14.86-16.63 22.27-14.72 19.57-34.54 23.91-57.35 19.07-17.36-3.65-28.49-14.41-34.76-30.66-.65-1.69-1.31-3.38-2-5-.12-.28-.51-.45-.94-.81-1.6 3.32-3.09 6.61-4.75 9.83-3.28 6.35-7.21 12.24-12.85 16.75-7.49 6-15.81 9.74-25.2 5.31-9.64-4.55-13.91-13.28-14-23.52-.08-6.26 1.22-12.64 2.64-18.8a132.25 132.25 0 0 1 11.6-31.07c1.42-2.74 2.71-5.56 4.17-8.28 4.1-7.68 4.13-15.71 1.93-23.84a19.86 19.86 0 0 0-3.08-6.3c-3.18-4.42-6.72-5.38-11.95-3.59-1.37.46-2.65 1.2-4 1.69-4.78 1.73-6.62 4.92-7.23 10.15a188.67 188.67 0 0 1-5.19 25.59 41.86 41.86 0 0 1-11.33 19.61 30.62 30.62 0 0 1-7.43 5.44c-7.43 3.74-14.64-.59-14-8.86a60.37 60.37 0 0 1 4.19-18.47c5.32-12.6 12-24.5 23.27-33 .93-.7 2.09-1.94 2.06-2.89-.21-5.34-1.17-10.62-5.42-14.37-3.41-3-7.64-4.7-12.11-3a141.68 141.68 0 0 0-13.65 6.61 26.86 26.86 0 0 0-4 2.86c-9.9 7.75-9.94 7.76-9 20.37a94.43 94.43 0 0 1-4.45 37.09c-2.43 7.41-5.2 14.73-8.27 21.9a24.21 24.21 0 0 1-12.74 12.9c-9.09 4-17.24-.84-17.55-10.82a44 44 0 0 1 1.47-11.84c5.48-21.74 14.45-41.9 28.46-59.54 2.51-3.16 2.76-5.93.79-8.82a46.32 46.32 0 0 0-7.65-9c-4-3.44-8.72-4-13.83-2.26a66.46 66.46 0 0 0-36.08 28.45 118.57 118.57 0 0 0-15.7 40.43 52.08 52.08 0 0 0-.43 6.51c-.16 2.27-1.24 3.89-3.62 4s-3.75-1.34-4.07-3.58a19.14 19.14 0 0 1-.17-5.39c2.63-18.24 8.44-35.37 19.07-50.53 9.11-13 21.39-22 36.26-27.73 13.82-5.32 23.67 1.09 30.11 8.7 1.86 2.2 3.29 4.76 5.17 7.5 1.27-1 2.53-1.92 3.74-2.92 6-5 12.39-9.56 19.8-12.36 14.18-5.34 27 1 31.26 15.46.47 1.55.91 3.11 1.47 5l5.07-2.2c12.54-5.45 23.52-1.11 28.2 11.7 3.8 10.4 4.22 21-.63 31.32-1.93 4.11-4 8.16-6 12.24a130.41 130.41 0 0 0-12.24 38.26c-1 6.22.09 12 3.84 17.07 3.6 4.89 8.28 6.24 13.95 4.08A25.91 25.91 0 0 0 390.81 612a157.38 157.38 0 0 0 9.74-20c3-7.56 6-15.1 8-23.1 2.33-9.51 9-16.32 17.64-20.47 14.47-7 29.46-9.29 45.49-4.71s16.16 24 7.36 31.36a39.6 39.6 0 0 1-11.59 6.88 120.72 120.72 0 0 1-35.16 7 35.65 35.65 0 0 1-17.07-3.29 32.36 32.36 0 0 0 0 4 52.28 52.28 0 0 0 10.37 24.9 32.87 32.87 0 0 0 9.71 8.43 51.53 51.53 0 0 0 31.7 5.75c10.11-1.23 18.92-5.26 25.38-13.39s12.59-16.44 18.91-24.64c3.1-4 5.91-8.36 9.53-11.86 7.78-7.52 17.71-7.05 25.08.86a89.34 89.34 0 0 1 5.94 7.79c.94 1.26 1.85 2.54 3.32 4.57A52.6 52.6 0 0 1 567 566.5a44.58 44.58 0 0 1 7.77-7.58c11.32-8.31 26.32-5.43 33.71 6.44a47.3 47.3 0 0 1 4.88 10.32c6.93 21.39 23.09 32.2 43.42 38.26a41.93 41.93 0 0 0 21.56.92c9.25-2.1 15.71-7.29 18.47-16.57a56.11 56.11 0 0 0 0-32.22c-2.51-8.72-4.73-17.53-6.92-26.34-.51-2.06-.91-3.78-3.28-4.43-15.62-4.25-29.21-12.83-43.28-20.4-3-1.64-6-3.54-9.29-4.53-3.93-1.18-8.11-1.53-12.19-2.19-.89-.14-2 .28-2.67-.14-1.25-.82-3-2-3.12-3.14s1.16-2.86 2.28-3.8c.85-.71 2.38-.72 3.62-.86 6.55-.74 12.68.93 18.45 3.79 8.62 4.28 17.05 9 25.68 13.24 5.36 2.66 10.91 4.92 16.42 7.29a29.66 29.66 0 0 0 4.13 1c-.29-2.26-.43-4-.77-5.74-1.06-5.53-2.21-11-3.29-16.57a14.15 14.15 0 0 1-.36-3.76 4.25 4.25 0 0 1 7.94-1.71 21.9 21.9 0 0 1 1.69 5.15c1.49 6.92 2.85 13.88 4.31 20.81.38 1.76.94 3.48 1.62 6 8.09 1.38 16.24 3.43 24.49 4 16.3 1.23 32.65 2.06 49 2.29a149.55 149.55 0 0 0 41.52-5.3 101.11 101.11 0 0 0 47.06-28.31c3.65-3.81 7-7.89 10.5-11.83.84-.95 1.6-2.35 2.65-2.64a7.88 7.88 0 0 1 5 0c1.84.82 2 2.93 1.35 4.8a7.81 7.81 0 0 1-1.34 2.34c-14.93 19.21-33 34.24-56.37 42.17-14.76 5-30.07 7-45.56 7.5-24.58.75-49.06-.38-73.27-5.13a13.07 13.07 0 0 0-2.06 0c.16 1.33.21 2.5.46 3.63 1.66 7.26 3.11 14.58 5.1 21.74 2.93 10.56 8.33 19.71 16.83 26.82 6.26 5.23 13.75 6.21 21.53 6.16a4.07 4.07 0 0 0 3.88-2.3c1.9-3.14 4-3.41 6.71-1.49 3 2.15 4 6.12 1.61 8.48a12.87 12.87 0 0 1-6.53 3.43c-14.73 2.32-27.8-.93-38.13-12.38-1.21-1.27-2.42-2.56-4.02-4.31zm-292.28-13.86a25.56 25.56 0 0 0 17 4.45 117.53 117.53 0 0 0 31.87-6.54 24 24 0 0 0 7.89-4.63c6-5.5 3.85-14.11-3.83-16.6-13.82-4.48-27-1.88-39.44 4.5a24.23 24.23 0 0 0-13.49 18.82zm-133.15-48.14c-1.61 2.25-2.5 3.38-3.27 4.58a157.81 157.81 0 0 0-20.24 46.82 40.48 40.48 0 0 0-1.31 8.6c-.13 4.65 2.11 5.92 6.19 3.76s6.49-5.76 8.25-9.83c4.41-10.2 8.08-20.66 10-31.64 1.16-6.93 1.87-13.95.38-22.29zm32.56 43.38c11.19-4.31 21.19-25.95 19.38-41.66-9.8 12.61-18.05 25.08-19.38 41.66zM632.74 291.21c-1 8-2.09 15.83-2.8 23.75a25 25 0 0 0 2.79 13.73c3 5.81 7.77 7.91 14 6.11 3.14-.91 6.2-2.08 9.35-2.95 2.94-.82 5.11.08 6 2.18 1 2.38-.06 4.79-3.15 6a86 86 0 0 1-13 4.07c-8.59 1.7-16.89-2.82-21-11.18-1.57-3.18-2.59-6.63-4.11-10.62-1.14 1.91-2.07 3.36-2.91 4.86-3.23 5.75-6.87 11.18-12.28 15.12-5.57 4-11.57 6.89-18.76 5.53-7.87-1.49-12.68-6.57-13-14.53a121.55 121.55 0 0 1 .74-14.12c.3-4.15.89-8.3-.86-12.43-3.29-.19-5.62 1.44-7.74 3.43a30.92 30.92 0 0 0-8.27 13.29c-2.32 7.26-4.4 14.6-6.49 21.93-1.33 4.68-2.91 6.31-5.83 5.66s-3.91-3.13-2.78-7.67c1.55-6.19 3.34-12.31 2.07-18.79-.24-1.19-.65-2.35-1-3.72a15.79 15.79 0 0 0-10.36 4.69c-3.43 3.23-6.68 6.67-9.9 10.13-7.45 8-16 14.23-26.94 16.58a29.12 29.12 0 0 1-31.36-13.27 18.67 18.67 0 0 0-1.45-1.62c-1.91 2.89-3.72 5.53-5.43 8.23a25.93 25.93 0 0 1-9.63 9.43c-8.61 4.58-17.29 1.07-19.56-8.37-.9-3.76-.52-7.87-.43-11.81.05-1.95.78-3.87 1.25-6-2.93-1.18-5.78-2.24-8.56-3.46s-5.53-2.61-8.66-4.1c-.7 1.85-1.22 3.55-2 5.15-3.38 7.23-6.42 14.65-10.38 21.54a33.08 33.08 0 0 1-8.88 9.4c-5.52 4.15-10.8 3.28-15.51-1.83a21.09 21.09 0 0 1-5.54-19.13c.45-2.31 1.07-4.57 1.73-7.39l-15.41-7.84c-3.12 7.13-5.78 14.07-9.15 20.64a98.17 98.17 0 0 1-9.4 14.58 27.41 27.41 0 0 1-7.53 6.17c-6.71 4.09-11.87 3.29-17.61-2.27a10.38 10.38 0 0 0-1.35-1c-1.58 2.28-2.95 4.66-4.7 6.72-6.35 7.48-15.26 8.75-23.44 3.34a26.74 26.74 0 0 1-10.88-13.91 62.92 62.92 0 0 1-3-26.89 13.34 13.34 0 0 1 1.11-4.17c.85-1.86 2.62-2.91 4.45-2 1.22.6 2 2.25 2.74 3.58.28.5-.13 1.4-.23 2.11-1.14 8.11.19 15.93 2.65 23.63a18.72 18.72 0 0 0 8.3 10.45c4.26 2.62 8 2.27 11.18-1.59a23 23 0 0 0 4.39-8c1.9-6.61 3.24-13.39 4.77-20.11.4-1.77.55-3.59 1-5.36.59-2.41 2.19-3.83 4.73-3.56s3.76 2.1 3.87 4.52c.07 1.62-.24 3.26-.3 4.89-.19 4.89-.55 9.8-.43 14.69.08 3 .47 6.62 3.57 8.07 3.33 1.57 6-1.14 8.05-3.22a40.45 40.45 0 0 0 7.69-9.77c3.76-7.44 6.76-15.27 10.17-22.89 1.33-3 .92-5.11-1.34-7.79-8-9.53-8.61-20.51-4.44-31.76a16.1 16.1 0 0 1 5.84-6.86c4.09-2.86 8.95-1.45 10.93 3.12a44.84 44.84 0 0 1 2.88 11c1 6.74 0 13.41-1.39 20-.26 1.23-.49 2.47-.86 4.35 3.56 2 7.12 4.05 10.76 6 2.4 1.28 5 2.27 7.37 3.54 4.48 2.37 5.32 4.48 4 9.32-.73 2.63-1.54 5.24-2.08 7.9a11.67 11.67 0 0 0 2.47 9.73c2.28 3 3.46 3.22 6.23.86a27.33 27.33 0 0 0 4.76-5.2c5.63-8.17 9.12-17.3 11.89-26.77.73-2.49-.66-3.67-1.9-5.22-6.35-7.91-10-16.82-9.59-27.12a21.77 21.77 0 0 1 4.7-13.13c5.47-6.75 12.91-6 16.25 2a35.34 35.34 0 0 1 2.94 12.62c.18 8.3-.57 16.61-1 25.83 4.41 3.16 9.85 6.26 16.29 7.24 7.35 1.13 8.88 3.51 6.85 10.8a38.31 38.31 0 0 0-1.73 6.86 22.69 22.69 0 0 0 .5 7.49c.89 3.44 3.18 4.49 6.2 2.75a22.66 22.66 0 0 0 6-5.34c4-4.92 7.82-10 11.44-15.17.93-1.34 1.12-3.35 1.24-5.08.89-13 7-23.12 17.16-30.91 4.2-3.21 8.89-4.88 14.3-3.4 6.82 1.87 11.33 7.22 11.15 14.32-.25 9.59-3.64 18-12.23 23-4.63 2.71-10 4.28-15 6.25a52.7 52.7 0 0 1-5.43 1.49 11.12 11.12 0 0 0 6.28 8.53c6.44 3.18 13.08 4.19 20 1.44a48.52 48.52 0 0 0 18.11-12.75 107.33 107.33 0 0 1 10.29-10.49 39.51 39.51 0 0 1 10.19-6.12c6.28-2.57 8.63-1.93 14.28 2.45 1.32-2.12 2.56-4.28 3.95-6.32 3.68-5.41 8.29-9.62 14.84-11.29s11.08.73 12.2 7.23c.88 5.11.59 10.45.58 15.68 0 3.63-.69 7.25-.63 10.87.09 5.26 3.35 8.36 8.47 7.32a23.58 23.58 0 0 0 10.12-4.79 41.16 41.16 0 0 0 8.13-10.1c6.59-10.81 10.18-22.85 13.58-34.93.09-.3-.12-.69-.26-1.37-3.53-1.37-7.32-2.59-10.91-4.28q-20.71-9.72-41.3-19.73c-9.66-4.71-19.49-9-30-11.28-22.41-4.86-43.67-.24-64.33 8.41a80.94 80.94 0 0 0-23.48 14.65c-.54.49-1.13 1.25-1.72 1.27-1.49 0-3.5.26-4.36-.57a4.58 4.58 0 0 1-.75-4.28 16.21 16.21 0 0 1 4.31-4.79c15.07-12.45 32.55-19.44 51.56-23.41 25.26-5.27 48.61.07 71.21 11.29 14.31 7.11 28.8 13.87 43.27 20.67 2.89 1.35 6 2.18 9.31 3.35.56-2 .94-3.34 1.34-4.71 1.38-4.74 3.49-6.81 6.26-6.16 3 .7 3.79 3.27 2.71 8.22-.34 1.54-.58 3.11-.91 5 1.83.4 3.2.77 4.6 1 22 3.64 41.83-2 59.69-14.87 8.33-6 13.88-14.31 17.36-23.93a28.91 28.91 0 0 0 1-5.83c.31-2.23 1.35-3.79 3.71-4s4.18.84 4.54 3a16.39 16.39 0 0 1-.15 7.38 60.75 60.75 0 0 1-27.36 34.74c-18.95 11.38-39.22 15.91-61.17 12.14a17.36 17.36 0 0 0-2.16-.21 16.12 16.12 0 0 0-2.16.22zm-161.45 31.35l1.3.88c4.09-1.39 8.25-2.59 12.25-4.2 6.41-2.57 10-7.57 11.3-14.26.59-3 .63-5.82-2.1-7.89-2.42-1.84-5.31-1.78-8.56.52A32.3 32.3 0 0 0 473 314.27a71.58 71.58 0 0 0-1.71 8.29zm-64-20.81c1-8.33 2.05-16.61-1.69-24.84-5.7 6.09-5.07 16.55 1.68 24.84zm-56.67 2c3-6.82 2.78-15.77-.44-21.61-3.06 7.49-2.74 14.21.43 21.64z"/><path d="M190.81 291.63a22 22 0 0 0-2.95-.45c-19.61-.53-39.23-1.13-58.85-1.5a96.93 96.93 0 0 0-30.1 4.32c-22.22 6.76-32.71 23.42-37.35 44.81-.91 4.19.18 8.31 2.36 12.06.55.93 1.46 1.88 1.49 2.85 0 1.31-.19 3.28-1 3.83a5.09 5.09 0 0 1-4.41.34 10.25 10.25 0 0 1-3.49-4c-3.92-6.88-4.06-14.31-2.15-21.69 6.89-26.76 23.21-44 51-48.85a147 147 0 0 1 25.4-2.35c19.44.06 38.88.67 58.31 1.49 5.56.24 8.73-1.35 11.65-6.27 9.42-15.86 20.83-30.22 35.23-42 13-10.62 27.56-18.21 44.17-21.42 9.64-1.86 19.18-1.7 28.26 2.68 6.49 3.13 11.32 7.86 13.52 14.89 2.36 7.54.36 14.36-3.85 20.68-4.62 6.94-10.94 12.11-17.9 16.52-15.26 9.64-32 15.34-49.64 18.85a228.21 228.21 0 0 1-43.29 4.58c-3.7 0-5.87 1.11-7.58 4.6-12 24.46-19.93 49.9-19.58 77.45a82.14 82.14 0 0 0 6.94 32.82c12.92 29 41.21 42.19 71.5 32.79a153.8 153.8 0 0 0 44.89-23.07c2.81-2 4.67-5.39 6.93-8.17.45-.56.58-1.55 1.12-1.82 1.36-.69 2.92-1.59 4.31-1.46a3.19 3.19 0 0 1 2.82 4c-.65 2.77-1.47 5.72-3.1 8a32.6 32.6 0 0 1-7.41 7.13 168.23 168.23 0 0 1-44.33 23.08c-42.81 14.52-78-10-88.82-47.76-4.82-16.75-4.67-33.74-1.84-50.78A191 191 0 0 1 189.14 297c.63-1.31 1.24-2.63 1.8-4 .11-.24-.05-.64-.13-1.37zm17.24-9.41c22.15-.76 43.31-3.52 63.71-10.77 11.54-4.1 22.6-9.26 31.77-17.54a43.94 43.94 0 0 0 9-11.43c3.23-6 1.39-12.38-4.07-16.46a27.85 27.85 0 0 0-7.68-4c-6.36-2.15-12.91-1.79-19.39-.5-12.69 2.51-24.1 8-34.56 15.47-15.93 11.44-27.82 26.5-38.17 42.9a10.91 10.91 0 0 0-.61 2.33zM648.76 431.6l-7.94 5.64a21.7 21.7 0 0 0 .18 3.29c1.7 8.15-.58 15.53-4.57 22.45-2.91 5.07-7.55 7.55-13.43 8.08-9.56.86-15.81-9.25-12.33-17.45a30.15 30.15 0 0 1 8.56-11.14c3.44-2.93 7-5.72 10.7-8.71a29.93 29.93 0 0 0-1.21-3.61c-4.33-8.88-10.82-10.91-19-5.31-3.51 2.4-6.32 5.93-9.11 9.24-.9 1.06-1.06 3.06-1 4.6 1.08 22.33 2.26 44.65 3.41 67a41.37 41.37 0 0 1 .2 6 4.08 4.08 0 0 1-4.28 4 4 4 0 0 1-4.12-3.62c-.51-3.41-.88-6.85-1.08-10.29-.8-13.79-1.51-27.59-2.26-41.38-.06-1-.19-2.06-.36-4-1.44 1.28-2.32 2-3.16 2.8-5.05 4.69-10.28 9.2-17.86 6.22s-8.59-9.7-9.28-16.56c-.37-3.8-.44-7.64-1-11.41-.47-3.18-1.45-6.29-2.2-9.45-4.11.11-5.42 2.86-6.78 5.34-2.69 4.87-3.58 10.25-4.14 15.7a24.45 24.45 0 0 1-.58 4.3 4.31 4.31 0 0 1-4.33 3.48 4.11 4.11 0 0 1-4.12-3c-.71-2.06-1.09-4.22-1.77-6.28a69.29 69.29 0 0 0-3.58-9.66c-1.81-3.53-4.06-4-7.77-2.34-6.52 2.88-11.45 12.34-10.17 19.34.75 4.1 1.51 8.22 2 12.37.36 3.26-.87 5.08-3.12 5.56-2.43.52-4.68-1-5.13-4.37-1.52-11.33-2.75-22.71-4.05-34.07-.26-2.24.65-4.05 2.89-4.64 2-.54 3.47.63 4.39 2.41.33.63.55 1.33 1.05 2.57 4.05-4.2 8.33-7.73 14.11-8.56 6.24-.9 10.21 2.73 14 7.6 1-1.88 1.78-3.4 2.6-4.89a20.6 20.6 0 0 1 9.56-9.36c5.07-2.28 9.59-1.16 12 3.84a49.13 49.13 0 0 1 3.78 12.41c.8 4.26.7 8.69 1.2 13 .36 3.19.21 7.18 3.94 8.3s6.22-1.9 8.1-4.43a31.77 31.77 0 0 0 5-9.55c1.36-4.49 1.83-9.24 2.67-13.88.19-1.08.26-2.17.46-3.24 1.19-6.51 3.65-7.54 9.63-3.52a27.72 27.72 0 0 1 21.18-8.95c9.39.17 13.06 7.42 17.35 14.72a102.07 102.07 0 0 0 9.06-6.76c1.13-1.05 1.59-3.17 1.75-4.86.61-6.33.48-12.77 1.55-19a253.44 253.44 0 0 1 6-26.52c1.11-3.89 3.5-7.59 6-10.9 3-4.09 7.3-6.81 12.71-5.78 5.56 1.05 8.7 5 10.32 10.2a43.83 43.83 0 0 1 .4 24.22 46.34 46.34 0 0 1-13.23 22.8c-4 3.74-8.09 7.32-12.31 10.76-2.06 1.67-2.93 3.39-2.48 6.07 1.42 8.5 3.08 16.87 10.09 22.9 3.35 2.88 6.77 4.9 11.26 2a3.76 3.76 0 0 1 5.36.94c1.61 2.12.94 4.18-.74 5.87a11.4 11.4 0 0 1-11 3.39c-8.66-1.89-14.31-7.65-18.26-15.12-1.84-3.5-2.8-7.46-4.09-11.24-.59-1.58-.98-3.3-1.62-5.56zm9.24-20.38l1.2.62c2.76-2.57 5.69-5 8.26-7.72 8.88-9.52 12.27-20.79 10.17-33.64a15.87 15.87 0 0 0-1.71-5.12c-1.36-2.45-3.34-2.86-5.37-.92a18.72 18.72 0 0 0-4.5 6c-5.34 13.09-7.54 26.78-8.05 40.78zm-25.6 32.51C627 447 623 450.39 619.92 455c-1.25 1.89-2 3.93-.34 6 1.29 1.59 4 1.68 6.46.17a7.06 7.06 0 0 0 2.39-2.14c2.57-4.41 4.57-9.03 4-15.3zM833.65 631.93l23.45-15.47.37.56c.16-.33.47-.65.46-1-.24-11.89 5.6-19.89 15.87-25.18a48 48 0 0 1 19.24-5.5c8.71-.51 17.43-.69 26.14-1.17 8.51-.48 17-1.19 25.52-1.74a82.6 82.6 0 0 1 10.88-.36c4.47.31 6.11 4.08 3.61 7.82a19.74 19.74 0 0 1-3.32 3.58c-8.2 7.34-14.59 16.15-20.83 25.12-3 4.28-6.18 8.41-9.52 12.94a76.06 76.06 0 0 0 31.48 7.31c1.82 0 3.63-.09 5.45-.12a5 5 0 0 1 3.69 8.78c-3.63 3.29-7.15 6.8-11.19 9.52-5.7 3.85-11.87 7-17.76 10.58a60 60 0 0 0-5 3.9c-2 1.53-3.82 3.56-6.08 4.44-17 6.62-34.44 11.65-53 10.81-11-.49-21-3.87-29.58-11-9.65-8.12-15.3-18-12.72-31.06.64-3.24-.53-5.22-3.34-6.59-2.61-1.27-5.19-2.6-7.77-3.95a23.85 23.85 0 0 1-3.27-1.94c-1.81-1.38-2.46-3.22-1.24-5.26a3.53 3.53 0 0 1 4.76-1.42c3 1.29 5.94 2.72 8.89 4.12 1.81.79 3.58 1.68 4.81 2.28zM951.31 648c-16.79-2-31.68-8.58-46.21-16.24a143.05 143.05 0 0 0-15.77-7.39 30.58 30.58 0 0 0-11.6-2.31 56.39 56.39 0 0 0-36.09 14.66c-2.91 2.58-2 6-2.79 9-1.9 7.91 1.19 14.26 6.48 19.77a39.55 39.55 0 0 0 6.72 5.5c10.41 6.87 22.08 8.26 34 6.43 8.94-1.36 17.71-3.88 26.53-6a11.81 11.81 0 0 0 3.82-1.87c2.49-1.72 4.71-3.88 7.33-5.35 3.78-2.13 7.85-3.77 11.75-5.71A66 66 0 0 0 951.31 648zM944 592.83c-.2-.3-.4-.6-.59-.91h-3.57c-7.24.36-14.48.76-21.72 1.11-7.79.36-15.59.57-23.38 1s-15 2.51-21.44 7c-4.42 3.14-7.31 7.21-7 12.9 5.29-.31 10-.87 14.64-.8 6.12.09 11.62 2.63 17 5.23 5.85 2.81 11.67 5.72 17.78 8.72 12.04-9.6 17.45-24.08 28.28-34.25z"/><path d="M438.81 456.85c-7.46-14-4.75-28 1.08-42.42-2.4-.34-4.45-.72-6.52-.92a115.25 115.25 0 0 0-30.43.91c-7.54 1.3-14.94 3.3-20.42 9.34a3.45 3.45 0 0 1-4.91.53 3.56 3.56 0 0 1-1-5.29 28.63 28.63 0 0 1 6.7-6.21c6.85-4.38 14.59-6.37 22.58-7.45a119.51 119.51 0 0 1 33.15-.07c4.5.65 7.65-.32 10.75-4.11 8.26-10.06 18.68-17.2 31.54-20.25a29.9 29.9 0 0 1 7.54-.82c8.75.2 13.83 7.35 11.41 15.78-1.4 4.83-4.67 8.13-8.82 10.66a60.06 60.06 0 0 1-27.83 8.59c-4.51.28-9.05 0-13.84 0-6.06 11.64-9.38 23.21-3.81 36.3a61.11 61.11 0 0 1 5.9-2.74c6-2 12-4.16 18.09-5.73a17.25 17.25 0 0 1 8 .25c7.56 1.84 10.12 8.4 6.23 15.2a18.67 18.67 0 0 1-11.41 8.73c-9.57 2.84-19 3.31-27.95-3.29a69.69 69.69 0 0 0-4.73 6.15 46.94 46.94 0 0 0-6.75 21.64c-.95 14.77 8 25.79 22.7 28.46 12.39 2.25 23.44-1.34 33.61-7.92a152.55 152.55 0 0 0 15.89-12.38c2.45-2.08 4.32-4.85 6.34-7.4s3.87-3.39 5.93-2.22 2.69 3.3 1.52 6.22a15 15 0 0 1-3 5.11c-11 10.93-22.69 21-37.94 25.7a51.54 51.54 0 0 1-22.61 1.87c-10.54-1.48-18.59-7-25.2-14.83s-6.9-17.34-5.6-26.88c1.49-10.81 5.32-20.73 12.85-28.94a9.52 9.52 0 0 0 .96-1.57zm19.09-51.57c.43.68.5.92.62 1a7.2 7.2 0 0 0 1.59.24 54 54 0 0 0 25.51-6.76 12.87 12.87 0 0 0 4.59-3.73 7.27 7.27 0 0 0 1.16-5.36c-.28-.94-3.06-1.8-4.58-1.6-11.79 1.53-21.07 7.68-28.89 16.21zm19 47.28c-6.29-2.1-18.14 1.13-23 6 8.43 3.75 19.24 1.05 23.04-6zM517.22 721c-20.21-.42-39.74-4.43-59.08-9.7-32-8.72-62.59-21.21-93.27-33.54q-27.31-11-54.64-21.87a168.08 168.08 0 0 0-47-11.27 109.93 109.93 0 0 0-43.13 4.23c-8.32 2.58-16.55 5.49-24.7 8.57-6.67 2.51-12.88 5.91-17.5 11.63-1.48 1.84-3.25 3-5.63 1.5-2.07-1.34-2.35-3.56-.61-6.22a16.41 16.41 0 0 1 3.55-4.09c3.6-2.74 7.11-5.82 11.14-7.75 23.53-11.31 48-19 74.57-16.9A173.57 173.57 0 0 1 311.76 647c30.9 12.24 61.72 24.69 92.65 36.86a519.67 519.67 0 0 0 72.12 22.91 187.68 187.68 0 0 0 71.46 2.5c14-2.11 28.07-3.88 42.11-5.79 3.13-.42 5.1.61 5.69 2.85s-.58 4.23-3.48 5.38a19.69 19.69 0 0 1-4.74 1.17c-14.94 2-29.88 4.05-44.85 5.83-8.47 1.02-17 1.54-25.5 2.29zM777.65 481.72c5.87-1 10.84-2 15.87-2.66a32.53 32.53 0 0 1 8.13 0c3.31.42 5 2.46 4.62 4.94-.31 2.28-2.14 3.38-5.25 3.74-6.82.79-13.63 1.75-20.44 2.7a13.85 13.85 0 0 0-2.59.94 93.27 93.27 0 0 1-1.06 9.83 67.52 67.52 0 0 1-3.22 10.9 13 13 0 0 1-7.7 7.32c-6.45 2.54-12.21-.26-14.15-6.82-2.7-9.12 1-18.78 9.63-24.58 2.09-1.4 4.39-2.49 6.76-3.82v-27.85c-2 1.4-3.11 2.29-4.32 2.93-2.39 1.27-4.75 2.82-7.32 3.53-13.2 3.66-23-5.12-21.81-19.68.51-6.51 1.6-13 2.36-19.47.47-3.95 1-7.93-1.2-11.87-5.45.37-9.66 3.15-13.77 5.78-.34 4.18-.46 8.16-1 12.07-.81 5.62-3.68 10.07-8 13.83-11.25 9.79-26.48 2-28.69-9.59-1.82-9.53-.26-18.44 7.51-25.33a11.28 11.28 0 0 0 1.93-2.54 13.46 13.46 0 0 1 22.1-1.81c1.05 1.24 1.89 2.65 3.06 4.32 1.23-.55 2.45-1.21 3.74-1.67 3.74-1.35 7.42-3.09 11.28-3.81 5.47-1 9.1 1.54 10.91 6.77 1.7 4.93 1.58 10 .94 15.1-.71 5.76-1.48 11.53-2.12 17.31a19.28 19.28 0 0 0 .09 4.86c1 6.65 3.85 9.75 12.05 6.49 6.23-2.48 10.12-7.69 12-14.08 1.51-5.22 2.45-10.61 3.64-15.92a49.2 49.2 0 0 1 1.41-5.81 3.87 3.87 0 0 1 4.29-2.66 3.92 3.92 0 0 1 3.79 3.95 22.44 22.44 0 0 1-.58 5.94c-3.51 15-4 30.22-3.42 45.52.09 3.59.32 7.17.53 11.2zm-64.81-60.49c-6.93 1.17-12.41-.7-17.33-5.4-2.87 5.71-4.82 11-2.56 17 2.37 6.22 8.86 8.05 14.16 4.12 5.1-3.8 5.98-9.12 5.73-15.72zM768.2 495c-7.51 3.61-10 9.82-6.81 16.07 5.13-1.58 7.2-6.3 6.81-16.07zm-65.71-85.7c2.2 3 4.41 4 7.55 2.77-2.53-4.18-2.53-4.18-7.55-2.76zM836.43 577.54c-1.2 2.15-1.89 4.09-3.17 5.51a118.77 118.77 0 0 1-8.54 8.4c-31.12 28-65.74 50.9-102.32 71-16.27 9-33.16 16.54-50 24.18-3.8 1.72-7.57 3.53-11.37 5.25a22.46 22.46 0 0 1-4 1.57c-1.92.45-3.65 0-4.55-2s-.18-3.57 1.45-4.75a22.47 22.47 0 0 1 3.33-1.85q14.72-7.11 29.46-14.18c35.52-16.94 69.49-36.53 100.92-60.28 11.44-8.65 22.26-18.13 33.24-27.37 2.9-2.45 5.19-5.61 8.06-8.1a5.29 5.29 0 0 1 4.37-.89c1.15.46 1.96 2.18 3.12 3.51zM334.37 11.92c2.46.19 3.63 1.81 4 4.21.72 4.48 1.52 9 2.13 13.44 3.81 28.42 7.58 56.87 14.31 84.77 4.6 19 10 37.89 15.07 56.8.75 2.79 2.06 5.42 3 8.15.74 2.08.51 4.06-1.53 5.26a4 4 0 0 1-5.75-1.32 23.84 23.84 0 0 1-3.29-6.79c-5.87-21.72-12-43.36-17.24-65.23-6.1-25.63-9.82-51.69-12.36-77.91-.52-5.42-1.52-10.78-2.05-16.2-.27-3.1 1.25-5.04 3.71-5.18zM768.38 2.92c-.49 1.36-.77 2.21-1.11 3-5.1 12.61-10 25.3-15.35 37.81Q733 88.1 713.73 132.25a147.58 147.58 0 0 1-7.79 14.35 10.91 10.91 0 0 1-3.25 3.57A3.61 3.61 0 0 1 697 147a10 10 0 0 1 1.31-4.07c17.19-32.47 30.81-66.53 44.76-100.44 4.83-11.75 9.61-23.52 14.57-35.22a22.74 22.74 0 0 1 4.1-6.37 4.43 4.43 0 0 1 3.89-.74c1.13.36 1.9 1.84 2.75 2.76zM910.63 197.64c-.91 1.61-1.63 3.05-2.5 4.39a171.42 171.42 0 0 1-26 31.44c-19.84 19-40.35 37.16-62.59 53.3-1.91 1.39-3.82 2.79-5.84 4-3 1.83-5.44 1.63-6.79-.35-1.23-1.82-.74-3.95 1.71-6.16a76 76 0 0 1 6-4.74c21.59-15.79 41.5-33.56 61-51.88a175.52 175.52 0 0 0 25.66-29.56 10.72 10.72 0 0 1 3.28-3.53 5.07 5.07 0 0 1 4 0c.85.45 1.3 1.89 2.07 3.09zM153 726.77c-.51 9.67-3.09 18.92-6.31 28a14.34 14.34 0 0 1-9.22 8.69c-4.67 1.63-8.58.54-11.63-3.33-2.56-3.26-4.1-7.06-3.66-11.13a123.83 123.83 0 0 1 2.82-16c1.71-7 4-13.93 5.79-20.94.69-2.62 1.82-4 4.74-4.18 4.13-.25 7.92-.87 11.41 2.67a19.53 19.53 0 0 1 6 13.52c.06.93.06 1.79.06 2.7zm-14.26-10.7c-2.23 7.67-4.55 15.06-6.5 22.55a53.33 53.33 0 0 0-1.31 10.18c-.13 2.37.44 4.72 2.85 6.27 3.53-.55 5-3.28 5.8-6.3 1.56-5.58 3.08-11.18 4.22-16.86a33.33 33.33 0 0 0 .24-8.65 7.76 7.76 0 0 0-5.31-7.19zM128.67 661.68c-5.37-1.25-10.62-2-15.51-3.75-6-2.16-7.12-7-3.24-12.11a23.31 23.31 0 0 1 12-8.06c10.95-3.4 21.54-2 31.83 2.58 3.47 1.52 6.8 3.39 10.14 5.21 3.82 2.08 3.93 5.88.09 8a29.64 29.64 0 0 1-8.08 3.18c-9.03 1.82-18.14 3.32-27.23 4.95zm-10.25-11.26c11.34 3.62 21.57.36 33-1.78-12.13-6.17-25.91-5.35-33 1.78zM95.51 698.87c-8.15 0-11.13-5-7.49-11.21a19.76 19.76 0 0 1 4-5.07c10.06-8.62 21.53-13.28 35-11.89a82.58 82.58 0 0 1 9.65 1.58c3.49.79 4.73 2.64 5.19 6.69.32 2.85-1.27 4.5-3.6 5.43-12.62 5-24.61 11.71-38.27 13.83-1.73.27-3.53.5-4.48.64zm3.93-10.36c6.36.33 21.38-5.1 25.76-9.3-8.45-1.35-19.64 2.69-25.76 9.3zM178.54 633c-8.44 1.19-16.59-.75-24.73-2.45a21.35 21.35 0 0 1-11.21-6.32c-4.39-4.63-3.83-9.33 1.61-12.62 6-3.62 12.66-4.42 19.44-3.35a42.59 42.59 0 0 1 26 14.55 17.75 17.75 0 0 1 2.17 3.12c2 3.56.51 6.64-3.52 7-3.22.34-6.5.07-9.76.07zm-28.44-14.43c6.29 4.72 22.29 7.29 28.36 4.78-8.72-5.77-17.46-8.81-28.36-4.78zM297.32 704.15c-.12 9.82-5 17-13 19.15-9.89 2.69-20.6-2.91-23-12a14.37 14.37 0 0 1 .85-10 20.62 20.62 0 0 1 29.68-8.77c3.8 2.27 5.54 6.01 5.47 11.62zm-8.87-.61c-.22-.47-.5-2.53-1.68-3.47-4.59-3.68-14-1.37-16.65 3.84a7.2 7.2 0 0 0 3.08 9.76c7.8 4.06 14.9-.08 15.25-10.13zM180.63 715.29c-.48 4.69-.82 9.39-1.47 14.06-.5 3.64-2.26 6.55-6.15 7.48-3.55.85-7.48-.88-9.52-4.79a38.6 38.6 0 0 1-3.37-9.68 42.13 42.13 0 0 1 .44-21 22.34 22.34 0 0 1 2.31-5.49c3.43-5.57 9.3-5.88 13.37-.83a16.35 16.35 0 0 1 4.06 9.9c.1 3.44 0 6.89 0 10.33zm-10.92 10.61c2.81-6.75 2.56-20-.49-24.63-3.35 8.4-1.84 16.1.49 24.63zM113.61 718.57c.74 3.77-1.72 6.29-5.27 8.42-5.59 3.34-10.92 7.12-16.55 10.37a79.57 79.57 0 0 1-11.73 5.45 5.9 5.9 0 0 1-7.21-2.33c-1.64-2.38-1.08-5 .5-7.11 8.77-11.85 19.84-19.92 35.1-20.87 4.26-.26 5.49 1.09 5.16 6.07zM814.3 656.09c.19 5.35-2.33 9.51-6.95 12.48-8.28 5.31-18.6 4-24.14-2.91-3-3.7-4-7.78-2.21-12.2a39.69 39.69 0 0 1 4.6-8.54c2.13-2.9 5.2-4 9.08-3.73 4.55.36 9 .49 13 3.06 4.91 3.12 6.58 5.75 6.62 11.84zM791 651c-1.59 2.57-3.08 5.11-1.92 8.17 1.08 2.84 4.39 4.24 8.25 3.74 4.56-.6 7.64-2.9 8.06-6 .48-3.62-2.51-6.5-6.88-6.44-2.34.02-4.66.33-7.51.53zM105.82 139.89c1.75 1.05 3.34 1.65 4.44 2.74a63.32 63.32 0 0 1 6.46 7.33c6.54 8.92 12.9 18 19.38 26.94q6.21 8.59 12.56 17.1c2.53 3.4 2.78 5.86.59 7.6s-4.69 1.07-7.43-2.09a80.41 80.41 0 0 1-5.35-6.86c-6.53-9.38-12.89-18.87-19.48-28.2-4.27-6-7.86-12.62-13.89-17.31-.93-.72-1.38-3.08-.94-4.26s2.26-1.88 3.66-2.99zM550.52 67.25c-2.72 19.75-5.36 39.52-8.22 59.26a21.59 21.59 0 0 1-2.89 7.49 3.72 3.72 0 0 1-5.27 1.28 3.86 3.86 0 0 1-1.94-4.64c5.1-21.4 7-43.3 10-65a9.41 9.41 0 0 1 .45-2.12c.73-1.85 2-3.07 4.14-2.79s3.11 1.7 3.24 3.75c.06.9 0 1.81 0 2.71zM578.06 498.07a18.54 18.54 0 0 1 2.93.27c2.16.54 3.58 1.94 3.57 4.21a4 4 0 0 1-3.58 4.14c-3 .51-6.12.77-9.17 1.22-13.17 1.95-25.31 6.53-35.8 14.82a79.75 79.75 0 0 0-9.2 9.18c-2.36 2.59-4 3.36-5.95 2.15s-2.46-3.78-.54-6.7a39 39 0 0 1 5.53-6.69 79.71 79.71 0 0 1 44.35-21.47c2.69-.4 5.38-.77 7.86-1.13zM636.29 693.08c0 9.45-7.76 16.73-16.77 15.66a10.65 10.65 0 0 1-6.46-3.36c-4.55-5.67-5.36-12.55-.1-18.87 1.48-1.77 2.81-3.67 4.14-5.56 1.43-2 3.48-2.44 5.75-2.32 7.13.38 12.32 5.35 13.31 12.74.1.72.11 1.45.13 1.71zm-16.22 7.25c8.09-2.19 9.43-5.63 4.9-11.86-8.37 4.53-8.97 5.92-4.9 11.86zM887.24 566.25c-.07 3.38-1.4 8.28-6.85 10.47a18.18 18.18 0 0 1-17.14-1.37 7 7 0 0 1-3.2-7.07c1.43-10.86 7.28-16.89 19.15-15.6 5.46.59 8.17 4.78 8.04 13.57zm-9.24-4.52c-6.66-1.73-9.32.48-8.88 7 7.8 1.99 9.64.61 8.88-7zM857.09 423.9a183.74 183.74 0 0 0-45.85 3.1c-.89.16-1.94.53-2.66.23-1.23-.52-3-1.35-3.18-2.32a5.38 5.38 0 0 1 1.26-4.22 8.65 8.65 0 0 1 4.41-1.88 213.83 213.83 0 0 1 41.08-4c2.7 0 5.54 1.33 8.06 2.58a3.23 3.23 0 0 1 1.29 4.71c-.88 1.3-2.63 2-4 3z"/><path d="M187.58 684.35c-.1-4.37 1.4-8.21 6.55-10.1 3.53-1.3 4.81-1.4 7.2 1.3a26.59 26.59 0 0 1 6.86 15.13c.51 5-1.83 9-5.93 10.56-3.9 1.47-7.76 0-10.84-4.06a20.07 20.07 0 0 1-3.84-12.83zm11.55 7.79c0-3-.22-5.9-3.81-8.46.56 3.77.68 6.72 3.81 8.46z"/></svg>