<svg data-name="Layer 1" xmlns="http://www.w3.org/2000/svg" viewBox="0 0 456.4 1038.04"><path d="M137.76 591.53c.69-1.82 1.31-3.67 2.07-5.46 1.9-4.51 3.43-9.26 5.94-13.42 2-3.31 5.13-6 7.94-8.77 1.46-1.44 3.38-2.2 5.47-1a4.84 4.84 0 0 1 2.33 5.14c-.36 3-.35 6.3-1.52 9a283.49 283.49 0 0 1-21.37 41c-3.27 5.12-8.51 5.87-13 1.86a33.34 33.34 0 0 1-6.66-7.86q-9.72-16.73-18.85-33.77a34.08 34.08 0 0 1-3-9.25c-.7-3.45.63-6 2.93-7s4.58-.22 6.92 2.83c4.63 6.06 9.15 12.21 13.74 18.3.62.82 1.33 1.57 2.77 3.24-.43-3.82-.72-6.44-1-9.06-2.4-20.63-2.56-41.33-2-62.05q.5-19.35 1.28-38.68c.6-14.7 1.36-29.39 2-44.08a18.74 18.74 0 0 1 3.97-11.5c3.16-3.78 6.63-3.35 9 1a23.78 23.78 0 0 1 2.78 13.14c-1.34 21.21-3 42.39-3.95 63.61-.63 13.78-.37 27.6-.32 41.4 0 11.81.29 23.63.58 35.44.13 5.25.61 10.49.93 15.74zM343.06 559.57c2.4 0 4.55-.19 6.66 0 4.86.51 9.8.79 14.51 2s5.45 4.15 2.68 8.17a3.61 3.61 0 0 1-.33.44c-12.56 12.65-19.24 28.92-27.34 44.32-4.55 8.64-6 8.81-13.69 2.87a157.08 157.08 0 0 1-25.6-25.1c-4-4.93-8.49-9.46-12.7-14.22a26 26 0 0 1-2.86-4c-1.93-3.2-1.51-4.8 1.85-6.56a28.34 28.34 0 0 1 14.18-3.28c3.42.1 6.85 0 10.59 0a35.54 35.54 0 0 0 0-4.74c-3.07-22.43-3.55-44.86-.2-67.32 1.09-7.36 1.63-14.8 2.59-22.18.76-5.82.87-5.8 6.66-6.11 4.89-.25 9.78-.64 14.68-.74 4.3-.08 5.54 1 6 5.24s.7 8.33.78 12.5q.63 37.32 1.16 74.64c.02 1.26.23 2.5.38 4.07zm-10.28 54.65c4.93-8.79 9-16.92 13.87-24.51s10.72-14.84 16.68-23c-4.08-.1-7.63-.08-11.17-.3s-7.09-.67-10.53-1c-.82 2-1.52 3.73-2.16 5.29-2.9-.38-3-2.11-3.16-3.74-.73-7.76-2-15.52-2-23.29 0-23.07.53-46.13.84-69.2v-7.34l-15.05 1.37a16.39 16.39 0 0 0-.56 2.13q-1.81 25.55-3.57 51.1c-.95 14 .07 28 1.85 41.86.23 1.79.92 3.53 1.07 5.32.17 2-1.25 3-3.18 2.37-1.34-.42-2.63-1.35-4-1.38-4-.09-8 0-12 .31a58.07 58.07 0 0 0-7.09 1.42zM201.05 891.75a20.11 20.11 0 0 0-1-2.4c-3.15-5.15-1.85-9.69 1.79-14 1.73-2 3.38-4.11 5.42-6.6-2-1.65-3.47-2.88-4.95-4.13-5.26-4.42-5.67-10.07-1.12-15.21 5.74-6.49 5.69-6.47 2-14.21a36.82 36.82 0 0 1-2.66-7.12c-.23-.89.77-2.09 1.21-3.15.91.43 2.26.6 2.65 1.31 2.39 4.27 4.64 8.63 6.79 13 1.46 3 .47 5.72-1.65 8-1.47 1.59-3.25 2.89-4.83 4.39-3.63 3.43-3.5 6.32.45 9.48 1.27 1 2.74 1.79 4 2.82 3 2.39 3.43 4.31 1.45 7.55a32.16 32.16 0 0 1-4.51 5.4c-2.61 2.7-5.3 5.52-3.22 9.51s5.3 6.45 10.06 6.18c9.8-.55 19.59-1.15 29.39-1.69 4.17-.23 8.35-.56 12.51-.45 4.52.11 5.74 2.06 4.6 6.36a23.35 23.35 0 0 1-4.6 9.1c-15 18.3-29 37.27-39.41 58.68a30.67 30.67 0 0 1-2.76 4.69c-2.91 4-6 4.34-9.58 1a71.06 71.06 0 0 1-7.09-7.53q-6.1-7.66-11.83-15.65a395.92 395.92 0 0 0-33.74-41.37c-.75-.79-1.4-1.68-2.2-2.41-3.14-2.85-3.35-6.06-1.76-9.85a9.27 9.27 0 0 1 8.28-6.1 38 38 0 0 1 7 .54q17.86 1.89 35.73 3.79c1.06.17 2.1.07 3.58.07zm50.88 6.87l-.54-1.23c-1.75.09-3.51.14-5.25.27-6.17.48-12.32 1.08-18.49 1.47-17.64 1.09-35.23 0-52.79-1.67-5.06-.48-10.11-1.09-15.18-1.43-2-.14-4.34-.94-6.06 1.64 21.2 18.92 38 41.35 53.58 64.84 7-11.49 13.08-22.81 20.43-33.28 7.46-10.64 16.15-20.44 24.3-30.61zM117.09 304.1c.27-3.87.58-6.85.65-9.84.53-20.32 1-40.65 1.53-61a46.24 46.24 0 0 1 1-8.62 11.83 11.83 0 0 1 2.52-5.29 5.71 5.71 0 0 1 4.29-1.31c1.83.19 2.35 1.89 2.39 3.72.12 4.9.55 9.79.54 14.69 0 22.69-.2 45.38-.29 68.07a7.54 7.54 0 0 0 .47 1.72c2.5-2.07 4.8-4 7.12-5.91.85-.69 1.68-1.69 2.64-1.85 1.47-.25 3.35-.37 4.46.36.82.55 1.3 2.8.86 3.83a55.5 55.5 0 0 1-5.73 11c-3.33 4.51-7.32 8.53-11.08 12.72-4 4.46-8.42 4.33-11.6-.83-3.9-6.31-7.27-13-10.82-19.49a8 8 0 0 1-.85-2.57c-.33-2-.43-4.46 1.82-5.11 1.37-.4 3.37.54 4.81 1.37 1.68.95 3.03 2.44 5.27 4.34zM69 711.75c1.45-2.19 2.93-4.37 4.36-6.58a23.55 23.55 0 0 1 2.3-3.68c.78-.8 2.07-1.09 3.13-1.61.49 1.21 1.63 2.58 1.38 3.61-2.37 9.75-5.54 19.24-11.52 27.45-4.29 5.89-9.7 5.19-12.21-1.68-2.73-7.49-5-15.16-7.26-22.8-.72-2.41-1.41-5.47 1.6-6.7 3.3-1.35 4.16 1.89 5.43 4 .65 1.07 1.24 2.18 2.45 4.33.18-2.18.36-3.28.35-4.38q-.42-25.89-.88-51.78a174 174 0 0 1 3.12-34.68c.69-3.74 1-7.55 1.49-11.32a8.52 8.52 0 0 1 .37-2.68 16.93 16.93 0 0 1 2.21-2.76c.94.92 2.57 1.75 2.71 2.77a117.52 117.52 0 0 1 1.55 16.8c-.34 29.25-1 58.5-1.46 87.76v3.56zM27.48 630.83c8.19 2 8.14 2 5.89 10.26-1 3.68-1.71 7.43-2.6 11.14a34.55 34.55 0 0 1-1.5 5.24c-1.51 3.6-4.16 3.92-6.56.89a16.09 16.09 0 0 1-.87-1.38c-2.48-3.8-4.76-7.77-7.52-11.36-2.44-3.17-2.33-6.81-2.62-10.33-.23-2.71 2.33-4.35 5.79-4.32 4.17 0 4.29 0 4.25-4-.14-12-.44-24-.54-36 0-5.27.23-10.53.38-15.79.15-5.09.26-10.18.5-15.26.59-12.69 1.18-25.38 2-38.07.13-2-.64-3.28-1.68-4.85a47.92 47.92 0 0 1-4.51-8.6c-.74-1.84-.08-3.88 2.34-4 5.38-.17 10.76-.05 16.4-.05a17 17 0 0 1-5.1 14.71 7.3 7.3 0 0 0-2.28 5.68q-.25 43.6-.57 87.22c0 4.35-.49 8.7-.75 13.05-.17 2.04-.32 3.99-.45 5.82zm-10.9 6.24c1.28 4.88 6.23 12.17 9.65 14.51l3.42-14.51zM60.71 193.06c2.73-2 4.48-3.57 6.51-4.59 1.07-.53 3.11-.56 3.84.12s.77 2.74.28 3.81c-2.36 5.1-4.92 10.11-7.58 15.06-2.78 5.16-6.87 5.41-9.87.34-2.87-4.82-5.2-10-7.63-15-.8-1.66-1.23-3.63.78-4.85s3.49 0 4.82 1.31c1.11 1.09 2.09 2.31 3.8 4.23.12-2 .22-3 .23-3.94.1-10 .29-20 .27-30-.06-35.25-.1-70.51-.36-105.76-.08-10.53-1-21.05-1.29-31.58-.16-5.43 0-10.89.35-16.32A13 13 0 0 1 57.22 0c.84 32 4.16 63.83 3.61 95.82s-.12 64.18-.12 97.24zM26.59 795.1a55.33 55.33 0 0 1 6.22 2.19c3.4 1.68 3.88 3.87 1.94 7.06-4.25 7-8.45 13.95-12.68 20.92a23.7 23.7 0 0 1-2.35 3.65c-1.89 2.12-4.27 2-6-.16a15.4 15.4 0 0 1-1.56-2.85C8.57 819 5.06 812 1.48 805.07c-.93-1.79-2.37-3.8-.74-5.46 1-1.07 3.18-1.27 4.88-1.45a30 30 0 0 1 5.17.31 30 30 0 0 0 .44-3.76c-.38-19.25-.82-38.5-1.21-57.74 0-2.25-.36-4.2-2.15-5.9-.67-.63-.76-2.4-.39-3.38.22-.58 1.87-1 2.83-.87 3.79.32 7.56.88 11.35 1.32 2.89.33 4.75 1.86 5.13 4.76a62.84 62.84 0 0 1 .63 8.66c-.22 16.71-.54 33.41-.82 50.12-.02 1.07-.01 2.15-.01 3.42zm-10 26l12-18.25c-1.25-.38-2.07-.58-2.86-.87-3.61-1.36-3.57-1.36-3-5.5a17.13 17.13 0 0 0-.12-3.19c-.57-10.32-1.3-20.64-1.65-31-.27-8 0-16-.1-24a35.37 35.37 0 0 0-.53-4.26h-5.8v68.95l-6.53.38zM243.74 806.71l7.69-8.24a11.31 11.31 0 0 1 2.32-2.27c.66-.38 2-.53 2.44-.13a3.24 3.24 0 0 1 .92 2.72 49.05 49.05 0 0 1-3.22 6.29c-1.89 3.32-3.71 6.69-5.85 9.84a11 11 0 0 1-4 3.43c-4.35 2.21-4.68 2.15-7.89-1.45-4-4.46-7.81-9.06-11.69-13.61a7 7 0 0 1-1.57-2.21c-.33-1.1-.67-3.13-.28-3.33a5 5 0 0 1 3.85-.4 22.87 22.87 0 0 1 4.8 3.54c1.34 1.13 2.56 2.41 4.57 4.31 0-2.6.13-4.32 0-6-2.24-26-.35-51.94 1.2-77.89a15.06 15.06 0 0 1 1-4.77c.43-1 1.6-1.72 2.44-2.56.78.85 2 1.59 2.25 2.56a81.25 81.25 0 0 1 1.86 11.27c.43 5.43.7 10.9.6 16.34-.37 19.81-.92 39.61-1.4 59.42-.06.62-.04 1.27-.04 3.14zM211.76 426.49c2.2-4.55 4.39-9.11 6.63-13.64.11-.24.62-.29 1.54-.67.2 1.22.74 2.38.49 3.34q-2.62 10-5.57 19.9c-.91 3.08-4.36 4.85-6.93 3.09-5.3-3.63-9.73-8.18-11.13-14.85a1.74 1.74 0 0 1 .17-1.05c.15-.3.49-.49 1.23-1.17l8.32 9.12c-.15-26.93-1.15-53.19 1.78-79.44.92-8.23-.14-16.68-.11-25 .06-14 .13-27.95.51-41.91.09-3.37 1.32-6.74 2.27-10 .48-1.68 1.82-2.93 3.73-2.19s1.38 2.35 1 4.09a58.46 58.46 0 0 0-1.66 11.79c0 18.35.26 36.69.3 55 0 7.26-.26 14.52-.49 21.78-.22 7.08-.47 14.16-.85 21.23-.57 10.51-1.27 21-1.89 31.52-.18 3-.29 6-.42 9.06zM88.78 363.09c-1.61 52-2.59 103.2.15 155.7 4.14-4.88 4-11.38 10.18-13.86.14 1.63.54 2.71.25 3.55-2.6 7.54-5.31 15-8 22.55a13.44 13.44 0 0 1-1.67 3.4c-1.53 2.08-3.56 2.37-5.73 1-2.75-1.68-9.4-10.59-10.59-14.32 3.26-1.34 4.35 1.63 6 3.1 1.87 1.65 3.49 3.59 5.18 5.36 2.35-1.11 1.89-2.84 1.69-4.36-5.5-42.11-5.09-84.37-3.36-126.67.29-7.07.31-14.16.58-21.23.12-3.08.47-6.15.87-9.21.27-2.1.93-4.1 4.45-5.01zM24 180.08c3.17 1.59 2.56 3.82 2.52 5.66-.18 8-.38 16-.81 24-1.08 19.72 1.26 39.21 3.44 58.72.12 1.07.42 2.12.9 4.42 2-3.61 3.55-6.31 5.05-9a54.53 54.53 0 0 1 3.2-5.7c.59-.82 1.93-1.09 2.93-1.61a13.73 13.73 0 0 1 .91 3.34 8.55 8.55 0 0 1-.79 3.15c-3.23 8.49-6.47 17-9.79 25.42-.9 2.29-2.34 4.15-5.09 4.32-2.5.15-4.1-1.28-5.27-3.24a89.56 89.56 0 0 1-9.67-22.46 6.88 6.88 0 0 1-.29-3.22 12.25 12.25 0 0 1 1.7-3c.88.53 2.06.86 2.56 1.63 2.26 3.44 4.32 7 6.83 10.44C19.1 242 16.86 211.24 24 180.08zM46.3 935.57A27.66 27.66 0 0 1 47 940q0 33.25-.11 66.52v18.32a32.24 32.24 0 0 0 3.32-3c5.67-7.1 11.27-14.24 16.91-21.36 1.05-1.31 2.21-2.53 3.34-3.83 2.7 2.08 1.48 3.77.59 5.21-4.12 6.63-8.13 13.33-12.59 19.72a167 167 0 0 1-11 13.54c-3.65 4.21-6.56 3.94-9.38-.89-2.29-3.92-4.2-8.06-6.34-12.06-4.72-8.8-9.51-17.56-14.21-26.37-.87-1.62-2.82-3.14-.9-5.41 2.48-.31 3.48 1.7 4.48 3.26q7 11 13.81 22.19c2.05 3.39 3.79 7 6.25 11.53 0-11.26-.13-21.24 0-31.21.16-10.18.22-20.38 1-30.51.79-10-.31-20.11 2-29.93zM106.26 802c-.2 2.48-.46 5-.59 7.44a540.39 540.39 0 0 0 1 69.7c2.37 31.32 5.11 62.62 7.66 93.94a38.5 38.5 0 0 0 1.44 9.44l4.43-6.51c2.33.06 2.68 1.85 1.94 3.34a102.75 102.75 0 0 1-6.9 12.3 3.44 3.44 0 0 1-6 0c-3.95-5.63-7.54-11.52-11.22-17.33-.22-.34 0-1 .16-2.69l11.19 12c.07-2.67.27-4.35.14-6-1.25-15.56-2.56-31.12-3.83-46.69-3.21-39.11-6.15-78.24-3.86-117.53a59.48 59.48 0 0 1 1-8.1c.28-1.39 1.26-2.64 1.92-3.95zM148.83 760.53c2.36-2.73 4.75-5.43 7.08-8.19.7-.83 1.07-2 1.9-2.64s2.43-1.41 3.15-1.05a3.37 3.37 0 0 1 1.22 3.08c-2.62 7.85-6.33 15.09-12.79 20.56a5.85 5.85 0 0 1-6.63.89c-8.44-3.92-13.18-11.16-16.95-19.18a3.5 3.5 0 0 1 1.35-4.79c1.89-1.12 3.57-.32 4.89 1.08 1.74 1.85 3.33 3.84 4.93 5.82 1 1.22 1.86 2.52 3.32 4.51a20.28 20.28 0 0 0 .82-2.85q.34-25.62.65-51.23.07-5.73.28-11.45a11.91 11.91 0 0 1 .52-3.74 2.79 2.79 0 0 1 2-1.52 2.61 2.61 0 0 1 2.07 1.29 15.25 15.25 0 0 1 .94 4.76c.21 7.81.43 15.62.4 23.44-.06 12.9-.3 25.81-.44 38.72a15.1 15.1 0 0 0 .22 2zM442.89 734.94c1.32-2.55 2.56-5.16 4-7.65a44.42 44.42 0 0 1 4.47-6.81c.89-1 3-2.19 3.93-1.79 2 .85.81 2.69.18 4.2-2.69 6.35-5.32 12.73-8 19.09-.35.84-.64 1.71-1.06 2.51-2.7 5.11-7.39 5.86-11.59 1.81a28.2 28.2 0 0 1-3.11-3.77c-3.22-4.4-6.4-8.83-9.59-13.24-.42-.59-.88-1.16-1.26-1.78-1.85-3-1.95-5.07-.15-6.32 2.5-1.75 4.05.16 5.56 1.71 2.64 2.69 5.2 5.46 8.5 9-.1-2.11-.15-3.26-.22-4.4-.92-16.14-1.9-32.28-2.73-48.42a54 54 0 0 1 .47-9.24 13 13 0 0 1 1.7-5.08c.54-.87 2.05-1.16 3.12-1.7.49 1 1.45 2.1 1.41 3.12a470 470 0 0 0 1.5 59.33c.28 3.17.95 6.3 1.43 9.45zM200.1 532.35c6.76 30.7 4.44 62 5.49 93.9 4.29-2.41 4.49-7.76 9.16-9.32.08 1.33.39 2.26.13 3q-2.91 7.92-6 15.75a10.8 10.8 0 0 1-1.63 2.81c-2.1 2.59-4.54 3-7.09.84a19.21 19.21 0 0 1-5-5.69 154 154 0 0 1-6-14.56c-.45-1.2-.07-2.71-.07-4.48 4.27.82 4.79 4.26 6.35 6.63s2.93 5.26 4.38 7.91l1.14-.25c0-1.14.06-2.28 0-3.42q-2-37.8-4.06-75.61c-.2-4-.18-8 0-12a31.3 31.3 0 0 1 1.23-5.56zM287.93 489.38c3.8-2.91 3.12-7.82 7.47-9.73a13.08 13.08 0 0 1 .75 3.2c-.29 4.77-1.24 9.38-3.94 13.43-2 3-3.65 3.46-6.86 1.69-5.89-3.26-9.07-8.75-11.56-14.66-.41-1 .55-2.54.87-3.84 1.19.52 2.6.8 3.52 1.62a47 47 0 0 1 4.13 4.91c-.43-10.92-.72-20.85-1.24-30.76-.8-15.59-1.79-31.17-2.62-46.76a77.32 77.32 0 0 1 .12-10.87c.09-1 1.7-1.87 2.61-2.8.57 1 1.54 2 1.67 3.06 3.52 28.5 5.78 57.08 5.09 85.83-.04 1.61-.01 3.23-.01 5.68zM342.15 750.71a33 33 0 0 1-12.42-17.27c-.34-1.07.63-2.55 1-3.84 1.18.57 2.62.89 3.48 1.77 1.22 1.26 2 2.93 4 4.32 0-1.85.05-3.69 0-5.54-.28-14.35-.63-28.7-.8-43a62.07 62.07 0 0 1 .92-9.2 7.11 7.11 0 0 1 1.22-3.55c.83-1 2.26-1.43 3.43-2.12.61 1.15 1.75 2.3 1.75 3.46.07 10.9 0 21.81-.18 32.71-.17 8-.71 16-1.05 24-.07 1.79 0 3.59 0 6 4.19-1.83 6.11-5.11 8.33-8a39.59 39.59 0 0 1 2.45-3.58 2.55 2.55 0 0 1 2.36-.5 2.46 2.46 0 0 1 1.09 2.14 19.41 19.41 0 0 1-2.39 6c-2.41 3.38-5.25 6.45-7.89 9.67-1.58 1.82-3.16 3.87-5.3 6.53zM247.92 656.76c-.45-9.5-1.06-18-1.21-26.5-.17-9.24.07-18.49.19-27.74a11.48 11.48 0 0 1 .6-4.28c.49-1.16 1.7-2 2.6-3a27.82 27.82 0 0 1 2.26 3.18 5.59 5.59 0 0 1 .13 2.15q.91 25 1.83 50c.06 1.55 0 3.1 0 5.69 3.56-3 5.68-6.95 11.42-5.76-3.63 5.92-6.52 11.25-10 16.13-2.14 3-4.44 3-6.92.46a84.87 84.87 0 0 1-7.27-8.76c-.93-1.25-1.95-3.17-.1-4.28.84-.5 2.55.33 3.81.73.6.22 1.11.83 2.66 1.98zM277.06 316.77c.85-1.7 1.55-2.54 1.65-3.45a19.18 19.18 0 0 0-.18-4.34c-2.23-19.34.26-38.47 2.45-57.61a17.1 17.1 0 0 1 1-4.79c.42-1 1.6-1.67 2.44-2.48.61 1 1.73 1.93 1.73 2.88 0 4.36-.34 8.72-.63 13.07-.94 14.31-1.93 28.63-2.84 42.95a61.44 61.44 0 0 0 .39 6.47l8.72-10c.5 2.41 1 3.54.87 4.58a8.24 8.24 0 0 1-1.42 3.5c-3.58 5-7 10.2-11 14.81-3.35 3.81-6.83 2.86-8.67-1.93-1.76-4.58-3.24-9.26-4.68-13.95-.31-1 .1-2.28.2-3.82 4.07.7 4.61 3.91 6 6.24s2.39 4.73 3.97 7.87zM290.31 702.37c1.61.18 2.52.19 3.38.39 3.23.74 4.18 2.11 2.75 5a108.87 108.87 0 0 1-7.09 12.24c-2.11 3.13-4.89 3.26-7.17.25a131.49 131.49 0 0 1-8.61-13.25c-1.28-2.22.08-3.74 2.78-3.53.9.07 1.78.39 2.68.47s1.77 0 3.23 0c-.52-2.71-1.31-5.1-1.38-7.51-.2-7.62-.28-15.25-.06-22.86a12.23 12.23 0 0 1 2.2-6 5.06 5.06 0 0 1 3.92-1.92c.83 0 2.13 2 2.21 3.18.66 9 1.11 18.08 1.53 27.13.09 1.96-.22 3.93-.37 6.41zm-9 6.27l4.9 7.53 5.76-8.95zM394 613.23v-41.52c0-5.09.19-10.17.52-15.24.12-1.87.17-4.69 2.8-4.53 3.1.2 1.68 2.91 1.62 4.73-.49 16-1.06 31.93-1.43 47.9a100.12 100.12 0 0 0 .84 10.63l1.09.4 5.42-6.43c1.63-1.94 3.19-4 5-5.75.47-.48 2-.68 2.38-.32a4.41 4.41 0 0 1 .87 2.75 3.52 3.52 0 0 1-.88 1.95c-3.6 4.78-7.07 9.67-11 14.21-2.36 2.77-4.63 2.92-6.51.69-3.27-3.88-6.25-8-9.14-12.17-.56-.81-.67-2.73-.12-3.33 1.27-1.39 2.63-.3 3.68.8 1.4 1.42 2.7 2.88 4.86 5.23zM309.85 827v-4.06c-.47-13.78-1-27.56-1.39-41.34a34.64 34.64 0 0 1 .5-6.51 12.59 12.59 0 0 1 1.53-3.17c3 1.1 2.61 3.28 2.62 5.18.06 9.44.07 18.88.09 28.32a109.05 109.05 0 0 0 1 17.87 33.48 33.48 0 0 1 3.4-4.23c.81-.75 2.73-1.56 3.14-1.2.89.78 1.83 2.59 1.48 3.47a100.86 100.86 0 0 1-6.72 14.76c-2 3.29-5.94 3-8.15-.21a75.5 75.5 0 0 1-5-9.6c-.75-1.57-.92-3.52 1-4.17.93-.32 2.49.7 3.54 1.44s1.55 1.79 2.96 3.45zM40.19 403.92c3 1.89 2.14 3.55 1.56 5Q38 418.2 34 427.43a11.43 11.43 0 0 1-2.46 3.57c-2.53 2.43-6.28 2.35-7.92-.73-4.06-7.66-7.64-15.58-11.37-23.41a3 3 0 0 1-.28-2.11 5.61 5.61 0 0 1 2-2.8c.56-.31 2.16.38 2.67 1.09a69.88 69.88 0 0 1 4.29 6.91c2.31 4.06 4.53 8.16 7.14 12.87zM41.51 297.6a23.42 23.42 0 0 1-.58 4.93c-2.5 7.39-5.07 14.75-7.82 22-2.54 6.75-8.88 7.1-12.57 1.92-3.16-4.43-6.76-8.54-9.94-12.95-1.31-1.8-3-3.87-.52-7 6.49 2.8 10.5 8.88 16.17 13.29 6-6.83 8.54-15.57 13.56-22.74zM29.3 356.81c2.93-6.22 5.46-11.6 8-17a13.82 13.82 0 0 1 1.37-2.93 10.17 10.17 0 0 1 2.49-1.71c.51 1 1.49 2.06 1.42 3A25.53 25.53 0 0 1 41.2 344q-2.75 8.79-5.63 17.55c-1.91 5.77-5.63 6.82-10.19 2.86a43.31 43.31 0 0 1-11-14 14 14 0 0 1-1.43-4 2.06 2.06 0 0 1 3.2-2.12 23.53 23.53 0 0 1 4.14 3.47c2.81 2.75 5.56 5.58 9.01 9.05zM328.7 381.56c.76-8.6-2.78-17.46 2.85-25.25 2.84 1.46 1.88 3.43 1.81 5.13-.21 5.26-.54 10.52-.66 15.79a61.68 61.68 0 0 0 .69 6.88c4.48-4.53 5.93-10.14 10.36-13 2.2 1.51 1.09 2.82.56 4.08-2.19 5.17-4.46 10.3-6.6 15.49-1.8 4.36-4.66 5-7.7 1.45-2.72-3.17-5.3-6.46-7.82-9.78a2.58 2.58 0 0 1-.25-2.37 2.54 2.54 0 0 1 2.33-.61 31.69 31.69 0 0 1 4.43 2.19zM45.36 370.26c0 .94.33 2.06-.07 2.8A59.2 59.2 0 0 1 42 378q-4.2 6.31-8.35 12.67c-.69 1.06-1.19 2.27-2 3.25-2.51 3.12-6.11 3.66-8.28.49a161.2 161.2 0 0 1-9.7-16.89c-.87-1.68-.81-3.95 2.21-5.33 4.26 4.44 7.1 10.13 10.49 14.35l17.83-16.7zM71 813.29c1.77 7.56-1 14.39-1.33 21.33-.06 1.23-1 2.43-1.61 3.93-2.52-3.18-2.95-14.13-1.15-21.23.47-1.82.69-4.02 4.09-4.03zM64.6 780c.87 5.42 1.83 10.83 2.51 16.27.12 1-.94 2.09-1.46 3.15-1.05-.77-2.61-1.31-3.06-2.34-2-4.58-2.05-9.48-1.4-14.34.14-1.1 1.37-2.05 2.1-3.07zM71.25 872.78c-2.11-3.45-3.2-13.78-2.25-18.88.3-1.63.5-3.3 2.68-3.44 2.38 3.32 2.32 13.73-.43 22.32zM71.17 910.22c-3.35-4.76-3.57-14.51-.68-18.6.62.94 1.58 1.72 1.62 2.53a68.15 68.15 0 0 1-.94 16.07zM113.61 158.91c-2.7 4.52-8.16 4.18-11.18-.28-2.77-4.09-4.77-8.71-6.93-13.19-1-2.14-1.25-4.83 1.36-5.72 1.28-.43 3.43 1 4.86 2a6.63 6.63 0 0 1 .77.65 1.94 1.94 0 0 0 3.34-1.4v-.07c-.64-18.92-1.34-37.83-1.91-56.75a46.17 46.17 0 0 1 .69-8.93 8 8 0 0 1 1.16-2.69 2 2 0 0 1 2.89-.59c2 1.62 1.63 4 1.64 6q.12 19.42.12 38.87c0 7.76 0 15.53 1.31 23.92a1.05 1.05 0 0 0 1.93.38 10.86 10.86 0 0 1 2.22-2.62 2.74 2.74 0 0 1 4.33 1.12c2.38 6.64-6.6 19.3-6.6 19.3z"/></svg>