<svg id="Layer_1" data-name="Layer 1" xmlns="http://www.w3.org/2000/svg" viewBox="0 0 2153.89 1927.34"><title>down-arrows</title><path d="M251.37,1086.83c1.94-4.69,3.25-7.91,4.61-11.1,3.66-8.56,7.09-17.23,11.1-25.62,3.37-7.07,8.94-12.43,15.61-16.48,6.85-4.17,13.13-1.21,13.05,6.89-.07,6.82-.68,14.36-3.61,20.32q-17.85,36.27-37.46,71.66c-6.43,11.66-16.87,12.6-26.44,3.27a62.54,62.54,0,0,1-10.64-13.17c-11.62-20.19-23-40.52-34-61.06-2.93-5.47-4.67-11.77-5.91-17.9s1.42-10.92,5.8-12.46c5.34-1.88,8.94.87,11.94,4.85q12.63,16.76,25.22,33.53a11.73,11.73,0,0,0,5,4.24c-.41-4-.78-7.91-1.24-11.85-4.66-39.47-5-79.09-3.92-118.75.63-22.31,1.34-44.61,2.25-66.91,1.12-27.61,2.5-55.21,3.72-82.82.35-7.9,2.57-15.14,7.77-21.17,5.56-6.45,11.87-5.74,16,1.63a42.9,42.9,0,0,1,5.38,24c-2.88,46.85-6,93.69-8.7,140.55-.62,10.62-.19,21.32.09,32q1.47,55.93,3.19,111.88C250.22,1083.25,250.63,1084.11,251.37,1086.83Z"/><path d="M1695.35,1287.55c-6.15,5.65-12,10.52-17.24,16a62.06,62.06,0,0,0-14.28,24.92c-1.62,5.24-1.12,9.9,2.47,14,4.16,4.76,8.55,9.31,12.77,14,5.55,6.19,11.5,12.09,16.44,18.74,6.77,9.1,6.55,15.34-.33,24.58-4.16,5.59-9.14,10.57-13.61,16-4,4.85-8.33,9.59-11.72,14.88-4.39,6.86-3.69,9.44,2.63,14.32,3.68,2.84,7.62,5.37,11.45,8,10.86,7.55,19,17.57,26.2,28.51,5.22,8,5.54,16.36.58,24.51-3.81,6.24-8.39,12-12.28,18.2-7.24,11.53-14.93,22.87-21.11,35-5.3,10.37-3.73,12.29,5.94,18.44a116.7,116.7,0,0,1,16.6,12.67c9.06,8.39,11,18.65,6,30-2.8,6.4-5.69,12.77-8.56,19.14a41.63,41.63,0,0,0-2.2,29.24c4.25,15.2,5.26,30.75,5.32,46.49.15,44,.62,87.91,1,131.87,0,2.16.48,4.33,1,8.55,4.08-4.33,6.68-7.63,9.86-10.24,1.76-1.44,4.64-2.53,6.72-2.16,1.18.21,2.45,3.67,2.53,5.71.4,10.83-12.28,30.56-22.47,34.35-3.11,1.15-7.61,1.4-10.42,0-8.57-4.33-16.68-9.59-24.86-14.67-3.3-2-5.7-4.92-3.84-9.16,1.78-4,5.53-4.79,9.28-4.11,4.16.75,8.19,2.27,13.23,3.73,0-3.87,0-7.12,0-10.37-.11-13.66,0-27.32-.43-41-.53-16.62-1.63-33.22-2.3-49.84-.39-9.63-.82-19.29-.53-28.92.55-18.71.46-37.3-4.47-55.54-4.12-15.25-2-29.64,5.52-43.47,2.84-5.25,5.13-10.82,7.55-16.3,1.81-4.1,1.3-7.93-2.41-10.75-4.75-3.59-9.4-7.45-14.56-10.35-15.71-8.82-20.65-20-14.1-36.58,3.74-9.52,8.91-18.6,14.36-27.3,6.18-9.87,13.22-19.2,20.21-28.54,3.52-4.71,3.65-8.77.24-13.58-6.21-8.75-12.79-17.06-21.86-23.07-2.22-1.47-4.33-3.12-6.6-4.51-15.41-9.44-15.53-22.11-8.22-35.15,3.37-6,8.2-11.28,12.69-16.61s9.37-10.38,14.14-15.5c3.26-3.49,3.44-7.06.36-10.68-4.73-5.57-9.47-11.15-14.35-16.6-4-4.45-8.35-8.59-12.3-13.09-6.3-7.17-7.44-15.61-4.43-24.36,6.09-17.67,17.58-31.2,33.27-41.15C1689.2,1282.65,1690.15,1283,1695.35,1287.55Z"/><path d="M363.78,303c3.35,1,6.21,1.72,9,2.73,5.82,2.11,10.7,4.9,12,12,.64,3.43,3.1,6.58,5,9.7,4.08,6.75,3.86,13.2-.85,19.54-6.35,8.56-12.86,17-18.94,25.75-5.49,7.89-10.52,16.11-15.68,24.23-3,4.77-5.56,9.9-9,14.37-4.54,5.93-10.27,6.51-15.33,1.17-12.07-12.74-26-23.76-35-39.41-4.26-7.37-11.06-13.26-16.58-19.92-9-10.84-12.39-23.39-10.76-37.28,1.16-9.92,3.2-12.18,12.89-13.21,7.58-.81,15.23-.91,24-1.38,0-1.83.15-4.33,0-6.81-2.21-31.27-2.91-62.55-.09-93.81,1-11.26,2.42-22.52,4.26-33.67,1.81-10.92,5.67-13,16.72-10.4,24,5.7,23.66,6,40.66,24.86,5.27,5.85,6.75,11.42,6.09,18.79-2.74,30.49-5.15,61-7.65,91.52C364.2,295.34,364,299,363.78,303Zm4.87,14.49c-7.66,0-13.64-.08-19.62,0-9.3.16-11.87-1.61-13.86-10.56a37.48,37.48,0,0,1-.61-8.93c.25-10.32.68-20.63,1-30.94.95-29.3,2.68-58.53,7.77-87.46.33-1.86,0-3.84,0-6.63l-21.82-4.35c-1.25,15-2.91,28.53-3.4,42.13-1.05,29.27-1.46,58.57-2.19,87.86-.3,11.92-3.47,14.67-15.37,13.22-5.94-.72-11.64-.51-17.41,1.71,10.87,19.67,40.49,57.05,48.57,62ZM348,302.07c4.76,1.57,6.38.32,6.59-3.19q1.62-26.31,3.34-52.61c1.13-16.86,2.14-33.73,3.65-50.56.39-4.35-.45-6.75-5.34-8.15C349.47,225.76,349.05,263.79,348,302.07Zm31.87,27.58a23.42,23.42,0,0,0-2.36,2.54c-12.64,19.46-25.16,39-37.93,58.37-2.95,4.48-.13,7,2.08,11.19,1.94-3.21,3.26-5.44,4.62-7.64,5.74-9.26,11.15-18.75,17.34-27.7,5.27-7.63,11.51-14.58,17.18-21.94C384.38,339.8,385.41,335,379.85,329.65ZM280,340.29c5.2,5.78,10.56,11.43,15.57,17.36s9.35,12,14.19,17.87C321,389.11,321.06,389.07,327.59,391,310.66,373.7,301.47,351.76,280,340.29Z"/><path d="M1227.35,1346.87c2.54-8.1,1.09-13.62-2.81-19.31-6.58-9.6-12.55-19.65-18.32-29.77-3.65-6.4-3.18-10.52.27-12.49s7.91-.46,11.48,5.28c4.56,7.33,8.27,15.19,12.44,22.77,1.68,3.06,3.63,6,6.07,10,2-2.9,3.1-4.4,4.06-6,5.63-9.39,11.06-18.91,16.94-28.14,1.51-2.37,4.21-5,6.7-5.43a12,12,0,0,1,8.85,2.57c3.68,3.28,2.9,7.91.62,12-6.73,12-14.1,23.36-25.1,32-7.69,6.07-10,13-7.82,24.11l21.57-29.89,2,1.26c-5.86,18.37-22.9,31.87-24.13,52.43,10.15-7.42,14.89-19.65,26.62-26a46,46,0,0,1-2.51,6.42c-7,12.13-13.88,24.3-21.24,36.18a24,24,0,0,0-3.43,13.2q-.69,111.49-1.56,223c-.13,16.32-.9,32.64-1.32,49-.11,4.3,0,8.61,0,14.67,3.08-1.84,5.46-2.71,7.06-4.34,4.66-4.74,9.07-9.75,13.47-14.75,2.19-2.49,4-6,8-3.94,4.21,2.17,1.88,5.59,1,8.74q-10.63,39.56-21.09,79.14c-1.19,4.5-1.41,9.27-2.8,13.68-1.45,4.59-5.32,5.16-8.23,1.41a27,27,0,0,1-3.79-7q-16.54-43.92-32.89-87.93a28.94,28.94,0,0,1-2-9.71c0-1.92,1.51-4.83,3.09-5.47s4.56.72,5.76,2.17c3.58,4.36,6.51,9.25,9.85,13.83,3.9,5.35,8,10.58,12.45,16.54,3.25-4.42,1.95-8.48,1.65-12.1-4.68-55.88-3.15-111.91-3.54-167.88-.27-40.31.85-80.65,1.8-121,.17-7.06-1.52-11.92-7.36-16-4.88-3.41-9.08-7.82-13.49-11.88-1.71-1.58-3.71-3.18-4.58-5.2-.78-1.83-1.05-5,0-6.19s4.58-1.69,6.17-.86a36.7,36.7,0,0,1,8.49,6.79c3.26,3.27,6.16,6.9,9.76,11,3.24-5.39,2-9.21-1-13.3-5.74-7.76-11.31-15.66-16.59-23.74-2-3.14-4.61-6.9,0-10.9C1217.08,1329.67,1220.91,1338.55,1227.35,1346.87Zm8,403,2-.43c4.55-16.94,9.1-33.87,13.73-51.12l-13.91,4.27-3.43,7.55-16.08-8.3Z"/><path d="M672.85,536.27c-2.92-.48-4.85-.73-6.75-1.12-9.15-1.9-16-10.41-15.53-19.29.39-7.72,7.57-14.91,16.45-16.25,3.57-.53,7.21-.63,11.29-1-.63-2.55-1-4.8-1.76-7s-1.73-4.18-2.6-6.23c-6,.76-11.54,1.91-17.08,2-6.87.16-13.63-1.1-16.51-8.62-3-7.72-2.11-15.23,3.55-21.5a33.46,33.46,0,0,1,8.72-6.48c3.35-1.85,6.69-2,10.08,1,2.18,1.93,5.48,2.6,9.42,4.33,2.24-9.71.19-17-3.81-24.52-4,0-7.89.3-11.77,0-15.88-1.42-24.45-14.4-18.71-28,2.52-6,6.4-10.13,13.37-10.2,5.25,0,10.49,0,16.51,0,3.64-7.22,3.73-15.42,1.3-23.48-5.76-19.09-7-38.61-6.14-58.33a45,45,0,0,1,12.92-29.45c4.36.54,3.76,3.49,3.46,6.65-.62,6.61-1,13.24-1.34,19.87-.69,15.21,3.94,28.91,12.25,41.46,9.51,14.39,13.37,30.39,13,47.37-.09,4-2.24,8.27-4.25,12s-5,7-7.76,10.62c17.73,15,10.44,31.76,3.32,48.42,6.08,9.8,13,18.93,13.42,31S704.14,521.6,694.27,530c6.91,12.51,3.21,25-.39,37.62-2.2,7.67-4,15.46-5.75,23.26-.53,2.44-.08,5.1-.08,7.93,5.14.54,9.81.6,14.27,1.58,11.19,2.46,15,12.24,7.8,21.07-7.8,9.53-16.37,18.43-24.89,27.34-4.35,4.54-8.32,5.22-13.48,1.66-13.67-9.43-28.16-17.91-37.75-32.26-3.26-4.87-4.9-9.33-2.08-14.79,2.91-5.64,8-6.93,13.56-6.21,5.18.67,10.24,2.23,16.72,3.72C660.43,578.55,665,557.37,672.85,536.27Zm32.07,74.58c-6.76-2.4-12.09-.67-17.52.79-6.73,1.82-10.1-.57-10.64-7.53a28.17,28.17,0,0,1,.63-7.92c3.17-14.91,3.41-30.31,8.28-45,1.62-4.9,3.43-10.78.33-16.49-3.64,0-5.82.79-6.11,4.92a76.13,76.13,0,0,1-2.22,13.74c-3.66,14.25-6.21,28.61-5.55,43.41a62.71,62.71,0,0,1-.11,9c-.67,6.79-3.21,8.78-10,7.22-4.5-1-8.81-2.93-13.17-4.56-3-1.11-5.9-2.57-9.66,0,11.4,13.47,25.56,22.56,38.14,33.72,5.41-5.79,9.95-10.62,14.46-15.49S702.41,618.73,704.92,610.85ZM657,403.32a6.54,6.54,0,0,0-1.92.33c-3.92,2-9.71,2.17-9,8.76.63,6.06,5.47,7.93,10.27,9.42a14.44,14.44,0,0,0,6.82.34c4.88-.94,10.09-1.54,14.38-3.78,7.47-3.9,13.73-9.83,15-18.6,2.27-16-7.58-42.12-20.66-54.93,2.06,7.37,4.19,13.3,5.3,19.42,1.41,7.76,2.66,15.66,2.7,23.51a20.47,20.47,0,0,1-9.67,17.63C664.35,409.22,662,408.77,657,403.32Zm19.38,24.93c2.11,6.71,4.36,12.26,5.56,18,1.89,9-1.72,16.36-9,21.67-3.79,2.77-8.16,4.26-12.89-.4l5.69-6.14c-4.91-3.47-9.1-2.21-12.84,1.14-3.46,3.1-5,7-3.28,11.65,1.64,4.29,5.8,4.53,9.23,4.27,7.62-.58,15-2.12,21.18-7.43,13.61-11.78,16.31-31.64,6-47.58-2,.82-4.22,1.59-6.29,2.56A29.07,29.07,0,0,0,676.35,428.25Zm1.49,81.38c-6.67-5.11-6.67-5.11-13.74.24-7.66,5.78-6.93,12.08,1.81,15.83,10.33,4.43,24.36-.84,28.55-11.25,5.23-13,3.45-25.41-4.16-37.05-.28-.42-1.13-.47-2.44-1l-5.32,4.75c2.42,7.71,5.06,14.2,6.42,20.94,1.45,7.15-1.81,13.09-7.61,17.32-4.78,3.49-8.22,2.49-11.68-3.05Z"/><path d="M570.17,1035.23c-1.64-21.82-4.19-42.37-4.45-63-.27-20.24,1.37-40.54,2.94-60.75,1.26-16.25,3.65-32.42,5.54-48.62,1.14-9.78,2.59-12.66,12.79-12,8.9.59,17.92-.95,26.89-1.12,7.26-.13,9.72,1.87,10.54,9.06.93,8.25,1.36,16.59,1.5,24.9.8,45.62,1.43,91.24,2.15,136.85,0,1.63.31,3.26.59,6,3.35,0,6.58-.26,9.76,0,9.57.93,19.31,1.26,28.63,3.38s11.56,8.53,5,15.36c-23.58,24.56-36.26,55.59-51.9,84.88-.47.88-.92,1.78-1.43,2.64-4.93,8.27-10.35,9.3-17.92,3.23-18.21-14.59-35.5-30.08-50.12-48.47-8.27-10.4-17.94-19.7-26.27-30.07-8.48-10.54-7.22-13.76,5.12-18.77,7.9-3.21,16.06-4,24.48-3.68C559.26,1035.39,564.53,1035.23,570.17,1035.23Zm39.3,91.13c5.53-9.15,10.81-16.8,15-25,10-19.67,21.21-38.5,36.95-54.28,1.67-1.67,2.67-4,4.55-6.95l-40-2.48-3.9,9.21c-5-.22-5.42-3.3-5.71-6.34-1.36-14.23-3.76-28.47-3.76-42.7,0-42.29,1-84.58,1.51-126.87.06-4.21,0-8.41,0-13.73l-27.75,2.32c-.42,2.47-.83,4-.94,5.64q-2.34,31.38-4.6,62.76c-1.92,26.92-4,53.85-1,80.82,1.22,10.9,2.89,21.74,4.07,32.64a9.2,9.2,0,0,1-1.53,6.19c-.64.81-3.53.09-5.32-.32-1.55-.36-3-1.86-4.47-1.81-9.63.32-19.26.8-28.86,1.53-2.35.18-4.62,1.46-6.92,2.24C561.18,1075.06,584.84,1100.19,609.47,1126.36Z"/><path d="M886.51,1730.61c6.44-1.07,11.34-1.73,16.16-2.73a29.38,29.38,0,0,1,18.58,1.66c5.25,2.37,6.29,5.27,3.63,10.3a54.13,54.13,0,0,1-4.46,6.63c-14.87,20.11-28.63,40.9-38.67,63.93a24.37,24.37,0,0,1-2.4,4.37c-4.36,6.07-10,6.6-15,1.12-4.51-4.9-8.58-10.19-13-15.21q-21.66-24.83-43.38-49.6a25.81,25.81,0,0,1-4-5.67c-2.54-5.34-.84-9.46,5-10.39a179.73,179.73,0,0,1,22.84-1.86c5.59-.16,11.21.53,17.4.88a56.27,56.27,0,0,0,0-6c-4.82-42.5-5.18-85.09-2.56-127.74.34-5.62-.42-11.31-.24-17,.65-20.31,1.35-40.62,2.27-60.91,1.07-23.63,2.48-47.24,3.54-70.87a33.1,33.1,0,0,0-1.5-9.66c-1.11-4.19.21-6.82,4.5-6.81,10.65,0,21.33.05,32,.85,6,.45,8.42,4.09,8.28,10.46q-1.28,58.95-2.69,117.88c-.35,15.65-.39,31.32-1,47-1,26.62-2.47,53.23-3.68,79.84C887.52,1703.67,887.08,1716.25,886.51,1730.61ZM861.7,1443.38c-.39,2.62-.8,3.9-.73,5.16,2.76,48.73-2.29,97.23-4.3,145.82-.59,14.23-2.85,28.44-2.74,42.65.22,31,1.49,62,2.29,93,.1,3.81-.07,7.64-.12,11.41l-34.59,2.28,49.29,58,44.92-65.09c-5.19.81-8.69,1.28-12.16,1.9-2.95.53-5.84,1.59-8.79,1.77-6.85.42-13.91-4.86-14.3-11.1-.65-10.61-1.19-21.27-1-31.89.57-25.62,1.9-51.23,2.4-76.85.64-33.32.69-66.66,1.14-100,.33-24.92.89-49.83,1.37-75.53Z"/><path d="M367.74,1635.58c-6.32-18.75-6.31-18.74,6.88-35a33.16,33.16,0,0,0,2.83-4.1,26.06,26.06,0,0,0,1.34-3.83l-7.9-6.63c-9.67-8.12-10.51-18.48-2.24-27.88,10.61-12.06,10.5-12,3.76-26a82.29,82.29,0,0,1-5.16-14c-.36-1.31,1.14-4.1,2.41-4.59s4.1.69,4.8,2c4.51,8.14,8.86,16.4,12.79,24.84,2.59,5.57,0,10.47-3.83,14.52-2.74,2.88-6.08,5.18-8.93,8-5.79,5.69-5.61,10.76.54,16.09,2,1.73,4.38,3,6.53,4.6,7.7,5.64,8.48,9.7,2.92,17.55a68.75,68.75,0,0,1-7.4,8.08c-4.38,4.42-8.53,9.28-5.77,15.8,3,7.1,8.66,11.77,16.78,12.29a87.66,87.66,0,0,0,11-.31c19.95-1.17,39.89-2.41,59.84-3.59,2.33-.13,4.67-.2,7-.1,9.58.42,11.66,3.48,9.28,12.6a40.27,40.27,0,0,1-8.07,15.75c-27.46,33.57-53.18,68.35-72.29,107.57a51.84,51.84,0,0,1-6.29,10.15c-4.65,5.68-10.13,6.17-15.55,1.2a129.62,129.62,0,0,1-13.72-14.5c-7.69-9.62-15.11-19.48-22.31-29.48-18.9-26.25-39-51.55-61.24-75-1.37-1.45-2.56-3.11-4-4.42-6.28-5.53-6.08-12-3-19,3-6.85,8.54-10.08,15.68-10.5,3.61-.2,7.28.48,10.91.87q33.24,3.57,66.49,7.17A58.87,58.87,0,0,0,367.74,1635.58Zm-85.81,9.76c.09.68,0,1.13.2,1.32,4.77,4.6,9.66,9.07,14.33,13.77,28.33,28.43,53.13,59.72,75.21,93.2,2.66,4,5.68,7.83,9.21,12.67,3-5.86,5.41-10.21,7.53-14.69a293.4,293.4,0,0,1,36.64-58.25c10.23-12.72,20.81-25.17,31.18-37.78,2.16-2.63,5.57-4.79,4.43-9.46a62.7,62.7,0,0,0-7.15,0c-52.95,6.34-105.75,3.54-158.51-2.52C290.61,1643.13,285.79,1641.7,281.93,1645.34Z"/><path d="M1042.54,908.5c7-7.28,13.51-14.16,20.14-20.94a19.1,19.1,0,0,1,5.42-4.32c1.57-.71,4.14-.88,5.43,0a6,6,0,0,1,2.23,5c-2.87,14.5-3.63,29.47-11.66,42.75-4.95,8.21-8.17,17.46-12.17,26.24-6,13.24-14.61,16-27.37,9-8.34-4.57-15.39-10.42-20.38-18.65S993.32,931.48,989,922.88a136.68,136.68,0,0,1-9.25-25.14c-1.86-6.84.23-11,4.34-13s8.06-.5,12.58,5.3c2.65,3.41,4.93,7.12,7.44,10.65,1.86,2.62,3.83,5.16,7.05,9.48.37-4.27.63-6.39.73-8.53,1.27-27.59,2.47-55.19,3.78-82.78.69-14.63,1.33-29.26,2.44-43.86a50.31,50.31,0,0,1,3.43-14.44c2-5,7-7.61,11.11-6.73a9.73,9.73,0,0,1,8.17,9c1.19,10.24,2.82,20.5,2.93,30.77.38,34,.21,67.93.11,101.9C1043.87,899.7,1043,904,1042.54,908.5Z"/><path d="M1072.46,1657.88c0-13,0-24,0-34.89,0-20.33-.3-40.66.32-61,.58-19.29,2-38.57,3.44-57.82a106.46,106.46,0,0,1,3.6-18.55,20.25,20.25,0,0,1,4.21-7.82c4.1-4.75,9.31-4.11,12,1.52a23.85,23.85,0,0,1,2.32,9.59c.31,28.29.43,56.58.51,84.88,0,14.33-.13,28.66-.18,43q0,18,0,36c0,1.5,0,3,0,4.5l2.06.8c3.33-5.52,6.49-11.17,10.08-16.53,2.37-3.55,5-7.18,8.2-9.88,4.71-3.92,11.07-3.78,14.78-.61,3.48,3,4.63,8.3,1.43,13.79-5,8.61-10.79,16.8-16.49,25-6.44,9.3-13.22,18.35-19.71,27.62-7.3,10.43-17.55,12.88-26.06,3.61-12.3-13.41-22.8-28.47-33.9-43-1.35-1.76-1.9-4.28-2.35-6.54-.88-4.48-.44-8.88,3.83-11.55s8.45-1.73,12.11,1.19c4.68,3.73,9.09,7.81,13.65,11.71C1067.71,1654.17,1069.26,1655.33,1072.46,1657.88Z"/><path d="M1978.09,1737.41c-.48-7.57-1.31-13.85-1.18-20.11q.87-44.46,2.33-88.89c.13-3.78,1.82-7.65,3.41-11.2,2.08-4.67,5.63-6.65,11.2-6,9.52,1.15,19.14,1.45,27.62,2,5,8,9.4,14.6,13.33,21.47,1.77,3.09,3.64,6.69,3.72,10.1.61,27.62.84,55.26,1.11,82.89a82.24,82.24,0,0,1-.82,8.52c2.85,1,5.53,2.34,8.35,2.76,7.42,1.08,11.3,6.75,15.33,11.82,3.32,4.18,3.5,9.29-.15,13.86-6.64,8.32-13,16.86-20.07,24.85-5.92,6.72-12.54,12.85-19,19.12-5.77,5.63-9.29,5.74-15.47.31-15.47-13.58-30.8-27.31-46.28-40.88-3.5-3.06-7.27-5.84-11.06-8.54s-7-5.45-5.7-10.59c1.38-5.35,5.54-6.81,10.57-7.49C1962.58,1740.49,1969.71,1738.93,1978.09,1737.41Zm28,54.55c14.93-12.28,26.42-28,40.44-44.74-6.9-.4-11.39-.82-15.88-.85-3,0-5.94.74-8.92.8-7.09.15-8.62-1.63-8.3-8.76.37-8.31.83-16.62.87-24.93q.17-42.93,0-85.86a37.23,37.23,0,0,0-1-6h-26c2.6,41.72.54,82.7-2.84,123.21l-21.47,6.65ZM2024,1636v100.08h8.86c.45-4.75,1-9,1.23-13.2,1.33-24.6-.91-49.12-1.82-73.67C2032.09,1644.16,2030.54,1640.26,2024,1636Zm28.9,117c-13.3,15.52-26.62,31-40.4,47.14l7.46,5.37c7-7.34,13.92-14,20.17-21.33,5.6-6.53,10.43-13.72,15.65-20.57C2059.28,1759.06,2057.94,1755.78,2052.91,1753Z"/><path d="M238.25,562.43c5.43-4.52,10.15-8.53,15-12.43,3.2-2.6,6.79-4.92,10.83-2.15,4.21,2.89,2.63,6.81,1.28,10.76a55.51,55.51,0,0,1-13.51,21.82c-5.41,5.37-10.26,11.34-15.19,17.18-8.35,9.89-16.57,9.88-23.16-.94-6.73-11.06-12.63-22.63-18.88-34a13.06,13.06,0,0,1-.73-1.86c-1.63-4.51-3.16-9.42,1.44-12.77s7.92.71,11.2,3.46c2.22,1.86,4.48,3.68,8,6.58.47-7,1-12.5,1.17-18,1-37.26,1.78-74.53,2.81-111.79a90.64,90.64,0,0,1,1.89-15.83,27,27,0,0,1,3.92-9c1.91-2.95,5-4.46,8.66-3.15,3.3,1.17,4.2,3.76,4.27,7.09.16,7,.93,14,.92,20.94-.06,43.27-.27,86.53-.41,129.79A38.72,38.72,0,0,0,238.25,562.43Z"/><path d="M125.18,1307.24c3.77-5.7,6.47-9.7,9.09-13.75,1.45-2.24,2.43-4.89,4.24-6.74,1.42-1.46,3.79-2,5.75-2.93.89,2.23,3,4.74,2.48,6.64-4.34,17.88-10.15,35.27-21.12,50.32-7.86,10.78-17.79,9.48-22.38-3.12-5-13.73-9.12-27.8-13.31-41.81-1.32-4.42-2.6-10,2.95-12.26,6.06-2.44,7.62,3.5,10,7.34,1.2,2,2.28,4,4.53,8,.31-4.05.62-6.08.59-8.11q-.77-47.47-1.62-94.94a319.07,319.07,0,0,1,5.74-63.57c1.26-6.86,1.82-13.84,2.75-20.76.3-2.3.4-4.72,1.25-6.82.53-1.3,2.43-3,3.47-2.9,1.64.24,3.89,1.59,4.43,3a33.38,33.38,0,0,1,1.94,9.74c.68,11,1.63,22,1.5,32.92-.55,46.64-1.47,93.27-2.22,139.91C125.1,1293.22,125.18,1299.05,125.18,1307.24Z"/><path d="M920.74,1244.49c.62-26,1.33-50.91,1.78-75.84.51-28,.67-55.94,1.19-83.91q.7-38.43,2-76.83c.06-1.86,1.64-4.76,3.11-5.21,1.7-.52,4.7.59,6,2a14.67,14.67,0,0,1,3.06,7.2,70.73,70.73,0,0,1,1.14,13.91c-.91,25.63-2.13,51.25-3.1,76.88-.28,7.31.12,14.65-.12,22-.57,17.3-1.18,34.6-2.06,51.89-1.15,22.26-2.58,44.5-3.93,67.45,3.36,1.74,7.62,3.55,11.46,6,8.47,5.44,8.63,9,7.47,19.14-2.56,22.34-12.61,41.95-20.93,62.22-1.46,3.56-2.44,8.3-7.38,8.49-5.52.21-6.89-4.71-8.29-8.67-4.91-13.79-9.5-27.7-14.23-41.56-2.15-6.3-4.4-12.57-6.5-18.88-3-9.08-.5-15.46,8.15-19.76a67.4,67.4,0,0,1,10.28-3.64C912.92,1246.4,916.14,1245.68,920.74,1244.49Zm16.09,31.43H906.17c2.4,8.2,4.68,16,7,23.85,2.22,7.63,2.6,15.86,7.61,25C926.89,1307.42,933.81,1292.58,936.83,1275.92Zm.82-13.27,1.08-2.72c-3.74-1.58-7.37-4-11.25-4.5-4.33-.57-8.9.47-13.34,1-2.62.33-5.18,1.07-7.77,1.63C916.73,1263.86,927.05,1264.77,937.65,1262.65Z"/><path d="M537.87,1893.8l7.57-17.84c4.2,1.75,3.18,5.24,2.33,7.72-3.68,10.69-7.26,21.47-11.9,31.75-3.49,7.72-8.41,7.94-13.56,1.24-5.68-7.39-10.86-15.16-16.14-22.84-.44-.64-.06-1.85-.06-3.43,8.54-1.61,9.53,8.14,16.75,10.43-.56-7.38-.66-14.19-1.65-20.88-5.2-35.24-10.86-70.42-15.84-105.7a158.63,158.63,0,0,1-1.06-28.83c.37-8.61,3.77-12.28,12.32-12.89a175.87,175.87,0,0,1,28.84.57c5.93.54,7.26,4.88,5.76,12.32-3.14,15.66-7,31.26-8.75,47.09-2.75,25.47-4,51.11-5.87,76.68-.46,6.31-.87,12.63-1.14,19a30.47,30.47,0,0,0,.67,5.33Z"/><path d="M1834.71,1745.39c2.45-7.14.92-11.35-2.31-15.7-5.56-7.48-10.55-15.38-15.69-23.16a14.93,14.93,0,0,1-2.53-5.35c-.23-1.36.43-3.6,1.45-4.26a4.81,4.81,0,0,1,4.47.46A32.36,32.36,0,0,1,1826,1704c2.94,4.39,5.53,9,9.08,14.86,2.19-7.46,2.17-12.74-2.39-18.22A97.34,97.34,0,0,1,1822,1684c-2.22-4.18-1.71-4.45,1.66-10.34,8.85,5.67,10.22,16.9,17.17,23.45,8.52-9.65,16.8-19.07,25.18-28.38.39-.43,1.79.06,3.5.17-.64,8.16-7.34,12.36-10.82,18.31s-7.44,11.49-11.19,17.22l1.49,1.24c4.06-4.08,8-8.31,12.21-12.21,3.93-3.62,7.28-8.46,15.48-9-10.82,16.47-27.4,27.46-29.81,46.72l2,1.64c4.25-4.78,8.35-9.7,12.79-14.31s7-11.36,15.42-13c-.43,2.53-.16,4.68-1.1,5.92-8.77,11.73-17.76,23.29-26.65,34.93-1.16,1.51-2.86,3.15-3,4.82-1.23,17.54-2.19,35.11-3.3,53.74,3.78-.23,6.27-.3,8.75-.54,5.27-.52,7,.79,6.13,5.82-1.07,6.22-2.86,12.32-4.24,18.5-2.53,11.41-5.62,22.63-11.59,32.8-1.11,1.89-2.68,3.5-4.94,6.39-3-4.78-6-8.32-7.58-12.43-3.71-10-7.63-20-9.79-30.42-3.67-17.65-1.11-19.87,14.82-21.73.33-14.31.88-28.84.8-43.36,0-2.58-2.42-5.35-4.19-7.69-5.41-7.19-11.12-14.15-16.56-21.31-2.17-2.86-5.38-6.59-1.4-9.55,4.18-3.09,6.6,1.56,8.58,4.32C1826.05,1731.61,1829.81,1737.83,1834.71,1745.39Z"/><path d="M66.85,925.53c1.57,10.63-2.29,19.75-9.34,27a13.34,13.34,0,0,0-4.16,10.4q-.49,80-1.06,159.91c-.06,8-.89,16-1.38,23.93-.22,3.55-.49,7.1-.72,10.48,15,3.7,14.91,3.67,10.8,18.82-1.83,6.74-3.13,13.63-4.77,20.43a61.59,61.59,0,0,1-2.76,9.59c-2.78,6.61-7.63,7.18-12,1.62-.62-.78-1-1.7-1.59-2.54-4.56-7-8.72-14.24-13.79-20.82-4.47-5.81-4.26-12.49-4.8-18.95-.42-4.94,4.3-8,10.63-7.91,7.64.06,7.86,0,7.78-7.31-.25-22-.8-44-1-65.93-.08-9.64.42-19.3.7-28.94.27-9.33.48-18.66.91-28,1.09-23.27,2.38-46.53,3.32-69.8.1-2.65-1.13-5.55-2.37-8-2.67-5.31-6.34-10.18-8.49-15.67s.26-8.18,6.07-8.27C47.75,925.43,56.68,925.53,66.85,925.53ZM54.06,1170c-10.8-2.92-15-2.81-25,.88l18.08,26.63C49.77,1187.17,51.84,1178.91,54.06,1170Z"/><path d="M1060.76,1358.47c0-9.46-.12-16.72,0-24q1.58-79.45,3.25-158.91c.32-14.65.75-29.32,1.66-43.94.3-4.88-1.6-13,5.31-13.26,7.58-.34,5.25,7.92,5.76,12.63,3.29,30.94,1,61.92,0,92.88q-2,63-4.08,125.89a24.22,24.22,0,0,0,.8,4c2.34-3.8,3.82-6.66,5.74-9.19a112.62,112.62,0,0,1,10.78-13c1.46-1.42,4.73-1,7.18-1.36.34,2.41,1.44,5,.86,7.18a59.28,59.28,0,0,1-4.9,12c-4.31,8.27-8.71,16.5-13.5,24.5-4,6.6-7.86,7.53-14.05,3.7-11.51-7.12-21.31-16-27.68-28.19-1-1.79-.72-4.2-1-6.32,2.43,0,5.2-.71,7.21.22,2.6,1.21,4.65,3.68,6.84,5.71C1053.8,1351.69,1056.58,1354.45,1060.76,1358.47Z"/><path d="M106.33,0c1.61,59.81,3.79,118.53,4.58,177.28.79,58.51.18,117,.18,177.34,4.93-3.55,8.14-6.45,11.86-8.31,2-1,5.69-1.16,7.06.06s1.53,5,.63,7c-4.32,9.34-9,18.52-13.88,27.6-5.09,9.51-12.63,10.05-18.1.85-5.25-8.84-9.52-18.28-14-27.56-1.48-3.07-2.24-6.69,1.35-8.94s6.4-.14,8.85,2.32c2,2,3.83,4.25,6.87,7.67.27-3.1.53-4.6.53-6.09,0-83.61.11-167.21-.18-250.81-.07-19-1.82-37.93-2.34-56.9-.29-10.29.23-20.62.68-30.91C100.6,6.74,101.35,2.83,106.33,0Z"/><path d="M1426.56,1512.46a19.9,19.9,0,0,0,.6-3.53c-.16-36.31-.42-72.62-.47-108.92a55.4,55.4,0,0,1,1.71-13.81c1.36-5.29,5.81-8.59,9.91-8.46s8.43,3.74,9.61,8.92a51.87,51.87,0,0,1,1,11.89c-.21,34-.54,67.89-.85,103.06,2.63-2.16,4.73-4.5,7.34-5.81a7.89,7.89,0,0,1,6.21-.13c1,.46,1,3.46.93,5.3,0,1.22-1,2.43-1.62,3.6-5.93,11.18-11.9,22.33-17.79,33.53-1.77,3.38-3.89,7.14-8,6.15-2.73-.67-5.51-3.5-7.11-6.09a206,206,0,0,1-11.43-21c-2.67-5.69-4.45-11.8-6.51-17.77-.88-2.56-1.75-5.71,1.82-6.66s3.95,2.53,5.08,4.86c2.52,5.18,5.2,10.29,7.82,15.42Z"/><path d="M20.38,1464.59c0-4,.05-6.94,0-9.87q-1.08-50.94-2.19-101.87c-.09-4.35-.07-8.49-3.92-11.82-1.23-1.07-1.42-4.38-.76-6.18.39-1.07,3.41-1.81,5.16-1.65,7.28.63,14.55,1.58,21.8,2.59,4.87.67,7.85,3.68,8.45,8.51a117.73,117.73,0,0,1,1.16,15.89c-.39,30.63-1,61.25-1.5,91.87,0,2,0,4,0,6.24,4,1.41,7.87,2.36,11.36,4.07,6.24,3.05,7.16,7.13,3.62,12.94-7.79,12.76-15.5,25.58-23.25,38.36a45.05,45.05,0,0,1-4.31,6.7c-3.44,3.88-7.78,3.72-11.1-.24a22,22,0,0,1-2.5-4.29q-10.17-20-20.31-40a20.53,20.53,0,0,1-1.67-3.6c-1.32-4.81.62-7.76,5.66-8.32a44,44,0,0,1,7,.22C15,1464.22,17,1464.37,20.38,1464.59Zm31.86,7.83c-9.1-1.42-14.73-4.79-10.53-14.46.32-.73-.53-1.9-.58-2.88-1.07-18.93-2.4-37.85-3.05-56.79-.49-14.64-.07-29.3-.17-44a65.39,65.39,0,0,0-1-7.78H26.42V1473l-12.06.58c5.47,11.14,10.48,21.34,15.92,32.44Z"/><path d="M432.08,1476.31c0-4.84.25-8.44,0-12-3.91-47.35-.49-94.57,2.36-141.81.16-2.63.43-5.48,1.58-7.75,1.06-2.07,3.4-3.47,5.17-5.17,1.29,1.74,3.32,3.32,3.74,5.25a151.32,151.32,0,0,1,3.23,19.69c.76,9.29,1.28,18.65,1.11,28-.7,37.32-1.72,74.63-2.6,111.94,0,1,.17,1.91.44,4.72,4.83-5.09,8.81-9.28,12.77-13.48,1.6-1.7,2.9-3.87,4.82-5,1.42-.83,4.21-1.06,5.31-.19s1.53,3.66,1,5.21c-.9,2.81-2.66,5.34-4.14,7.94-4,6.94-7.76,14-12.09,20.71a19.83,19.83,0,0,1-7.1,6.52c-8.14,4.3-9,4.15-15.23-2.92-7.93-9-15.57-18.18-23.2-27.4-1.9-2.29-4.19-5.56-.88-7.74,1.84-1.21,6-.85,8,.48C421.51,1466.79,426.06,1471.22,432.08,1476.31Z"/><path d="M386,782.21c7.15-7.73,9.09-18.05,15.2-25.93l2.49.6c0,2.34.5,4.8-.08,7-3.09,11.56-6.38,23.07-9.73,34.55-1.82,6.21-8.17,9.6-13.24,6.06-9.38-6.54-17.18-14.76-20-26.45-.28-1.14.41-2.5.79-4.46,8.59,2.53,9.33,13.1,16.72,15.39,0-18.36.13-36.76,0-55.16-.26-30.31.23-60.53,3.65-90.76,1.67-14.75-.37-29.91-.33-44.88.07-25.28.31-50.57.86-75.85.11-5.24,1.69-10.49,2.95-15.65a12.83,12.83,0,0,1,3.21-6,5.8,5.8,0,0,1,5.23-1c1.28.63,2.64,3.36,2.29,4.74-8.68,33.88-3.2,68.29-3.39,102.39-.29,53.63-1.38,107.17-5.86,160.62C386.32,772.28,386.24,777.25,386,782.21Z"/><path d="M157.3,972.08c.22-3.56.88-6.37.47-9-8.68-55.53-7.83-111.54-7.84-167.45,0-34.62,1.78-69.24,2.9-103.86a143,143,0,0,1,1.71-16.88c.54-3.56,1.75-7.06,7.69-7.89-.95,47.68-2.65,94.71-2.63,141.74,0,46.86.24,93.76,3.24,142.52,7.86-8,7.09-20.76,19.61-24.85-.47,3.78-.37,6-1,8-4.35,12.57-8.83,25.1-13.35,37.62a37.71,37.71,0,0,1-3.65,8.16c-2.92,4.36-7.63,5.52-11.05,1.77-6.88-7.56-12.87-15.92-19.15-24-.22-.28.36-1.18.89-2.72C145.17,956.48,147.62,968,157.3,972.08Z"/><path d="M40,501.31C34.51,445.83,31.75,390.83,42.05,336c.27-1.48,1.14-2.85,2.49-6.09,1.81,3.16,3.51,4.81,3.63,6.57.33,5.31.19,10.66,0,16-1.18,31.3-3.15,62.6.18,93.9,1.86,17.51,3.59,35,7.15,52.9,1.34-2,2.81-4,4-6.15,2.92-5.24,5.56-10.63,8.6-15.79,1.68-2.84,2.27-8.25,7.34-6,4.11,1.83,1.62,5.9.87,8.93a76.11,76.11,0,0,1-3.25,9.43q-7.35,19.11-14.77,38.18c-1.87,4.84-4.16,9.31-10.18,9.6-5.54.28-8.59-3.46-10.56-7.82C32.07,517.48,26.93,505.22,21.68,493a10.08,10.08,0,0,1-.85-2.87c-.4-3.83-2.55-8.91,2-10.76,5.1-2.07,6.12,3.86,8.16,6.85C34.28,491.05,37,496.26,40,501.31Z"/><path d="M76.72,1881.57c-3.2-54.56-.21-109,3.54-163.34,0-.74,1.19-1.41,2-2.36,4.63,1.25,3.65,5,3.67,8q.12,26.49.08,53-.09,47.47-.27,94.95c0,1.93.21,3.85.4,7.2,2.5-2.19,4.33-3.39,5.63-5,10.39-13,20.66-26.12,31-39.16,1.92-2.42,4-4.68,6.11-7,5,3.78,2.74,6.88,1.1,9.54-7.33,11.88-14.45,23.94-22.45,35.37-6.29,9-13.58,17.29-20.77,25.6-6.68,7.74-12,7.25-17.2-1.58-4.2-7.18-7.7-14.76-11.63-22.1-8.66-16.14-17.43-32.21-26.06-48.36-1.58-3-5.15-5.75-1.7-9.92,4.58-.63,6.41,3.07,8.23,5.93q12.92,20.19,25.33,40.68c3.76,6.23,6.95,12.79,10.4,19.2Z"/><path d="M193.37,1469.6c.77,2.1,1.44,3,1.35,3.81-4,39.57-3,79.21-.43,118.75,3,47.17,7.47,94.25,11.18,141.38,1.6,20.24,2.92,40.51,4.36,60.77.16,2.3.31,4.6.51,7.49,6-2.07,6.51-8.29,10.83-13.18,1.3,2.78,3.3,5.14,2.76,6.2a271.13,271.13,0,0,1-14,25c-1.92,3-6.5,2.94-8.89.08-8.86-10.63-16.84-21.88-21.67-35.13,9.19,3.12,12.29,12.94,21.69,18.62-.5-10.16-.61-19-1.42-27.73-6.12-66-12.48-132-14.1-198.24-.74-30.26.69-60.58,1.31-90.87a45.42,45.42,0,0,1,2.05-11.76C189.42,1473.08,191.46,1471.76,193.37,1469.6Z"/><path d="M258.45,1392.27c0-1.55,0-3.1,0-4.64q.89-57,1.82-113.92c.06-3.57-.23-8.42,4.81-8.35,4.79.07,4.88,4.91,5,8.45.49,14.65.9,29.31,1,44,.15,25.31.05,50.63.05,76.55,5.8-2.27,9.15-7.54,13-12.16,2.12-2.55,3.62-5.67,5.95-8,1.07-1.06,3.66-1.37,5.22-.89,1.06.32,1.88,2.52,2.17,4a7.54,7.54,0,0,1-.83,3.85c-4.87,12.12-10.5,23.79-20.17,33-6.62,6.3-10.67,6.68-18.75,2.1-12.82-7.25-20.13-19.15-26.71-31.61-1.77-3.35-2.2-7.38,1.4-10,4.15-3,7.62-.65,10.45,2.53,4.61,5.21,9,10.57,13.56,15.87Z"/><path d="M796.69,1342.3c-1.63-24.93-3.44-48.11-4.54-71.33-.64-13.29-.4-26.64.06-39.94.14-4.13,1.86-8.39,3.71-12.17.69-1.4,3.84-2.18,5.82-2.09.83,0,2.22,3.13,2.15,4.78a834.19,834.19,0,0,0,2.5,106.76c.56,6.52,1.69,13,2.87,21.83,2.64-3.54,4.08-5.07,5.06-6.85,2.42-4.37,4.45-9,7-13.25a46.06,46.06,0,0,1,7-9.63c1.51-1.47,4.47-1.45,6.78-2.11.11,2.15.9,4.55.2,6.4-2.1,5.59-4.91,10.92-7.2,16.45-2.94,7.07-5.54,14.28-8.48,21.35-5.63,13.53-15.84,15.26-25,3.75-8.08-10.15-15.38-20.92-23-31.46a21.48,21.48,0,0,1-2.34-4.39c-1.29-3.18-.75-6.44,2.37-7.68,2-.77,5,0,7.13,1.06s3.42,3.11,5,4.8C787.74,1332.68,791.58,1336.82,796.69,1342.3Z"/><path d="M1521,1885.68l20,5.09c-4.88,6.42-9.44,12.24-13.8,18.2s-8.35,11.91-12.88,18.37c-10.94-7.49-20.08-15.81-26.6-26.77a22.29,22.29,0,0,1-2.52-5.4c-1.38-5.2,1.27-8.19,6.73-8,3.78.11,7.56,0,12.29,0-.62-6.21-1.62-11.1-1.51-16,.52-23.9,1.29-47.81,2.13-71.71a22.64,22.64,0,0,1,1.92-8.7c.84-1.77,3.26-3.91,4.91-3.86s4,2.51,4.43,4.27a84.29,84.29,0,0,1,1.33,13.86c1,25.24,1.95,50.48,2.94,75.72C1520.4,1882.36,1520.73,1883.94,1521,1885.68Z"/><path d="M377.49,1149.63c5.38-7,9.6-12.45,15.13-19.64.79,3.82,1.7,5.46,1.28,6.62-3.65,10-7.06,20.12-11.46,29.78-5.05,11.08-11.35,11.77-19.74,2.77-9.43-10.11-13-23-16.45-35.89-.43-1.59.65-3.59,1.4-7.13,10.16,7.76,12.05,19.79,21,29.71-.28-6.24-.43-10.06-.62-13.89q-2.82-55.85-5.65-111.69c-.66-13.29-1.46-26.58-1.79-39.88-.12-4.76-.1-9.89,4.7-14.95,1.35,2.74,2.75,4.45,3,6.33a678.79,678.79,0,0,1,7.65,119.42c-.34,14,.42,28,.73,41.94C376.7,1144.68,377.05,1146.23,377.49,1149.63Z"/><path d="M527.69,897.91c6.95-5.33,5.72-14.32,13-17.57,4,3.77,2,8.07,1.24,11.48a82.43,82.43,0,0,1-6.57,18.64c-3,5.91-6.55,6.43-12.41,3.19-10.8-5.95-16.64-16-21.2-26.86-.76-1.81,1-4.67,1.56-7,2.19,1,4.78,1.44,6.46,3,2.57,2.3,4.52,5.3,7.59,9-.79-20-1.33-38.22-2.27-56.38-1.49-28.92-3.33-57.82-4.86-86.73a124.57,124.57,0,0,1,.26-18.93c.19-1.87,3.1-3.47,4.76-5.19,1.07,1.86,2.86,3.63,3.1,5.59,6.44,52.26,10.58,104.66,9.32,157.37C527.62,890.43,527.69,893.39,527.69,897.91Z"/><path d="M1432.66,1627.92c.7,2.36,1.91,4.71,2,7.09.54,13,1.32,25.94,1.09,38.9-.58,31.64-1.75,63.27-2.49,94.91-.18,7.47.4,15,.63,22.45l2,.5c2.38-3.84,4.74-7.69,7.15-11.5,1.24-2,2.25-4.26,4-5.7,1.25-1,4-1.81,5.11-1.13s2,3.63,1.51,5a239.8,239.8,0,0,1-9.91,24c-2.94,5.88-7.12,11.15-11.19,17.38-2.79-1.5-6-2.27-7.72-4.34-6-7.47-11.71-15.25-17.08-23.22-.92-1.36.31-4.16.54-6.3,2.34.44,5.42.1,6.87,1.48,3.48,3.33,6.2,7.47,9.23,11.27l2-.77c-1.19-18.69-3-37.37-3.37-56.08-.36-19.3.68-38.63,1.24-57.94.55-18.71,1-37.45,4.62-55.8Z"/><path d="M1307.13,728.07c4.79-6.5,8.49-12.07,12.82-17.09,1.38-1.6,4.41-1.78,6.68-2.61.47,2.42,1.51,4.91,1.24,7.24-.25,2.18-1.9,4.2-2.91,6.3-4.93,10.18-9.83,20.38-14.8,30.54a37.7,37.7,0,0,1-3.85,7c-3.77,4.78-9.17,5.56-12.75.79-8.18-10.89-15.71-22.3-23.08-33.77-1-1.6.35-4.75.62-7.18,2.46.29,5.5-.23,7.27,1,5.35,3.84,10.2,8.37,15.14,12.54a56.91,56.91,0,0,0,.67-6.06c.48-23.32.87-46.64,1.37-69.95.07-3.66-.08-7.5,1-10.87.64-1.94,3.48-4,5.58-4.32,1.53-.23,4.18,2,5,3.74a17.44,17.44,0,0,1,1.27,7.78c-.17,13-.43,26-.89,38.93-.34,10-1.07,20-1.5,29.94C1306,723.67,1306.64,725.35,1307.13,728.07Z"/><path d="M631.93,1354.63c4.36-5,8.67-9.84,12.81-14.82,1.48-1.77,2.25-4.2,3.87-5.79,1.22-1.19,3.27-1.54,5-2.26.66,2,2.35,4.34,1.79,5.89a60.18,60.18,0,0,1-6.49,13.41c-3,4.38-6.76,8.21-10.34,12.14-3.85,4.23-10.43,6.39-8,16.32-14.41-10.26-22.28-21.24-26.32-34.87-.53-1.8,1.66-4.41,2.6-6.64,1.89,1.06,4.23,1.73,5.58,3.26,2.25,2.57,3.86,5.7,7,10.54,0-10.51.07-18.34,0-26.17-.26-23-.69-46-.8-69a70.76,70.76,0,0,1,1.75-13.85,15.79,15.79,0,0,1,3.07-7.21,7.82,7.82,0,0,1,6-2.1c1,.11,2.13,2.92,2.62,4.67.43,1.54.07,3.31,0,5q-1.15,49.47-2.31,98.92c-.08,3.33,0,6.66.17,10C629.9,1352.55,630.61,1353,631.93,1354.63Z"/><path d="M1491,984.42c-8.87-8.44-16.58-15.73-24.23-23.08-2.22-2.13-4.43-4.61-2.11-7.77,2.52-3.45,5.91-2.35,9-.69s6.07,3.72,10.29,6.35c0-5.65,0-10.13,0-14.6,0-36-.16-71.89-.1-107.84a46.47,46.47,0,0,1,1.6-11.79c.38-1.43,2.83-3.29,4.22-3.19s3.32,2.21,3.73,3.78a38.1,38.1,0,0,1,1,9.89c-.24,17.3-.67,34.61-1,51.91q-.62,32-1.15,63.91c0,1.9.26,3.81.56,7.89,5.79-5.83,9.36-11.27,13.62-16.05,2.23-2.51,4-7.76,8.32-4.68,3.89,2.8.29,6.69-1.33,9.75-5,9.4-10,18.76-15.27,28C1496.59,978.93,1494,981.09,1491,984.42Z"/><path d="M1195.32,1868.46c-2.12-2-4.58-4.06-6.78-6.39-4.11-4.34-7.84-9.08-12.16-13.2-5.91-5.64-9.27-11.8-8-20.36.53-3.44-1.11-7.16-1.31-10.77-.23-3.92-.84-8.17.32-11.75,2.52-7.76,8.54-9.1,14.69-3.81,2.26,1.94,4.09,4.37,6.24,6.45,2.33,2.24,4.8,4.33,6.41,5.78,7.51-5.86,13.93-11.46,20.94-16.18,6-4,8.74-2.67,9,4.21.4,9.27,0,18.58-.29,27.86a10,10,0,0,1-2.29,5.37C1213.48,1846.44,1204.66,1857.09,1195.32,1868.46Zm16.86-53.49c-7.17,4.91-8.3,15.06-17,17.69l-16.18-14c-2.46,15.16,6,22.56,16.54,29.63,5-5.61,9.36-11.49,14.7-16.31C1216.24,1826.66,1215.27,1821.42,1212.18,1815Z"/><path d="M642.31,1679.09c.37-4.63.87-8.15.9-11.67.25-34.94.67-69.88.55-104.82-.08-23.29-1-46.57-1.43-69.86-.08-3.65-.45-7.4.21-10.93.34-1.76,2.73-3.12,4.19-4.66,1.18,1.62,3.22,3.16,3.38,4.89.87,9.26,1.85,18.58,1.74,27.87-.53,44.25-1.42,88.49-2.14,132.74-.1,5.92,0,11.84,0,19.24a71.09,71.09,0,0,1,6.58-5c1-.58,3.11-.85,3.54-.32a6.67,6.67,0,0,1,1.17,4.25c-.07,1.22-1.11,2.37-1.66,3.58-4.1,9-8.18,18-13,28.58a7.68,7.68,0,0,1-8.76-3.15c-4.64-6.48-8.73-13.34-12.93-20.12-.42-.69-.06-1.86-.06-3.63C632.7,1667.09,634.31,1675.91,642.31,1679.09Z"/><path d="M1560.8,1528.6c0-12.89-.22-25.78,0-38.66q.67-33.39,1.88-66.78a35.32,35.32,0,0,1,2.19-11.69c.73-1.85,3.78-2.79,5.79-4.13,1.16,1.78,2.74,3.42,3.37,5.37s.26,4,.14,6q-2.55,44.77-5.18,89.56c-.29,4.94-.73,9.87-1.21,16.26,9.7-6.29,13.88-17.34,26.14-21-.86,3.59-.85,5.89-1.9,7.5q-10.87,16.68-22.17,33.11c-4,5.84-8.36,6.31-12.87.87a141.52,141.52,0,0,1-11.32-16.28c-1.79-2.93-2.3-6.69,1.51-8.68,3.64-1.9,5.27,1.26,7,3.75,1.28,1.86,2.7,3.62,4.06,5.43Z"/><path d="M1042.32,1889.05c7-8.6,14-17.21,20.93-25.75,4.8,2.29,3.73,5.36,2.27,7.89-6.13,10.65-12.46,21.19-18.79,31.73-2.62,4.35-6.47,5.53-11.15,3.7-12.66-4.94-20.23-14.79-25-26.94-.75-1.89.9-4.73,1.45-7.13,2.2.9,5,1.21,6.5,2.79,4,4.34,7.4,9.22,11.26,14.17,3.91-3.25,2.45-6.79,2.44-9.77-.1-29.6-.41-59.21-.55-88.82a56.12,56.12,0,0,1,1-11.87,5.52,5.52,0,0,1,4.07-3.39c1.48-.05,3.79,1.64,4.36,3.11,1,2.71,1.2,5.8,1.52,8.76,3.11,29.62.14,59.15-1.36,88.7-.2,4-.45,7.93-.68,11.9Z"/><path d="M454.33,1204.76c-.83-17.41-1.95-33-2.23-48.58-.3-16.94.14-33.9.36-50.86,0-2.64.09-5.49,1.09-7.84.91-2.12,3.13-3.69,4.77-5.5a49.64,49.64,0,0,1,4.14,5.82c.56,1.06.19,2.61.24,3.94q1.69,45.85,3.36,91.72c.11,2.85,0,5.7,0,10.39,6.56-5.42,10.38-12.76,20.91-10.47-6.63,10.81-11.93,20.58-18.36,29.52-3.93,5.47-8.14,5.46-12.68.86a152.24,152.24,0,0,1-13.32-16.07c-1.72-2.29-3.6-5.8-.2-7.84,1.52-.92,4.66.61,7,1.35C450.55,1201.56,451.47,1202.64,454.33,1204.76Z"/><path d="M197.3,285.38l16.31,21.7c3.86-3.41,2.74-7.2,2.38-10.61q-1.53-14.88-3.53-29.72c-3.77-27.5-2.74-55.11-2.27-82.72.34-20.3.44-40.59.81-60.88a55.38,55.38,0,0,1,1.5-12.8c.43-1.68,3.11-2.77,4.77-4.13,1,1.77,3,3.54,3,5.3-.18,25.61-.79,51.22-1,76.84q-.37,49.39-.2,98.8c0,3.81-1.28,8.63,4.67,10.32,1,.28,2,3.76,1.57,5.38a89.48,89.48,0,0,1-5.54,15.94c-1.91,3.93-6.34,4.52-9.13,1.21-7.09-8.41-13.55-17.31-16.67-28.1a8.23,8.23,0,0,1,.34-3.87C194.47,287.53,195.25,287.18,197.3,285.38Z"/><path d="M509.79,579.69c.28-3.36,1-6.74.78-10.07-1.38-21.63-2.91-43.23-.27-64.88,2-16.2,3.71-32.43,5.69-48.63.43-3.54.69-7.58,7.24-8,.44,2.95,1.44,6,1.25,9-.84,13.29-2.19,26.56-3.06,39.85-1.27,19.6-2.34,39.22-3.38,58.84-.17,3.24.25,6.51.49,12l15.08-16.2c4.71,3.74,3.34,7.29,1.6,9.85-7.06,10.43-14,21-22.05,30.67-5,6.06-11.75,5-14.47-1.68-4-9.85-6.88-20.13-10.07-30.29-.32-1,.56-2.43,1.24-5,10.83,5.3,11.13,17.17,17.27,24.57Z"/><path d="M532.3,1287c.91,1,1.09,1.46,1.35,1.5,12.28,2.29,13.15,4,7.26,14.53-3.08,5.53-6.07,11.14-9.58,16.39-4.81,7.18-10,7.58-15.07.73a225.8,225.8,0,0,1-14.62-22.64c-2.71-4.71-.4-7.48,5.14-7,2.64.23,5.26.64,7.91.85.57,0,1.19-.45,2.51-1-4.2-17-4.43-34.55-2.79-52.06a36.92,36.92,0,0,1,3.94-13.17c1.11-2.16,4.75-4.52,6.86-4.21,1.91.29,4.25,3.89,4.77,6.36,3.41,16.41,3.72,33,2.78,49.73C532.56,1280.56,532.43,1284.14,532.3,1287Zm-16.75,12.91c3.28,5.06,5.78,8.89,9,13.81l10.54-16.4Z"/><path d="M1194.37,1220.41c-1.1-17.1-2.38-32.65-3-48.24-.69-16.29-.92-32.61-1-48.92a32.59,32.59,0,0,1,2-11.68c.73-1.92,3.7-3,5.66-4.45,1,1.84,2.83,3.62,3,5.54.71,7.62,1.2,15.28,1.27,22.93.18,23,.12,46,.16,68.93v12.76c2.64-2.58,4.21-3.89,5.49-5.43,2.34-2.81,4.29-6,6.87-8.55,1.14-1.13,3.42-1.1,5.18-1.6.33,1.74,1.44,3.83.85,5.17-4.14,9.45-8.45,18.83-13.07,28.05-2.4,4.79-7,6.78-10.69,3.71-7.34-6.12-13.8-13.3-20.39-20.26-.72-.77-.43-3.51.4-4.43a4.72,4.72,0,0,1,4.39-.93C1185.28,1214.82,1188.85,1217.18,1194.37,1220.41Z"/><path d="M1794.24,1639.66c4,3.1,2.25,5.45.88,7.68-5.91,9.65-11.76,19.35-17.87,28.88-4,6.3-8.31,7.16-14.15,2.74a166,166,0,0,1-14.41-12.34,21.5,21.5,0,0,1-4.88-7.4c-.58-1.46-.07-4.32,1-5.22a5.75,5.75,0,0,1,5.38-.15c3.56,2.28,6.68,5.25,11.58,9.26-.91-8.2-1.78-14.53-2.28-20.88-2-25.26-3.7-50.53-1.18-75.85a66,66,0,0,1,2.52-12.7c.55-1.81,2.6-3.17,5.45-6.44,3.27,21-.14,39.83.84,58.54s2.28,37.57,3.56,58.31C1780.49,1655.61,1785.14,1645.14,1794.24,1639.66Z"/><path d="M764.39,1868,775,1851.58c1.41,3.43,2.7,5,2.43,6.17-2.18,9.38-4.18,18.85-7.19,28-2.49,7.57-7.77,8.35-12.28,2.21-5.69-7.76-10.95-15.85-16.32-23.85a28.75,28.75,0,0,1-2.81-5.28c-1.2-3-3.6-6.55.55-8.75s5.78,1.76,7.75,4.32,3.83,5.09,6.71,8.95a61.29,61.29,0,0,0,1-6.18q1.11-44.42,2.15-88.82c0-1.66-.13-3.33-.09-5,.08-3.06.28-7,4.06-6.64,1.89.16,4.64,3.82,5,6.18a134.28,134.28,0,0,1,1.25,21.86c-.69,23.94-1.79,47.88-2.69,71.82C764.28,1859.74,764.39,1862.92,764.39,1868Z"/><path d="M1255,946.06c.34,2.77,1.1,5.56,1,8.31-.79,15.59-1.3,31.22-2.83,46.75a567.74,567.74,0,0,0-2.55,70.28c2.78-2.38,4.45-3.59,5.85-5.06,4.12-4.33,8-8.93,12.31-13,1-1,3.6-.9,5.15-.38.64.22.66,2.89.57,4.42a6.32,6.32,0,0,1-1.32,2.64c-5.56,8.66-11,17.38-16.75,25.94-3,4.52-7.29,5.44-10.84,1.46-7.06-7.91-13.46-16.42-19.83-24.92-.83-1.1-.39-4.76.44-5.15,1.72-.81,4.64-1,6.09,0,3.73,2.52,6.92,5.83,11.92,10.22v-8.28c-.08-22.93-.62-45.87,0-68.79.31-12.24,2.41-24.45,4.05-36.63.39-2.88,2.18-5.58,3.32-8.36Z"/><path d="M1433.63,1240.58c7.14-7.72,9.89-17.82,20.91-23.44.17,2.95,1.08,5.35.26,6.69-6,9.79-9.6,20.35-12.08,31.5-1.56,7-6.35,8.74-11.62,4-7.36-6.65-14-14.16-20.72-21.44-1.86-2-3.31-5-.25-6.81,1.44-.87,4.54-.23,6.19.81,3.22,2,6,4.85,10.69,8.87,0-5.19.08-8.34,0-11.48q-1.29-42.39-2.62-84.79c-.13-4.31-.52-8.71.14-12.93.33-2,2.8-3.76,4.3-5.63,1.28,1.69,3.42,3.25,3.69,5.08a117.86,117.86,0,0,1,1.24,16.89c.06,27.61-.06,55.23-.11,82.84C1433.62,1234,1433.63,1237.29,1433.63,1240.58Z"/><path d="M1322.52,1373.84c0,45.77-5.17,91.43-4.44,138.36,7.77-4.91,8.66-14.51,16.8-19.63.47,2.9,1.64,5.23,1,6.8q-7.33,17.48-15.35,34.66c-1.89,4-6,5-9.28,2.37-7.35-5.85-13.51-12.94-16.6-22-.63-1.84.88-4.41,2-9.07l12.76,15.54,2.14-1.11c.21-2.42.56-4.83.61-7.25q1-60.93,2.08-121.86a56.85,56.85,0,0,1,1.37-11.87c.51-2.18,2.36-4,3.6-6Z"/><path d="M1341,855.69c20.8.16,23.1,3.28,18.25,18.4-3,9.47-5.87,19-9.36,28.31a51.6,51.6,0,0,1-7.51,13.85c-3.95,5-10.48,4.85-13.39-.53-6.91-12.8-13.25-25.94-19.15-39.24-2.31-5.22,0-11.18,4.5-12.77C1324.52,860.15,1335,857.44,1341,855.69Zm-22.53,17.81,18.23,31.69,13.09-37.14C1337.9,864.35,1329.51,871.49,1318.45,873.5Z"/><path d="M732.76,1129.12l9.26-11.5c2.51-3.11,4.93-6.29,7.56-9.29,1.82-2.07,4.35-4.11,6.68-1.46,1.08,1.23,1.15,4.77.15,6.16-7.16,10-14.5,19.82-22.27,29.31-2.84,3.49-7.47,3.89-10.5.09-6.21-7.78-11.92-16-17.7-24.07-.67-.94-.48-2.48-.75-4.09,9.5-4.17,9.84,7.29,16.68,8.49.13-2.1.4-4.5.41-6.9.1-29,.12-57.91.3-86.87a41.72,41.72,0,0,1,1.43-11.82c.58-1.92,3.35-3.18,5.13-4.74.87,1.91,2.54,3.86,2.48,5.74-.75,20.95-2.06,41.88-2.62,62.83-.36,13.62.22,27.27.5,40.9a42.17,42.17,0,0,0,1.15,6.61Z"/><path d="M1625.24,1802.89c-1.29-14.53-2.66-29.06-3.85-43.6-1-12.6-2.11-25.2-2.63-37.82-.19-4.56,1-9.22,1.85-13.78.42-2.2.74-2.13,6.64-4.23,2.39,10.21.7,20.47,1.35,30.54.68,10.63,1.05,21.28,1.45,31.92.38,10.15.63,20.31.94,30.47l2.32.71c3.13-3.7,6.18-7.46,9.42-11.07,1.52-1.7,3.15-3.59,5.14-4.55,2.63-1.27,4.74.23,4.75,3.1a10.68,10.68,0,0,1-1.89,5.54c-5.33,8-10.66,16.09-16.39,23.85-3.35,4.54-7.48,5.49-12.31,2.74a55.75,55.75,0,0,1-20.14-19c-.35-.56-.94-1.23-.86-1.77.34-2.39.88-4.76,1.35-7.14,2,.66,4.46.83,6,2.1,3.82,3.17,7.2,6.88,10.84,10.28a32.23,32.23,0,0,0,3.88,2.69Z"/><path d="M567.58,1517c-.75-21.92-1.56-41.8-2.05-61.69-.24-10,.07-20,.28-29.93a21.68,21.68,0,0,1,1.23-6.82,3.21,3.21,0,0,1,6,.29,44.67,44.67,0,0,1,.85,8.87q.15,34,.17,67.9c0,4.57,0,9.14,0,13.71l2,.72c2.08-2.68,3.86-5.69,6.33-7.94,1.47-1.33,4.47-2.5,6-1.85s3,4.17,2.48,5.58c-3.83,9.49-7.48,19.21-12.7,28-3.58,6-10.8,5.26-14.92-.85-3.51-5.19-6.12-11-8.83-16.72-1.49-3.13-2.18-6.8,1.82-8.6,3.56-1.61,5.32,1.49,7.11,3.91C564.17,1512.81,565.22,1514,567.58,1517Z"/><path d="M994.28,1156.4c.79,4.15,1.84,6.14,1.34,7.61-3.76,11-7.26,22.07-12,32.63-3.23,7.22-9.3,8.42-14.55,3.55-8.92-8.27-14.12-19.14-19.09-30-.38-.84.69-2.34,1.16-3.78,8.82.32,10.13,9.12,16.48,13.59a69,69,0,0,0,.57-6.89c-.45-17.95-1.11-35.89-1.38-53.84-.09-5.28.73-10.59,1.41-15.85.39-3.07,1.63-6.23,5.41-6,4.5.34,3.29,4.07,3.25,6.92-.36,23.27-.75,46.53-1,69.8,0,3.57.34,7.13.61,12.36C985.38,1178,986.26,1166.23,994.28,1156.4Z"/><path d="M709.61,1777.45c7.55-7.91,8.09-17.6,16.29-23.9.25,2.87.79,4.26.39,5.31-3.6,9.66-7,19.41-11.22,28.82-2.76,6.18-5.4,6.81-10.93,3.23a26.4,26.4,0,0,1-8.41-8.14c-4.16-7.08-7.14-14.76-6.54-24.32,8.93,3.78,6.91,14.38,14.39,19.34.2-3.27.42-5.75.49-8.23.74-28.29,1.15-56.6,2.35-84.88.49-11.6,2.58-23.14,4.17-34.67.43-3.11.51-6.85,6.31-8.1.2,4,.75,7.72.51,11.39q-3.79,57.3-7.78,114.59C709.46,1770.4,709.61,1772.92,709.61,1777.45Z"/><path d="M1923.46,1809.4c4.44,27.07-.51,53.42,4.67,79.78,2.24-3.9,4.43-7.83,6.73-11.69a46,46,0,0,1,3.42-4.92c2-2.47,4.61-4.89,7.46-2.34,1.36,1.23,1.65,4.91.94,7-2.81,8.17-5.89,16.29-9.48,24.16-3.8,8.34-8.58,9.29-15.58,3.58-5.12-4.19-10.27-8.39-15-13-2.2-2.15-5.42-5.05-3-8.63,2.81-4.14,6.37-2,9.63,0,.52.31,1.24.27,3.18.66-.3-4.7-.86-9.14-.8-13.57.21-16,.51-31.91,1-47.86a31.09,31.09,0,0,1,2.21-9.69C1919.39,1811.52,1921.46,1810.83,1923.46,1809.4Z"/><path d="M749.81,820.37c.3,4.09,1,8.2.84,12.27-.72,22.62-1.74,45.23-2.42,67.85-.25,8,0,16,.33,24,.16,3.91,1,7.8,1.69,12.82,7.77-7.27,6.08-18.27,14-25.62.54,2.7,1.37,4.27,1,5.54-2.46,9.32-4.7,18.74-7.9,27.82-3.25,9.26-8.37,9.71-15.24,2.79a70.14,70.14,0,0,1-17.7-28.54c-.93-3-2.66-6.12.17-10,5.22,3.15,5.67,8.95,8.52,13,3,4.26,5.72,8.67,9.88,12.4-.42-12.73-1.09-25.46-1.21-38.19-.13-13,.3-26,.43-38.94C742.46,831.09,743.22,825.68,749.81,820.37Z"/><path d="M1363.32,1374.66c-2-22.38-4-43.21-5.81-64.05a123.93,123.93,0,0,1-.51-14.92,16.46,16.46,0,0,1,2.17-7.55c.8-1.36,3.33-2.65,4.79-2.37s2.71,2.43,3.53,4c.55,1.07.19,2.61.21,3.94q.75,42.9,1.51,85.81a27,27,0,0,0,.78,3.91c6.34-5.22,6.59-15,14.74-18,.78,1.37,1.8,2.34,1.61,2.94-2.82,8.83-5.41,17.76-8.89,26.34-1.93,4.74-7.28,5.91-10.71,2.16a133.27,133.27,0,0,1-14.16-19.09c-1.65-2.6.12-5.24,3.81-4.9C1358,1373,1359.49,1373.64,1363.32,1374.66Z"/><path d="M1294.8,1125.57c3.66,24.32-3.38,48.49,1.6,73.76,2.17-2.67,3.7-4.28,4.91-6.1,2.39-3.61,4.49-7.41,6.94-11,1.79-2.61,3.47-6.6,7.6-4.36,3.72,2,1.39,5.46.24,7.95-3.63,7.85-7.27,15.73-11.58,23.22-3.71,6.44-7.74,7.12-14.26,3.44-7.79-4.41-13-11.36-17.68-18.7-1.66-2.61-2.81-6.1.54-7.88,1.77-1,5-.09,7.12.86,2,.89,3.46,3,6.18,5.48.26-3,.55-5,.6-7,.42-15.94.6-31.9,1.29-47.84C1288.5,1132.88,1289.81,1128.29,1294.8,1125.57Z"/><path d="M51,775.29c9.64-10.77,13.56-24.08,22.76-33.23,4.62,1.26,4.23,4,3.2,6.55C71.78,761.19,67.06,774,61,786.16c-5.3,10.68-14.66,10.37-20.17-.18C35,774.8,29.62,763.4,24.29,752a27.87,27.87,0,0,1-2.48-9.52c-.11-1.54,1.52-4.33,2.77-4.59,1.79-.37,4.73.44,5.82,1.82a89.86,89.86,0,0,1,7.4,11.79C42,759,46.14,766.53,51,775.29Z"/><path d="M1157.79,913.59c1.88,20.59-4.06,41.2,1.23,62.38,7-5.48,8.11-15.42,17-20.68,0,3.22.47,4.94-.08,6.24-3.62,8.58-7.21,17.2-11.32,25.55-3,6.07-6.4,7.19-12.18,4.25a120.29,120.29,0,0,1-14.44-8.88,15.9,15.9,0,0,1-5-6c-.67-1.41-.28-4.26.78-5.27s3.82-1.1,5.28-.41c3.18,1.49,6,3.75,10.59,6.74-.89-9.2-2.12-16.64-2.21-24.1-.14-10.59.19-21.22,1.06-31.78C1148.87,917.2,1150.56,912.28,1157.79,913.59Z"/><path d="M48,587.15c10.83-12.66,15.59-28.63,26.14-43.68.88,4.13,2,6.25,1.59,8.07A95.37,95.37,0,0,1,72,563.94q-4.77,13.65-9.77,27.22a42.51,42.51,0,0,1-3.63,8.17c-5,7.89-12.93,9-19.06,2-7.43-8.5-14.19-17.61-20.91-26.7-2.25-3-4.79-6.73-.27-11.82C30.21,567.91,37.54,579.08,48,587.15Z"/><path d="M53.48,655c5.43-11.54,10.08-21.41,14.71-31.28.84-1.8,1.3-3.9,2.51-5.38s3-2.1,4.57-3.11c.92,1.87,2.84,3.89,2.58,5.58a102.33,102.33,0,0,1-3.72,14.41c-2.84,9.18-5.9,18.28-8.79,27.44-3.69,11.74-10.54,13.63-19.76,5.48a79.55,79.55,0,0,1-19.45-25,24.83,24.83,0,0,1-2.62-7.42,3.78,3.78,0,0,1,5.9-3.85A43.26,43.26,0,0,1,37,638.27C42.15,643.34,47.18,648.57,53.48,655Z"/><path d="M1120.83,1062.8c3.13-5.42,6.11-10.93,9.48-16.2.9-1.41,3-2,4.55-3,.82,1.91,2.46,3.9,2.27,5.7a23.82,23.82,0,0,1-2.87,8.44c-3.9,7.35-7.74,14.78-12.28,21.74-4.37,6.7-10.14,7.32-16,2a126.88,126.88,0,0,1-13.08-13.66c-1.06-1.28-.15-4.17-.15-6.33,2.11.2,4.65-.29,6.24.72,4.17,2.65,7.92,6,13.5,10.28-1-3.9-1.38-5.88-2-7.79a98.88,98.88,0,0,1-3.93-38.52c.32-3.75.06-9.38,5.35-9.06,5.14.3,4.4,5.94,4.6,9.72.35,7,0,14,.32,21,.2,4.88.93,9.72,1.43,14.58Z"/><path d="M2136.74,1894c4.09-3.81,6.47-6.54,9.36-8.52,1.65-1.12,4.75-2,6.07-1.18s2.21,4.49,1.44,5.9a245.47,245.47,0,0,1-14,22.9c-1.07,1.53-5.41,2.51-7.07,1.6a105.58,105.58,0,0,1-17.11-11.58c-1.82-1.52-3-5.62-2.32-7.9,1.19-3.94,5.08-3.34,8.48-2.39a7.83,7.83,0,0,0,2.4-.35,113.83,113.83,0,0,1,.08-11.53,70.86,70.86,0,0,1,2.48-13.68c.53-1.73,3.22-4,4.79-3.87s3.94,2.64,4.29,4.44c.87,4.54.89,9.26,1.09,13.91C2136.86,1885.07,2136.74,1888.38,2136.74,1894Z"/><path d="M794.56,1506.05c3.68,4.15.73,8.27-1.37,11.48-8.36,12.81-17.22,25.3-25.91,37.89a9.92,9.92,0,0,1-1.36,1.47c-6.06,5.64-11.59,4.91-15-2.64-5-10.89-9.51-22-13.88-33.15-.67-1.69.57-4.13.93-6.22,2.05.66,4.78.72,6,2.12a42.92,42.92,0,0,1,5.73,9.29c3.12,6.23,6,12.58,9.43,19.88,2.53-2.31,4.66-3.76,6.15-5.71,7.29-9.5,14.38-19.17,21.62-28.72C788.75,1509.26,789.65,1505.39,794.56,1506.05Z"/><path d="M613.24,703.34c5.52-7.5,9.08-16.67,16.69-22.48,3.91,2.88,2.14,5.26,1.14,7.59-4.05,9.47-8.2,18.89-12.12,28.4-3.3,8-8.53,9.2-14.11,2.71-5-5.81-9.71-11.83-14.33-17.93-.8-1.06-1.16-3.45-.51-4.36s3-1.55,4.27-1.14c2.71.91,5.18,2.55,8.1,4.07,1.53-15.72-5.08-32,5.26-46.25,5.24,2.64,3.47,6.25,3.35,9.36-.39,9.66-1,19.3-1.22,29-.08,3.5.66,7,1,10.55Z"/><path d="M29.23,682.55l19.9,28.09L81,678.37l2.1,1.06c0,1.69.56,3.66-.11,5a83.16,83.16,0,0,1-5.41,8.31q-8.25,12.42-16.46,24.85c-1.1,1.66-1.88,3.55-3.1,5.1-4.84,6.12-11.48,6.87-15.87.51C35.74,714,30.43,704,25.21,694,23.41,690.56,23.05,686.23,29.23,682.55Z"/><path d="M996.05,1555.06c2.51-20-3-40.33,2.59-60.13.18-.63,1.6-.92,2.52-1.42,4.44,2.25,3.21,6.35,3.15,9.7-.23,14.31-.77,28.62-1.17,42.92-.08,2.52,0,5,0,9.34l16.3-15.91,1.8,1c-.09,1.64.41,3.66-.37,4.86-4.87,7.55-9.86,15-15.16,22.29-3.78,5.18-8.23,5.62-12.53,1a71.87,71.87,0,0,1-9.43-12.75c-.86-1.46.41-4.18.7-6.32,2,.53,4.22.65,5.84,1.72s2.44,3,3.63,4.63Z"/><path d="M530.15,1717.51a11.91,11.91,0,0,1-12.48-11.42c-.48-7.14,5.21-14.16,11.94-14.72,4.94-.41,11.65,7.22,12,13.7A12.06,12.06,0,0,1,530.15,1717.51Z"/><path d="M128,1490.88c5.6,7.11,3.2,14.28,1.92,20.66-1.73,8.59.24,18.29-5.9,26.74C117.69,1527.55,120.13,1499.34,128,1490.88Z"/><path d="M118.32,1431.07c1.53,9.42,3.33,19.08,4.48,28.81.24,2-1.92,4.34-3,6.52-1.85-1.57-5-2.93-5.33-4.76a227.46,227.46,0,0,1-2.66-25.41C111.69,1433.41,113.19,1430.26,118.32,1431.07Z"/><path d="M129.7,1600.09c-.75-.95-2.11-1.86-2.16-2.85-.51-10.57-.86-21.16-1.11-31.74a6.09,6.09,0,0,1,1.28-3.66,4.54,4.54,0,0,1,3.19-1.76,4.49,4.49,0,0,1,2.89,2.22,7.32,7.32,0,0,1,.67,3.87c-.71,11.17-1.52,22.34-2.3,33.51Z"/><path d="M884.42,815.71c-6.89-8.58-3.39-19.12-4-28.82-.3-4.72-.66-10.07,6-13.45,3.58,7.36.78,14.42.68,21.31s0,13.63,0,20.44Z"/><path d="M893,924.39c.64,1.41,1.45,2.33,1.38,3.18-1,12.44-2.19,24.87-3.35,37.67-4.16-6.64-5.21-17.17-3.25-32.77C888.16,929.42,887.6,925.56,893,924.39Z"/><path d="M891.39,850c-.45,6.13-1.25,12.27-1.25,18.41s.8,12.26.58,18.51c-6.53-7.9-6.4-17.37-6.28-26.77C884.53,853.9,884.68,853.9,891.39,850Z"/><path d="M128.33,1635.34c5.14,6.49,5.1,25,.51,32.53C124.43,1659.87,124,1643.61,128.33,1635.34Z"/><path d="M538.12,1666.17a7.91,7.91,0,0,1-15.82-.46,8.22,8.22,0,0,1,8.21-8.16C534.82,1657.52,538.32,1661.48,538.12,1666.17Z"/><path d="M764.18,1718.21c-.66,2.94-.83,6.12-2.12,8.75a4,4,0,0,1-6.69,1.1c-1.31-1.5-1.87-5.43-.82-6.79,1.68-2.19,5-3.15,7.55-4.63Z"/><path d="M769.41,1690.26c-4,1.62-6.22,3.31-8.3,3.13-1.51-.14-3.91-2.72-4-4.26-.08-3.07,2.48-4.73,5.5-3.74C764.52,1686,766,1687.75,769.41,1690.26Z"/><path d="M528.82,1632.45c-1.68-3.21-3.6-5.2-3.26-6.68s2.87-2.58,4.45-3.84c1.08,1.43,3.14,3,3,4.25C532.82,1627.92,530.93,1629.48,528.82,1632.45Z"/><path d="M764.88,1635.83c-2.12,1.47-3.62,3.16-4.35,2.88-1.41-.56-2.52-2.14-3.43-3.51-.13-.2,1.74-2.42,2.38-2.28C761.05,1633.27,762.44,1634.43,764.88,1635.83Z"/></svg>