<svg data-name="Layer 1" xmlns="http://www.w3.org/2000/svg" viewBox="0 0 1190.23 715.15"><path d="M1147.37 447.93c-.54 2.28-.91 4-1.35 5.68a44 44 0 0 1-2 6.78c-2.4 5.37-6.76 6.61-11.46 3.17a91.14 91.14 0 0 1-7.7-6.91c-2.38-2.2-4.71-4.44-7.46-7-.87 1.93-1.29 3.51-2.19 4.72-1.81 2.44-3.54 5.13-5.92 6.9-4.27 3.16-8.56 2.8-12.35-1a78.62 78.62 0 0 1-7.88-9.71 13 13 0 0 0-7.73-5.52c-2.57-.62-4.93-2.13-8.1-3.57-1 .49-2.85 1.27-4.61 2.12-16.91 8.17-33.88 8.66-51 .57-11.43-5.41-22-12.06-30.7-21.35-.59-.63-1.27-1.18-2.41-2.24-4.17 8.88-11.38 15.45-14.37 24.61a12.21 12.21 0 0 1-.91 2c-3 5.48-7.43 5.79-10.86.44-2.44-3.8-4.28-8-6.4-12-.66-1.25-1.4-2.46-2.53-4.44-2.7 3.34-5.1 6.2-7.38 9.14-2 2.62-4 5.58-7.81 4.93s-4.7-4-5.78-7.18c-2.76-8-5.68-16-8.78-24.71-2.57 1.52-4.73 2.45-6.49 3.88-6.33 5.17-12.53 10.49-18.77 15.76-.55.47-1 1-1.56 1.52-2.26 2.11-4.4 4.66-8 3.14-3.27-1.37-3.64-4.55-3.59-7.38a92.46 92.46 0 0 1 1.34-12.94c2.13-13.27 4.42-26.51 6.63-39.76a9.74 9.74 0 0 0-.29-2.09c-1.32 1.68-2.24 3-3.26 4.15-4.84 5.66-9.33 11.67-14.62 16.86-13 12.8-29.4 18.36-47.25 19.84a33.32 33.32 0 0 1-12.39-1.11c-19.39-6.07-37.13-15.15-49.68-31.76a161.09 161.09 0 0 1-31.3-75.17c-.25-1.75-.59-3.48-.89-5.19-.85.1-1.28 0-1.53.19-8.62 6-17 2.89-25.29-.76a13.48 13.48 0 0 1-7-8.05 29.32 29.32 0 0 1-2.09-7.86c-.89-12-1.31-23.91 3.25-35.49a22.8 22.8 0 0 0-7-26.39c-5.14-4.17-6.6-9.16-4.13-15a124.27 124.27 0 0 1 8.24-15.92c6-9.76 12.23-19.33 18.53-28.89 2.32-3.52 2.38-6.71.73-10.62a29.73 29.73 0 0 0-10.91-13.23c-8.34-5.75-9.27-9.35-3.89-18.07a49.5 49.5 0 0 1 9.95-12.12C726 96.34 746 88.27 769.06 88.63c6.72.11 13.43.62 20.14.93.87 0 1.75-.07 3.24-.14-.76-3.29-1.46-6.21-2.13-9.15-.8-3.54-1.79-7-2.33-10.63-1-6.5 2-9.83 8.62-9a96.89 96.89 0 0 1 16 3.31c8.86 2.64 17.83 5.18 26.31 8.8C861 82.14 878 97.51 890.06 118.33c1.55 2.67 2.67 5.57 4.09 8.31.64 1.25 1.26 2.9 2.35 3.44a3.73 3.73 0 0 1 2 4c-.15 2.31.83 3.57 2.48 5 14 12.08 28.26 24 41.81 36.57a31.72 31.72 0 0 1 9.6 19.69c.57 4.84-1.68 8.42-5.88 10.78-2.51 1.42-5 2.79-7.81 4.31l7.14 13.67c8.1-10.76 19.35-17.24 29.68-24.83a73.55 73.55 0 0 1 20.79-10.63c14.26-4.67 27.95-3.26 41 4.12 3.32 1.88 6.47 4 9.73 6a8.8 8.8 0 0 0 9.74.1c7.09-4.06 14.38-7.76 21.57-11.66 13.37-7.24 27.39-7.61 41.82-4a64.1 64.1 0 0 1 20 8.35 34.15 34.15 0 0 0 3.22 2c22.84 11.52 30.39 32.63 34.21 55.66 1.41 8.52.71 17.4 1 26.11.37 10.34.32 20.73 1.3 31 2.59 27.05 1.9 54.1.67 81.17-.9 20 .66 39.58 7.81 58.47a33.34 33.34 0 0 1 1.59 6.33c1.1 6.78-3.48 11.48-10.25 10.14-2.76-.55-5.31-2.19-7.91-3.45-6.84-3.34-13.65-6.76-20.5-10.08a26.63 26.63 0 0 0-3.94-.97zM906 266.31c0-8.72.33-17.46-.07-26.16a148.58 148.58 0 0 0-12.75-54.32 64.93 64.93 0 0 0-14.81-21.36c-11.68-10.89-25.12-18.57-40.92-21.57-27.53-5.24-50.63 2.1-68.24 24.6-1 1.24-2.28 2.92-3.58 3.07-3.1.38-4.3 2.49-5.54 4.67-2.06 3.64-4.1 7.29-5.9 11-12.43 26.06-17.68 53.79-17.94 82.41-.12 12.47 1.45 25 3 37.43 3.23 26 13.25 49.32 28.42 70.53a55.18 55.18 0 0 0 16.9 16c7.52 4.38 15.28 8.38 23.12 12.15a32.21 32.21 0 0 0 18.66 2.55c17.3-2.41 32.44-9.07 44-22.64 13.42-15.67 23.48-33.19 29.09-53.11 6.08-21.29 7.64-43.17 6.56-65.25zm74 147.88c-.85-1.37-1.79-2.92-2.75-4.46C967.74 394.25 963 377 961 359.31a108 108 0 0 1 8-54.47c5-11.85 11.54-23 16.58-34.87 4-9.46 10.61-16.26 18.63-22.16 7.17-5.29 14.22-10.73 22.44-14.38a41.21 41.21 0 0 1 23.42-3.13c21.57 3.28 39.14 14.28 54.39 29.07 14.7 14.26 20.43 32.74 21.93 52.66a145.9 145.9 0 0 1-2.13 38c-1.78 9.44-3.93 18.85-6.58 28.08s-5.11 18.25-10.48 26.54c-6.75 10.41-13.26 20.84-22.8 29a18.51 18.51 0 0 0-1.72 1.94c9.88 4.78 9.87 4.78 13.53 9.78 1.51 2.05 3 4.14 4.58 6.1a34.51 34.51 0 0 0 3.56 3.19c1.34-2.06 2.67-3.57 3.37-5.32a40.28 40.28 0 0 0 1.52-6.33c1.14-5.24 4.7-6.76 9.25-3.86a28.15 28.15 0 0 1 3.87 3c3.6 3.33 7.11 6.76 10.72 10.08a35.29 35.29 0 0 0 3.54 2.53c.7-3.12 1.09-5.62 1.84-8a10.19 10.19 0 0 1 11.8-7.32 16.58 16.58 0 0 1 4.69 1.39c7.34 3.56 14.62 7.25 21.92 10.88 1.2.59 2.42 1.12 3.71 1.72.2-.83.41-1.2.34-1.51a28.68 28.68 0 0 0-1-3.66c-7.42-20-9.05-40.65-8.07-61.72 1.22-26 1.89-51.94-.53-77.9-.81-8.67-1.13-17.39-1.43-26.1-.22-6.54-.14-13.09 0-19.63.33-16.68-4.62-31.92-12.82-46.16a29.72 29.72 0 0 0-8-8.73c-5.7-4.19-11.58-8.35-17.93-11.36-17.47-8.29-35.06-10.18-52.54.56-6.18 3.8-12.8 6.86-19.2 10.3a14.27 14.27 0 0 1-13.61.39c-3.42-1.67-6.66-3.7-9.91-5.7a47 47 0 0 0-15.45-6.53c-12.57-2.53-23.86.93-34.29 7.44-8.47 5.28-16.71 11-24.61 17.1-6.78 5.23-12.52 11.55-15.36 20-.8 2.39-2.81 3.13-5.33 2.32a27.11 27.11 0 0 1-3.61-1.82c-.54 2.1-.46 4.24-1.48 5.36-3.51 3.8-4.51 8.65-6.16 13.21-4 11.1-7.78 22.29-13.9 32.5a9.78 9.78 0 0 0-.88 3.62c-1.12 7.91-1.85 15.89-3.34 23.73-3 15.59-7.22 30.78-16.12 44.25a24.81 24.81 0 0 0-1.76 4.19c4.46 2.22 4.42 5.93 3.84 9.88q-3.09 20.75-6.08 41.51c-.19 1.3-.22 2.63-.4 4.91 2.54-2.21 4.19-3.88 6.06-5.23 6.17-4.47 12.21-9.16 18.71-13.1 5.12-3.1 8.93-1.61 11.61 3.78 1.68 3.4 2.86 7.06 4.23 10.62 1.53 4 3 8 4.77 12.64 1.72-1.84 2.92-3.14 4.13-4.42a48.32 48.32 0 0 1 4.17-4.29c4.45-3.68 8.87-3.07 12.09 1.68a58.54 58.54 0 0 1 3.1 5.74c1.08 2.06 2.14 4.14 3.37 6.52 5.41-8.15 9.81-16.45 16.81-23.63zm138.19-91.68c-.5-6-.68-12-1.59-17.88-2.08-13.51-6.46-26.29-16-36.39-12.8-13.58-28-23.53-46.39-28.19-10.64-2.69-20.24-.88-29.87 4.32-16.76 9-26.67 24.24-36.5 39.43-4 6.17-6.37 13.41-9.27 20.26-10.9 25.82-11.79 52.05-3.66 78.84s25.11 45.38 51.44 55.22c7.26 2.72 14.71 3.89 22.46 2.51a62.15 62.15 0 0 0 35.71-19.44 102.06 102.06 0 0 0 19.36-30.74 193.84 193.84 0 0 0 14.33-67.94zm-202.5-78.29c7-4.44 13.55-8.59 20.08-12.78 1.64-1.05 1.67-2.58 1.15-4.33a34.37 34.37 0 0 0-6.81-12.3c-3.72-4.48-3.29-7.27 1.43-10.19 3.08-1.92 6.2-3.8 9.43-5.45 2.43-1.24 3.14-3 2.17-5.35-1.13-2.66-2.18-5.54-4-7.67a154.66 154.66 0 0 0-14.28-14.9c-11-9.74-22.39-19.09-33.64-28.58-2.15-1.81-4.35-3.89-4-6.78.74-5.41-1.94-9.55-4.49-13.64-12.28-19.72-29-34.5-50.74-42.83-9.8-3.75-20.14-6.09-30.25-9a44.57 44.57 0 0 0-4.77-.76c.52 2.53.86 4.43 1.32 6.31 1.06 4.41 2.42 8.77 3.22 13.23 1 5.29-.93 8-6.2 8.92a36.15 36.15 0 0 1-7.58.2c-7.44-.23-14.89-.92-22.32-.76-19.69.42-36.7 8-51.71 20.4a31.44 31.44 0 0 0-9.22 13 5.82 5.82 0 0 0 .71 1.22 17.16 17.16 0 0 0 2.17 1.64c8.16 5 12.85 12.56 15.75 21.51 1.15 3.53 1.22 6.75-.65 9.94-3.76 6.43-7.4 12.93-11.37 19.23-3.77 6-8 11.69-11.8 17.68a93.72 93.72 0 0 0-4.86 9.72c-1.16 2.42-.91 4.41 1.45 6.18 7.71 5.77 10.12 14.43 11.81 23.22.55 2.86-.35 6.1-1 9.07-.63 2.82-1.89 5.49-2.75 8.26-2.93 9.43-2.51 19.07-1 28.6 1.18 7.44 10.39 12.43 17.57 10.07 2.67-.88 5.27-2 8.12-3.07-.22-3-.43-6.08-.66-9.15a178.09 178.09 0 0 1 .48-36.93c2.68-20.61 6.7-40.87 15.18-60 6-13.62 13.53-26.29 25.5-35.5a142.35 142.35 0 0 1 20.25-12.73 59.74 59.74 0 0 1 15.77-5.72 79.84 79.84 0 0 1 36.76.68c29.2 7.74 50.93 24.37 61.76 53.27a197.21 197.21 0 0 1 8 27.67c1.97 8.95 2.65 18.23 4.02 28.4zm8.43 6.05l-8.66 3.28c.14 5.1-.05 10.14.44 15.15l1.13.14z"/><path d="M711.73 45.16c-4.05.9-8.12 1.69-12.14 2.71a139.63 139.63 0 0 1-47 4.16c-22-2-43.62-5.23-64.34-13.32-12.35-4.82-24.75-9.58-37.37-13.63-15.72-5-31.58-9.72-47.57-13.88a83.14 83.14 0 0 0-53 3.7c-33 13.31-58.39 35-73 68.08-.22.49-.41 1-.65 1.5-4.06 8.33-4.77 15.86.18 24.93 10.87 19.89 16.44 41.88 20.85 64 5.35 26.89 10.32 53.87 15.23 80.85 4.64 25.48 11.21 50.34 21.9 74 5.63 12.49 12.41 24.25 21.41 34.66a52.11 52.11 0 0 1 4.31 5.63c3.29 5.07 2.6 9.68-2.23 13.41a37.45 37.45 0 0 1-8.35 5.08c-14.27 5.87-28.63 11.53-43 17.22a18.59 18.59 0 0 1-4.21 1.07c-3.19.46-5.14-.5-5.84-2.69s.46-4.11 3.36-5.41c1-.44 2.08-.64 3.1-1 13-5.08 26.09-10.07 39.05-15.34 3.8-1.54 7.29-3.87 11.24-6a26.83 26.83 0 0 0-2.2-3.67c-17.87-20.19-28.06-44.38-36.27-69.59-6.2-19.06-9.77-38.72-13.18-58.42-5.53-31.86-10.89-63.77-19.65-95-7.56-26.89-19.52-51.62-37.21-73.4A119 119 0 0 0 323.73 54c-13.17-9.77-28.24-14.81-44.22-17.32A188.14 188.14 0 0 0 254.63 34c-4.92-.11-10.07 1.4-14.8 3.07-9.05 3.21-18 6.89-26.78 10.66-10.39 4.44-18.6 11.92-26.46 19.81-.89.9-1.65 1.95-2.61 2.77-1.93 1.65-4.18 2-5.76-.16-2.87-3.86-6.47-3.35-9.66-1.38a100 100 0 0 0-15 10.78 174.5 174.5 0 0 0-36.09 46.87c-8.61 16.08-14.9 33.12-21 50.26-8.83 25-17.88 49.92-28.93 74.08a359.09 359.09 0 0 1-32.7 57.18c-7.41 10.55-14.56 21.31-21.26 32.32-7 11.58-6.31 15.92 2.55 26.29 13.35 15.63 29.38 27.55 48.56 35.08A77.13 77.13 0 0 0 75.12 405c3.75.88 7.45.94 10.93-1.6 2.68-1.95 4.8-1.58 6.28.27s1.17 4-1 6.31c-2.47 2.63-5.58 4.35-9.16 4.18-4.49-.21-9.17-.39-13.4-1.75-25.67-8.28-46.52-23.51-63-44.79C-1 358.93-2 349.67 3.61 340.13c4.67-8 9.11-16.23 14.67-23.58 29-38.3 48.14-81.49 64.16-126.35 6.84-19.15 14-38.24 21.93-56.93A169.38 169.38 0 0 1 143 77.61a137.33 137.33 0 0 1 18.82-14.71c5.82-3.93 12.41-5.08 19.08-1.72a6.59 6.59 0 0 0 1.5-.91 98.21 98.21 0 0 1 38.08-25.68c10.17-3.83 20.25-8.24 31.18-9.51 6.47-.75 12.93-.81 19.36 1.25 3.93 1.26 8.22 1.39 12.34 2 31.92 5 55.82 22.39 74.33 48.1 2.65 3.68 5.24 7.4 7.88 11.08.07.11.31.1.94.27.51-1.17 1.12-2.4 1.59-3.67a119.47 119.47 0 0 1 39-54.11c14.57-11.46 30.16-20.8 48-26.16C475-2 494.57-.66 514.3 4.5c24.48 6.4 48.31 14.79 71.77 24.09 25.23 10 51.44 14 78.26 15.21 11 .48 21.68-1.86 32.33-4.29q10.37-2.35 20.73-4.64a14.72 14.72 0 0 1 3.78-.43c3.79.18 6 3.09 5 6.74a11.77 11.77 0 0 1-1.69 3.38Q713.2 61.3 701.86 78a72 72 0 0 1-32.59 26.37c-3.51 1.46-6.84 3.36-10.24 5.08a10.27 10.27 0 0 0-5.77 8.1c-.88 6.29-2.1 12.57-2.37 18.89-1 22.88-1.63 45.77-2.34 68.66-.15 4.89-.47 9.85.1 14.69a41.5 41.5 0 0 0 3.4 12.49c4.37 9.37 9.37 18.46 14 27.72 5.06 10.11 9.26 20.45 10.29 31.94 1 11.2-3.76 18.88-13.18 24.19-2 1.16-4.13 2.3-6.28 3.27a5.81 5.81 0 0 0-3.77 6c0 1.63-.14 3.27-.14 4.9.09 26.32-3.92 52.11-10.11 77.62-2.63 10.83-8 20.28-15 28.77-2.69 3.28-6.43 5.87-10.07 8.16-9 5.66-19 9.09-29 12.34-12.59 4.08-25.26 7.93-38.2 12-.48-2.3-1-4.91-1.68-7.94a59.1 59.1 0 0 1 5.58-2.48c9.16-2.95 18.36-5.77 27.53-8.69 10.57-3.35 21-6.94 30.79-12.38a35.86 35.86 0 0 0 11.48-10.7c7.75-10.6 11.09-22.89 13.31-35.42 3.48-19.66 6.91-39.38 6.55-59.49 0-3.27.14-6.54.36-9.81a10.84 10.84 0 0 1 6.18-9.58c3.08-1.57 6.16-3.14 9.11-4.92 5.4-3.25 8.2-7.75 7.76-14.44-.61-9.11-3.63-17.41-7.5-25.45q-7.18-15-15.08-29.62a48 48 0 0 1-5.62-24.14c.42-20.9.75-41.81 1.67-62.69.51-11.4 2.06-22.77 3.26-34.14.82-7.68 5-13.11 11.84-16.49 3.42-1.69 6.81-3.45 10.32-4.93a61.21 61.21 0 0 0 27-21.43c6.55-9.34 12.86-18.85 19.28-28.28z"/><path d="M366 299.79c-.36 30.6-2.31 61.55-10.61 91.78-7.57 27.58-18.61 53.53-36.45 76.17-14.16 18-31.48 31.66-53.8 38.15-22.76 6.61-44.55 4.19-65.25-7.51-15.88-9-29-21.19-40.71-35-23.1-27.27-36.87-58.93-43.94-93.72a355.41 355.41 0 0 1-7.36-83.43c1.73-49.88 11.53-98.05 32.45-143.61 4.31-9.38 9.54-18.37 14.75-27.3a62.35 62.35 0 0 1 22.28-22c6.06-3.65 12.67-6 19.66-5.58 18.4 1.22 37 1.44 54.85 7 9 2.78 18.25 4.92 27.17 8 21.25 7.26 37.72 20.73 49.83 39.57 13.1 20.39 21.7 42.67 27.43 66.13 7.24 29.81 9.25 60.22 9.7 91.35zm-8.88.71c-.34-29.13-2-57.4-8.31-85.21-5.56-24.65-14.17-48.07-28.13-69.31-9.74-14.83-22.55-26.12-39.08-32.76a226.59 226.59 0 0 0-22.22-7.35c-22-6.27-44.15-10.27-67.24-7.43-8.26 1-15 4-20.71 9.62a54.19 54.19 0 0 0-6.39 8.11 200.34 200.34 0 0 0-18.94 34.94c-28.82 68.89-36.77 140.15-22.85 213.63 5 26.29 13.74 51.21 28.51 73.75 13 19.82 28.49 37.22 48.73 50 10.78 6.78 22.39 11.17 35.23 12 18.89 1.17 35.92-4.19 51.44-14.69 14.41-9.75 25.41-22.72 34.56-37.35 12.06-19.28 20.19-40.21 25.89-62.14 7.39-28.43 9.14-57.41 9.47-85.81zM739.55 472c3.47-2.89 6.45-5.56 9.61-8 12.6-9.65 26.41-12.43 41.55-7 13.53 4.88 27.48 4.45 41.48 3.42 2.17-.16 4.32-.63 6.49-.82a64.51 64.51 0 0 0 23.08-6c2.44-1.19 5.14-1.89 7.54-3.15 14.41-7.57 29.46-6.75 44.68-3.49 6.71 1.43 11.81 5.33 15.79 10.87 3 4.12 5.87 8.32 9.21 12.13 8.06 9.21 9.84 20.39 10.61 31.95.65 9.81-2.14 19.1-4.72 28.35a118.28 118.28 0 0 1-6.7 19 90.49 90.49 0 0 0-8.48 45 39.19 39.19 0 0 1-.74 9.16c-.39 2.15-2.18 3.33-4.46 3.22a4.16 4.16 0 0 1-3.85-4.53c.32-10 .61-19.94 1.3-29.88.63-9.21 4.17-17.62 8-25.91 5.12-11.13 8.12-22.92 10.24-34.92a50.77 50.77 0 0 0-2.37-25.8c-1.35-3.83-4-7.25-6.35-10.66-2.67-3.88-5.8-7.45-8.46-11.34-3.15-4.62-7.22-7.58-12.82-8.32-4.5-.59-9-1.28-13.5-1.75a36.29 36.29 0 0 0-17.68 2.73c-4.88 2-9.83 3.82-14.63 6a78.75 78.75 0 0 1-21.37 5.89c-12.11 1.73-24.26 2.53-36.4 1.29a86 86 0 0 1-18.6-4.06c-12.5-4.22-23.53-2-33.82 5.89a48.38 48.38 0 0 0-13.05 14.9c-6.09 10.9-5.11 17.45 3.23 25.39a81.73 81.73 0 0 0 11.75 8.76c10 6.58 20.19 12.93 30.24 19.47a26.21 26.21 0 0 1 5.38 4.58c10.42 11.94 18.38 25.27 21.94 40.85a29.28 29.28 0 0 1-.07 10.72c-.47 3.07-2.78 4.33-5 3.59-2.61-.86-3-2.94-2.54-5.28 1-4.5-.25-8.68-1.77-12.78a101.67 101.67 0 0 0-16.77-28.55 39.61 39.61 0 0 0-9.07-7.71c-10.17-6.68-20.52-13.08-30.8-19.6-1.07-.68-2.14-1.38-3.15-2.15-9.26-7.1-16.63-15.32-16.11-28.28-1.16-.39-2.14-.8-3.15-1-19.49-4.59-32.89-17.18-43.49-33.18-4-6.07-5-13.21-5.78-20.27-.45-4.28-1-8.81-.08-12.92 3.05-13.69 14.17-20 26.06-20.9 7-.54 12.8 3.89 15.39 10.8 2.53 6.74 1.9 13.58.69 20.43a30.9 30.9 0 0 1-.8 3.73c-1.67 5.45.24 10 3.53 14.19 5.12 6.48 11.61 11.36 18.79 15.94zm-5.28 7.9c-5.66-4.73-11-8.79-15.89-13.36-8.68-8.13-13.15-17.7-9.17-29.89a23.67 23.67 0 0 0 .94-8.09 33.72 33.72 0 0 0-1.51-8.5c-.88-2.9-3.25-4.26-6.27-4.37-8.83-.32-17.72 7.38-18.35 16.19-.2 2.86.49 5.77.75 8.66.91 10 4.72 18.72 11.9 25.67a195.22 195.22 0 0 0 17 14.49c4.82 3.69 10.68 5.17 16.93 6.1 1.21-2.29 2.4-4.49 3.67-6.86z"/><path d="M852.45 546.15c1.34-20.9 7.48-40 20.85-56.31a49.59 49.59 0 0 1 7.05-6.76 3.93 3.93 0 0 1 5.86.34c1.48 1.63 1.17 3.66-1 5.72-16.21 15.52-22 35.42-23.83 56.91-.67 8 2.17 15.41 5.82 22.39 2.44 4.67 5.85 5.92 11 4.67a21.42 21.42 0 0 0 11.25-7.3 49.75 49.75 0 0 0 11.19-21.56c3.32-15 6-30.24 8.9-45.38.1-.53.05-1.09.17-1.62.6-2.87 2.45-4.62 4.66-4.46s4.1 2.07 3.94 5a106.7 106.7 0 0 1-1.57 14c-1.93 10.17-4.12 20.28-6.33 30.39a70 70 0 0 1-12 26.62c-4.4 6-9.94 10.54-17.26 12.63-9.37 2.67-17.15-.28-21.72-8.8-4.43-8.2-7.12-17.03-6.98-26.48zM701.68 659.25c.19 6.12-1.44 11.56-5.54 16.11-5.86 6.5-14.78 5.46-18.19-2.6a35.72 35.72 0 0 1-2.82-14.23 108.41 108.41 0 0 1 7.23-36.63q.39-1 .84-2c1.15-2.49 2.2-5.31 5.66-4.9s3.77 3.4 4.42 6.07c2.24 9.34 4.62 18.64 6.78 28 .78 3.33 1.09 6.78 1.62 10.18zm-14.15-24c-5.17 13.46-5.07 29.83.24 35.31 4-2.21 4.93-6 4.81-10.07-.26-8.59-2.43-16.79-5.05-25.27zM780.69 620.93c0 .36 0 .72.06 1.08 1.09 12-9.09 13.92-16.18 10.5-5.42-2.61-8.16-7.06-8.8-12.83-1-9.48 1.36-18.37 5.15-26.92 1.47-3.32 3.6-4.17 7-3.9 3.13.26 4.87 1.84 5.75 4.84 1.27 4.34 3 8.57 4.19 12.92 1.32 4.67 2.32 9.43 3.46 14.15zm-13.84-18.72c-2.62 5.68-3.52 13.34-2.36 17.56 1 3.66 2.77 4.8 7.18 4.55.97-7.65-1.81-14.46-4.82-22.11zM709.89 563.77c-.19-8.65 2.72-16.73 4.72-25 .52-2.19 2.23-4.1 4.7-3.71 1.54.24 3.65 1.41 4.2 2.71 3.73 8.79 8.72 17.23 9.5 27a27.82 27.82 0 0 1-1.39 11.13c-2.11 6.06-7.37 7.78-13.2 5.14-6-2.75-8.11-7.89-8.52-14-.08-1.1-.01-2.19-.01-3.27zm10-10.44a29.24 29.24 0 0 0-.83 16.28 3.73 3.73 0 0 0 4.48 3.14c2.16-7.17-.28-13.34-3.64-19.42zM990.74 710.89a4.13 4.13 0 0 1-8.25.31 4.22 4.22 0 0 1 4-4.31 4.36 4.36 0 0 1 4.25 4z"/></svg>