<svg data-name="Layer 1" xmlns="http://www.w3.org/2000/svg" viewBox="0 0 674.21 719.11"><path d="M164.74 91.54l-5.31.83C156.87 78 151.9 64 159.26 49.69a37 37 0 0 1 11.1-13.24c8.95-6.52 18-12.94 26.93-19.47 3.37-2.46 6.49-5.25 9.89-7.67 15-10.67 38.71-13.84 55.49-.51 5 4 10.68 7.27 15.92 11.08a35.19 35.19 0 0 1 13.53 19.88c2.69 10 4.82 20.14 6.62 30.32.88 5 1.49 9.93 3.94 14.45a3.76 3.76 0 0 1 .49 1.54c.28 8.34.66 16.68.72 25a47 47 0 0 1-1.2 8.61c-1.59 8.89-4.35 10.71-13.35 8.61-.47 4.1-.88 8.18-1.42 12.24-1.17 8.64-2.29 17.28-3.7 25.87a12.48 12.48 0 0 1-2.76 6.43c-5.72 5.91-5.54 13.47-6.12 20.7-.38 4.83.34 9.75.56 14.63 4.84 2.35 9.48 3.81 14.44 3.6 1.88-.08 3.78-1 5.57-1.81s3.1-1.94 4.76-2.62c4.68-1.91 7.14-1.24 10.62 2.61.48.53.95 1.09 1.44 1.61a4.55 4.55 0 0 0 .85.49 24.32 24.32 0 0 1 13.9-1.44c5.78 1.17 9.82 3.94 12.1 9 1.83 4 4.73 5.3 8.74 6.23 7.45 1.71 14.8.6 22.09.41 3.06-4 4.17-8.41 4.85-13.08a51.43 51.43 0 0 1 1.7-6.87q6.39-22.24 12.82-44.48c3.69-12.79 4.94-26 7-39.09 2.25-14.23 7.3-27.69 12.32-41.16a133.51 133.51 0 0 1 23.2-39.19 45.86 45.86 0 0 1 24.87-15.78c4.66-1.11 9.73-.45 14.62-.63a44.31 44.31 0 0 1 24.87 6.72c2.7 1.61 6.07 2.09 9.12 3.11 3.75 1.27 7.69 2.16 11.2 3.92 12.16 6.09 20.68 15.79 26.45 28a34.74 34.74 0 0 1 2.81 7.64c2.33 11.19 4.76 22.41 4.5 33.93-.71 31.49 2.49 62.83 3.41 94.26.05 1.6.38 3.19.63 5.14 1.7.26 3.25.63 4.83.73 6 .37 12 .59 17.94 1a35.22 35.22 0 0 1 7.52 1.21c4.9 1.44 9.23 3.46 11.58 8.77 4.1 9.27 9.48 18 10.32 28.49a26.73 26.73 0 0 0 5.42 14.06c2.73 3.61 5.06 7.51 7.65 11.23a9.26 9.26 0 0 0 2.64 2.72c5.22 3.08 6.74 8.17 8 13.6 1.13 4.92 2.88 9.69 4.07 14.6 1.37 5.65-.18 10.85-3.59 15.38a5 5 0 0 0-1.1 4.4 36 36 0 0 1 .48 7c-.08 5.5-1.5 10.44-6.32 13.73a73.65 73.65 0 0 1 1 8.67c0 4.33-2.09 6.63-5.9 7.26a7.52 7.52 0 0 1-8.63-5c-2.44-6.64-4.69-13.35-7-20a13.19 13.19 0 0 0-2.45-4.72 19.39 19.39 0 0 0-.19 2.5c.6 12 1.17 24 4.22 35.66a12.24 12.24 0 0 1-1.75 10.41c-2.35 3.42-5.3 3.95-8.13.9a25.37 25.37 0 0 1-5-7.7c-2.07-5.2-3.56-10.63-5.28-15.92-5.75-1.57-10-5.47-13-10.77a37.31 37.31 0 0 1-4.59-16.67c-.23-4-.58-8-.41-12 .7-16.25-1.36-32.28-3.65-48.3a28.91 28.91 0 0 1-.45-4.33 9 9 0 0 0-2.47-6.35 23.45 23.45 0 0 1-6.1-15.35 4.44 4.44 0 0 0 0-1.09c-4.82-19.54-5-39.54-5.78-59.48-.84-21.06-1.88-42.11-2.74-63.17-.26-6.35.15-12.75-.46-19.06-.74-7.76-1.55-15.62-3.54-23.12-3.15-11.81-9.26-22-19.61-29.2a87.12 87.12 0 0 0-9.67-6.09 9.75 9.75 0 0 0-6.14-1.12c-2.5.62-4.15-.3-6.08-1.32-5.13-2.64-10.3-5.24-15.42-7.89a2 2 0 0 0-.5-.21c-18.65-4.29-35.14-2.33-48.5 13.18-13.64 15.8-21.85 34.22-28 53.68-2.85 9-4.87 18.22-7 27.4-.74 3.16-.64 6.5-1.1 9.74-2 14.42-5.83 28.39-9.84 42.37-4.75 16.56-10.45 32.9-12.74 50.11a60.79 60.79 0 0 1-13.45 30.94c2.41-.15 4.06-.33 5.72-.35 3.09 0 3.87.8 3.83 3.87 0 1.79-.12 3.59-.16 5.38 0 .16.16.32.49.92l23-7c-2.06 15.12-3.57 30.43 2.36 45.19h1.35v-5.54c-.23-8.55-.55-17.15 1.93-25.44 2-6.75 4.62-13.33 7-20 1.2-3.42 4.59-3.75 7.24-5.08s5.51-2 7.89-3.59c7.36-4.85 12.12-11.17 12-20.64-.09-9.07.62-18.14.85-27.22a60.31 60.31 0 0 0-4.73-25.43 68.81 68.81 0 0 1-5.77-24.22 93.05 93.05 0 0 1 1.54-18.9 39.86 39.86 0 0 0-1-18.71c-.76-2.53-.7-5.31-1.09-8.63 2.48-.6 4.66-1.21 6.87-1.63a18.78 18.78 0 0 1 3.27 0c10.41 0 19.74-2.94 27.23-10.46 4.61-4.63 9-9.44 13.52-14.2 3.74-4 7.19-8.24 11.22-11.87 2.18-2 5.34-4.08 8-4 4.77.1 9.83-.2 13.9 4.14 5.2 5.56 9.15 11.38 11.39 18.83A88.2 88.2 0 0 1 525 109.7c.06 5.23.07 5.23 5.07 8.48-.41 4.22-.62 8.75-1.34 13.19-1.47 9.14-3.39 18.22-4.78 27.37a43.53 43.53 0 0 1-5.13 14.83c-1.24 2.22-2.44 4.47-3.75 6.64-2.53 4.19-2.88 8.59-2.83 13.49.11 10.6-2.47 20.81-6.44 30.69-3.8 9.61-5.8 19.44-4.26 29.85 1.12 7.48 3.4 14.49 7.83 20.68 3.6 5 7.42 9.87 11 14.92 9.13 13 14.33 27.18 14.09 43.3a133.72 133.72 0 0 0 1.15 22.86 91.91 91.91 0 0 0 9.51 29.42c1.46 2.7 3.13 5.06 7.36 3.4-.83-1.29-1.67-2.53-2.41-3.82-1.53-2.67-3.77-5.2-4.37-8.07-2.22-10.65-4.74-21.42-2.34-32.36a158.75 158.75 0 0 1 5.58-18.79 76.33 76.33 0 0 0 3.86-20.82 8.89 8.89 0 0 1 .17-2.7c.36-.89 1.32-2.35 1.76-2.26a4.1 4.1 0 0 1 2.77 1.88c2.33 6.24 2.66 12.8 2.34 19.36-.29 5.8-1 11.58-1.59 17.36a50.31 50.31 0 0 0 5.64 29c3.15 5.93 6.15 11.95 9.13 18 1.34 2.69 3.1 4 6.37 3.87 7.44-.29 14.92-.41 22.36-.07 11.06.5 22.1 1.46 33.15 2.22l4.41.29c-3.12-15.83-6.11-31.11-9.15-46.38-.34-1.7-1.83-3.85.75-4.57 2.28-.63 2.94 1.74 3.39 3.44 1.6 6.15 3.33 12.28 4.52 18.51 1.9 10 3.41 20 5.14 30.35 2.89.49 5.74.84 8.53 1.46a76.71 76.71 0 0 1 10 2.6c7.14 2.57 11.54 7.57 11.7 15.39a131.13 131.13 0 0 1-.66 15.72c-1 9.92-2.14 19.83-3.54 29.7-1.71 12-3.71 24-5.64 36-1 6.45-2.09 12.9-3.25 19.33-5.43 30.21-10.75 60.44-16.42 90.61-2.81 15-5.83 30-9.67 44.7-2.26 8.69-5.12 17.38-10.84 24.79A27.36 27.36 0 0 1 607.5 684c-18.35 3.63-36.73 7.19-55.23 9.91-9.46 1.39-19.2 1.14-28.82 1.25-12.36.14-24.74.23-37.08-.29-12.87-.55-25.74-1.66-38.57-2.9-9.94-1-19.82-2.44-29.71-3.82-7-1-13-4.49-19.08-7.77-3.39-1.85-4.44-5.51-5.14-9.21-.9-4.79-1.6-9.71-3.25-14.26-3.21-8.91-9.17-15.91-15.82-22.51-2.81-2.77-5.09-6.07-7.79-9-2.18-2.33-4.62-4.41-8-7.57 1.47 11.68-3.9 18.61-11.45 24.47-3.43 2.66-6.93 4.23-11.52 3.68a105.69 105.69 0 0 1-12.72-2.56c-8.61-2.09-17.37-3.71-26.15-4.93-5.32-.75-10.27 1.51-15.11 3.71-15.37 7-30.85 13.76-46.18 20.84a65.82 65.82 0 0 1-38.24 5.6c-7.89-1.18-15.94-1.24-23.86-2.26a37.7 37.7 0 0 1-10.33-3.19c-5.8-2.59-11.49-5.44-17.06-8.5-7.24-4-15-4-22.82-3.5-3.06.18-6.12.41-9.17.33-3.47-.09-5.17.62-5.25 3.86-.3 12.09-5.49 22.91-8.53 34.27a213.93 213.93 0 0 1-7.26 22.2c-2.27 5.85-5.67 7.67-10.81 7.15-3.53-.37-5.76-2.35-6-5.88a15.47 15.47 0 0 1 .69-6.44c3.11-8 3-16.37 3.51-24.68.2-3.15 0-6.33 0-9.49l-1.13-.39a23.19 23.19 0 0 0-2.58 3.67c-1.81 4-3.37 8-5.14 12-3.32 7.47-6.88 14.82-12.45 20.94a14.87 14.87 0 0 1-3.83 3c-5.24 2.85-10.6 0-10.82-6a26.13 26.13 0 0 1 1.66-9c3.67-11 7.57-22 11.37-33 .47-1.35.79-2.75 1.22-4.27-7.71-4.38-12.21-10.46-11-19.77a59 59 0 0 0-22.2-7.1c-2.42-.29-5 .69-7.49 1.08-4.47.68-8.94 1.48-13.44 2a7 7 0 0 1-4.08-1 3 3 0 0 1-.87-2.75c.25-.75 1.69-1.77 2.35-1.61 6.15 1.45 11.8-.87 17.66-1.85a28.37 28.37 0 0 1 10.75.25c6 1.36 11.79 3.51 18.12 5.46.45-1.17 1.23-2.72 1.15-4.17-.23-7.11 3.1-13.29 4.81-19.89a31.65 31.65 0 0 0 1.19-8.47c-.11-5.43-.67-10.85-1-16.27-.14-2-.14-4-.43-6-1.36-9.34-2.83-18.66-4.2-28a55.92 55.92 0 0 1-.78-8.14c0-13.16-2.27-26-4.23-39a41.48 41.48 0 0 1-.59-6c0-2.64-1.19-4-3.7-4.52-6-1.34-12-2.83-18-4.18-1.51-.33-3.13-.63-2.86-2.51.31-2.1 2.18-2.34 3.84-2 5.5 1.2 11 2.56 16.43 3.84.87.21 1.76.36 2.7.54a5.34 5.34 0 0 0 .43-1.67C42 470.44 45 453.5 48.17 436.49 51 421.33 52.85 406 55 390.69c.31-2.27-.16-4.64-.29-7a12.16 12.16 0 0 1-.18-2.15c1.17-9.36 2.32-18.73 3.59-28.08 1.67-12.4 3.69-24.76 5.1-37.2a128 128 0 0 1 12-41.11c3.26-6.82 9-11.31 15.5-14.85 20.38-11.16 40.72-22.41 61.3-33.2 6.22-3.26 13.13-5.23 19.8-7.58 5.42-1.9 11-3.49 16.85-5.35 0-11 .5-22.33-3.17-33.15-1.73-5.11-4.55-9.87-7.09-14.67a49.69 49.69 0 0 1-5.12-17.68c-.75-6.12-1.48-12.25-2.27-18.91-5.08-.52-6.33-4.46-6.86-8.81-.89-7.37-2-14.75-2.31-22.15-.11-2.42 1.83-4.94 2.84-7.41 1.74-.3 3.84-.06 3.67-3.15zM308.75 570l-.62 1.28a32.94 32.94 0 0 0 3 3.89c8.27 8.06 17.94 14.13 28 19.68a84.43 84.43 0 0 1 22.08 17.55c7.66 8.48 16.45 15.92 23 25.41.51.73 1.42 1.17 2 1.88 3.42 4.45 7.35 8.64 10 13.53 1.9 3.52 2.06 8 3 12 1.25 5.66 3.21 11 8.95 13.45 8.23 3.47 16.77 5.87 25.82 6.17 6.17.21 12.33.82 18.49 1.28 18.45 1.37 36.88 3.19 55.35 4 13.41.59 27 1.07 40.3-.57 19.79-2.44 39.36-6.72 59-10.37 4.52-.84 8.84-2.66 11.77-6.36 3.83-4.84 7.19-10 9.08-16 5.88-18.78 8.81-38.19 12.42-57.45q4.32-23 8.38-46.06 3.11-17.42 6-34.88c1.36-8.23 2.41-16.51 3.85-24.72 2.25-12.87 4.9-25.67 7-38.56 1.69-10.38 3-20.83 4.15-31.29.6-5.38.89-10.87-1.31-16.2-3.68-1.88-7.2-4.3-11.11-5.54a72.05 72.05 0 0 0-14.92-3c-17.35-1.67-34.71-3.39-52.11-4.39-11.6-.67-23.26-.2-34.89-.14-15.43.08-30.88-.06-46.3.49-15.61.56-31.22 1.56-46.79 2.89-12.1 1-24.29 1.55-36.18 4.51-2.82.7-4.92 1.73-6.51 4.26-.71 1.15-2.52 1.61-3.83 2.38-.61-1.22-1.2-2.45-1.84-3.65a8.2 8.2 0 0 0-1.1-1.21c-2.69.38-5.77.58-8.73 1.27q-13.52 3.17-27 6.69c-1.77.46-4.12.66-4.28 3.93a15 15 0 0 0 3.67 1.44 86.76 86.76 0 0 0 10.31.66c10.7-.06 21.4-.34 32.11-.41 3.62 0 7.25.59 10.87.47 13.44-.45 26.86-1.23 40.3-1.59 22.53-.6 45.07-.72 67.59-1.52 23.43-.83 46.84-2.15 70.24-3.41 10-.54 19.94-1.42 29.9-2.21 7.42-.59 14.84-1.3 22.27-1.91a11.22 11.22 0 0 1 2.29.36c-.22 1.39-.41 2.59-.63 4-2.5.35-4.81.8-7.14 1-16.31 1.23-32.61 2.53-48.93 3.57-18.31 1.16-36.64 2.37-55 3-28.16 1-56.32 1.83-84.49 2-18.15.14-36.28 2.87-54.45.41a13.3 13.3 0 0 0-2.18.06c-8.7.3-17.41.66-26.12.89-5.9.16-11.64-.45-15.8-4.76-2.54 2.16-4.53 5-7.18 5.89a115.2 115.2 0 0 1-20.53 5.18c-10.06 1.4-20.25 1.77-30.39 2.66s-14.55 4-17.13 13.5a181 181 0 0 0-4 20.83c-.5 3.33-.77 6.88 1.09 10.32l5.46.42c-.23-4.31-.48-7.93-.59-11.55-.08-2.62-.76-5.63.26-7.78 1.46-3.06 4.08-5.63 6.48-8.15 2.82-3 6.47-3.65 10.47-3.07a34.35 34.35 0 0 0 4.76 0c7.23 0 14.53-.52 21.67.32 5.67.67 11.15 3 16.67 4.7a14.07 14.07 0 0 1 3.76 2.09 43.19 43.19 0 0 1 17.32 25.57c2 8.08 3.42 16.32 3.1 24.79-.15 4 .71 7.95 1.07 11.93s1.09 8 .94 11.93c-.48 12.65 1.87 24.93 3.92 37.3a179.69 179.69 0 0 1 2 21.12c.25 5.28-2.93 8.14-8 6.72a121.64 121.64 0 0 1-20.33-7.48c-5.65-2.75-10.45-7.2-16-10.16-6.31-3.28-12.5-7.79-20.5-5.15-.45.15-1.05-.21-1.58-.21-3.86.01-7.77.08-11.67.08zm81.85-301.2c-12.4 4.16-24.25 7.63-35.69 12.13-8.24 3.24-13 10.64-15.52 18.72a127.1 127.1 0 0 0-5.87 32.61c-.16 3.81-.59 7.6-.88 11.41-.11 1.51-.23 3.11-2.18 3.13-2.27 0-2.37-1.82-2.49-3.48a14.8 14.8 0 0 1 .06-1.63c.5-14.21 2.2-28.29 6.34-41.9 3.59-11.81 10.54-21 22.86-25.11l10.44-3.42c.14-2.29.26-4.34.41-6.79a55 55 0 0 1-7.16.83c-1.3 0-3.32-.53-3.71-1.4a6 6 0 0 1 .39-4.46c.78-1.57 2.32-2.76 3.47-4.16a49.87 49.87 0 0 0 10.7-22.4c-2.77.13-5.07.34-7.37.31-10.61-.13-21.06-.95-29.51-8.51a31.23 31.23 0 0 1-5.12-5.6c-1.72-2.52-3.7-3.13-6.51-2.28-2.08.62-4.25 1-6.38 1.4a8.31 8.31 0 0 1-9.31-3.93c-2.07-3.17-3-3.49-6.14-1.93-3.88 1.92-7.65 4.06-11.56 6.15-.31 1.81-.52 3.62-.93 5.38-2.34 10.09-6.28 19.42-14.27 26.38a127 127 0 0 1-14.29 10.92 53.83 53.83 0 0 1-35.27 8.89 107.76 107.76 0 0 1-21.29-4.44c-9.37-2.92-17.55-7.63-21.38-17.73-2.68-7.09-6.2-13.86-9.5-21.12a7.66 7.66 0 0 0-2.16.21c-5.08 1.81-10.18 3.56-15.17 5.6C134 241.4 114 253.32 93.5 264.18c-6.71 3.55-12.28 8.38-15.34 15.64a137.16 137.16 0 0 0-10.55 39.85c-1.21 12.08-3.42 24.06-5.12 36.09-.7 4.92-2 9.83-.94 15.13 3-.68 5.58-1.36 8.23-1.88 10.07-2 20-1.88 29.18 3.24 6.78 3.8 13.28 8.15 19.71 12.53 3.29 2.25 6.18 5.06 10.5 5.7.78-1 1.5-2.05 2.32-3 3.55-4.1 6.82-3.89 9.39.74 3.2 5.77 3.64 11.61.4 17.65a104.5 104.5 0 0 0-4.54 10.46c-1.09 2.71-.45 4.82 2.21 6.45 4.35 2.67 6.29 6.88 6.84 11.83.15 1.4.38 2.8.63 4.55 5.32-2.65 10.3-5.21 15.35-7.64 9.07-4.39 8.7-4.4 9.65-14.51.68-7.17 1.31-14.79 4.16-21.23 8.17-18.48 20.29-33.4 40.57-40.07 15.95-5.25 31.86-9.07 48.52-3.69 3.09 1 6 2.51 9.11 3.52 8.25 2.69 14.13 8.19 18.07 15.65 2.86 5.41 7 7.65 13 8.28 6.47.7 12.84 2.34 19.28 3.34 4.09.64 8.24.88 12.36 1.27 4.5.42 9.09.34 13.47 1.29 9 2 11.41 7 8.37 16.37a21.88 21.88 0 0 1-4.17 7.58 115.67 115.67 0 0 1-9.88 9.27c-1.41 1.27-3 2.35-4.5 3.51l.48 1.08c4.4-.66 8.9-1 13.18-2.11 2.87-.78 6.26-2.11 7.94-4.31 3.71-4.87 8.34-7.4 14-9.53A188 188 0 0 1 413.37 397c.32-8.57-.69-12.36-6.41-17.64-9.21-8.52-13.69-19.54-17.1-31.1-1-3.36-.58-7.17-.52-10.77 0-1.06 1-2.09 1.71-3.35l5.83 2.44a23 23 0 0 0 7.9 17.4c7.69 7 13.7 15.46 19.81 23.84a14.62 14.62 0 0 1 2.58 11.79c-.41 2.41-1 4.79-1.52 7.17 38.42-5.4 76.8-6.14 115-8.15 0-.45.11-.64 0-.79-.34-.84-.71-1.66-1.07-2.49-6.09-13.95-10.19-28.35-10.08-43.74 0-4.18-.42-8.36-.34-12.54.27-15.19-6.48-27.59-15.09-39.42-4.8-6.58-9.85-13.2-13.26-20.51-7-15-5.63-30.36.09-45.59 2.16-5.76 3.94-11.68 5.56-17.62 1.28-4.69.66-9.52.89-15.33-7.18 6-13.58 11-21.53 13.47-8.17 2.53-16.24.09-24.29-.67-8.77-.82-12.9-9.16-19.57-14.2a14.4 14.4 0 0 0-.47 2.2c0 10.71-.2 21.44.12 32.14.43 14.62-6.1 25-19.2 30.63-7.65 3.26-11.9 8.17-13.37 16-.07.36-.32.71-.29 1 .13 1.52-.16 3.36.6 4.48 6.57 9.76 15.16 17.05 26.44 20.88 15.48 5.24 31.64 6.38 47.75 7.67a39.65 39.65 0 0 0 20.66-3.82 6.8 6.8 0 0 1 3.11-.79 3 3 0 0 1 2 1.41 2.13 2.13 0 0 1-.31 2 9.73 9.73 0 0 1-2.72 1.74 43.65 43.65 0 0 1-22.75 4.33c-11.39-1.08-22.8-2.2-34.08-4-14.47-2.33-27.61-7.78-37.7-19-1.54-1.71-3.07-3.43-4.77-5.33-.43.7-.87 1.11-.92 1.56-1.43 12.31-2 24.59 1.78 36.66a10.12 10.12 0 0 1 .84 3.69 14.76 14.76 0 0 1-1.38 3.8c-1.17-.58-2.73-.87-3.43-1.81-2.06-2.75-3.82-5.74-5.63-8.68a50.1 50.1 0 0 1-7.63-28.49c.14-5.84-.01-11.64-.01-18.66zM272.66 442.15c2.19 5.14 0 9.2-1.45 13.21-3.89 10.54-8.11 21-12.12 31.46a42.9 42.9 0 0 1-11 16.7c-1.07 1-2 2.13-3.16 3-10.23 7.84-20.14 16.16-30.86 23.28-9.65 6.4-20.17 11.5-30.35 17.09a11.2 11.2 0 0 1-3.34.66c-1.62-3.45.82-4.16 2.64-5.18 8.7-4.9 17.79-9.22 26-14.81 11-7.43 21.33-15.73 31.77-23.89a42.85 42.85 0 0 0 14.23-19.58c3.61-10.06 7.7-20 11.47-30 1-2.8 1.71-5.74 2.71-9.17a18.51 18.51 0 0 1-3.47 0c-4.74-1.15-9.47-2.34-14.16-3.67-.67-.19-1.64-1.38-1.51-1.86.23-.9 1-2.14 1.82-2.31a7.4 7.4 0 0 1 3.57.63c1.89.61 3.72 1.42 5.59 2.08 2.43.86 4.12.16 6.3-1.54 7.09-5.51 12.27-13.37 21.31-16.7-2-1.84-3.71-3.22-5.21-4.77a7.65 7.65 0 0 1-2-3.16 3.51 3.51 0 0 1 1-2.69c.25-.28 2 .11 2.27.62 2.61 4.64 7.61 6.14 11.66 8.69a35.45 35.45 0 0 0 31.47 3.29c8-2.81 14.8-8.46 20.77-14.68a20.38 20.38 0 0 0 5.89-11.46c.56-4.31-.12-5.92-4.24-6.87s-8.57-1.11-12.88-1.51c-4.13-.38-8.36-.26-12.42-1-13-2.45-26-5.18-38.94-7.87a15.23 15.23 0 0 0-10.02 1.09c-9.92 4.82-19.9 9.52-29.68 14.6-10.48 5.44-20.71 11.34-31.15 16.84-3.63 1.91-7.93 2.67-11.31 4.9-5.74 3.79-12.79 5.17-17.88 10.05a1.76 1.76 0 0 1-1.47.44c-3-1.06-5.32.78-7.71 1.84-6.64 3-13.17 6.14-19.73 9.26a78.4 78.4 0 0 0-9.17 4.58c-4.87 3.15-9.53 6.64-14.21 10.09-3.21 2.37-6.28 4.93-9.43 7.39a9 9 0 0 0-3.72 8.48 102.77 102.77 0 0 1-.14 12.53c-1 22.3-7 43.72-12 65.28a101 101 0 0 0-1.85 34.06c.91 8.37 2.84 16.61 7.4 23.73 5.71 8.92 5.78 17.6 1 26.78a92.49 92.49 0 0 0-4.08 10.09 25.18 25.18 0 0 0-.79 3.69 22.86 22.86 0 0 0 10.92 1.21c8.31-.83 16.74-1.4 24.65 2.24 6.43 3 12.67 6.36 19.15 9.19a42.51 42.51 0 0 0 11.37 3.44c8.46 1.08 17 1.41 25.5 2.29a57.17 57.17 0 0 0 30.3-4.72c17-7.76 34.13-15.3 51.18-23a4.59 4.59 0 0 0 2.39-2c.93-2.37 2.56-2.08 4.46-1.76 3 .53 6.08.92 9.13 1.33 3.78.52 7.59.8 11.32 1.53 7.12 1.4 14.26 2.77 21.24 4.7 5.44 1.49 9.74.1 14.22-2.9 11.47-7.68 12.16-23.6 1-31.71-4-2.88-8.17-5.41-12.35-8-8.38-5.12-16.9-10-23.88-17.09-.77-.78-2-1.1-3.46-1.86a12.88 12.88 0 0 0-.57 3.09c.47 4.21-1.09 7.88-2.93 11.44-3.18 6.15-9 8.89-15.48 6.78-8.72-2.84-10.3-3.67-8.46-14.31a62.66 62.66 0 0 1 2.06-7c-4.54 2.59-5.32 6.92-6.22 11.11-1.74 8.12 4.82 17.14 13 18.35 3 .45 6 1.4 9 2.06a113.33 113.33 0 0 0 11.16 2.31 14 14 0 0 1 8.18 3.81c3.61 3.3 7.61 6.16 11.12 9.54a20.41 20.41 0 0 1 4 6.28c.3.66-.93 2-1.46 3.06a9.35 9.35 0 0 1-2.63-1.43c-1.32-1.43-2.22-3.27-3.62-4.6-2.37-2.23-5.18-4-7.45-6.31-3.43-3.48-7-5.93-12.24-6-3.34-.07-6.64-1.69-10-2.59-1.75-.47-3.5-1.26-5.26-1.3-8.92-.21-13.71-6.13-17.43-13-3.58-6.58-.59-19.86 5.28-24.59a15.72 15.72 0 0 1 6.88-2.74c2.27-.42 4.7 0 7.06.15 3.93.23 7.86.53 11.68.79.84-2.36-.14-2.9-2-3-3.63-.21-7.26-.45-10.86-.88-6-.72-10.24-3.43-11.14-10-.27-2-1.23-3.81-1.64-5.76-1.2-5.68-1-11.27 2.13-16.35 1.94-3.17 4.23-6.13 6.54-9.43-4.5-1.81-8.31-5.34-13.62-5.79-4.72-.4-7.78-3.73-9.21-7.62a30.47 30.47 0 0 1 .46-23.38 17.65 17.65 0 0 1 5.58-6.49c4.58-3.41 9.54-6.32 14.11-9.29.59-16.55 1.48-32.68 13.12-45.67-4.76-5.68-8.21-5.22-15.1 2 .67 0 1.23-.17 1.59 0 1 .53 1.87 1.21 2.8 1.84-.63.79-1.1 1.86-1.92 2.32-3.44 2.13-7.09 3.93-11.07 6zM173.78 84.38c.28 4.69.49 8.66.76 12.64 1.13 17.21 2 34.46 3.57 51.63.49 5.29 2.57 10.55 4.6 15.55 4.27 10.53 11.79 19.12 17.81 28.61a13.41 13.41 0 0 0 6.36 5.67c3.35 1.31 6.82 2.32 10.28 3.35 5.2 1.55 10.45.25 15.68.29 7 0 12.58-2.85 17.79-7.05 5.66-4.55 11.34-9.09 17.1-13.51a33.56 33.56 0 0 0 12.77-20.19c2.94-13 2.54-26.33 4.24-39.44.55-4.31.46-8.7.89-13 .08-.77 1.29-2 2-2s1.74 1 2.16 1.88a5.7 5.7 0 0 1 .09 2.68c-.12 2.54-.34 5.07-.4 7.61 0 1.9 2.79 5 4.77 5.22 2.83.26 3.11-2.06 3.47-4 .6-3.22.95-6.48 1.46-9.71 1.31-8.16-.41-16.21-.4-24.61a43.34 43.34 0 0 0-5.31.43 10.26 10.26 0 0 1-11.86-6.26c-2.18-6.15-4.5-12.26-7-18.28-2-4.83-4.47-9.48-6.64-14.25-1.35-2.94-3.26-5.87-3.62-9-.47-4-2.73-5.3-5.9-5.91a11.63 11.63 0 0 0-5.38.09c-4.3 1.32-8.5 3-12.7 4.58-3.46 1.33-7 2.28-9.65 5.4a34.62 34.62 0 0 1-20.32 11.99 19.94 19.94 0 0 0-12.32 7.49c-1.8 2.28-3.82 4.39-5.59 6.69a46.16 46.16 0 0 1-13.29 12c-1.87 1.03-3.66 2.28-5.42 3.41zM105 644.47c2.4-5.88 4.64-11.59 7.07-17.23a18.07 18.07 0 0 0-.94-17.2c-2.63-4.55-5-9.26-7.33-14-.71-1.42-1.75-3.36-1.29-4.55 1.29-3.4-.2-6.42-.51-9.59-1-10.15-1.51-20.33.56-30.39 2.6-12.62 5.44-25.2 8.43-37.73a158.17 158.17 0 0 0 4.72-38.31c0-1.35-.23-2.7-.46-5.3-2.74 2.94-4.7 5-6.61 7.1-6 6.63-12.94 11.65-22 13.12-10.39 1.68-20.76 3.45-31.18 4.91-5.88.82-6.26.89-5.59 6.56 1.35 11.36 2.88 22.7 4.15 34.06.55 4.87.39 9.82 1 14.67 1.35 10.07 3.07 20.08 4.52 30.13.31 2.15.09 4.36.21 6.54.25 4.16.44 8.33.9 12.47.51 4.59.69 9-1.8 13.23-.68 1.15-.64 2.75-.91 4.15a61.94 61.94 0 0 1-1.35 6.8c-1 3.29-2.3 6.5-3.58 9.7-1.8 4.5-.88 9 .3 13.35a9.94 9.94 0 0 0 6.78 7.08c2.36-5.29.52-11.33 4.55-17.13 1 2.53 2.17 4 2 5.32-.59 5.75-.85 11.68-2.54 17.14-4.11 13.35-9 26.47-13.47 39.71a18.71 18.71 0 0 0-1.16 5.82c0 2.87 2.15 4 4.39 2.29a20.24 20.24 0 0 0 5.47-6c3.54-6.52 6.65-13.27 9.88-20 1.34-2.78 2.33-5.76 3.9-8.39a16.83 16.83 0 0 1 4.66-5.16c3.44-2.38 7-.81 7.82 3.25a25.32 25.32 0 0 1 .2 6c-.26 5.45-1.26 10.94-.75 16.31a20.28 20.28 0 0 1-1.23 9.38c-.5 1.34-1.2 2.6-1.77 3.91-1 2.37-1.81 4.76-.45 7.25 4.54.72 5.6.42 7.25-3.48 2-4.67 3.63-9.48 5.14-14.32 2.21-7.08 4.31-14.21 6.21-21.38 1.39-5.24 2.35-10.59 3.59-15.87.67-2.86 1.51-5.69 2.44-9.12-3-.68-6.3-1.37-9.59-2.23-1.64-.43-4.18-.45-3.7-3s2.62-1.95 4.46-1.55c2.55.62 5.02 1.13 7.61 1.68zm20.58-249.2c-3.12-2.13-6.23-4.29-9.39-6.38-6-4-12-8.21-18.22-11.84-10.63-6.18-21.94-5.48-33.27-2.23-4.34 1.24-4.53 1.69-4.71 6.08-.92 22.39-4.53 44.42-9 66.33a166.67 166.67 0 0 0-3.08 34.66 81.08 81.08 0 0 0 .94 8.51c3.37 0 6.11.31 8.76-.06 8.62-1.2 17.22-2.53 25.79-4.06 6.46-1.15 12.8-2.69 17.55-7.86 4.06-4.41 8.2-8.75 12.47-12.95a7.3 7.3 0 0 0 2.19-6.37c-.41-4.89-.7-9.79-.94-14.69a22.82 22.82 0 0 1 .19-6 3.32 3.32 0 0 1 2.54-2c.84.07 1.72 1.45 2.26 2.44.28.51-.24 1.4-.22 2.12.2 5.34.44 10.68.69 16.58 7-4.89 13.29-9.15 19.41-13.63a5.09 5.09 0 0 0 1.76-3.6c0-5.93-.67-11.61-6.76-15-3-1.67-4.08-4.67-2.85-8a142.36 142.36 0 0 1 5.49-13.56c2.5-5.08 2.16-9.63-1.33-15-3 5.27-6.15 9.72-8.22 14.61S124.45 413.73 123 419c-.39 1.44-.57 3.31-2.43 2.8-.87-.24-1.76-2.14-1.8-3.31a17.37 17.37 0 0 1 .91-5.88c1.88-5.88 3.95-11.61 5.91-17.34zM484.93 76.63l-23.68 24.68c1.29.33 2.66.78 4.06 1 1.93.31 4.73 0 4.26 2.84-.43 2.6-3.27 2-5.07 1.56-4.71-1.16-9.35-.82-14.07-.21-3 .39-6.05.35-9.08.58-2.67.2-5.34.5-8.54.81.18 3.85-.08 7.52.61 11a36.18 36.18 0 0 1 0 15.12c-2.45 11.07-2.5 22 2.23 32.56.66 1.48.82 3.18 1.45 4.68a60 60 0 0 0 3.72 7.85c3.64 5.94 8.77 10.58 13.81 15.3a17.18 17.18 0 0 0 10.71 4.77c3.25.27 6.48.89 9.74 1.05a23.2 23.2 0 0 0 6.44-.54c8.24-1.94 14.73-6.92 20.76-12.52 4.52-4.2 9.24-8.35 11.72-14.19 3-7.18 5.67-14.47 6.49-22.36.58-5.59 2-11.08 2.91-16.62.58-3.4 1.08-6.81 1.38-10.24.1-1.14-.16-2.93-.92-3.43-3.66-2.46-3.58-6.09-3.49-9.74a75.76 75.76 0 0 0-4.53-28.29c-3-8.1-8-14.57-16.8-16.74a15.15 15.15 0 0 0-7.79 9 114.14 114.14 0 0 0-3.6 12c-.82 3.53-1 7.19-1.63 10.77-.24 1.43-.74 3.29-2.6 2.64-1-.33-1.6-2.06-2-3.28a6.2 6.2 0 0 1 .32-2.67c1.03-5.78 2.09-11.47 3.19-17.38zm70.32 137.31c.18 2.69.25 4.46.43 6.23.74 7.52 1.17 15.1 2.37 22.56.88 5.45 2.28 11 7.49 14.82a20.57 20.57 0 0 0 1.35-2.59c1.43-4.14 4.68-5.72 8.67-6.45 4.27-.77 8.5-1.74 12.76-2.55 2.35-.45 4.73-.73 7.5-1.15-1.25 3.69-3.33 5.08-6.21 5.6-4.45.79-8.91 1.6-13.32 2.6-1.52.34-3.83.92-4.21 2-1.74 4.75-5.41 8.77-4.35 14.61a229.65 229.65 0 0 1 4.07 49.32 93.43 93.43 0 0 0 1 15.21c.81 6.18 3 11.81 8 15.88a6.65 6.65 0 0 0 2.93-7c-.71-4.67-1.33-9.36-1.77-14.05a44.27 44.27 0 0 1 0-8.14c.17-1.75 1.23-3.08 3.76-1.88.23 3.22.3 6.65.75 10 1.37 10.08 2.61 20.18 4.46 30.17.91 4.94 2.89 9.71 4.68 14.44.63 1.65 2.15 3 3.39 4.62 2.08-2.73 2.25-4.92 1.51-7.36a55.42 55.42 0 0 1-1.46-6.37c-2.89-16.17-2.79-32.53-3-48.87a8.91 8.91 0 0 1 .21-3.24 13.13 13.13 0 0 1 2.08-2.77c.84.81 2.11 1.47 2.44 2.45 4.54 13.39 8.94 26.83 13.41 40.24.72 2.17 1.08 4.94 4.47 4.32 1.91-.35 2.42-2.35 1.38-6.11-2.46-8.91-5.1-17.79-7.53-26.71a288.2 288.2 0 0 1-3.93-16.36c-.19-.91.81-2.06 1.27-3.11.91.44 2.26.63 2.65 1.35a27.48 27.48 0 0 1 2 5.57c2.56 9.26 5 18.54 7.59 27.8.13.47.6.85.94 1.32 3-4.13 4.16-7.31 2.78-12.89-2.16-8.78-5-17.41-7.64-26.05-.46-1.48-1.34-3 .52-3.6a3.94 3.94 0 0 1 3.58 1.13 27.87 27.87 0 0 1 2.64 6.5c1.07 3.36 1.95 6.77 3.21 11.18 2.29-3.57 2.91-6.29 2.44-9.18a30.88 30.88 0 0 0-4.83-13.16c-1.33-1.9-2.1-4.17-3.24-6.22-1.38-2.5-2.5-5.28-4.38-7.33-7.81-8.48-13.82-18.09-15.4-29.48-1.27-9.05-4.64-17.07-8.19-25.23-2.73-6.28-7.24-9.88-14-10.39-8.15-.62-16.3-1.1-25.27-1.68zM192.56 190c.28 9.27.73 17.6.67 25.92 0 3.16-1.16 6.33-1.95 9.45-.13.49-1.1.77-1.83 1.24l-3-2.76-8.3 1.78a73.53 73.53 0 0 0 2.5 7.52c2 4.46 4.71 8.65 6.41 13.22 3.47 9.38 11.44 12.63 19.87 15.18 4.84 1.47 9.94 2.07 14.88 3.23 6.36 1.5 12.62.75 18.88-.51 10.28-2.08 18.43-8 26.66-14.11 9.5-7.07 14.39-16.53 16.94-27.61a19.35 19.35 0 0 0 0-4l-5.41-1.55c-2.15 1-3.79 2.51-5.1 2.27-2.45-.47-2-3-2.11-5-.31-6.34-.74-12.67-.89-19-.07-3 .4-6.05.69-10-5 4-9.33 7.45-13.65 11-5.67 4.63-11.67 9.14-19 10.11-8.76 1.16-17.65 1.38-26.5-.63-7.3-1.66-12.94-5.15-16.63-11.72a40.19 40.19 0 0 0-3.13-4.03zM162.22 85.76l1.51.33c9.17-7.22 20.14-12.07 26.93-22.42a31.4 31.4 0 0 1 21.61-14.37c5.23-.89 9.2-4.17 13-7.64 2.27-2.09 4.33-4.42 6.68-6.41a15.56 15.56 0 0 1 4.66-2.67 69.63 69.63 0 0 1 7.18-1.93c3.52-.87 7-1.94 10.59-2.46 4.63-.67 12.29 1.91 15.49 4.78-2 4.85-1.84 7 1.33 11.51a62.21 62.21 0 0 1 8.36 17.63 138.69 138.69 0 0 0 6.54 16.14c1.49 3.31 2.5 3.57 6.07 2.66 1-.27 2-.69 3.12-1.06.5-1.58 1-3.09 1.13-3.55a73.13 73.13 0 0 1-2.78-7.93c-2-8.85-3.61-17.79-5.76-26.61-1.39-5.68-3.69-11.3-8.33-15-5.14-4.12-9.3-9.79-16.3-11.34a7 7 0 0 1-2.65-1.86 35.46 35.46 0 0 0-24-8.88c-8.36-.08-16.33 1.67-23.4 6.13-4.42 2.79-8.25 6.51-12.48 9.62-9.23 6.76-18.73 13.16-27.77 20.16-8.65 6.71-13.58 15.6-12.77 26.89.42 6.09 1.34 12.18 2.04 18.28zm123.54 436.53c8.43 1.25 15.67 2.82 23 3.25 7.6.46 15.26 0 22.88-.41a83.46 83.46 0 0 0 12.9-1.61c1.76-.37 4-1.69 4.73-3.19 3.21-7 5.25-14.36 3.74-22.19-1.11-5.76-3.81-11.26-9.36-13-5.36-1.71-11.43-1.35-17.2-1.58-2.86-.12-5.77.83-8.63.68-8.87-.48-17.74-1.19-26.59-1.94-2.69-.23-5.32-.77-7.95 1.54 3.21 1.17 6.11 2.12 8.92 3.28 3.07 1.27 6.28 2.93 7.27 6.19 3.36 11 4.72 21.58-10.68 27.47-.68.22-1.26.59-3.03 1.51zM381 587.75c-.14-2.59-.11-4.55-.36-6.48-1.49-11.68-3.36-23.32-4.5-35-1.36-14.07-2-28.2-3.17-42.28a121.79 121.79 0 0 0-6.83-30.71 24.75 24.75 0 0 0-2.24-3.79c-3.39 6.37-6.34 11.94-9.59 18.07 8.24 12.77 5 25.79-1.42 38.93 3.94 4.32 6.75 9.33 7.14 15.34a32.53 32.53 0 0 1-3.36 17.34 22.27 22.27 0 0 1-13.17 11.41c12.68 6.76 22.67 16.1 37.5 17.17zM314 531c.09 1.52.22 3 .25 4.37.09 4.89.39 9.78.15 14.65-.27 5.32-3.94 10.13-8.05 10.33a77.64 77.64 0 0 1-13.54-.66c-3.5-.44-5.71-2.6-6.51-6.35-.88-4.16-1.37-8.21-.3-12.38.39-1.56.52-3.18 1-5.94-5.44 6.67-6.67 11.19-5.21 17.64.56 2.48 1.49 4.86 2.09 7.33.69 2.82 2.42 4.55 5.23 4.77 5.94.45 11.95 1.29 17.85.85 12.12-.9 24.16-2.86 36.28-3.72 5.86-.41 9-2.8 10.24-8.32.2-.88.57-1.73.76-2.61a22.83 22.83 0 0 0-3.7-18.64c-1.13-1.61-3.36-3.55-5-3.48-10.37.44-20.64 1.38-31.54 2.16zM186.5 420.4c8.35-2.13 8.42-2.2 9.89-9.76.07-.36.07-.73.17-1.08 4.31-14.7 11.95-26.64 27.57-31.13a100.42 100.42 0 0 1 19.27-3.34c7.07-.59 14.17-.12 20.61 3.67a5.56 5.56 0 0 0 4.1.59c3.5-1.24 6.85-2.94 11-4.77-7.26-6.32-14.91-9.83-23.7-10a108.18 108.18 0 0 0-19.54 1.29c-14.65 2.41-26.92 9.55-37.1 20.3-9.14 9.61-10.88 21.74-12.3 34.26zM299.36 462c4.92-4.13 10.49-5.53 16.73-5.07 6.8.5 10.48 3.46 11.26 10.15.43 3.68.08 7.44.08 11.38 7.94.6 15.69.08 22.74 4.75a38.52 38.52 0 0 0 3.21-4.52c1.68-3.21 3.25-6.49 4.66-9.83 2.49-5.88 1.1-9.69-4.85-12.27-8.36-3.62-17-6.18-26.28-6.05a67.83 67.83 0 0 0-17.6 2.95c-4.58 1.31-8.03 3.84-9.95 8.51zm-117.79-39.2c.68-4.81 1.38-8.92 1.83-13.06 2-18.24 12.66-30.43 27.58-39.61 13.48-8.29 28.4-10.83 43.93-10.31 11.16.37 20.9 4.26 28.41 12.86 1.19 1.37 2.34 2.75 5.11 1.83-1.51-2.2-2.74-4.15-4.12-6-3.77-5-9.24-7.32-14.85-9.64-9.45-3.91-19.15-5.79-29.26-4.18a129.18 129.18 0 0 0-18.54 4.31c-10.48 3.29-20.47 7.66-27.63 16.57q-4.44 5.52-8.53 11.31c-8 11.3-10 24.16-10 38.13zm96.36 65.5c-4.4-.55-8.16.44-9.88 4.9-1.91 4.94-2.93 10.06-1.58 15.45.68 2.7 1.79 4.54 4.75 5.18s5.91 1.74 8.84 2.68c7.94 2.56 17.12-4.32 16.81-12.61-.35-9.55-3.46-13.2-13-15-1.94-.41-3.96-.42-5.94-.6zm-77.07-75.15c7.16-2.17 8.95-3.59 11.93-9.39 5.66-11 20.56-18.7 31.89-16.51 6.23 1.2 10.53-.11 15.75-5.1-2.15-.62-4-1.26-5.86-1.66-9-1.94-17.72-.21-26.41 1.74-15.2 3.41-23 14.19-27.27 28.23a10 10 0 0 0-.03 2.69zm94.05 115.06c-.72 1.64-1.05 2.69-1.59 3.61-3.08 5.19-3.74 10.95-3.35 16.74.39 5.94 1.54 6.77 7.36 7.24 1.81.15 3.63.2 5.45.17 4-.07 6.44-1.69 6.8-5.51.63-6.63 1.19-13.35-1.45-19.92zm259.45-200c-.63.15-.92.14-1 .24-7.49 15.4-7.36 31.55-3.07 47.55 1.23 4.63 5.3 8.5 8.07 12.72 3.2.13 6.4.27 9.61.38.15 0 .32-.15 1-.49-.7-1.73-1.32-3.56-2.18-5.28-2.12-4.2-4.28-8.39-6.54-12.51a55.87 55.87 0 0 1-6.4-36.21c.3-2.06.33-4.19.51-6.44zM321.49 478.77c2-4.43 1.69-8.22 1.12-12-.36-2.31-1.67-4.35-4.07-4.54-3.55-.27-7.32-.61-10.67.28-4.78 1.28-6.12 4.07-5.79 9.05.14 2 .36 3.91.59 6.34zm-32.78 98.55a25.8 25.8 0 0 0-2.32 4.1 90.12 90.12 0 0 0-2.65 9.24 3.75 3.75 0 0 0 .88 2.94c3 3.17 10.06 3.25 13.07.31 3.6-3.52 5-10.58 2.88-15.83zm129.93-179.87c4.06-6.17 5.64-12.3.87-18.49-4.64-6-9.22-12.08-14.06-17.94a106.63 106.63 0 0 0-7.69-7.64 22.92 22.92 0 0 0 5.13 13.8c2.67 3.42 5.71 6.54 8.56 9.82 3.81 4.39 7.4 8.83 6.47 15.31-.23 1.69.46 3.42.72 5.14zM241.71 393c-10.23-1.66-21.64 5.08-24.28 13.57zM168.78 95.27c-2.25.63-2.79 2.29-2.56 4.21q1.28 10.72 2.75 21.44a8.82 8.82 0 0 0 1.07 2.35c.3-9 0-17.85-.32-26.66-.02-.44-.58-.85-.94-1.34z"/><path d="M540.12 239.1c.9.91 2 1.59 2.42 2.58a10.34 10.34 0 0 1 .52 4.26c-.58 9.62 1.83 18.64 5.36 27.45a9.89 9.89 0 0 1 1.14 3c.06 1.32 0 3.14-.76 3.85s-2.74.83-4 .47c-8-2.32-16.5-13.22-16.68-21.6a16.34 16.34 0 0 1 1.89-7.77 84.2 84.2 0 0 1 7.07-10.22c.63-.77 1.75-1.12 3.04-2.02zm-2.74 9.71c-7.57 8.6-5.21 19.3 5 24.29-1.6-7.91-3.27-15.96-5-24.29zM465 578.08c-7.27 8.32-12 17.58-11.22 29a15.23 15.23 0 0 0 15.05 14.21c17.18.6 29.59-12 33.7-26.51a5.18 5.18 0 0 0 .14-.53c.66-3.57.51-7.09-2.52-9.5s-6.87-2.38-10.31-.77c-5.68 2.66-9.75 6.8-11.06 13.27-.42 2.11-.2 4.81-3.44 6-.38-.85-1-1.62-1-2.32.79-9.72 5.55-16.77 14.54-20.66 4.61-2 9.43-1.78 13.44 1.36s5.21 7.78 4.09 12.78C502.51 611.75 487 627.13 466 625a17.77 17.77 0 0 1-15.81-15.41 35.59 35.59 0 0 1 4.47-23.08c1.81-3.14 3.76-6.2 5.95-9.79-5.49-3.53-4.86-9.31-4.45-15.22-9.38.78-17 4.1-22.95 10.71-1.33 1.48-1.7 3.87-2.33 5.9a19.18 19.18 0 0 0-.41 3.55c-2.71 0-3-1.7-3.05-3.33a12 12 0 0 1 3.76-9.31 36.48 36.48 0 0 1 16.15-9.74c2.27-.64 4.55-1.3 6.87-1.71a7.67 7.67 0 0 0 5.5-3.89 36.34 36.34 0 0 1 14.94-14 20 20 0 0 1 8.29-2c4.66 0 6.39 3 4.75 7.42a13.34 13.34 0 0 1-7.66 8.08c-4.87 2-9.89 3.56-14.82 5.39-1.77.66-4.18.43-4.77 3-.75 3.2-1.46 6.46.19 9.58 1.06 2 3 2.4 5 1.18 1.08-.65 2-1.65 3.11-2.19a72.66 72.66 0 0 1 8.94-3.87 4.5 4.5 0 0 1 5.64 2.17c1.26 2.36 0 4.27-1.69 5.77a16.69 16.69 0 0 1-11.52 4.18c-1.64-.02-3.27-.19-5.1-.31zm-.78-23.5c13.92-2.88 19.27-6.44 19.57-12.69-6.49-.96-14.44 4.11-19.58 12.69zm6 19.73c4 .29 6.77-.71 9.45-4.19a12.86 12.86 0 0 0-9.51 4.19zM546.48 557.92a14.09 14.09 0 0 1-.3-3.79c1.74-8.71 3.59-17.4 5.44-26.1.45-2.12 1-4.21 1.54-6.34-6.48-.53-22.58 4.53-29 9.06-2.29-1-1.87-2.7-.38-3.71a36.42 36.42 0 0 1 8.53-4.63c5.15-1.74 10.48-2.92 15.76-4.25 4.59-1.16 8.41-2.86 9.73-8.2.57-2.32 2.48-4.42 4.11-6.34a4.71 4.71 0 0 1 6.37-1.19c2.16 1.22 2.49 3.05 1.43 6.18a12 12 0 0 1-6.66 6.88c-3.87 1.84-5.57 4.9-6.55 8.74-1.14 4.5-2.38 9-3.91 14.66 2.95-2.24 4.72-3.78 6.68-5 4.33-2.74 8.56-.72 8.93 4.38a38.73 38.73 0 0 1-.61 7c-.3 2.59-.66 5.18-1 8.21a8.21 8.21 0 0 0 6.82-4.19c4.36-6.5 7.17-13.74 9.84-21.08-3-2.91-6.68-3-9.94-2.78-3 .15-6 1.77-9.07 2.76-1.42-1.41-.43-2.59.71-3.55a11.73 11.73 0 0 1 9.6-2.89c3.2.47 6.39 1.06 9.92 1.65a38.5 38.5 0 0 1 2-4.9c.45-.81 1.55-1.25 2.35-1.86.52.84 1.42 1.65 1.48 2.52a35 35 0 0 1-.35 5.24c5.64 2.52 8.41-3 12.57-4.49.87 6.13-4 8.75-13.92 9.34-2.07 5.32-3.54 10.87-3.06 16.77.33 4 1.51 4.71 5.25 3.16 1.48-.61 2.84-1.88 4.27 0-1.82 3.47-5 5.45-8 4.76-4.38-1-5-4.72-5.89-9.24-1.22 1.74-2 3-2.94 4.14a66.66 66.66 0 0 1-5.62 6.57c-1.91 1.82-4.43 2.72-7 1.4s-2.9-4-2.56-6.63 1.14-5.34 1.42-8a38.28 38.28 0 0 0-.35-5.92c-5.89 1.5-8.44 5.43-10.53 9.67-1.94 4-3.53 8.09-5.27 12.14zm15.27-47.61c3.77-1.5 3.77-1.5 3.53-5z"/><path d="M518.74 557.25c-2.66 3.47-4.79 6.6-7.29 9.4a28.17 28.17 0 0 1-6.51 5.69c-3.57 2.09-6.75.27-6.63-3.89A108 108 0 0 1 500 555c.12-.73 1-1.35 1.65-2.31 2.89 2.93.59 5.75.65 8.36a68.58 68.58 0 0 1-.66 7.8l1.18.62a33.34 33.34 0 0 0 4.71-4c2.63-3.22 5-6.67 7.43-10.06 3-4.13 5.91-8.23 10.41-11 5.71-3.47 9.22-3.08 13.91 2 2.22-1 2.13-6.32 7-3.72-8.49 12.16-7.17 26.68-11.41 40.3 8.91 0 17.05.35 25.15-.1 7.83-.45 15.62-1.72 23.35-2.62.73 3-1.16 3.33-2.69 3.58-6.08 1-12.15 2.38-18.27 2.67-9.43.45-18.89.12-28.54.12-.74 1.63-1.31 2.9-1.9 4.16-1.39 3-2.66 6-4.25 8.81a15.87 15.87 0 0 1-3.5 4.12c-3.61 3.11-7.61 3.42-11 1.1-2.92-2-4.39-7-3.06-10.81 1.45-4.18 4.1-7.31 8.53-8.46 3.84-1 7.75-1.77 12.35-2.81 1.25-5.45 2.57-11.2 4.19-18.3-4.3 2.09-7.6 3.68-11.11 1.66-3.19-1.84-4.6-4.82-5.38-8.86zm17.92-6c-.47-.85-1.06-3.43-2.61-4.3s-4.65-.82-6 .21a12.35 12.35 0 0 0-5.05 11.41 4.92 4.92 0 0 0 6.7 4.28c3.46-1.38 6.94-6.51 6.96-11.6zm-7.54 37.33l-1.3-1.27a76.87 76.87 0 0 0-9.21 2.41 7.84 7.84 0 0 0-4.8 9.21c.69 2.92 2.9 4.32 5.65 3.16a9.24 9.24 0 0 0 4.14-3.23c2.08-3.28 3.71-6.86 5.52-10.28zM561.13 479.37c1.41.5 2.74 1 4.08 1.44 3.78 1.33 4.28 2.45 2.68 6-1.74 3.9-1.74 3.9-1.36 7.18 2.12.92 3.44-.35 4.39-1.93 2.51-4.16 5.62-8 6.43-13.06.69-4.4 3.13-8.11 6.31-11.23 2.43-2.37 5.21-2.91 7.39-1.64 2.33 1.35 3.3 4.55 2.16 7.76-1.67 4.73-5.55 7.53-9.43 10.25-4.86 3.42-5 4.76-1 9.67 4.53.61 6.36-5.55 11.26-4.94-1.42 4.48-7.2 9.1-10.81 9-2.49-.05-3.8-1.18-7-6.21-1.07 1.31-2 2.52-3 3.65-2.54 2.82-5.72 3.75-8.24 2.46s-3.58-4.33-2.56-8.12c.42-1.55 1.07-3 1.71-4.86l-4.87-1.77c-2.32 4.06-4.46 8-6.82 11.86-2.88 4.67-4.54 5.36-10 4.61a45.29 45.29 0 0 1-3.89 4.36c-2 1.74-4.38 2.91-7 1.87s-3.77-3.37-4-6.06c-.41-5.28 1.55-10 4-14.47.41-.74 1.88-.91 3.72-1.72-1.55 6.85-6.35 12.29-3.1 18.71 3.94.08 5.4-2.36 6.52-4.81 1.65-3.62 2.88-7.43 4.39-11.12 1.12-2.71 1.47-5.94 5.32-8.11.76 6.62-3.93 11.67-3.1 18 1-.54 2.08-.71 2.44-1.29 2.54-4.18 5.07-8.38 7.28-12.74.51-1-.06-2.74-.45-4-.95-3.22-1.3-6.43-.09-9.62 1-2.72 3.29-4.26 5.3-3.83a5.09 5.09 0 0 1 3.49 5.54 84.09 84.09 0 0 1-2.15 9.17zm27.65-10.85c-4.23 3.51-7.12 6.73-7.43 12.08 7.03-3.95 8.71-6.4 7.43-12.08zm-29.16 1.31l-1.33-.41c-.21 1.28-.45 2.55-.62 3.84 0 .09.41.25 1 .59.33-1.46.65-2.74.95-4.02zM468.63 496.67c1.2-6.34 2.15-12.39 8.23-15.5-.39 4.76-4.45 8.17-3.67 13.34a4.07 4.07 0 0 0 4.5-2.93c.7-1.79 1.16-4 4.51-3.74-1.13 4.93-2.24 9.73-3.64 15.83-1.62-2.48-2.42-3.72-3.21-4.92-3.21.25-3.63 2.42-4 4.94-.6 4.68-1.24 9.37-2.28 14a26.93 26.93 0 0 1-9.1 15.17c-4.95 4.07-10.65 6.13-17.18 5-3.75-.65-6.1-2.91-7.44-6.43-4.1-10.84 1.34-21.3 12.51-24a6 6 0 0 0 2.85-1.29c4.29-4.55 9.69-6.94 15.6-8.47a23.24 23.24 0 0 0 2.32-1zM454.41 508c1.09 3.9 2.35 6.9 2.65 10 .27 2.72-2.18 4.88-4.68 5.12-2.26.21-4.29-1.34-4.87-4.22a56.47 56.47 0 0 1-.6-6.93c-7.32 2.6-10.54 8.85-8.49 16.31 1.34 4.85 3.82 6.78 8.71 6.09 3.95-.57 7.77-1.74 10.8-4.67 7.95-7.66 9.13-17.54 9.93-28.19-5.86.91-10.33 2.95-13.45 6.49zm-2.75 4.82c-1.13 2.9-1.16 4.55.68 6.3 1.88-2.06 1.1-3.68-.68-6.35zM519.85 491.85c2.38-.89 2.77-6 7.08-2.83-6.51 7.73-6.64 17.41-8.83 26.44-1.76 7.22-3.52 14.45-5.6 21.58-1.26 4.33-3.85 7.8-8.49 9.23-3.55 1.1-6.85.94-9.56-1.88-2.56-2.65-3.72-8.9-2.18-11.77.81-1.51 1.91-2.81 4.13-1-.29 1.06-.71 2.22-.92 3.42-.54 3.08.87 6.64 2.95 7.67 2.3 1.14 6.18 0 8.26-2.63a10.71 10.71 0 0 0 1.67-2.79 111.94 111.94 0 0 0 6.4-24.76c-3.52.88-7 1.57-9.28-1.15-1.88-2.27-3-5.21-4.69-8.42-1.37 1.85-3 3.84-4.35 6-1.59 2.42-2.86 5.07-4.53 7.43-2 2.87-4.09 3.63-6.44 2.65a5.41 5.41 0 0 1-3.39-6.2 101.63 101.63 0 0 1 2.26-10.61c.37-1.45 1.34-2.64 3.6-1.63-.05 4.78-3.59 9.34-1.74 15a11.6 11.6 0 0 0 2.64-1.29 6.45 6.45 0 0 0 1.55-2.21c3.29-7.25 8.54-13 14.12-18.48 4.8-4.74 7.88-5.4 14-2.18a11.82 11.82 0 0 0 1.34.41zm-14.43 10.35c.15.84.05 2.28.65 3.3.85 1.44 2 3.2 3.42 3.64 1.09.34 3.11-.79 4.08-1.85a13.61 13.61 0 0 0 3.49-10 4.37 4.37 0 0 0-5.15-4.14c-2.99.74-6.43 5.34-6.49 9.05zM501.1 461.45a21.82 21.82 0 0 1-2.53 3c-5.79 4.77-12.58 7.12-20 7.88-7 .73-14.11 1.3-21.13 2.18-4.49.57-9 1.46-13.37 2.43a10 10 0 0 0-6.79 5.05c-.95 1.72-1.44 3.37.24 4.93s3.5 2.13 5.46.95a50.66 50.66 0 0 0 5-4c.12 1.78.59 3 .2 3.74a8.29 8.29 0 0 1-11.18 3.28c-4.42-2.43-5.4-6.46-2.65-11.1a13.1 13.1 0 0 1 9-6.54c6.59-1.24 13.22-2.28 19.86-3.19 4.49-.62 9-.8 13.55-1.29 7-.75 13.55-2.53 19.18-7 1.28-1.04 2.72-2.68 5.16-.32z"/><path d="M548.33 571.12c1.06-.69 2-1.76 3.21-2a74.44 74.44 0 0 1 10.69-1.65c6.5-.41 13-.47 19.53-.66 5.43-.17 10.86-.16 15.8-3.06.74-.43 2.13.24 3.23.4-.59 1-.95 2.28-1.79 2.87-3.36 2.36-7.25 3.16-11.3 3.3-6.88.24-13.76.38-20.62.8-5.39.33-10.76 1-16.14 1.56a10.29 10.29 0 0 1-2-.23zM492.8 486c-1.14 1.27-1.77 2.38-2.72 2.82-.37.17-2.14-1.27-2.05-1.73a5 5 0 0 1 1.91-2.76c.28-.17 1.51.89 2.86 1.67zM442.35 317.39c.26.42.77.87.78 1.32.07 7.64 3.71 14 7.65 20.05 7.42 11.5 8.35 23.75 4.36 36.5-.82 2.65-2.75 4.94-4.05 7.19-7-1.42-7.11-1.53-6.5-7.26a24.55 24.55 0 0 0-2.09-13.29 130 130 0 0 0-5.8-11.71c-4.35-7.32-4.65-15.22-3.56-23.24.86-6.35 3.19-8.46 9.21-9.56zm-3.8 7.8c-2.45 6.31-1.76 15.19 1.62 21.55 4.54 8.54 9.89 16.78 9.95 27.07a34.12 34.12 0 0 0-.45-27.31c-3.23-7.24-7.32-14.11-11.12-21.31zM196.88 351.91c-1.64 0-3.23.49-4.19-.09a48.32 48.32 0 0 1-7.82-5.73 4.61 4.61 0 0 1-.88-3.85 8.41 8.41 0 0 1 6.23-6.18c2.07-.58 4.23-.45 5.22 1.63 1.34 2.8 3.58 3.29 6.21 3.37a3.86 3.86 0 0 1 1.07.17c1.69.55 4 .87 3.43 3.3s-2.51 1.35-4.05 1.07a5.6 5.6 0 0 0-1.06-.18c-1.86 0-4.28-1.64-5.35.76-.52 1.19.58 3.1 1.19 5.73zm-5.71-11.82l-2.31 3.19c.53.37 1.25 1.16 1.55 1 1.49-.65 2.02-1.83.76-4.19zM180.09 365.72c-.05 4.84-4.12 8.82-9 8-2.9-.51-5.61-2.29-8.29-3.71-.5-.27-.9-2-.6-2.26a3.48 3.48 0 0 1 2.66-1.1 18.82 18.82 0 0 1 4.41 2.07c2.26 1.24 4.31 1 5.72-1.16s.23-3.78-1.65-5c-1.66-1.07-3.45-2-5-3.16a2.59 2.59 0 0 1-.85-2.25 2.73 2.73 0 0 1 2-1.36c4.39-.24 10.65 5.77 10.6 9.93zM289.32 339.19a23.66 23.66 0 0 0-2.84-2.27 3.14 3.14 0 0 0-4.37.72c-1.22 1.58-1.5 3.52.21 4.83a14.9 14.9 0 0 0 4.74 2.15c1.52.47 3 1.07 2.48 2.79-.26.81-1.89 1.57-3 1.67a9.17 9.17 0 0 1-9.43-11.84c1.71-5.05 8.42-7.11 12.56-3.87 1.84 1.41 1.82 2.48-.35 5.82zM309.33 363.76c-2.67.13-4.43.45-6.12.22-1.06-.15-2-1.12-3-1.72.78-.8 1.51-2.23 2.37-2.31a53.07 53.07 0 0 1 10.76-.23c2.7.29 3.46 2.64 1.76 4.84a93.22 93.22 0 0 1-6.53 7.26c-1.06 1.12-2.59 1.91-3.7.43-.5-.66-.17-2.38.36-3.29a48.69 48.69 0 0 1 4.1-5.2zM226 328.63a25.24 25.24 0 0 1 1.75 4.25c.18.86-.12 2.45-.65 2.68a3 3 0 0 1-2.84-.55 46.53 46.53 0 0 1-3-5.86 2.1 2.1 0 0 0-.75-.51c-1.53-.33-3.79 0-3.79-2.19 0-2.51 2.39-2.2 4.14-2.35 2.53-.21 5.05-.44 7.58-.55 1.43-.06 3.27-.08 3.21 1.88 0 .83-1.42 1.8-2.39 2.36a12.67 12.67 0 0 1-3.26.84zM257.19 329.34a34.16 34.16 0 0 1-1.06 5.34 2.85 2.85 0 0 1-2.35 1.47 3 3 0 0 1-1.59-2.34 40.54 40.54 0 0 1 .73-7.45c.16-.82 1.2-1.48 1.83-2.22a9.94 9.94 0 0 1 2.09 2.11c.38.75.23 1.75.35 3.09zM204.78 156.71c3 .94 5.46 2.09 8 2.42 12.67 1.67 24.82.12 36-6.56 1.85-1.11 3.34-2.83 5.2-3.89 3.07-1.74 5.42-.2 5.31 3.31a5.44 5.44 0 0 1-.46 2.11c-3 6.23-7.25 11.63-13.56 14.24-4.72 1.94-10.18 2.53-15.36 2.82-7.3.4-13.47-3.32-19.62-6.75a15.93 15.93 0 0 0-3.7-1.83c-4.27-1.06-4.59-2.14-1.81-5.87zm43.4 2.59c-9.85 2.24-18.93 5-28.79 4.76 10.13 4.94 22.32 2.99 28.79-4.76zM204.73 92.88c-4.65 6.3-7.35 6.41-12.77.67-2 1.12-4 2.26-6 3.43-1.27.73-2.62 1.71-3.84.16-1.45-1.84 0-3 1.31-4 7.51-5.68 15.68-7.09 24.57-3.71.95.36 1.89.75 3.69 1.47-1.72-4.11-4.2-5.91-7.57-6.24-2.68-.27-5.42.14-8.13 0a78.23 78.23 0 0 1-9.66-1.09c-.67-.12-1.41-1.53-1.52-2.42-.06-.47 1.17-1.11 1.85-1.64.11-.09.35 0 .53 0 6.13.25 12.29.23 18.38.83 5 .49 10.14 5.81 11.17 10.69.44 2.08-.11 3.12-2.52 3.77-3.51.86-6.29-.42-9.49-1.92zM240.73 94.18c6.53-2.87 13.08-2.33 19.65-1A10.84 10.84 0 0 1 263 94c1.59.79 3.81 1.55 3 3.8-.89 2.57-2.83 1.1-4.52.57s-3.16-1.27-5.06.08c-4.93 3.48-5.84 3.24-10.7-1.36l-5.69 3.47c-1.34-2.49-2.72-4.45-3.45-6.63a6.35 6.35 0 0 1 .52-4.16c1.63-3.59 4.11-6.52 8.19-7.34 6.07-1.22 12.16-1.81 18.15.63 1.67.68 3.5 1 5.08 1.85.78.4 1.17 1.56 1.73 2.37-1 .62-1.93 1.75-2.89 1.75a9.94 9.94 0 0 1-4.68-1.21c-4.61-2.59-9.53-2-14.35-1.51-4.57.37-6.4 2.51-7.6 7.87zM224.71 136.07c2.47-1.7 4.4-3.26 6.55-4.44s2.62-2.75 2.1-5c-.35-1.47-.41-3.32 1.53-3.3 1.06 0 2.47 1.34 3.08 2.43 1.71 3-.17 7.39-3.76 9.64a35.24 35.24 0 0 0-4.69 3.43c-3.31 2.92-7.4 2.65-9.7-1.13-1.28-2.1-2.54-3.63-5-4.48-2.89-1-3.83-3.76-3.69-6.65 0-.81 1-1.78 1.8-2.25.31-.18 1.83.73 1.93 1.29.48 2.72 2.39 3.45 4.56 4.63s3.58 3.84 5.29 5.83zM450.4 163.75c1.14-.78 2.38-2.31 3.27-2.13 5.78 1.18 11-1.65 16.64-1.79s10.77-.16 16 1.95c3.82 1.55 7.82 2.64 11.79 4-.7 4.68-2.9 7.65-6.91 9.34a35 35 0 0 0-5.32 2.71c-5.48 3.51-11.4 3.43-17.28 1.77a17.71 17.71 0 0 1-6.8-4.16c-3.79-3.44-7.11-7.25-11.39-11.69zm42.92 4.59c-10.52.46-20.68-4.77-31.55-2.24 5.3 8.29 20.64 9.4 31.55 2.24zM464.39 114.39l-2.16 3.86 3.18.87c.1 3.45-10.77 3.9-16.75.71l3.75-2.93c-.08-1.55-.75-2.49-2.72-2.16a25.77 25.77 0 0 1-5.39.45c-.68 0-1.93-1.06-1.87-1.49.14-.9.87-2.35 1.51-2.44 7.66-1.08 15.27-3.68 23.09-1a7.77 7.77 0 0 1 2.92 1.35 3.28 3.28 0 0 1 1 2.69c-.22.63-1.67 1.13-2.57 1.12a18 18 0 0 1-3.99-1.03zM510.15 114.14c.43 1.4.86 2.8 1.45 4.75h-7.08l-.85 1.07 4.45 1.74c-5.07 4.08-8.69 4.24-17.78 1.25l4.15-2.72c-.14-.63-.39-1.7-.7-3-1.23.09-2.19.13-3.14.23-1.83.19-4 .43-4.14-2s2.08-2.62 3.85-2.71a67.09 67.09 0 0 1 9.4-.14c3.54.29 7 1.09 10.54 1.67zM488.73 144.71c2.66 2 3 4.43 0 6.15-5.79 3.33-12.14 5.2-18.62 2.79-2.81-1.05-5-3.87-7.29-6.05-.18-.17.82-2.31 1.28-2.32a6.93 6.93 0 0 1 3.91 1.06c1.43 1 2.42 2.67 3.68 4 2.57 2.64 3.16 2.66 6.38.56.76-.5 1.51-1 2.29-1.45 2.69-1.57 5.4-3.07 8.37-4.74z"/><path d="M510.3 114.26c-4.9-4.12-10.81-4.62-16.85-4.78-1.85 0-4.67.88-4.95-1.8-.33-3.15 2.65-2.88 4.76-2.92 6.87-.15 13.57.63 19.3 4.85 1.07.78 2.3 2.69 2 3.68-.69 2.46-2.77 1.39-4.45.85z"/></svg>