<svg data-name="Layer 1" xmlns="http://www.w3.org/2000/svg" viewBox="0 0 1405.12 1019.74"><path d="M1405.12 1018.12c-3.92-.46-5.27-1.44-5.4-4s1.24-3.87 5.4-5zM323.31 363.18c2.46-.38 5.37-.88 8.29-1.28 16-2.17 31.93-.3 47.79 1.79a296.61 296.61 0 0 0 48.39 2.82c4.06-.13 6.21-1.45 7.92-5.23q15.3-33.78 31.06-67.34a212.43 212.43 0 0 1 25.93-42.21c5.23-6.58 10.85-12.81 18.13-17.17a38.42 38.42 0 0 1 9.14-4c3.23-.93 4.55.06 6.51 3.59-9.5 4.2-14.55 12.77-20 20.86-7.36 11-12.83 23.06-17.58 35.4-8.62 22.37-17.05 44.81-25.54 67.23-.45 1.19-.75 2.44-1.22 4a15.28 15.28 0 0 0 3 0q19.57-4.44 39.13-9c1.62-.38 3.14-1.18 4.76-1.56 5-1.17 7.11-4.21 7.84-9.33 1.67-11.7 9-20.15 17.47-27.67a7.91 7.91 0 0 1 2.92-1.55c3-.92 5.31.78 5.16 3.87a12.62 12.62 0 0 1-1.3 4.79c-2 4-3.79 8.14-6.35 11.75-4.72 6.69-7.15 14.25-9.33 21.94-.45 1.6-.49 4.66.2 5 1.6.72 3.77.24 5.69.05a12.55 12.55 0 0 0 2.91-1.2c.21 1.18.74 2.42.43 2.68-1.77 1.51-3.56 3.38-5.67 4-8.23 2.51-12.08-.35-15-10.76-15.85 6.13-32.47 9.28-49.09 12.34-4 .73-6 2.34-7.39 6.13-8.76 23.31-17.58 46.6-26.78 69.74-12.63 31.79-26.17 63.19-42.46 93.33-11.27 20.81-23.54 40.95-38.21 59.57-22.66 28.77-49.77 52.11-82.91 68.07a143.66 143.66 0 0 1-40.74 13c-25.76 3.94-48.65-2.65-69-18.58-18-14.12-30.34-32.52-39.07-53.45-8.6-20.62-13.13-42.19-14.65-64.42q-4.84-70.77 28.2-133.57a203.08 203.08 0 0 1 53.85-65.46c14.58-11.56 30.48-20.76 48.89-24.61 31.54-6.6 57.72 2.57 77.75 27.92 4.22 5.34 7.01 11.78 10.93 18.52zm-7.43 2.13a54 54 0 0 0-13.68-22.75c-18.46-18.47-40.65-24.55-66-19.08-16.5 3.55-30.91 11.58-44.2 21.71-24.31 18.53-42.24 42.24-55.58 69.52C115.15 458.19 107.91 504 114.23 552c2.62 19.88 8.21 38.92 17.69 56.66 9.35 17.52 21.8 32.36 38.9 42.87 16.8 10.31 34.76 13.38 54.07 8.64 16-3.92 30.16-11.46 43.64-20.57 25.53-17.25 45.66-39.71 62.29-65.41a572.59 572.59 0 0 0 38.19-68c20.19-43.08 39.82-86.43 59.66-129.67.59-1.28.93-2.68 1.43-4.14a11.79 11.79 0 0 0-2-.37c-18.11.51-36-1.79-53.89-4.1-14-1.81-28.08-3.58-42.24-1.56-2.69.39-5.34 1.05-8 1.59.08 1.32.05 2.06.18 2.78a82 82 0 0 1-2.66 40.23c-6.64 20.87-18.32 38.1-37.18 49.89a40.56 40.56 0 0 1-19.37 6.45c-18.52 1.06-28.37-10.52-24.22-28.54a63.61 63.61 0 0 1 9.92-21.7c15.45-22.46 35.37-39.51 60.87-49.69 1.29-.63 2.61-1.27 4.37-2.05zm1.46 4.28c-2.72 1-4.49 1.51-6.19 2.22-25.68 10.89-45.4 28.64-59.69 52.45a61.61 61.61 0 0 0-5.37 12.21 33.08 33.08 0 0 0-1.58 9.83c-.07 7.61 4.05 12.66 11.61 14.09a31.2 31.2 0 0 0 9.93.17c8.54-1.19 15.75-5.49 22.25-10.89 21-17.45 30.5-40.19 30.45-67.16-.01-4.02-.85-8.04-1.41-12.92zM636.26 683.05c4.92 3.29 9.36 6.67 14.18 9.39 7.19 4.06 9.71 10.14 9.62 18.08-.13 11.63-2.49 22.91-5 34.15-.9 4.06-3.07 8-5.3 11.58s-5 3.27-7.63.07c-5.35-6.66-11-13.12-16-20a74.6 74.6 0 0 1-8.2-13.81c-3.51-7.82-3.29-15.91.17-23.83 1.69-3.88 3.37-7.76 5-11.6-7.78-3.82-13-9.51-15.65-17.63-4.4.67-8.65 1-12.77 2-11.86 2.72-27.43-12.27-23.83-26.55 2.24-8.91 6.5-16.65 14-22.18a222.41 222.41 0 0 1 47.4-27c4.94-2 10.29-3 16-4.63a23.18 23.18 0 0 0-3.78-15c-3.06-4.69-6.45-9.13-5.94-15.45-1.49.35-2.38.49-3.22.77-37.17 12.24-72.13 28.73-103.17 53-20.94 16.34-39.24 35.29-56.12 55.69a674.89 674.89 0 0 0-43.36 59.45c-.69 1-2.19 1.55-3.31 2.3-.73-1.36-2.23-2.83-2-4a37.22 37.22 0 0 1 2.66-9 335.21 335.21 0 0 1 47.7-78.34c34-41.84 77.27-70.25 127-89.77 30.91-12.14 62.87-20.55 95.4-26.79 21.34-4.1 42.79-7.81 64.32-10.72 16-2.15 32.2-2.9 48.33-4 35.21-2.41 70.5-3.88 105.5-8.8 23.91-3.37 46.86-9.92 68.37-21.16 19.3-10.08 38.32-20.62 56.45-32.68 5.25-3.5 10.16-7.5 15.25-11.25a6.91 6.91 0 0 1 4-1.43c-.29 1-.28 2.36-.94 3-3.15 3.15-6.18 6.54-9.8 9.07-10.19 7.14-20.38 14.36-31.07 20.71-15.66 9.3-31.62 18.12-47.69 26.69-21.94 11.56-45.54 18.1-69.83 22.62-26.35 4.86-52.92 7.81-79.58 10.25-17.21 1.58-34.38 3.58-51.56 5.42-1.25.14-2.48.52-4.47 1 1.19 3.92 2.23 7.59 3.47 11.2a3 3 0 0 0 1.88 1.78c3.63.28 4.32 3 5.14 5.71.75 2.47 1.53 4.92 2.45 7.87 3-.45 5.77-.63 8.41-1.29a227.51 227.51 0 0 1 46.33-6.47c8.86-.34 17.8.53 26.67 1.29 3.05.26 6 1.75 9 2.84 11.32 4.16 13.18 18.74 8.07 26.74-5.54 8.68-12.24 15.85-21.48 20.53-1 .49-1.87 1.12-3.13 1.87 0 4.22-.1 8.46 0 12.69.09 2.56-.85 4.41-3.15 5.34q-10.07 4.11-20.22 8c-4 1.53-7.32.44-9.65-3.21-1.58-2.48-3.07-5-4.86-8a31.87 31.87 0 0 0-3.93.64c-29.56 8.2-59.08 16.5-88.66 24.61-6.26 1.72-12.72 2.74-19.06 4.16-17.76 4-35.33 9-53.57 10.46-2 .17-3.5.87-4.14 3-.53 1.77-1.7 3.41-2 5.2a23.1 23.1 0 0 1-8.7 15.42zm121.37-116l-80.9 22c.75 4.75 1.43 9.1 2.17 13.74a20.39 20.39 0 0 0 2.9-.17c11.21-2.28 22.19-.22 33.09 2 4.51.93 6.32 3.4 6.51 7.26.22 4.24-1.16 7.7-5.29 9.55a36 36 0 0 1-4.18 1.54q-23.14 7.21-46.31 14.36a38.28 38.28 0 0 1-6.54 1.32c-3.49.43-6-1.08-7.83-4.13-4.74-7.8-3.85-19.1 2.55-27.34-1.31-4-2.69-8.09-4.07-12.2-12.16 4-22.34 10.11-32.83 15.69a180.11 180.11 0 0 0-24.66 16.2c-7.11 5.43-11.25 12.75-13.11 21.4s3.48 15.81 12.18 15.93c5.55.07 11.27.22 16.64-.94 19.95-4.35 39.81-9.19 59.68-13.92 6.5-1.55 12.91-3.51 19.42-5 11.22-2.58 22.53-4.82 33.73-7.46s22.34-5.67 33.53-8.39C785.55 621 816.92 614 846.57 601c11.07-4.86 20.47-11.19 26.7-21.74 5.2-8.82 2.86-16.25-6.95-19.28a60.71 60.71 0 0 0-17.53-2.56 180.32 180.32 0 0 0-23.87 1.75c-14.33 1.85-28.6 4.15-42.81 6.24-.19 9.67.78 11.49 10.28 12.56 4.16.47 8.5-.41 12.73-.93 3.86-.48 7.67-1.42 11.53-1.94 5.51-.74 7.53.67 8.52 6.14.42 2.31 0 4.76.21 7.13.58 6.22.16 6.72-6.07 8.22q-9.75 2.34-19.41 5.05c-9.11 2.58-18.16 5.42-27.28 8-4.57 1.29-6 .75-8.24-3.34a118 118 0 0 1-6-13.13c-1.91-5-2.33-9.86 2.72-13.2-1.22-4.48-2.31-8.55-3.47-12.88zm-12.1-31.57c-26.51 4.25-52.34 9.63-78.32 16.49 3.77 10.19 3.25 20.77 8.06 29.67l81.21-20.3c-1.74-9.41-7.62-16.84-10.95-25.82zm-99.42 214.67c.95-2.4 1.81-3.87 2.12-5.45 1.94-9.83 3.82-19.68 5.55-29.55a49.24 49.24 0 0 0 .39-7.79 10.6 10.6 0 0 0-4.85-9.46c-5.5-3.79-10.85-7.8-16.32-11.64-3.16-2.21-5.35-1.5-6.82 2.26s-2.82 7.67-4.13 11.54c-3.53 10.42-1.22 19.94 5.33 28.31 5.7 7.29 12.04 14.06 18.73 21.78zm173.42-171.82c-1.64.17-3.46.26-5.25.57-4 .7-8 1.71-12 2.22-6.8.87-13.66 2-20-2.25a4.15 4.15 0 0 0-3.94.63c-3.75 4.27-8 5.53-13.5 3.8-2.5-.79-4 .84-3.31 3.47 1.49 5.48 2.73 11.09 5.63 16.15a12.23 12.23 0 0 0 2.44-.24q19.83-6.54 39.63-13.14c2.64-.88 5.32-1.68 7.88-2.76 4.58-1.96 4.89-3.07 2.42-8.45zM717 611.17l.33-1.23c-1.93-.86-3.79-2.17-5.81-2.5-6.58-1.05-13.22-1.75-19.84-2.59-3.29-.41-6.18 0-7.18 4.35l-4.43-3.8c-1 2-1.76 3.56-2.58 5.13-2.57 4.9-7.11 6.12-12.12 6.58-4 .37-6.8-1.13-8.55-4.72-.1-.19-.67-.15-1.69-.34-1.59 6.14-3 12.19-.75 18.28zm-53.31-57.8c-4-.25-6.1 1.46-6.74 5-3.11-2.71-3.11-2.72-6-1.92-1.25.34-2.49.71-3.72 1.12-4.51 1.48-5.66 4.21-3.17 8.41 2 3.32 4.33 6.39 6.73 9.88l15.85-5.73c-1.05-5.73-2-11.13-2.97-16.76zm-7.46 80.06c3.78 1.85 6.2.78 8.6 0 10.26-3.19 20.5-6.47 30.79-9.6 5.14-1.56 10.38-2.78 15.54-4.3 2.38-.7 5-1.19 6.67-4.78-20.93 5.46-41.11 10.38-61.62 18.68zm-2.36-50.58c1.76 4.25.8 8.68 4.06 11.94l12.16-4.36c-.63-4.17-1.22-8.07-1.89-12.45zm114.85-34.15l-9.72 4.4c1.48 4.25 2.79 8 4.27 12.27l11.58-3c-2.29-4.77.58-10.89-6.13-13.67zM609.91 669.52c2.29.78 4.13 2.05 5.79 1.85 7.29-.92 14.57-2.1 21.78-3.52 3.28-.65 5.14-3.22 6.26-6.42-5.39-.32-29.74 5.28-33.83 8.09zm156.55-124c-1.22-4.38-2.31-8.26-3.31-11.84-4-2-4 2.35-6.13 3.37-1.84-2.14-3.56-4.4-6.61-1.13 2.3 4.35 4.2 9.08 7.39 13.36zm-95.52 52.64l-11.8 3.61c1 3.61 1.83 6.67 2.8 10.25a36.51 36.51 0 0 0 4.67 0c6.4-.82 8.11-3.76 5.86-9.87-.47-1.25-.91-2.42-1.53-4.03zm148.74 20.52c3.6 2.23 6.26 1.15 8.71.37 6.52-2.08 13-4.43 19.44-6.6 2.91-1 3.91-2.91 3.56-6.82zm-42.29-14.7a11.92 11.92 0 0 0 2.08-.17q15-3.94 30-7.94c3.4-.9 6.84-1.69 10.18-2.78.78-.25 1.24-1.5 1.85-2.29l-.84-1.06c-14.07 5.67-29.59 6.85-43.27 14.2zM765.29 574c.21 2.31.4 4.41.57 6.35 4.57 1.23 7.6-.57 9.89-3.32 2-2.38 0-4.71-1-7.48zM631.93 678.24c4.51-1.21 5.82-3 5.92-8l-6.2 1.64c.1 2.33.19 4.31.28 6.36zm199.87-56.1c1.9 4.13 2.32 4.16 7.17.8-1.79-3.65-1.79-3.65-7.17-.8zm-173.21-24.72l.33 1.35a50.72 50.72 0 0 0 6.08-1.37c2-.69 4.83-.2 5.75-4.13-4.75.9-8.33 2.86-12.16 4.15zm-35.52 76.17c1.42 2.73 1.88 5.42 5.35 6.65-.11-2.67-.21-4.8-.32-7.36zm-2 7.06c-1.5-6.8-1.84-7.11-5.27-5.4zm153.07-113.72c-4.54-1.12-6.75-.23-9.58 3.78zm73.48 53.19a26.83 26.83 0 0 0-4-2.92c-.25-.12-1.92 1.69-1.79 1.91a8.09 8.09 0 0 0 2.71 2.86c.4.22 1.55-.89 3.08-1.85zm-180.69-45.36l-.39-1.39-4.15 1.53.26.87zm157.53 48.79c.87 2.34 1.74 3.5 4.14 3.11-.45-2.17-.97-3.66-4.14-3.11zM915.83 224.87a43.05 43.05 0 0 0-4.72 0c-17.9 2.12-35.85 4-53.69 6.55a377.1 377.1 0 0 0-37.76 7.12 73.77 73.77 0 0 0-41.24 27 11.51 11.51 0 0 1-2.28 1.67c-1-3.3 1-5 2.38-6.8A77.24 77.24 0 0 1 807.87 237c13-5.95 26.74-9.1 40.73-11.17 21.52-3.19 43.07-6.09 64.64-8.86 4.74-.61 7.35-2.44 9.3-7.05a277.41 277.41 0 0 1 42-69.41c8.92-10.78 18.62-20.76 30-29 9.22-6.73 19-12.32 30-15.65 8.34-2.52 16.82-3.21 25.27-.65 13.33 4 21 16.54 18.87 30.27-1.29 8.25-4.69 15.62-9.2 22.54-8.84 13.57-20.33 24.62-33.15 34.35-20.14 15.27-42.94 25.21-67.07 32-7.27 2-11.29 5.31-13.51 12.47-4 12.77-8.76 25.28-13.18 37.9a8.41 8.41 0 0 0-.18 1.8c5.84-7.76 11.77-15.1 17.12-22.84a90 90 0 0 1 24-23.78 35.14 35.14 0 0 1 16.18-5.57c9.07-1 18.27 6.55 20.42 16.35a40.07 40.07 0 0 1-.8 21c-4.43 13.78-9.26 27.44-14.23 41-3.44 9.42-7.58 18.59-11 28a63.59 63.59 0 0 0-3.22 13.49c-.65 5 2.11 8.28 7.09 8.76 19.48 1.85 41.7-11 44.56-31.89a21.51 21.51 0 0 0 0-7.16c-1.45-6.86-5.76-9.69-12.65-8.64-3.2.49-6.37 1.57-10.67.26 3.65-4.44 7.65-6.64 12.55-6.95 9.27-.59 16.29 5.78 17 15.38.92 11.68-2.34 22.13-10.18 30.87-10.46 11.65-23.42 18.71-39.14 20.32-14.42 1.49-25.87-7.73-27.44-22.19a61.64 61.64 0 0 1 2.5-24.95c5.28-17.23 10.87-34.36 16.48-51.47 2.61-7.94 5.58-15.76 8.38-23.63a31.51 31.51 0 0 0 1.24-3.7c1.09-4.86-1.17-7.28-6-6.09a21.38 21.38 0 0 0-8.1 3.43c-5.82 4.58-12 9-16.65 14.69-10.15 12.33-19.64 25.22-29 38.14-9.77 13.43-17.06 28.29-23.68 43.49a27.68 27.68 0 0 1-1.46 3c-2.22 3.88-5.7 5.55-9.22 4.47-3.74-1.14-5.92-4.89-5.24-9.32.45-2.93 1.25-5.81 1.71-8.75a446.07 446.07 0 0 1 16.91-70.36c1.76-5.61 3.88-11.15 5.98-17.03zm38.41-18.15l.94 1.23c8.53-3 17.16-5.68 25.56-9 18.59-7.28 36.25-16.27 51.67-29.19a92.08 92.08 0 0 0 20.77-23.76c4-6.81 6.81-14.07 6.84-22.09 0-10.42-6.36-16.62-16.72-16.57-6.93 0-13 2.66-18.94 5.9-11.91 6.57-21.38 16-29.83 26.44a291.08 291.08 0 0 0-35.84 57.56c-1.51 3.12-2.97 6.31-4.45 9.48zM302.07 211.13c-.93 1.48-1.77 3-2.81 4.42-13.08 17.56-30.48 29.23-50.74 36.82-11.54 4.32-23.49 7.11-35.94 6.9a54.07 54.07 0 0 1-9.41-.93c-18.19-3.53-27.9-18.13-23.87-36.21a52.42 52.42 0 0 1 4.89-13.57c14.13-25.8 35-42.95 64.25-49.07 11.81-2.47 23.68-1.84 35.5-.15 19.68 2.82 39.3 6 59 8.8a627.8 627.8 0 0 0 89.54 5.63c27.71-.11 55.37-1.46 83-3.84 48-4.14 95.63-11 142-24.53 18-5.28 35.7-11.62 52-21.16A92.91 92.91 0 0 0 730.66 108c4.76-5.07 8.71-10.64 10.68-17.43 2.47-8.57.38-15.79-6.48-21.51-5.69-4.74-12.36-7.55-19.42-9.43a87.34 87.34 0 0 0-32-2.74A239.31 239.31 0 0 0 640.18 65a125.59 125.59 0 0 0-14.08 5.27 29.87 29.87 0 0 0-12.18 9.51 22.92 22.92 0 0 1-2.81 2.66l-1-.69c.32-1.14.31-2.57 1-3.37 2.79-3.19 5.44-6.7 8.84-9.1a53.55 53.55 0 0 1 12.88-6.5 193.51 193.51 0 0 1 64.53-11.07 79.68 79.68 0 0 1 30 5.44 61 61 0 0 1 10.9 5.53c12 7.9 16.09 19.78 11.92 33.5-2.77 9.12-8.17 16.63-14.66 23.41-10 10.44-21.67 18.64-34.34 25.5-18.72 10.13-38.54 17.53-58.84 23.7a670.13 670.13 0 0 1-106.18 22.63 825.5 825.5 0 0 1-92.16 7.29A520.15 520.15 0 0 1 305.87 183c-12.23-3.06-24.64-5.51-37.07-7.73-18.79-3.36-36.2.69-52.18 11a86.3 86.3 0 0 0-24.07 23 42.36 42.36 0 0 0-7.48 16.65c-2.34 12.53 4 23 16.29 26.67 8 2.36 16.23 2.05 24.34.69q43.41-7.33 72.43-40.56a33.22 33.22 0 0 1 2.69-2.47zM661.52 410.75a11.61 11.61 0 0 1-.91 3.21 97.68 97.68 0 0 1-6 8.71c-20.16 25.07-40.18 50.25-60.66 75.05-10.66 12.91-22.4 24.93-35.77 35.11A101.56 101.56 0 0 1 540.23 544c-12 5.65-21.69 2.19-28.37-9.3-4.68-8-6.45-17-7.37-26.09-.62-6.26-.85-12.57-1.28-19.25-3.72 1.21-6 4.25-8.68 6.55a104.63 104.63 0 0 0-8.09 7.67c-2.53 2.66-4.8 5.56-8 9.36.37-2.07.33-3 .72-3.81a71.63 71.63 0 0 1 14.16-18.53c3.48-3.35 8-6.21 10.08-10.28s1.81-9.34 2.64-14.08c4.4-25.23 12.4-49.33 23-72.59 23.68-51.77 56.51-96.85 99.15-134.63a246.21 246.21 0 0 1 23.45-17.92 53.21 53.21 0 0 1 22.53-9.23c11.73-1.73 20.28 6.39 18.42 18.16a88.21 88.21 0 0 1-4.85 17.66c-6.65 17.26-16.4 32.91-26.26 48.45-33.74 53.15-75.21 99.63-122.1 141.42-.56.49-1.12 1-1.67 1.48-9.11 8.12-9.12 8.12-11.73 19.83-2.83 12.76-4.77 25.62-3.72 38.71a52.47 52.47 0 0 0 2.74 13c1.79 5.14 4.63 6.6 10 5.44a34.63 34.63 0 0 0 10.37-3.85 188.85 188.85 0 0 0 18.45-12.48C580.11 507.05 594 492 607 476.16c16.44-20.18 32.55-40.63 48.83-61 1.43-1.79 3.05-3.43 4.58-5.14zm-128.1 40.78l1.44 1c5.9-5.61 11.83-11.19 17.7-16.83A624.43 624.43 0 0 0 658.76 302c3.77-6.4 7.3-13 10.53-19.65 4.38-9 8.22-18.33 9.71-28.38.26-1.74.24-3.52.39-6a34.49 34.49 0 0 0-14.19 7.84c-10.29 9.39-20.82 18.59-30.41 28.67-36.38 38.25-64.33 82.18-85.93 130.2-5.47 12.1-10.31 24.54-15.44 36.85z"/><path d="M764 398c3.4-2.35 6.6-4 9-6.37a111.94 111.94 0 0 0 11.73-13.37c7-9.63 13.2-19.81 20.33-29.33 9.24-12.35 19.08-24.24 28.59-36.38a81.38 81.38 0 0 0 6.68-9.55c6.75-11.85 14.48-22.95 24.25-32.53a20.09 20.09 0 0 1 4.8-3.75c4.11-2.07 8.24.38 8.09 5a26.58 26.58 0 0 1-2 8c-3.23 8.71-6.72 17.32-9.95 26-5.83 15.66-7.85 32.06-9.31 48.57a11 11 0 0 0 .3 2.13 38.87 38.87 0 0 0 4.11-1.09 107.62 107.62 0 0 1 34.27-7c7.24-.36 14.49-.58 21.74-.71a15.13 15.13 0 0 1 5.4 1 2.46 2.46 0 0 1-.43 4.74 43.48 43.48 0 0 1-6.08.61c-12.76 1.14-25.57 2-38.28 3.57-5.65.72-11.07 3.09-16.64 4.5-4.34 1.11-5.51 3.77-5.8 8.09-.85 12.62-2.58 25.19-6.67 37.21a137.37 137.37 0 0 1-9.07 21.51c-7 12.81-18.71 19.38-32.62 22-9.84 1.86-16.07-3.64-16.56-13.76-.56-11.72 3-22.41 8.63-32.44A86.74 86.74 0 0 1 821.19 378c2.1-1.61 3.8-3.17 3.75-6.3-.29-16 1.2-31.89 6.59-48.57a29.37 29.37 0 0 0-3.43 3.16c-6.27 8.53-12.68 17-18.66 25.72-7.34 10.74-14.1 21.88-21.52 32.57a239.75 239.75 0 0 1-15.17 19.25 27.7 27.7 0 0 1-8.22 6.53c-7.79 4-15.89.59-19.08-7.57-.47-1.2-.86-2.44-1.65-4.72-1.07 3.15-1.89 5.43-2.63 7.73-6 18.65-14.86 35.64-28.18 50.17a57.1 57.1 0 0 1-17 13.3c-9.45 4.62-18.43 2.2-24.25-6.66-3.65-5.56-5.32-11.87-6.21-18.34-3.89-28.26 3.23-53.42 21.64-75.3 7.55-9 17-15.51 27.39-20.69 5.07-2.52 10.36-2.82 15.78-1.85 5.94 1.07 14.6 7.87 17.13 13.62.75-1.29 1.34-2.25 1.87-3.24 2.91-5.39 5.6-10.91 8.75-16.15a20.25 20.25 0 0 1 12.69-9.39c6.24-1.57 10 2.25 8.12 8.37-2.55 8.15-5.33 16.23-8.12 24.31a147.82 147.82 0 0 0-6.88 30.95 24 24 0 0 0 .1 3.1zm-78.41 44.72c.23 3.71.29 7.43.74 11.11.64 5.25 2.65 6.48 7.57 4.57a31.36 31.36 0 0 0 7.29-4 82.15 82.15 0 0 0 8.39-7.33c15.88-15.55 25.34-34.76 30.88-55.95a76.64 76.64 0 0 0 1.9-28.21c-.31-2.74-1.75-4.14-4.09-5.41-4.64-2.53-9.22-1.58-14.06 3.18-5.16 5.08-9.83 10.66-14.48 16.22-11.19 13.39-18.66 28.6-21.56 45.88-1.08 6.54-1.7 13.22-2.55 19.89zm139-60.77c-6.62 4.78-11.22 9.82-15.75 15A53.35 53.35 0 0 0 797.27 420a32 32 0 0 0-.27 15.44c.79 3.21 2.2 4.28 5.22 3.25 7-2.4 13.31-6.07 15.89-13.59a113.31 113.31 0 0 0 4-15 119.71 119.71 0 0 0 2.56-28.2zM1029.24 558.16c.22-1.62.48-3.4.68-5.19a55.14 55.14 0 0 1 5.6-19.16 17.9 17.9 0 0 1 4.72-6c5-3.83 10.93-1.73 11.89 4.39 1.61 10.21-.56 19.61-7.87 27.37-1.13 1.21-2.49 2.21-3.69 3.27 1.2 8.45 6.79 11.2 13.09 6 3.79-3.12 7.5-7 9.69-11.29 3.5-6.9 5.71-14.45 8.48-21.73a4.41 4.41 0 0 0-1.12-5c-7.21-8-7-17.13-4-26.69.12-.35.25-.7.4-1 1.66-3.66 4.34-5.68 7.07-5.34 2.5.32 4.69 2.56 4.9 6.66.32 6.27 0 12.59-.2 18.88a49.37 49.37 0 0 1-.66 5c2.94 1.48 5.84 3 8.82 4.43 7.12 3.31 8.14 5.29 7 13a72.42 72.42 0 0 0-.89 11.09 5.17 5.17 0 0 0 2.36 3.81c1.71.87 3.17-.57 3.9-2.22 1.58-3.54 3-7.16 4.54-10.73 2.27-5.27 4.47-10.57 7-15.74a14.72 14.72 0 0 1 3.58-4.24c4-3.65 7.62-2.84 9.26 2.46 1.53 5 2.22 10.16 3.57 15.17a69.34 69.34 0 0 0 4.07 12c1.51 3.15 3.92 3.11 6.11.37a16.18 16.18 0 0 0 2.3-4.4c2.54-6.83 4.31-13.82 4.11-21.21a61.54 61.54 0 0 1 .4-8.9 3.94 3.94 0 0 1 3.65-3.67 3.83 3.83 0 0 1 4.12 3.07 33.53 33.53 0 0 1 1 4.89q3.24 21.78 6.47 43.56c.13.89.45 1.76.74 2.89 19.11-4.9 38.62-5.47 58.19-8.42-.26 3.15-2.53 3.38-4.28 3.74-4.73 1-9.54 1.58-14.27 2.53-10.37 2.11-20.73 4.26-31 6.57a46.67 46.67 0 0 0-6.66 2.47v16.09a27.62 27.62 0 0 1-.43 5.54c-1.44 6.68-6.62 10.49-13.42 9.92a21.84 21.84 0 0 1-13.48-6c-5.13-4.85-5.57-10-.8-15.15a37.94 37.94 0 0 1 9.1-7.25c4-2.25 4.82-5.1 3.79-9.21-.76-3-1.11-6.16-1.76-9.92-1.52 1.43-2.52 2.4-3.55 3.35-5.47 5-12.15 4.85-17.38-.52-4.93-5.07-6.76-11.44-6.89-18.34-.12-5.93 0-11.86 0-18-3.42 1.22-4.72 4.43-5.6 7.71-1 3.57-1.21 7.35-2.19 10.92-1.32 4.82-2.89 9.58-4.63 14.26-1.68 4.52-5.27 6.58-10 6.62a11 11 0 0 1-10.7-6.67c-2.11-4.36-2.16-9-1.15-13.64.71-3.25 1.74-6.42 2.78-10.18l-8.57-4.64a39.25 39.25 0 0 0-1.46 3.7c-1.18 4.3-2.11 8.68-3.46 12.93a54.26 54.26 0 0 1-13.36 21.63c-9.56 9.78-21.73 7.52-27.38-5-.37-.84-.71-1.69-1-2.37l-9.54-3.15c-.39 1-.91 2.11-1.27 3.27-3.28 10.55-8.62 20.14-14 29.7-2.63 4.68-7.28 7.07-10.91 6.21-4.09-1-6.71-5.08-6.78-11-.08-7.68 1.45-15.14 3.37-22.54.54-2.1.72-4.3 1.28-7.78a57.52 57.52 0 0 0-6 3.47c-3.08 2.4-5.88 5.16-9 7.48-4 3-8 6.19-12.43 8.36-6.93 3.39-14.12.57-17.08-6.55-1.38-3.33-1.59-7.18-2.12-10.82a49.3 49.3 0 0 1 0-6.33l-10.74 4.77c-1.67-1.06-1.21-2.69.38-3.66a44.75 44.75 0 0 1 8.46-4.13 8.21 8.21 0 0 0 5.13-4.53 48.12 48.12 0 0 1 15.59-17.9 22 22 0 0 1 15.47-4.5c4.28.51 8 2.12 9.56 6.54 1.47 4.26-.58 7.63-3.5 10.47-6.23 6.06-14.18 8.65-22.31 10.84-2.35.64-5.58-.16-6.39 3.3-1 4.2-1.61 8.48.59 12.51 1.27 2.33 3.57 2 5.43 1.09 4.84-2.3 9.63-4.76 14.31-7.38 3.72-2.08 7.11-4.79 10.91-6.7 5.91-3 8.64-1.39 9.28 5.3a52 52 0 0 1-.35 10c-.49 5.17-1.3 10.31-1.79 15.47a45.17 45.17 0 0 0 .24 6.18c3.33.16 4.63-1.87 5.94-3.87 5.83-8.89 10.91-18.16 14.22-28.32a38 38 0 0 1 1.52-4.19c1.07-2.27 2.85-2.74 5.09-1.7 1.49.7 3 1.42 4.49 2 .26.09.67-.17 1.42-.38zm-67.36-8.54c7.71-1 14.77-3.27 20.8-8.15a4.55 4.55 0 0 0 1.5-1.6c.49-1.3 1.36-3 .86-4s-2.4-1.54-3.75-1.67a10.58 10.58 0 0 0-4.29.8c-7.22 2.61-11.51 8.2-15.12 14.62zm78.12 3.76c6.63-5.76 9.19-16 5.71-22.2-5.2 6.82-5.54 14.49-5.71 22.2zm34-30.68c3-11.66 2.88-15.59-.16-20.13-4.14 4.76-4.25 14.01.16 20.13zm74.62 77.5c-.19-3.81-.34-6.76-.52-10.36-3.61 1.95-6.09 3.79-7.43 7.67zM1235.92 698.53c-9.81 16-24.3 28-37 41.67a59.69 59.69 0 0 1 2.93 6.9 30.65 30.65 0 0 1 1.3 7.64c.19 8.24-5.06 11.93-12.8 9.21-6.33-2.23-9.27-8.37-5.19-13.7s2.61-9.78.42-14.75a8.52 8.52 0 0 0-.9-1.2 30.36 30.36 0 0 0-2.09 3.74c-3.16 8.14-8.83 14.6-14.26 21.16-6 7.19-16 5.77-20.29-2.54-.84-1.63-1.51-3.35-2.67-6-.75 2.91-1.27 5-1.81 7-1.66 6.2-4.44 8.89-9.59 9.3-7.31.59-12.9-2.22-15.3-7.78-2-4.61-1.82-9.44-1.12-14.26.27-1.83.79-3.61 1.22-5.55l-10.29-8.67c-.49 2-.91 3.72-1.3 5.41-1.75 7.6-3.41 15.22-5.28 22.79a22 22 0 0 1-2.57 6.14c-2.65 4.31-6.82 4.61-10.08.79a65.69 65.69 0 0 1-4-5.86l-1.72 4.28c-.84 2.06-1.55 4.2-2.55 6.18-1.57 3.11-3.66 5.8-7.64 5.45s-5.86-3.28-6.58-6.66a76.71 76.71 0 0 1-1.33-12.11c-.13-2.94.3-5.91.54-9.94-1.67 1.47-2.75 2.26-3.64 3.23-2.75 3-5.37 6.17-8.15 9.18-2.06 2.22-4.35 4.25-7.74 3.28s-4.52-3.88-5-6.81c-.72-4.38-.94-8.85-1.35-13.28-.11-1.21-.12-2.43-.23-4.66-1.46 1.66-2.25 2.57-3.06 3.47-4.21 4.7-8.23 9.6-12.74 14a10.86 10.86 0 0 0-3.73 8.23 35.56 35.56 0 0 1-1.14 7.7c-2.51 10.74-9.72 16.78-20.06 19.44-5 1.28-9.48-.1-11-3.08s-.43-6.68 3.59-10.3c4.42-4 9-7.77 13.81-11.29a10.34 10.34 0 0 0 4.55-8.86c.4-11.32 1.27-22.63 2-33.94.09-1.64.15-3.28.26-5.73a41.86 41.86 0 0 0-4 2.72Q991.14 736 974 751.54c-1.61 1.45-3 3.73-5.63 2-1.91-1.28-1.45-3.81 1.22-6.72a50.16 50.16 0 0 1 4.83-4.62q18-14.94 36.19-29.78c1.93-1.58 3.91-3.92 6.85-2.65s2.64 4.24 2.69 6.8c.21 9.85.33 19.7.5 29.56 0 2 .16 3.92.29 7.15 3.09-3.16 5.4-5.27 7.41-7.62 3.39-4 6.5-8.14 9.89-12.09 3.08-3.59 4.12-7.74 4.26-12.5h-6.14a10.08 10.08 0 0 1-3.84-.38c-1-.45-2.25-1.67-2.27-2.59s1.39-2.12 2.38-2.35a70.37 70.37 0 0 1 8.81-1.32 6.77 6.77 0 0 0 5.92-4.25 66.61 66.61 0 0 1 5.94-9.4 8.12 8.12 0 0 1 3.34-2.82 4.46 4.46 0 0 1 3.54.41c.64.41 1 2 .73 2.94-.6 2.33-1.61 4.55-2.38 6.83a31.05 31.05 0 0 0-.68 3.36c2.9-.38 5.4-.8 7.93-1a36.12 36.12 0 0 1 6.65-.19 3 3 0 0 1 2 2.15c0 .69-1.15 1.89-2 2.08-3.79.91-7.65 1.51-11.48 2.27-1.8.36-3.59.83-5.59 1.29-3.17 11.88-3.89 23.88-5 36.81a46 46 0 0 0 4-3.14c6.38-6.48 13.22-12.57 17.45-20.87a16.1 16.1 0 0 1 2.83-3.43c3.64-3.83 3.7-3 8.47-1.38 5.6 1.94 5.73 5.94 6.22 10.38.62 5.73 1.33 11.45 2.25 17.13a18.91 18.91 0 0 0 3.26 7.67c.8-1.49 2-2.9 2.34-4.49 2.32-9.94 4.58-19.9 6.55-29.92.3-1.54-.82-3.51-1.66-5.09a30.84 30.84 0 0 1-4-17.14 13.79 13.79 0 0 1 2.25-6.67c2.59-3.58 7.06-3 8.92 1.06a14.78 14.78 0 0 1 1.38 5.9 112.13 112.13 0 0 1-.67 13.34 6.78 6.78 0 0 0 1.8 6.07c3.71 3.91 7.22 8.05 12.33 10.27 3.15 1.36 4.34 3.89 4.35 7.13s-.07 6.32 0 9.48a18.05 18.05 0 0 0 .37 4.42c.7 2.64 2.77 3.94 5.35 4.2 2.38.24 3.69-1.39 4.63-3.33a7.55 7.55 0 0 0 .83-2.06c1.24-7.84 2.43-15.69 3.68-23.83-5-1.16-9.6 2.22-14.55-.79 3.76-4.36 9.29-2.71 13.37-5.12a60.12 60.12 0 0 1 2.32-7.76c.47-1.07 2.14-1.62 3.26-2.4a15.4 15.4 0 0 1 2 3.46 38.79 38.79 0 0 1 .69 5.81c2.75-.35 4.92-.7 7.1-.9a20.12 20.12 0 0 1 6.49.26c-2.67 4.87-8.27 2.74-12.35 5.79 1.6 7.05 3.26 14.42 5 21.78a8.53 8.53 0 0 0 .94 2c2.11 3.82 3.88 4.3 6.79 1.18 3.15-3.37 6.37-6.88 8.62-10.86 3.75-6.6 6.77-13.62 10.05-20.48 1.09-2.28 1.35-5.5 4.72-5.44s3.75 3 4.6 5.5c1.53 4.38 3.14 8.71 4.71 13.07 6.5-2.71 27.76-23.41 38.87-37.18zM1081 729.2c-6.48 8.53-9.61 30.91-5.64 38.25 6.08-6.91 9.64-30.24 5.64-38.25zm-72.41 39.56c-6.45 5.39-12.64 9.42-16.29 16.49 7.85 1.19 14.52-5.45 16.28-16.49zm182.59-20.2a43 43 0 0 0-2.77 4.31c-1 2.07-1.61 4.37.37 6.18 1.83 1.69 4 1.77 6.25.06.3-3.8-1.03-7.11-3.86-10.55zm-86.8-47.88a14.38 14.38 0 0 0 1.74 12.83c.14-5.16 1.04-9.12-1.75-12.83z"/><path d="M1111 635.16c1-4.69 1.65-8.91 2.86-13a33.23 33.23 0 0 1 3.78-7.91 3.63 3.63 0 0 1 3.31-1.09 3.81 3.81 0 0 1 1.89 3c0 5.19-.25 10.39-.68 15.56-.48 5.7-1.63 11.37-.4 17.94 1.59-1 3-1.57 3.79-2.58 2.74-3.51 5.23-7.2 7.86-10.79 1.75-2.39 3.44-5.51 6.77-5.07 3.91.52 4.12 4.49 4.69 7.44.82 4.18 1 8.48 1.49 12.72.3 2.6.47 5.35 3.67 6.22s5.36-.66 7.24-3a10.11 10.11 0 0 0 2.5-7.7 17.74 17.74 0 0 1 3.2-12.14 9.53 9.53 0 0 1 2.63-2.83c1-.58 2.62-1.05 3.52-.62s1.41 2 1.47 3.14c.64 13.12 1.17 26.23 1.75 39.79 7.49.1 15.13-1.72 22.51 0 .11 2.92-1.45 3.17-2.93 3.38-6.43.91-12.87 1.77-19.79 2.71-.41 1.52-.83 3.27-1.34 5-1.76 6-4 11.65-9.38 15.4-4.11 2.88-8.56 4.44-13.65 2.73a7.19 7.19 0 0 1-5.28-5.85c-1.15-5.84 0-10.83 5.29-14.08 3.94-2.42 8.13-4.41 12.56-6.77v-15.69c-1.57 1.08-2.5 1.84-3.54 2.41a31.57 31.57 0 0 1-5.47 2.7c-7.25 2.27-13.89-1.45-15-9-.64-4.5.14-9.22.39-13.83.11-2 .53-4 .8-5.93l-1.17-.5c-.91 1.66-1.85 3.32-2.75 5-1.57 2.94-2.93 6-4.74 8.81-4.76 7.32-9.09 8.09-16.34 2.89-.76 1.22-1.46 2.47-2.28 3.62a44.81 44.81 0 0 1-4 5.31c-4.45 4.61-10.17 6.13-14.57 4.1-5.34-2.47-9-9-8.29-15.2.19-1.78.64-3.53 1.06-5.78l-4.18 1c-1.92 6.11-3.42 11.62-5.4 16.94-1.57 4.22-5 6.94-9.2 8.37-5.87 2-10.72-.17-13.35-5.81-2.69-5.8-2.79-11.86-1.65-18 .33-1.8.69-3.6 1.06-5.48-5.74.61-6.26 1.31-6.9 6.57-.59 5-1.11 10-2.54 14.75a28.78 28.78 0 0 1-5.52 10.15c-8.29 9.64-21.56 8.09-28-2.95-.81-1.4-1.53-2.86-2.28-4.28-3.59 1.54-4.49 6.11-9.74 7.05 1-2.05 1.34-3.47 2.21-4.33 5.24-5.13 7.1-11 6.5-18.5-.77-9.65 1-19.28 3.57-28.65a47.49 47.49 0 0 1 8.93-17.81 24.35 24.35 0 0 1 3.93-3.93c4.3-3.29 7.83-2.73 10.9 1.69a23.21 23.21 0 0 1 3.43 19.68 64.23 64.23 0 0 1-14.6 27.87c-1.52 1.7-3.25 4.08-3.2 6.1a27.22 27.22 0 0 0 2.37 11.25c2.38 4.77 7.85 5 11.69.95a32.31 32.31 0 0 0 7.89-14.55 56.26 56.26 0 0 0 1.91-8.69c.23-2.78 1.82-3.76 4-4.71 4.22-1.85 8.38-3.83 12.54-5.82 7.11-3.39 14.49-1 18.07 5.94.33.64.69 1.27 1.12 2.06 4.88.19 8.93-.71 12.42-4.66 6.07-6.87 10.25-7.32 20.59-2.71zm-83.47-30.9c-7.56 13.11-9.25 26.6-9.21 40.64.93-.08 1.42 0 1.59-.15 6.81-7.16 11.56-15.45 13.31-25.25.97-5.67-.87-10.5-5.73-15.24zm35.42 58.93c6.72-1.36 10.79-7.5 10.77-14.89-3.73-3.15-7-5.9-10.29-8.68-4.11 4.07-4.64 15.02-.52 23.57zm33.83-5.82c5.69-1.52 8.42-3.6 10.58-8.27 1.38-3 2.77-6.06.73-9.27-7-.45-9.75 4.15-12.28 9.06-1.62 3.11-1.76 5.97.93 8.48zm63.63 24.57c-4.5 2.27-8.24 3.81-11.59 6-2.73 1.75-3.4 6.85-1.73 9 1.48 1.86 5.07 1.43 7.94-1.14 3.57-3.31 5.39-7.38 5.34-13.86zm-90.31-45.22l-1.3.91c-.13 2 .92 3.14 3.87 3zM282.65 9.28c-1-.18-2.16-.07-2.93-.58-8.27-5.42-17.27-5.13-26.4-3.39-18 3.44-35 10-51.79 17.13C145 46.6 96.75 82.27 56.58 128.69 30.35 159 13.9 194.28 6.29 233.61c-2.12 10.95-3.75 22-2.16 33.25a12 12 0 0 1-.51 2.8c-1.13-1-2.28-1.55-2.43-2.28A49.49 49.49 0 0 1 0 258.59c-.3-16.7 3.06-32.89 7.34-48.92 8.54-32 24.24-60.27 45.67-85.35 38.83-45.43 85.53-80.25 140.61-103.67C209.38 14 225.2 7.43 241.87 3.36A144.83 144.83 0 0 1 262.18.12a26.15 26.15 0 0 1 18.35 5.33 20.13 20.13 0 0 1 2.7 3z"/><path d="M372.88 73.26a17.53 17.53 0 0 1-3 0c-6.2-1.1-12.35-3-18.59-3.31-23-1.34-46.12-1.35-69.06 1.37C244.4 75.78 210 89.67 178.59 111c-36.76 25-64.43 58.13-84.59 97.6a152.44 152.44 0 0 0-15.79 57.16c-.86 10.34-.71 20.77-1 31.15 0 1-.26 2-.48 3.58-2.86-1.58-2.8-3.92-2.79-5.95 0-9.28-.23-18.6.53-27.84 2.87-35.2 16-66.59 36.28-95.21q55.84-78.92 149.89-101.37c12.71-3.06 25.72-3.91 38.71-4.51 18.39-.85 36.81-1.45 55.15.66 5.12.59 10.13 2.2 15.12 3.57 1.37.37 2.5 1.59 3.74 2.42zM1100.76 971.11c-.67-4.71-1.24-9.43-2-14.11-2.3-13.73-4.73-27.44-7-41.17a20.91 20.91 0 0 1 .11-6.65 3.77 3.77 0 0 1 2.29-2.63 3.58 3.58 0 0 1 3 1.72 47.81 47.81 0 0 1 3 9.52c2.7 15 5.24 30 7.71 45a43.93 43.93 0 0 1 .51 8.88c-.17 4.17-2 7.66-6 9.24s-7.33-.44-9.89-3.36a58 58 0 0 1-5.41-7.72c-1.43-2.32-2.58-4.82-4.23-8-.84 2.18-1.31 3.71-2 5.12-2.45 5.05-7.93 6.06-11.93 2.09a21.91 21.91 0 0 1-3.52-5c-6.82-12.25-9.59-25.25-7.27-39.22.64-3.84.84-7.76 1.36-11.62.29-2.16.31-4.89 3.38-4.9 2.83 0 3.5 2.55 3.85 4.72a56.48 56.48 0 0 1 .53 8.33c0 4.27-.09 8.55-.19 12.82-.22 9.31 2.4 18 6.06 26.39.2.46.69.8 1.82 2.05.46-3.41 1-6 1.13-8.63.42-9.46.69-18.92 1-28.38 0-.75-.2-1.65.14-2.2.81-1.3 1.75-3.24 2.88-3.42s3.1 1 3.92 2.21a13.06 13.06 0 0 1 1.78 5.21q2 11.24 3.74 22.53c1.23 8.1 5.2 14.87 9.53 21.49zM949.18 714.79a99.94 99.94 0 0 1-3.38-9.92 9.1 9.1 0 0 1 .73-5.36c1.15-2.64 4.23-3.12 5.84-.77 4.92 7.22 9.65 14.63 11.94 23.17 1.24 4.64-.71 8.17-5.57 9.36-5.37 1.31-11 1.74-16.48 2.39-2.52.3-5-.17-7.39 1.63-1.2.91-3.68.79-5.3.28a7.29 7.29 0 0 1-4-3.26c-1-2.07.24-4.2 2.16-5.14 3.64-1.79 7.47-3.16 11.24-4.66a23.39 23.39 0 0 1 2.8-.66A74.32 74.32 0 0 1 923.89 703a33.89 33.89 0 0 1-6.33-20.42 52.29 52.29 0 0 1 1.2-11c4.25-17.37 13.54-31.64 27.35-42.95a14.93 14.93 0 0 1 5.28-3 6.24 6.24 0 0 1 4.58.85c1.52 1 1.85 3.22-.14 4.1-5.67 2.51-8.34 7.82-11.76 12.31a69.1 69.1 0 0 0-13.6 32c-1.34 8.95 0 17.46 5 25.13a148.27 148.27 0 0 0 8.83 12.16c1.12 1.4 2.3 3.6 4.9 2.63-.19 2.09-.37 4.17-.56 6.26 1.3-.35 2-1 2-1.55a39.51 39.51 0 0 0-1.46-4.73zM1108.75 825.13c-3.32 6.8-5.77 12.64-7.09 18.94-.49 2.36-.72 4.78-1.15 7.15-.77 4.23-2.11 6.15-4.49 6.21-3.56.09-4.66-2.73-5.57-5.33-1.21-3.44-2-7-3.77-10.65-.19 1.71-.47 3.41-.53 5.12-.35 10.95-.64 21.9-1 32.85a38.54 38.54 0 0 1-.33 3.88c-.26 1.94-.88 3.89-3.15 4-2.66.08-3.12-2.14-3.47-4.22v-.55c-2-16.71-1.07-33.35 1.38-49.93a17 17 0 0 1 1.76-5.23 6.31 6.31 0 0 1 6.39-3.63c3 .24 3.82 2.58 4.45 5 1 3.89 2 7.79 3.33 12.92 1.44-3.87 2.24-6.72 3.54-9.32a142.36 142.36 0 0 1 7.21-13c1.26-2 3.3-3.85 6.09-2.87s3.5 3.72 3.67 6.35c.43 6.29.83 12.6.93 18.91.21 13.56.22 27.11.31 40.67 0 1.11 0 2.23-.06 3.34-.19 3.75-1.18 5.49-3.36 5.49-3.2 0-4-2.51-4.29-4.9-.72-6-1.63-12.15-1.57-18.21.15-13.37.86-26.72 1.32-40.08a20.27 20.27 0 0 0-.55-2.91zM1031.23 818.5c-1.57-2.34-2.36-3.31-2.93-4.4-.94-1.8-1.74-3.69-2.61-5.53a5.59 5.59 0 0 0-5.89-3.35 5 5 0 0 0-4.78 4.07 165.63 165.63 0 0 0-2.17 16.45c-.19 2.36.59 4.78.9 7.18a32.38 32.38 0 0 0 12 21.81c4.48 3.69 8 8.8 11.13 13.8 5.43 8.68 5.73 18.38 3.2 28-2.66 10.17-15.64 16.27-25.16 11.76-10.35-4.89-13.78-12.52-13.85-22.83 0-1.8.49-3.46 2.57-3.7s2.71 1.35 3.44 3a89.51 89.51 0 0 0 5.65 11.4c2.46 3.88 6.29 5.86 11 4.68s6.92-4.34 7.94-9c2.37-10.85-1.24-19.74-8.32-27.65a20 20 0 0 0-3.16-3.14c-16.24-11.54-17.65-28.22-15.51-45.84.49-4 2.61-8.17 4.93-11.62 3.56-5.29 9.58-6.48 15.36-4 5.12 2.21 9.08 8.62 8.38 13.9-.14 1.31-1.01 2.51-2.12 5.01zM1129.86 946.17l-9 2.26.88 16.79c0 .92.44 2 .12 2.75-.59 1.42-1.29 3.2-2.48 3.86-1.91 1.07-3.75-.2-4.5-2.05-1.58-3.95-3.37-7.92-4.15-12.06-1.52-8-2.48-16.15-3.52-24.25-.67-5.16-1.28-10.34-1.51-15.52a39.82 39.82 0 0 1 .86-9.35c.39-2 1.49-4.12 4-3.93s2.74 2.54 3.1 4.59q2.57 14.52 5.23 29c.13.73.41 1.43.78 2.68l9.87-.67c-.62-4.87-1.45-9.4-1.72-14-.43-7.21-.65-14.44-.6-21.66a12.23 12.23 0 0 1 2-6.21c1.74-2.69 4.7-2.17 6 .8a8.73 8.73 0 0 1 .72 2.67c1.74 15.31 3.67 30.6 5 45.94.5 5.67-.36 11.47-.6 17.21a5.85 5.85 0 0 1-.17 1.1c-.48 1.89-1.27 3.66-3.51 3.73s-3.35-1.55-3.72-3.49c-.91-4.73-1.68-9.5-2.46-14.26-.15-1.72-.32-3.52-.62-5.93zM1217.11 895c3 14.4 3.62 28.52 7.7 42.52 3.24-.55 6.11-1.23 9-1.44 1.21-.09 2.5.83 3.75 1.29-.7 1.17-1.12 2.86-2.15 3.42-2.91 1.56-6.08 2.66-9.47 4.07.45 6.75.91 13.52 1.42 21.12 3.7-.38 6.76-.51 9.75-1.06 2.12-.39 3.75 0 4.72 1.85s.38 3.58-1 5.07c-4.27 4.45-14.12 5.72-19.16 2a11.39 11.39 0 0 1-4-5.75 104.87 104.87 0 0 1-2.2-13.13c-.94-7-1.77-14-2.6-21-1.42-12-2.79-23.94-4.2-35.91-.23-2-.46-4-.85-6-.64-3.22-.11-4.78 2.9-6.39a21.08 21.08 0 0 1 5.69-2.19c5.27-1 10.58-1.9 15.9-2.66 2.35-.34 4.51.27 5.45 2.81.81 2.18-.17 4.3-3.24 5.65-4 1.78-8.29 3.13-12.49 4.57a46.44 46.44 0 0 1-4.92 1.16zM1047.31 856c.85-14.83 1.45-29.7 8.5-43.33a9.29 9.29 0 0 1 8.48-5.33c3.08-.1 5.88 2.39 6.82 6.36a31.5 31.5 0 0 1 .63 8.29c-.4 10.76-.78 21.53-1.56 32.27a115.11 115.11 0 0 1-2.52 14.79 13.58 13.58 0 0 1-2.05 4.54c-4 6.08-12.07 5.79-15.4-.71a27.58 27.58 0 0 1-2.13-8c-.48-2.88-.53-5.88-.77-8.88zm15.22-42.74c-6.66 9.77-9.34 44-4 56a40.68 40.68 0 0 0 1.8-5.58c1.08-6.79 2.2-13.58 2.91-20.4.82-8 1.31-15.93 1.73-23.91.11-2.19.42-4.87-2.44-6.12zM1130.81 408.86c.24-1.33.13-2.35.57-3 5.57-8.28 7.24-17.87 9.13-27.33a406.1 406.1 0 0 0 7.45-59.16c.92-18.42-1.51-36.42-8.56-53.56-9.71-23.62-28.29-36-52.67-40.79-2.13-.41-4.44.18-6.64 0-1-.09-2-1-3-1.5.93-.68 1.91-2 2.8-1.92 4.79.34 9.75.37 14.31 1.7 22.65 6.59 39.46 20.34 49.32 42a109.17 109.17 0 0 1 9.83 49.93c-.94 24.56-3.74 49-9.63 72.87-1.44 5.87-4.17 11.47-6.7 17-.86 1.9-2.33 4.28-6.21 3.76zM1145.25 806.16a4.88 4.88 0 0 1-1.51.39c-8.09-.41-10.77 1.66-10.82 9.55s.61 15.49 1 23.54a92.06 92.06 0 0 1 9.55-.49 4.66 4.66 0 0 1 3.45 2c.89 1.89-.67 3.14-2.35 3.71-3 1-6 1.8-9 2.7 1.22 9 2.42 17.94 3.64 27 5 2 5 2 8.63-1.7 4.77 2.15 5.51 5 1.87 8.08s-7.66 5.26-12.76 3.72c-5.8-1.74-7.72-4.28-8.43-10.33-.94-8.1-2.18-16.17-3.34-24.25-1.74-12.21-2.12-24.47-.1-36.64 1.44-8.71 7.7-13 16-11.81 3.05.42 3.53.93 4.17 4.53zM1208.81 362.86c.1-1.62-.07-2.58.24-3.35 5-12.31 5.74-25.37 6.1-38.35.5-18 .48-36.06 0-54.08a140.33 140.33 0 0 0-7.57-42.66c-5.15-14.8-14.31-26.4-27.88-34.27-3.48-2-7.55-3-11.26-4.66-1-.44-1.64-1.6-2.44-2.42 1-.48 2.18-1.47 3.15-1.33a24.33 24.33 0 0 1 5.83 1.82 64 64 0 0 1 34.63 33.1c6.12 13.14 9 27.17 10.06 41.51a421.88 421.88 0 0 1-1.19 79.06c-.8 6.95-3 13.75-4.79 20.54-.49 1.94-1.31 4.28-4.88 5.09zM875.44 655.59c-.93 12.8-1.66 24.65-5.2 36.13-1 3.35-1.48 6.89-2.29 10.32a22.08 22.08 0 0 1-1.54 4.74c-1.42 2.8-3.46 3.36-5.86 1.43-6.65-5.35-13.53-10.49-19.64-16.4-10.52-10.17-14.91-23.29-15.91-37.58a25.62 25.62 0 0 1 6.42-18.54 19.13 19.13 0 0 1 17.36-6.94c7.34.82 14 3.65 20.19 7.5 3.78 2.33 5.33 6.13 5.9 10.29.42 3.29.42 6.65.57 9.05zm-13.8 45.6a9.42 9.42 0 0 0 1-1.64 224 224 0 0 0 8.93-46.46 31 31 0 0 0-.06-5c-.34-4.83-2.48-8.56-7-10.6-3.72-1.69-7.42-3.59-11.33-4.59a32.17 32.17 0 0 0-11-.83c-2.11.21-5 1.69-5.89 3.44-4.3 8-6.68 16.18-4.46 25.66 4.17 17.62 14.83 30.03 29.81 40.02zM1185.17 917c6.06 6.36 11.37 13.28 14.63 21.49 1.44 3.61 2.46 7.38 3.65 11.09.62 1.92.62 3.8-1.34 4.9-2.27 1.28-3.78-.16-5.23-1.79a43.5 43.5 0 0 1-8.39-14.34c-1.35-3.74-2.91-7.44-6.77-10.07.42 4.91.87 9.82 1.24 14.74.16 2.1 1.32 4.91-1.75 5.63s-3.54-2.1-4.2-4.19a155.37 155.37 0 0 1-6.17-34.49 16.21 16.21 0 0 1 .05-3.34c1.13-9 5.87-12 15.31-11.18 4.8.39 8.14 7.77 5.69 12.39-1.63 3.03-4.12 5.64-6.72 9.16zm-6.68-16.18c-.64 4.08-.75 7.59 1.55 11.26 2.14-2.08 4.21-3.7 5.72-5.74a6.42 6.42 0 0 0 1-4.46c-.35-2.08-2.35-2-4-1.85-1.36.1-2.61.43-4.27.75zM1147.18 932.38c-2.33-2.84-2.65-6.68-2.34-10.65.46-5.91.45-11.92 1.59-17.71a13.89 13.89 0 0 1 15.25-11.02c2.45.28 4.27 1.07 3.88 4.51-1.5.1-2.91.14-4.32.3-4.65.51-7.6 2.64-8 7.13a194.41 194.41 0 0 0-.27 19.47c0 1 1.11 2.26 2 3.08 1.08 1 2.59 1.51 3.69 2.47 2.82 2.47 2.28 5.59-1.16 6.92a36 36 0 0 1-4.2 1c1.16 8.53 2.3 16.9 3.46 25.36a13.8 13.8 0 0 0 10-1.12c1.39-.74 3-1.49 3.82.28.49 1.11.34 3.28-.44 4.05a21.64 21.64 0 0 1-15.36 6.72c-3.09 0-5.14-2.35-5.84-5.22a106.27 106.27 0 0 1-2.42-13.1 137 137 0 0 1-.79-15c-.05-2.34.85-4.67 1.45-7.47zM1190.46 535c-3.53 0-7.06.17-10.57 0-3.26-.2-4.9-1.65-4.61-3.67.38-2.64 2.45-3.06 4.59-3 7.41.26 14.82.61 22.23 1a2.88 2.88 0 0 1 1.62.3c.78.67 1.9 1.54 1.91 2.33a3.1 3.1 0 0 1-1.9 2.28 36.26 36.26 0 0 1-6.6.75c-2.22.12-4.45 0-6.67 0zM1175.84 841.63c-1-.9-2.81-1.69-3.15-2.89-.58-2 1.31-2.91 3-3.2a64.74 64.74 0 0 1 8.77-.93 3 3 0 0 1 2.34 1.73 3 3 0 0 1-1.36 2.56c-2.95 1.1-6 1.74-9.6 2.73zM1239.8 1010.37a4.61 4.61 0 0 1 4.57 4.62 4.66 4.66 0 1 1-4.57-4.62zM634.73 697.25c2.91-.16 4.86 1.5 6.38 3.68 3.51 5 4 10.7 2.94 16.53a4 4 0 0 1-2.2 2.76c-.87.2-2.22-.86-3.07-1.67a28.51 28.51 0 0 1-2.73-3.5c-5.13-6.75-5.35-9.66-1.32-17.8zm1 3.4c-2.6 6-1.28 9.66 4.75 14.05.87-5.42-.79-9.7-4.79-14.05zM784 585.64c-1.06.51-1.72 1.09-2.18 1s-.84-.92-1.25-1.43c.52-.38 1-1.06 1.55-1s.88.65 1.88 1.43zM698.84 611.85c-.76-1.19-1.69-2.2-1.51-2.46a5.19 5.19 0 0 1 2.27-1.67c.2-.08 1.31 1.1 1.2 1.39a13.48 13.48 0 0 1-1.96 2.74zM650.91 560.78c-.74.56-1.2 1.1-1.75 1.23-.28.06-1.1-.82-1-1a3.13 3.13 0 0 1 1.25-1.37c.16-.06.73.58 1.5 1.14z"/><path d="M859 660.9c-.54 3.17-1.06 7-1.94 10.8a4 4 0 0 1-2.45 2.57c-.77.14-2.14-1.1-2.71-2-2.48-4.12-4.81-8.33-7.11-12.56-3.18-5.85-1.2-11.16 2-16.2 1.66-2.61 4.6-3.11 6.58-.72a26.36 26.36 0 0 1 4.67 8.6c.87 2.7.63 5.82.96 9.51zm-9.33-17.1c-1.73 3.9-4.3 7.16-2.53 11.35 1.55 3.65 2.66 7.59 6.33 10.09 2.65-8.57 1.13-17.48-3.81-21.44z"/></svg>