<svg id="Layer_1" data-name="Layer 1" xmlns="http://www.w3.org/2000/svg" viewBox="0 0 1329.18 951.72"><title>flow-state</title><path d="M55.28,700.44c-6.18-7.3-12.43-14.16-18.1-21.46C17.1,653.06,5.71,623.59,1.7,591.11c-4.27-34.63-.13-68.53,8.37-102.08,13.59-53.6,35.59-103.69,63.22-151.42,4.64-8,9.6-15.86,14.41-23.78.83-1.38,1.61-2.78,2.58-4.47-2.2-1.57-4.27-3-6.3-4.48-34.24-25-55.79-58.15-62.1-100.1C15.38,161.56,26.7,122.59,54,88.44,71.18,66.92,92.91,50.91,117,38,150.39,20.21,186,9.36,223.35,3.7A317.29,317.29,0,0,1,283.69.24,260.26,260.26,0,0,1,360.44,15.3c23.29,8.22,46.29,17.28,69.41,26,22.66,8.52,45.67,15.8,69.63,19.72a263.19,263.19,0,0,0,63.07,2.17c44.93-3.51,88.63-13.66,132.15-24.79,36.61-9.36,73.23-18.69,110-27.4a312.69,312.69,0,0,1,92-8,464.07,464.07,0,0,1,114.79,22.06c32.24,10.49,63.4,23.45,92.35,41.26,31.37,19.3,56.93,44.44,75.31,76.56,14,24.54,21.62,51.05,23.91,79.18a311.68,311.68,0,0,1-5.41,87.32c-.25,1.23-.39,2.49-.67,4.31,2,1,4.08,2.07,6.13,3.09,26.84,13.37,50.57,30.81,70,53.82,21.74,25.81,35.63,55.55,43.23,88.28,6.87,29.62,11.46,59.63,12.68,90,1.27,31.77-4.57,62.43-18.6,91-18.13,36.88-42.25,69.48-73.08,96.94-27.66,24.65-59.43,40.9-96,47.43-6.61,1.18-13.29,2-20,2.65a7.58,7.58,0,0,0-6.21,3.51c-32.38,46.53-73.26,84.48-119.33,117-24.19,17.07-50.45,30.29-79.17,38.19-50.11,13.76-95.43,4.41-135.45-28.76-12-10-23.2-21-34.49-31.75-15.65-15-31.48-29.69-48.69-42.87-21.54-16.49-45.24-28.24-72.23-32.74-21.52-3.58-42.74-1.93-63.8,3.25-28,6.89-54.67,17.51-80.73,29.62-26.69,12.41-53,25.56-79.61,38.21-23.32,11.08-47.05,21.13-71.71,29-35.22,11.19-71.25,16.31-108.08,13.65-48.31-3.49-92.24-19.48-130.69-49.28C73.26,860,58.7,843.07,49,822.48c-15.2-32.19-16.39-65.16-4-98.49C48,716,51.79,708.36,55.28,700.44ZM752.7,679.52l-.33-1.16c-7.52-1-15-1.9-22.54-2.9-6.18-.82-12.74.36-18.37-3.48a7.11,7.11,0,0,0-2.64-.6c-29.19-5.13-57.84-12.58-86.59-19.71-37.9-9.39-75.79-18.83-114.36-25.34-15.37-2.6-30.4-7.2-45.72-10.23-14.26-2.82-28.57-5.21-42.63-9a155.55,155.55,0,0,1-37.4-16.17A56.9,56.9,0,0,1,370,580.82a87.3,87.3,0,0,1-15.81-24c-6.79-14.65-8.73-30.25-9.74-46.11a263.57,263.57,0,0,1,3-57.08c5.18-33.34,23.05-57.94,54.73-71.39,5-2.13,10.25-3.69,15.37-5.54,1.41-.51,2.78-1.15,4.47-1.86-1.25-1.44-2.06-2.41-2.91-3.34a92,92,0,0,1-20-34.1,135.17,135.17,0,0,1-5.2-62.45c1.26-8.49,3.11-16.81,6.89-24.57.86-1.75,1.84-4,3.38-4.73,2.55-1.21,3.15-3.31,4.16-5.4,1.82-3.76,3.45-7.63,5.58-11.21,7-11.69,17-19.19,30.58-21.64a75.43,75.43,0,0,1,24.95-.14c1.76.27,3.53.47,4.77.63,5.43-7.8,10.18-15.36,15.65-22.34,14.81-18.9,33.39-32,57.34-37.1a208.25,208.25,0,0,1,85-.82c34,6.79,65.58,18.83,93.35,40,.85.64,1.78,1.16,2.84,1.85l5.76-3.2c33.46-18.68,69.29-28.84,107.67-29.73a236.11,236.11,0,0,1,60,6.66,8.79,8.79,0,0,0,8.77-2.1,199.66,199.66,0,0,1,19.45-14.91c22.18-14.45,46.34-25,70.69-35.11a13.39,13.39,0,0,1,3.68-1c4-.44,6.75,2.13,6.46,6.11a18.33,18.33,0,0,1-1.18,4.73c-1.83,5.13-4,10.16-5.62,15.35a433.72,433.72,0,0,1-22.35,57.33,12.5,12.5,0,0,0-.57,2.14c.8.66,1.44,1.29,2.17,1.79a205.35,205.35,0,0,1,38.72,34.24c15.62,17.73,30.85,35.81,46.08,53.88a9.74,9.74,0,0,0,8.33,3.8,306.75,306.75,0,0,1,107.84,19.06c1.27.47,2.62.69,4.06,1.07.46-1.65.9-2.85,1.12-4.09,5.49-30.21,7.53-60.54,3.83-91.16a178,178,0,0,0-35.24-87.42c-20-26.44-45.16-46.67-74.36-62A475.19,475.19,0,0,0,923.48,14.41c-39.75-5.24-79.11-3.73-118.06,5.49C772,27.8,738.71,36.17,705.47,44.74,659,56.73,612.38,68,564.35,71.89a274.93,274.93,0,0,1-65.79-2.09c-23.06-3.69-45.31-10.39-67.14-18.51-24.18-9-48.15-18.55-72.46-27.17-27-9.59-55-15.44-83.8-15.14a413.35,413.35,0,0,0-41.33,2.37A315.28,315.28,0,0,0,130.61,41C105.34,53.24,82.34,68.74,64,90.28,36.18,122.93,24.26,160.74,30.6,203.21c6.21,41.58,28.07,73.83,62.82,97.38a12,12,0,0,0,2.06.88c1.16-1.63,2.21-3.09,3.25-4.56,5.86-8.32,11.56-16.76,17.63-24.93,17.93-24.16,37.61-46.74,61.07-65.77,18.07-14.67,37.67-26.67,60-33.64,12.6-3.92,25.39-6.15,38.68-4.18,20.3,3,34.39,16.64,37.27,36.4a49.52,49.52,0,0,1-1.26,18.93c-4.63,19-14.11,35.39-26.84,50-20.22,23.15-45.3,39.16-74.45,48.54-37.71,12.12-74.77,11.43-110.56-7.24a11.79,11.79,0,0,0-2.22-.62c-1.1,1.58-2.19,3-3.12,4.54-4.1,6.66-8.25,13.28-12.2,20C53.25,389.39,30,442.46,16.64,499.6c-6.91,29.59-9.78,59.46-6.23,89.82C15,628.38,31.08,661.76,58.15,690a31.27,31.27,0,0,0,2.51,2.11c1.5-2.2,2.7-4,4-5.77Q114.35,616,197.17,592.4c19.78-5.68,40.08-7.48,60.39-2.78,30.24,7,49.78,25.29,56.58,56,5.47,24.67,2.31,48.53-9,71.06-16,32-41.71,51.14-77.25,56.46-19.58,2.94-38.81.37-57.66-5.15-38.66-11.33-72.58-31.29-103.16-57.22-1.44-1.22-2.91-2.41-4.86-4-2.69,5.88-5.19,10.92-7.33,16.1-12,29-12.77,58.34-1.51,87.68,8.69,22.65,23.57,40.94,42.46,55.76,37.9,29.72,81.38,45.23,129.24,48.23,32.39,2,64.19-2.19,95.36-11.36,25.7-7.56,50.35-17.78,74.5-29.25,27.41-13,54.55-26.59,82.07-39.37,27.05-12.56,54.73-23.59,83.82-30.65,26.41-6.41,52.86-7.22,79.33-.43,22.5,5.78,42.7,16.31,61.19,30.21s35.6,29.94,52.48,46c12.25,11.64,24.3,23.63,37.59,34,34.14,26.64,72.69,35.07,115.08,25.36,24.91-5.71,47.78-16.16,69.52-29.3,29.89-18.08,56.21-40.66,81.18-64.91,16.45-16,31.82-32.95,45.25-51.59,1.08-1.5,2-3.09,3.45-5.23-3.05-.19-5-.35-7-.43a163.62,163.62,0,0,1-41.88-6.72c-41.84-12.85-73.76-38.92-98.6-74.39-5.94-8.47-12-16.88-18.58-24.87-3.16-3.85-7.45-6.84-11.47-9.89-3-2.27-6.41-4-9.9-6.17-.42.27-1.2.71-1.93,1.22-24.26,17-48.47,34.09-72.83,50.94-6.11,4.23-12.64,7.87-19.14,11.48-5.4,3-11.21,3.5-17.43,2.79-14.25-1.62-28.57-2.64-42.86-4-10.3-1-20.6-2-30.87-3.29a22.48,22.48,0,0,1-7.22-2.34c-3.37-1.69-4.57-4.66-3.55-8.21a13.93,13.93,0,0,1,2.25-4.91c5-6.21,10-12.48,15.37-18.33C744.06,686.73,748.53,683.27,752.7,679.52Zm173-19c2.17,1.34,4,2.35,5.73,3.58,4.26,3.06,9.1,5.63,12.52,9.46,7,7.84,14,15.9,19.62,24.72,16.26,25.38,37.85,45,63.51,60.23,24.71,14.68,51.85,20.43,80.4,20.31,2.78,0,5.13-.23,6.9-3.13,13.75-22.43,25.18-45.86,31.29-71.62a100.12,100.12,0,0,0,2.22-37.33c-2.85-20.28-15.26-35.72-26.11-52.39-3.15,2.44-5.72,4.76-8.6,6.6a94.14,94.14,0,0,1-10.92,6c-6.84,3.17-13.34,2-19.73-1.78-6.92-4.12-10.69-10-10-18,.78-9,4.34-16.53,13.49-20.08,8.64-3.36,16.78-2.41,24.24,3.13,4,3,7.86,6.17,12,9.43,6.6-7.16,13.13-14,19.36-21.06a98.22,98.22,0,0,0,15.48-24.92c10.71-23.72,13-48.69,10.48-74.18-2.63-26.65-10.76-51.86-21.83-76.16-.65-1.42-1.5-2.75-2.45-4.49-1.9,1.44-3.48,2.62-5,3.83-20.3,15.87-42.6,27.7-67.86,33.55-17.9,4.14-35.88,5.75-54,1.7-32.93-7.35-54.05-33.89-53.48-67.63.41-24.64,11.29-44,31-58.36,15.47-11.26,33.14-17.1,51.83-20.2,4.43-.73,8.89-1.24,13.91-1.93-1.06-1.53-1.66-2.58-2.43-3.49-10.65-12.66-21.23-25.38-32-37.92S1003,223.85,990,213.51c-4.37-3.48-9-6.68-13.56-10.11-1,1-1.62,1.64-2.14,2.35-12.36,16.87-27.42,30.92-44.2,43.35C916,259.54,900.76,268,885.26,276c-8,4.1-17,6.29-25.64,9.08a5,5,0,0,1-4.3-1.27c-.84-.95-1.24-3.35-.61-4.34,1.74-2.72,1.42-5.56,1.45-8.42.21-16.54,3.06-32.55,9.73-47.74,7.92-18,16.74-35.55,31.25-49.45a17.13,17.13,0,0,0,1.58-2.29c-57.7-13.21-111.6-5-163,24,5.12,5.41,10,10,14.26,15.16q49.14,58.94,39.25,135.09A120.35,120.35,0,0,1,769.86,398c-7,10.43-15.72,19-26.84,25.06-29.23,15.82-61.29,6.52-81.58-12.71-15.27-14.46-22.39-33-24.38-53.41a161.46,161.46,0,0,1,21.64-99c14.14-24.31,33.62-43.67,56.52-59.74,1.55-1.09,3-2.24,4.9-3.63-2.57-1.89-4.43-3.32-6.36-4.67a193.68,193.68,0,0,0-47.56-24c-37.27-12.93-75.15-17.31-114.27-9.52-32.19,6.41-52.4,27-68,53.82a6.31,6.31,0,0,0,.94,1.15,17.57,17.57,0,0,0,1.91,1c10.34,4.86,18.22,12.49,24.54,21.85a98.91,98.91,0,0,1,13,27.49c10.25,34.66,6.17,68.27-7.71,101.11-.68,1.59-1.46,3.14-2.53,5.46,5.43-1.13,10-2.22,14.58-3,11.41-1.95,22.39-.86,31.25,7.26,7.09,6.49,13.48,13.78,17.58,22.71,7.48,16.27,13,33.22,15.43,50.93,1.65,12,8,21.2,14.7,30.49a10.92,10.92,0,0,0,3.8,3c15,7.81,29.78,16.06,46.28,20.38,18.63,4.87,37.19,10.05,56,14.21,21.81,4.83,43.85,8.58,65.75,13,9.07,1.84,18,4.31,27,6.34,9.57,2.15,19.23,3.92,28.76,6.21A217.05,217.05,0,0,0,862.51,545c8.4.92,17.1,1.41,23.6,7.06,6.5-1.57,12.44-3.33,18.5-4.42,10.07-1.82,19.93-1.8,28.52,5.14a50.36,50.36,0,0,0,5.31,3.4c4.93-4.1,9.34-7.59,13.55-11.31,4.79-4.22,10.16-5.34,16.24-3.76,10.18,2.66,20.38,5.27,30.57,7.93a26.26,26.26,0,0,1,3.06,1.15c7.07,2.84,14.09,5.79,21.21,8.52,9.87,3.77,13.15,11.78,7.68,20.88a46.06,46.06,0,0,1-9.71,10.88,168.89,168.89,0,0,1-16.67,12.3c-26,17.09-50.87,35.7-75.41,54.79C928,658.31,927.12,659.18,925.68,660.48ZM723.76,621.86c-5.12-.92-9-1.51-12.91-2.33-16.34-3.5-32.49-7.7-48.58-12.27-21.12-6-42.64-10.63-63.95-16-32.77-8.28-65.43-16.92-97.59-27.33-13.77-4.46-28.16-6.93-41.49-12.7a217.33,217.33,0,0,1-24.44-11.93c-12.22-7.21-15.25-19.23-14.89-32.44.11-4.13,2.19-6.25,4.92-5.91,2.49.3,3.18,1.89,3.08,6.44-.26,12.08,3.86,21.77,15.44,27,8.1,3.68,16.37,7,24.51,10.53,3.28,1.44,6.2,1,9.4-.41,12.36-5.28,24.73-10.56,37.26-15.43,15.52-6,31.3-11.33,47.75-14.32,3-.55,5.41,1.09,4.66,4.11-.89,3.55,1,5.15,3.16,6.77a69.26,69.26,0,0,0,8.17,5.37c7.86,4.19,15.79,8.24,23.76,12.22,8.29,4.15,16.65,8.06,25.76,10.24q39.75,9.49,79.42,19.33c15.54,3.86,31.18,7.28,47.1,8.82,29.3,2.84,58.64,5.12,88,7.58,2.65.22,5.34,0,8,0,2.69-6.85,3.47-13.84,8.23-19,4.49-4.83,9.13-9.51,14.09-14.66-2.08-.42-3.63-.87-5.22-1-4.85-.49-9.82-.33-14.53-1.38-25-5.57-49.83-11.8-74.88-17.1-32-6.77-64.18-12.29-95.9-20.49-25.12-6.49-49.63-13.88-72.35-26.62-5.21-2.92-9.56-6.51-12.57-11.72-1.63-2.84-3.71-5.41-5.24-8.29-2-3.65-4.18-7.32-5.16-11.26-3.26-13-5.43-26.27-9.59-39.12-4.25-13.13-9.59-25.34-19.13-35.65-6.87-7.44-14.87-11-24.74-9.68-7,1-13.8,3.39-20.8,4-4.48.42-7.08,2.61-10,5.35-10.51,9.84-23,14.26-37.41,13-11.76-1-22.12-5.65-31.7-12.16-2.55-1.73-4.79-2.17-7.5-1.08-9.42,3.8-19.34,6.7-28.15,11.59-23.58,13.09-37.59,33.7-41.32,60.21-3.19,22.65-4.72,45.55-2.07,68.5,1.54,13.36,5.09,26,11.79,37.7,5.11,8.89,11.05,17.28,20.09,22.57,10,5.86,20.44,11.05,31.72,14.29a365.83,365.83,0,0,0,40.92,9.14c23.11,3.84,45.68,10.25,68.76,14.5,29.09,5.36,57.87,12.52,86.63,19.53,30.89,7.52,61.52,16.08,92.89,21.48,1.14.2,2.32.23,4,.39C709,647,713.09,633.87,723.76,621.86Zm426.79-229.54c3.34,7.67,6.61,14.57,9.36,21.67,2.81,7.27,5.26,14.7,7.6,22.15,8.62,27.38,12.17,55.33,8.17,83.91-3.9,28-14.73,52.65-35.33,72.59-4.23,4.09-7.87,8.77-12,13.46,4.13,7,8.06,13.63,12,20.28,1.3,2.18,2.72,4.3,4,6.49,4.62,7.86,8.57,16,10.75,24.92,4.24,17.42,2.69,34.65-1.68,51.75-5.67,22.17-15.08,42.77-26.61,62.46-1,1.62-1.82,3.29-3.21,5.8,3.85-.42,6.55-.63,9.21-1,37.14-5.56,69.64-20.91,97.78-45.8,30.08-26.62,53.61-58.26,71.43-94.05,13.68-27.48,19.29-57,18.13-87.7-1.07-28.39-5.39-56.4-11.44-84.12q-20.87-95.49-108.14-139.7c-1.87-1-3.82-1.74-6.11-2.78C1186.52,350.5,1171.48,373.27,1150.55,392.32ZM66.43,698.65c1.93,1.56,3.09,2.43,4.17,3.38a279.35,279.35,0,0,0,87.77,52.8c18.87,7,38.29,11.33,58.61,10.48,19.24-.81,36.73-6.65,52.17-18.2,30.59-22.88,45.38-65,35.87-102.11-4.61-18-14.75-31.78-31.48-40.38-10.7-5.51-22.15-8-34.09-8.51a131.84,131.84,0,0,0-44.61,6q-65.15,20.19-109.69,72C78.67,681.65,73,689.92,66.43,698.65Zm660.8-498.22c-6.52,4.82-12.67,9-18.45,13.7C679.2,238,658.07,267.43,649.38,305c-4.77,20.61-6.18,41.34-1.65,62.15,3.81,17.46,12.16,32.22,27,42.77,28.23,20.07,62.43,15.29,84-11.74a96.57,96.57,0,0,0,14.37-25.57c6.7-17.18,9.2-35.05,8.85-53.42-.85-44.76-17.68-82.57-49.4-113.93C731.07,203.72,729.39,202.36,727.23,200.43ZM103.68,305.94a4.21,4.21,0,0,0,.73,1,14,14,0,0,0,1.87,1.11c15.79,7.95,32.46,12.63,50.18,13.16,37.67,1.12,71.06-10.86,100.9-33.39a130.07,130.07,0,0,0,37.15-42.94c4.89-9.2,8.74-18.75,10.12-29.17,2.11-15.89-5-29.1-19.34-35.5-7.46-3.34-15.35-4.14-23.45-3.53-11.72.89-22.84,4.12-33.62,8.63-21.22,8.88-39.63,22-56.5,37.46-26.21,24-47.54,52-67.16,81.34A14.2,14.2,0,0,0,103.68,305.94Zm1035.4,84.55c-1.21-2.2-1.95-3.87-3-5.35-6.4-9.24-12.4-18.82-19.42-27.59-13.86-17.28-28.17-34.21-42.52-51.08-8.2-9.65-4.19-8.4-17.15-7.22-.73.06-1.46.06-2.18.14-17.5,2-34.26,6.49-49.49,15.58-18.1,10.82-29.91,26.16-33.08,47.45-3.57,24,7.16,53.68,37.8,64.47,15.52,5.46,31.37,5.44,47.34,2.9,27.72-4.4,52.22-16.07,74.24-33.23C1134.06,394.68,1136.39,392.69,1139.08,390.49ZM731.92,714.18l.54,1.4c6.79.92,13.56,2.06,20.38,2.69,18.81,1.76,37.64,3.22,56.44,5a18.49,18.49,0,0,0,11.08-1.9c5.72-3.16,11.45-6.33,16.88-10,8-5.33,15.78-11,23.63-16.63,23.24-16.53,46.75-32.71,69.63-49.73,22.17-16.48,44.16-33.19,67.21-48.45,6.2-4.11,12.19-8.58,18-13.19a34.06,34.06,0,0,0,7-7.53c3-4.49,1.84-7.2-3.29-9.08-4.6-1.69-9.44-2.9-13.77-5.1-12.66-6.42-26.67-8.18-40-12a7.72,7.72,0,0,0-5.7.62,80.17,80.17,0,0,0-14.67,12.07c2.11,1.85,3.9,3.36,5.62,4.94,4.24,3.91,7.41,8.51,8.48,14.28,1.35,7.32-2.94,12.43-10.35,12.85-4.94.28-8.69-2.12-12.42-4.78-1.85-1.33-3.68-2.7-6.11-4.49l-1.25,14.32a13.4,13.4,0,0,1-8.83,12c-1.33.55-2.69,1-4.07,1.58-.43,1-.81,2-1.29,3-2.62,5.39-8.35,8.81-13.6,8.15-5.09-.64-8.19-4.29-9.46-11.16-.13-.72-.25-1.43-.33-2.16-.32-2.79-.61-5.59-.92-8.45-.68.23-1.27.28-1.3.46-.74,3.44-1.81,6.72-.83,10.48,1.23,4.71,1.55,9.66,2.23,14.51a8.14,8.14,0,0,1-2.15,7,12.55,12.55,0,0,1-14,2.95,18.23,18.23,0,0,1-9.33-8.79c-2-4-3.83-8.12-5.92-12.56-3.29,1.94-6.42,3.69-9.44,5.63a7.2,7.2,0,0,0-2.51,2.72c-1.39,2.91-2.52,5.94-3.84,9.11,2.93,3.77,5,8.13,3.4,13-1.48,4.44-1.6,10-7.51,11.73a1.72,1.72,0,0,0-.94,1.22c-.64,6.42-6.09,8.69-10.39,11.82-1.67,1.21-3.09,2.13-3.63,4.33-1.22,4.86-4.62,8.18-8.72,10.73-6,3.75-11.55,2.54-15.42-3.46-2.25-3.5-4.1-7.25-6.08-10.92-4-7.36-7.39-8.31-14.36-3.91-.61.39-1.17.88-1.81,1.21-6.62,3.43-10.9,9.69-17,13.91-6.51,4.53-12.23,10.31-17.77,16C739.16,704.16,735.72,709.34,731.92,714.18Zm-327-451.52a122.27,122.27,0,0,0-3.54,33.82c.57,16.81,2.95,33.27,10.55,48.6,8.8,17.76,21.66,31.24,40.36,38.6,19.89,7.82,38.85,2.27,50.72-15.4a82.29,82.29,0,0,0,9.27-18.4c7.71-21.88,11-44.41,7.67-67.56-2.41-17-8.09-32.74-18.48-46.6A49.08,49.08,0,0,0,473,216.88a68,68,0,0,0-23.83-1.32c-11.05,1.27-20,6.37-26.15,15.82-5,7.67-8.82,15.83-9.91,25.1C412.43,262.22,411.19,263.1,404.93,262.66Zm81,287.48c2.21.76,3.54,1.27,4.9,1.68,32.68,9.81,65.29,19.9,98.47,28,20.63,5,41.35,9.76,61.88,15.21,24.37,6.47,48.43,14.15,73.46,18,3.46.53,7.27,1.21,9.14,5.1a4.13,4.13,0,0,0,2.14,1.5c7.45,3.09,14.33,5.11,22.67.59,10.95-5.93,23-9.93,34.53-14.72a26.61,26.61,0,0,1,14.37-2c2.85.44,5.7.82,8.54,1.3,3,.52,6.18.73,9,1.79,6.94,2.61,13.71,5.63,20.44,8.44l11.82-5.93c-.66-2.27-1.5-4.85-2.13-7.48s-2.08-3.57-4.66-3.54c-3.63,0-7.27,0-10.89-.21-14.13-.94-28.28-1.78-42.38-3-15.74-1.41-31.43-3.22-47.14-4.87-20.12-2.11-39.63-7.33-59.23-12-19.08-4.51-38-9.8-57.1-14.12-12-2.7-23.47-6.31-34.29-12.06-6.58-3.5-13.12-7.05-19.75-10.44-8.27-4.24-16.23-8.85-21.39-16.73C545.54,526.39,498.58,543.86,485.92,550.14ZM864.2,274c33.91-9,89.72-49,103.67-75.71-1.53-.91-3.07-1.86-4.64-2.74-15.44-8.65-31.84-14.93-48.73-20.12-3.87-1.19-6.16-.27-9,2.42-16.41,15.54-26.31,35.07-34,55.78-3.14,8.43-4.66,17.5-6.42,26.38C864.2,264.36,864.47,269,864.2,274Zm322,44.81c-34.33-13.63-69.54-19.77-106-20,22.34,28.27,47.21,54.24,66,85.54C1165.81,365.84,1179.35,344.68,1186.21,318.79ZM836.33,627.48c3-5.16,2.95-5.5-.88-7.39-8.31-4.1-16.52-8.55-26.32-7.32-.7.09-1.46-.34-2.16-.26-3.73.41-7.67.3-11.14,1.51-9.42,3.28-18.65,7.12-27.93,10.78-2.83,1.12-5.85,1.79-7.78,4.65-.66,1-2.49,1.34-3.86,1.64-6.43,1.4-12.6.39-18.61-2.19-4.74-2-7.47-1.56-10.33,2.69-2.71,4-5.43,8.32-6.88,12.89-2.31,7.31-3,14.91.72,21.79l33.36,3.61c.36,0,.73,0,1.09,0A19.62,19.62,0,0,0,768.32,666a92.69,92.69,0,0,1,13.47-8.16c4.63-2.3,9.14-1.38,13.15,2.07A31.72,31.72,0,0,1,803.47,671a98.79,98.79,0,0,0,5.3,9.13c6.93-3.2,8-5.78,7.08-12.19-1-7.59-3.55-13.33-11.92-15.15a4.15,4.15,0,0,1-3.27-5.41c.73-2.4,3.25-3.66,6.23-2.64,3.25,1.11,6.36,2.64,9.51,4a10,10,0,0,1,6.06,7.84c.42,2.23.92,4.45,1.4,6.78,5.12-2.66,5.41-2.82,5.29-5.16-.26-5.26-1.51-10.14-6.36-13.16-4.59-2.87-9.21-5.73-13.95-8.34-2-1.1-3.28-2.29-2.79-4.63.42-2,2.68-3.4,5.13-3a10.78,10.78,0,0,1,3.57,1.25c3.77,2.16,7.52,4.37,11.2,6.7,4,2.56,7.55,5.68,9.5,10.21.29.67.57,1.34,1.07,2.53,2.92-6.78,2.78-8.15-1.25-11.78-2.68-2.43-5.56-4.64-8.43-6.85-3.45-2.64-7-5.19-10.5-7.75-1.83-1.34-2.63-3-1.68-5.19s3-2.74,5.58-1.45a65.6,65.6,0,0,1,7.34,4.64C830.41,623.31,833.18,625.29,836.33,627.48Zm114.09-42.71c.38-4.95-2.29-8.18-5.23-11.15-3.32-3.34-6.71-6.64-10.32-9.66-7-5.88-14.93-9.57-24.42-8.46-2.52.29-5.07.47-7.54,1-7.08,1.52-14.14,3.16-21.18,4.86a6.51,6.51,0,0,0-2.81,1.58c-4.74,4.47-10.13,8.49-13.91,13.67-4.32,5.93-7.76,12.81-2.94,20.52.93,1.49,1.09,3.44,1.75,5.13,2.74,7.1,5.35,14.26,8.42,21.22,1,2.19,3,4,4.89,5.63a3.76,3.76,0,0,0,3.45.42c.72-.39,1.11-2.14,1-3.19-.73-5.2-1.54-10.4-2.61-15.53-1.64-7.89,4.21-16.44,12.18-17.53a5.72,5.72,0,0,1,5.73,2.25,12.62,12.62,0,0,1,2.58,8.61c-.06,4-.42,8.35,2.83,11.59,4.41-1.63,4.52-1.61,5.26-4.92a31.87,31.87,0,0,0,.88-7c0-6.53-.37-13.06-.47-19.59a17.08,17.08,0,0,1,.66-6.34,4.75,4.75,0,0,1,3.78-2.27c1.27.07,2.67,1.5,3.6,2.67.58.74.5,2.08.55,3.16.3,6.35.52,12.69.84,19a18,18,0,0,0,.71,3c3.26-1.94,3.22-4.84,3.24-7.47.06-6.35-.19-12.7-.21-19.05,0-2-.16-4.17.68-5.8a6.22,6.22,0,0,1,4.18-2.7c1.93-.3,3.34,1.26,3.77,3.23a17.69,17.69,0,0,1,.24,3c4.22,2.79,7.93,5.3,11.7,7.72C944.16,584,946.43,586.47,950.42,584.77Zm49.63-463.6c-2.44.9-4,1.34-5.41,2-13.48,6.31-27.06,12.42-40.37,19.07a168.19,168.19,0,0,0-33.33,21.54c-1,.87-1.92,1.92-3,3,9.81,3.67,19.29,6.83,28.45,10.74s17.85,8.51,27,12.91C984.58,168.38,991.82,145.19,1000.05,121.17Zm116.29,486.41a43.37,43.37,0,0,0-15.14-12.36c-3.64-1.87-7.37-1.41-11.08-.21-6.18,2-10.25,9.91-8.4,16.24,1.64,5.62,9.17,9.62,15.29,8.19C1104.72,617.63,1110.41,612.67,1116.34,607.58Z"/><path d="M128.66,504.76c-3.09,0-6.3-.53-9.25.11-5.16,1.13-8.39-2.4-12.23-4.36-1-.5-1.46-2.39-1.82-3.73-1.4-5.26-.71-10.49.65-15.63,6.53-24.72,19.62-45.27,40-60.82,11.21-8.56,24.29-13.8,37.58-18.32,9.11-3.1,18.22-6.27,27.5-8.79a213.38,213.38,0,0,1,21.35-4.13c4.29-.71,8.65-1,13-1.36,3.85-.29,6.21,2.9,4.19,5.9-4.63,6.85-6.75,14.79-10.16,22.16-4.43,9.55-8.09,19.52-13.14,28.73-15.28,27.9-37.42,47.91-68.49,57A92.7,92.7,0,0,1,128.66,504.76Zm83.09-103.24c.13,2.25.22,3.31.25,4.38.12,5.24.73,10.52.27,15.71-1.94,21.69-13.79,35.8-34.15,42.72-17.37,5.91-34.59.48-45.7-13.89a17.45,17.45,0,0,1-1.25-2.72c-8.64,13.29-15.49,25.76-18.08,40.14a14,14,0,0,0,1.12,9.5c10.25-.65,20.72-.38,30.84-2.15,34.35-6,58.38-26.27,74.22-56.56,6.37-12.19,11.3-25.15,16.85-37.77a21.06,21.06,0,0,0,.72-3.78Zm-76,40.53c1.16,1.33,1.95,2.08,2.56,2.95,6.95,9.94,16.79,13.8,28.43,12.53,15.51-1.68,27.69-9,33.65-23.93,2.24-5.62,2.72-12,3.51-18.09a15.89,15.89,0,0,0-1.66-10.07c-2.78.85-5.35,1.77-8,2.38a5,5,0,0,0-4.15,4.37c-.73,3.74-1.71,7.43-2.46,11.17-1.24,6.14-4.94,10.31-10.18,13.46-8.46,5.09-22.17,3.59-28.93-7.12-1.25,1.05-2.55,2-3.69,3.14C141.85,435.77,139,438.76,135.72,442.05Zm19-17.19a35.19,35.19,0,0,0,2.55,3.13c6.28,5.9,18.1,3.65,21.05-4.21,1.23-3.28,1.54-6.91,2.49-11.42A172,172,0,0,0,154.71,424.86Z"/><path d="M540.77,717.39c8.09-.83,14.39,2.46,20.41,6.89a21.21,21.21,0,0,1,8.7,13.36c2.1,10.81,2.5,21.63-.8,32.35-2.23,7.26-10,11.64-16.53,7.85-11.74-6.83-22.43-15.25-26.14-29.28a36,36,0,0,1,3.48-27.92c.87-1.51,1.41-2.73.55-4.5-6.41-13.24-12.71-26.53-19.09-39.78-.61-1.28-1.47-2.45-2.75-4.55-3,7.29-5.6,13.85-8.15,20.18,8.05,13,8.58,27,6.31,41.24a109,109,0,0,1-23.69,53.1,76.16,76.16,0,0,1-24.13,19.23c-5,2.59-10.1,5-15.25,7.25-7.12,3.1-10.79,1.44-13.26-6.08a86.4,86.4,0,0,1-2.67-44.06c4.13-21.53,16.52-37.28,33.47-49.89,7.4-5.5,15.57-10,23.58-14.6,3-1.72,5.23-3.56,6.54-6.84,3.11-7.74,6.48-15.39,9.79-23.06,2.1-4.89,3-5.17,8.14-5.24,3.09,0,4.69,1.34,6,3.77,5.26,10.16,10.61,20.27,15.8,30.47C534.31,703.74,537.36,710.32,540.77,717.39ZM495.93,702c-5.27,2.88-10.21,5.55-15.13,8.26a123.57,123.57,0,0,0-24,17.83c-16.75,15.43-22.73,35-21.8,57a53.77,53.77,0,0,0,4.26,19.39c24.46-8,41.32-23.7,51.15-46.89C498,739.81,502.21,721.53,495.93,702Zm40.44,24.79c-3.28,9.62-4.24,19.44,2.84,28.06,4.11,5,9.23,9.23,14.26,13.36,3.6,2.95,6.39,1.78,7.62-2.67,2.5-9,2-18-.24-26.92-.66-2.58-2.8-5-4.81-7C550.67,726.51,544.1,725.13,536.37,726.8Z"/><path d="M490.27,448.75c.63-2.11,1-3.83,1.65-5.46,3.44-9,9.1-15.61,18.84-18,6-1.48,11-.07,15.19,4.68,7.22,8.22,8.36,16.44,2.82,26-4.28,7.37-9,14.46-13.53,21.72-3.91,6.33-7.68,12.74-11.56,19.09a58.11,58.11,0,0,1-3.61,5.43c-2.06,2.69-4.56,3.83-8.09,2.53-4.4-1.63-9-2.69-13.44-4.27-10-3.56-16.85-11.13-23.52-18.81-4.66-5.37-5.16-12.31-5.75-19-.95-10.83,5-19.35,15.32-22.79,9.31-3.1,17.58-.7,23.87,6.91C488.9,447.34,489.41,447.83,490.27,448.75Zm2.86,47.75c.7-.9,1.31-1.57,1.78-2.32q12.87-20.82,25.7-41.68a22.26,22.26,0,0,0,2.32-4.91c1.33-4.18-1-10.18-4.93-13-2.39-1.71-6.89-1.06-10.61,1.68a19.31,19.31,0,0,0-7.68,12.14c-.93,4.79-1.38,9.67-2.07,14.5-.35,2.47-1.21,4.69-3.94,5.28s-4.28-1.27-5.44-3.51c-1.83-3.54-3.81-7-5.59-10.58-2.65-5.28-7.06-7-12.63-6.43-7.1.68-12.68,7-12,14.07s1.45,13.83,7.81,18.36a5.32,5.32,0,0,1,1.05,1.25C473.38,490.28,482.74,494.11,493.13,496.5Z"/><path d="M450.66,317c-8.57-1-18.24-1.63-26.48-7.49a7,7,0,0,0-1.45-.73c-5.5-2.15-6.12-3.16-3.86-8.73,5.9-14.51,15.51-25.68,29.89-32.39,1.65-.77,3.41-1.26,5-2.05,13.32-6.44,26.42-4.67,39.41,1,3.16,1.38,6.38,2.68,9.37,4.36,4.06,2.27,5.28,6.07,3.46,10.18C495.65,304.68,472.82,315.81,450.66,317Zm37.55-42.9c-1.73,4.91-3.29,9.14-4.73,13.42-2.53,7.53-8.09,11.37-15.58,12.75-5,.92-10.13,1.42-15.13-.08-7.31-2.19-11.5-7.6-14.14-14.46-5.57,4.33-10,10.77-11.09,16.18,21.33,15.55,61.1.93,69.48-23.85ZM478,275.8c-6.53,8.49-10.8,11.21-17.14,10.36-5.48-.74-8.79-4-9.88-10l-8,4.85c2,2.33,3.89,4.26,5.51,6.36,2.34,3,5.28,5.34,9.13,5.17a71.12,71.12,0,0,0,12.25-2,6.08,6.08,0,0,0,3.4-2.52A34.06,34.06,0,0,0,478,275.8Zm-8-6-11.7,3.53c1.67,4.22,2.26,4.84,4.63,4.58C466.88,277.49,468.53,274.69,469.91,269.83Z"/><path d="M486.2,731.08c-.87,2-1.41,3.51-2.2,4.92q-12.4,22-24.91,44c-1.58,2.77-3.69,3.59-5.72,2.52s-2.49-3.21-1.19-6.2c.86-2,1.92-3.9,3-5.81q10.55-19.34,21.12-38.64c.77-1.41,1.53-3.11,2.79-3.89a5.43,5.43,0,0,1,4.46-.4C484.72,728.1,485.36,729.9,486.2,731.08Z"/></svg>