<svg data-name="Layer 1" xmlns="http://www.w3.org/2000/svg" viewBox="0 0 870.2 440.49"><path d="M54.95 357.92c-.76.83-2 1.55-2.21 2.51-1.36 5.42-2.55 10.72-1.24 16.56a25.5 25.5 0 0 0 3.61 8.52 73.51 73.51 0 0 1 4.19 8.2c2.39 5.07 5.19 6.63 10.86 6.06 4.5-.46 9-.7 13.52-1.21 3.49-.39 5.73 1 7.77 3.8s3.73 4.87 1.42 8.24c-.5.71 0 2.35.44 3.42a9.87 9.87 0 0 1-.25 8.43 6.42 6.42 0 0 1-5.53 3.78 23.73 23.73 0 0 0-14.17 6.62c-1.39 1.33-2.66 2.67-5 2.12-.81-.19-2.26 1-3 1.88-2.53 3.31-5.79 4.21-9.67 3.32-3.71-.85-7.37-1.91-11.09-2.67s-7.38-1.24-11.68-1.95c-.54-2.93-3.55-4.74-6.75-6-10.69-4.1-16.14-13.06-21.22-22.39-1.94-3.56-2.35-7.48-2.33-11.6 0-7.69 1.94-15 3.2-22.49 2.33-13.83 3.86-27.75-.35-41.58-1.62-5.33-3.07-10.79-4.52-16.22a25.79 25.79 0 0 1-.07-13.48c.73-2.81 2-5.49 2.59-8.32 1-4.68 3.9-7.41 7.68-10a34.28 34.28 0 0 0 8.06-7.84c1.15-1.53 1-4.16 1.12-6.32.89-11.72 9.93-18.85 21.72-17.08a8 8 0 0 0 1.56-.19c.46-1.29.87-2.83 1.54-4.26 2-4.19 4.85-7.19 9.86-7.3 3.82-.09 7.63-.35 11.45-.29 11.86.2 23.61-.45 35.07-3.89 2.59-.78 5.36-.94 8-1.51a23 23 0 0 0 2.85-1.15 20.66 20.66 0 0 1 4.44-1.42c2.86-.33 5.79 0 8.62-.49a50.19 50.19 0 0 1 18.41 0c4.14.86 8.17.48 11.87-2.39 3.51-2.73 7.78-2.84 12-1.49 2.38.76 4.67 1.85 7 2.77 6.2-5.95 12.95-7.29 19.12-3.84 2.95 1.64 3.12 2.75 1 5.56a61.27 61.27 0 0 0-7.94-2.75c-3.3-.68-5.84.58-7.75 3.67-2.41 3.91-3.49 4-7.44 1.5-5.19-3.25-10.19-4.22-15.57 0a13 13 0 0 1-11 2.06c-9.33-2.11-18.31-.69-27.39 1.56-6 1.48-12.29 1.56-18.19 3.21-11 3.08-22.21 3.43-33.5 3.33a88.9 88.9 0 0 0-9.8.36 6.93 6.93 0 0 0-6.63 6h16.3a19.56 19.56 0 0 1 3.24-.07 2.21 2.21 0 0 1 1.5 1.3 2.27 2.27 0 0 1-.66 1.87 4.35 4.35 0 0 1-2.4 1.15c-5.08.25-10.17.45-15.25.43-1.11 0-2.23-1-3.52-1.57-2.08 1.1-1.79 2.79-.94 4.92.35.87-.42 2.18-.69 3.29-1.08-.37-2.74-.41-3.15-1.15-2.42-4.28-6-4.74-10.23-3.65-4.74 1.22-7.38 4.25-8.16 9.1-1 6.43.94 11.37 6.58 14 4.82 2.27 9.37 4.7 12.87 8.81.31.35 1 .4 1.85.74.85-3.38 1.51-6.68 2.54-9.87.52-1.62 1.35-3.6 2.67-4.43 4.13-2.59 8.55-4.7 13.12-7.14 2.11 2.5 4.69 2.53 7.38 1.34 10.8-4.79 21.77-2.9 32.62-.53a66.61 66.61 0 0 0 32.3-.61 61.44 61.44 0 0 1 11.24-2.07 218.46 218.46 0 0 1 43.54.46 24.8 24.8 0 0 1 6.19 1.93c5.56 2.25 11 4.74 16.6 6.91a15.51 15.51 0 0 0 7.56.85 10.68 10.68 0 0 0-1.75-1.8c-13.15-8.36-18.47-21.47-21.68-35.82a33.42 33.42 0 0 1-1.13-8.63c.4-8.72-3.57-15.77-8-22.72-2.93-4.59-6.05-9.08-8.67-13.84a27.5 27.5 0 0 1-1.55-24.27c1.81-4.6 1.52-8.43-.86-12.87-8-14.86-12-31.05-14.94-47.55a13.08 13.08 0 0 1-.21-2.17c-.2-11.43-.31-22.81 4-33.77 2.65-6.74 4.76-13.71 7-20.6 2.66-8.08 8.35-14.23 14.34-19.58 7.4-6.62 15.83-12.17 24.18-17.64A92.55 92.55 0 0 1 262.1.38c9.28-.3 18.44-.91 27.68.59a46.81 46.81 0 0 1 19 7.77c2.71 1.83 5.45 3.64 8 5.7 7.34 5.94 14.56 12 22.74 16.84 5 3 7.69 8.12 10.63 12.93 1.41 2.31 2.77 4.66 4.24 7.15 4.3-.22 8.63-3.16 12.65-.09 2.7 2.06 6 4.14 7.37 7 3.37 7.11 4.17 14.44-3.1 20 .43.7.55 1.13.82 1.29 10 5.84 20.05 11.59 30 17.5 4.5 2.67 8.64 6 13.28 8.41 9 4.62 18.26 8.85 27.47 13.1q9.15 4.22 18.5 8c4.51 1.82 9.24 3.11 13.76 4.92 3.87 1.55 7.6 3.45 11.35 5.29a370.25 370.25 0 0 1 63.59 40c7 5.45 13.79 11.24 20.69 16.85a61.42 61.42 0 0 0 6.75 5.25 20.22 20.22 0 0 0 6 2.09c2.66.57 5.42.65 8.08 1.19 5.68 1.16 7.17 3.8 5.52 9.33-.15.49-.21 1-.43 2.12 7.55 1.41 10.58 7.57 13.77 13.48a16.78 16.78 0 0 0 9.46 7.81 116.9 116.9 0 0 0 13.67 3.47 54.13 54.13 0 0 0 6.94 1.08 30.32 30.32 0 0 0 5.39 0c2.22-.17 2.3-2.41 3.4-3.67 2.72-3.14 5.87-5.9 8.89-8.78 1.44-1.37 3.49-2.38 4.34-4 5.27-10.13 14.79-15.59 23.58-21.82a80.84 80.84 0 0 1 10.48-5.8c3.57-1.79 7.24-3.37 11.24-5.22-.39-3.26 1.68-4.56 4.66-5.83 5.44-2.32 10.55-5.42 15.89-8 1.56-.77 3.5-1.56 5.1-1.3a78.66 78.66 0 0 1 13.14 3.09c4.75 1.64 9.28 4 15.1 6.51-.81-3.14-1.38-5.12-1.83-7.14s-.56-4.06 1.34-5.46 3.84-.75 5.64.26c9.71 5.42 18.22 12 22.23 23 .53 1.46 1.91 2.59 2.68 4a23.43 23.43 0 0 1 1.29 3.64 22.41 22.41 0 0 1-4-.32 19.55 19.55 0 0 1-3.38-1.56c-1.94-11.88-10-18.42-20.54-24.09.35 2 .58 3.24.79 4.51.39 2.35.92 4.73-1.27 6.57s-4.39 1.21-6.64.22c-4-1.75-8-3.57-12-5.19a80.92 80.92 0 0 0-8.74-3 8 8 0 0 0-7.94 1.74c-3.14 2.56-7.28 4-11.16 5.5-2.77 1.06-4.24 2.49-3.4 5.8-15.83 4.66-29 13.71-42.27 22.63-1.93 1.31-3.32 3.8-4.29 6a19 19 0 0 1-6.27 8c-1.84 1.37-3.91 2.47-4 5.41 0 1.08-1.67 2.25-2.78 3.12-5.7 4.5-11.48 8.91-17.21 13.37-.8.62-1.52 1.34-3.23 2.85 3.52-.32 5.8-.81 8-.62 1.64.13 3.94.72 4.62 1.89s-.07 3.41-.83 4.84c-1 1.86-2.63 3.38-4.57 5.77 2.27-.29 3.77-.37 5.23-.69 13.18-2.86 26-.58 38.76 2.69 2.4.61 4.53 2.25 6.83 3.3 4 1.81 5.63 1.43 7.47-2.37 1.22-2.51 2.52-3.73 5.38-2.92a4.45 4.45 0 0 0 2.52-.54c1-.41 1.92-1 2.9-1.52 12.92-6.54 20-2.56 27 6.66 5 6.71 6.1 14.78 4.84 22.89-.44 2.84-2.68 5.46-4.31 8.06-.94 1.51-2.29 2.77-3.14 4.93 1.77-.54 3.55-1.06 5.31-1.62 5.32-1.67 8.6.92 8 6.37-.18 1.58-.61 3.12-1.07 5.44 3.37-1.33 6.22-2.28 8.92-3.56 2.89-1.37 4.91-1.06 5.7 2.33l5.66-2.77c.16-1.18.36-2.69.63-4.69 6.77 1.79 8.43 7.23 10.25 12.69 3.51-.69 6.94-1.7 10.46 1.59-3.82 1.27-7.22 2.67-10.77 3.49-2 .46-3.22-1.27-3.86-3.13-.7-2-1.42-4.06-2.08-6-2.87-.4-5 .29-6.47 2.44a5.08 5.08 0 0 1-.76.78c-4.29 3.86-5.71 3.6-8.53-1.78-2.28.89-4.59 1.86-7 2.69-2.17.76-4.46 2.2-6.59.07-1.94-1.92-.7-4.07-.11-6.13.49-1.68.94-3.36 1.7-6.11-3 .84-4.94 1.44-7 2a32.33 32.33 0 0 1-6.34 1.41 4.57 4.57 0 0 1-3.64-1.58c-.54-.91-.18-2.85.49-3.87a27.75 27.75 0 0 1 4.68-5.3c10.34-9.19 5-28.7-6.2-34.63-3.51-1.86-7.2-1.3-10.56.22-6.8 3.08-13.2 6.7-18.29 12.49-3.35 3.81-7.51 6.89-8.08 12.4-.24 2.33-.06 4.72-.4 7-.16 1-1 2.61-1.78 2.82-1.86.48-2.39-1.13-2.53-2.68a27.82 27.82 0 0 1 4.64-18.08c.87-1.36 1.86-2.64 3-4.24a69.09 69.09 0 0 0-44.06-6.61c-2.51.42-5 .91-7.52 1.29-5.69.87-6.71 0-6.61-5.63-14.13-3.1-23 5.27-31.13 14.71-2.12 2.47-2.69 6.25-4 9.42-.54 1.32-.81 3-1.8 3.8s-3.17 1.48-4.22 1c-1.72-.84-.65-2.42.29-3.63a4.42 4.42 0 0 0 1-1.89c1.6-10.48 8.94-16.68 16.71-22.57 1.13-.85 2.26-1.73 3.49-2.67-1.9-.89-3.58-1.56-5.14-2.43-1.36-.75-2.54-2-1.36-3.48a3.59 3.59 0 0 1 3.27-.54c7.58 3.07 15.57 2.3 23.43 2.67.08 0 .18-.28.41-.67a31.32 31.32 0 0 1-4.3-1.56c-3-1.59-3.41-4.18-.93-6.6a31.26 31.26 0 0 1 3.51-2.56c1.14-.84 2.26-1.71 4.43-3.36-3.62-.62-6.16-1.15-8.73-1.48a47.71 47.71 0 0 1-18.5-6.05 13.4 13.4 0 0 1-6.46-7.74 45.45 45.45 0 0 0-3.43-7.4c-1.32-2.51-3.25-4.47-6.2-4.85-3.48-.44-4.27-2.46-4.32-5.66-.07-5.11-1.05-5.79-7.18-5.95.78 2.13 1.45 4.13 2.25 6.07.63 1.53.72 2.87-1 3.66s-3 .21-3.48-1.45c-1-3.8-3.9-6-6.5-8.54q-12.29-11.8-25.31-22.8c-10.53-8.9-23.09-14.5-33.58-23.11-11.7-9.6-25.57-15.3-38.77-22-11.57-5.9-24.25-9.69-36.57-14-3.34-1.18-7.16-1.29-10.77-1.41-8-.27-16-.17-23.95-.39-1 0-1.94-1.05-2.92-1.61.77-.86 1.47-2.4 2.3-2.46 4.7-.38 9.42-.42 14.14-.54a19.75 19.75 0 0 0 6.5-.83c-4-2.26-7.92-4.87-12.14-6.72-9.24-4-17.24-10.05-25.53-15.57a46.21 46.21 0 0 0-26.21-7.92 32.84 32.84 0 0 0 4 3.34c7 3.92 14 7.75 21 11.6a24.86 24.86 0 0 1 3.77 2.15c.56.46 1.08 1.93.81 2.26a3.51 3.51 0 0 1-2.59 1.26 12 12 0 0 1-4-1.55c-6.84-3.77-13.64-7.62-20.45-11.44l-4.77-2.68c2.82 4.84 14.82 17.52 18.37 19.69.46.28 1.19.33 1.44.71.52.81 1.34 2.07 1 2.61a2.92 2.92 0 0 1-2.6 1.21 16.47 16.47 0 0 1-5.6-3.09c-3.42-3.25-6.54-6.82-9.73-10.3-1.95-2.13-3.81-4.34-6.13-7-9.67 10.81-18.27 21.24-25.7 33.52 1.87 1.53 3.72 3.14 5.68 4.61 1 .76 2.37 1.11 3.22 2 .62.63.66 1.82 1 2.76-.94.29-2.11 1.07-2.77.76a69.74 69.74 0 0 1-7.05-4.05 25.76 25.76 0 0 1-2.55-2.18l-6.5 9.72c5.3 2.42 7.52 6.65 9.16 11.44 1.06 3.07 2.58 6 3.92 9 .68 1.49 1.51 2.91 2.13 4.42.69 1.7 1.49 3.76-.79 4.71-2.09.88-2.69-1.12-3.34-2.61-2.25-5.16-4.46-10.34-6.78-15.46-.94-2.08-2.13-4-3.35-6.36-1.89 1.21-3.41 1.85-4.48 2.94-2.18 2.21-3.85 4.62-3.06 8.16a156.81 156.81 0 0 1 3 16.61 31.87 31.87 0 0 1-.73 10.15c-.36 1.62-2.25 2.9-3.37 4.24 1.71 10.2 3.29 20.6 5.22 30.92 1.11 5.88 2.77 11.66 4.21 17.47a4.57 4.57 0 0 0 .83 2c6.42 6.95 9.85 15.63 13.8 24 2.58 5.44 5.9 9 12.54 8 1.72-.25 3.57.4 5.45.65 0-10.93.13-21.73 0-32.53-.14-8.9-.64-17.79-1-26.68-.06-1.73-.83-4.17 1.65-4.47s2.54 2.15 2.65 3.92c.46 8.16 1 16.31 1.21 24.48.18 8.36-.27 16.73 0 25.08.13 3.73 1.27 7.43 2.12 11.11.63 2.73.85 5.91 2.43 8 6.62 8.86 13.3 17.74 20.71 25.93a121.33 121.33 0 0 0 17.54 15.46c7.23 5.39 15.82 8.05 24.63 9.71 1.12.21 2.64-1.67 3.73-1.44 2.76.58 5.81 1 7.52 3.83.55.93 1.4 1.68 2 2.59 7.37 11 18.12 17.48 29.73 23.1s23.1 11.34 34.14 17.87a218.77 218.77 0 0 1 24.45 17.32c12.39 9.88 26.64 14.44 42 16.41a70.83 70.83 0 0 1 10 2.45c2.68.75 3.94 2.45 2.75 5l13.93 8.93a15.47 15.47 0 0 0 9.2 2.83c1.67-.07 3.4 1.22 5.06 2.81l13.17-3.75-11.6-8.22-.76.62 3.57 5.15-6.04 1.45c-4.12-8.6-3.21-17.45-1.11-26.24a32.56 32.56 0 0 1 12.73-19.14c5.69-4.18 11.69-7.93 17.53-11.9s11.66-8 17.72-12.16a9.26 9.26 0 0 0-4.94-4.84c-2.23-.95-3.59-2.47-2.19-5.69l-4.24 1.54c-2.86-5-7.83-5.95-13-6.29a288.54 288.54 0 0 0-55.51 1.7c-8.64 1.09-17.24 2.43-25.88 3.53a3.09 3.09 0 0 1-2.6-1.15 2.94 2.94 0 0 1 .85-2.73 11.41 11.41 0 0 1 4.53-1.58c11.91-1.46 23.79-3.29 35.74-4 14.11-.89 28.29-.81 41.24-1.13-1.07-1-3-3.1-5.14-4.9a11.09 11.09 0 0 0-4.49-2.58c-22.24-4.54-44.51-8.94-66.77-13.36-.54-.11-1.22 0-1.59-.27a28.41 28.41 0 0 1-2.49-2.42c.9-.67 1.81-1.91 2.71-1.91a45.86 45.86 0 0 1 8.67.8c14.26 2.8 28.49 5.72 42.74 8.59 1.71.35 3.45.61 5.35.94-1.57-9.64-8.88-14.77-21-15.3-.34-3.73.54-4.87 3.64-4.4 10.22 1.54 18.12 6.23 21.89 16.4.18.5.46 1 .67 1.43 8.27.93 16 6.75 18.3 11.91.31.17.62.48.94.48 9.32 0 14.3 6.82 19.83 12.71 2 2.17 3.78 4.6 5.52 6.74.93-3 .68-9.58-.83-13.93l4.17-2.64c3.13 6 .15 12.38 2.65 17.67 14.09-2.82 28-6.37 42.11-8.23 14-1.84 28.13-2 43.07-2.9-1.08-1.39-1.88-2.06-2.2-2.9a15.26 15.26 0 0 1-.47-3.28c1.3 0 3.09-.61 3.82 0 1.59 1.39 2.63 3.39 4.06 5.36 6.21-.67 12.55-1.07 17.8-5.36a3.61 3.61 0 0 1 2.42-1c4.24.85 6.86-1.74 9.52-4.24 4.49-4.24 9-8.45 13.35-12.85a15.8 15.8 0 0 1 13.26-5c4.34.36 8.69.45 13.16.66 1.41-1.93 2.36-5 5.63-3.53 1.08.49 1.63 2.14 2.43 3.26l-4 2.33c2.83 6.08-1.3 10-5.95 13.49-2.42 1.83-5.19 3.18-7.61 5.14 11.68-2.39 19.74-12.74 31.59-14.12-1.24-3.71-2.78-7.13-3.47-10.72s-1.9-5.79-5.54-7.12-7.13-3.61-10.52-5.71c-.84-.52-1.74-2.21-1.49-3 .61-1.85 2.29-1.33 3.63-.63a45.88 45.88 0 0 0 9.37 4c-.76-1.93-1.24-4-2.32-5.75-1.61-2.57-1.64-4.43 2.14-5.7-2.89-3.72-5.51-6.92-7.9-10.29-.76-1.05-1.65-3.17-1.2-3.68a6 6 0 0 1 4.1-1.73c1.94 0 3.89.72 6.45 1.27-.36-1.67-.37-3.11-1-4.24-3.45-6.58-6.53-13.43-10.7-19.53-5.1-7.47-10.48-14.86-17.64-20.66a3.87 3.87 0 0 1-1.3-3.2c.25-.87 1.75-1.6 2.84-1.94a42.92 42.92 0 0 1 5.81-.89 41.34 41.34 0 0 0-16.35-12.04 22.27 22.27 0 0 0 4-18.63c-1.8 2.81-3.49 5.69-5.45 8.38a14.58 14.58 0 0 1-3.93 3.66 3 3 0 0 1-2.84-.45 2.84 2.84 0 0 1 .15-2.79c5.09-4.8 7.45-11.09 9.78-17.41.66-1.79 1.35-3.61 3.65-3.3s3 2.32 3.28 4.41c1.23 8.38 1.31 16.66-2.08 24.65a6.12 6.12 0 0 0-.11 1.49c4.94.15 8.44 3.14 11.69 6.49 5.08 5.26 4.78 7.47-1.83 11.35l7.56 9.12c8.54 10.29 15.77 21.33 19.74 34.25.27.87.69 1.7.88 2.58.7 3.35-.57 4.83-4 4.61a34.87 34.87 0 0 1-4-.78c1.32 2.23 2.17 3.74 3.1 5.21s1.77 2.62 2.44 3.59c-1.15 1.89-3 3.65-2.67 4.61 1.07 2.92 3.34.36 5.11.41 3.77.11 7.65-.45 11.29.26 6 1.17 7.74 6.05 4.44 11.09-3.12 4.76-6.6 9.14-13.14 11 1.15 1 1.77 2 2.48 2 1.79.17 3.64-.29 5.43-.11 3.13.32 6.38 1.08 7.64 4.33s0 6.52-2.25 9.09c-4.21 4.91-4.29 4.84-4.88 11.14 1.48.28 3 .46 4.53.87a8.85 8.85 0 0 1 5.45 13.1c-3.41 5.88-7.32 11.25-14.34 13.45-2.35.73-4.4 2.38-6.94 3.8 3.75 5.2 2.18 9.48-1.63 13.25 4.48 8 1.63 14.62-6.34 18.58-9.3 4.62-19 4.24-28.79 4.33a150.41 150.41 0 0 1-18.93-1.49 15.37 15.37 0 0 1-6.59-2.29c-5.26-3.48-11-3.85-16.78-2.71-7.18 1.43-14.22 3.59-21.31 5.46-4.38 1.16-8.84 2.12-13.11 3.63-22.24 7.86-44.45 15.77-66.6 23.87-7.62 2.79-15 3.66-22.74.58-3.5-1.39-7.39-1.82-11.13-2.54a6.75 6.75 0 0 0-3.07.33c-5.17 1.59-10.27 3.43-15.49 4.83-3.49.93-7.19 1.64-10.17-1.55-9.43-2.27-15.82-10.17-24.79-13.41-2.18-.78-3.73-3.2-5.74-4.63a8.48 8.48 0 0 0-3.81-1.51c-16.4-1.91-31.36-7.13-44.42-17.65a275.93 275.93 0 0 0-23.54-16.72c-4.84-3.13-10.32-5.25-15.49-7.87-3.54-1.8-7.06-3.67-10.56-5.55-2.39-1.28-4.74-2.66-7.11-4-5.07-2.82-10.21-5.52-15.19-8.48a45.77 45.77 0 0 1-15.39-14.4c-1.81-2.8-4.2-4-7.6-4.4-13.84-1.64-26.33-6.64-37.09-15.72-1.62-1.37-3.75-2.13-5.6-3.24-2.75-1.64-6.64-2.3-5.94-7 .08-.53-.66-1.22-1.1-1.77-5.57-6.93-11.19-13.82-16.72-20.78a42.71 42.71 0 0 1-5-7.15c-2-4-5.13-5.77-9.23-5.34-8.47.9-13.25-3.51-16.48-10.57-1.36-3-2.71-5.94-4.12-8.88a11 11 0 0 0-3.2-4.3c1.25 8.21 2.5 16.42 3.84 25.18 4.77 2.11 5.47 6.32 4.16 11.48-.52 2.06-.36 4.3-.57 6.45-.32 3.37-1 6.74-1 10.11.09 9.44.44 18.89.77 28.33a38.67 38.67 0 0 1-4.12 19.5 26 26 0 0 0-2.09 5.6 21.33 21.33 0 0 1-7.25 11.29c-9.87 8.28-20.43 15.07-33.85 16.07-8 .59-15.85 1.55-23.83-.48-5.08-1.3-10.39-1.67-15.61-2.4-15.66-2.2-31.17-5-45.4-12.37-9.19-4.74-19-6.89-29.13-8.54-5.78-.95-10.89 0-16.44 1.58-9.58 2.69-19.48 4.26-29.29 6.05-11.3 2.07-22.44.82-33.42-2.31-9-2.58-18-1.74-26.84 1-9.19 2.8-10.82 1.51-10.76-8.33v-3.2zm309-290.56c-4.11.4-6.83-1.57-8.79-5-3-5.21-6-10.37-9-15.56-3.2-5.57-7-10.48-12.6-14a142 142 0 0 1-14.88-10.95c-11.85-9.87-24.51-17.74-40.63-17.4-7.07.14-14.13 1-21.21 1.22a66.92 66.92 0 0 0-20.69 4.38c-15.66 5.63-28.89 15.16-41.56 25.6a46 46 0 0 0-10.8 13.57c-5.92 10.74-9.36 22.43-13.41 33.89a19.12 19.12 0 0 0-.71 3.19 82.09 82.09 0 0 0 .15 29.24c2.28 12.4 5.7 24.36 11.51 35.56 1.24 2.4 3.07 4.52 4.05 7a15.41 15.41 0 0 1-.45 12.16c-3.87 8.93-2.55 17.42 2.5 25.48 1.93 3.08 4.08 6 6.08 9.05 5 7.65 9.58 15.48 9.36 25.1a23.53 23.53 0 0 0 .41 4.34c1.77 10.86 4.52 21.35 11.87 30a55.16 55.16 0 0 0 18.68 13.86c9.21 4.37 16.78 10.65 23.62 18 4.31 4.66 8.72 9.26 13.35 13.63 3 2.81 6 6 10.86 5.13a2.54 2.54 0 0 1 2 1.41 2.85 2.85 0 0 1-.87 2.34 5.15 5.15 0 0 1-6.1.78 37.84 37.84 0 0 1-7.73-5c-4.79-4.45-9.19-9.31-13.82-13.93-4-4-8-7.91-12.13-11.74a27.87 27.87 0 0 0-4.24-2.77l-.91.85c4.77 7.37 7.46 16 13.94 22.34 6 5.86 11.92 11.72 17.94 17.52a61.71 61.71 0 0 0 5.75 4.85c1.35 1 2.37 2.2 1.05 3.5a4.12 4.12 0 0 1-3.7.76 18.3 18.3 0 0 1-4.58-3.75c-3.94-3.9-7.79-7.89-11.68-11.84l-1.18.76c2.79 6.23 5.6 12.45 8.38 18.68a38.88 38.88 0 0 1 2.41 6 3 3 0 0 1-1.44 2.53 3.15 3.15 0 0 1-2.76-.86 13.51 13.51 0 0 1-2.1-3.78c-2.1-4.83-4.4-9.59-6.14-14.56-5.05-14.38-13.9-26.68-21.44-39.69-1.65-2.84-3.42-5.61-5.17-8.46-2.38 2.65-5.77 2.64-9.14 1.39-7-2.59-13.84-5.45-20.78-8.14-2-.78-4.1-1.85-6.18-1.93-12.33-.43-24.68-.88-37-.73-5.2.06-10.44 1.34-15.56 2.5-11.11 2.52-22.09 3.18-33.41.68-10.17-2.24-20.5-4.83-30.89.42-4.93 2.49-8.4 6.05-11.57 10.21-1.15 1.52-3.07 3.37-2.88 4.83.65 4.74-.25 10 3.41 14 1 1.06 2.34 2.26.79 3.66s-3.25.54-4.29-.78a24.11 24.11 0 0 1-2.9-5.15 35.69 35.69 0 0 1-1.35-4.55c-5.17-.07-10.17-1.16-13.42-4.48-3.57-3.64-7.8-5.84-12-8.27-7.47-4.34-12.68-2.82-17.52 4.55a55.89 55.89 0 0 0-4.87 9.72c-2.44 6-3.43 11.88-1.1 18.47 4.75 13.44 7.51 27.33 5.87 41.73-.73 6.49-1.45 13-2.47 19.44-1.14 7.17-2.65 14.24-1.93 21.61a27.31 27.31 0 0 0 9.75 18.33c5.55 4.71 12.64 7.75 19.36 10.87 5.18 2.41 10.8 3.87 16.26 5.67a16.79 16.79 0 0 0 4.26.86c3 .17 5.47-2.61 5.57-6.07.06-2.4-1.6-3.61-4.81-4.13a32.84 32.84 0 0 1-6.76-2 2.55 2.55 0 0 1-1.11-2.16 2.65 2.65 0 0 1 1.65-1.76 12.58 12.58 0 0 1 15 6.91c.53 1.09.94 2.25 1.44 3.45 2.85-2.2 3-2.35 2.48-4.27-.88-3.33-2.63-6-6.12-7.07-1.47-.47-3.11-1.22-2-2.94.5-.8 2.57-1.26 3.66-.95a11.39 11.39 0 0 1 7.64 6.46c.56 1.29 1.21 2.53 1.77 3.66 3.39 0 4.53-1.91 5-4.43.48-2.79-1.43-3.82-3.65-4.57a38.1 38.1 0 0 1-5.55-2.08c-.94-.49-1.52-1.68-2.26-2.55 1.05-.53 2.14-1.55 3.15-1.47a40.94 40.94 0 0 1 6.26 1.42c1-4.32 1.26-4.48 5.15-3l3.84 1.47c.33-1.19 1.1-2.39.77-3-1.07-2.09-2.38-4.1-5.37-3.64-4.47.68-9 1.46-13.45 1.76a13.64 13.64 0 0 1-13.34-6.77c-2.3-3.65-5.08-7-7.63-10.51a6 6 0 0 1-1.35-2.26c-1-6.62-1.85-13.22-.61-20 1.09-6 2.33-11.62 9.81-12.43.53-7.73 1-15 1.52-22.22.25-3.62.36-7.26.75-10.87.09-.88 1.06-1.67 1.63-2.5.79.82 2.07 1.52 2.27 2.46a20.36 20.36 0 0 1 .02 5.52c-.7 12.16-1.47 24.31-2.15 36.47a41.93 41.93 0 0 0 .28 4.82 21.07 21.07 0 0 0 2.71-.44c11.92-4.14 23.81-3.94 35.91-.53a51 51 0 0 0 15.58 2.12 157.6 157.6 0 0 0 44.32-8.13c3.12-1.07 6.75-.8 10.15-.84 2 0 3.93.65 5.91.93 9 1.26 17.83 3.24 26.06 7.47a65.13 65.13 0 0 0 13.06 5.42c13.51 3.51 27 7 40.75 9.6 7.77 1.45 15.91 1.54 23.86 1.34 9.09-.24 18.21-1.43 26.07-6.71 8.09-5.43 17.09-10.15 18.94-21.22a8.16 8.16 0 0 1 1.08-2.49c3-5.41 4-11.25 3.76-17.36-.14-4.17-.31-8.36-.3-12.53 0-12.15-1.4-24.37 1.8-36.36.12-.46-.17-1-.47-2.61a49.63 49.63 0 0 0-4.09 4.69c-2.91 4.38-5.59 8.92-8.57 13.26-.56.81-2.31 1.62-3.07 1.32-1.79-.72-1.24-2.38-.44-3.68 1.91-3.09 3.9-6.13 5.85-9.19 3.52-5.53 6.88-11 5.29-18.14-1.74-7.79-3.06-15.68-4.68-23.5-2-9.77-4.32-19.49-6.25-29.28-1.47-7.48-2.44-15-3.82-22.55-1.4-7.66-3.19-15.26-4.51-22.94-2.39-13.9-2.14-27.85-.39-41.81 1-7.75 1.69-15.54 2.6-23.29a16.28 16.28 0 0 1 1.21-5.28c.5-1 2-1.57 3.08-2.32.33 1.1 1.05 2.24.94 3.3-1.26 11.73-2.74 23.44-4 35.17a68 68 0 0 0-.06 15.48c1.29-2.07 1.86-3 2.4-3.86 4.53-7.65 8.95-15.37 13.63-22.93 4-6.48 8.31-12.77 12.48-19.15l-.17.13c5.57-6.38 11.38-12.56 16.6-19.2 3.45-4.39 6.1-9.41 9-14.24.54-.91.89-2.83.39-3.31-2.14-2 0-3.7.13-5.51.88-3.59.88-3.59-1.4-5.12.53 1.69 1.01 3.45 1.53 5.2zm462.47 253.8c-5.81-.29-11.35-.86-16.87-.69-1.91.05-4 1.65-5.59 3a105.46 105.46 0 0 0-9.85 9.4c-7.28 8.13-17.22 11.16-27 14.35a48.5 48.5 0 0 1-11.69 2.22c-10.7.68-21.42.87-32.12 1.49a240 240 0 0 0-37.24 5.23c-14.22 3.09-27.39 8.14-38.66 17.59a56.76 56.76 0 0 1-5 3.22c-5.72 3.84-11.6 7.47-17.07 11.63-8.9 6.77-12.51 16.15-12.35 27.41 6.71 3.95 11.55 11.12 20.34 11.49 6.1 3.86 13.29 3.28 20 4.78a15.82 15.82 0 0 0 7-.41c4.58-1.12 9.12-2.47 13.56-4 19.72-6.88 39.37-13.93 59.09-20.78 7.37-2.56 15-4.31 22.26-7.21a60.4 60.4 0 0 1 18-4.07c6.12-.48 12.18.29 17 4.33a13.12 13.12 0 0 0 9 3c8.36 0 16.73-.28 25.08 0a24.69 24.69 0 0 0 13-3.36c2.92-1.57 4.81-3.73 4.84-7.1l-4.9-4.61c.47-1 .54-1.39.79-1.61 1.51-1.29 3.07-2.54 4.61-3.8 3.36-2.76 3.48-3.39 1.43-8-.81.29-1.64.57-2.45.9-1.5.6-3.21 1.72-4.25-.36-1.15-2.3.85-3.16 2.43-4.06.64-.36 1.3-.67 1.95-1 4.86-2.45 9.73-4.88 14.59-7.35 7.4-3.77 9.18-9.41 4.81-16.79-2.56.71-5.28 1.53-8 2.23a47.29 47.29 0 0 1-6.33 1.27 2.58 2.58 0 0 1-2.09-1.21 2.85 2.85 0 0 1 .46-2.44 5.81 5.81 0 0 1 2.65-1.83c6.2-1.86 7.27-6.86 7.94-12.29.33-2.62-.8-3.95-3.15-4a21.75 21.75 0 0 0-7.49.82 58.71 58.71 0 0 0-9.18 4.67c-7.06 4.06-14.14 8.05-21.88 10.38-3.75-4.8-3-9.54 1.87-12.43 2-1.21 4.25-2.12 6.17-3.46s3.87-2.89 4.29-6.55zm34.38-21.83c-4.39-3.92-10.22-4.05-15.2-.52l4.26 11.6c5.39-2.05 8.47-6.25 10.94-11.07zM367.95 74.16a10.8 10.8 0 0 0 2.21-14.56c-3.43-5-7.54-6.05-12.9-3.28 1.1 2.6 3.17.82 4.67.92 4.64.3 7.54 3.08 7.21 7.68-.14 1.93-1.13 3.79-1.5 5.73a14.2 14.2 0 0 0 .31 3.51zm-55 110.15c1.59-6 .45-15-2.53-21.92-1.12 3.1.26 15.85 2.53 21.92zM57.33 284.64l6-7.74-.68-.95-7.28 3.77c.7 1.77 1.21 3.06 1.96 4.92zm26.89 129.19l2 7.79c2.93-.34 3.38-2 3.3-3.91-.12-2.78-2.38-3.17-5.3-3.88zm769.92-92.67l-.42 1.14 7.21 4.57c.4-1.58.68-2.73 1.17-4.66zm-798.55-28.3l-2.12-5.18-.88.13-1.11 4.58z"/><path d="M341.02 211.62c-.1.53.07-.17.17-.88.52-3.56 1.51-7.13 1.46-10.68-.23-15 3.87-29 9-42.79 1.32-3.53 2.16-7.24 3.4-10.81.28-.8 1.41-1.94 2-1.86a3 3 0 0 1 2.1 1.94 14.59 14.59 0 0 1-.73 5.28c-1.62 4.81-3.68 9.48-5.16 14.32-3.39 11.08-5.88 22.2-6.4 34-.54 12.56.53 24.94 1 37.4.3 7.25.46 14.5.6 21.76a16.63 16.63 0 0 1-.58 4.82 2.52 2.52 0 0 1-2.05 1.29 2.57 2.57 0 0 1-1.76-1.61 15.71 15.71 0 0 1-.24-3.77c-.37-11.61-.62-23.22-1.15-34.82-.07-4.15-.94-8.26-1.66-13.59zM441.95 278.76c1.54 1.64 2.68 2.69 3.61 3.89 6.54 8.47 12.92 17.08 19.58 25.46 10.29 12.92 20.77 25.7 31.17 38.54 3.92 4.83 8.2 9.23 13.84 12.1.48.24 1.16.47 1.34.88a5 5 0 0 1 .6 2.8c-.11.47-1.51 1-2.23.87a8.08 8.08 0 0 1-3.5-1.4c-3.45-2.62-7.39-4.9-10-8.2-18-22.34-35.69-44.89-53.45-67.4a14.57 14.57 0 0 1-2.43-4.21c-.28-.65.66-1.68 1.47-3.33zM518.38 207.07a28 28 0 0 1 3 2.53c9.8 10.71 19.63 21.39 29.29 32.23 8.57 9.62 16.94 19.41 25.36 29.17a33.9 33.9 0 0 1 4.14 5.71c.46.84-.1 2.24-.2 3.38-1.07-.34-2.5-.36-3.14-1.08-3.87-4.32-7.46-8.89-11.33-13.21-13.82-15.39-27.73-30.7-41.56-46.09-2.54-2.83-4.9-5.83-7.16-8.88-.97-1.36-.6-2.76 1.6-3.76zM415.18 245.77a9.61 9.61 0 0 1 2 2.52c3.93 11.45 7.46 23 11.71 34.36 3.17 8.47 7.21 16.6 10.88 24.88.3.66 1 1.26 1 1.9 0 1-.05 2.43-.62 2.77a3.05 3.05 0 0 1-2.86-.43 11.9 11.9 0 0 1-2.69-4c-5-12.39-11.53-24.22-14.3-37.5-.65-3.13-2.54-6-3.63-9.05-1.4-3.91-2.64-7.88-3.81-11.87-.48-1.54.09-2.86 2.32-3.58zM359.77 184.61c3.37-12.21 4.53-25.66 13.5-36.33 1.15-1.37 1.85-3.11 3-4.51.46-.58 1.89-1.19 2.18-1a3.6 3.6 0 0 1 1.37 2.55 6.29 6.29 0 0 1-1.52 3.4c-7.48 8.14-9.47 18.58-12.05 28.72-.92 3.63-.83 7.5-1.37 11.24a12.73 12.73 0 0 1-1.36 3.15c-1-.81-2.43-1.42-3-2.47s-.48-2.75-.75-4.75zM720.95 295.02c-3.57 7.52-6 9-12.74 7.36-3-.71-5.64-1.54-7.08 2.32a2.39 2.39 0 0 1-2.23.7 2.82 2.82 0 0 1-1.26-2.1c-.21-3.6 5.47-10.75 9-10.95 4.82-.27 9.68-.26 14.31 2.67zM552.77 274.81c3.33-3.17 3.42-3.31 6.72-1s6.55 5.1 9.91 7.54q6.57 4.75 13.31 9.26c1.26.83 2.91 1.55 1.75 3.14-.62.84-2.53 1.27-3.71 1.05a11.51 11.51 0 0 1-4.3-2.17c-3.66-2.65-7.21-5.44-10.82-8.15-4.16-3.17-8.34-6.32-12.86-9.67zM786.09 265.96c.93-2.7 2.93-3 5-1.48a19.34 19.34 0 0 1 5.18 5.42c3.19 5.48 7.69 9.48 12.88 12.92a23.44 23.44 0 0 1 5.13 4.71c.51.63-.11 2.18-.21 3.31-1-.14-2.27.08-2.88-.47-6.58-5.8-14.68-10-18.88-18.37-1.24-2.37-4.02-3.95-6.22-6.04zM825.79 265.51c-1.7 3.13-3.11 3.36-4.86 2.53-3.61-1.71-7.29-3.3-10.75-5.28-4.57-2.61-8.9-5.64-14.44-6-.76 0-1.46-1.25-2.18-1.93.87-.72 1.83-2.15 2.59-2.05a31.22 31.22 0 0 1 8.89 2.05c5.94 2.7 11.66 5.89 17.46 8.89 1.1.62 2.19 1.21 3.29 1.79zM337.64 245.94c-.38.49-.86 1.56-1.65 1.91-.51.22-1.66-.47-2.2-1.05a5.56 5.56 0 0 1-1.12-2.42c-2-8.05-3.85-16.11-5.77-24.16-.08-.35-.32-.81-.19-1 .56-1 1.24-1.86 1.87-2.78.81.58 2.15 1 2.34 1.75 2.29 8.89 4.41 17.82 6.58 26.74.04.14.05.32.14 1.01zM724.95 290.45c-2.52-.32-3.1-1.49-2.91-3.15a29 29 0 0 0 .57-3.76 4.24 4.24 0 0 0-6.06-4c-2.1.95-3.81 2.74-5.87 3.84-1.08.58-3.05 1.11-3.7.57-1.72-1.44-.4-3 .9-4a39.36 39.36 0 0 1 6.19-4.37 8.23 8.23 0 0 1 9.66 1 8.68 8.68 0 0 1 3 9.26 31.28 31.28 0 0 1-1.78 4.61zM706.87 235.95c-4.44.29-5.9-.93-5.78-4.09.28-6.75 8.42-17.15 14.85-18.73 1-.24 2.78 0 3.23.67 1.1 1.64-.31 2.68-1.75 3.2a15.86 15.86 0 0 0-8.4 7.38c-2.02 3.49-4.14 6.9-2.15 11.57zM765.95 286.05c-.18 5.46-2.9 9.91-4.66 14.6-.27.71-1.66 1-2.54 1.48-.46-1-1.4-2.15-1.28-3.12a18.75 18.75 0 0 1 1.68-5.12 18.07 18.07 0 0 0 .34-15.2c-.39-.91.11-2.2.2-3.32 1.2.49 3.1.67 3.45 1.51a83.16 83.16 0 0 1 2.81 9.17zM727.95 224.63a25.06 25.06 0 0 1 18.79 11.65 1.91 1.91 0 0 1-2.67 2.58c-1.19-.77-2-2.05-3.15-2.93a57.77 57.77 0 0 0-7-5c-2.54-1.44-5.33-2.15-8.3-.64-.73.38-1.94-.18-2.93-.31.28-1.11.21-2.68.93-3.25a18.51 18.51 0 0 1 4.33-2.1zM762.71 229.16c-5-.71-8.85-2.06-11.89-5.31-2.08-2.22-4.59-4-6.73-6.2-.71-.73-.86-2-1.27-3.06 1.12-.27 2.54-1.1 3.31-.7a16.89 16.89 0 0 1 5.62 4.12c2.81 3.61 6 6.17 10.65 6.87 1.48.22 3.14.84 2.53 2.72-.27.83-1.79 1.27-2.22 1.56zM601.3 256.74h-3.26c-4.66.1-5.28.71-5.06 5.43.06 1.47.58 3.13-1.38 3.53-2.15.44-2.73-1.3-3.11-2.95-1.31-5.57 1.62-9.94 7.24-10.31a48.88 48.88 0 0 1 9.74.49c.83.12 1.46 1.71 2.18 2.62a8.81 8.81 0 0 1-2.56 1.42 18 18 0 0 1-3.79-.15zM795.82 225.74c-3.7-.34-6.79-.46-9.82-1-1.52-.25-3.53-.91-2.95-3.08.48-1.81 2.16-1.21 3.65-1.17 5.77.12 11.55-.07 17.32 0a10.81 10.81 0 0 1 3.2 1.08c-.77 1.07-1.38 2.88-2.33 3.08a77.26 77.26 0 0 1-9.07 1.09zM734.57 202.32c-4.23-.41-8.28 0-12 2.44a3.42 3.42 0 0 1-3.25-.07c-1.41-1.39-.17-2.71 1-3.52 1.48-1 3.1-2.3 4.76-2.46a130.21 130.21 0 0 1 14.52-.45c.78 0 1.53 1.59 2.3 2.44-.84.54-1.63 1.4-2.53 1.55a31.62 31.62 0 0 1-4.8.07z"/><path d="M584.84 249.71a87 87 0 0 0 1.18 8.72c.38 1.65.52 3.16-1.27 3.35-1.07.11-3.22-1.08-3.29-1.84a61.37 61.37 0 0 1-.11-12.27c.11-1 2.81-2.62 4.15-2.46a11.62 11.62 0 0 1 6 2.81c1 .86-.11 2.42-1.72 2.4a45.45 45.45 0 0 1-4.94-.71zM799.95 307.23c-.92.41-2.12 1.4-2.8 1.13a6.45 6.45 0 0 1-3.16-2.75c-2.11-4.19-4-8.5-5.81-12.82-.55-1.33-.78-3.17 1.11-3.55.78-.16 2.26 1 2.74 1.88 2.56 4.76 4.91 9.63 7.32 14.46.11.31.19.67.6 1.65zM691.46 229.8c-.79 1.24-1.28 2.83-2.35 3.52-4.22 2.75-8.57 5.32-13 7.7-.68.37-2.08-.6-3.15-.95a8.83 8.83 0 0 1 1.32-2.66c.74-.72 2-.93 2.84-1.54 3.53-2.45 7-5 10.54-7.43a3.53 3.53 0 0 1 2.38-.52c.48.09.8 1.02 1.42 1.88zM704.95 211.16c-.64.5-1.36 1.55-2.17 1.61a25.3 25.3 0 0 0-13.82 5.5c-.61.47-1.91 0-2.9 0a12.49 12.49 0 0 1 .13-2.94 3.45 3.45 0 0 1 1.39-1.59 27.29 27.29 0 0 1 13.44-5.15c1.64-.15 3.31.05 3.93 2.57zM812.45 241c-2.51-.43-4.08-.41-5.39-1-3.51-1.57-7-3-11-2.06a2.94 2.94 0 0 1-2.49-1.35 2.89 2.89 0 0 1 1.24-2.48c4.76-2.57 14.29.6 17.64 6.89zM774.87 290.93a40.1 40.1 0 0 1-1.26 6.39c-.34.91-1.69 1.44-2.58 2.15-.52-.84-1.5-1.69-1.49-2.52 0-3.21.35-6.43.7-9.63.06-.57.83-1.51 1.26-1.51a2.8 2.8 0 0 1 2.18 1 23.27 23.27 0 0 1 1.19 4.12zM742.81 224.59c-1.52.66-2.81 1.7-3.39 1.39a64.18 64.18 0 0 1-8.61-5.42c-.6-.45-.25-2.16-.34-3.29 1 0 2.1-.24 2.88.17a56.26 56.26 0 0 1 6.42 3.93 24.88 24.88 0 0 1 3.04 3.22zM62.55 260.86c1.46.31 2.49.28 3.16.75a2.83 2.83 0 0 1 1.18 2.13 2.58 2.58 0 0 1-1.72 1.63c-3 .62-6 1.08-9 1.41-.73.08-2.17-.53-2.18-.87 0-.91.27-2.45.87-2.68 2.64-1.07 5.42-1.71 7.69-2.37zM814.04 245.16c1.62.39 2.48.37 3 .78 1.14.93 3.07 2.21 2.94 3.1-.32 2.23-2.36 1.46-3.91 1.11a6.8 6.8 0 0 0-1.58-.31c-1.59 0-3.81.41-3.45-1.95.15-1.21 2.21-2.1 3-2.73zM690.73 254.9a31.5 31.5 0 0 1-4.38 2.41c-.28.11-1.46-1.07-1.53-1.74-.19-1.65 2.1-3.48 3.67-3 .67.26 1.12 1.14 2.24 2.33zM275.29 164.03a62.8 62.8 0 0 0 14.22 25.38 9.21 9.21 0 0 0 7.26 3.18c.79 0 1.6 1.11 2.4 1.71-.77.86-1.54 2.44-2.32 2.45-2.27 0-4.94 0-6.72-1.12a25.43 25.43 0 0 1-7.49-7 166.5 166.5 0 0 1-9.69-17c-4.5-8.91-8.67-18-13-27-.32-.65-.93-1.25-1-1.91-.12-1.13-.35-2.82.25-3.31 1.46-1.2 2.67 0 3.48 1.34s1.6 2.85 2.38 4.28l10.34 19.13zM148.59 307.91c-.28 2.27-1.67 2.87-3.14 2.28a32.84 32.84 0 0 1-7.15-3.73c-3-2.25-5.73-5-8.66-7.41-4.74-3.91-9.6-7.68-14.3-11.63-.78-.65-1.63-2.18-1.36-2.92.65-1.8 2.32-1.39 3.65-.64a31.48 31.48 0 0 1 4.49 3c4.34 3.56 8.52 7.32 12.91 10.8 3.67 2.91 7.56 5.53 11.33 8.31.83.62 1.59 1.36 2.23 1.94z"/><path d="M275.4 164.16c.64-3.19 1.73-4.06 3.77-2.59a16.26 16.26 0 0 1 3.8 4.43c2 3.19 3.62 6.69 5.84 9.74a41.45 41.45 0 0 0 6.39 6.45c1.1 1 2.73 1.53 1.86 3.3-1 2-2.85 1.45-4.18.57a19.67 19.67 0 0 1-5.31-4.46c-2.74-3.79-4.94-8-7.55-11.85-1.38-2-3.14-3.82-4.73-5.73zM337.95 109.37c-2.86 1.43-5.13-.07-7.47-1.44s-4.79-2.37-6.89-4c-1.47-1.12-2.42-2.94-4.1-5.08 1.6-.58 3-1.56 3.57-1.21q6.65 4 13 8.6c.89.64 1.16 2.14 1.72 3.23zM342.73 98.67c-.67.74-1.2 1.86-1.79 1.89-1.52.07-3.43.15-4.53-.66a105.22 105.22 0 0 1-9.35-8.07c-.62-.58-.63-1.81-.92-2.74 1.1-.22 2.51-1 3.24-.55a84.56 84.56 0 0 1 7.06 5c1.58 1.13 3.2 2.21 4.74 3.39a12.21 12.21 0 0 1 1.55 1.74zM78.78 341.21c-.71.55-1.34 1.47-2 1.51a68.37 68.37 0 0 1-8-.07c-.54 0-1.53-1-1.46-1.31a5.78 5.78 0 0 1 1.4-3.19c1.61-1.35 7.68-.26 9.22 1.41a7.74 7.74 0 0 1 .84 1.65zM68.95 293.1c-.32-1-1.08-2.14-.87-3 .65-2.72 6.61-5.19 9.09-3.88 1.32.7 2 2.24.64 3-2.53 1.5-5.42 2.44-8.86 3.88zM68.03 316.5c.22-1.68 0-3.15.61-4 1.21-1.73 8.71-1.58 10.09 0 1 1.14.35 2.84-1.39 3.14-1.39.23-2.86 0-4.28.16s-2.75.36-5.03.7zM74.05 296.63c1.54.92 4.31 1.76 4.38 2.79.23 3-2.64 2-4.44 2.26a10.62 10.62 0 0 0-2.14.28c-1.49.58-3 .95-3.52-1s.91-3 2.61-3.46a13.37 13.37 0 0 1 2.7-.22zM73.5 329.35c-.21 0-.85.38-1.25.2-.89-.4-2.19-.95-2.34-1.64s.78-2.4 1.35-2.45a41.71 41.71 0 0 1 7.41.12c.43 0 1.19 1.19 1.06 1.58a3 3 0 0 1-1.61 1.8 27.3 27.3 0 0 1-4.62.39zM72.76 351.83a31.35 31.35 0 0 1 5.16 2c.5.3.29 1.78.4 2.73-1.72.05-3.63.6-5.13.05-1.95-.72-2.55-2.45-.43-4.78zM640.32 412.84c3.21 3.64 7.64 4.08 12.07 4.55 1.57.17 3.08.86 2.58 2.62a3.47 3.47 0 0 1-2.9 1.63 49.79 49.79 0 0 1-10.53-2.12c-3.41-1.21-3.69-3.49-1.22-6.68zM834.44 355.31c.79 1.39 1.85 2.49 2 3.69a11.21 11.21 0 0 1-.87 4.34 3.18 3.18 0 0 1-1.83-.08 52 52 0 0 1-1.44-6.52c-.06-.28 1.03-.72 2.14-1.43z"/></svg>