<svg data-name="Layer 1" xmlns="http://www.w3.org/2000/svg" viewBox="0 0 1225.58 976.84"><path d="M646.37 896.46c-1.56-3.12-3.2-6.11-4.57-9.22-3-6.87-1.74-11.26 4.71-15.26 3.22-2 6.75-3.54 10.08-5.38 3-1.67 3.67-2.73 2.13-5.64a24.89 24.89 0 0 0-5.94-7.52c-2.9-2.39-6.45-4-10.37-6.31-.72 3.09-1.45 5.79-2 8.53a31.1 31.1 0 0 0-.93 7.56c.32 4.79-2.39 7.5-6 9.39a40.71 40.71 0 0 1-9.65 3.56c-3.45.79-6.45-.79-8.6-3.56s-2.75-6.31-6-8.25c-.46-.28-.26-1.66-.45-3.17-8.1 1.48-16.11 2.92-24.11 4.43A370.72 370.72 0 0 0 541 877.05c-25.25 8-50.75 15.46-77.13 19.13-23.65 3.3-46.21-.18-68.17-9.6-20.84-8.94-37.41-23.53-53.7-38.63-7.46-6.92-14.72-14.06-22.11-21.06-1.56-1.48-3.3-2.78-5.32-4.47-1.13 2.79-1.8 5.39-3.14 7.57a23.52 23.52 0 0 1-28.89 10c-11.61-4.37-24.21-18.16-23.11-33.33.78-10.76 1.61-21.78 6.45-31.79 4.49-9.3 11.13-17 18.78-23.84 2.93-2.61 6.66-4.37 10.13-6.32a5.57 5.57 0 0 1 3.67-.74c5.46 1.41 11.16 1.94 16.22 4.81 5.53 3.13 10.93 6.72 16.83 8.9A95.8 95.8 0 0 1 362 776.44c17.14 15.24 37.27 23.64 59.48 27.75 32.46 6 64.68 5.74 96.57-3.66 5.37-1.59 10.79-3 16.21-4.46-2.44-7.27-4.07-8.31-11.23-8.46-1.38 0-2.73-1.54-4.58-2.67-5.23 4-12 4.85-19 5.26-2.11.13-4.13 1.38-6.26 1.72-1 .17-2.19-.57-3.29-.9.52-1 .79-2.64 1.6-3a33.67 33.67 0 0 1 7.77-2.3c6.49-1 12.82-2.31 18.58-5.76s6.29-8.3 1.08-12.64c-4.1-3.41-8.73-5.08-14.14-4.15-2.11.37-4.25.58-6.65.89 0 2.17.07 4.14 0 6.09-.19 4-2 6.89-5.79 8.45s-7.31 3.1-11 4.66c-2.18-2.86-2.27-3.66.13-5a52.75 52.75 0 0 1 8-3.4c3.07-1 4.27-3.11 4.33-6.16.07-3.85-1-5.11-4.88-5.74a67.65 67.65 0 0 1-8.53-1.66 8.76 8.76 0 0 1-3.84-2.79c-.47-.55-.24-2.07.19-2.86a2.52 2.52 0 0 1 2.39-.27c4.72 3 10.08 2.71 15.29 3.27 13.25 1.42 23.47-4.89 32.92-13a8.32 8.32 0 0 0 2.43-4.71c.71-4.5.65-9-1.08-13.09-8.44 1.25-16.61 2.65-24.83 3.64-8 1-15.53-.84-22.68-4.41-.49-.25-1.15-.43-1.37-.84-.48-.87-1.2-2.06-.92-2.76a3.13 3.13 0 0 1 2.58-1.18 10.16 10.16 0 0 1 3.56 1.27c7.34 3.62 15 3.82 22.91 2.61q6.2-1 12.41-1.7c6.53-.79 10.77-5 14.45-9.84 2.07-2.71.4-8.32-2.52-10.84-3.29-2.84-6.69-5.58-9.72-8.69-4.32-4.43-9.31-6.74-15.55-6.5a94.38 94.38 0 0 1-10.9-.2 14.67 14.67 0 0 1-5.1-1.61 2.51 2.51 0 0 1-.7-2.32 2.53 2.53 0 0 1 2-1.23c7.74.46 15.48 1 23.48 1.62 1.27-4.81 5-7.43 8.53-10.28a34.55 34.55 0 0 0 6.66-6.33c8.33-11.72 19.49-20.52 30.19-29.79 3.57-3.1 7.3-6 11.09-8.84 20.05-15 37.73-32.4 53.84-51.55 6-7.09 11.93-14.11 17.22-21.76 8.7-12.58 13.93-26.67 18.92-40.9a11.53 11.53 0 0 0 .27-3.73c0-1.45-.29-2.91-.17-4.34.48-5.36 1.46-6.33 7.31-7.22 1.16-2.35 2.59-4.88 3.7-7.55q8.68-20.85 17.2-41.78a52.75 52.75 0 0 0 2.74-8.77c1.66-7.81 2.9-15.72 4.71-23.5a108.62 108.62 0 0 1 4.72-15.06c2.72-6.93 5.74-13.75 8.91-20.49a63.4 63.4 0 0 1 12.78-18.2 250.77 250.77 0 0 0 31-38c5.68-8.41 8.22-18.18 10.86-27.8.83-3 .24-6.5-.06-9.74a5.8 5.8 0 0 0-2.71-3.88 12.11 12.11 0 0 0 0 2.89c1.71 6.77-.91 12.09-5.56 16.7a9.49 9.49 0 0 1-8.05 2.59c-3.57-.43-7.1-1.17-11.28-1.89-6.73 6.36-14.21 12.75-20.87 19.91-7.4 8-14 16.67-21 25-3 3.61-6 7.3-9.34 10.65A130.83 130.83 0 0 0 666 390.66c-1.65 3-3.48 5.94-5.17 8.82 3.39 5.44 2.69 8.38-3.12 10.5a7.26 7.26 0 0 0-4.68 4.7c-1.66 4.22-3.37 8.43-5.06 12.64-.56 1.38-1.18 2.95-3.05 2.21s-1.48-2.28-.93-3.74c1.6-4.24 3.29-8.46 4.81-12.73.9-2.54 1.48-5.18 2.33-7.74a16.14 16.14 0 0 1 1.76-3.9c3-4.51 6.4-8.78 9.09-13.46a163.43 163.43 0 0 1 20.76-28.6c9.39-10.35 18-21.41 27.21-31.93 4.29-4.9 9.24-9.23 13.84-13.87 7.42-7.48 14.85-15 22.15-22.56a11.61 11.61 0 0 0 2.1-4.32c2.72-8.07 5.36-16.18 8-24.27.28-.86.66-1.69 1-2.55 2.76-8 1.37-11.62-6.73-16.57.92 8.35-.61 15.74-7.24 21-6.33 5-11.22 4.36-21-2.29-3.46 4.6-7.32 9-10.31 13.91-3.51 5.78-8 10.71-12.49 15.58-6.07 6.52-12.38 12.82-18.77 19-2.71 2.65-5.57 5.47-8.9 7.1-13.36 6.56-22.22 17.29-29.11 30q-8.18 15.09-16.19 30.25c-1.25 2.4-1.86 5.13-3 7.57-3 6.19-5.63 12.63-9.38 18.35s-7.49 11.56-10.16 18c-.65 1.55-1.06 4.07-3.56 3s-1.11-3.23-.37-4.72c2.67-5.35 5.12-10.88 8.45-15.82a100.12 100.12 0 0 0 11.15-21.71 162 162 0 0 1 10-21.16c4.66-8.61 9.74-17 14.82-25.39 5.39-8.91 13-15.47 22-20.72 4.63-2.72 8.71-6.46 12.82-10 2.75-2.36 5-5.24 7.69-7.73 14.13-13.3 25.2-29.05 36.12-44.94 5.72-8.32 12.28-15.79 22.34-19.14a4.12 4.12 0 0 0 1.93-1.7c5.24-8.73-.12-23-9.85-26.28-.13 0-.31.1-.47.15-.08.32-.33.73-.21.94 5 9.35.63 17.36-5.73 22.74a68.17 68.17 0 0 1-8.86 6.32c-6.79 4.1-14.07 3.67-17.58-3-.23-.43-.8-.68-1.56-1.29-1.26 1.59-2.52 3.08-3.67 4.65a139.12 139.12 0 0 1-31.7 31.26c-9 6.4-17.74 13.29-26.64 19.9-6.79 5.05-12.65 10.93-16.88 18.32-.36.63-.62 1.46-1.18 1.78a3.47 3.47 0 0 1-2.41.4 2 2 0 0 1-.89-1.74 8 8 0 0 1 1.3-3.49c3.81-4.82 7.18-10.24 11.81-14.14a494.592 494.592 0 0 1 32.33-25c14.76-10.49 26.33-23.81 36.86-38.9l-3.56-2.85c-.59.44-1 .6-1.08.82-1.87 12.73-12.93 15.86-21.94 16.24-3.81.17-6.08-2.78-8.09-6.17-10 7.6-19.68 15-29.35 22.32q-23.99 18.15-47.8 36.36a33.32 33.32 0 0 0-6.69 6.34c-6.24 8.44-12.58 16.8-17.21 26.36-6.58 13.55-14 26.7-20.44 40.31-4.42 9.35-10.75 17.38-16.48 26.34 1.46.42 2.78.68 4 1.17 2.64 1.06 4 3.73 2.8 6.12-.65 1.27-2.19 2.74-3.46 2.88s-3-1.06-3.85-2.18-1-3-1.64-5.11c-3.63 4.28-7.06 8.28-9.17 13.07-3.36 7.62-6.27 15.45-9.34 23.21-.26.66-.13 1.55-.53 2.08s-1.39 1.4-2 1.31a2.56 2.56 0 0 1-1.73-1.71 9 9 0 0 1 .35-3.73c3.26-11.42 7.56-22.35 14.6-32.07 5.65-7.8 11.11-15.73 16.6-23.64a41.65 41.65 0 0 0 2.17-4.05c-.67-1.36-1.48-2.74-2.05-4.22-.69-1.8-.8-3.69 1.14-4.82a3.16 3.16 0 0 0 1.56-3.67c-2.18-14.26-7.08-27.28-16.37-38.62-5.74-7-14.29-4.73-16.67 3.5-1.61 5.57-3.06 11.21-4.17 16.89q-3.21 16.51-5.88 33.11c-.52 3.24-2.1 6.67.3 10 .36.5-.1 1.69-.33 2.53-5.71 20.86-16.87 38.85-29.45 56.13-6.83 9.39-13.86 18.64-18.25 29.6a126 126 0 0 0-9.34 41.8 358.07 358.07 0 0 1-6 54.1c-2.67 13.72-4.63 27.59-7.48 41.27-1.59 7.61-4.45 15-6.54 22.46-.66 2.36-.45 4.95-1.09 7.31-.41 1.47-1.67 2.71-2.4 3.83 2.53 1 2.29 7.25 7.86 5.12.14 1.89.24 3.26.34 4.64a3.47 3.47 0 0 0 .77.72c11.84 5.39 21.44 13.54 29.43 23.72 1.55 2 3.66 3.52 5.36 5.4.5.56.91 2 .6 2.32-.62.67-1.95 1.41-2.65 1.16a11 11 0 0 1-4-2.59c-2.9-3-5.7-6.13-8.36-9.34a54.47 54.47 0 0 0-16.88-13.6c-11.14-5.82-19.5-14.93-28.19-23.66a19.7 19.7 0 0 0-5.46-4.25c-3.89-1.77-6-.88-8.1 2.83a52.54 52.54 0 0 0-2.55 5.42 16.74 16.74 0 0 1-9.91 9.55c-2.38.89-4.75 1.83-7.17 2.61-9.19 3-15.54 9.2-19.91 17.54-2.59 4.94-1.65 7.55 3.22 10.29 4.11 2.32 8.22 4.67 12.45 6.77a35.57 35.57 0 0 1 11.37 9.16c4.22 5 8.74 9.73 12.95 14.74a80.23 80.23 0 0 1 6.36 8.82c2.14 3.37 4.83 6 8.72 7 7.81 2 12.53 7.3 14.77 14.67 2.08 6.82 6.16 11.29 12.81 13.7a27.63 27.63 0 0 1 6.19 3.39 2.91 2.91 0 0 1 .73 2.73 2.88 2.88 0 0 1-2.6 1.08c-8.37-4.06-18.14-6.52-20.87-17.39a28.61 28.61 0 0 0-1.8-4.56c-1.89-4.16-4.74-7.31-9.31-8.55-6.14-1.66-10.4-5.49-13.63-10.94-1.92-3.24-4.6-6-7.06-8.94-2.82-3.33-6-6.36-8.59-9.86a38.27 38.27 0 0 0-17.13-13.18c-.29.34-.87.71-.9 1.12-.59 6.88-4.94 11.09-10.29 14.58-2.44 1.58-5 3-7.42 4.58-9.1 6.18-10.68 18.06-3.52 26.53 1.52 1.8 3.38 3.3 5.06 5q7.4 7.25 14.77 14.52c.39.39.77.77 1.12 1.19 1 1.21 1.75 2.72.23 3.76-.71.5-2.3 0-3.35-.39-.79-.3-1.35-1.18-2-1.81-5.34-5.19-10.51-10.58-16.07-15.52-6.34-5.63-8.88-12.58-8.8-20.84.05-5.68 2.08-10.33 6.59-13.71 3-2.28 6.43-4.09 9.53-6.31 2.63-1.89 5.45-3.75 7.5-6.2 3.63-4.34 2.73-8.62-1.91-11.91-5.06-3.58-6.63-8.1-4.16-13.75a38.52 38.52 0 0 1 22.12-21.34 25.71 25.71 0 0 1 3.12-1c6.81-1.68 11.33-5.56 14.09-12.28 4.42-10.76 14.26-11.73 21.72-2.65 2.27 2.76 4.7 5.39 7.74 8.86 2.07-6.81 3-13 5.78-18.21 4.84-8.91 5.28-18.72 7.13-28.16 3.69-18.88 6.69-37.91 9.39-57 1.2-8.42.65-17.07 1.47-25.56 1.8-18.38 5.31-36.42 14.6-52.66 4.4-7.69 10.07-14.66 15-22.07 6.44-9.65 12.72-19.41 19-29.07-2.4-1.66-4.47-2.63-5.82-4.21-.71-.83-.43-2.82-.09-4.16 1.35-5.41 4.46-7.44 10.59-6.55.78-3.56 1.8-7.16 2.34-10.83 1-7 1.8-14.05 2.69-21.08.11-.9.21-1.81.41-2.7 2.65-11.66 5.22-23.34 8.06-34.95a29.16 29.16 0 0 1 3.55-7.87c3.89-6.44 15.1-6.87 19.63-1.78 7 7.84 12.63 16.42 15.69 26.49 1.58 5.2 2.56 10.58 3.82 15.88a3.05 3.05 0 0 0 1.59 2.06c1.13-2.37 2.21-4.76 3.39-7.11q5.37-10.71 10.79-21.39c1.89-3.72 3.49-7.65 5.83-11.08 5.61-8.2 11.55-16.18 17.44-24.19a15.23 15.23 0 0 1 3.17-3c10.15-7.67 20.38-15.23 30.48-23 10.68-8.17 21.16-16.61 31.89-24.72 8.11-6.14 16.43-12 24.75-17.85 3.13-2.19 6.53-4 10.59-3.85a4.93 4.93 0 0 0 2.56-.74c6.32-3.75 12.4-3.76 18.51 1.61 1.33-1.5 2.54-2.76 3.64-4.11a50.71 50.71 0 0 1 14.87-12.64c12.37-6.82 23.36-3 28.85 10.08 2.25 5.34 3.18 10.75 1.29 16.45-1.28 3.86.45 8.64 3.78 11.28 5.36 4.24 7.34 9.89 5.77 16.35-1.18 4.92-3.37 9.58-5 14.39-1.21 3.57-2.27 7.2-3.73 11.89 2.52-1 4.09-1.6 5.63-2.26 6.17-2.65 10.36-.66 11.62 5.91 1.07 5.57 1.25 11.2-.83 16.68-.58 1.52-1 3.12-1.59 4.63a13.68 13.68 0 0 0 .38 11.54c5.65 12.12 8.38 25.16 10.84 38.17 3.24 17.13 5.52 34.44 8.74 51.58 2.28 12.15-.44 23.36-4.28 34.68-6.59 19.42-13.06 38.9-19.07 58.5-1.84 6-2 12.47-3 18.7a29.11 29.11 0 0 1-1.32 4.06 35.21 35.21 0 0 0-1.48 5.09c-1.52 9.86-2.6 19.82-4.52 29.6A57.42 57.42 0 0 1 749.5 575a158.83 158.83 0 0 1-24.5 36.15c1.25 3 1.45 5.89-.84 8.62a4.87 4.87 0 0 0-.68 3.52c.88 5.19 1.88 10.37 3.07 15.5a6.28 6.28 0 0 0 2.27 3.38c5.11 3.72 4.41 3.41 2.62 9.1a19.87 19.87 0 0 0-.37 10.49c.74 3.74 1.42 7.5 2.25 11.22.66 3 1.06 5.86 3.54 8.3 2.27 2.24 2.18 5.53 1.38 8.75a18.09 18.09 0 0 0-.48 6.82c.76 5 1.84 10 3 14.95.35 1.39 1.56 3.59 2.49 3.65 3.28.2 3.5 2.57 4.36 4.72a5.25 5.25 0 0 1-1.28 6c-.48.52-.89 1.11-1.46 1.84l1.14 4.17c5.47 3.36 10.5 5.89 14.83 9.3 3.28 2.58 6.47 2.84 10.12 2.1 5.16-1.06 10.3-2.23 15.46-3.26a870.36 870.36 0 0 1 18.2-3.46c5.9-1.05 7.64 0 8.67 5.94 1.26 7.33 1.94 14.76 3 22.13 1.9 12.94 4.11 25.83 5.84 38.79 1.71 12.78 3.14 25.61 4.41 38.44 1.17 11.93 1.54 23.94 3 35.82 2.1 16.94 5 33.78 7.37 50.68 1.34 9.37 2.21 18.77.88 28.25-.4 2.84-1.44 4.86-4.5 5.28-15.47 2.13-30.89 4.79-46.43 6.2-14.1 1.28-28.32 1.44-42.49 1.66a153.75 153.75 0 0 0-38.16 5.7 27.15 27.15 0 0 1-5.32 1.08c-3.85.25-5.64-1.39-6.16-5.28v-1.09c-1.47-28-4.88-55.73-8.43-83.5-2-15.49-3-31.1-4.73-46.63-.94-8.48-2.5-16.89-3.58-25.36-1.73-13.52-3.33-27.05-4.88-40.59-.59-5.14.46-6.7 5.57-8.39q10.86-3.6 21.81-6.92a65 65 0 0 1 8-1.64c10-1.69 20.06-3.3 30.07-5A34.41 34.41 0 0 0 743 751a12.13 12.13 0 0 0 .36-10.63c-1.3-3.12-2.87-6.09-3-9.69 0-1.24-1.73-2.54-2.84-3.64-3-3-3.22-4.25-1.87-8.21a11.24 11.24 0 0 0 .46-5.12c-.64-4.12-1.57-8.2-2.45-12.28-.75-3.47-1-6.91-4.53-9.4-2.56-1.82-3.29-5.14-1.56-8.38a13.66 13.66 0 0 0 1-10c-1-4.24-1.67-8.56-2.58-12.83-.51-2.44-1.06-4.7-3.24-6.6-2.52-2.19-2.28-5.51-1.56-8.67a14.4 14.4 0 0 0 .61-5.25c-.83-5.19-2.11-10.32-3-15.51-.39-2.36-1.51-3.54-3.22-3.78-6.67 5.09-12.95 10-19.35 14.74-2.61 1.94-3.4 4.64-3.69 7.57-.43 4.16-.61 8.34-1 12.5-.45 5.25-.72 10.53-1.55 15.72a24 24 0 0 1-3.05 8.66c-4 6.46-8.5 12.64-12.79 18.93a15.72 15.72 0 0 0-2.3 3.61c-2.17 6.53-4 13.16-6.26 19.66-2.67 7.74-8.2 13.18-15 17.39-2.32 1.42-4.65 3-7.21 3.82-3.69 1.11-5.27 3.87-5.9 7-1.2 6-4.31 10.7-8.41 15a31.16 31.16 0 0 0-2.54 3.53l-6.43.67c0 3.27.6 6.4-.16 9.15s-2.89 5.35-4.66 8.41c3.16.75 6 1.67 9 2.08 6.34.89 10.95 4.79 15.27 8.91a15 15 0 0 1 3.71 7c3 12 1.37 24.16.77 36.91 3 1.8 6.33 3.88 9.74 5.9a20.8 20.8 0 0 1 9.48 10.86c2.07 5.65.87 8.9-4.41 11.72-2.88 1.53-5.9 2.83-8.72 4.48-5.62 3.29-6.23 5.31-3.52 11.11.84 1.81 2 3.49 2.85 5.27a34.46 34.46 0 0 1 2.47 5.44c.78 2.57 0 3.93-2.61 4.31-6.63 1-13.16 1.93-19.7-1.36-10.49-5.29-20.6-11-27.19-21.11a43.94 43.94 0 0 1-4.38-9.9c-.33-.94.82-2.39 1.3-3.61.88.69 2.31 1.21 2.57 2.09 4.64 15.42 17.31 22.1 30.44 28.39a16.82 16.82 0 0 0 14.02.6zm108.57-127c-2.39 1.17-2.58-1.16-3.23-2.26a38.3 38.3 0 0 1-2.17-5.23c-5.61 1-10.8 1.65-15.88 2.83a25.41 25.41 0 0 0-7.3 3.26 5.18 5.18 0 0 0-2.44 5.77 21 21 0 0 0 3.75.49c5.77-.27 11.55-.52 17.3-1.05a40.08 40.08 0 0 0 7.91-1.8c.82-.25 1.38-1.33 2.06-2 6 1.75 8.81 0 9.85-6.75l-10.26-1.55c.93 2.54 1.67 4.19 2.12 5.91.35 1.27.35 2.69-1.71 2.42zm-33.72-163.4l1.73 1.16c.78-1.22 1.53-2.47 2.35-3.67 5.34-7.79 10.91-15.42 16-23.39a71.09 71.09 0 0 0 10-25.12c2.39-12.63 2.9-25.52 6.18-38.07 2.1-8 3.08-16.37 5.76-24.32 5.74-17 11.28-34.12 17-51.15 3.16-9.4 5.4-18.85 3.62-28.87-4-22.52-7.94-45.06-12-67.58a90.88 90.88 0 0 0-7-22.09c-1.09 1.28-1.95 2.16-2.69 3.14-2.68 3.59-5 7.48-8 10.76-5.8 6.3-7.46 13.76-7.24 21.95.27 10.35-.1 20.76.87 31 1.77 18.61-2 36.12-8.79 53.21-.33.81-1.5 1.28-2.28 1.91-.73-.91-2.16-1.89-2.07-2.71a24.42 24.42 0 0 1 1.79-6.79c5.57-13.15 7.39-26.78 6.62-41-.68-12.5-.38-25.06-.5-37.6v-4c-1.62 1.56-2.52 2.34-3.34 3.21-4.09 4.38-8 9-12.29 13.14-6.21 6-9.17 13.1-9.5 21.79-.38 9.78-1.57 19.54-2.62 29.29a30.5 30.5 0 0 1-2.16 7.83c-.34.85-1.89 1.23-2.89 1.83-.55-1.18-1.87-2.71-1.52-3.49 2.7-6 2.2-12.49 3.22-18.73.69-4.25.76-8.61 1.1-12.92a7.17 7.17 0 0 0-2.37 3.19 125.76 125.76 0 0 0-9.06 29.62 294.52 294.52 0 0 1-10.91 43.28c-.54 1.62-1.51 4.1-2.65 4.33-3.06.61-3.45 2.87-4.3 5-2.5 6.23-4.82 12.54-7.45 18.72-1.27 3-3.07 5.56-3 9.13 0 1.9-1.35 4.31-2.85 5.66-2.75 2.47-3.76 5.61-4.95 8.86-5 13.65-10.8 26.87-19.21 39-5.43 7.81-11.8 14.72-17.89 21.93a308.09 308.09 0 0 1-43.39 42.82q-12.58 10-25.09 20.13c-1.45 1.18-2.7 2.6-4 3.91 6.87-.39 12.74 1.67 18.59 3.57 3.27 1.06 6.41 2.55 9.6 3.87a64.83 64.83 0 0 0 22.28 4.63 31.8 31.8 0 0 1 9 1.86c4 1.43 7.92 3.38 12.26 5.28 3.28-6.44 9.14-9.28 15.24-11.85 5.84-2.47 11.74-4.88 17.4-7.73 8.91-4.48 17.61-9.4 26.48-14a94 94 0 0 0 24.94-18.28 18.65 18.65 0 0 0 5-12.7c.12-5.25-.7-10.51-1.18-15.76-.18-2-.47-3.79-2.93-4.67s-3-3.31-2.62-5.5c.44-2.44 1.11-5.15 2.6-7 1.94-2.41 2.06-4.9 2-7.61s.52-5.31-2-7.5c-1.07-.94-1.53-2.89-1.76-4.46-.69-4.83 1.9-8 6.78-8.37.87 3.73 2.53 7.21 1.72 11.45-.7 3.69-.41 7.6-.26 11.41a7.47 7.47 0 0 0 1.55 4.33 6.36 6.36 0 0 1 1.35 6.62c-3.32 9.38-.65 18.73-.27 28.11zm27.1 151.74c-1.92-3.07-1.89-2.94-4.85-2.28-9.2 2.05-18.36 4.7-27.69 5.78-10.77 1.25-21 4.22-31.11 7.64-2.2.74-4.38 1.55-7.14 2.54 8.12 66.93 16.64 133.47 22.62 200.73 2-.43 3.71-.83 5.43-1.19 7.11-1.49 14.15-3.69 21.33-4.31 16.45-1.41 33-2.82 49.48-2.78 18.71 0 36.8-3.8 55.1-6.43.49-.07.92-.53 1.63-1a128.39 128.39 0 0 0-1.49-31.35c-2.28-13.78-4.55-27.59-6.3-41.45-1-8.08-.55-16.36-1.58-24.45-3-23.4-4.59-47-8.92-70.23-2.58-13.91-3.75-28.07-5.63-42.11a49.36 49.36 0 0 0-1.39-5.61l-56.06 10c.51 2 .94 3.64 1.31 5.07 3.09.32 5.75.63 8.41.85 3.44.3 6.68 1.33 8 4.68 1.45 3.61-.36 6.79-2.93 9.32a12.67 12.67 0 0 1-4.89 3.26C749.92 778 737.82 779 725.61 779a8 8 0 0 1-1.62-.17c-4-.84-6-3.76-4.83-7.61a16.45 16.45 0 0 1 3.49-6c2.78-3.07 6.59-4.37 10.63-5 4.83-.72 9.64-1.53 15.04-2.42zM634.1 863c1.93-8.91 4.2-17 5.32-25.23a107.16 107.16 0 0 0 0-28.23c-1.11-8.65-7.21-12.49-14.15-14.77-11.18-3.67-23-3.52-34.58-3-21.13 1-41.73 5.47-62.17 10.81-13.52 3.52-27.11 7.48-40.92 9-25.57 2.85-51.1 1.64-76.29-4.77-18.47-4.69-35.23-12.28-49.79-24.71-5.65-4.83-11.52-9.62-17.92-13.31-10.21-5.88-20.9-10.93-31.5-16.09-2.86-1.4-6.31-1.59-9.2-2.94-3.2-1.49-5.78-1-8.73.56-8.05 4.43-13.51 11.41-19 18.46-5.08 6.51-7.49 14.06-9 22-.38 2 0 4.21 0 6.26 5.88 1.42 11.34 2.7 16.79 4.06 12.71 3.16 24.32 8.57 34.26 17.21 6.44 5.61 12.71 11.41 19.05 17.14 10.37 9.39 20.31 19.29 31.16 28.08 29.27 23.75 62.67 33.47 100.28 27.3 24.28-4 47.94-10.52 71.22-18.14a411.09 411.09 0 0 1 49-12.59c3.92-.76 7.84-1.53 11.77-2.28 11.93-2.27 23.53-2.05 34.4 5.18zm-1.33-113.78a25.64 25.64 0 0 0-3.56 1.19c-6.68 3.59-13.92 4.1-21.22 3.57a29.68 29.68 0 0 1-8.76-2.55c-.69-.28-.76-2.09-1.11-3.2 1.11-.26 2.4-1.05 3.28-.72 9.29 3.49 18.15 2.25 26.86-2 4.42-2.13 8.83-4.29 13.37-6.12 14.42-5.79 21-17.39 24.18-32.23-1.74 1.18-3.27 2.06-4.61 3.17-10.12 8.32-22.71 7.11-33.61.71a27.5 27.5 0 0 1-4.86-3.47c-1.19-1.08-1.44-2.79.06-3.75a4.53 4.53 0 0 1 3.31 0c.77.24 1.23 1.31 2 1.84 7.67 5.54 20.32 9.32 30.24.9 2.49-2.12 5.38-3.8 7.7-6.07 10.54-10.34 19.49-21.61 20.59-37.2.52-7.37 1-14.73 1.62-22.62a19.28 19.28 0 0 0-3 1.19C673.6 649.4 661 655 648.17 660.14c-3.69 1.48-7.21 3.43-10.75 5.28a12.21 12.21 0 0 0-6 6.87c8.26 3.4 16.15 6.53 24.7 7.53a11.89 11.89 0 0 0 4.87-.06c2.69-.89 5.66-1.79 7.71-3.6 4.14-3.65 7.08-8.25 7.68-14 .41-4 .81-7.95 1.52-11.87.16-.89 1.6-1.55 2.46-2.32.7.91 2 1.82 2 2.74 0 2.89-.51 5.79-.68 8.69a30.2 30.2 0 0 1-7.6 18.26c-4.91 5.8-11.12 8-18.49 6.89a88.18 88.18 0 0 1-31.73-10.94c-7-4-14.26-6.71-22.6-7-5.87-.23-11.74-2.15-17.44-3.86a140.9 140.9 0 0 1-16.82-6.31c-8.1-3.6-14.79 1.5-22.06 3-.59.13-1.07.95-1.54 1.5-1.41 1.66-2.8 3.35-4.17 5-4 4.89-7.32 10.42-13.4 13.23a10.69 10.69 0 0 0-2.86 2.5c-2.48 2.63-2.49 5.06.14 7.46 4.15 3.79 8.35 7.52 12.63 11.15 5.66 4.79 6.85 14.07 1.7 18.9-3.67 3.44-4.46 6.71-3.31 11.52 2.35 9.78-.21 18-9.43 23.31-2.95 1.71-5.78 3.61-9 5.62 1.71 1.1 3 2 4.39 2.82 6.32 3.94 10 10.26 4.23 19-.11.16.17.59.4 1.28 8.27-.62 11.34 6.22 15 11.45 12.58-2.13 24.54-4.27 36.55-6.14s24.15-1.6 35.77-.5c.62-3 .33-6.22 1.79-7.66 3-3 2.75-5.47.81-8.66-1.33-2.18-.16-3.84 1.91-4.84a19.1 19.1 0 0 1 3.11-1c6.97-1.84 12.08-7.9 13.11-16.19zm-337.36 64.05a16.61 16.61 0 0 0 2.38 1.44c5.71 2 6.14 2.78 4.15 8.45a23 23 0 0 1-1.5 3.5c-2 3.61-3.13 4.2-7 2.79-8.94-3.24-15.2-9.64-20-17.64-1.47-2.46-1.46-5.09 1-8.07l-9.19-1.63c-2.43 3.07-1.81 6.09-1.26 8.82 2.28 11.28 8.95 19.39 19.27 24.14 9 4.14 18.49 1 23.85-7.1 2.11-3.21 2.74-9.12.64-10.67a63.11 63.11 0 0 0-9.4-5.37c-.5-.25-1.62.71-2.94 1.34zM728.36 206c-9.2 4-15.67 10.67-20.93 18.67a4.45 4.45 0 0 0-.61 3c1 4.78 5.49 7.37 10 5.23 5.38-2.58 10.52-5.8 14.17-10.7 4.61-6.2 3.89-10.72-2.63-16.2zm-3.06 52c5.47 5.66 9.58 6.48 14.62 2.92 3.15-2.23 4.28-5.65 5.6-9.06 1.93-5-2.39-7.69-3.75-11.49a42.19 42.19 0 0 0-16.47 17.69zM292 808.73l-15-4.24c-.07 8.37 9.83 18.79 19.11 20.35l1.62-4.74c-8.33-2.1-8.33-2.1-5.73-11.37zm399.93-587.45c-4.47 1.27-8.43 2.19-12.25 3.55a19.77 19.77 0 0 0-6 3.49 4.15 4.15 0 0 0-1.18 3.68 4 4 0 0 0 3.36 1.88 34.4 34.4 0 0 0 9.84-2.57c3.8-1.82 6.5-4.96 6.23-10.03zm51.7 80.26c7.12 2.71 10.28 2.2 13.3-1.92s3.26-8.26.08-12zm-129.2 560.33c1.55 2.94 2.63 5.22 3.92 7.36 1.11 1.84 2.89 3 5 2.43 2.9-.8 5.69-2 9.25-3.33-5.52-4.51-10.8-6.77-18.17-6.46zm142.42-116.75c-2.66-2.59-4.65-5.5-8.93-6.06.85 2.8 1.51 5 2.18 7.17a23.81 23.81 0 0 0 2.57-.16c1.4-.27 2.79-.63 4.18-.95zM578.16 80.4c.53.4 1.63.85 2.12 1.67a31.28 31.28 0 0 1 2.84 5.85c1.68 4.8 3 9.71 4.76 14.48 3.18 8.68 6.66 17.26 9.84 25.94 4.06 11.06 8.61 22 11.77 33.33a202.52 202.52 0 0 0 24.89 54.82 26.12 26.12 0 0 1 2.51 4.8 2.46 2.46 0 0 1-.85 2.24 2.69 2.69 0 0 1-2.39-.44 11.11 11.11 0 0 1-1.91-2.62C620 202.61 610.37 183.84 605 163a211.56 211.56 0 0 0-14.3-38.77 121.24 121.24 0 0 1-4.78-12.23c-3.26-9.23-6.39-18.5-9.58-27.76-.77-2.24-.27-3.7 1.82-3.84z"/><path d="M454.19 406.27c-9.27-2.45-18.69-4.45-27.78-7.45-11.35-3.74-22.25-8.93-33.69-12.35-14.22-4.27-28.82-7.26-43.19-11-7.36-1.93-14.64-4.22-21.84-6.65-1.91-.65-3.57-2.32-5-3.81-.43-.44-.07-2.05.41-2.83.23-.38 1.75-.41 2.37-.05 10.56 6.09 22.42 8.32 34.05 10.77a337.2 337.2 0 0 1 62.77 19.45 124.58 124.58 0 0 0 33.52 9c1.18.15 3.11 1.15 3.19 1.91.23 2.3-1.91 2.09-3.49 2.29a9.91 9.91 0 0 1-1.09 0c-.1.23-.17.45-.23.72zM249 562.32a7 7 0 0 1 2-.56c22.21.38 44.16-2.72 66.19-4.73 18.42-1.69 36.88-2.93 55.31-4.48 3.6-.3 7.15-1.08 10.72-1.69.88-.16 1.71-.63 2.59-.8 1.57-.3 3.6-1 4.14 1.18s-1.59 2.64-3.11 3c-5.12 1.09-10.24 2.42-15.43 2.92-17 1.62-34 2.81-50.95 4.37-21 1.92-41.83 4.82-62.92 5a33.83 33.83 0 0 1-6-.27c-1.99-.26-3.43-1.38-2.54-3.94zM796.51 289.32a24.26 24.26 0 0 0 4.32-1.61c21.86-12.62 45.09-22.74 66.39-36.41 11.77-7.55 24-14.35 36-21.55 2.64-1.58 5.09-3.5 7.76-5 .92-.52 2.63-.83 3.32-.32 1.52 1.1.7 2.68-.39 3.72a25 25 0 0 1-4.27 3.34c-10.72 6.51-21.64 12.61-32.2 19.4-22 14.2-45.79 25.23-68.72 37.79-3 1.65-6.18 3.08-9.32 4.5a11.45 11.45 0 0 1-3.67 1c-2.15.18-3.88-1.35-3.55-3.15s1.48-2.94 4.33-1.71zM371.1 75.49a18 18 0 0 1 2.74 2.65c7.89 12.81 15.71 25.67 23.57 38.5 1 1.7 2.17 3.35 3.35 5q15.93 21.7 31.94 43.36c2.35 3.17 4.48 6.65 8.56 8.12.63.22.8 1.7 1.19 2.6-.93.37-2.16 1.32-2.74 1-2.35-1.24-5-2.42-6.63-4.4-5.58-6.92-10.77-14.15-16.1-21.27-3.91-5.23-7.84-10.45-11.7-15.71-4.41-6-9-11.9-13.07-18.09-6.63-10-13-20.11-19.34-30.3a33.73 33.73 0 0 1-3.26-8c-.24-.73.79-1.95 1.49-3.46zM1041.58 383.25a5.69 5.69 0 0 1-2.15-.06c-.72-.32-1.72-1-1.76-1.64s.76-1.52 1.4-2a5.4 5.4 0 0 1 2.06-.62c7.57-1.88 15.19-3.56 22.69-5.66q32.27-9 64.45-18.33c4.17-1.2 8.2-2.9 12.37-4.12 1.13-.33 2.54.28 3.82.45-.61 1.16-.94 2.89-1.9 3.38a56.39 56.39 0 0 1-10 4.16q-37.71 10.79-75.51 21.29c-5.06 1.41-10.24 2.37-15.36 3.54zM826.16 554.61c5.89 1 11.76 2.24 17.68 3.09 26.95 3.89 53.92 7.67 80.88 11.5a14.52 14.52 0 0 1 3.71.71 2.6 2.6 0 0 1 1.3 2.05 2.48 2.48 0 0 1-1.66 1.75 34.49 34.49 0 0 1-7-.21c-16.52-2.52-33-5.23-49.53-7.68-9.69-1.44-19.46-2.42-29.17-3.75-6.1-.84-12.19-1.89-18.24-3-1.2-.22-3.16-1.23-3.2-2-.13-2.25 2-2.1 3.58-2.21h1.63zM846.34 177.75c-2.36-1.09-2.73-2.79-1-4.64a43.93 43.93 0 0 1 5.69-5c12.33-9.25 24.84-18.27 37.05-27.68 11.48-8.86 22.66-18.1 34-27.18a23.57 23.57 0 0 1 3.8-3c.89-.44 2.21 0 3.34 0-.16 1.14 0 2.48-.56 3.37a17.78 17.78 0 0 1-3.13 3c-15.17 14.15-32.13 26-48.82 38.2-6.44 4.71-12.95 9.33-19.34 14.11-3.64 2.65-7.05 5.6-11.03 8.82zM396.29 258.21c.12.13.36.27.35.4-.5 6.36 4 9.61 8.14 13.07 13.11 11 26.09 22.07 39.39 32.79 6.48 5.24 13.56 9.73 20.36 14.58a30.81 30.81 0 0 1 4.24 3.33 1.89 1.89 0 0 1-2.23 3 22.36 22.36 0 0 1-4.21-2.48c-8.27-5.91-16.74-11.56-24.7-17.86-12-9.48-23.59-19.39-35.29-29.2a76.38 76.38 0 0 1-7.8-7.57 11.36 11.36 0 0 1-2.38-4.8c-.72-3.13.55-4.53 4.13-5.26zM609.26 324.91a9.3 9.3 0 0 1-1.06 1.53c-9 9.3-14.52 20.75-19.7 32.33-4.14 9.25-7.34 18.93-11.65 28.1-3.37 7.19-7.76 13.9-11.76 20.78a4.6 4.6 0 0 1-2 1.75 2.18 2.18 0 0 1-1.94-.23 2.39 2.39 0 0 1-.63-1.88 4.41 4.41 0 0 1 1-1.91c10.2-14.18 15.07-30.86 21.78-46.67a172.53 172.53 0 0 1 16.17-29.52 30.94 30.94 0 0 1 6.43-6.5c1.38-1.14 3.57.31 3.36 2.22zM458.44 204.78a33.42 33.42 0 0 1 2.95 2.81c4.87 6.08 9.65 12.23 14.53 18.31a38.11 38.11 0 0 0 4.77 5.21c7.18 6.06 12.41 13.59 17.37 21.47a74.45 74.45 0 0 0 9.32 11.25c4 4.21 8.37 8 12.44 12.17.71.71.7 2.13 1 3.23a13.41 13.41 0 0 1-3.4.08 5.09 5.09 0 0 1-2.19-1.55c-8.76-8.87-18.51-16.78-24.85-27.94-2.72-4.78-7.07-8.64-10.68-12.92-7.13-8.44-14.29-16.85-21.35-25.35a8.05 8.05 0 0 1-1.63-3.91c-.08-.73.94-1.64 1.72-2.86zM772.32 617.19c3.65 6.32 9.86 8.94 15.25 12.42 14.95 9.66 30.17 18.9 45.27 28.33 2.92 1.83 5.86 3.66 8.64 5.69a9.19 9.19 0 0 1 2.66 3.32c.28.55-.21 1.74-.71 2.34-.3.36-1.3.22-2 .17-.32 0-.63-.34-.93-.53-13.33-8.49-26.68-16.93-40-25.48-8.25-5.31-16.41-10.75-24.57-16.21a25 25 0 0 1-5-4.17c-1.49-1.8-1.8-3.86 1.39-5.88zM370.7 732.74c9.19-.53 15.24 3.49 19.71 10.38a73.46 73.46 0 0 0 5.2 7.65c3.25 3.86 6.78 7.48 10.25 11.15 1 1.05 2.27 1.83 3.23 2.9 1.18 1.33 1.66 3 .14 4.32s-2.45 0-3.66-.93c-7.86-5.87-13.54-13.55-18.53-21.84-2.08-3.46-4.53-6.66-8.48-8.15-2.51-.94-4.89-1.92-7.63.21-2.3 1.79-4.75.41-4.59-2.71.39-7.79-4.6-11.79-10.15-15.52-.85-.57-2.1-.55-2.95-1.12a13.79 13.79 0 0 1-2.24-2.39c.91-.75 1.82-2.11 2.72-2.1a8.51 8.51 0 0 1 4.51 1.44c5.95 4.02 11.53 8.42 12.47 16.71zM293.18 482.68l-44.29-5.22c-6.84-.81-13.7-1.53-20.52-2.49a15.14 15.14 0 0 1-5.53-2c-.75-.46-.79-2.08-1.15-3.17 1-.27 2-.87 2.87-.75 19.76 2.57 39.5 5.24 59.25 7.82 4.13.54 8.29.85 12.44 1.22 1.56.14 3.27.53 2.91 2.31-.17.85-2 1.51-3.24 2a8.38 8.38 0 0 1-2.7.05zM98.6 807.09l-2.8-2c.72-.89 1.3-2.4 2.18-2.59 18-4 32.44-15.15 48-24.09q5.19-3 10.5-5.75a9 9 0 0 1 3.63-1 2.88 2.88 0 0 1 2 1.33c.24.38-.18 1.34-.53 1.91a3.56 3.56 0 0 1-1.31.91c-10.32 6.06-20.58 12.25-31 18.12-6.64 3.73-13.46 7.16-20.38 10.34-3.1 1.36-6.61 1.83-10.29 2.82zM349.68 487.09c-7.07-.43-13.77-.73-20.45-1.31a11.45 11.45 0 0 1-4.93-2c-.58-.37-.7-1.95-.47-2.84.12-.44 1.57-.91 2.29-.76 17.15 3.41 34.32 1.75 51.5.42 6-.46 11.92-.88 17.88-1.19.71 0 2.08.79 2.07 1.18a3.46 3.46 0 0 1-1.2 2.58 9.7 9.7 0 0 1-4.12 1.21c-14.25.98-28.6 1.84-42.57 2.71zM326.46 197.89a13.26 13.26 0 0 1 2.42 1.88c10.06 13.44 23.72 22.89 36.7 33.07 4.56 3.58 9.36 6.84 13.95 10.38a3.59 3.59 0 0 1 .94 2.69c0 .38-1.51 1.06-2.2.93a9.58 9.58 0 0 1-3.95-1.61c-13-10.24-26-20.44-38.71-30.94-3.6-3-6.47-6.84-9.52-10.42a6.1 6.1 0 0 1-1.32-3.45c-.03-.74.98-1.54 1.69-2.53zM71.44 251.12a24.83 24.83 0 0 1 3.33 3c4.16 5.68 10 9 16.45 11 7.25 2.2 14.64 4 22.07 5.54a48.39 48.39 0 0 1 16.19 6 11.88 11.88 0 0 1 3 2.31 8.2 8.2 0 0 1 .93 2.79 17.12 17.12 0 0 1-3.37.44c-.63 0-1.23-.71-1.83-1.12a37.31 37.31 0 0 0-16.69-6 96.85 96.85 0 0 1-27.12-7.58 29.9 29.9 0 0 1-13-10.32c-.6-.89-1.44-1.87-1.47-2.83s.81-1.86 1.51-3.23zM157.84 582.65c-3.26 0-6.53.16-9.77 0-2.42-.15-4.62-1.13-5.69-3.55a2.26 2.26 0 0 1 .05-2c.55-.54 1.69-1.12 2.27-.89 12.21 4.82 24.29.77 36.37-.53 7.37-.79 14.67-2.25 22-3.31a12.65 12.65 0 0 1 4.83 0c.94.23 1.61 1.53 2.4 2.35-.81.56-1.57 1.48-2.46 1.61-7.51 1.16-15 2.15-22.56 3.24-9.13 1.31-18.25 2.67-27.37 4zM967.44 773.63c-1.67.6-2.87 1.5-3.62 1.22a18.79 18.79 0 0 1-5.62-3.18c-6.51-5.75-13-11.55-19.25-17.58-7.29-7.05-14-14.75-22.52-20.41-.82-.54-1-2-1.54-3 1.14-.23 2.42-.9 3.37-.59a12.38 12.38 0 0 1 4.13 2.53c4.92 4.28 9.87 8.53 14.58 13 8.9 8.51 17.17 17.71 27.46 24.67.96.71 1.57 1.77 3.01 3.34zM383.66 608.07c-9.26 3.11-18.26 6.33-27.38 9.14s-18.5 5.25-27.77 7.85a20.55 20.55 0 0 1-4.18 1.12c-.88.05-2.58-.79-2.56-1.16a4.36 4.36 0 0 1 1.35-3 12.59 12.59 0 0 1 4-1.53c8.21-2.31 16.48-4.44 24.64-6.92 7.62-2.32 15.12-5.06 22.72-7.46a22.76 22.76 0 0 1 6.83-1.11c1.83 0 3.02 1.23 2.35 3.07zM888.27 817.2c-1.27.53-2.46 1.48-3.17 1.2a8.71 8.71 0 0 1-3.27-2.67c-9.26-11.39-18.53-22.79-27.65-34.3-2.58-3.25-4.72-6.86-7-10.34-.84-1.27-1.53-2.88.28-3.66.74-.32 2.48.41 3.1 1.19q18 22.51 35.74 45.19a33.06 33.06 0 0 1 1.97 3.39zM225.52 328.17c1 .72 1.86 1.37 2.75 1.93 3.5 2.2 6.84 4.79 10.58 6.5 11.86 5.45 24 10.33 36.81 13a12.93 12.93 0 0 1 4.48 1.81c.66.44.71 1.78 1 2.72-.92.29-1.95 1-2.74.8-6.66-1.72-13.4-3.26-19.87-5.55-8.53-3-17-6.35-25.17-10.15-3.48-1.61-6.3-4.69-9.29-7.26-.48-.41-.47-1.7-.28-2.48.21-.49 1.04-.81 1.73-1.32zM294.22 168.89l-2.26-.78a91.71 91.71 0 0 1-33.78-21.37 29.43 29.43 0 0 1-4.78-7.14c-.77-1.43-1-3.39 1.08-4.13 1.77-.62 2.31 1 3.18 2.21a52.7 52.7 0 0 0 6.73 8.38c7.8 7.16 16.39 13.2 26.48 16.85a19.3 19.3 0 0 1 4.61 2.74c.37.27.44 1.37.22 1.92s-.98.9-1.48 1.32zM809.29 369.1c-1-.09-1.89.07-2.44-.27-.82-.51-1.9-1.33-2-2.1s1.16-1.86 1.92-2c15.19-1.92 28.72-8.48 42.33-14.87a22.23 22.23 0 0 1 4.51-1.77 2.58 2.58 0 0 1 2.19 1.05 2.71 2.71 0 0 1-.35 2.42 7.76 7.76 0 0 1-2.65 1.81c-12.54 6.17-25.43 11.44-39 14.81-1.58.43-3.2.66-4.51.92zM742.84 169.8c2.31-2.89 4.32-5 5.91-7.45 4.38-6.66 8.59-13.45 12.89-20.17a37.18 37.18 0 0 1 2.24-3.08c1.07-1.35 2.44-2.58 4.11-1.23s.42 2.9-.47 4.26c-5.09 7.72-10.28 15.37-15.18 23.21-2 3.2-3.26 6.85-5 10.21-.49.94-1.59 1.57-2.41 2.34-.69-.91-1.83-1.75-2-2.74a32.15 32.15 0 0 1-.09-5.35zM819.37 439.9a11.28 11.28 0 0 1-3.15-.29c-.69-.3-1.58-1.13-1.6-1.76s.77-1.46 1.37-2a2.57 2.57 0 0 1 1.57-.31c6.13 0 11.66-2.32 17.27-4.36q11-4 21.95-7.91c.68-.25 1.45-.79 2-.64a4.49 4.49 0 0 1 2.51 1.53c.29.43-.26 1.71-.78 2.3a5.38 5.38 0 0 1-2.33 1.32c-11.3 3.83-22.61 7.65-34 11.37a27 27 0 0 1-4.81.75zM487.12 90.06a12.56 12.56 0 0 1 2.62 2.5c3.08 4.9 6.07 9.86 8.93 14.89 2.59 4.56 4.8 9.35 7.52 13.82 1.36 2.23 3.59 3.92 5.28 6a16.43 16.43 0 0 1 1.6 3.06c-1.29.19-2.92 1-3.8.45a17.75 17.75 0 0 1-5.23-4.52 93.59 93.59 0 0 1-5.73-9.23c-4.25-7.35-8.44-14.75-12.67-22.12-1.45-2.57-1.12-4.6 1.48-4.85zM677.56 111c-1-6.78-2.11-13.54-3-20.34-.57-4.48-.79-9-1.14-13.52a10.52 10.52 0 0 1 .09-2.17c.22-1.64.42-3.52 2.65-3.34 1.82.15 2.09 1.75 2 3.28-.4 9.31 1.71 18.35 2.77 27.51.59 5.16 0 10.47-.4 15.7-.05.84-1.45 1.59-2.23 2.39-.63-1-1.71-1.9-1.79-2.9a47.33 47.33 0 0 1 .32-6.5zM941.22 400l-2.4-2c.77-.83 1.39-2.14 2.33-2.42 12.52-3.75 25.07-7.36 37.63-11a7.25 7.25 0 0 1 3.19-.51 10.35 10.35 0 0 1 2.93 1.68 28.63 28.63 0 0 1-2.2 2.69c-.33.33-1 .28-1.55.43l-36.69 10.33c-.87.24-1.76.43-3.24.8zM944.52 207.37c-.59-.43-1.5-.75-1.62-1.26a3 3 0 0 1 .42-2.38 11.78 11.78 0 0 1 3.13-2.13q16.92-8.81 33.86-17.57c1.39-.73 3.06-1.29 3.66.48.32.93-.64 2.58-1.46 3.53a10.24 10.24 0 0 1-3.25 2q-16 8.13-32.1 16.21c-.8.36-1.64.68-2.64 1.12zM254.53 650.67c-.5-.37-1.83-.87-1.94-1.57a3.08 3.08 0 0 1 1.36-2.56 19.72 19.72 0 0 1 5.16-1.6c10.71-2 21.43-4 31.62-8.07 1.9-.77 4.74-2.29 5.76.24 1.25 3.11-2.34 2.89-4.11 3.68-11.56 5.17-24.06 6.87-36.27 9.62-.35.08-.71.12-1.58.26zM993.87 587.64c-9.92-2.1-19.86-4.08-29.73-6.38a22.26 22.26 0 0 1-6.79-3.3c-.75-.49-.79-2.05-1.15-3.12 1-.2 2.2-.89 2.89-.53 11.27 5.78 23.73 6.23 35.84 8.21.54.09 1.09.12 1.62.2 1.62.21 3 1 2.54 2.72-.24.8-1.86 1.3-3 1.69a5.82 5.82 0 0 1-2.15-.07zM923.49 322.32c-.28.46-.52 1.23-1 1.57a13.73 13.73 0 0 1-2.93 1.36q-14.74 5.47-29.51 10.92a9.42 9.42 0 0 1-3.61.93 3.11 3.11 0 0 1-2.31-1.74 2.91 2.91 0 0 1 1.34-2.49c11.16-4.19 22.38-8.23 33.59-12.32 1.84-.69 3.51-.87 4.43 1.77zM813.07 62.94a14.94 14.94 0 0 1-.56 1.81q-6.87 14.18-13.77 28.33a9.34 9.34 0 0 1-1.74 2.74c-.55.52-2 1-2.23.79a4.93 4.93 0 0 1-1.14-2.61c-.07-.62.47-1.34.77-2 3.83-8.21 7.62-16.43 11.54-24.59a28.77 28.77 0 0 1 3.49-5.44c.39-.5 1.66-.56 2.43-.4.51.06.86.93 1.21 1.37zM919.57 405.19c-.89 1.12-1.48 2.36-2.47 3a29.5 29.5 0 0 1-6.27 3.16c-7.22 2.42-14.51 4.64-21.76 6.94-.52.16-1.14.57-1.54.42a5.59 5.59 0 0 1-2.53-1.52c-.23-.29.47-1.67 1.07-2.14a9.56 9.56 0 0 1 3-1.32c3.61-1.19 7.31-2.15 10.85-3.53 5.38-2.09 10.63-4.48 16-6.66a3.85 3.85 0 0 1 2.48-.13c.43.15.7 1.05 1.17 1.78zM667.94 455.63c0 3.05-2.55 5.49-6 5.84a5.73 5.73 0 0 1-6.57-5 11.72 11.72 0 0 1 3.14-9.47c1.8-2 3.6-1.92 5.59 0a12 12 0 0 1 3.84 8.63zM546 192.82c-1.43.6-2.49 1.48-3.29 1.29a6.21 6.21 0 0 1-3.06-2.11c-5.45-6.73-10.8-13.53-16.17-20.33a2.66 2.66 0 0 1-.77-1.4c0-1.32-.24-3.22.5-3.84 1.38-1.16 2.57.16 3.42 1.47 1.67 2.57 3.22 5.24 5.11 7.65 3.68 4.68 7.56 9.21 11.36 13.8zM261.74 721.31c-.69-.51-1.89-1-1.94-1.51a4.32 4.32 0 0 1 1.05-2.66c.38-.5 1.28-.6 1.94-.91l22.59-10.56c1.69-.79 3.74-2.91 5.16-.42s-1.46 3.27-3.05 4.11c-6.23 3.31-12.51 6.54-18.86 9.62a55.56 55.56 0 0 1-6.89 2.33zM509.36 508.48c-5-.27-7.14-2.44-6.84-6.94.25-3.81 2.71-6.5 5.92-6.47 3.77 0 7.79 4.66 7.42 8.54-.31 3.18-2.81 5.07-6.5 4.87zM820.39 493c2 0 2.77-.21 3.38.05s1.91 1.13 1.84 1.56A5.42 5.42 0 0 1 824 497c-.31.33-1 .31-1.55.4-7.88 1.26-15.75 2.57-23.65 3.71a11.14 11.14 0 0 1-4.67-.55c-.51-.16-.92-1.48-.88-2.25 0-.48.92-1.23 1.51-1.33 8.96-1.43 17.9-2.81 25.63-3.98zM794.66 222c-.56-1.39-1.49-2.56-1.22-3.29a10.61 10.61 0 0 1 2.62-3.37c5.52-5.46 11.1-10.87 16.64-16.31 1.08-1.06 2.43-2.28 3.61-.83.6.74.35 2.76-.25 3.75a23 23 0 0 1-4 4.42q-7.1 6.71-14.28 13.31a38 38 0 0 1-3.12 2.32zM485.75 428c-3.85.11-5.77-1.38-6-4.65-.25-3.85 3.51-8.11 7.26-8.2 2.77-.08 5.29 3.27 5.36 7.1.1 4.33-1.37 5.62-6.62 5.75zM852.87 494a44.49 44.49 0 0 1-7-.12c-.87-.14-1.51-1.69-2.25-2.6 1-.54 1.89-1.49 2.88-1.56 5-.36 10.13-.3 15.16-.77 2.83-.26 5.57-1.4 8.39-1.88 1-.17 2.2.45 3.3.71-.45 1.07-.62 2.69-1.41 3.1a22.13 22.13 0 0 1-6.6 2.2c-4.11.62-8.29.82-12.43 1.19zM653.14 428.48c0-4 3.43-8.67 6.23-8.48 2.07.15 5.85 5.26 5.85 7.89a7.22 7.22 0 0 1-6.67 6.71c-3.28.11-5.36-2.24-5.41-6.12zM469.17 794.47c-1.53.86-2.44 1.43-3.4 1.87-.22.1-.71-.17-1-.4-6-5.62-13.87-5.68-21.27-7.09-.53-.11-1.2 0-1.59-.26a20.25 20.25 0 0 1-2.18-2.07c.88-.69 1.86-2.06 2.65-2 7.84 1 16 1.05 22.78 6a40.77 40.77 0 0 1 4.01 3.95zM837.79 26c-.58-1.36-1.44-2.37-1.23-3.06a12.89 12.89 0 0 1 2.17-3.7c4.31-5.82 8.69-11.59 13-17.4.93-1.25 2.12-2.58 3.47-1.35.69.62.61 2.66.18 3.8a19 19 0 0 1-2.88 4.58q-5.67 7.29-11.5 14.47a23.53 23.53 0 0 1-3.21 2.66zM548.64 537.56c.81 3.21-1.66 5.37-3.77 7.53-1.54 1.58-3.23 1.15-4.61-.62-3.11-4-2.12-11 2-14 2.8-2 5.25-1.11 6 2.32a38.58 38.58 0 0 1 .38 4.77zM678.71 158.89c0-3.08-.1-6.17 0-9.24.07-1.58.28-3.7 2.52-3.29.85.16 1.87 2 2 3.22.32 4.15.18 8.34.41 12.5.16 2.85.75 5.68.92 8.53.05.89-.57 2.55-1 2.59-1 .1-2.73-.23-3.14-1a11 11 0 0 1-1-4.66c-.15-2.89 0-5.8 0-8.69zM582.23 262a2 2 0 0 1-3.39 1.45 46.21 46.21 0 0 1-4.7-4.48c-3.88-4-7.71-8.08-11.56-12.13a9.34 9.34 0 0 1-1.77-2c-.27-.55-.31-1.68 0-2a3 3 0 0 1 2.33-.64 6.29 6.29 0 0 1 2.72 1.68q7.86 8.19 15.58 16.51a5 5 0 0 1 .79 1.61zM501.69 476.08a13.73 13.73 0 0 1-6 9.27c-2.05 1.36-4.14.44-5.25-1.92-1.95-4.17 3-12.12 7.55-12.2 2.29-.03 3.72 1.65 3.7 4.85zM668.05 485.33a41.81 41.81 0 0 1-4.58.58c-3.63 0-5.37-1.29-5.84-4.23-.51-3.19 1.54-7.2 4.12-8.06 3.38-1.12 7.58 2.52 7.32 6.48a42.76 42.76 0 0 1-1.02 5.23zM488.26 453.37a5.47 5.47 0 0 1-5.57-5.47c.05-2.82 3.67-7.08 5.9-6.93 2.7.18 6.32 4 6.32 6.64 0 3.22-3.05 5.87-6.65 5.76zM800.38 556.51c-6.73-.94-12.8-1.76-18.86-2.66a5 5 0 0 1-2.42-1.08 2.13 2.13 0 0 1-.71-1.84 5 5 0 0 1 1.83-1.65c.23-.15.69 0 1 .08l17.12 2.35c.71.1 1.61 0 2.1.35a16.79 16.79 0 0 1 2.2 2.53c-.82.72-1.7 1.41-2.26 1.92zM541.61 440.26c0-3.35 2.61-6.62 5.26-6.56s5.61 3.31 5.74 6.39a6.14 6.14 0 0 1-5.75 6.09c-2.8-.06-5.24-2.81-5.25-5.92zM349.56 47.17c-1.5.73-2.38 1.54-3.23 1.51-5.9-.2-15.41-9.49-15.87-15.51a3.4 3.4 0 0 1 1.38-2.51c.37-.27 1.58.42 2.29.88a2.82 2.82 0 0 1 .75 1.41c2 5.77 6.22 9.17 11.6 11.52 1.01.44 1.74 1.53 3.08 2.7zM19.67 857.87a7.87 7.87 0 0 1-1.6 1.49c-4.55 2.64-9.13 5.21-13.7 7.78a4.3 4.3 0 0 1-2 .86 3.47 3.47 0 0 1-2.22-1 2 2 0 0 1 .2-2 11.87 11.87 0 0 1 2.9-2.43c4.07-2.36 8.12-4.81 12.36-6.86 2.39-1.13 4.32-.04 4.06 2.16zM562.09 511.52c3.57.37 5.42 2.21 5 5s-3.41 5.38-6 5c-3.22-.49-5.75-2.72-5.56-4.9.25-2.89 3.52-5.42 6.56-5.1zM388.82 765.43c1 .67 2.77 1.36 3.78 2.64a73.83 73.83 0 0 1 5.65 8.65c.41.72 0 1.92-.06 2.91-1.13-.14-2.76.15-3.31-.49a50.94 50.94 0 0 1-4.62-6.69c-.91-1.49-1.78-2.53-3.84-2.32-1 .11-2.07-.83-3.12-1.3a26.19 26.19 0 0 1 2.66-2.89c.49-.4 1.39-.28 2.86-.51zM553.34 456.63c3.09-.15 5.23 1.78 6.21 4.62.83 2.4.69 4.57-1.26 6.4a1.62 1.62 0 0 1-.45.28c-1.93.89-3.47.21-4.81-1.2-1.72-1.81-4-3.61-2.85-6.41.66-1.62 2.37-2.81 3.16-3.69zM455.55 43.78A17.8 17.8 0 0 1 458 46c2.85 4 5.64 8 8.43 12a5.09 5.09 0 0 1 1 1.9c.1.63-.07 1.68-.48 1.91-.67.37-2.13.6-2.39.25C461 57.15 457.39 52.16 454 47c-.29-.42.86-1.83 1.55-3.22zM523.53 524.63c3 0 4.44 1.48 4.29 4.25s-3.08 6.63-5.32 6.76-4.91-3.25-4.89-6.18 2.39-4.88 5.92-4.83zM531.1 369.78c-.26.9-.5 2.08-.93 3.18-.75 1.92-1.81 3.72-4.13 3.79-2.73.08-4.19-1.95-5.34-4a5 5 0 0 1 .56-6.06 3.6 3.6 0 0 1 3.2-.88 57.28 57.28 0 0 1 6.64 3.97zM541.35 415c-.12 3.95-1.22 5.72-3.39 5.94s-4.46-1.91-5-4.84a14.52 14.52 0 0 1-.11-3.23c.08-2.33.66-4.4 3.4-4.8 2.17-.33 4.18 1.44 4.83 4.23a19.35 19.35 0 0 1 .27 2.7zM1211.08 340.08a10.36 10.36 0 0 1-2.62-.5 2.13 2.13 0 0 1-1-1.67 2.1 2.1 0 0 1 1.06-1.61c1.18-.4 2.49-.37 3.71-.65 3.48-.79 6.93-1.72 10.42-2.42a8.47 8.47 0 0 1 2.92.44c-.21 1-.08 2.47-.68 2.87a18.5 18.5 0 0 1-5.75 2.72c-2.42.59-5.01.54-8.06.82zM568.36 492.55c0 2.92-1.23 4.57-3.48 4.49-2.64-.1-5.35-2.79-5.32-5.27 0-2.31 2.22-4.88 4.22-5 2.4-.07 4.53 2.61 4.58 5.78zM922.69 485.77c-.73.89-1.37 2.46-2.2 2.58-4.45.6-9 .91-13.44 1.12-.56 0-1.56-1.07-1.65-1.75s.74-1.89 1.27-1.94c5.12-.57 10.28-.94 15.42-1.37zM881.42 702.7c-1 .25-2.47 1.07-2.95.67-3.46-2.88-6.75-6-10-9.09a2 2 0 0 1 .2-1.92c.63-.43 2-.82 2.37-.48 3.43 2.92 6.72 6 10 9.08.24.2.18.69.38 1.74zM764 672.92a6.75 6.75 0 0 1 1.76.59c3 2.32 6.08 4.58 8.91 7.11.7.61.57 2.15.82 3.26-1.14 0-2.61.41-3.38-.14a112.3 112.3 0 0 1-8.89-7.13 3.12 3.12 0 0 1-.6-2.42c.05-.49.92-.88 1.38-1.27zM160.37 467.64a45.91 45.91 0 0 1 6.43.94c.68.18 1.3 1.55 1.42 2.46.05.36-1.3 1.34-2 1.32a95.89 95.89 0 0 1-10.31-.8c-.77-.11-1.4-1.32-2.1-2 .91-.69 1.73-1.74 2.75-2 1.17-.28 2.51.14 3.78.25zM929.78 872.65c3.56 0 9.37 4.2 10 7.18a3.65 3.65 0 0 1-.93 2.69c-.26.29-1.69-.11-2.32-.57-2.45-1.78-4.85-3.66-7.15-5.63a3 3 0 0 1-1-2.23c.06-.63 1.06-1.09 1.4-1.44zM973.11 303.09l-3.11-1.91c.63-.94 1.07-2.16 1.93-2.75a30.77 30.77 0 0 1 5.69-3c.79-.32 1.87.06 2.82.11-.06 1 .27 2.54-.26 2.94-2.18 1.74-4.67 3.11-7.07 4.61zM166.86 295.12c1.16 1.73 2.34 2.75 2.39 3.83 0 .72-1.89 2.31-2.31 2.12a4.94 4.94 0 0 1-2.55-2.75c-.19-.58 1.23-1.66 2.47-3.2zM395.69 637.94c-.13.95-.27 1.9-.4 2.86l-1.08-.09.35-3zM692.92 517.28c-1.13 2-1.86 4.16-3.28 5.64-1.08 1.13-3.15 2.14-4.55 1.9s-2.94-1.9-3.64-3.32c-1.3-2.65-.42-5.3 1.45-7.47 2.38-2.76 5-2.56 7.52.38.79.92 1.58 1.83 2.5 2.87zM696.92 530.49c7.3 1.74 9.22 4.28 7.67 10.14-.76 2.89-3.3 4-5.85 2.46-3.94-2.31-4.86-8.68-1.82-12.6zM725.9 501.79l7.12-1.2c.14 2.07.35 4.13.4 6.2a4.64 4.64 0 0 1-.47 2.62c-.75 1.06-1.86 2.55-2.87 2.58a4 4 0 0 1-3-2.31c-.75-2.31-.79-4.83-1.18-7.89zM724.06 484.64c0-3.11 1.23-5 3.53-5.15 2.65-.21 5.13 2.64 5 5.81 0 2.21-2.72 4.95-4.83 5s-3.65-2.3-3.7-5.66zM720.13 528.91c.34-3.12 1.92-5.16 4-5.09 2.41.08 4.84 3.6 4.49 6.51-.32 2.65-2.39 4.56-4.68 4.32s-4.13-2.83-3.81-5.74zM706.8 438.25c3.64-.14 7.34 3.8 6.74 6.9-.2 1-1.4 2.6-2.18 2.62-1.69.06-4.21-.19-4.92-1.28-1.18-1.81-1.39-4.35-1.61-6.63-.05-.54 1.49-1.24 1.97-1.61zM723.75 461.27a4.66 4.66 0 0 1-4.69 4.27c-2.31-.21-4.74-3.27-4.55-5.91.14-1.94.84-3.56 3.24-3.42 3.4.21 6.09 2.5 6 5.06zM751.17 898.19c6.69-1.46 13.38-3 20.09-4.38 5.67-1.2 11.34-2.44 17-3.43 4-.7 6.21.92 6.88 5a11.85 11.85 0 0 1-.14 5.34 4.4 4.4 0 0 1-3 2.52c-16.76 2.49-32.69 8.31-49.13 12-7.42 1.69-14.89 3.19-22.35 4.71-3.92.8-5.7-.58-6.29-4.6-.66-4.45 1.23-7.71 4.58-10.4q14.4-11.6 28.77-23.24c1.82-1.47 3.71-2.87 6.41-5a18.19 18.19 0 0 0-3.12-.32l-30.72 4c-.72.1-1.43.25-2.14.38-4.45.77-6 .23-6.76-2.35-1.12-3.92.51-7.68 4-8.84a47.65 47.65 0 0 1 5.81-1.38c13-2.63 26-5.3 39-7.81a79.88 79.88 0 0 1 10.81-1.26 57.15 57.15 0 0 0 16.51-3c4.43-1.58 5.85-.59 6.94 3.91.29 1.24.44 2.51.73 3.74a5.15 5.15 0 0 1-2.42 6.06c-11.83 7.74-22.64 17-35.45 23.29-2.23 1.1-4.3 2.52-6.45 3.79zm-31.72 17.43l71.37-17.35c-.15-3.31-1.87-3.19-4.11-2.73-8.34 1.74-16.79 3-25.05 5.07-9.3 2.3-18.44 5.24-27.69 7.79-1 .28-2.23-.2-3.35-.32a11.45 11.45 0 0 1 .74-3.43 7.21 7.21 0 0 1 2.47-2.07c6.69-4.37 13.12-9.22 20.15-12.94 12.57-6.66 23.83-15.24 35.59-23.09a9.59 9.59 0 0 0 1.3-1.47l-1.22-4.08c-5.08 1-9.64 2.5-14.26 2.71-19 .89-37.14 6.59-55.79 9.34-1.54.22-3.37.49-3.4 3a14.25 14.25 0 0 0 3.64 0c13.06-3.61 26.62-3.36 39.89-5.24a9.19 9.19 0 0 1 3.24-.2 5 5 0 0 1 3 1.7c.33.51-.49 1.93-1 2.78a5.4 5.4 0 0 1-1.77 1.22c-15 9.36-27.9 21.4-41.44 32.63-1.76 1.38-3.24 3.06-2.31 6.68zM768.54 795.46a71.67 71.67 0 0 0-7.24-.63 98.69 98.69 0 0 0-36.58 7.6 15.91 15.91 0 0 0-4.63 2.78c-3.41 3.06-2.82 7.86 1.27 9.85 2.14 1 4.09 1.87 3.18 4.7-1.49 4.61-3.39 8-6 7.48-4.59-1-9.26-1.77-13.62-3.4-1.62-.6-3.17-3.18-3.53-5.09-1.62-8.74.27-16.79 7-22.92 10.25-9.39 22.61-14.43 36.39-15.61a127.9 127.9 0 0 1 20.15-.2 54.11 54.11 0 0 1 15.32 3.29c8.37 3.27 10.49 9.67 4.59 18.41-2.83 4.19-6 7.57-10.8 9.35-1 .37-2 .93-3 1.2a5.34 5.34 0 0 1-6.14-2.42c-1.55-2.31-.86-4.39 1-6.36 3.29-3.63 3.23-3.69 2.64-8.03zm.63 12.13a21.39 21.39 0 0 0 12.54-9.15c3.21-4.81 2.59-8.09-2.52-10.63a18.29 18.29 0 0 0-6.67-2.17c-7.76-.53-15.55-1-23.32-.91a57.46 57.46 0 0 0-36.09 13.19 19.48 19.48 0 0 0-7.51 17.22c.31 5.08 8.5 8.9 13 6.06.21-.13.17-.67.29-1.21-.6-.53-1.29-1.1-1.93-1.73-5.6-5.54-5.08-13.2 1.29-17.77A16.17 16.17 0 0 1 723 798c8.52-2.43 17-5 25.68-6.84 5.09-1.06 10.46-.92 15.7-1 3.43 0 7.09.2 8.83 4s1.06 7.42-1.76 10.59c-.52.66-1.04 1.34-2.28 2.84zM787.28 929.4c-6.28.86-12 1.71-17.71 2.4-3.17.39-4.85 2.15-5.47 5.14-.29 1.42-.61 2.83-.87 4.25-.14.72-.12 1.46-.3 2.16-.82 3.07-6 5-12.26 4.67-2.8-.16-3.8-1.32-4.38-5.21-.16-1.07-.16-2.17-.26-3.26-.08-.89-.19-1.77-.36-3.34a37 37 0 0 0-5.77.42c-4.94 1.14-9.88 2.38-14.73 3.85-5 1.52-5.72 1.29-7.4-3.84-.23-.69-.47-1.37-.65-2.08-1-4.27 0-5.64 4.11-7.22 19.67-7.46 40.27-10.84 60.91-14.08 5-.78 10-1.73 15.07-2.13 4.54-.35 5.55.48 5.95 5.1.56 6.32.62 12.69.81 19 .07 2.53-.14 5.07-.12 7.6 0 3.93-2 6.22-6.6 7.17-3.2.66-5-.34-6.36-4.38a99.58 99.58 0 0 1-2.45-10c-.39-1.74-.66-3.53-1.16-6.22zm10.52-14c-25.67 5-51.64 6.9-76.23 16.79l1.22 3.24c7.68-1.5 14.92-3 22.21-4.32 4.2-.76 5.12.11 5.56 4.38.25 2.44.57 4.87.89 7.58l6.31-1c.81-2.83 1.54-5.25 2.2-7.69 1.12-4.1 3.56-6.51 8-7 5.94-.64 11.84-1.68 17.79-2.31 3.95-.42 5.18.53 6.36 4.32.43 1.38.5 2.86.84 4.26.92 3.79.67 7.94 3.21 11.35a5.47 5.47 0 0 0 1.67-.33c.43-.24 1-.75 1-1.15.17-9.08 1.4-18.12-1.03-28.16zM737.65 860c-6.29-.7-12.64-1.13-18.86-2.22a20.56 20.56 0 0 1-7.8-3.61 8.49 8.49 0 0 1-2.1-12.06c2.12-2.82 4.8-5.72 7.89-7.25 14.29-7.1 29.3-11.75 45.5-11.44 5.27.1 10.55.11 15.8.57a16.63 16.63 0 0 1 7.65 2.28c5.23 3.55 6.08 9.18 2.08 14.18a30 30 0 0 1-8.45 7.47c-12.9 7.15-26.85 10.9-41.71 12.08zm28.86-31.7v-.3a119.79 119.79 0 0 0-12 .09 63.09 63.09 0 0 0-12.26 2.44c-7.44 2.32-14.85 4.81-22 7.78-2.69 1.12-5 3.54-7 5.82s-1.52 4.85 1.15 6.49a20 20 0 0 0 7 2.75c20.11 3.27 39-.51 56.8-10.27a20.9 20.9 0 0 0 4.87-4.26c1.65-1.75 3.17-3.82 1.85-6.34s-3.14-4.41-6.38-4.32c-4.03.16-8.03.07-12.03.07zM403.05 822.63q-1.24 3.47-2.5 6.93-6.58 18.15-13.18 36.29a7.45 7.45 0 0 1-1.51 2.82 2.56 2.56 0 0 1-2.36.42c-.63-.32-1-1.37-1.23-2.17-.12-.43.34-1 .52-1.51 4.67-13.34 9.3-26.69 14-40a71.21 71.21 0 0 1 4.29-10c.75-1.39 2.53-2.22 3.85-3.3.95 1.22 2.28 2.3 2.78 3.67a22.71 22.71 0 0 1 1.25 6.38c.37 6.53.71 13.06.75 19.59.05 10 2.3 19.75 4.22 30.59a13.49 13.49 0 0 0 1.45-2.48q5.86-23.76 11.67-47.56a6.84 6.84 0 0 1 .82-2.55 2.88 2.88 0 0 1 2.24-1 2.55 2.55 0 0 1 1.59 1.87 20.2 20.2 0 0 1-.62 5.36c-2.81 11.08-5.78 22.11-8.57 33.2-1.41 5.62-2.42 11.35-3.85 17-.59 2.35-1 5.25-4.28 5.59-2.23.23-3.45-1.46-4.49-5.9a182.19 182.19 0 0 1-5.27-43.69v-9.19zM501.65 862.37c-6.79 2.13-12.95 4.29-19.25 6-3.14.83-4.31 2.47-4.91 5.51a82.48 82.48 0 0 1-3.44 11.43c-.41 1.16-1.55 2.07-2.36 3.09l-1.32-.34c-.15-1.25-.77-2.67-.38-3.72 4.88-13.45 5.59-27.67 7.85-41.6.72-4.47 1.14-9 1.8-13.47a76.42 76.42 0 0 1 1.64-8.53c.48-1.81.36-4.28 2.88-4.81 2.87-.61 4.26 1.6 5.55 3.53a48.2 48.2 0 0 1 4.07 7.06 275.3 275.3 0 0 1 15.54 45.19 10.05 10.05 0 0 1 .2 1.07c.33 2 1 4.51-1.58 5-2.78.54-2.62-2.17-3.1-4.08-.91-3.7-2.05-7.33-3.19-11.33zm-22.11 2.25l20.73-6.46c-2.37-11.77-10.71-31.34-14.94-34.7-1.91 13.54-3.8 26.97-5.79 41.16zM466 845.26c-1.28 8.77-2 17.67-4 26.28-1.76 7.68-7.15 12.91-14.59 15.8a17.21 17.21 0 0 1-2.56.88c-7.26 1.57-9.46-.26-8.9-7.71q2.12-28.26 4.41-56.51c.53-6.53 2.53-7.8 9-6 9.76 2.82 13.22 10.63 15.14 19.51a63.76 63.76 0 0 1 .77 7.59zm-25.75 38.81a42.36 42.36 0 0 0 5.62-1.28c8-3.08 11.91-9.56 12.93-17.5a149.18 149.18 0 0 0 1.2-23.89c-.15-4.17-1.89-8.48-3.75-12.32-2-4.05-5.5-6.56-11-6.51-1.69 20.43-3.31 40.56-5 61.5zM587.93 837.47c-.2 9.31-4.07 15.89-12.35 19.89-5.43 2.62-10.93 4.67-17.12 4.88-2.89.09-4-.75-4.32-3.38l-6.27-49.64c-.53-4.21 0-4.79 4-6.46 8.26-3.41 16.45-4.35 23.21 2.66a38.09 38.09 0 0 1 8.3 12.58c2.31 6.17 3.11 12.94 4.55 19.47zM552.44 808c2.19 16.59 4.35 33 6.53 49.61a41.23 41.23 0 0 0 16-5.36 13.69 13.69 0 0 0 7.42-12.38 51.24 51.24 0 0 0-3.59-20.73 32.08 32.08 0 0 0-6.57-9.84c-5.61-5.97-12.23-4.98-19.79-1.3zM528.18 850.2l-7.42 3.58c.74 2.38 1.39 4.42 2 6.48a20.32 20.32 0 0 1 1.29 4.7c0 1-1 2-1.56 2.94-.8-.59-2-1-2.33-1.81a83.61 83.61 0 0 1-3-8.74q-4.9-17-9.64-34.05a11.26 11.26 0 0 1-.65-4.82c.3-1.6 1.12-3.77 2.37-4.41a81.53 81.53 0 0 1 13.51-5.68c6.24-1.87 12.11.93 14.91 6.86a23.76 23.76 0 0 1 2.27 8.31c.39 5.61.17 11.26.27 16.89a7 7 0 0 1-3.17 6c-1.13.84-2.38 1.53-4 2.55 1.79 2.32 3.39 4.46 5.08 6.53 1.15 1.4 2.48 2.66 3.66 4s3.37 2.61 1.15 4.41c-1.83 1.49-3.37-.22-4.58-1.6-2.4-2.73-4.73-5.51-7.07-8.29-.93-1.05-1.79-2.21-3.09-3.85zM511 818.47c2.81 10.32 5.49 20.22 8.24 30.32 4.64-1.85 8.81-3.55 13-5.18a4.52 4.52 0 0 0 3.23-5c-.17-4.15.11-8.33-.06-12.48a24 24 0 0 0-1.18-6.9c-2-5.82-6.18-7.88-12-5.84-3.54 1.28-6.89 3.1-11.23 5.08zM602.77 795.59a19.56 19.56 0 0 1 12.4 3.41c3.82 2.7 3.17 11.49-1 13.53a3.74 3.74 0 0 1-2.89-.38c-.35-.19-.24-1.63 0-2.37s1.15-1.43 1.48-2.24c1.08-2.66.17-5.62-2.56-6.14a51.89 51.89 0 0 0-12.86-.89c-3.07.19-4.63 3.31-3.15 6.16a24.58 24.58 0 0 0 6 7.48 41.66 41.66 0 0 0 10.22 6.18c6.85 2.84 12.14 17.22 10 25.36a10.15 10.15 0 0 1-5.2 6.66c-5.38 2.86-10.91 3.75-16.82 2a8.05 8.05 0 0 1-6.16-6.84 19.38 19.38 0 0 1 1.94-12.68c.72-1.37 1.62-2.9 3.19-1.84.84.57 1.19 2.46 1.06 3.69-.17 1.57-1.21 3-1.56 4.61-1.37 6.17.93 9 7.2 9a22 22 0 0 0 4.87-.47c5.7-1.35 7.89-4.49 7.1-10.34-1-7.37-3.74-13.56-11.14-16.82a27.54 27.54 0 0 1-7.89-4.86 31.2 31.2 0 0 1-7-8.81c-3.19-6.71.92-12.87 8.4-13.39 1.3-.09 2.6-.01 4.37-.01zM360 823.12c-3 3.75-5.58 7-8.1 10.26-1 1.27-1.67 3.31-3.67 1.83s-.92-3.21.25-4.73c2.31-3 4.56-6.11 7-9 5.12-6.12 10.33-12.16 15.54-18.2a28.58 28.58 0 0 1 2.78-2.6c1.67-1.47 3.46-3 5.81-1.79 2.13 1.06 2.15 3.27 2 5.26-.58 6.31-.78 12.72-2.05 18.9-2.13 10.28-5 20.42-7.55 30.61a25.19 25.19 0 0 1-1.69 4.58c-.71 1.46-1.71 3.28-3.6 2-.75-.53-1-2.56-.68-3.7 1.7-6.48 3.5-12.94 5.54-19.32 1.09-3.4.75-5.87-2.52-7.83-3-1.82-5.73-3.94-9.06-6.27zm13.64 3.88a64.55 64.55 0 0 0 2.57-22.59c-3.79 4.08-6.78 7.21-9.65 10.44-1.29 1.45-2.34 3.12-3.64 4.88zM316.07 777.2c.44-.5.8-1.31 1.36-1.49 2.71-.9 3.78-2.66 3.14-5.4a6.22 6.22 0 0 0-5.44-4.59 5.74 5.74 0 0 0-6 3.8 9.86 9.86 0 0 0 .76 9.34 28.89 28.89 0 0 1 3.74 8.87c1.32 5.92-2.73 10.71-8.83 11.09-7.43.47-13.24-5.1-13.4-12.58-.08-3.56 1.71-5.83 4.5-7.45.71-.41 1.92 0 2.89.06 0 1 .31 2.29-.19 2.84-2.59 2.8-2.88 5.67-1 8.92 1.56 2.69 4.05 3.59 6.88 3.45 3.28-.16 5.09-2.65 4.25-6a18.2 18.2 0 0 0-2.72-6.39c-3.2-4.3-3-8.86-1.45-13.46 1.95-5.87 9.4-8.86 14.79-6.2s7.35 9.42 4.3 15c-1.96 3.59-4.01 3.69-7.58.19zM348.69 786a50.22 50.22 0 0 0-3.13 4.34c-3.69 6.46-7.27 13-10.94 19.44a29.79 29.79 0 0 1-3.26 5c-.54.61-1.87.53-2.84.76-.23-1.09-1-2.46-.62-3.23 2.38-4.68 5-9.27 7.6-13.81 2.9-5 5.94-9.91 9-15-2.73-1.89-5.25-3.59-7.72-5.36a8.46 8.46 0 0 1-2.8-2.51c-.45-.91 0-2.25 0-3.4 1 .05 2.18-.25 2.91.21 5.21 3.24 10.3 6.69 15.49 10 2.43 1.54 5.07 2.77 7.46 4.38.89.59 2 2 1.84 2.78-.32 1.83-2.13 2-3.51 1.34-2.92-1.44-5.75-3.04-9.48-4.94z"/><path d="M756 832.15a20.33 20.33 0 0 1 11.44 3.08c2.59 1.67 3 3.81.46 5.62a26.2 26.2 0 0 1-8.61 4.42c-7.37 1.8-14.86 3.22-22.37 4.28-3.14.45-6.47-.27-9.68-.69-2-.27-3.89-1.22-4.24-3.58a4.91 4.91 0 0 1 2.73-5.46c3.75-1.78 7.54-3.74 11.54-4.66 6.18-1.43 12.51-2.05 18.73-3.01zm6.52 5.86c-8.4-2.74-27.46.81-32.89 6.12 8.43 1.75 28.08-1.91 32.93-6.13z"/></svg>