<svg data-name="Layer 1" xmlns="http://www.w3.org/2000/svg" viewBox="0 0 997.94 678.8"><path d="M801.37 119c-3.29 2.47-4.46 5.63-3 9.13a84.27 84.27 0 0 1 5.67 25.24c3.81.78 5.31 3.64 5.82 7.31 1.58 11.32 3.42 22.61 4.77 34 1.88 15.87 3.39 31.78 5.1 47.68.39 3.61 1 7.19 1.37 10.81a4 4 0 0 0 3.1 3.94 28.32 28.32 0 0 0 3 1.15c4.36.73 8.12 2.7 12 4.78 11.34 6.05 23 11.47 34.45 17.37 4.66 2.41 9 5.36 13.48 8.2 3.67 2.35 7.3 4.78 10.79 7.39a143 143 0 0 1 11.84 9.53c4.59 4.25 4.84 9.88.54 14.34a29.19 29.19 0 0 1-8 5.55c-3.65 1.83-6.67-.53-9.44-2.58-3.79-2.81-7.31-6-11.14-8.76a71.81 71.81 0 0 0-10.56-6.66c-14.28-6.88-29-12.42-45.53-14.26a58.57 58.57 0 0 0 .35 5.86q5.4 34.18 10.89 68.35a9.59 9.59 0 0 0 .62 1.62c3.23-.35 6.46-1.1 9.65-.93a22.57 22.57 0 0 1 8.82 2.14 9.32 9.32 0 0 0 6.16.95 56.89 56.89 0 0 1 7.57-.83c3.59-.09 7 .83 9.08 4 1.4 2.1 3.05 1.88 5.17 1.76a39.72 39.72 0 0 1 10.23.36c6 1.23 10.71 4.43 12.69 10.68a11 11 0 0 0 1.09 1.91c8.6.07 16.3 1.89 21.13 10.34 9.95 1.06 17.94 5 19.15 16.7 9.11 2.38 15.15 7.27 14.72 17.71 7.94 3.47 14 8.39 12.85 17.55 3.1 3.26 6.1 6.05 8.65 9.21 2.8 3.47 2 7.49.62 11.23 8.77 6.41 9.12 7.84 5.55 19.87 2.56 4.08 5.54 7.43 6.9 11.35 1.62 4.71-2.58 7.91-5.28 11.61a30.17 30.17 0 0 1 2.13 3c.59 1.1 1.46 2.36 1.36 3.47a108.74 108.74 0 0 1-2.08 15.41c-.62 2.63-2.86 4.87-4.56 7.59a35.84 35.84 0 0 1 1.67 3.56c1.84 5.15 1.89 10.11-2.58 14a5.85 5.85 0 0 0-2.13 5.74c0 .36 0 .73.07 1.09.45 8.31.45 8.31-5.35 15.11 4.3 11.15 3.49 13.36-8.6 23.61-.11.33-.36.7-.3 1 1.55 8-1.66 13.38-8.89 16.69-1.48.68-2.79 1.77-4.31 2.32-2.56.91-3.48 2.69-4 5.23-2.21 10.23-5.51 13.14-16.18 14.63-1.78.26-3.6.3-5.48.44-6.27 11.17-15 18-29.32 16.2-.74.69-2.06 1.89-3.34 3.13-4.13 4-9.25 5.56-14.57 4.05-4-1.14-6.34.1-9 2.69-5.1 5-11.29 6.69-18.05 4-2.76-1.09-5.11-3.24-8.15-5.24-6 2.58-12.84 7.52-19.18-.64-8 1.9-15.94 6.55-23.47-.72-3.72 0-7.63.64-11.19-.19-3.38-.78-6.41-3.1-10.28-5.1a26.26 26.26 0 0 1-19.7 3.08c-6.9-1.69-12.64-4.89-14.31-12.84-5.67 1.46-10.88 1.6-15.25-2.24s-3.78-9.15-4.28-14.41c-4.43-1.07-9.41-1.87-11.1-6.68-1.41-4-1.64-8.45-2.49-13.3-3.45-.84-8.5-1.08-10.07-5.79-1.28-3.85-1.25-8.13-1.92-13-6.38-2.33-8.74-7.9-8.26-15.18a4.12 4.12 0 0 0-1.49-3.17c-6.51-4.19-6.79-10.22-5.34-16.86.35-1.58.67-3.17 1-5-3.78-3.29-8.41-5.89-8.63-11.82-.21-5.36 3.06-9.12 5.76-13.11-.83-1.55-1.57-2.8-2.17-4.11-2.49-5.42-1.64-9.67 2.73-13.76 2.37-2.22 4.79-4.38 7.48-6.83-4-4.59-6.65-9.39-6.09-15.39s4.13-9.9 8.72-13.36c-1.59-8.7 1.32-16 6.82-22.35-2.68-10.41-.54-16.14 8.18-22.21 2.53-1.76 5.1-3.44 7.79-5.26-2-12.93 8.53-14.74 16.51-18.63 1.51-10.95 5.86-15.1 17-16.05 3-.26 5.13-.84 6-4.22s3.59-5.42 6.72-6.72c4.88-2 9.85-3.88 15.29-3.27 2.45.28 3.93-.63 5.47-2.57 2.09-2.64 4.77-4.82 7.77-7.76-3.88-27-7.89-54.8-12-83.15-5-.71-10.72.34-16.39 1.32-10.84 1.88-20.86 6.23-30.84 10.65-2.65 1.17-5.28 2.47-8 3.38-4.64 1.52-7.9-.35-8.88-5.15-1.1-5.43.28-10.53 3.09-15.15 3.87-6.37 9.47-10.95 16-14.42 2.33-1.24 4.69-2.46 7.93-4.16l-3.51-.94c-5.74-1.47-9.1-5.23-9.93-11s-1.26-11.55-1.88-17.33c-.1-.84-.27-1.67-.52-3.2a44.28 44.28 0 0 0-3.65 3c-7 7.36-14.23 14.57-20.92 22.22a88.28 88.28 0 0 1-20.94 18 10.48 10.48 0 0 1-4.09 1.24c-8.79 1.07-17.34-.14-25.8-2.63-4.3-1.27-8.75-2-13.15-3-1.22 2.68-.45 4.1 1.47 5.41 3.3 2.24 6.51 4.63 9.67 7.07 2.45 1.89 5 3 8.21 1.38 1.73 3.74 4.94 4.5 8.4 5.31 11.31 2.64 21.81 7.1 29.68 16.05a51.87 51.87 0 0 1 10.94 21.11 13.82 13.82 0 0 1 .52 5.37c-1.29 9.5-5.31 23.47-18.09 31.28.45 2 .88 4.05 1.41 6.12 1.35 5.28 0 9.89-2.78 14.51-4 6.87-9.89 11.21-17 14.52-10.85 5.09-21.46 10.7-32.29 15.82a23.69 23.69 0 0 1-8.9 2.19c-8.89.38-17.81.27-26.71.46-4.29.08-7.93-.89-9.62-4.76-2.46-.2-4.54-.27-6.58-.57a8 8 0 0 0-9 6.7c-.15 1.26-.12 2.54-.24 3.81-1.3 13.77-9.15 23-20.81 29.35a20.19 20.19 0 0 1-8.33 2.3c-8.27.44-16.32-.71-23.65-5-1.1-.65-2.17-1.34-3.31-1.9-8-3.95-15.24-8.67-17.76-17.77-11.78-2.36-23.18-4.23-34.34-7a74 74 0 0 0-24.33-1.62c-16.19 1.33-31.93 5-47.47 9.57a7.35 7.35 0 0 0-1.36.77c1.3 3 3.76 4 6.62 4a98.69 98.69 0 0 0 10.87-.71c8.09-1 16.15-2.27 24.85-3.52.09-.27.48-1.22.74-2.21a4.83 4.83 0 0 1 4.62-3.91c2-.19 4-.53 6-.64 4.68-.25 8.47.76 10.44 5.85 1.29 3.35 3.6 6.29 5.31 9.5a37.1 37.1 0 0 1 2.89 6.44c2.16 7 .57 10.34-6.19 13.38a41.55 41.55 0 0 1-4.55 1.83c-5.21 1.65-7.86.68-11.12-3.91-.42-.59-.89-1.12-1.29-1.62-14.71 1.54-29.5.42-43.91 3.85a13 13 0 0 1-11.2-2.49 6.59 6.59 0 0 0-1.81-1.21c-10-3.43-16.19-11.7-23.33-18.72-5.32-5.23-10.28-10.89-16.08-15.5-3.34-2.65-6.26-6.77-11.44-6.57a4 4 0 0 1-2.55-.86c-3.9-3.38-8.45-2.46-12.94-2.21-8.53.46-17.07.82-25.6 1.27-2.15.11-4.29.4-6.31.59a7.07 7.07 0 0 0-.87 1.74c-1.84 15.51-7.79 29.84-13.23 44.25-5 13.17-14.55 23.4-23.8 33.64-18.32 20.27-41.85 31.09-68.29 35.63-16.88 2.9-33.68 2.05-49.75-5-4.14-1.83-8.58-3-12.81-4.59a81.86 81.86 0 0 1-11.45-5c-7.24-4.18-14.66-8.23-21.21-13.35A72.57 72.57 0 0 1 76.87 482c-12.42-21.45-15.22-44.39-12.9-68.43.71-7.41 1-14.94 2.62-22.14A101.13 101.13 0 0 1 73.93 371c4.05-8.52 9-16.59 13.51-24.91 5.4-10 12.63-18.74 20.53-26.73 4.9-5 11-9 17-12.54a150.26 150.26 0 0 1 34.38-15c6.23-1.77 12.93-3.13 19.31-2.77 10.38.59 20.66 2.78 31 4.25s19.86 5.76 29.52 9.41c6 2.29 11.34 5.78 14.18 12.65l32.57-31.56c-2.53-9.55-6.69-12.73-16.31-12a10.51 10.51 0 0 1-9.21-3.57c-2.71-2.93-5.68-5.63-8.61-8.35-3.34-3.11-7.18-4.11-11.57-2.42-1.18.46-2.42.79-3.62 1.19-3.45 1.13-6.56.65-8.83-2.34-4.91-6.48-11.14-5.48-16.87-1.86-4.72 3-5.4 2.71-8.92-1.75a39.58 39.58 0 0 0-4.25-4.95c-3.51-3.17-7-3.08-10.66 0-5 4.18-5 4.27-10.36 1-5.18-3.19-10.92-3.92-16.75-3.86a7.67 7.67 0 0 0-5.1 2.5c-2.53 3-5.34 3.19-8.81 2.42a43.2 43.2 0 0 0-18.93.3c-3.82.86-4.51 1.78-4.87 5.4-.42 4.18-.77 4.35-5 4.51-6.16.23-12.33.51-18.45 1.12a31.14 31.14 0 0 0-8.39 2.21c-4.32 1.71-4.77 3.26-2.83 7.43 1.69 3.63 1.33 4.64-2.31 6.29-3.13 1.43-6.32 2.76-9.41 4.29-2.13 1.05-3.12 2.51-2.35 5.28 1.13 4 .58 4.89-3.21 6.95-4.64 2.53-9.34 4.92-12.57 9.39 1.45 5.25-.48 9.52-3.35 13.68-5.39-3.25-7.57-3-11.12 1.33a45.93 45.93 0 0 0-4.12 6.4 4.85 4.85 0 0 0-.18 5.1c1.69 3.29 1.23 3.61-1.84 5.4A74.34 74.34 0 0 0 26.34 342c-3.5 3-3.23 4.38 0 7.48 3.89 3.73 3.85 4.38-.3 8.06a42.3 42.3 0 0 0-4.32 4.14c-5.48 6.54-5.54 10.77 0 17.71a49.8 49.8 0 0 1-3.8 4.08c-1.91 1.67-4.32 2.86-6 4.74a33 33 0 0 0-5.71 8.42c-2 4.74-.27 8 4.42 10 4.44 1.92 5 3.26 1.72 6.44-6.48 6.33-6.81 14.59-7.55 22.7-.29 3.1 1.55 4.6 5 5.27 4.8.92 5.34 2.24 2.65 6.48a32.81 32.81 0 0 0-2 3.24c-2.77 5.72-1.76 9.5 3.43 13.17l.45.29c6.1 4.15 6.11 4.16 2.16 10.06a14 14 0 0 0-2.53 9.8 8.53 8.53 0 0 0 10 7.53c.72-.11 1.43-.33 2.15-.37 3.57-.2 5 1.51 4.09 5.09-.25 1.05-.85 2-1.07 3.08a64 64 0 0 0-1.79 9.6c-.38 7 1.82 9 9 9 5.49 0 6.27 1 5.24 6.5 0 .18-.07.35-.11.53-1.92 10.44 2.26 15.08 13 14.24 2-.16 3.89-.86 5.86-1.15 3.07-.46 4.35.61 4.63 3.75.07.9-.15 1.83-.07 2.72.69 7.74 5.88 12.12 13.64 11.5 2.36-.19 4.69-.7 7-.86 4.07-.27 5.45.78 5.72 4.7.2 2.94 0 5.89 2.9 7.76a14.44 14.44 0 0 0 10.37 2.41c2.14-.35 4.23-1 6.36-1.46 3.62-.7 5.32-.12 6.29 3.4 1.11 4 4 5.27 7.29 5.17a75 75 0 0 0 13.47-1.7c6-1.29 6.06-1.51 9.64 3.82a7.35 7.35 0 0 0 6.36 3.46 86.82 86.82 0 0 0 12.33-1.39c1.83-.32 3.38-1 5 .46 7.57 6.9 15.87 5.84 24.34 2a29.93 29.93 0 0 0 4.69-2.77c2.32-1.59 4.63-2 7.13-.46 7.73 4.6 14.7 2.5 21.1-2.71a43.21 43.21 0 0 0 7.62-7.73c2.41-3.29 5.25-4.2 9-3.38a22.07 22.07 0 0 0 2.68.46c5.56.55 8.95-1.5 11.1-6.72a13.34 13.34 0 0 0 1.18-3.62c.49-4.72 2.92-7.12 7.75-7.42 4.22-.26 7.42-2.69 10.2-5.73a12 12 0 0 0 3.53-9.4c-.11-1.27-.17-2.54-.2-3.81-.12-4.78 1.13-6.24 5.81-6.61 1.81-.15 3.64 0 5.45-.18 5.42-.36 7-1.68 8.41-6.8a15.59 15.59 0 0 0 .74-3.18c.21-3.71 2.05-6.31 4.78-8.78 2.36-2.14 4-4.86 7.35-6 2.37-.81 2.41-3.47 2-5.69-.47-2.5-1.3-4.92-1.82-7.41-.92-4.35.06-5.71 4.33-6.28 7.94-1.07 9.09-2 9.94-10.07.46-4.37 1.55-7.73 6.48-8.7 2.5-.48 3.46-2.48 3.3-4.95-.19-2.9-.38-5.8-.67-8.69-.27-2.66.41-4.8 3.18-5.54 3.46-.91 4.36-3.6 4.84-6.55.51-3.22.79-6.49 1.18-9.73.19-1.56.74-3.15 2.58-2.69a3.41 3.41 0 0 1 1.9 2.71c-.56 5-1 10.16-2.42 15-.74 2.45-3.52 4.29-6.29 6 .1 1.94.17 3.9.32 5.84.7 8.75-.46 10.69-9 14.32-.87 8.73-2.38 17.55-14.7 18.06.49 2.35 1 4.4 1.34 6.46 1.26 6.77-.2 9.1-5.71 13.23-3.89 2.91-7.78 5.94-8.61 11.78-1.35 9.44-5.06 12.07-14.79 12.43-1.27 0-2.54.12-3.8.26-.31 0-.59.38-.89.58-.85 16.7-4.75 21.55-20.92 25.77-.64 2.08-1.24 4.35-2.05 6.54-2.82 7.58-7.95 11.16-15.95 10.15-4.49-.56-7.19.69-10.17 4a49.91 49.91 0 0 1-11.82 9.45c-5.55 3.3-11.78 4-17.73.84-2.81-1.48-4.85-1.24-7.46.41-7.2 4.56-15 6.3-23.46 4-1.39-.38-3-.66-4-1.53-3.44-2.88-7.08-2.93-11.1-1.65a13.72 13.72 0 0 1-4.85.58c-6.2-.35-12-1.53-14.89-8.41-2.29.53-4.35 1.16-6.45 1.46a64.89 64.89 0 0 1-10.26 1c-5.93-.11-11.27-1.64-13-8.63-2 .43-3.73.76-5.46 1.19a19.51 19.51 0 0 1-12.27-1.16c-4.55-1.83-7.51-5-8.26-10-.15-1-.34-2.07-.56-3.41-6.21.84-12.14 1.79-17.77-1.32-5.78-3.18-7.12-8.82-8.49-14.76-1.16 0-2.36.06-3.56 0-3.41-.2-7 0-10.21-.77-6.63-1.69-10.16-7-9.84-13.87.09-2 .44-3.9.71-6.17-1.78-.2-3.37-.3-4.94-.59-5.32-1-8.66-4.07-8.89-9.5-.21-5.2.56-10.44.92-16-6.18-.14-11.55-2.94-14-9.64-2.3-6.4 0-12.11 3.76-17.57-3.76-3.09-8-5.6-9.09-10.63-1-4.72.67-8.93 2.89-13.25-7.24-3.09-8.22-8.68-7-15.46s2.09-13.7 7.09-19.35c-1-.83-1.77-1.5-2.55-2.19-4.1-3.69-5.06-8.27-3.58-13.41a22.47 22.47 0 0 1 7.89-11.51c1.83-1.45 3.65-2.93 5.46-4.39-5.1-11.22.42-19 8.3-26.2-.51-.63-.92-1.16-1.34-1.66-3.74-4.51-4-7.78.11-12 3.37-3.47 7.44-6.26 11.74-9.8-.68-5 2.1-9.6 5.46-14 3.59-4.71 8.06-7.28 14.28-6-2.77-8.88 2.58-13.17 8.46-17.12 2.11-1.41 4.4-2.55 6.56-3.78.16-.4.47-.78.4-1.06-1.65-5.88 1.27-9.33 6.19-11.73 2.44-1.19 4.9-2.34 7.58-3.61-.14-.73-.25-1.4-.4-2.06-1.22-5.58-.1-8.95 5.18-11a79.54 79.54 0 0 1 15.75-4c4.44-.76 9-.71 13.92-1 1.22-7.64 7.05-9.69 13.81-10a128.51 128.51 0 0 1 16.3.41c2.08.17 3.47-.14 4.78-1.63 2.49-2.83 5.72-3.59 9.36-3.43 7.18.31 14.11 1.45 20.31 6.15 4.06-3.66 8-7.1 14.05-5.14 5.3 1.7 7.89 6.15 11.46 9.91 1.84-.92 3.56-1.89 5.37-2.66 6.68-2.88 12.42-1.95 17.38 3.32 2.35 2.49 4.45 3.09 7.61 1.8 7.14-2.92 13.51-1.49 18.95 4 2.55 2.59 5 5.28 7.79 7.63 1.25 1.07 3.21 2.12 4.71 1.95 9.59-1.1 16.16 2.81 20.23 11.36a12.45 12.45 0 0 0 1.34 1.71l12-10.91c-1.29-4.33-2.38-8.35-3.69-12.3-2.13-6.39-.69-11.82 4.21-16.34 3.74-3.44 7.5-6.86 11.39-10.13 5.84-4.91 11.84-9.64 17.69-14.55 2.07-1.73 3.9-3.75 6.31-6.1l-14.31-6.15c-8.2 4.68-17 4.33-25.76 1.88a24.87 24.87 0 0 1-8.68-4.3c-14-11.26-29.36-12.21-45.73-6.77-2.58.85-5.08 2-7.65 2.89a26.83 26.83 0 0 1-4.68 1.42c-4 .65-7.76-.14-10.45-3.29s-2.44-7.12-.93-10.82c.94-2.3 2.31-4.43 3.69-7-4.27-1.36-8.24-2.54-12.14-3.89a93.61 93.61 0 0 1-9.63-3.75c-3.33-1.59-4-3-3.38-6.57a91.86 91.86 0 0 1 2.19-9.56c1.44-5.16 3.48-6.94 8.91-7.11 6.9-.22 13.84-.38 20.72.07 23.57 1.55 47.13 3.33 70.68 5.16 4.86.38 9.67 1.34 14.45 2 2.07-2.65 3.91-5.34 6.1-7.73 7.84-8.58 17.9-12.65 29.22-14.08 2-.25 3.92-.83 5.89-1a34.36 34.36 0 0 1 20.52 4.13 9.83 9.83 0 0 1 1 .5c22.95 16.42 50.05 21.83 76.55 28.74a265.41 265.41 0 0 0 28.19 6.18c11.48 1.69 23.13 2.24 34.69 3.43a77.92 77.92 0 0 0 24.66-1.37c23.32-5 47.1-6.81 70.82-8.91 9.4-.83 18.75-2.19 28.48-3.35-.31-7 4.19-8.49 9.81-8.93 6.71-.53 13.41-1.16 20.07-2.05 6.48-.87 10.9 1.55 13.24 7.19 8 1.67 15.56 3.29 23.18 4.86a21.48 21.48 0 0 1 13.67 9.17 46.16 46.16 0 0 0 9.24 9.86v-4.48c0-6.26 2.27-9.65 8.43-10.89A128.19 128.19 0 0 1 757.2 163c7.77-.46 15.57-.43 23.88-.62a39 39 0 0 0 0-5c-1.73-12.82-4.07-25.48-9.78-37.27a62.38 62.38 0 0 1-2.46-7.3c-2.56-1.92-5.54-4-8.26-6.34-.64-.56-.42-2.12-.6-3.22 1 0 2.18-.39 3 0a24.67 24.67 0 0 1 3.94 2.88c3.13 2.49 6.56 2.78 10.28 1.59a16.91 16.91 0 0 0 10-8 30.36 30.36 0 0 0 1.73-26.21 10.31 10.31 0 0 0-4.1-4.82c-5.47-3.23-8.32-2.06-12 4.38 6.53 3.47 6.53 3.47 5.23 7l-7.37-2.34c-.63.3-1.07.36-1.25.62-1 1.4-1.42 3.79-3.73 3.3-2.81-.59-1.21-3.27-1.55-5l-13.31-3.81c2.8 8.43 1.12 16.42-.29 25.07 6.37-1.19 12.37-2.24 18.37-3.31 1.07-.19 2.15-.79 3.17-.67 1.26.14 3.13.5 3.54 1.34.81 1.68-.79 2.55-2.27 3a53.44 53.44 0 0 1-5.84 1.3c-8.27 1.25-16.47 2.63-24.32 5.72a10.14 10.14 0 0 1-12.94-5.1 23 23 0 0 1-2.2-9.4 49.79 49.79 0 0 1 3.59-18.08 8.54 8.54 0 0 1 7.7-5.92 29.8 29.8 0 0 1 13.93 1.63c4.23 1.55 8.6 2.74 12.84 4.07 4-3.75 6.51-7.43 3.58-13-1.46.4-2.94.92-4.47 1.19a30.69 30.69 0 0 1-7 .91c-5.16-.28-8-3.2-7.14-8.15.75-4.06-1-6.2-3.66-8.26-7.77-6-15.5-12-23.41-17.81-4.64-3.41-5.21-4.83-2.66-10a15.71 15.71 0 0 1 18.47-7.79c2.09.58 4.15 1.34 6.28 1.77 4.8 1 9 2.89 11.85 7.07a14.18 14.18 0 0 0 2 1.9c2.36-2.05 4.48-4 6.73-5.82C777.55 5.72 790.23 1.76 803.93.36c.54-.06 1.09-.1 1.63-.15 23.18-2 40.59 10.8 45.46 33.64 1.17 5.51 2.39 10.87 5.15 15.95 6.35 11.69 2.74 32.57-7 41.6-12.77 11.81-27 21.41-42.18 29.82a6.7 6.7 0 0 1-3.06 1c-2 0-3.7-.61-2.5-3.25a74.79 74.79 0 0 1 4.26-8c.92-1.33 2.6-1.17 3.49.58a25 25 0 0 1 .94 2.44 260.19 260.19 0 0 0 32-22.55c9.79-8 12.91-18.48 12.16-30.56a24.71 24.71 0 0 0-1.06-3.8 49.85 49.85 0 0 1-1.52 5.48c-2.28 5.31-3.79 11.24-7.19 15.73-10.74 14.17-23.17 26.52-41.12 31.43-2.46 5.78-2.46 5.78-2.02 9.28zM770.3 38.37c-.45-2.26-1.4-4.09-3.92-4.55-7.29 4.58-8.9 12.29-10.68 19.82a3.83 3.83 0 0 0 2 3.17c2.9.74 5.91.72 8.62-2.57-2-.71-3.67-1-4.89-1.85-1-.7-2.15-2.22-2-3.24.55-5.17 5.78-10.12 11.12-11 0 2.25-.4 4.15-2.46 5.65-1.17.84-1.73 2.51-2.77 4.12 5.21 3.95 9.48 8.07 10.12 14.2h8c2.48-6.16 1.76-11.4-2.85-16-4.14 2.52-5.24 2.29-5.13-1.82s-2.82-4.49-5.16-5.93zM334.12 329.63a50.07 50.07 0 0 0-3.89-5.76c-9.57-10.64-17.56-22.24-22.23-35.91-.15-.43-.63-.75-1.09-1.27-12.77 15-25.44 29.94-37.85 44.55 2.64 3.65 5.12 7.16 7.7 10.6.63.86 1.5 2.08 2.34 2.15 3.77.3 4.8 3.31 6.3 5.87 2.11 3.61 4 7.36 6.26 10.86a31.26 31.26 0 0 1 4.9 18.67c-.14 3.93-.38 7.86-.57 11.83a7.5 7.5 0 0 0 1.79.44c11.25-.54 22.5-1.15 33.75-1.65a12.57 12.57 0 0 0 7.84-3.13c4.05-3.32 8.29-6.6 14.16-5.9.89.11 2.06-.69 2.84-1.37 2.73-2.38 5.33-4.9 8-7.35 8.16-7.45 11-18 16-27.17-.26-.3-.36-.51-.5-.55a8.66 8.66 0 0 0-1.59-.34c-15.57-1.43-30.42-5-43.31-14.44a3.16 3.16 0 0 0-1-.32zm517.81 91.94l3 .17c11.89.8 23.38 2.95 33.89 9.08 7 4.11 14.24 8 21.48 11.78a66.92 66.92 0 0 1 18.21 13.66c3.59 3.84 7.58 7.33 11 11.29a45.48 45.48 0 0 1 7.09 10.14c2.06 4.4 3.18 9.25 4.56 13.95a71.92 71.92 0 0 1 3.09 24.21c-1.33 24.41-9.12 46.93-20.52 68.31-1.67 3.13-4.26 5.85-6.74 8.46-3 3.17-6.28 6-9.49 9-9.92 9.14-21 16.16-34.52 18.64-8.57 1.57-17.23 2.85-25.64 5.06-11 2.88-21.62 2.65-32.76.32-12.76-2.68-24.83-6-35.81-13.54-9.48-6.5-18.71-13.17-26.79-21.34a28.12 28.12 0 0 1-5.48-7.38c-4-8.34-7.66-16.85-11.34-25.34a26.47 26.47 0 0 1-1.36-5.25c-2.68-13-1.13-26.06-.78-39.1a9.18 9.18 0 0 1 .4-2.14c5.37-19.55 12.51-38.32 25.51-54.28 5.76-7 11.57-14.11 19.43-18.95 6.95-4.27 14.09-8.26 21.29-12.1 4.09-2.19 8.47-3.85 12.64-5.71-.08-8.3-2.7-16.42.23-24.5a1.45 1.45 0 0 0-.1-1.06c-1.64-3-1.14-6.29-1.47-9.48a86.75 86.75 0 0 0-1.73-8.57h-13.37c-.77 2.09-.9 4.37-2 5.11-2.68 1.73-3-2.28-5.4-3-1.34 1.52-3 2.95-4.07 4.75-1.88 3.3-4.56 4-8.14 4.24a68.64 68.64 0 0 0-12.74 2.27 7.9 7.9 0 0 0-6.22 6.24c-.74 3.76-3.3 4.89-6.62 5.29a48.23 48.23 0 0 0-7.52 1.15c-5.29 1.53-7 3.77-7.11 9.31a5.92 5.92 0 0 1-4 5.87c-3 1.29-6.05 2.49-9 4-3.15 1.61-5.23 4.09-4.37 7.91.79 3.48-.89 5.44-3.58 7.14a100.61 100.61 0 0 0-9 6.18c-4 3.21-6.08 8.39-4.07 12 2.19 3.93.74 6.27-1.72 9.11-4 4.61-6.06 9.91-3.95 16.08a3.61 3.61 0 0 1-1.24 4.35c-1 .81-2 1.55-3 2.38-6.43 5.47-6.89 12.13-1.29 18.5 3.48 4 3.55 5.2-.13 9.19a90.07 90.07 0 0 1-6.79 6.3c-2.15 1.9-3.34 4.49-1.73 6.78 4.12 5.84 2.56 10.48-1.45 15.64-2.84 3.67-1.76 7 1.89 10a15.86 15.86 0 0 0 2.71 1.82c2.75 1.41 3.26 3.64 2.61 6.43s-1.25 5.3-1.65 8 0 5.44 2.38 6.85c4.55 2.72 5.71 6.43 5.21 11.48a6.69 6.69 0 0 0 4.65 7.25c5.24 1.9 5.23 1.93 4.42 7.18-1.4 9-.42 10.4 8.6 11.54 2.77.35 3.78 1.79 3.67 4.35-.08 2-.3 4-.27 6 .12 6.8 1.14 8 7.82 9.55 3.77.86 4.77 2.09 4.86 6 0 .91-.09 1.82-.07 2.72.22 8 4.75 11.13 12.36 8.65 5.15-1.68 5.42-1.65 7.13 3.86 1.21 3.89 3.29 6.79 7.24 8.05a39 39 0 0 0 5.8 1.43c4.88.73 9.34-.56 13.57-3 2.76-1.59 5.31-1.8 7.87.77 4.22 4.24 9.24 5.59 14.93 3.05 2.07-.93 4.25-1 5.2 1.19 1.69 3.82 4.7 3.61 7.77 3a53.41 53.41 0 0 0 8.83-2.57c4.24-1.65 4.67-1.87 7.3 1.69 1.9 2.57 4.09 2.88 6.65 1.83a70.66 70.66 0 0 0 6.75-3.49c3.22-1.77 4.07-1.61 6.31 1.41 4.42 6 11 7 17 2.47a62.63 62.63 0 0 0 4.83-4.4c1.71-1.61 3.61-2.53 5.93-1.53 7.19 3.09 12.7.74 17.12-5.21 1.66-2.23 3.77-2.76 6.22-1.48 2.87 1.51 5.59.89 8.38-.29 5.5-2.33 10.26-5.43 12.77-11.19 1.36-3.14 3.7-4.64 7.3-4.53 2.32.07 4.66-.63 7-1.05 4.22-.76 6.73-3.33 7.69-7.46.28-1.24.58-2.48.74-3.73a8.11 8.11 0 0 1 5.33-6.93 62.88 62.88 0 0 0 8.55-4.77c2.75-1.7 4.23-4.49 3.2-7.47-1.67-4.89.46-7.55 4.33-9.74a12.7 12.7 0 0 0 2.1-1.73c5.44-4.87 5.9-7.19 2.2-13.55-1.47-2.52-1.38-4.58 1-6.1 4.81-3 5.38-7.5 4.41-12.42a8.66 8.66 0 0 1 3.18-9.14c3.17-2.7 3.43-5.47 1.65-9.3-.45-1-1.13-1.87-1.63-2.83-2-3.7-1.86-4.56 1.6-7.25s4.39-6 3.73-10.09c-.2-1.22-.6-2.78-.07-3.68 2.21-3.71.51-5.68-2.65-7.34-.56-.29-.85-1.08-1.55-2 1.69-2.35 3.26-4.72 5-6.94 3.07-3.88 3-6.64-.61-9.95a30.08 30.08 0 0 0-2.62-1.94c-3-2.26-3.17-2.7-1.82-6.36.7-1.87 1.58-3.68 2.16-5.59a5.89 5.89 0 0 0-2.83-7.44 34.11 34.11 0 0 0-3.5-1.5c-3.51-1.58-3.72-2.29-1.7-5.68 2.49-4.18 2.64-5.61-.51-9.25a17.92 17.92 0 0 0-6.14-4.07c-3.44-1.58-4-2-2.73-5.7a7.44 7.44 0 0 0-.81-7.22 12.57 12.57 0 0 0-7.87-5.42c-4.95-1-5-1.08-4-5.77.8-3.59-.14-6.62-3-8.74a18.4 18.4 0 0 0-6.27-3c-3.41-.89-5.39-2.34-5.39-6.27 0-4.2-2.52-7.22-6.29-8.8a21.82 21.82 0 0 0-7.33-1.65c-2.94-.12-4.67-1-5.64-4a8.66 8.66 0 0 0-3.43-3.94 17.37 17.37 0 0 0-10.77-2.76c-4.81.24-5.1.1-6.72-4.54a12.07 12.07 0 0 0-10.29-8.56 49.22 49.22 0 0 0-9.16.07c-2.56.11-5.42.63-6.94-1.94-2.52-4.28-6.26-4.44-10.41-3.78a41.83 41.83 0 0 1-5.89 1 9.18 9.18 0 0 1-5-1c-5.64-3.78-11.17-4-17.35 0 .85 4.53.09 9.37 3.68 13.63 1.5 1.78 1.94 4.33 4.6 5.45 1.08.46 2 2.15 2.31 3.45a72.12 72.12 0 0 1 1.35 8c.77 5.12 1.47 10.31 2.24 15.79zm-342.94 5.83v-7.35c.23-16.77 9.27-29.66 24.15-36.35 9.12-4.09 17.81-2.37 25.56 1.56 10.87 5.51 20.83 12.84 24.65 25.59.09.3.46.53.35.4l14.8-2.91c-1.68-8-2.52-16.45-5.36-24.2-3.15-8.59-.74-15.11 4.27-21.6.66-.86 1.27-1.78 1.86-2.69 3-4.74 6.71-9.21 8.9-14.31a11.51 11.51 0 0 1 7-6.87c2.71-1 5.56-1.65 8.34-2.5a71.09 71.09 0 0 0 7.23-2.38c2.59-1.1 5-2.54 8.13-4.15a6.72 6.72 0 0 0 .4-1.85c.58-14.87 1.3-29.75 1.56-44.63.07-3.86-1.19-7.79-2.19-11.6a4.7 4.7 0 0 0-2.74-3c-4.66-1.08-7.91-5.2-12.84-5.63a51.13 51.13 0 0 1-8.42-1.45c-2.7-.7-5.25-2-8-2.69q-24.6-6-49.27-11.78c-7.5-1.76-15.07-3.29-22.51-4.91a29.56 29.56 0 0 1-1.65 4.65c-3.15 5.75-6.61 11.3-11.67 15.64a99.16 99.16 0 0 0-18 21.08c-5.2 7.89-10.62 15.66-16.5 23a85.39 85.39 0 0 1-13 13.05c-10.11 8.21-21.72 13.93-33.94 18.24-7.85 2.76-15.71 5.5-24.33 5.42-9.58-.09-19.16.62-28.24 1-1.53 2.51-2.25 4.87-3.85 6-2.31 1.65-3.25 3.86-4 6.23a41.91 41.91 0 0 1-8.7 15c-3.8 4.28-7.71 8.48-11.63 12.78 4.13 4.5 4.88 10.27 5.47 14.92 2.74 1.56 5 2.33 6.63 3.85 7.88 7.52 15.68 15.13 23.26 22.95 2.46 2.54 4.51 3.28 8 2.22 13.92-4.19 27.93-8.19 42.48-9.49 7.57-.68 15.26-1.3 22.79-.69 6.81.55 13.54 2.61 20.21 4.37s13.87-.05 20.8 5.08zM107.25 349c-6.11 9.92-11.68 18.82-14.39 29.16-1.33 5.08-2.16 10.35-4 15.26-2.59 7.05-2.43 14.25-2.47 21.51 0 4.52.37 9.09-.17 13.55a84 84 0 0 0 3.71 36.58c5.48 16.47 18.53 26.91 33.57 34.72 4.49 2.33 9.58 3.53 14 6a56 56 0 0 0 16.68 6.41c3.56.67 7.08 1.64 10.59 2.57a39.4 39.4 0 0 0 15.67.8c9.5-1.29 18.07-5.31 26.85-8.79 19.95-7.92 35.27-21.29 46.65-39.35 1.84-2.92 3.8-5.77 5.53-8.76a120.21 120.21 0 0 0 5.88-11c3-6.8 5.82-13.7 8.55-20.63 1.15-2.93 1.87-6 3-9.64l-53 4.31a29.5 29.5 0 0 1-11.97 16.76 53.34 53.34 0 0 1-26.23 9.88c-17.66 1.49-31.32-6.61-38.43-22.71-3.78-8.55-2.54-17.42-1.53-26.31a28.72 28.72 0 0 1 14.09-22.21 140.2 140.2 0 0 1 22-10.67c4.07-1.59 8.86-1.64 13.34-1.8 3.63-.12 6.94 1.23 8.19 5.52l37.1-40.56c-4.73-6.13-7.25-8.2-13.89-10.47-5.14-1.77-10.39-3.29-15.66-4.63-10.25-2.61-20.61-4.56-31.27-3.06a166.28 166.28 0 0 0-41.24 11.9c-7.89 3.32-15.32 7.5-21.28 14.35.76 1.95 1.51 4 2.34 5.94a50.17 50.17 0 0 1 2.55 6c1 3.61.08 5.26-3 6.64s-4.94 1-7.17-1.64c-1.33-1.63-2.66-3.32-4.59-5.63zm413.4-117.06c12.59 4 24.36 8 36.72 10.52 21.16 4.29 42.11 9.63 63.11 14.66 6 1.44 11.9 3.24 17.79 5.06 11.08 3.44 22.11 7.08 33.19 10.51a19.53 19.53 0 0 0 16.79-2.18 68.43 68.43 0 0 0 11.84-9.51c8.14-8.3 16-16.89 23.77-25.52 5.58-6.19 11.05-12.5 16.23-19 3.88-4.9 3.67-7.42.22-12.85a42.1 42.1 0 0 0-2.47-3.58c-7.1-9.2-14.25-18.36-21.33-27.57a16 16 0 0 0-8.45-5.58c-20.94-6.42-41.9-5-62.89-.4a9.62 9.62 0 0 1-2.08.05 74.93 74.93 0 0 0-8.07 0c-8.13.84-16.22 2.14-24.36 2.79-21.75 1.72-43.42 3.93-64.88 7.87a105.22 105.22 0 0 0-11.06 2.79c-4.55 1.36-7.36 4.67-8.68 9.07-4.17 13.81-5.05 28.08-5.39 42.82zm386.6 355.68a14.5 14.5 0 0 0 2-1.93q9.32-14.07 18.55-28.19a16.31 16.31 0 0 0 1.19-2.45 95.08 95.08 0 0 0 8.22-49.91 27.55 27.55 0 0 0-4-12.29c-2.92-4.59-6.29-9-8.47-13.91-2.33-5.22-5.42-9.34-10.33-12.17q-3.77-2.16-7.47-4.45c-3.7-2.28-7.77-4.17-11-7-11.63-10.24-25.7-12.54-41.24-13.59 2.43 14.54 4.76 28.55 7.12 42.66 1.51.07 2.39.13 3.28.15 10.69.29 19.78 4.14 27 12.15a17.59 17.59 0 0 1 4.79 9.57c2.25 16.7-1.39 31.84-12.1 44.94s-24.54 19.14-41.28 17.55c-11.65-1.1-21.29-6.93-29.43-15.2-10.83-11-13.45-31.07-5.82-44.5 6-10.54 13.85-19 26.17-22.46-3.3-15.73-6.57-31.28-10-47.54-4.16 1.86-8.23 3.06-11.61 5.3-15.27 10.07-27.83 22.64-35.44 39.67-1.76 3.92-4.55 7.38-6.67 11.16a77.22 77.22 0 0 0-5 10.19c-1.66 4.41-2.74 9-4.14 13.53-4.87 15.74-2.47 31.08 3.71 45.74 3.49 8.26 8.11 16.31 15 22.46 6.08 5.42 12.34 10.71 20.19 13.5 7.34 2.61 14.64 5.37 22.1 7.6 7.7 2.3 15.79 3.63 23.68 2 13.5-2.76 26.86-6.22 40.19-9.7 3.4-.89 6.49-2.93 10.21-4.67-1.6-2.23-2.72-3.84-3.9-5.41-2.72-3.61-2.51-6 .85-8.86s4.94-2.62 8.21.87c1.73 1.73 3.58 3.35 5.44 5.14zm-592.8-309.54c-3 4.92-3.08 4.94-1.27 10 5.61 15.6 15.66 28.16 27.4 39.48a23.14 23.14 0 0 0 7 4.17 95.67 95.67 0 0 0 52.75 6.95c4.26-.62 8.67-.21 13-.43s8.76-.12 12.92-1.11a118.14 118.14 0 0 0 28.44-10.81c11.13-5.92 21.74-12.53 29.21-23.11 4.92-7 10.13-13.76 14.79-20.91a110 110 0 0 1 20.52-23.88c5.6-4.79 9.25-11 12.07-17.73-4.74-2.6-5.95-2.95-10.81-3.22-4.33-.24-5.31-1.68-5-6 .3-3.86.06-7.76.06-11.79a62.68 62.68 0 0 1-6.4 1c-13.43.56-26.85 1.24-40.29 1.47-26.22.45-52.22-2.46-78.2-5.57-13.7-1.64-27.46-2.84-41.11-4.83-4.18-.61-6.78.42-9.62 3.1-5.28 5-10.79 9.73-16.32 14.43-4.43 3.76-9.22 7.11-13.52 11-8.63 7.79-8.87 9.18-5.28 20.39.49 1.54 1.1 3 1.66 4.58a16.46 16.46 0 0 1 1.8-.11c3.3.16 4.32 1.64 2.16 3.76-2.83 2.8-1.54 5.17-.44 7.74zM516.24 215c1.18-8.05 2.2-15 3.24-22a19 19 0 0 0-2.63-.34c-2 0-4 .11-6 .3a199.13 199.13 0 0 1-47.31-1.11c-19-2.75-38-6.08-57-9.38A192 192 0 0 1 358.75 168c-6-2.76-11.52-6.19-16-11.1-4.26-4.63-6.43-9.66-3.34-15.84.08-.17-.29-.56-.62-1.14-11.48 4.53-18.22 13.28-22 24.63-.34 1 .64 2.52.8 3.05-1.2 2.75-2.6 4.79-3 7a24.79 24.79 0 0 0 2.59 15.88c1.68 3.15 3.6 6.41 8.08 6.27a2.62 2.62 0 0 1 2.07 1.34c.85 2.74 3.23 3.45 5.41 4.07 7 2 13.92 4.25 21 5.34 11.29 1.73 22.74 2.47 34.1 3.85 26.15 3.19 52.32 6.16 78.72 6.07 7.81 0 15.64 0 23.44-.38 8.73-.42 17.36-1.32 26.24-2.04zM249.37 317.35a10.86 10.86 0 0 0-1.45-2.79 31.58 31.58 0 0 0-12.99-8.56 203.1 203.1 0 0 0-33.46-9.58c-16.23-3-31.79-1.76-47 4.54-1.12.47-2.78 1.24-3.51.78-2.58-1.61-4.56-.16-6.6.79-5.27 2.47-10.69 4.7-15.64 7.7-5.88 3.56-12.09 7.1-16.78 12a157.67 157.67 0 0 0-18.16 23.06c-5.94 9.1-11 18.84-15.94 28.54a70.85 70.85 0 0 0-5.91 15.74 158.69 158.69 0 0 0-3.54 46.56c1.82 29.39 8.65 38.14 23.31 57a36.85 36.85 0 0 0 8.62 7.42c12.68 8.57 25.81 16.24 40.78 20.27 5.59 1.5 10.92 4.25 16.58 5.21 29.09 4.93 55.36-3.12 79.95-18.26.46-.29.9-.62 1.33-.95a150.26 150.26 0 0 0 33.97-36.66 76.57 76.57 0 0 0 7.28-15.16c3-8 5.56-16.14 8.19-24.27a42.25 42.25 0 0 0 2.46-14.73l-8.71 1a313.06 313.06 0 0 1-16.61 40.95 29.66 29.66 0 0 1-1.74 2.76c-2.44 3.84-4.92 7.65-7.32 11.51-7.93 12.78-18.79 22.55-31.18 30.78-10.56 7-22.47 11.08-34.35 15a45.64 45.64 0 0 1-15.49 2.51c-13.71-.46-26.93-3.46-39.18-10-3-1.63-6.3-2.79-9.42-4.24-4.77-2.21-9.94-3.86-14.15-6.86a92.46 92.46 0 0 1-20.17-19 43.8 43.8 0 0 1-8.11-15.9c-.92-3.69-1.17-7.53-1.89-11.27-1.4-7.17-2.17-14.34-1.25-21.66a59.23 59.23 0 0 0 .65-10.87 115.65 115.65 0 0 1 3.63-35c3.83-15.49 11.05-29.24 19.62-42.18 5.77-8.71 14.23-15.44 23.6-20.66 12.85-7.17 26.8-11.21 41-14.52 9.77-2.29 19.75-3.3 29.74-1.2 6.57 1.39 13.07 3.11 19.6 4.67 9.51 2.27 18.44 5.56 24.62 13.82zm432.11 24.32c-4.51 1.2-8.69 2.21-12.8 3.42-8.88 2.62-17.72 5.34-26.58 8-1.54.47-3.38 1.5-4.19-.67s1.09-2.76 2.65-3.35c.85-.31 1.71-.59 2.58-.85 5-1.52 10.11-3 15.12-4.55 6.33-2 12.61-4.1 19.19-6.26-2.36-3.51-5.6-3.43-8.85-3.67-17.42-1.25-33.81 3.29-50 8.79-1.15.39-2.85 1-3.09 1.9-.83 3-3.66 4.3-5.18 6.59-4.61 6.95-9 14.07-13.26 21.25a6.93 6.93 0 0 0-.57 4.61q3.42 15.69 7.18 31.29c1.5 6.19 1.88 6.34 8.07 6.2 8-.18 16-.14 24-.59a25.3 25.3 0 0 0 8.79-2.29c6.77-3.08 13.36-6.55 20-9.89 1.57-.78 3.11-1.64 4.66-2.46a8 8 0 0 0-4.33-.05c-5.32 1.15-10.62 2.39-16 3.5-1.5.31-3.22.05-3.27-1.81 0-.77 1.36-2 2.32-2.3a216.8 216.8 0 0 1 13.77-3.27c9.17-1.87 17.64-5.59 25.93-9.74 4.62-2.31 5.86-5.59 4.65-10.2l-49 12.6a13.14 13.14 0 0 1-3.71.67 2.56 2.56 0 0 1-2-1.42 2.48 2.48 0 0 1 1.08-2.16 38 38 0 0 1 5.68-1.82c9.83-2.59 19.71-5 29.5-7.75 6-1.68 11.91-3.81 18.34-5.9-2.29-5.63-4.31-10.59-6.32-15.5-3.82.72-7.07 1.14-10.22 2-10.88 2.83-21.72 5.8-32.58 8.73-.35.09-.73.36-1 .29-1-.21-1.88-.55-2.81-.85.47-1 .68-2.4 1.48-3a13.27 13.27 0 0 1 4.47-1.94q16.83-4.46 33.71-8.77c1.71-.44 3.44-.78 5.62-1.26zm172.63 94.76c6.53.87 12.33 1.41 18 2.46a56 56 0 0 1 25.54 11.53 119 119 0 0 0 10.85 7.24c4 2.54 8 5 12 7.48a19.15 19.15 0 0 1 7.16 8.67 67.48 67.48 0 0 0 6 10.3c5.57 8 9.06 16.51 8.71 26.4-.13 3.45.13 6.91 0 10.36a89.85 89.85 0 0 1-12.8 42.86c-4.2 7-9 13.63-13.37 20.52-7.27 11.38-18.11 17.75-30.56 21.38-11.65 3.41-23.54 6-35.42 8.62a53.37 53.37 0 0 1-13.48 1c-11.75-.5-22.73-4.47-33.66-8.4-3.23-1.16-6.71-2.08-9.49-4-7.16-4.89-14.43-9.59-20.27-16.35-3.9-4.51-6.3-9.7-9.47-14.52-5.79-8.78-7.7-18.86-9-28.89-2.13-16.38 3.29-31.54 9.33-46.44a9.76 9.76 0 0 1 1.65-2.81c4.48-4.94 6.81-11.1 9.89-16.85 10.23-19.09 25.15-33.08 45.34-41.26 1-.4 1.87-1 3-1.56-.32-2.78-.61-5.39-.9-8l-1.1-.4-5.71 6.79-5-2.9c-6.86 4.24-14.22 8.24-21 13.07-11.1 7.92-19.59 18.4-26.46 30.05-3.58 6.07-6.18 12.74-9 19.22-5.19 11.76-8.57 23.92-7.69 37 .21 3.08 0 6.18 0 9.27a52.45 52.45 0 0 0 6.06 26.23c2 3.85 3.26 8.1 5.33 11.9 2.24 4.1 4.55 8.35 7.68 11.74 10.35 11.2 23.46 18.81 36.32 26.68a16.83 16.83 0 0 0 5.08 1.9c9.92 2.22 19.84 4.42 29.8 6.41a18.79 18.79 0 0 0 7-.09c13.19-2.51 26.38-5.09 39.53-7.86 6.8-1.43 13.44-3.76 18.88-8.13 8.05-6.48 15.69-13.47 23.43-20.33a14 14 0 0 0 2.85-4c10.61-20.09 18.43-41 20-64a70.09 70.09 0 0 0-4.4-31 30.2 30.2 0 0 1-2-6.22 16.29 16.29 0 0 0-4.88-8.93c-5.46-5.58-10.93-11.15-16.5-16.61a29.76 29.76 0 0 0-6-4.72c-10.73-6.07-21.58-11.94-32.35-17.95a49.81 49.81 0 0 0-19.1-5.69c-3.54-.39-7.09-.67-11.33-1.07.57 3.83 1.03 6.8 1.51 9.9zm-65.12-266.55c-3.42-.39-6.62 0-9-1.22a15.52 15.52 0 0 0-7.84-1.36c-7.8.26-15.6.53-23.4.95a45.66 45.66 0 0 0-8 1.23c-4.17 1-5.3 2.63-5.23 7 .14 7.92 1.18 15.51 7.24 21.48 1.13 1.12 1.77 2.73 2.7 4.07 3.93 5.7 3.28 11.27-.5 16.71-1.86 2.68-3.94 5.22-5.77 7.92a5.7 5.7 0 0 0-1.26 3.34c.73 7.39 1.51 14.78 2.57 22.13.91 6.3 3.32 8.82 9.66 8.87 11.79.1 23.58-.4 35.37-.68 2.78-.06 4.4-1.5 4.58-4.34.44-6.67 1-13.34 1.22-20 .18-4.34-.4-8.74 0-13.05 1.27-14 .42-27.94-.71-41.88-.36-3.78-1.1-7.48-1.63-11.17zm74.19 319.62c.09 1.4.08 2.45.24 3.48q1.63 10.49 3.35 21c.34 2 .46 4.22-1.44 5.45a86.1 86.1 0 0 1-11.72 6.84c-7.07 3.12-10.48 1.14-12-6.4-1.67-8.18-3.29-16.36-5-24.54-.73-3.57-1.83-4.22-5.3-3a14.82 14.82 0 0 0-3.82 2c-13.54 9.83-20.93 22.58-18 39.74.71 4.17 2.13 8.74 4.68 12 20.06 25.65 50.78 22.87 67.94 1 9.3-11.85 11.82-25.47 10-40.08a11.14 11.14 0 0 0-2.63-5.8c-2.55-2.79-5.32-5.64-8.56-7.47-5.25-3.12-11.05-5.21-17.74-4.22zM524.8 179.33c-1.87-.09-4-.1-6.07-.3-12.82-1.24-25.79-1.69-38.42-4-23-4.16-45.62-10.43-68-17.36a111.57 111.57 0 0 1-30.38-14.25 97 97 0 0 0-9.95-5.61c-6.72-3.52-13.59-2.38-20.46-.45-1.61.45-3.4.53-4.82 1.3-3.33 1.79-5.19 9.07-2.83 12a38.48 38.48 0 0 0 8.14 7.88c11.26 7.66 24.09 12 37.14 15.08 22.23 5.33 44.72 9.45 67.41 12.55a268.4 268.4 0 0 0 64.79 1.16c1.21-2.2 2.53-4.57 3.81-7 .01-.04-.13-.26-.36-1zm12.56 208c-1.67.51-2.35.64-3 .91-17.43 7.76-22.43 24.24-20.14 38.4a20.24 20.24 0 0 0 10.56 15.1c3.51 1.92 6.83 4.25 10.49 5.79 14.61 6.17 25.49 5.27 36.36-5.63 9.44-9.46 12.62-31.92-2-43.32-2.86-2.24-5.87-4.29-8.63-6.65-6.2-5.29-12.56-4.62-19.15-.89a20.34 20.34 0 0 1-4.42 2 2.65 2.65 0 0 1-2.35-.79 3.12 3.12 0 0 1 .12-2.42c.26-.68.97-1.16 2.16-2.48zm268.38-283.79a6.58 6.58 0 0 0 2 0 47.88 47.88 0 0 0 4.91-2.32 92.66 92.66 0 0 0 27.76-25c5.83-7.82 8.05-17 8.33-26.62a7.42 7.42 0 0 0-4.41-7.48 63.36 63.36 0 0 0-9.55-3.94c-15.91-4.63-31.78-5.92-47.38 1.28-1.25.58-2.37 1.41-4.11 2.46 6.35 6.77 7.58 14.29 4.31 22.35 7.55 6.06 8.21 14 8 22.46s-3.11 15.89-9.35 21.5l8.42 11.9c1.55-4.31 2.89-7.87 4.11-11.47 2.35-6.91 3.48-13.76-1-20.39-.85-1.26-1.2-3 .59-3.65a3.46 3.46 0 0 1 3.15 1.15c2.17 3.9 4.07 8 5.89 12 .29.67-.25 1.75-.49 2.61s-.73 1.89-1.18 3.16zm-603.4 268.32c-7.1-3.48-9.77-3.73-16.36-2.06-9 2.27-16.84 6.73-24.37 11.84-5.78 3.92-9.68 9.36-10.78 16.36a99.76 99.76 0 0 0-1.32 13c-.32 18.1 12.38 31.53 30.38 32.33a34.84 34.84 0 0 0 6.54 0c10.69-1.51 20.39-5.24 27.76-13.52 1.73-1.93 2.86-4.39 4.67-7.25-2.11-.1-3.16-.26-4.19-.18-4.88.39-9.77.84-14.65 1.27-7 .61-14.1 1.26-21.15 1.77-.92.07-2.36-.33-2.7-1s.34-1.9.85-2.72a8.27 8.27 0 0 1 1.86-1.66c-1.6-2.4-3.18-4.42-4.39-6.64-4.19-7.68-.76-16.36 7.41-19.51a13.58 13.58 0 0 0 5.29-3.53c5.07-5.87 9.88-12.01 15.15-18.5zm632.73 19.78c-1-8.74-1.8-16.86-3-24.9-2.93-19-6.12-38-9.14-57a81.63 81.63 0 0 1-.73-8.57c-.11-2.32.46-4.77-.08-7-2.45-10.09-3.59-20.33-4.64-30.63-2.89-28.34-6.11-56.65-9.28-85-.74-6.58-1.35-13.23-4-20.14-2.57 3.45-4.6.29-7.22-.13 0 1.23-.08 2.07 0 2.89 1.23 11 2.68 22 3.66 33 1.28 14.46 2.13 29 3.29 43.43.49 6.13 1.36 12.22 2 18.34.89 8.83 1.7 17.68 2.58 26.52.07.7.18 1.65.64 2 2 1.6 1.55 3.37.89 5.4a8.46 8.46 0 0 0-.21 3.72c.76 5.57 1.5 11.15 2.49 16.69 3.49 19.47 7.07 38.91 10.62 58.37l4.16 22.89zm-9.25 9.5a69.33 69.33 0 0 0 0 7.78c1.11 9.56 1.86 19.2 3.71 28.63 5.4 27.61 11.25 55.13 17 82.68a12.93 12.93 0 0 0 1.11 2.47c6 0 9.46-4.54 14.61-7.08-1-6.43-2-12.87-3.12-19.27-.54-3.09-.45-6.6-4.94-8 3.77-3.28 2.39-6.85 1.85-10.32-.33-2.15-.65-4.31-1.11-6.44-3.21-14.68-3.59-29.88-8.21-44.3a5.4 5.4 0 0 1-.15-2.16c.92-8.24-1.81-16.13-2.3-24.23-.14-2.36-1.59-3.32-4-3.59-4.59-.54-9.12-1.34-12.76 2.59a12.2 12.2 0 0 1-1.69 1.24zm-493.62-6h-3.91c-24.69.78-49.39 1.37-74.06 2.42-15.25.66-30.46 2-45.68 3.13a5.33 5.33 0 0 0-3.16 1.55c-3.29 3.37-6.39 6.91-9.6 10.35-2.06 2.2-4.21 4.31-6.61 6.75a7.39 7.39 0 0 0 2 .52c7.78-.75 15.56-1.42 23.32-2.38 2.41-.29 4.72-1.4 7.11-2a7.49 7.49 0 0 1 2.54-.18c2.09.21 4.2.91 6.25.77 14.5-1.05 29-2.35 43.48-3.38 17.94-1.27 35.9-2.34 53.85-3.54a45.21 45.21 0 0 0 4.49-.68zm23.73 20.57c3.27 3.63 6.41 7.42 9.85 10.9 7.25 7.36 14.31 15 22.14 21.66 4.31 3.68 10 5.82 15.12 8.45 1 .52 2.5.24 3.74.09 2.35-.29 4.65-.89 7-1.1 9-.78 18.07-1.45 27.11-2.18a50.15 50.15 0 0 0 7.48-.75c5.05-1.18 5.51-1.15 8.66 3.08 2.41 3.23 3.53 3.6 7.34 2.2 1.36-.5 2.63-1.27 4-1.73 2.86-1 3.41-3.11 2.77-5.65a23.89 23.89 0 0 0-2.09-5.58c-2.51-4.62-5.21-9.14-7.87-13.75-3.62-.45-7.12-.85-10.92.92l4 6.26c-2.78.38-4.93 1.27-6.76.83-5.83-1.42-11.54-.67-17.29.13s-11.49 1.77-17.28 2.51a15.48 15.48 0 0 1-13.75-5c-8.37-8.83-16.92-17.49-25.44-26.18-2.88-2.94-6-5.63-9.63-7zm-45.94-245.4c-12.91-.71-25.25-2.66-37.82-1.56-11.66 1-22.88 3.95-34 7.22a26.14 26.14 0 0 0-9.38 4.7c-2.2 1.86-3.69 4.9-4.68 7.7s.54 5.11 3.65 5.43a18.78 18.78 0 0 0 6.83-1c5.92-1.69 11.67-4.08 17.67-5.31 14.7-3 28.07.26 39.82 9.74 4.77 3.86 10.38 5 16.32 5 3.5 0 7.16.51 10.85-1.9-9.6-8.05-10.22-18.62-9.27-30.02zm-99.77 225.52l67.21-4.34c-1.25-8.74-3.36-17.25-7.65-24.69-4.18-7.26-7.88-15.24-15.19-20.23-15.98 15.43-30.89 31.12-44.37 49.26zm93.53-120.7c-19.52 13.73-102.74 101.49-111.56 117.43 2.61 2.45 5.15 4.85 8 7.48 3.49-4.21 6.69-8.15 10-12 7.42-8.72 14.36-17.92 22.42-26 24.71-24.7 47.83-50.78 70.22-77.55 2.53-3.09 3.5-5.7.92-9.36zM846.01 37a4.55 4.55 0 0 0 .39-1 3 3 0 0 0 0-1.08c-2.69-13.53-11-22.56-23-28.59a14.3 14.3 0 0 0-5.76-1.49c-17.47-.6-34.05 2.21-48.3 13.29-2.11 1.64-4 3.59-5.94 5.4 1.67 2.81 3.32 3.46 6.13 2.48 4.2-1.47 6-.69 8 3.2a72.07 72.07 0 0 1 3.12 8.36c18.22-9.17 36.62-11.64 65.36-.57zm-21.43 250.59c3.54.74 6.37 1.35 9.2 1.93 22.59 4.58 43.44 12.83 60.86 28.5 4.69 4.21 9.8 3.09 12.91-2.46 1.28-2.27 1.62-4.43-.66-6.34-3.2-2.67-6.24-5.53-9.59-8a154.61 154.61 0 0 0-14.85-10.1c-11.5-6.55-23.23-12.71-34.87-19a7.49 7.49 0 0 0-2.06-.7 20.4 20.4 0 0 1-7.27-3.33c-4.6-3.16-9.65-5.63-16.09-5.78.77 8.34 1.59 16.59 2.42 25.28zm-96.78 13.17c12.65-4.63 24.53-9.43 36.7-13.3 12.59-4 25.84-2.38 39.37-2.67-1.15-9.74-2.22-18.83-3.32-28.15h-5.37c-1.54 7.36-6.67 8.74-13.13 8.74-8.15 0-16.3.59-24.45 1-1 .05-2.75.21-2.94.76-1.26 3.5-4.66 3.84-7.28 5.15-6.08 3-11.61 6.73-15.87 12.11a18.07 18.07 0 0 0-3.71 16.36zM313.19 158.69c-2.41-.47-4.51-1.06-6.65-1.27-9.75-1-19.51-2-29.28-2.66-19.57-1.31-39.14-2.89-58.73-3.4-13.58-.35-12.23-1.83-15.11 13 0 .17.08.35.22.86a8.74 8.74 0 0 0 2 1.29c7 2.43 14 4.93 21.14 7.08 1.52.45 3.5-.3 5.17-.81 14.08-4.3 28.22-8.68 43.06-8.87 10.32-.14 20.65 1 31 1.47 1.75.09 3.5 0 5.24 0 .63-1.7 1.15-3 1.61-4.41a16.65 16.65 0 0 0 .33-2.28zm479.07 131.06c1.42 28 7.62 55 11.52 82.25h14.53c-4.86-27.57-9.66-54.83-14.48-82.25zm-146.27 11.33c-.55 9.54-1.09 19.09-1.66 28.92 1.47 0 2.7.05 3.92 0 6.9-.34 13.8-.72 20.69-1.07a14.36 14.36 0 0 1 12.2 5 70.77 70.77 0 0 1 6.23 9.45 39.79 39.79 0 0 1 2.16 4.91c7-4.61 8.3-8 6.25-15.28-2.66-9.45-9.39-15.31-17.43-20-3.89-2.28-8.28-3.22-12.54-4.58s-8.93-1.78-12.77-4.63c-1.82-1.4-4.37-1.75-7.05-2.72zm-388.75 42.47c4.39 1.57 6.44 4.92 8.33 8.47a26.94 26.94 0 0 0 2.73 4.06 53.08 53.08 0 0 1 9.8 18.68c1.58 5.56 3.15 11.14 4.77 16.87h7.49c.38-.49.54-.61.59-.77 4-14.3-1.12-26.36-9.29-37.64-.47-.64-1.52-.84-2.24-1.32a7.48 7.48 0 0 1-2-1.66c-2.25-3.23-4.27-6.64-6.64-9.79a59.1 59.1 0 0 0-5.4-5.56zm516.18-230c8.42 16.11 11.3 33.18 12.71 50.89l6.6.9c-.32-3.71-.6-6.89-.91-10.44l7-1.65c1.27-12.55-6.77-31.33-17.13-42.26zm-11.6-83.34c-2.64-3.1-5.28-6.51-8.27-9.57a17.07 17.07 0 0 0-5.74-3.87 73 73 0 0 0-9.42-2.65c-6.52-1.62-11.22 1.11-13.24 7.63l27.46 21.75q4.79-6.89 9.21-13.26zm-411.55 355.9c-4.2 1.38-8 3.47-10.38 7a18.2 18.2 0 0 0-3.12 7.84c-.6 5.67 1.4 7.25 7.17 6.65a12 12 0 0 1 2.15-.18c1.41.11 3 0 4.16.65s1.4 2.13 2.14 3.36c3.53-2.33 4.91-5.9 6.57-9.27 2.08-4.24.38-8.1-1.28-11.93a3.42 3.42 0 0 0-1.57-1.31c-1.75-.92-3.55-1.72-5.84-2.81zm394-314.55c-6.74-.44-7.51-.21-9.06 5.83a103.69 103.69 0 0 0-2.28 14.4 10.71 10.71 0 0 0 .8 4.74c1.14 3.09 3.33 4.57 6.12 4.48a5.65 5.65 0 0 0 5.55-4.44c2.25-8.45 3.99-16.95-1.17-25.01zM196.84 405c-1.4-1.93-2.28-3.3-3.31-4.54-3.85-4.65-12.47-3.47-15 2s-1 9.89 5.67 15.48zM678.4 157.05c-.26-2.29-1.62-3.05-3.43-2.9-8.67.71-17.34 1.45-26 2.3-1.55.16-2.67 1.09-1.61 3.46zm121.53 94.41c-.87-13.26-1.73-26.3-2.59-39.34h-1.23v37c-.02 2.11.75 3.05 3.82 2.34zm-105.6 99.8c-3.63 3.31-3.63 3.31.42 9.72 1.74-1.41 3.41-2.78 5.44-4.44zm5.62-40c-1.92-1.09-3.38-2.61-4.36-2.35-2.85.74-5.51 2.2-8.81 3.62 1.81 1.54 2.88 2.45 4 3.38zm-5.62 7.61c2.83 4.3 3.27 4.36 10.87 2l-2.82-5.39zM679.41 308c5.6 3.21 8.21-1.89 12.27-2.66-4.36-3.34-4.36-3.34-12.27 2.66zm-23.24-8.65c4.09 2.14 5.65 1.39 9.32-4.43-4.29-1.92-4.75-1.68-9.32 4.46zm-539.58 53.24c.93-3.67-1.36-8.86-4.57-10.6a10.79 10.79 0 0 0 4.57 10.6zm787.49 238.13c-2.83-2.41-5-4.24-7.17-6.08l-1.13.94c.4 3.08 3 4.91 4.78 7.62zM645.93 291.56l1.09.58 4.07-5-5.16-3.33zm53.66 35.68l-.12 1.16 9.31 1c-2.38-3.75-3.14-3.9-9.24-2.16zm-42.76-35.63c-.37-.38-.74-.76-1.12-1.13-3.24.83-4.71 3.33-5.83 6.16l.87.86zm25 8.42c-3.77-.2-6.38 1.87-8.37 5 3.56-.19 5.74-2.84 8.37-5.03zm-8.14-2.66c-4.18-.7-5.59 2.67-7.63 5.11 3.64-.1 5.23-3.2 7.63-5.11zm32.52 48.69c.84-5 .48-5.34-4.72-5.61-.01 2.97 2.62 3.55 4.72 5.61zm-3 6.36c-.32-4.11-1.12-4.92-5-5.07.6 2.8 2.5 4.03 4.97 5.07zm6-14.64c-.53-1.64-.56-2.83-1.13-3.19a9.72 9.72 0 0 0-3.49-1.11 14.64 14.64 0 0 0-2.65 0c-.07.38-.14.76-.2 1.14z"/><path d="M333.93 329.44c3.39 4 4.57 8.24 1.24 12.68.26.57.32 1.07.56 1.18 7.36 3.35 9.58 9.45 9 17-.18 2.43 0 4.4 1.82 6.46 2.26 2.57 1.81 9.19-.37 11.83a3.67 3.67 0 0 1-2.72 1c-.44 0-1-1.33-1.15-2.11a6.71 6.71 0 0 1 .4-2.67c.76-2.6.83-4.82-1.55-6.9-1-.87-1.2-2.89-1.37-4.43s.33-2.89.36-4.33c.13-5.06-1.17-9.18-6.35-11.53-4-1.79-4.29-3.38-2.69-7.42 1.86-4.71 1.86-4.71-2.71-7.59a2.11 2.11 0 0 1 .11-3.86c2.09-1.16 3.84-.17 5.57.91zM559.84 268.11c10.31.86 20.39 1.9 30.21 4.85.69.21 1.4.38 2.08.62 11.11 3.78 14.14 8.22 13.09 19.91a87 87 0 0 1-9.65 33.78c-3.72 7-8.88 10.25-16.73 9.26-1.8-.23-3.67-.07-5.42-.47-12.92-2.88-25.81-5.86-38.71-8.82a17.21 17.21 0 0 1-2-.72c-8.48-3.13-11-6.88-9.8-15.7q1.56-11.82 4.02-23.57a28.29 28.29 0 0 1 3.67-9c2.51-4 5.41-7.44 11-7.71 6.1-.3 12.16-1.54 18.24-2.43zm2 4.92c-6.63.78-13.25 1.72-19.9 2.28a9.25 9.25 0 0 0-7.7 5.28 26.06 26.06 0 0 0-3 7.54c-1.43 7.84-2.7 15.72-3.6 23.64-.75 6.48.41 7.94 6.38 10.2a31.68 31.68 0 0 0 4.15 1.3q17.51 4 35 7.84c1.76.39 3.6.43 5.39.71 6 .92 9.85-1.49 12.74-6.88 5.35-10 7.9-20.58 9-31.7.93-9.25-.65-11.88-9.53-15q-1.28-.45-2.58-.84a129 129 0 0 0-26.26-4.4zM666.93 214.2a52.81 52.81 0 0 1-1.09 6.44c-.2.66-1.48 1.6-1.91 1.44-.81-.29-2-1.34-1.92-2 .31-4.31.78-8.62 1.48-12.89.25-1.54 1.23-3.32 3.34-2.66s1.19 2.25.87 3.65a10.6 10.6 0 0 0 0 2.21c2.84-1 5.31-2 7.84-2.81a8.56 8.56 0 0 1 3.74-.4c.88.13 1.64 1 2.45 1.61-.59.76-1 1.92-1.8 2.21-2.15.81-4.44 1.26-7.6 2.09 2.26 2.75 3.93 5 5.82 7 1 1.09 2.41 2 1.23 3.58-1.33 1.73-3.09.86-4.3-.18a39 39 0 0 1-4-4.43zM594.16 214.15c-1.59-1.23-3.08-2.41-4.6-3.55-3.07-2.32-3.41-4.66-.53-7.13a18.22 18.22 0 0 1 6.13-3.27 6.16 6.16 0 0 1 4.09.71c.75.37 1 1.67 1.55 2.54-.86.47-1.87 1.5-2.56 1.31a5.13 5.13 0 0 0-5.64 1.71 45.7 45.7 0 0 1 4.46 4.33c2.38 3 2.12 5.76-.46 8.23s-6.51 2.88-9 .92c-.72-.58-1-1.76-1.41-2.67 1-.48 2.05-1.41 3-1.33 1.66.13 3.22 1.05 4.97-1.8zM609.43 210.51c.65 1.52 1 4 2 4.37 2.55.8 3-1.84 3.79-3.62s1.24-3.41 2-5c.67-1.39 1.9-2.6 3.41-1.57.68.47 1 2.26.69 3.23a45.2 45.2 0 0 1-3 7.56c-1.83 3.59-4.64 4.89-8 4.07s-4.91-3.36-4.78-7.51a10.44 10.44 0 0 1 .21-2.17c.42-1.67.39-4.14 2.9-3.61.87.18 1.31 2.46 1.94 3.79zM628.52 209.57a5.93 5.93 0 0 1-1.48-.91c-.62-.74-1.71-1.8-1.51-2.36.26-.76 1.46-1.38 2.39-1.69a6.42 6.42 0 0 1 2.69 0c5 .62 5.8 2.62 2.74 6.69-.75 1-1.45 2-2.49 3.47a31.3 31.3 0 0 1 4.6 1.76 2.64 2.64 0 0 1 1.16 2.13c-.11.67-1.26 1.79-1.71 1.69a42.89 42.89 0 0 1-8.06-2.53c-.65-.29-.94-2.32-.69-3.39.36-1.52 1.37-2.9 2.36-4.86zM647.52 215.45c.9-1.45 1.76-2.92 2.72-4.33a18.9 18.9 0 0 1 3-3.81 3.29 3.29 0 0 1 2.84-.14 2.48 2.48 0 0 1 .48 2.33 70.51 70.51 0 0 1-6.5 9.94 4.27 4.27 0 0 1-7.52-2c-.36-2.32.49-4.9 1.15-7.26.17-.6 1.7-.82 2.61-1.22a8.66 8.66 0 0 1 1.06 2.69 15.52 15.52 0 0 1-.62 3.5zM699.04 220.26c-.22.79-.28 2.21-1 3.1s-2 1-3.06 1.49a10.91 10.91 0 0 1-1-2.71c-.23-2.65-.13-5.33-.44-8-.17-1.52-.62-3.09 1.22-3.59 2.11-.57 2.85 1.12 3.2 2.77.46 2.16.69 4.32 1.08 6.94zM395.36 327.58c-4.62-.63-9.33-1-13.91-1.93-17.31-3.61-31.68-12.33-43.39-25.52-1.56-1.77-3.15-3.53-4.53-5.44-10.83-14.89-10.84-30.4-1.9-46 3.05-5.31 7.22-10 11.18-14.73 2.86-3.41 6.52-5.1 11.17-3.17a6.2 6.2 0 0 0 3.6-.17c20.52-5.2 39.58-1.21 57.68 9 3.79 2.14 7.77 4 11.38 6.43 14 9.38 22.19 22.21 23 39.32a23.39 23.39 0 0 1-4.43 15.41c-2.57 3.51-5.24 7-8.14 10.22-5.72 6.4-12.68 10.81-21.24 12.45-6.75 1.36-13.49 2.74-20.47 4.13zm-5.75-5.33a86.23 86.23 0 0 0 30.77-5.14 26.93 26.93 0 0 0 9.21-5.61 116.54 116.54 0 0 0 11.16-12.61c4.06-5.14 4.88-11.15 3.84-17.55-2.36-14.4-10.09-25-22.51-32.42-4.21-2.5-8.48-4.94-12.86-7.13-15.21-7.58-31.11-11.08-48-7-12 2.94-23.16 7.23-27.87 20.27-.06.17-.2.32-.26.49-3.64 10.67-4.68 21.15 1.26 31.53 5.28 9.22 12.91 16.17 21.25 22.33a70.47 70.47 0 0 0 34.01 12.84zM686.86 363.7c-1 1-1.55 2.06-2.4 2.44a37.22 37.22 0 0 1-5.66 1.89q-16 4.29-32.09 8.49a9.06 9.06 0 0 1-3.17.69 10.2 10.2 0 0 1-3-1.44c.58-.82 1-2.1 1.77-2.38 3.57-1.3 7.23-2.4 10.89-3.42 9.62-2.67 19.25-5.25 28.88-7.86.7-.19 1.52-.6 2.09-.38a13.45 13.45 0 0 1 2.69 1.97z"/><path d="M399.17 283.3c-1.71-.58-2.75-.89-3.76-1.29-7.71-3-10-10-5-16.6a31.24 31.24 0 0 1 9-7.69c4.5-2.6 9.45-1.63 13 2.15 5.91 6.35 8.26 14 3.25 21.71-4.56 7-9.49 13.74-14.47 20.43a6.67 6.67 0 0 1-4.44 2.54 9 9 0 0 1-5.91-1.78c-1.9-1.69-.55-4.07.55-6 2.46-4.39 5.04-8.77 7.78-13.47zm-3.49 15.75l1.12.68c6-7.35 12-14.74 16.13-23.42 1.57-3.31-1.24-11.46-4.14-13.76-2.38-1.88-5.17-2.39-7.58-.69a29.93 29.93 0 0 0-7.4 7c-2.69 3.86-1.07 7.36 3.56 8.73a52.2 52.2 0 0 0 5.35.78c2.82.51 3.64 2 2.42 4.68-.61 1.3-1.58 2.43-2.31 3.68-2.41 4.07-4.77 8.2-7.15 12.32zM359.4 295.68c-.21-.82-.35-1-.29-1.16 5.27-13.6 5.68-28.3 9.54-42.23 1.2-4.37 1.43-4.7 5.93-3.54 3 .77 5.93 1.65 8.81 2.71 2.22.81 3 2.44 1.84 4.76A168 168 0 0 0 372.82 292a9.26 9.26 0 0 1-2.09 4.35 5.57 5.57 0 0 1-4.1 1.64 44.42 44.42 0 0 1-7.23-2.31zm14-42.39a16.94 16.94 0 0 0-1.1 2.56c-2.42 11.87-4.84 23.75-7.13 35.64-.12.6.94 1.42 1.77 2.58l12.47-38.87z"/></svg>