<svg id="Layer_1" data-name="Layer 1" xmlns="http://www.w3.org/2000/svg" viewBox="0 0 590.99 621.79"><title>puff</title><path d="M295.43,558.83c-2.41,2.95-4.85,5.17-6.33,7.91-2.27,4.21-.94,6.46,3.69,7.39,1.07.21,2.18.13,3.26.28.86.13,1.71.4,2.52.6-.14,3-.14,3-3.25,6.21.18.45.48,1,.68,1.67a16.13,16.13,0,0,1,.34,1.64c-2.43,2.39-6.92,1.71-8.41,5.87a5.12,5.12,0,0,0,6.76.85c3.75-2.28,7.31.24,10.95-.35,1.69-.27,2.42,1.47,2,3.1a17.53,17.53,0,0,1-1.55,3.46c-1,1.94-2.12,3.82-3.11,5.76-1.65,3.28-3.9,6.59.88,9.66-6.74,5.52-12.55,10.89-13.64,19.69,1.19.45,2,.73,2.81,1.06,3.06,1.27,3.3,2.15,1.47,4.74a43.43,43.43,0,0,0-4.43,6.76,8.92,8.92,0,0,0-.73,5.79c1.06,3.34,1.3,6-1.31,8.87-.74.81-.21,4.32.71,4.82,2.85,1.55,2.49,4,2.61,6.35,4.89,2.57,6.38-1.92,9.2-4.59.35,5.44.66,10.12,1,15.63a40,40,0,0,0,5-2.17c2-1.25,3.41-.69,4.59,1.09s2.32,3.55,3.7,5.65l5.41-3.94c2.6.49,5.51,3.63,8.27.76,1.91-2,3.06-4.7,4.7-7.35l6.08,4.25c4.23-2.31,4.05-6.57,4.83-10.67l5.35-.3c2-2.13,1.81-6.1,5.6-6.89.55-.12,1-1.83,1.08-2.82.13-2.79-.25-5.63.06-8.39.5-4.51-1.69-7.07-5.39-9-2.5-1.32-5.44-2.18-7-5.16A6.07,6.07,0,0,1,345,635.3c4-2.91,4.36-3.4,2-7.8-2-3.89-3.67-7.44-.36-11.57.67-.83,0-3-.51-4.44-.32-1-1.42-1.62-2.11-2.46-2.36-2.9-2.2-4.14.82-6,.92-.58,2-1,2.84-1.62,3.49-2.49,3.8-3.91,1.75-7.67-2.58-4.73-1.88-6,3.49-6.36,1.09-.06,2.18,0,3.49,0,2.39-3.57,6.25-6.46,4.67-12.25l7.12,2.19c2.34-5.74-1-9.79-3.9-14,1.24-.7,2-1.39,2.76-1.5a4.43,4.43,0,0,0,4-3.91,10,10,0,0,1,4.58-6.45c3.08-2.09,5.54-4.67,5.19-8.94-.17-2,1.29-2.62,3.2-2.8,5.14-.48,5.94-1.17,6-6.19,0-3.31.57-5.05,4.36-6.15,2.44-.7,4.16-4.2,6-6.59a24.17,24.17,0,0,0,2.1-4c2.6.31,2.75,2,2.26,3.28-2,5.22-4.87,9.73-10.47,12.21-.41,5.79-1.65,11.23-9.27,11.84-.78,4.6-3.51,7.81-7.09,10.56a14.6,14.6,0,0,0-3.24,4.14c-1.28,2.12-2.34,4.37-3.77,7.08a57.31,57.31,0,0,1,1.89,7.13c.63,4.29-1.32,6.62-5.54,7.9a7.92,7.92,0,0,0-3.67,2.59c-2.11,2.7-3.93,5.63-5.87,8.47l-4.61-.79c4.3,7.72-.28,11.76-5.82,15.21,5.12,6.85,5.12,6.85,1.2,15,1.67,5,6.61,9.68,1.91,15.78A22.6,22.6,0,0,0,353,639c5.23,2.69,7.76,6.87,7.37,12.8-.19,2.89-.17,5.79-.31,8.67,0,.89,0,2.21-.57,2.59-4.46,3.14-5.52,9.83-11.68,11.13-4.3,10.12-5.69,11-13.22,8.31-2.93,4.71-7.05,6.91-12.79,5.23-.71-.21-1.71.32-2.5.68-5.23,2.39-6.2,2.17-9.48-2.3-.32-.44-.58-.93-.91-1.36a6.74,6.74,0,0,0-.78-.73c-8.66,2.9-11.14,1-10.69-8.54-1.4.1-2.87.53-4.15.22-1.7-.4-4.05-1-4.72-2.21a72.89,72.89,0,0,1-4.76-11.81,5.4,5.4,0,0,1,.73-4.16c1.45-2,1.09-3.94.72-6.16-.87-5.18,1.72-9.48,4.31-14-4.64-3.86-3.57-8.45-1.06-12.74s5.52-8,8.72-12.56c-2-5.52,2.62-10.13,4.71-15.8l-11.39-.59a12.48,12.48,0,0,1-1.61-.23c-2.5-.47-4.48-1.67-5.11-4.28-.6-2.46.74-4.34,2.6-5.58,2.64-1.76,5.07-3.52,5.27-7.08-.18-.2-.35-.56-.63-.68-7.31-3.18-8.88-7.28-4.9-14.07,1.81-3.09,3.36-5.85,3.53-9.73s3.16-6.85,6.44-9a7.91,7.91,0,0,0,3.11-4.1c1-2.6,3.08-4.8,4.54-7-1.62-2.43-3.28-5-5.06-7.52a7.89,7.89,0,0,0-2.07-1.65c-6.47-4.44-7.22-6.44-5.28-14.12-5.12-4.91-5.65-7.47-2.08-13.76,1.95-3.44,4.52-6.54,7-10.07-4.92-7.59-.37-13.13,4.63-18.44-4.65-6.13-4.29-7.78,3.54-16.3-2.95-2.17-7.29-3.89-5.94-8.5,1-3.36,3.24-6.36,5.08-9.81-.51-.21-1.41-.65-2.35-.95-5.1-1.66-6-4.14-2.9-8.41.32-.44.77-.78,1.08-1.22a3.72,3.72,0,0,0,.35-.95c-6.82-4.82-6.82-4.82-7.88-9.44C280.83,409.07,276,402,279,394c-2.73-2.33-5.63-4.48-8.12-7a7.74,7.74,0,0,1-1.51-9.49,32.28,32.28,0,0,1-9.66-14.59c-1.68-5.18-.89-7.74,3.49-10.82,2.51-1.78,5.19-3.32,8-5.1-3.56-6.2-11-11.59-4.66-20-5.89-10.12-6.89-18-.13-22.55-2-5.42-3.06-11-1.4-16.89,1.6-5.61,4-10.48,9.83-12.76-4.12-7.72,1.69-20.21,15.06-20.86.74-5.33,2.41-10.23,8.51-12.35-.49-1.86-1-3.56-1.38-5.29-.9-4.18-.2-8,3-11,3-2.88,6.6-3.24,9.79-.5,2.3,2,4.14,4.52,6.36,7,2.43-2.65,5-5.14,9.25-4.1.72.17,1.87-.83,2.63-1.5,3.86-3.4,7.75-6,13.36-6.46,3.44-.26,7.07-2.75,9.92-5.09,6.26-5.14,11.45-5.2,17.36.6a5.18,5.18,0,0,0,1.31.57c5.27-2.93,10.85-5.9,16.66-1.58,2.86-.78,5.45-2.13,8-2s5,1.71,8.29,2.94c2.31-1.44,5.56-2.93,9.34-1.57,3.41,1.23,6.1,3.19,7.17,6.93a11.09,11.09,0,0,1,9.44,4.78c1.89,2.44,2.11,5,.38,7.57-2.53,3.69-5.61,6.61-10.34,7.35a19.47,19.47,0,0,0-12.74,7c-2.8,3.49-4.64,3.73-10.77,2.25-6.75,8.15-11.24,9.43-17.61,6.4-.71,1.44-1.38,2.91-2.14,4.32-1.42,2.63-3.43,4.45-6.6,3.4a5,5,0,0,0-5.71,2c-1.91,3.34-5.18,3.58-9,5l6.08,3.16c1.23,8.16-1.79,11.51-18.4,20.19,1.42,2.48,4.2,4.92,2,8.11-1.74,2.51-3.78,4.82-5.68,7.21,2.44,5.47,3.28,5.63-1.35,13.15,1.32,1.94,3.22,3.64,3.63,5.65s-.53,4.58-.92,7.14c3,.85,7.85-1.25,9.1,3.4.84,3.15.16,6.72.16,10.61,4.7,1.23,11.95-.71,13.57,7.23,2.65,0,5,.12,7.29-.06a5.64,5.64,0,0,0,2.79-1.3,26.5,26.5,0,0,0,2.58-2.8c3.61-3.94,7.84-5.86,13.52-3.68,1.23-1.57,2.39-3.14,3.66-4.62,3.11-3.64,6.45-6.95,11.52-7.66a3.41,3.41,0,0,0,2-.7,8.34,8.34,0,0,1,7.86-2.73,18.89,18.89,0,0,1,11.07,5.37c1.53,1.5,2.82,3.24,4.2,4.86,7.95-5.9,11.58-6.2,19-1.56,5.54-5.21,12.24-4.55,18.95-3.2,2,.41,3.68.75,5.57-.7,5.19-4,10.82-3.76,16.4-.86,2.88,1.49,5.57,3.35,8.61,5.21,6.3-6.59,13.19-3.31,20.18-.65,3.44-5.19,8.45-4.22,13.31-3.27,3.62.72,6.88,2.5,10.86.15,1.71-1,4.85.38,8.19.78.34-1.09,1.61-3,1.12-4.08-2-4.59-1.61-9.24-1.28-13.95.06-.89,0-1.78,0-2.82-7.59-2-11.11-7.25-12.28-14.82-4.17-.1-5.69-3-6.79-6.53a20.66,20.66,0,0,0-2.74-5.27,11,11,0,0,1-1.36-10.87c1.56-3.87,3.38-7.63,5.2-11.67-1-2.52-2.38-5.29-3.3-8.19-1.64-5.17-1.19-10,2.72-14.24a7.11,7.11,0,0,0,2-3.67c.63-6,3.72-9.68,9.69-10.94,2.2-5.6,5.12-10.46,11.07-12.84,1-.4,1.44-2.32,2.09-3.57,1.77-3.35,3.33-6.83,5.32-10.05,1.47-2.37,3.81-4.27,6.72-4,3.45.25,4.65-2,6.4-4.13,2.15-2.63,4.44-5.37,7.24-7.2,2.29-1.49,5.41-1.7,8.95-2.7.72-1.37,1.83-3.43,2.9-5.51,2.14-4.15,5.15-7,10.13-7.11a8.52,8.52,0,0,0,6.9-3.74,25.61,25.61,0,0,1,4.12-4.33,8.56,8.56,0,0,1,8.16-1.87c4,1.21,7.47,0,10.7-2.44s6.75-4.93,10.17-7.34c1.33-.93,2.69-2.22,4.18-2.47,4.89-.8,7.06-4.76,9.91-8a24.35,24.35,0,0,0,1.4-2.33c2.67-3.82,4-4.07,8-1.55l1.63,1c1.39-1.32,2.71-2.78,4.23-4,3.62-2.81,6.26-2.24,8.41,1.73.6,1.1,1,2.3,1.48,3.42,8-2.7,8-2.7,14,8.66,2.75-.63,5.38-2.68,8.65-.54,1.09.71,3.67-.84,6-1.47-2.25-4.93-4.36-9.63-9.1-12.63-1.56-1-4.27-2-3.09-4.39s3.87-2.24,6.29-1.75a43.1,43.1,0,0,1,20.94,11c1.6,1.48,3.19,3,4.92,4.59,3.25-2,6.41-4.06,9.64-6a16.85,16.85,0,0,1,4.92-2.27c1.6-.31,3.37.21,5.06.36a21.69,21.69,0,0,1-.57,4.6,25.22,25.22,0,0,1-2.43,4.32c1.87,1.6,3.57,2.56,6,1.76s3.89.57,5.72,2.08c5.82,4.79,5.3,11.21,5.19,17.94a20.06,20.06,0,0,0,3,.41c5.61-.06,9,1.53,10.29,6.84,1.54,6.49,5.21,8.32,11.28,8.26,5.08,0,6.64,1.75,7.54,6.77.22,1.23.34,2.49.57,4.29,2.35.28,4.61.66,6.89.8,7.61.46,10.26,2.45,12.54,9.74.75,2.41,1.34,4.87,2.15,7.81h4.81c4.81,0,5.71,1.24,4.46,6-.27,1-.52,2.07-.83,3.29,2.89,2.13,7.87.88,9,5.24.86,3.28,1,6.75,1.45,10.19,6.3,3,7.08,4.75,4.82,11.39-.87,2.57-1.85,5.11-2.9,8,3.82,1.94,8.34,3.18,9.31,8.15.9,4.6-1.74,8-4.16,11.35,2,7.21,1.56,8-8.86,16.05,2.74,5.33-.06,9.13-4,12.54a56.89,56.89,0,0,0-4.54,3.91c-.9,1-1.89,2.36-1.88,3.55,0,3.34-1.81,5.45-4.1,7.3a27.13,27.13,0,0,1-5.06,3.19c-3.44,1.7-6,3.62-5.71,8.17.13,1.95-1.37,4.05-2.26,6-1.45,3.24-2.84,6.54-4.6,9.62a9.31,9.31,0,0,1-3.76,3.52,23.8,23.8,0,0,1-5.33,1.37l-6.43,8.47c-2.64-1.09-2.46-2.25-1.62-3.79,1.25-2.28,2.29-4.67,3.9-8l9.12-1.78c-.7-3.1.23-5.09,2.39-7.25,3-3,5.56-6.82,4.82-11.67-.39-2.6,1.24-4.06,3.15-5.26,2.61-1.65,5.34-3.11,7.9-4.82,1.94-1.29,3.87-2.54,3-5.67-.31-1.12.91-3,1.94-4.07,2.15-2.21,4.7-4,7-6.11,3.44-3.2,3.28-3.27,1.49-7.69a4.38,4.38,0,0,1,.7-3.73c1.15-1.33,3-2,4.39-3.17,1.9-1.53,3.68-3.23,5.86-5.18l-4.62-2.82c1-1.42,1.68-2.58,2.52-3.66a49.75,49.75,0,0,0,3.73-4.66c2.46-4.2,1.3-7.16-3.26-9-.51-.2-1.05-.3-1.56-.51-3.18-1.31-3.91-2.6-3-5.87.58-2.1,1.53-4.08,2.21-6.15.6-1.87,1-3.78,1.63-5.92a25.87,25.87,0,0,0-3.11-1.44,4.22,4.22,0,0,1-3.26-4.44c0-1.09,0-2.18,0-3.27-.12-5.7-.13-5.7-5.67-7.32-4.07-1.2-5-2.92-4.15-7.31.14-.7.3-1.39.43-2-.34-.38-.6-.86-.8-.84-6.17.59-8.75-1.39-9.51-7.65a27.21,27.21,0,0,0-1-3.69c-1.17-4.22-4-6.35-8.34-6.42-.91,0-1.81-.06-2.72-.1-7-.3-7.57-.82-9-7.59-.79-3.84-1-4.07-4.9-4.37-1.27-.1-2.55-.09-3.81-.19-4.23-.3-7.2-2.26-8.47-6.46a37.37,37.37,0,0,0-1.19-3.62c-1.68-4.06-3-4.81-7.52-4.32-5.7.61-6.58-.06-6.2-5.7s-.7-10.65-4.8-14.19c-3.33-.58-6.32-1-9.23-1.65-4.43-1.06-4.79-1.88-3-5.92a6.68,6.68,0,0,0,.83-3.59,87.43,87.43,0,0,0-8.06,4.91c-5.55,4.2-5.35,4.17-10.65-.61a115.64,115.64,0,0,0-11.16-8.67c-1.65-1.15-3.81-1.59-7-2.84,2.41,4.17,4.24,7,5.76,10.07a15.4,15.4,0,0,1,1.75,5.62c.23,3.31-1.28,4.27-4.66,3.77-1.14-.17-2.64-.25-3.46.34-2.45,1.75-4.36,1.19-5.93-.78a4.91,4.91,0,0,0-1.35.23c-4.83,3-5.58,2.72-7.77-2.62-.89-2.15-1.72-4.32-2.86-7.19l-7.52,3.75c-4.15-1.23-2.06-6.33-5.61-8.78l-7.32,7-5.44-3.94c-2.23,2.82-4.22,5.52-6.4,8s-4.5,4.65-8,5.31c-1.5.28-2.85,1.5-4.18,2.43-3.58,2.49-7.07,5.11-10.66,7.58-3.41,2.34-7.06,3.72-11.3,2.46-3.62-1.09-6.48.26-8.54,3.2-2.89,4.12-6.43,6.69-11.74,6.69-2.78,0-4.48,2.2-5.76,4.5-1.06,1.9-1.92,3.91-3,5.81s-2.72,3.53-5.21,3.31c-5-.43-8.16,2.37-10.78,6.11-.73,1-1.43,2.11-2.1,3.18-1.35,2.14-3.17,3.67-5.76,3.53-3.9-.2-6.1,2.06-7.68,5.07a56,56,0,0,0-3.36,8c-.75,2.17-1.62,4-4,4.75-4.38,1.41-6.69,4.78-8.08,8.92-.72,2.15-1.55,4-4.27,4.29-4,.37-5.64,3.24-5.83,6.72a8.3,8.3,0,0,1-2.4,5.73c-5.52,5.89-4.06,14.11,3,18,.29.16.46.55.86,1.05-.18.51-.21,1.47-.67,1.76-4.32,2.75-5.72,7.38-7.49,11.69a9.07,9.07,0,0,0,1,8.8c1.83,2.83,3.07,6,4.72,9.37l4.54-3.08c2.61,1.17,1.65,3.09,1.37,4.75-.6,3.59-.3,7,2.42,9.64a13.84,13.84,0,0,0,4.92,3c4.11,1.42,4.77,2.23,4.35,6.71a55.51,55.51,0,0,0-.58,7.58c.23,5.29,1.6,6.42,7,6.5a16.12,16.12,0,0,1,2,.27c2.61,3.39-1.15,6.72.13,10.28,4.42-.84,7.23-3.84,10.59-8.16.45,2.39,1.17,3.77.75,4.4a16.67,16.67,0,0,1-10.44,7.31c-3.08.7-4.85-.88-4.92-4.12,0-1.77.23-3.56.41-5.93l-5.78,7c-2-1-3.68-2-5.45-2.76-2.34-1-4.77-2.17-7,.27-1.34,1.48-2.78,1.19-4.46.6a56.43,56.43,0,0,0-7.83-2.26c-4.7-.91-5.28-.53-7.78,3.64a12.64,12.64,0,0,1-1.34,1.52c-1-.39-2.17-.78-3.27-1.25-1.83-.78-3.61-1.68-5.45-2.41-4.16-1.64-7.81-1.16-10.71,2.61a13.23,13.23,0,0,1-2.36,2C481.81,335,479,337,470.15,345.05c-8.31-6.11-15.86-5.15-23.17,3.78a26.13,26.13,0,0,0-1.59-3c-3.41-4.62-8.45-4.79-12.28-.4-1.36,1.56-2.59,3.24-4.47,5.61-4.26-7.8-8.24-14.91-18.23-14.18-.43,1.7-.86,3.33-1.3,5.06-.77,0-1.53.22-1.77,0-2.51-2.69-5.1-1.71-7.17.23a103.65,103.65,0,0,0-7.6,8.46,32.37,32.37,0,0,0-2.21,3.32c-3.24-1.21-6.44-3.79-9.66-1.06a102,102,0,0,0-7.33,7.57l-12.34.74c-3.54,2.58-2.72,6.14-2.47,9.23-.62.42-.94.82-1.2.79-5.35-.67-6.87.17-8.16,5.69-.71,3-1.72,4.61-5.11,3.76-2-.5-4.49-.39-5.15,1.8-.49,1.63.32,3.75.88,5.55.29.92,1.29,1.62,1.9,2.33-1,2.62-2.39,2.22-3.84.92-2.55-2.28-3.8-7.07-2.56-10,1.38-3.31,4.15-4.34,7.51-4.29.53,0,1.07-.09,1.89-.16a37.25,37.25,0,0,1,1.79-3.73c1.05-1.69,1.93-4.11,3.48-4.74,5.55-2.25,5.28-8.19,9.29-11.92-4-1.84-7-3.32-10.89-2.61-4.14.76-5.23-.77-4.24-5,.38-1.59,1-3.12,1.36-4.71.88-4-.07-5-4.05-4.37a21.31,21.31,0,0,1-2.67.52c-1.53.05-3.55.52-4.49-.25-1.79-1.47,0-3.26.63-4.87.87-2.12,1.7-4.26,2.41-6.07-2.54-3.34-6.74.94-8.67-3.17,1.54-4.33,8.13-5.77,7.48-11.69l-5.26-1.61c1.5-6.12,8.82-7.49,10-13.7-1.2-.8-2.42-1.53-3.54-2.38-2.89-2.19-2.65-4.08.63-5.53,4.13-1.84,8.36-3.51,12.33-5.66a19,19,0,0,0,5.23-4.66c1.7-2.05,1.59-2.82.82-6.54-.15-.09-.31-.27-.46-.27-2.08,0-4.51.73-5.23-2.29-.52-2.17,1.23-4.46,4.48-5.25,3.06-.75,5.95-1.08,6.8-5.08.19-.91,3-1.57,4.72-1.76,1.33-.15,2.76.61,4.72,1.12.95-2,1.93-3.87,2.74-5.8.74-1.77,1.3-3.61,2.28-6.37,1.7,1.5,2.74,2.31,3.64,3.24,2.45,2.55,3.48,2.72,6.62,1a10.38,10.38,0,0,0,5.24-6.61c.93-3.13,1.88-3.28,4.64-1.49,4.22,2.75,5.26,2.65,7.89-1.26A9.52,9.52,0,0,1,410,239c3.37-1.07,6.65-2.36,10.18-3.16,3.11-.71,4.91-3.51,6.47-6-2.51-4.69-2.51-4.71-7.75-4-1.89.25-2.59-.79-3-2.35-.38-1.38-.55-3-1.35-4.05-2.27-3.09-6.66-3.17-9.46-.38-1,1-1.93,2.05-2.8,3-2.48-2.18-4.4-4.73-7-5.91-3.53-1.65-5,2.8-7.48,3.86-.6-.14-1.05-.11-1.28-.32-5.11-4.68-6.76-4.77-12.91-1.24a49.67,49.67,0,0,1-6.42,2.58c-1.83-3.26-2.92-6.72-7.21-6-3.29.54-5.06,2.53-5.45,6-3.87.1-7.75-.21-10.82,2.7a3.76,3.76,0,0,1-2.6.44c-5-.49-8.27,2.26-10.86,5.95-1.28,1.83-2.35,3.23-4.78,2.07-2.69-1.28-4.23,0-5.85,2.19-3,4-4.22,3.84-7.22-.41a40.6,40.6,0,0,0-4.32-5.57c-2.26-2.22-4.27-2.15-5.85.46a9.83,9.83,0,0,0-1.41,6c.36,2.63,1.71,5.13,2.71,7.65.6,1.5,1.68,2.93,0,4.54a4.19,4.19,0,0,1-1.5.13c-5.08-1.41-7.16-.76-7.6,4.11-.5,5.6-2.89,6.85-8.11,7.34-8,.74-10.93,8.9-6.23,15.36a22.84,22.84,0,0,1,1.31,2.6,26.52,26.52,0,0,1-4.71,2.08,8.68,8.68,0,0,0-6.09,5,21.09,21.09,0,0,0-1.08,17.92c2.32,6.08,2.37,6.06-3.69,8.6a16.55,16.55,0,0,0,3.21,13.11c3.17,4.4,3.21,4.37-.63,8.16a9.86,9.86,0,0,0-.88,1.72c1.13,2.24,2.17,5.19,4,7.57,1.67,2.22,4.15,3.85,6.9,6.28-2.29,1.62-3.65,2.69-5.11,3.59-2.48,1.51-5,3-7.54,4.37s-3.6,3.69-2.54,6.43c2.3,6,4.66,12,11.73,14,.59.17,1,.89,2,1.81l-4.55,3.38c1.06,8.51,9.27,8.54,16,12-2.29,1.49-3.48,2.42-4.81,3.1-2.31,1.17-2.43,2.9-1.61,5,2.32,6,7.33,8.46,15.05,6.88l-1,7.65c3.52,2.49,6.87,5.62,12.05,4,1.4-.43,2.95-.22,3.45,1.94-1.41,2-3.58,2.47-5.94,2.9a6.55,6.55,0,0,0-5.36,4.93c2.63.22,4.92.24,7.13.65,1.28.25,3.17.9,3.45,1.78s-.78,2.56-1.63,3.57c-1.64,1.93-3.79,3.44-5.28,5.47-2.91,4-2.18,6,2.41,7.75,2.27.87,4.56,1.71,7,2.6-1.11,4.24-4.88,3.68-7,5.43s-4.51,3.61-4.54,7.17l6.55,2.81a41.56,41.56,0,0,1-2.66,3.54c-1.87,2-4,3.68-5.72,5.79-2,2.55-3,5.39-.61,8.45,1.95,2.53.72,4.72-.95,6.88a69,69,0,0,0-6,8.38c-2.75,5-2,6.28,3.68,7.71a9.84,9.84,0,0,1,1.86,1,16,16,0,0,1-1.34,3.15c-3.68,5.32-2.76,8.39,3.31,10.7.67.25,1.39.4,2.41.68-.32,4.36,2,6.77,6,8.22,2.25.82,2.06,2.78.53,4.41-1.12,1.19-2.47,2.16-3.55,3.38-.94,1.06-2.41,2.4-2.32,3.5.29,3.38-1.09,5.08-4.18,5.84a4.43,4.43,0,0,0-1.35.9C293.29,552.05,292.83,554.6,295.43,558.83Z" transform="translate(-258.93 -130.68)"/><path d="M463.46,603.65c-8.81-3.38-5.15-9.94-4.15-15.58a110.82,110.82,0,0,1-8.84-7.89c-1-1.1-1.32-3.28-1.2-4.92.15-1.94,1.09-3.82,1.8-6.08-2.08-2.76-3.49-6-2.37-9.82a1.33,1.33,0,0,0-.08-1.06c-3.48-4.61-1.41-9.32,0-14.29-1.77-.78-3.43-1.39-5-2.24-2.13-1.18-3.13-2.8-2-5.4,1-2.38,1.63-4.93,2.42-7.41-7-2.36-7.8-3.52-9.18-12.34-3.41-.92-6.93-1.23-9.79-2.79-3.42-1.86-3-5.87-3-9.24-9.08-2.09-10.58-1.61-18.44,5.78.38,1.11.77,2.22,1.19,3.42-.79.31-1.35.77-1.73.65-2.9-1-4.77-3-6.11-6.27l5.71-2.05c.32-1.1.65-2.27.93-3.24l8.46-2.36c-.59-3.39-1-6-1.55-8.86-4-.26-8.45.76-10.38-4-1.27-3.16-1.17-6.25,1-8.95,2.6.4,2.12,1.82,2,3.33-.52,5.43.74,6.53,6,5.52,4.61-.88,5.08-.53,5.38,4a23.49,23.49,0,0,0,.2,3.26,6.1,6.1,0,0,0,7.51,4.89c1.21-.24,2.43-.4,4.47-.73-.24,2.36-.36,4.23-.65,6.08-.85,5.41,1.9,8,7.2,6.74,1.05-.26,2-.8,3.08-1.08s2-.38,3.8-.69c-.29,2.05-.6,3.57-.71,5.09a18,18,0,0,0,0,5.34c.92,3.86,2.76,4.47,6.24,2.5a10.5,10.5,0,0,1,1.92-.9c.29-.09.68.14,1.77.4-.22,2.76-.46,5.66-.69,8.63,5.23,2.58,9.65-1.45,15.25-1.22-.34,1.51-.51,2.77-.9,4-1.39,4.12-.41,6.18,3.72,7.35,3.88,1.09,7.55.19,11.14-1.32,1.55-.65,3.17-1.16,5.43-2,0,1.83.07,2.68,0,3.52-.38,4.22.35,5.1,4.58,5.09,2.16,0,4.31-.23,6.28-.35,4.48,6.54,11.83,8.38,18.56,4.88,6.1-3.18,7.19-2.7,8.86,3.88a16.55,16.55,0,0,0,.79,1.91l6.19,1c2-2.89,2.32-5.5.27-8.21a1.87,1.87,0,0,1-.26-.48c-1.81-5-1.69-10.4-2.74-15.58-.81-4,2.18-7.54,4.87-10.56a47.62,47.62,0,0,1,4.31-4l4.4-12.86c-.53-1.15-2.15-3.05-2.11-4.92,0-2.4,1.42-4.76,2.24-7.18-1.09-2.07-2.76-4.26-3.35-6.72-.36-1.47.68-3.55,1.64-5,1.08-1.62,2.39-3.92,5.58-1.63-.9,1.22-1.73,2.27-2.49,3.38-1.78,2.59-1.54,4,.92,5.95,3.32,2.61,3.29,2.59,1.11,6.46-.85,1.52-1.49,3.16-2.39,5.1,1.53.53,2.49.84,3.45,1.2,2.07.79,2.13,2.27,1.21,3.94a11.48,11.48,0,0,1-1.68,2.14c-2.7,2.95-5,6-1.82,10.3-1.42,1-2.57,1.78-3.74,2.55a19.85,19.85,0,0,0-7.72,8.94c-.93,2.19-1.83,4.3.8,6.29.78.59.91,2.65.64,3.88a12.26,12.26,0,0,0,1.18,8.36c1.08,2.26.95,5.09,1.47,8.45l2.85,2.14-2.88,2.73c.84,1.28,2.18,2.49,2.4,3.89.17,1.1-1,2.42-1.69,3.81l5,2.64-5.43,8.67,6,2c-2.6,2.87-4.53,5-7,7.7,1.69.5,2.6.55,3.22,1a4.64,4.64,0,0,1,1.85,2.25c.12.47-.94,1.37-1.62,1.87-1.23.88-2.57,1.6-4.08,2.52.75.94,1,1.6,1.37,1.66,3,.5,3.13,1.95,1.56,4.15a31.37,31.37,0,0,0-3.33,4.93c-1.55,3.35-1,4.13,2.57,5.4a33.88,33.88,0,0,1,3.39,1.67l-2.85,4.75c-3.22,5.31-2.73,7.42,2.64,10.34,1.73.95,3.66,2.18,2.5,4.07-2.34,3.83-.76,6.38,2.45,9.09a25.59,25.59,0,0,1-2.66,3.36c-1.35,1.21-3,2.11-4.37,3.25-4,3.21-4.2,4.38-1.6,8.68.74,1.22,1.51,2.42,1.92,3.1-1.62,3.29-3.49,6-4.22,8.9s.64,3.61,6.79,5.12c-.55,1.82-1.14,3.6-1.63,5.41-1.06,3.9-.86,4.15,3,5.7.72.29,1.66,1.05,1.73,1.67a2.94,2.94,0,0,1-1.28,2.06c-5.41,4-5.63,5-1.92,11.22l-5.76,4.09c.76,1.32,1.42,2.49,2.1,3.68-1.94,2.8-6.78.9-7.56,5.36-.63,3.68.61,6.3,3.92,8.41l-5.19,4.2c3,1.08,5.3,1.94,7.64,2.75s3.43,2,2.45,4.5c-.91,2.27-3.07,4.48-.57,6.93,2.67,2.61,5.82,2.62,9.11,1.29.83-.34,1.68-.62,2.43-.89,9.31,7.26,13.9,7,20.71-1.42a15.3,15.3,0,0,1,2.68,1.35c4.89,3.76,8.78,3.4,12.52-1.41,1.22-1.57,2-3.44,3.14-5.1a19.64,19.64,0,0,1,2.09-2.29,6.87,6.87,0,0,1,1.72.66c1.77,1.38,2.84,4.4,5.69,3.33,3.49-1.31,6.46-3.75,7.23-7.54.42-2.08.54-3.6,2.73-4.68.93-.45,1.34-2.45,1.54-3.81a33.11,33.11,0,0,0,.17-6c-.12-2.91-.86-5.55.58-8.72,1-2.24-.56-5.92-1.59-8.74-1.48-4.06-1.76-4,1.42-7,1.44-1.36,1.69-2.77.74-4.37-.83-1.4-1.84-2.68-2.75-4-1.82-2.7-1.64-3.31,1.37-4.84.64-.32,1.31-.58,1.92-.84,1.29-3.2-.82-5.31-2.14-7.59-2.36-4.1-2.48-4.17,1.18-6.73,1.85-1.29,2.34-2.63,1.28-4.57-.26-.48-.56-.94-.81-1.42-2.81-5.22-2.83-5.29,3.08-7a4.21,4.21,0,0,0,3.34-4.38,78.64,78.64,0,0,0-.82-8.64c-.25-2.08-.67-4.14-1.09-6.64h5.91c.6-3.61-2.11-5.11-3.69-7.15-2.81-3.62-2.59-4.52,1.76-5.88,4.86-1.51,6.31-3.53,5-8.46a37.62,37.62,0,0,0-3.94-8.88c-2.51-4.41-2.55-4.56,2.37-6,.3-.08.52-.45,1.18-1.06-.78-2.14-1.76-4.45-2.47-6.83-1.38-4.69-.46-6.47,4.12-8.44,5.17-2.23,6.23-4.38,4.83-9.78-1.16-4.45-1.16-4.45,3.82-5,3.22-.34,4.11-1.52,3.43-4.68a21.63,21.63,0,0,0-.74-2c-1.88-5.45-1.87-5.45,3.82-6.68,1.24-2.33,1.79-5.67,5.94-4.75.47.11,1.42-1.67,2.07-2.63a23.37,23.37,0,0,1,2.26-3.48,2.46,2.46,0,0,1,2.39.08,2.43,2.43,0,0,1,.47,2.3c-1.62,3.3-2.46,7-7.13,8.13-2.21.54-3.83,3.53-5.67,5.35,1.31,9.06.9,9.92-5.52,12.62-.93,3.56-1.06,7.28-2.81,9.92-1.64,2.48-5,3.83-8.11,6,.64,1.81,1.3,4,2.2,6.14,1.53,3.59,1.84,6.78-1.91,8.55,1.26,4.68,2.89,8.94,3.47,13.35.65,4.88-2.27,8.17-6.86,9.76,5.56,9.42,5.47,10.46-1.22,14.6.71,7,3.84,15.09-6.5,19,3.5,4.77,2.94,9-1.56,12.45,2.33,5,6.58,9.85,0,14.89,3.16,4.71,4.54,9.38-.46,13.48.8,2.45,1.66,4.65,2.22,6.93.39,1.55,1,3.5.43,4.77-1.71,3.72-.85,7.46-.83,11.21,0,9-4.68,15.75-11,21.47-3.51,3.16-7.56,3.07-11.22.06-7.79,10-11.3,11.32-19.89,7.39-1.55,1-3.08,2.37-4.88,3a28.57,28.57,0,0,1-6.88,1.38c-4,.4-7.12-2-10.61-3.46-3.05-1.3-7.21.22-10.51-.77-5.39-1.61-6.49-5.21-4.84-12.67-1.77-.72-3.65-1.33-5.4-2.21-3.06-1.56-4-3.46-2.78-6.7.71-1.85.43-3.35.27-5.15-.23-2.6-.24-5.65.91-7.85,2.14-4.07,5.19-7.67,8-11.61-.16-1.26-1-3-.42-4,2.82-5.55.06-11.29,1-17.44-2.74-1.65-5.79-3.92-5.36-7.73.38-3.32,1.8-6.52,2.93-10.38-3.57-7.74-3.57-7.74,6.47-17.48-2.93-2.65-2.6-6-1.18-9.19-7.47-5.15-8-7.29-4.37-16.74-4.94-4.3-5.33-5.82-2.59-12.18.67-1.58,1.29-2.86.19-4.5a3.29,3.29,0,0,1-.39-2.6c2.22-5.86,1.35-12,1.78-18,.17-2.27,1.33-4.46,2.19-7.15-1.27-2-4.22-3.9-2.27-7.7.55-1.08-1.36-3.43-2.06-5-9.52-1.49-9.52-1.49-12.22-8.28l-11,3.24c0,2-.57,4.59.14,6.75.92,2.77.69,4.92-1.22,6.81,3.11,5,3.11,5,.38,9.58,1,.85,2.16,1.71,3.23,2.63,2.79,2.37,5.93,13.4,4.36,16.55-.81,1.65-2.59,2.82-4.11,4.39-.8,3.76,1.18,9.3-4.2,11.05-3.76,1.22-7.08,6.15-11.89,1.92-2.44,2.48-3.75,7.3-7.95,5.16-2.61-1.33-4.28-4.5-6.85-7.38-2.75.7-6.38,1.13-8.58-2.94a1.17,1.17,0,0,0-.85-.56C463.16,611,463.42,607.16,463.46,603.65Zm39.46-28.29c-3.17-4.5-3.17-4.5-.57-8.8-.56-1.79-1.8-3.62-1.34-4.7,1.77-4.12-1.08-5.5-3.59-7.27-1.88-1.33-3.69-2.74-5.84-4.35-5.14.43-10.75.88-12.82-5.42-4.79,0-9.19.58-13.36-.16-4.71-.82-7.26-4.45-7.29-9.3-3.74,0-6.95,0-10.16,0-2.28,0-2.58,1.35-2.58,3.27,1.19.42,2.21.75,3.2,1.14,3.77,1.44,4.27,2.34,3.41,6.1-.17.7-.39,1.4-.62,2.09-.9,2.83-1.45,5.47.78,8.19.8,1,.53,3.13.21,4.62-.58,2.62,0,4.23,2.73,4.94.58.16,1,.84,1.49,1.24l-4.15,10.15c5.63.59,5.65,6.79,10,8.47.59.22.74,2.28.65,3.46a32.59,32.59,0,0,1-1.09,4.21c-1.15,5.07-.31,6,4.92,5.55.28,0,.59.36,1.38.86-.28,2-.6,4.2-1,7,4-1.27,5.44,1.19,6.62,4.19l5.89-1.13c3.31,2.33,2.57,7,6.54,8.77,1.4-2,2.35-4.88,4.1-5.52,2-.72,4.7.56,6.54.87l7.41-5.11V597.39l5.51.79c-.73-2.53-1.19-4.38-1.8-6.16-.41-1.16-1.7-2.41-1.46-3.33.64-2.44-.9-3.21-2.36-4.32C499.85,581,499.76,580.3,502.92,575.36Z" transform="translate(-258.93 -130.68)"/><path d="M758.67,581.67l6.51-2.59c-1.17-2.09-2-3.82-3-5.35a50.12,50.12,0,0,0-3.63-4.21l6.71-7.38c-1.41-1.31-2.52-2-3.11-3s-1.1-2.55-.67-3.28,2.06-1,3.2-1.13a6.8,6.8,0,0,1,2.48.81,9.35,9.35,0,0,0,3.22-10.87c-1.22-3.61-3.63-6.81-5.88-10.83h11.25l-1.13-5.26c3.66-.74,7.59,1.1,10.24-2.53s-.43-6.45-1.43-10.4c2.14,0,3.81.05,5.48-.08,4.91-.38,8.33-4.59,7-9-.48-1.52-2.05-2.71-3.19-4-.88-1-1.88-1.84-2.82-2.76l3.14-2.94c-1.17-5.05-6.87-6.94-9.32-11.71,2-1.57,3.94-3,5.89-4.56-2-5.6-8.36-4.45-11.26-8,1.64-3.33,3.75-6.38,4.62-9.74,1-4-3-6.19-5.18-9.42,3.42-1.76,7.37-2.67,7.43-7.46.05-4.09-2.11-6.71-5.53-9,.94-1.06,1.6-1.83,2.29-2.56,2.51-2.69,3-5.09,1.65-7.88-1.53-3.12-4.23-4.37-7.93-4.07-1.26.1-2.59-.56-3.88-.87l1.62-4.78-3.2-2.95c2.49-2.34,1.69-5,.36-8.16a20.88,20.88,0,0,0,4.08-.27c2-.61,4.23-1.11,5.83-2.35,2.41-1.87,2.32-3.58.51-6.55s-1.41-3.95,1.86-4a4.69,4.69,0,0,0,5.07-4.58c.32-4.72,1.63-9.61-1.13-14.21-1.71-2.86-3.3-5.6-6.69-6.81-1.08-.38-1.92-1.44-3.81-2.94,2.06-.47,3.18-1.09,4.11-.87,5.78,1.35,11.57,8.76,12,15.46a52.23,52.23,0,0,1-.4,9.76c-.45,3.44-3.49,5.37-5.26,8-1.57,2.37-1.25,6-2.71,8.46-1.06,1.82-3.6,2.85-5.59,4.05-2.76,1.67-3.28,3-1.41,5.62a19,19,0,0,0,4.39,4.63c7.11,4.8,8.33,8.94,4.67,17.12,4.26,9.11,4.12,11.76-1.26,18.84,2.84,5.1,3.08,10.44-1,15.83,1.58.87,2.94,1.61,4.28,2.36,6,3.38,6.66,6.78,2.45,12.1a4.81,4.81,0,0,0-.42,1.16c.8.87,1.62,1.82,2.51,2.71,5.35,5.3,5.57,12.63,7.22,19.28.93,3.77-1.66,6.94-5,9a48.89,48.89,0,0,1-4.9,2.26,10.89,10.89,0,0,1-.07,3.41c-.65,2-1.18,4.49-2.65,5.73-4.41,3.73-9.25,6.95-14.21,10.58.25.78.76,2.11,1.12,3.48,1.46,5.48.51,10.42-3.39,14.69a10.74,10.74,0,0,0-2.25,2.92c-1.22,3.09-2.2,6.28-3.54,10.18,2.4,3,5.54,6.81,2.26,11.4,2,3.47,4,6.45,5.49,9.67,1.59,3.48.2,6.73-1.88,9.53,4.71,8.57,4,10.73-6,16.51,4.06,5,3.31,11.93,7,17.27,2.11,3-.16,5.88-1,7.36v10.76c2.83,3.25,6.53,4.79,11.86,3,5.85-1.91,10.21,1.68,12.28,9.35,4.28,1.26,8.28,3.24,9.8,8.18.18.6,1,1,1.52,1.52,4.37,4.54,4.46,5.27,1.33,11,3,5.15,3.32,10.14-1.27,14.82-.76.77-.81,2.29-1.1,3.49-1.5,6.26-5.49,9.9-11.91,10.84-4.16,6.44-5.85,7.15-13.15,5.41-3.2,3.47-6.7,6.62-12.17,4.57-.49-.18-1.34.4-2,.75-5.25,2.9-10.09,2.43-14.42-1.72-7.63,3.7-8.23,3.59-14.56-2.67-7.28.42-8.49-.37-11.37-7.15a4.7,4.7,0,0,0-1.87-2.36,5.32,5.32,0,0,1-3.31-4.63c-.12-1.63-.55-2.63-2.2-3.25-2.11-.8-2.41-2.5-1.55-4.48.51-1.15,1-2.32,1.61-3.8a42.1,42.1,0,0,1-3.86-2.82c-1.07-1-2.64-2.08-2.74-3.24-.44-5.12-4-7.3-7.89-9.3-.77-.39-1.26-1.29-1.92-1.91-2.56-2.41,0-6.43-3.07-8.9s-1.78-6-1.45-9.16c-4.94-5.07-5.07-5.5-3.82-12.87-3.94-2.92-3.85-6.86-1.84-11.28-5.05-4-4.53-9.08-2.64-14.07-5.52-7.06-5.45-8.93.52-21.7-2.12-1.53-5.08-2.63-6.11-4.7s-.24-5.18-.24-8.12c-2.76.87-5.62,2.56-8.37,2.39-2.48-.15-4.83-2.34-7.87-4-7.23,2-7.84,1.88-11.65-3.17l-8-.69c-2.3,1.61-5,3.68-7.94,5.51a12.18,12.18,0,0,1-10.5,1.11c-.56-.18-1-1.36-1.09-2.1,0-.42,1.08-1.37,1.46-1.26,8,2.17,12.31-3.64,17.27-8a16.28,16.28,0,0,1,2-1.24l3.51,2.89c.71-.25,1.58-.48,2.38-.85,2.46-1.13,4-.76,4.88,2.15,1.07,3.34,1.93,3.55,5.19,2.24,1.17-.47,2.2-1.27,3.35-1.81,1.79-.84,3-.31,4,1.49,2.41,4.55,3.29,4.79,7.63,2.31.6-.34,1.09-.91.9-.75-1-5.83-1.82-11-2.67-16.22,3.72-1.45,5-.82,4.91,2.4-.06,2-.58,4-.46,6,.23,3.48,1.67,4.35,5.08,3.56,2.43-.57,4.87-1.1,7.29-1.65,1,4,0,6.37-3.93,8.6-1.86,1.07-3.23,2.16-3.89,4.2-.74,2.32-.16,3.93,2.25,4.66.86.26,1.79.32,2.66.57,3.56,1.05,4.06,2.22,2.31,5.52-1.19,2.24-2.66,4.35-3.66,6.67-2.65,6.13-2,8,3.85,11.69a84.36,84.36,0,0,0-2.33,8.6c-.71,4.18,3.85,4.1,6.12,6.26a19.66,19.66,0,0,0-2.25,3.26,10.24,10.24,0,0,0-1.06,4.46c0,.43,2.34.69,3.61,1.06.66.19,1.32.42,2.54.81-.78,1.27-1.31,2.3-2,3.23-3.61,4.93-2.59,7.83,3.25,9.19a9.07,9.07,0,0,1,1.93.83c.13.06.19.29.54.89-.64.75-1.38,1.63-2.13,2.5-2.9,3.37-2.09,6,2.14,6.94,1,.23,1.9.64,2.91,1-.18.87-.12,1.5-.41,1.86-3.38,4.16-3.19,5.62,1.63,8.06,3.34,1.69,6.5,3.1,6.17,7.83-.09,1.2,1.49,2.87,2.71,3.75,5.22,3.79,5.28,3.71,4,9.34l4,1.59c-.36,2.14-.69,4-1,6,1.73.1,3.58-.32,4.53.43.73.57.43,2.6.39,4a6.34,6.34,0,0,0,3.48,6.08c.75-.5,1.6-1.08,2.46-1.63,1.51-1,2.74-.58,3.73.82.52.75,1,1.55,1.52,2.26,3.29,4.15,4.81,4.22,8.74.54.88-.84,1.9-1.54,3-2.39,2.64,2,2.51,6.31,6.92,6.31,3.86,0,5.83-2.41,8.06-4.64a7.39,7.39,0,0,1,1.69.69c2.93,2.29,4.56,2.34,6.62-.36,1.07-1.39,1.49-3.25,2.34-4.83a10.64,10.64,0,0,1,1.65-1.89c6.07,6.92,7.15,6.68,11-2.29,2.67-1.15,6.79,1.91,8.5-2.44,1.08-2.73,1.85-5.59,3.18-9.69,1.53-.81,4.85-2.65,3.44-6.5-1-2.82-3.32-5.19-5.26-8.07l4.9-1.71c.56-3-1.22-4.18-3.31-4.94-4.2-1.52-4.22-1.46-3.24-6.29l-9.24-2.71c-.9-2.39,2.66-5.75-1.78-7.75-2,1.85-4.3,2.15-7,.44-.93-.59-2.72.15-4.1.37-.3,0-.54.46-.81.7-1.43,1.33-3.29,2.41-4.8,1-1-.94-.87-3-1.54-5.76-1-.33-3.19-1-5.3-1.79a12.32,12.32,0,0,1-2.44-1.7c.6-.76,1.06-1.89,1.84-2.19,1.77-.67,3.89-1.23,3.49-3.41-.21-1.15-2.12-2-3.24-3a13,13,0,0,1-1.06-1.5,17.82,17.82,0,0,0,3.49-2.65c1-1.16,2.13-2.84,1.91-4.06s-2-2.08-3.25-3c-.39-.29-1.22,0-1.56-.34-1.11-1-2.09-2.16-3.11-3.26,1-.83,2-1.68,3.1-2.48a14.33,14.33,0,0,1,1.68-.89c-2.28-4.55-4.5-9-7.06-14.07a27.82,27.82,0,0,0,3.78,0c1.88-.32,4-.38,5.55-1.32,3.18-1.9,3.15-4.59.3-7.09-.41-.35-.9-.61-1.32-1-1.18-1-3.25-1.85-3.34-2.9-.2-2.38,2.13-1.55,3.62-1.92,2.64-.67,3.08-2.92,2.66-5.22a11.38,11.38,0,0,0-6.51-8.24c-1.49-.76-3-1.57-4.45-2.36Z" transform="translate(-258.93 -130.68)"/><path d="M704.07,349.14c-2.94.24-4,1.65-4.69,3.77a9.94,9.94,0,0,1-2.51,4.09c-3.42,3.13-8.17,1.62-9.33-2.87-.5-1.93-.59-4-1.16-5.87-.75-2.46-2.3-2.45-4.22-.83A56.13,56.13,0,0,1,684.6,355c.26,1.39-.12,3.66-1.06,4.33-1.23.88-3.78,1.32-4.93.61a20.51,20.51,0,0,1-6.67-6.15c-4.25-6.88-.45-18.59,6.91-22s14.83-2.61,22.39-.75c4.9,1.2,9.28,2.93,12.16,7.49,2.67,4.22,2.19,14-1.39,17.43a10.49,10.49,0,0,1-4.71,2.44c-3.64.84-5-.77-4.26-4.53C703.35,352.35,703.7,350.84,704.07,349.14Z" transform="translate(-258.93 -130.68)"/><path d="M630.93,392.06c0,1.78,0,2.85,0,3.9.24,4,1.3,4.77,5.06,3.73,4.08-1.12,4.08-1.12,5.7,2.4,1.94,4.23,1.94,4.22,6.31,2.36a6.41,6.41,0,0,1,1.79-.17c1.79,2.63.12,4-1.93,4.94-3.74,1.77-6.42.28-10.22-5.49-7.44,1.19-8.25.67-11.28-7.57-3.51-.5-8.19,0-9.66-4.19-1.12-3.19-.6-7-.86-11.44-3.75-2.57-4-7.26-2.7-12.75-5.34-3.29-5-8-2.83-13.17a4.3,4.3,0,0,0-.23-3.41c-1.52-2.5-1.05-4.8-.15-7.29.77-2.12,2-3.94,1.54-6.64s7-9.12,9.93-9c1.92.09,3.49.93,3.31,3.48A28.2,28.2,0,0,0,619.6,333a5.32,5.32,0,0,0-2.66,2.61c-1.49,3.84-2.68,7.81-4.12,12.13,3.5,2.3,2.94,5.14,1.11,8.6-2.16,4.1-1.65,4.61,1.41,7.85a7.46,7.46,0,0,1,1.47,4.23,47.11,47.11,0,0,1-.31,5.41,10.46,10.46,0,0,0,.44,2.27l5.19,1.71c-.7,2.2-1.36,4.18-2,6.18-1.86,6.26-.19,8.35,6.44,8.11C627.85,392,629.08,392.06,630.93,392.06Z" transform="translate(-258.93 -130.68)"/><path d="M665.38,245.74c-2.85-5.19-5.14-10.67-12.1-11.82-.77,1.37-1.59,2.8-2.65,4.67-1.21-1.07-2.08-1.89-3-2.63-3.11-2.47-6.12-5.1-9.44-7.27a9.33,9.33,0,0,0-5.17-1.11c-2.5.08-2,2.56-2.69,4.13-.19.45-.77.73-1.34,1.23-3.32-1.49-6.3-4.45-10.84-3.11-.43,1.44-.92,3.09-1.6,5.35-1.82-.38-3.5-.87-5.21-1.05a18.08,18.08,0,0,0-5.86-.14c-2.94.67-4,2.78-3.38,5.77.84,4.45.83,4.42-3.45,6.7a14.06,14.06,0,0,0-3.11,2.16c-2.9,2.79-2.8,5.87.16,8.83a11.07,11.07,0,0,1,1,1.22c.09.12,0,.35.07.53-2.42,1.94-4.58,1.54-6.24-1.16a9.67,9.67,0,0,1,1.36-11.15,60.48,60.48,0,0,1,5.94-4.93c.2-10.39,3.45-13.09,14.67-11.88,4.8-5.43,5.13-5.51,14.3-3.19,5.38-4.32,8.33-4.62,14.25-1,2.63,1.58,5,3.53,7.85,5.51,5.42-2.84,9.87-.33,13.67,3.71C665.24,237.88,667.83,241,665.38,245.74Z" transform="translate(-258.93 -130.68)"/><path d="M747.89,273.89c-.32,6.07-3.57,10.09-9.15,11.28-4.93,1.05-11.86-2.33-14.25-7-2.21-4.28-.77-11.14,3-14.48a3.5,3.5,0,0,1,.43-.33c4.75-3,9.52-1.37,14,.43C746.23,265.55,748.06,269.27,747.89,273.89Z" transform="translate(-258.93 -130.68)"/><path d="M656.6,272.6c-.73,5.77-2.7,8.92-7.09,10.49-5.82,2.07-11.4,1.16-14.34-2.91a11.41,11.41,0,0,1-2.09-6.44,17.92,17.92,0,0,1,2.06-7.17c2.2-4.64,8.46-7.62,13.4-6.4a6.51,6.51,0,0,1,3.83,2.68C654.05,266,655.22,269.33,656.6,272.6Z" transform="translate(-258.93 -130.68)"/><path d="M762,340.42c6.14,7.77,6.15,8,.72,14.66,4.66,4.9,1.32,8.75-2.29,12.7,2.52,4.74,3.55,9.35-2.35,12.52,1.31,6.07-.34,10.61-6,13.34a3.61,3.61,0,0,0-1.29,2.19c-2.11,7.87-2.68,8.42-10.57,9.5a23.05,23.05,0,0,1-2.72,3.72,5.88,5.88,0,0,1-3.33,1.5c-2,.16-3.89-2-3-3.43.46-.77,2.23-.76,4.19-1.32,1.16-2.62,3.37-5.08,7.74-4.71,2.33.2,3.71-1.78,3.79-3.89.14-3.8,1.42-6.39,5.11-8a4.6,4.6,0,0,0,2.45-6c-1-3-.82-5.27,2.34-6.79a2.67,2.67,0,0,0,1.2-4.14c-2.65-3.79-1.55-6.71,1.56-9.47a12.38,12.38,0,0,0,1.64-2.61c-5.05-4.38-2.91-8,2.07-11.28a43,43,0,0,0-3-4.22c-2-2.19-4-4-1.85-7.53.69-1.12-.74-3.66-1.44-5.45-.29-.78-1.36-1.24-1.76-2a12.23,12.23,0,0,1-.75-2.81c1.13,0,2.61-.37,3.35.19,3.53,2.71,4.95,6.53,4.77,10.92A12.13,12.13,0,0,1,762,340.42Z" transform="translate(-258.93 -130.68)"/><path d="M749.45,235.08a11.56,11.56,0,0,1-1.68-.86c-5.38-4.23-9.06-4.31-14.51-.24-.73.54-1.36,1.2-2,1.79-1.69,1.44-3.41,2-5.34.38-2.36-2-4.39-1.1-6.11.91-1.42,1.64-2.61,3.47-4,5.13a26.22,26.22,0,0,1-3.08,2.55c-.51-5.73,2.81-8.42,5.58-11.17,3-3,4.55-2.9,10.07-.63,6.41-4.72,13-8.84,21.12-2.82,1.31-.6,2.58-1.29,3.92-1.76s2.84-1.18,4.18-1c4.66.53,9,2.93,13.81,2.61,3.15,3.39,7.24,5.53,10.84,8.27,3.78,2.88,4.09,7.94,3.34,12.59-.42,2.65-1.67,3-5.66,1.73a9.12,9.12,0,0,0,1.39-8.89c-1.3-4-4.37-4.33-7.95-4.28l-1.41-2.88c-1.62-3.34-2.3-3.75-5.82-2.55-2.3.78-4.2,1.16-5.47-1.51-.94-2-2.7-1.75-4.22-1.07C754.12,232.39,752,233.71,749.45,235.08Z" transform="translate(-258.93 -130.68)"/><path d="M716.28,398c5.25,4.45,5.66,10.25,2.18,13.83a12.1,12.1,0,0,0-2.06,3.59c-1.85,4.08-3.63,5.09-7.66,3.22-3.45-1.6-6-1.44-8.82,1.27s-6.15,2.76-9.53.81c-2.18-1.26-4.41-2.44-6.93-3.83-4.79,4.63-9.68,4.81-14.69,0-.77.32-1.54.7-2.35,1-3.83,1.3-6.16.31-6.84-3.55a13.47,13.47,0,0,0-2.87-6.09,7.28,7.28,0,0,1-1-7.72c.31-.66,1.64-1.55,1.92-1.38.77.46,1.9,1.71,1.72,2.17-1.27,3.15.41,4.91,2.3,7.12,1.26,1.47,1.3,4,2,6.43a26.16,26.16,0,0,0,2.85-1.39c1.85-1.17,3.22-.66,4.86.67,4.2,3.42,4.35,3.44,8.92.41a5.34,5.34,0,0,1,6.07-.38,11.66,11.66,0,0,1,1.45.75c4.36,3.21,8.51,4.55,12.84-.32,1.44-1.61,3.89-1.78,6.14-.79,1.46.64,3,1.11,4.48,1.65a100.15,100.15,0,0,0,5.47-8.64c.57-1.1,0-2.81-.13-4.25C716.55,401.41,716.46,400.28,716.28,398Z" transform="translate(-258.93 -130.68)"/><path d="M692.86,370.55c-.64,3.28-1.19,6.09-1.89,9.62,1.89.63,3.94,2,5.79,1.8,3.64-.44,5.89.88,7.66,3.76.26.42.83.65,1.43,1.1.95-.28,2-.62,3-.86.69-.17,1.82-.54,2.07-.24,3,3.55,7.38,3.5,12.06,3.8-3.08,3.86-7.13,4.57-10.59,2.19-1.79-1.23-3.23-2-5.41-1.4-2.38.6-4.26-.59-5.57-2.53-1.14-1.71-2.68-2-4.61-2.26a67.6,67.6,0,0,1-8.32-2c-2.25,1.33-5.68,2.18-7.81,5.61-.84,1.35-4.31,1.71-6.45,1.45-2.55-.33-4.42-.13-6.49,1.52-2.73,2.18-9,1.82-11.71-.36-.41-.34-.34-1.25-.51-1.95.72-.33,1.24-.8,1.65-.72,4.17.75,8.11,1,11.7-2.08.87-.74,2.77-.33,4.2-.31,1.6,0,3.2.23,5,.36,1.54-3,2.87-5.64,6.87-6,2.69-.26,3-3.71,3.56-6.19C688.91,372.65,689.12,370.31,692.86,370.55Z" transform="translate(-258.93 -130.68)"/><path d="M804,273.12c-6.21-5.15-6.74-7.86-2.64-13.4,2.19-3,3-3.12,5.62-1.28-1.73,2.57-3.47,5.15-5.13,7.63,6.87,6.32,6.87,6.32,3.36,16.48l1.37,1.46c3,3.22,3.32,4.91,1,8.66-2,3.23-4.33,6.25-6.46,9.29,3.32,6.16,2.1,12-3.49,16.13-2.81-4.18,1.82-6.88,2-10.33-3.77-5.24-3.76-5.23.22-10.73q2.55-3.54,5-7.16a5,5,0,0,0,.36-1.58,8.33,8.33,0,0,0-1-1.31c-3.65-3.23-3.69-3.36-1.92-7.75.67-1.67,1.33-3.35,1.93-5.05C804.3,273.88,804.1,273.48,804,273.12Z" transform="translate(-258.93 -130.68)"/><path d="M563.35,315c3.88-2.93,2.81-5.92.52-9.28-.89-1.31-.88-3.49-.71-5.21a34.09,34.09,0,0,1,1.6-6.87,8.94,8.94,0,0,0-1.14-8.22,9.17,9.17,0,0,1,5.58-14c1.44-.38,2.93-.5,3.45,1.91a45.76,45.76,0,0,0-4.42,2.59c-3.27,2.41-3.8,4.52-1.45,7.74a11.22,11.22,0,0,1,1.61,10.79c-.45,1.37-.65,2.83-1.1,4.2a8.14,8.14,0,0,0,.93,7.2,12.45,12.45,0,0,1,1.48,6.69C569.51,315.88,566.84,316.88,563.35,315Z" transform="translate(-258.93 -130.68)"/><path d="M784.63,319.1c-2.8.83-3.7-.55-4.33-2.11a10.33,10.33,0,0,1,.21-8.95c1.61-3.05,2.15-5.8.41-9.18-1.63-3.14.48-7.58,3.68-9.12.49-.24,1.29.17,2.29.34a11.15,11.15,0,0,1-1.13,2.68,5.72,5.72,0,0,0-.75,7,8.82,8.82,0,0,1,.57,5.22c-.44,2.45-2,4.76-2.19,7.2C783.2,314.34,784.14,316.62,784.63,319.1Z" transform="translate(-258.93 -130.68)"/></svg>