<svg data-name="Layer 1" xmlns="http://www.w3.org/2000/svg" viewBox="0 0 518.38 634.86"><path d="M78.47 242.92c-10.28 2.34-18.7 1.72-21.47-10.24-3 .58-5.67 1.26-8.34 1.56a54.91 54.91 0 0 1-10.3.61C26.86 234 20.22 223 24.51 212.29c2.35-5.9 6.52-10.44 11.33-14.43 1.54-1.27 3.14-2.47 4.88-3.83a17.64 17.64 0 0 1-.54-4.19c.21-2.1.23-4.66 1.42-6.16 4.6-5.8 10-10.61 18.2-10.2a14 14 0 0 0 3.45-.78l-7.9-10.77c-3.2 1.71-6.76 3.92-10.56 5.56A82.49 82.49 0 0 1 32 172a18.73 18.73 0 0 1-8.06 0c-5.7-1.18-7.88-5.43-5.31-10.62 1.91-3.87 4.62-7.36 7-11l5.9-9.14a48.54 48.54 0 0 0-5.89.34c-4.62 1-9.18 2.3-13.83 3.07a17.74 17.74 0 0 1-7.47-.28c-4.09-1.14-5.45-4.48-3.23-8.06A25.11 25.11 0 0 1 7.48 129c4.69-3.32 9.86-6 15-9-1.11-2.56-2.8-5.55-3.74-8.76-3.14-10.79-.21-20.46 6.12-29.31 5.89-8.22 13.4-14.81 21.57-20.66 19.4-13.91 40.77-23.75 63.14-31.71 20.13-7.15 41-11.08 61.85-15.18C195.14 9.72 218.93 5.5 243 3c28.08-3 56.22-4.1 84.37-1.46C348.66 3.49 369 9.73 389 17c23.63 8.62 46.55 18.72 67.8 32.24a174.39 174.39 0 0 1 18.71 14C483.4 70 487.83 79 490.56 88.75c2.66 9.52 1.45 18.37-5.77 26a32.91 32.91 0 0 0 11-5.07 55.59 55.59 0 0 1 7.47-4.46c3.76-1.67 6.23-.63 8.14 3a11.13 11.13 0 0 1 .44 10.47c-1.2 2.6-2.29 5.26-3.57 8.2l4.61 3.36c3.48 2.54 5 6.18 5.44 10.28s-2.52 7.26-6.61 6.44c-3.13-.62-6.08-2.22-9.07-3.48-2.77-1.17-5.27-3.34-9.15-2.18 1.05 1.55 2 2.8 2.79 4.16 2.36 4.08 4.75 8.14 6.92 12.32 1.77 3.42 2.76 7-.7 9.28 1.39 4.13 3 7.65 3.72 11.33 1 4.77-.26 9.13-4.58 11.95-2 1.29-2.42 2.91-2.38 5.05.21 9.82-4.23 17-13.17 22.39.89 2.15 1.4 4.76 2.85 6.62 6.55 8.44 9.52 18.31 11.75 28.46 1 4.55 3.09 9 2 13.87 3.26 8.69-.27 17.14-1 25.67-.43 5.05-2 10-2.39 15.06-.58 7.65-4.72 14-6.91 21.05-2.42 7.8-4.39 15.75-7 23.47-4.23 12.37-8.47 24.76-13.44 36.83-3.48 8.46-9.7 15.33-15.86 22-4.8 5.21-9.91 10.14-14.79 15.28a45.06 45.06 0 0 1-17 11.61c-6.3 2.33-12.64 4.73-19.17 6.13-5.06 1.09-10.44.74-15.68 1-4 .17-8 .1-11.94.41-2.77.21-4.48 1.7-5 4.74-1.19 6.58-2.71 13.1-4 19.66a26.5 26.5 0 0 0-.38 4.28c-.15 4.54-.31 9-2.06 13.36-1.12 2.8-1.23 6-1.66 9.08-.77 5.53-1.38 11.07-2.15 16.6a26.3 26.3 0 0 1-7.26 14.37c-5.67 6.14-11.59 12.06-17.16 18.28-5.94 6.64-11.25 13.85-17.46 20.21a307.62 307.62 0 0 1-23.54 21.85c-8.94 7.4-18.53 14-27.82 21-4.36 3.27-8.57 6.74-13 9.85-9.18 6.41-19.93 8.81-30.61 10.83-15.69 3-31.43 6.12-47.55 5.41-4.69-.2-9.37-.88-14.05-1.36-3.79-.39-7.58-1-11.38-1.18-9.66-.47-18.43-3.75-26.86-8.16-9.58-5-14.38-12.86-14.48-23.76-.06-7.45-.9-14.89-.83-22.33a171.77 171.77 0 0 1 1.46-18.98c1.36-11.34.83-22.42-3.32-33.18a4.3 4.3 0 0 1-.48-1.54c.22-9-4.24-16.56-7.4-24.54-.62-1.56-.38-3.45-.59-5.75-4.91-4-7-9.63-5.36-16.53a4.23 4.23 0 0 0 .07-2.67c-4.21-7.8-1.78-16-1.35-24 .71-12.54 3.71-24.7 6.71-36.88a39.62 39.62 0 0 0 .72-12.4c-.41-5.47-3.17-8.06-8.48-8.87a118.33 118.33 0 0 1-22.72-5.29c-10.63-3.86-13.45-8.78-13.16-19.94A116.56 116.56 0 0 1 61 337.9a121.48 121.48 0 0 0 4-20.26 311.8 311.8 0 0 1 6.48-35.9A113.47 113.47 0 0 0 74 262.89c.34-6.71.85-13.29 4.47-19.97zm280-107.32c-1.51 4.78.09 9.33 1.31 13.91q-.66-7-1.31-13.92c-1.59-4-3-8.07-4.8-12-2.09-4.63-3.63-5.42-8.56-4.37a58.22 58.22 0 0 0-7.72 2.57c-4.08 1.49-8.08 3.24-12.23 4.51-6.76 2.09-10.5.72-14.58-5-1.37-1.92-2.53-4-3.88-5.91-2.87-4.07-4.58-4.58-8.44-1.44-6 4.89-11.68 10.18-17.67 15.46l6.3 8c2.08-1.43 3.63-2.64 5.31-3.62a104.55 104.55 0 0 1 11.4-6.27c5.26-2.23 8.69-.78 11.19 4.28 1.36 2.75 2.28 5.71 3.43 8.57 2.46 6.14 4.59 6.93 10.16 3.14 3.74-2.54 7-5.7 10.68-8.41a56.77 56.77 0 0 1 8.62-5.6c3.37-1.65 5.78-.64 8 2.41.91 1.3 1.89 2.47 2.83 3.69zM104.7 182.38a7.39 7.39 0 0 0-2.12.13c-13.22 5.11-26.44 10.22-38.71 17.49a32.58 32.58 0 0 1-4.79 2.58c-3.18 1.24-5-.32-4.28-3.73.68-3.19 1.72-6.3 2.57-9.45 1-3.6 1.9-7.22 2.93-11.13-6.49-1-10 2.95-13.67 6.28-1.93 1.73-2.26 3.9-1.6 6.46 1.32 5.08 1.22 5.1-2.83 8-4.75 3.43-9.08 7.3-12 12.49-5.52 9.88 0 19.15 11.34 18.8 3.77-.11 7.53-1.07 11.28-1.76 6.38-1.18 7.34-.76 9.61 5.44 1.3 3.56 3.66 5.16 7.36 5.29a18.51 18.51 0 0 0 10.32-3c2.34-1.39 4.65-2.86 7.05-4.13a5.14 5.14 0 0 1 6.84 1.31 20.66 20.66 0 0 1 2 2.6c2.07 3.32 5.17 4 8.54 2.86a42.81 42.81 0 0 0 7.74-3.89c4.66-2.77 6.22-2.48 8 2.7 1.88 5.48 5.74 7.72 11.13 7.89a76.9 76.9 0 0 0 8.16-.34c2.89-.23 5.78-.61 8.66-.94 10.94-1.23 10.94-2.74 19.68 7.44 3 3.52 6.71 4.58 11.22 4 5.2-.72 9.57-3.24 14-5.8 4.25-2.48 5.28-2.38 8 1.73 3.51 5.26 8.24 7.25 14.42 6.85a73.71 73.71 0 0 0 29.28-7.76c3.23-1.66 6.53-3.17 9.84-4.68s6.26-1.49 9.28.64a11.83 11.83 0 0 0 9.35 2c9.9-1.95 19.39-4.88 27.26-11.63a32.61 32.61 0 0 1 4.84-3.51c3-1.76 4.8-1.57 7.43.72 1.77 1.55 3.35 3.33 5.08 4.93 5.43 5 11.69 6.64 18.63 3.91a54.68 54.68 0 0 0 11.65-5.82 166.45 166.45 0 0 0 14.65-12.15c4.59-4.1 5.73-4.28 10.71-.5 2.16 1.64 4.34 3.29 6.6 4.79 3.43 2.27 7 2.36 10-.61 3.68-3.65 7.51-3.69 11.92-1.57 3.19 1.53 6.48 2 9.81-.17a5.2 5.2 0 0 1 4.1-.57c4.05 1.65 7.94 3.71 12.25 5.79a24.11 24.11 0 0 1 2.81-4c2.16-2.13 4.33-4.5 7-5.83 3.32-1.67 7.12-2.39 10.89-3.58 7.08 3.45 10.94 2.11 14.66-5.28.33-.65.59-1.33.94-2 1.85-3.45 2.9-3.82 6.53-2.27 2.33 1 4.59 2.23 7 3 3 1 6.18 1.13 8.87-.9 4.05-3.07 7.08-7 7.29-12.25.23-5.51.2-10.28 5.79-14.12 4.63-3.19-.35-17.07-6.1-18-11.46-1.85-23-3.19-34.81-.51-2.57 10.13-7.74 19.1-12.72 28.2-4.88 8.89-11.1 17.05-14.44 26.82-1.16 3.39-2.78 3.64-5.94 1.85-.79-.44-1.49-1-2.26-1.51-24.44-15.42-48.76-31-76.22-40.86-5-1.81-9.27-2.76-14.81-1.09-12.14 3.67-24.62 6.26-37 8.91-10.83 2.3-21.81 3.88-32.65 6.13-22.11 4.6-43.46 11.8-64.56 19.71-16.84 6.31-33.66 12.73-49 22.3-.31.19-.62.38-1 .54-4.74 2.43-5.73 2.12-8-2.51-.4-.81-.75-1.66-1.14-2.48-4.11-8.7-8.16-17.44-12.36-26.1a53.59 53.59 0 0 0-13.51-17.61c-1.65-1.41-3.24-2.55-5.79-2.35-3.38.26-3.44-.13-3-4.29 5.15-1.53 9 .69 12.65 4.07A60.69 60.69 0 0 1 130.84 204c4.1 8.31 8 16.71 12 25.06.75 1.57 1.58 3.1 2.07 4.06 12.25-5.66 23.76-11.49 35.66-16.38 27.74-11.4 56.06-21.16 85.53-27.18 12.62-2.58 25.29-4.94 37.93-7.49 6.4-1.28 12.78-2.7 19.15-4.16 2.59-.59 5.11-1.44 7.67-2.18l.1-1.12c-3.71-1.24-7.45-2.4-11.12-3.74-1.9-.69-5.36-.8-4.55-3.53 1-3.34 4-1.18 6-.47 13.47 4.89 27 9.59 40.27 15.09a262.41 262.41 0 0 1 28.31 13.93c12.18 6.86 24 14.46 35.9 21.72a13.43 13.43 0 0 0 2 .82c1.63-3.33 3-6.48 4.67-9.44 4.57-8.06 9.56-15.89 13.85-24.09a134.36 134.36 0 0 0 7.82-18.51c1.45-4.25 1.78-8.88 2.65-13.33.36-1.86.1-4.68 3-4.19s1.78 3.14 1.66 5c-.15 2.47-.53 4.93-.85 7.68 4.23-.29 8-.7 11.75-.76s7.62.3 11.43.33a7 7 0 0 0 3.1-.85 8.3 8.3 0 0 1 10.07 1.22 12 12 0 0 0 2.41 1.19c-1.5-8-8-17.66-13.12-20a49.52 49.52 0 0 1 .49 6.91c-.31 4.93-3.91 7.37-8.34 5.18a37.89 37.89 0 0 1-9-6.85c-2.33-2.24-4-5.15-6.11-7.65-3.74-4.48-5.87-4.52-9.54-.07-1.84 2.23-3.35 4.74-5.09 7.06s-3.27 5.36-6.81 4.26c-3.18-1-3.07-4.15-3.28-6.87-.1-1.27 0-2.56-.24-3.81s-.68-2.63-1.24-4.72l-10.37 8c-2.73 2.11-5.53 3.51-8.95 1.3a3.49 3.49 0 0 0-2.42-.09c-4 1-4.52.63-5.22-3.44-.48-2.73-1-5.45-1.57-8.17h-1.21c-1.19 3.57-2.4 7.14-3.58 10.71-2.5 7.62-5.41 15.06-10.07 21.66-3.64 5.17-8.17 9.23-14.38 11.13-7.9 2.42-15.06.05-19.36-7a32.56 32.56 0 0 1-4.09-10c-1.17-5.48-1.53-11.13-2.33-16.7-.47-3.3-.1-6.89-3.11-9.94-2.07 1.25-4.18 2.28-6 3.66-2.9 2.19-5.55 4.7-8.44 6.9a49.4 49.4 0 0 1-7.68 5.13c-6.15 3.07-10.42 1.49-13.37-4.67-.93-2-1.65-4-2.41-6.07-3.08-8.21-4.05-8.64-11.64-4.31-3.15 1.79-6.05 4-9.1 6-4.46 2.9-6.89 2.5-10.26-1.69-.91-1.13-1.71-2.36-2.58-3.52-3.33-4.47-5.25-4.86-8.28-.47-5.29 7.7-10 15.81-15.26 24.23 3.75.65 6.55 1.53 9.36 1.56a474.6 474.6 0 0 0 66.28-3.74c5.76-.74 11.57-1.09 17.36-1.5 1.52-.11 3.22.4 2.9 2.3-.14.86-1.58 1.57-2.53 2.19-.4.26-1.06.1-1.61.15-11.37 1.21-22.72 2.93-34.13 3.52-16.87.88-33.77 1.06-50.66 1.28-3.07 0-6.16-1.15-9.12-1.75-3.22 3.14-6.27 6.85-10 9.6-7.59 5.56-16 2.75-19.36-6.07-.67-1.75-1.12-3.6-1.76-5.72-2.07 1.43-3.65 2.64-5.35 3.66-3.73 2.24-7.35 4.78-11.31 6.49-7.18 3.09-10.84 1.35-13.9-5.78l-27-2.89c-.91 1.71-1.85 3.67-3 5.52-2.65 4.33-5.2 8.74-8.16 12.85a21.21 21.21 0 0 1-10.37 7.73c-7.63 2.66-14.76-.39-18-7.77-.72-1.61-1.31-3.28-2.13-5.35-6.45 2.11-12.75 3.56-18.17 7.33zm-14.63 54.23c-4.4.16-3.75 4.09-5.47 6-5.65 6.27-5.74 13.79-6.12 21.47a102.81 102.81 0 0 1-2 17.26c-2.89 12.95-5.62 25.89-7 39.13a91 91 0 0 1-3.65 18.12 118.18 118.18 0 0 0-4.62 25.13c-1.21 13.46 2.68 18.49 16 21.43 5.14 1.13 10.35 1.95 15.53 2.85 9 1.56 12.63 6.09 13 15.19.34 7.62-1.57 14.78-3.51 21.95-3.58 13.25-4.65 26.8-5.11 40.44a48.23 48.23 0 0 0 .53 5.5c2.53-2.13 4.19-3.72 6.05-5 3.83-2.73 6-2.27 8.55 1.54 3.61 5.44 3.65 5.52 9.79 2.65 4.87-2.29 9.13-1.79 12.91 2.11 1 1 2.12 2 3.07 3.11 2.55 2.93 5.22 4.19 8.93 1.69 2.62-1.76 5.37-1.14 7.27 1.34 3.28 4.28 6.63 5.09 11.67 2.35 4.36-2.36 9.48-2.95 14.36-.06-2.57 5.33-8.13 1.49-11.69 4.89.54 2.79 1 6 1.78 9.11.95 3.68 2.45 7.2 1.22 11.18-.29.95.43 3.11 1.11 3.32a27.92 27.92 0 0 0 8.85 1.57c2.61-.09 3-3 3.27-5.07.75-5.18 1.19-10.4 1.76-15.56-1.46-1.1-2.65-1.93-3.75-2.85-1.31-1.08-3.76-2-2.06-4.14 1.54-2 3.27-.21 4.73.75 2.1 1.38 4.13 2.86 6.13 4.25 3.46-2.2 6.67-4.61 10.21-6.38 4.68-2.36 7.6-1.49 11 2.54.7.83 1.3 1.75 1.95 2.62 2.66 3.53 2.75 3.72 6.64 1.91 5.34-2.48 10.17-2.43 14.52 1.9 2 2 4.23 2 6.37.37 4-3 8.26-5.11 13.38-5.2.43-2.47 1.16-4.61 1.11-6.74-.16-7 3.07-12.6 7.11-17.85 4.43-5.76 8.91-11.48 13.6-17a24.12 24.12 0 0 0 5.11-9.83 180.65 180.65 0 0 1-42.42-13.35c1.44-2.66 3-3.61 5.58-2.38 1.3.63 2.76.92 4.1 1.47a138.7 138.7 0 0 0 31.9 9c4.26.64 8.85 1.09 13 .18 11.91-2.62 23.52-6.18 33.4-13.94 5.41-4.26 11.21-8 16.91-11.93a10.8 10.8 0 0 1 4-1.64 91.39 91.39 0 0 1 26.71-1.43 4 4 0 0 1 2.07.51 3.24 3.24 0 0 1 1.3 2.14 2.52 2.52 0 0 1-1.71 1.66 13.74 13.74 0 0 1-4.34 0c-4.14-.67-7.1 1-9.08 4.49-2.95 5.2-5.73 10.5-8.67 15.71a50.48 50.48 0 0 1-4.89 7.81c-3.18 3.8-6.31 4.5-10.62 2.09a72.07 72.07 0 0 1-10.11-7.25c-4.7-3.84-4.75-4.08-9.91-1.11-2 1.17-3.35 3.78-5.44 4.58-3.66 1.4-6 4-8.18 6.9-8.76 11.31-12.9 24.48-13.69 38.45-.68 12-3.85 22.7-10.45 32.73-4.55 6.9-10.19 11.53-18.23 13.61-5.69 1.47-11.82 1.4-17.05 4.66a3.53 3.53 0 0 1-2.63.44c-3.8-1.34-6.64.43-9.49 2.53a4.93 4.93 0 0 1-2.49 1 16.57 16.57 0 0 0-10.28 4.44c-1.93 1.67-4 1.63-5.64-.61a11.2 11.2 0 0 1-1-2.19c-8.52 5.24-8.92 5.31-13.12.93-1.05.64-2.15 1.27-3.21 2-2.4 1.54-5 1.65-7.13-.06-2.79-2.22-5.65-2-8.75-1.25-2.63.62-5.62.46-7.89 1.69-6.36 3.46-11.44 1.79-16.16-2.91-.24-.23-.65-.31-.3-.15-2.12.2-4.1 1-5 .35-2.07-1.56-4.09-1.3-6.2-.91a9.46 9.46 0 0 1-8.63-2.09 6.86 6.86 0 0 0-7.1-1.36c-6.87 2.19-8.08 1.81-12.41-3.94-1.55-2.06-3.16-3.23-6.22-2.68.65 3.3 1.23 6.29 1.82 9.29 2.07 10.41 2.84 20.8.79 31.38a76 76 0 0 0-.84 14.54c0 6.35.48 12.7.83 19 .15 2.72.54 5.42.74 8.13.41 5.32 3.23 9.17 7.44 12.11a57.71 57.71 0 0 0 28.9 10.24c4 .33 7.94.79 11.91 1.2 3.6.38 7.19.9 10.79 1.11 16.3 1 32.27-1.88 48.12-5 9-1.77 18.38-3.2 26.32-8.42 5.45-3.58 10.68-7.5 15.92-11.39 9.76-7.26 19.71-14.28 29.08-22a262.1 262.1 0 0 0 22.24-20.83c7.27-7.61 13.78-15.95 20.79-23.81 4.34-4.88 9.07-9.43 13.51-14.23a23.47 23.47 0 0 0 6.45-16.34 50.93 50.93 0 0 1 .57-6.5c1.12-8.63 2.17-17.27 3.49-25.87.84-5.53 1.61-11.16 3.3-16.46 2.18-6.87 2.6-14.36 6.93-20.5a2.06 2.06 0 0 0 .33-1c.3-4.74 2.74-8.64 5.16-12.46a78.29 78.29 0 0 0 8.44-18.84 30.65 30.65 0 0 1 1.56-3.57c2.06 0 3.78.42 5.18-.07 7.17-2.53 14.27-5.29 21.38-8a21.62 21.62 0 0 1 4-1.48c.61-.1 1.6.71 2 1.36a2.07 2.07 0 0 1-.38 1.92 7.43 7.43 0 0 1-2.64 1.83c-5.56 2.2-11 5-16.78 6.23s-9.12 5.1-11.82 9.38c-3.75 6-6.6 12.49-9.81 18.79-1.23 2.43-2.07 4.93-1.21 7.84h13.26c3.07 0 6.29.35 9.19-.41 7.87-2.09 15.7-4.44 23.38-7.15 5.35-1.9 9.82-5.42 13.78-9.56 5.15-5.38 10.75-10.38 15.49-16.1 5.32-6.4 11.09-12.86 14.53-20.28 5.47-11.81 9.31-24.4 13.56-36.76 2.42-7 4.35-14.23 6.36-21.39a151.33 151.33 0 0 0 3.63-14.8c1.13-6.61 1.67-13.33 2.6-20 1.24-9 3.47-17.89 3.74-26.88a66.26 66.26 0 0 0-10-37.36c-2.28-3.69-4.85-7.11-5.08-11.13L468.73 214c-1.07 1.76-2 3.54-3.15 5.13-2.85 3.86-6.58 6.58-11.53 6a30.45 30.45 0 0 0-11.62.88 13.81 13.81 0 0 0-8.87 6.45A19.59 19.59 0 0 1 431 236c-1.93 1.86-4.12 2-6.45.53-3.33-2.07-6.73-4-10.25-6.13-4.9 4.77-9.85 3.43-14.83 1.06a3.75 3.75 0 0 1-.5-.21c-1.81-1.1-3.37-.79-4.93.63-7.26 6.57-13.26 4.09-19.17-.14-2.18-1.57-4.32-3.2-6.65-4.94-2.07 2-3.87 3.76-5.72 5.49a72.12 72.12 0 0 1-22.17 14.61c-10.22 4.16-19.18 2.44-27-5.38-1.5-1.5-3.09-2.9-4.74-4.43a52.27 52.27 0 0 0-4.37 3.16c-7.85 7-17.39 10.38-27.4 12.66-4.11.94-8.69 1.77-12.24-.64-5.07-3.46-9.21-1.58-13.64.73-2.09 1.09-4.19 2.17-6.33 3.18a75.39 75.39 0 0 1-29.46 7.09c-7.06.3-12.87-1.72-17.07-7.63a11.83 11.83 0 0 0-1.72-1.64c-3.79 1.79-7.11 3.73-10.68 5-12.24 4.33-17.71.85-22.82-5.67-.45-.57-1-1.05-1.45-1.63-2-2.81-4.67-3.51-8.11-3.08-6.66.83-13.37 1.45-20.08 1.76-7.9.32-14.22-2.38-17.34-10.38-.11-.28-.55-.43-.85-.64-14.84 8.17-18.03 5.75-24.96-2.75zM193.56 118a19.26 19.26 0 0 0 2.19.24l48.48-.22c2.68 0 5.67.82 8-.08 6.46-2.51 10.72-.21 14.58 4.83 3.69 4.81 5.94 5.18 11.11 2a79.29 79.29 0 0 0 8.54-6.72c3.34-2.79 6.37-6 9.93-8.48 5.76-4 9.87-3 13.93 2.66 1.47 2.07 2.7 4.31 4.18 6.37 2.88 4 4.62 4.68 9.3 3.19 4-1.27 7.82-2.94 11.75-4.32a74.51 74.51 0 0 1 9.33-2.91c6.38-1.34 10 0 12.47 5.83 1.94 4.48 4.81 5.41 9 4.62 9.45-1.79 18.89-3.62 28.36-5.33a7.63 7.63 0 0 1 4.09.23 56 56 0 0 1 6 3.27c3.49-2 6-3.67 8.71-4.89a52.89 52.89 0 0 1 7.77-2.49 18.35 18.35 0 0 0 8.35-4.69c4.55-4.36 9.7-7.3 16.7-5.72a18.33 18.33 0 0 0 10.45-.75c7.44-3.07 12.73-2.24 17.29 3.93 3.11 4.2 6.22 4.23 9.41-.05a17.35 17.35 0 0 0 3.36-12.33 45.19 45.19 0 0 0-12.08-26.84A90.1 90.1 0 0 0 455.68 54c-23.25-14.49-48.14-25.38-73.91-34.49-19.44-6.86-39.2-12.24-59.77-13.74a419 419 0 0 0-93 3.8c-24.23 3.64-48.32 8.24-72.43 12.6A294.76 294.76 0 0 0 82.05 46c-14.48 6.86-28.49 14.63-40.54 25.32A96.21 96.21 0 0 0 27 87.44c-7 9.87-6.79 23.12 1.28 31.85 2.54-.74 5.35-2 8.26-2.26s5.84.56 9 .93c-.58-2.76-1.23-5.23-1.61-7.73-.94-6.28 2-11 6.7-14.59 3.69-2.84 7.6-1.3 8.87 3.21a39.43 39.43 0 0 1 .74 6.47c.48 4.35 1.13 8.61 5.19 11.86 3-2.73 5.8-5.61 9-7.94 2.87-2.11 6-4.32 9.35-5.28 11.52-3.31 21.56-.93 28.52 8.59 3.1-.27 5.7-.7 8.29-.67 4 .05 8 .67 12 .6 9.26-.16 18.51-.59 27.77-.89a23.41 23.41 0 0 1 5.43.1c1 .2 1.8 1.38 2.69 2.11-.82.79-1.53 2.06-2.47 2.26a40.16 40.16 0 0 1-6.51.45c-8.26.29-16.51.56-25.74.86 8.74 6 11 15.88 17.73 23.5 2.28-2.72 4.29-4.77 5.89-7.11 3-4.34 5.37-9.12 8.67-13.19a51 51 0 0 1 10.55-10c5.68-3.87 10-2.65 14.05 2.88.97 1.42 1.89 2.98 2.91 4.55zm2.91 20.72c0-1.32.17-1.92 0-2.34-3-6.41-5.79-12.93-9.15-19.15-2.48-4.6-5.27-5.27-9.32-2a62.43 62.43 0 0 0-9.9 10.69c-3.31 4.32-5.78 9.28-9.09 13.58-6 7.76-10.3 7.42-15.27-.77-2.55-4.19-4.89-8.52-7.68-12.54-3.08-4.44-5.32-4.89-10.27-2.7a49.2 49.2 0 0 0-4.78 2.61 42 42 0 0 1-4.22 2.49c-3.65 1.54-6 .17-6.59-3.73-.11-.71-.08-1.45-.16-2.17-1-9.35-7.21-15.15-16.63-15.33-4.59-.09-9.33.32-13 3.23-4.37 3.46-9.95 6.11-10.48 12-3 1.2-5.58 2-7.92 3.2-5.49 2.86-10.75 3-15.86-.77-.73-.55-1.55-1-2.23-1.57-3.26-2.87-7.18-2.75-10.86-1.74a127.83 127.83 0 0 0-13.21 4.88A32.09 32.09 0 0 0 6.7 136.1c-.72.86-1 2.1-2 4.23 3.78-.4 6.62-.5 9.38-1 3.56-.68 7-1.93 10.6-2.49s7.59-1.69 10 2.12c2.2 3.51-.17 6.65-2 9.53-2.47 3.81-5.29 7.4-7.72 11.23a43.38 43.38 0 0 0-2.76 6.15c4.67 3 8.75 1.77 12.7.53 9.13-2.87 17.19-7.75 24.63-13.7A47.57 47.57 0 0 0 73.27 136a41 41 0 0 1 6.1-9.62 30.17 30.17 0 0 1 8.53-6.51c3.66-1.88 7.24-.48 9.39 3a21 21 0 0 1 2 5c.66 2.26 1 4.63 1.64 6.88 1.87 6.19 4.3 7.32 10 4.67 2.14-1 4.13-2.3 6.24-3.36 3.21-1.61 6.51-4 10.15-1.5s3.34 6.58 2.89 10.43c-.65 5.6-1.69 11.16-2 16.77a57.33 57.33 0 0 0 .54 14.59c1.52 7.4 8.25 10.22 14.65 6.21a30.14 30.14 0 0 0 8.43-8.3 130.51 130.51 0 0 0 8.3-14.69c3.4-6.62 6.43-13.44 9.92-20a40 40 0 0 1 5.94-8.41c3.23-3.48 6.82-3.75 10.8-1.14a46.64 46.64 0 0 1 5.41 4.56c1.34 1.2 2.54 2.42 4.27 4.12zm-71.26-.48c-2.36.88-4.19 1.43-5.9 2.24-2.62 1.24-5.07 2.86-7.75 3.95-7.12 2.88-12 .71-14.6-6.55a71.83 71.83 0 0 1-2-7.89c-1.6-6.77-4.63-7.87-9.6-2.89a45.81 45.81 0 0 0-7.24 10.1c-2.84 5.1-5.63 10.15-9.92 14.22a8.61 8.61 0 0 0-1.12 1.82 106.24 106.24 0 0 0 35.38 6.18c5.27 0 10.53 0 15.8.08 1.76 0 3.61.51 3.25 2.6-.14.83-2.11 1.92-3.25 1.93-14.87.08-29.8.75-44.24-4.07-3.37-1.13-6.92-1.72-10.28-2.53-.74 1.47-1.17 2.48-1.73 3.41-1.2 2-.37 3.51 1.09 4.79 1.7 1.5 3.31.93 4.8-.51a16.37 16.37 0 0 1 2.06-1.76c1.66-1.16 3.56-1.56 4.87.17s-.12 3-1.61 3.87c-4.81 2.73-6.76 7.37-8.25 12.29-1.16 3.82-2.21 7.67-3.23 11.53-.34 1.28-.42 2.64-.75 4.84 20.16-11.29 41.06-18.49 62.18-26.49-.89-10.15 3.26-20.13 2.04-31.35zm131 381.61c4.13-1.24 8.21-2.11 12-3.73a16.56 16.56 0 0 0 6.41-4.87c7-9 12.5-18.76 12.78-30.63.06-2.18.25-4.36.51-6.53 1.61-13.75 5.61-26.62 14.07-37.83.78-1 1.38-2.21 2.18-3.51-4.62.72-8.71 1.46-12.83 2-2.69.32-4.06 1.81-5.2 4.13a55.89 55.89 0 0 1-5.19 8.77c-5 6.71-10.23 13.21-15.29 19.86a19.56 19.56 0 0 0-3.93 11.1 47.93 47.93 0 0 1-2.1 11.69 10 10 0 0 0-.77 4.53c.88 6.81-1 9.84-7.51 12.59-1 .42-1.75 1.37-3.74 3 8.4-1 7.34 4.77 8.61 9.41zm165.41-378.28c3.61-2.69 7.23-5.67 11.13-8.23 5.37-3.51 8.9-1.83 9.93 4.47.36 2.21.47 4.46.8 7.68 3-3.86 5.1-7 7.65-9.75 4.81-5.14 9.76-5.06 14.52 0 1.72 1.85 3 4.1 4.74 6 2.46 2.64 5.06 5.16 7.76 7.55.79.69 2.14.75 3.33 1.13.45-4.7.21-6.3-2-9.66a88.52 88.52 0 0 0-5.54-7.4c-4.62-5.67-8.71-11.61-10.72-18.77-.16-.57-.77-1-1.24-1.59-.81.61-1.38 1.06-2 1.48-4.67 3.29-5.26 3.15-9.93-.3a91.4 91.4 0 0 0-8.13-4.86c-1.55 5.3-2.25 6-7.6 7.48-2.47.67-5.06 1-6.36 3.64q-4.23 8.5-8.39 17c-.87 1.9-.07 3.14 2.05 4.13zm-154.74-11.31c-1.62-1.9-3.23-3.86-4.91-5.75-3.11-3.51-5-3.93-8.94-1.29-4.12 2.79-7.5 6.37-8.61 11.47a25.69 25.69 0 0 1-8.64 14.14c-2.19 1.92-4.44 3.76-6.52 5.79a6.63 6.63 0 0 0-1.94 3.08c-.89 4.29 1.64 10 5 11.91 3.1 1.73 6.54.77 10.66-3.13a30 30 0 0 0 4-4.45c2.91-4.16 5.76-8.38 8.43-12.69 3.84-6.16 7.5-12.43 11.47-19.08zM145.74 483.45c2.84.6 2.83 2.74 2.83 4.72 0 4.17-.15 8.35-.27 12.53 0 1.69.07 3.2 1.85 4.15a18 18 0 0 0 12.08 2.21c4.16-.8 5.57-2.92 4.65-7s-2.1-8-3.28-12.49c-6.24 1.65-9.69-2.79-13.25-6-2 .26-3.53.48-5.09.67l-5.68.68-8.67-7.08c-1.63 8.14-3.13 15.41-4.52 22.7-.65 3.4 1.07 5.63 4.13 6.77a23.63 23.63 0 0 0 5.78 1.43c3.47.35 4.81-.48 5.32-3.92a65.42 65.42 0 0 0 .48-10.85c-.1-3.55.9-6.41 3.64-8.52zM482 136.05c1.58-.29 3-1 3.61-.58 3.08 2.05 6.05 1.23 9.27.53 1.61-.34 3.6.35 5.25 1 2.35.93 4.52 2.32 6.82 3.39 2.07 1 4.11 2.45 6.62 1.09-.14-3.88-2-6.45-5.1-8.55-5.11-3.46-5.65-5.9-3.16-11.52.73-1.66 1.55-3.29 2.31-4.94 1.31-2.85.54-5.16-1.87-7.45-2.34 1.4-4.45 2.77-6.67 4-4 2.15-7.93 4.41-12.07 6.21-3.6 1.56-7.42 1.92-10.87-.71-2.18-1.65-3.93-.69-6.4 1zm-77.89-7.79c-5.6-2.76-7-2.41-9.38 2.18-2.15 4.2-4.15 8.48-6.36 12.65a41 41 0 0 1-12.69 14.73c-4.25 3-8.63 5.48-14.92 3.2 1.07 2.42 1.64 4.11 2.52 5.63 3.64 6.26 9 8.12 15.78 5.53A20.36 20.36 0 0 0 389 164a79.5 79.5 0 0 0 7-12.9c3-7.35 5.33-14.98 8.07-22.84zm-212.42 34.46c1.59-5.35 2.88-9.88 4.28-14.37a3.74 3.74 0 0 0-1-4.39c-2.8-2.58-5.37-5.42-8.19-8-4.28-3.9-6.4-3.79-9.52 1.21-3.26 5.22-5.94 10.8-8.79 16.26a42.8 42.8 0 0 0-1.81 4.85c5.77.31 10.83.66 15.9.81 3.35.11 6.49.58 9.13 3.63zm36.14-13.67c7.59-5.27 12.17-11.26 12.72-20.45l-40.38 1.91c.74 4.28 1.19 7.86 2 11.35a7.76 7.76 0 0 0 2.4 3.86c2.36 1.95 4.8 1.05 6.93-.68s4.28-4 6.64-5.62c4.23-3 7.66-1.49 8.74 3.62.4 1.73.57 3.49.95 6.01zm27.38 342.41c-4.47 0-4.5 0-8.55 2.69-5 3.37-8.86 5.25-14.56-.26-2.22-2.15-4.75-2.12-7.57-1.14-3 1.05-6.16 1.76-9.2 2.62-1.19 3.55-2.45 7.33-3.73 11.2 1 1.38 1.86 3.19 3.26 4.17 2 1.39 4.52 3.2 6.62 3 2.9-.31 3.77-3.6 4.24-6.33.53-3 .75-6.12 1.17-9.18a8.13 8.13 0 0 1 .82-3.1 2.74 2.74 0 0 1 2.19-1.13 2.6 2.6 0 0 1 1.6 1.83 18 18 0 0 1-.2 4.33c-.36 3.39-.78 6.77-1.16 10 9.3 3.69 15.61-.11 16.5-9.49a26.52 26.52 0 0 1 .44-3.78c.35-1.49 1.22-3 2.95-2.35.81.3 1.42 1.87 1.6 2.95a22.67 22.67 0 0 1-.21 4.57c5.35-2.5 1.9-7.16 3.79-10.6zm104.65-85.36c-8.6-.69-25.11 7.92-30.35 15.61 1.62 1.42 3.21 2.91 4.9 4.26a38.82 38.82 0 0 0 5.24 3.83c4.67 2.62 6.57 2.2 9.25-2.51 2.42-4.24 4.33-8.76 6.55-13.11 1.37-2.69 2.89-5.31 4.41-8.08zm-149.53 86.24c.17-4.61-1.78-7.31-4.91-7-3.91.38-10.2 5.81-11.59 9.66a21.92 21.92 0 0 1-2.91 5c-2.17 3.09-1.44 8.25 1.46 9.55a11.33 11.33 0 0 0 14-4 22.7 22.7 0 0 0 3.95-13.21zM148.78 527c-.88-2-1.87-3.84-2.61-5.82a59.33 59.33 0 0 1-2.41-7.75c-.17-.77.77-1.78 1.2-2.68.92.62 2.25 1.05 2.67 1.92 1.4 2.93 2.56 6 3.67 9 1.63 4.45 4.79 6.29 9.64 6.1-.31-5.25-.61-10.26-.92-15.33-2.76-.6-5.26-1-7.63-1.7s-4.6-1.91-7-2.95c-2.75 4.21-7.3 3.47-11.22 4.25 2.28 13.02 6.75 17.68 14.61 14.96zm48.5-360.51c3.43 1.42 6 .35 8.32-1.08 5.07-3.16 10-6.55 14.88-10a4.7 4.7 0 0 0 2-3c.2-2.95 0-5.93-.15-10.16-3.38 2.83-5.64 4.81-8 6.68-3.54 2.79-7.35 3.87-11.58 1.42a12.25 12.25 0 0 0-2.35-.66c-1.33 5.86-4.19 11.04-3.12 16.8zm166.42-29.8c.38 6.83.76 13.55 1.14 20.33 9.27-1.53 19.76-12.56 21-21.8-3.63.71-7.13 1.77-10.68 2-3.75.24-7.5-.31-11.46-.53zM208.43 510.88c-1.78.95-3.87 2.46-6.21 3.22s-4.86.71-7.6 1.06c.31 5.48.61 10.79.94 16.55 4.06-1 7-5.82 11.83-1-.67-3.34-1.18-5.62-1.57-7.91a39.19 39.19 0 0 1-.74-5.89c0-1.52.7-3.12 2.5-2.75.75.15 1.49 1.73 1.73 2.77.89 4 1.57 8 2.24 11.57l7.44.44v-9.55zm-95.49-34.39c-.57 6.65-1.1 12.94-1.63 19.23-.16 1.82.43 3.29 2.31 3.78s4 .64 5.3-1.47a9.76 9.76 0 0 0 1.12-3c.83-4.19.61-8.77 4.73-11.64.35-.25.38-1 .51-1.51.71-2.67 1.4-5.35 2.21-8.44-5.09 1.17-9.08 5.81-14.55 3.05zm53 56.66c3.78 1 6.35-1.3 9.73-2.29-.42-5.37-.82-10.53-1.18-15.24-2.11-1.3-3.72-2.13-5.15-3.2-1.13-.86-2.14-2.45-3.61-1.17a4.57 4.57 0 0 0-1.07 3.31c.34 6.1.84 12.19 1.34 18.59zm-35.68-22l-9.37-7.74c-2.39.49-3.54 1.83-2.45 4.59 1.88 4.72 3.59 9.51 5.56 14.19a23 23 0 0 0 2.83 4l5.48-2.49c-.31-4.7-3.82-8.43-2.03-12.51zM54.73 99.12c-5.36 3.09-7.24 6.59-6.24 11.38.87 4.12 2.06 8.17 3.16 12.47 3.51 1.24 6.45-.09 9-2-1.59-3.73-3.45-7.07-4.42-10.65s-1.02-7.26-1.5-11.2zm136 429.79c0-2.06.06-4 0-5.94-.07-2.16-.88-4.51-.27-6.42.92-2.9-.64-3.41-1.93-3.92l-9.42 4.28c.41 4.28.82 8.69 1.24 13.14zM104 490.11c2.2-6 1.85-12.46 5.71-17.62l-2.5-3.21c-1.93 1.82-3.51 3.54-5.32 5-5.41 4.39-4.61 12.38 2.11 15.83zm129.38 36.27c-3.55-4-3.55-4-2.49-10.55-6.17-1.92-8.51 2.15-6.73 12.07zm13.33-14.29c-.23 3.25-.42 6-.61 8.74-4.34.78-4.52.61-5.47-5.14-6.16 1.18-7 2.67-4.47 7.22h8.16a6.76 6.76 0 0 0 6.14-3.85c1.44-2.68-.76-3.88-2.37-5.29a16.45 16.45 0 0 1-1.38-1.68zm-129.88 5.43L113 504.77l-5.6-3.07c1.49 10.51 3.75 14.62 9.43 15.82zM422.07 120l-11.53 4.06 5.94 8.06c1.81-3.94 3.43-7.46 5.59-12.12zM115 123.69l12-6.21c-4.32-.41-8.55-2.71-12.72 0 .2 1.94.4 3.71.72 6.21z"/><path d="M262.27 383.17c-4.07 0-11 .1-17.86 0a17.74 17.74 0 0 1-11.47-4.47c-7-6.13-11.92-13.2-12.61-23.1-.46-6.65 1.06-12.5 3.33-18.43 1.17-3.05 2.36-6.1 3.41-9.19 1.85-5.44 2.44-11 .8-16.6a47.81 47.81 0 0 1-1.21-20 26 26 0 0 1 5.64-13.33c6.88-8.51 15.58-13.29 26.69-13.77 8.35-.36 16.66-1.31 25-1.94a14.64 14.64 0 0 1 3.79.25c14.05 2.62 27.47 6.63 38.81 16a38.63 38.63 0 0 1 14.26 26.6c1 8.87 1.16 17.69-2.27 26.31-2.47 6.21-4.2 12.71-6.2 19.09-3.61 11.47-10.57 20.16-21.26 25.77a14 14 0 0 1-3 1.17c-14.12 3.78-28.34 6.47-45.85 5.64zM152.66 332c3.71-1.13 6.93-2.45 10.28-3.05 6.78-1.2 12.29 2.58 13.7 9.34 1 4.61 1.3 9.35 2.21 14s1.69 9.37 3.45 13.69c4.24 10.43 6 21.3 6.86 32.38a31.92 31.92 0 0 1-.23 7c-1.12 7.61-7.92 11.77-15.17 9.13a17 17 0 0 1-6.46-3.9c-5.87-6.2-12.68-6.19-20.08-3.87-3.46 1.09-7 2.06-10.45 3a14.58 14.58 0 0 1-3.22.49c-6.78.26-10.25-2.73-9.63-9.37.73-7.92 2.24-15.77 3.52-23.63.16-1 1-1.85 1.57-2.75a124.3 124.3 0 0 0 10.87-23.17c-3.53 1.94-6.29 3.52-9.1 5-13 6.84-25.38 5-36.93-3.22-5-3.55-9.44-8-13.9-12.21a15.53 15.53 0 0 1-4.9-11.77 100.18 100.18 0 0 1 .69-12.5c1.48-10.42 3.23-20.81 5-31.2.77-4.68 2.06-9.07 5-13.06 1.85-2.49 2.7-5.5 5.19-7.9 4.11-4 9.26-4.11 14.11-5.27 11.21-2.67 22.19-2.53 33 2.52 4.49 2.09 9.74 2.85 14.74 3.44 8.79 1 15.32 5.07 19.86 12.65a12.87 12.87 0 0 1 .7 13 22 22 0 0 1-2.2 3.76c-8.23 10.85-13.08 23.42-18.24 35.83a7 7 0 0 0-.24 1.64zM368.17 311.41c-.56 3.63-.62 7.94-1.93 11.82-3.66 10.77 0 20 5.36 28.9 3.15 5.26 6.68 10.38 11.82 14.1.73.53.7 2.11 1 3.21-1.14.21-2.45.87-3.37.52a10.92 10.92 0 0 1-4-2.78c-8.14-8.8-14.59-18.59-16.71-30.63a38.54 38.54 0 0 1 0-9.17 27.6 27.6 0 0 1 1.24-5.29c3.46-12.35.67-24.1-3.55-35.66-.86-2.33-2.71-4.28-3.85-6.53-.37-.74-.28-2.36.21-2.72a2.9 2.9 0 0 1 2.81.1 14.89 14.89 0 0 1 3 3.82c5.45 9.19 6.7 19.45 7.97 30.31zM196.94 425.22c-2.63 10.12-1.12 19.39.36 28.73a139.62 139.62 0 0 1 1.15 16.24c0 1-.85 2.08-1.32 3.13-1-.87-1.93-1.73-2.87-2.62-.11-.1-.1-.34-.11-.52-1.09-12.42-2.28-24.83-3.16-37.26a23.16 23.16 0 0 1 1.28-8c.31-1.06 1.86-1.74 2.85-2.59.68 1.1 1.36 2.18 1.82 2.89zM375.12 298.71c-.56-1.29-1.57-2.51-1.29-3.16a12.7 12.7 0 0 1 3.29-4.86 65.35 65.35 0 0 1 10.31-6.95c7.56-3.93 15.23-7.63 21.39-13.72.51-.5 1.15-1.19 1.75-1.22a16.17 16.17 0 0 1 3.4.55c-.21 1-.11 2.25-.69 2.9a24.87 24.87 0 0 1-4.86 4.31c-4.86 3.13-9.74 6.24-14.81 9-5.87 3.21-12.24 5.6-16.21 11.47-.4.54-1.1.83-2.28 1.68zM119.07 452.75c2-6.22 3.89-12.1 5.87-17.93a29.87 29.87 0 0 1 2.62-5.95c.54-.88 2.1-1.89 2.91-1.69 1.83.44 1.53 2.08 1 3.57-2.63 7.53-5.17 15.09-7.9 22.58-.34.93-1.63 1.52-2.47 2.27zM149.92 448a23.47 23.47 0 0 1 .25 4.09 2.59 2.59 0 0 1-1.28 1.94 2.91 2.91 0 0 1-2.37-.63c-1.75-1.54-1.76-4.8 0-6.84a3.38 3.38 0 0 1 2.65-1.09c.63.14 1 1.48 1.49 2.28zM260.23 45.24c-1.73 1.21-2.58 2.16-3.62 2.47-2.41.69-5 .86-7.35 1.65-1.83.62-3.4 2-5.21 2.73-.8.33-2.43.27-2.74-.22-.45-.7-.14-2 .07-2.95.1-.43.67-.83 1.12-1.11 4.2-2.64 8.7-4.4 13.74-4.19 1.05.04 2.07.81 3.99 1.62zM136.32 42.46c-.69 1.08-1.08 2.41-1.95 2.92a98.8 98.8 0 0 1-9.06 4.62 2.5 2.5 0 0 1-2.31-.44 2.72 2.72 0 0 1-.23-2.4c1.48-3.16 9.23-5.99 13.55-4.7zM350.3 35.09c-4.21 1.1-7.39 2-10.61 2.72a2.73 2.73 0 0 1-2.32-.5 2.71 2.71 0 0 1-.07-2.44c1.77-3.09 8.95-4.61 11.71-2.43.77.61.99 1.94 1.29 2.65zM83.26 65c2.74-.13 3.8 1.79 2.74 3a70.43 70.43 0 0 1-6.5 6.88c-.38.35-2.21-.14-2.64-.76s-.68-2.42-.19-3C79 68.76 81.5 66.58 83.26 65zM453.91 65.21c-.62.47-1.63 1.64-2 1.46-2.45-1.07-4.44-.26-6.61.81-.69.35-1.88-.34-2.85-.55.24-1 .17-2.44.75-2.78a20.24 20.24 0 0 1 6.32-2.61c2.03-.35 3.67.99 4.39 3.67zM170.94 47.4c.44-2.25.29-4.15 1-4.53a64.66 64.66 0 0 1 8.76-3.75c.36-.13 1.6.86 1.53 1.08-.31 1.08-.65 2.59-1.47 3-2.66 1.42-5.51 2.41-9.82 4.2zM336 79.76c-2.72-.68-4.84-1.11-6.89-1.76-1.41-.45-3-1.31-2-3.06.39-.71 2.06-1.08 3.1-1a23.61 23.61 0 0 1 5.79 1.33 10.91 10.91 0 0 1 2.71 2zM295.88 30.93c-1.57-2.37-1.23-4.89 1.64-5.37 2.09-.36 4.43.46 6.58 1.05.51.13 1.1 1.55.92 2.16s-1.24 1.17-2 1.31c-2.02.38-4.16.52-7.14.85zM141.45 70.3c1.16.7 2.41 1.1 2.43 1.56a3.31 3.31 0 0 1-1 2.66 50.63 50.63 0 0 1-7.27 3.4 2.39 2.39 0 0 1-2.19-.77 2.42 2.42 0 0 1 .26-2.36c2.51-1.63 5.16-3.02 7.77-4.49zM391.94 32.75a63.9 63.9 0 0 1 6.79 3.06c.63.37.95 1.76.88 2.65 0 .37-1.51 1-2.2.88a30.82 30.82 0 0 1-6.18-1.87c-.77-.33-1.8-1.72-1.62-2.28.31-.94 1.48-1.61 2.33-2.44zM219.28 90.61c-1.36 1.73-1.67 2.51-2.23 2.78a64.81 64.81 0 0 1-6.91 3 2.56 2.56 0 0 1-2.31-.67 2.48 2.48 0 0 1 .23-2.38 11.64 11.64 0 0 1 8.7-3.57 8.37 8.37 0 0 1 2.52.84zM408.35 87.92a9.47 9.47 0 0 1-1.35 1.92 53.49 53.49 0 0 1-5.18 3.69 1.94 1.94 0 0 1-3-2.22c.62-2.54 5.08-5.47 7.57-5 .61.17 1.17.98 1.96 1.61zM229.92 18.27c1.92.2 2.76.07 3.32.4a3.6 3.6 0 0 1 1.56 1.85c.12.41-.56 1.44-1.07 1.6a44.13 44.13 0 0 1-6.73 1.74c-1.54.24-2.69-2-1.5-3a22.64 22.64 0 0 1 4.42-2.59zM200.26 68.18c-.93-.76-2-1.27-2.34-2.07-.2-.48.57-1.87 1.19-2.12a29.31 29.31 0 0 1 5.71-1.52 2 2 0 0 1 1.63 1c.12.76-.09 2-.6 2.33a51.36 51.36 0 0 1-5.59 2.38zM389.48 72.41h-.61c-1.63.1-3.68.47-3.52-2s2.17-2.63 4.09-2.41a4.4 4.4 0 0 1 2.48.92 4.29 4.29 0 0 1 1.19 2.61c0 .33-1.32.87-2.11 1.1a3.63 3.63 0 0 1-1.52-.22zM290.75 87.39c-3-.51-3.59-2.53-3-4.42.4-1.25 2-2.41 3.28-3 1.5-.71 2.84.75 2.23 2.39a48.72 48.72 0 0 1-2.51 5.03zM269.93 218.76c3.24.13 4.42-1.61 5.71-3.46a3.39 3.39 0 0 1 2.69-.94c.44 0 1.15 1.46 1.05 2.16-.47 3.46-2.92 5.24-6 6.39-2.65 1-5.11.65-6.93-1.55a7.77 7.77 0 0 1-1.58-3.9c-.1-.82.86-1.76 1.34-2.65a10.63 10.63 0 0 1 2.48 1.45 8.82 8.82 0 0 1 1.24 2.5zM470.81 186.31a56.72 56.72 0 0 1 5.6 4.75c2 2.23 1.09 4.53-1.92 4.92-2.48.32-4.69-.33-6-2.67s-.31-4.68 2.32-7zM205.35 243.07a49.1 49.1 0 0 1-5.26-4.09c-.45-.44-.2-2.21.35-2.83a2.73 2.73 0 0 1 2.67 0c1.91 2.51 3.83 1.86 6.11.67.7-.37 1.89.22 2.85.38-.28 1.09-.22 2.65-.92 3.17-1.52 1.07-3.44 1.63-5.8 2.7zM322.55 216.85c-.89-.11-1.61-.17-2.31-.29-2-.33-3.53-1.31-2.93-3.58s2.07-1.84 3.81-1.09c1.26.54 2.85.28 4.18.71a8.64 8.64 0 0 1 2.31 1.77c-.67.73-1.23 1.73-2.06 2.11a9.43 9.43 0 0 1-3 .37zM103.48 200.28c-.11 3.14-1.81 5.29-3.79 4.88a3.71 3.71 0 0 1-2.41-2.22c-.4-1.58 2.43-4.27 4.24-4.09.79.08 1.48 1.06 1.96 1.43zM50.23 216.3a15.59 15.59 0 0 1-2.4.92c-1.75.36-4.28-1.64-4-3.35.11-.75 1.61-2 1.9-1.88a27.76 27.76 0 0 1 4 2.77zM405.66 157.18L403.5 155c.88-.73 1.68-1.93 2.66-2.11 6.43-1.18 12.9-2.08 19.34-3.18 2.48-.42 4.89-1.26 7.38-1.63 1-.16 2.18.38 3.27.61-.42 1.08-.58 2.43-1.33 3.18a6.35 6.35 0 0 1-3.37 1.62c-8.25 1.29-16.52 2.4-25.79 3.69z"/></svg>