<?xml version="1.0" standalone="no"?>
<!DOCTYPE svg PUBLIC "-//W3C//DTD SVG 1.1//EN" "http://www.w3.org/Graphics/SVG/1.1/DTD/svg11.dtd" >
<svg>
<metadata>
Created by FontForge 20120731 at Wed Nov 11 04:44:59 2015
 By www-data
Copyright (c) 1994 Carter &#38; Cone Type Inc. All rights reserved.
</metadata>
<defs>
<font id="BigCaslon-Rom" horiz-adv-x="500" >
  <font-face 
    font-family="BigCaslon"
    font-weight="500"
    font-stretch="normal"
    units-per-em="1000"
    panose-1="0 0 0 0 0 0 0 0 0 0"
    ascent="800"
    descent="-200"
    x-height="473"
    cap-height="720"
    bbox="-148 -259 1250 934"
    underline-thickness="20"
    underline-position="-123"
    stemh="18"
    stemv="83"
    unicode-range="U+0020-FB02"
  />
<missing-glyph 
 />
    <glyph glyph-name=".notdef" 
 />
    <glyph glyph-name="space" unicode=" " horiz-adv-x="210" 
 />
    <glyph glyph-name="exclam" unicode="!" horiz-adv-x="303" 
d="M219 562c-4 -9 -45 -91 -55 -371h-12c-11 277 -55 363 -59 371c0 61 35 150 64 150c26 0 62 -89 62 -150zM216 55c0 -35 -24 -57 -59 -57s-60 24 -60 59s25 61 60 61s59 -28 59 -63z" />
    <glyph glyph-name="quotedbl" unicode="&#x22;" horiz-adv-x="356" 
d="M292 676c0 -22 -24 -115 -39 -252h-12c-14 137 -38 226 -38 251c0 29 24 51 44 51s45 -22 45 -50zM153 676c0 -22 -24 -115 -39 -252h-12c-14 137 -38 226 -38 251c0 29 24 51 44 51s45 -22 45 -50z" />
    <glyph glyph-name="numbersign" unicode="#" horiz-adv-x="749" 
d="M660 431l-28 -69h-149l-44 -127h158l-28 -68h-154l-70 -197l-24 6l68 191h-121l-70 -197l-24 6l68 191h-151l28 68h147l45 127h-157l27 69h154l71 197l24 -6l-67 -191h119l71 197l24 -6l-69 -191h152zM460 362h-125l-47 -127h127z" />
    <glyph glyph-name="dollar" unicode="$" horiz-adv-x="482" 
d="M438 145c0 -76 -62 -135 -154 -149l1 -143h-19l1 141c-9 -1 -19 -1 -28 -1h-22l1 -140h-19l1 142c-96 9 -158 53 -158 120c0 28 23 52 50 52c23 0 41 -15 46 -35c-4 -11 -6 -20 -6 -34c0 -40 15 -76 68 -87v222c-14 4 -32 11 -41 14c-59 22 -106 68 -106 133
c0 85 64 137 147 150l-1 118h19l-1 -116c8 1 17 1 25 1s17 0 25 -1l-1 116h19l-1 -118c80 -11 141 -52 141 -117c0 -28 -21 -52 -49 -52c-22 0 -39 15 -44 35c4 11 6 20 6 34c0 39 -15 72 -54 84v-217c15 -5 25 -9 39 -13c71 -22 115 -71 115 -139zM200 321v193
c-45 -13 -73 -47 -73 -97c0 -51 31 -79 73 -96zM267 301v216c-7 1 -17 2 -26 2c-8 0 -17 -1 -24 -2v-201c15 -5 35 -11 50 -15zM267 10v204c-17 6 -33 10 -50 14v-219c6 -1 14 -1 21 -1c10 0 21 1 29 2zM359 116c0 52 -34 78 -75 93v-195c49 15 75 54 75 102z" />
    <glyph glyph-name="percent" unicode="%" horiz-adv-x="647" 
d="M308 526c0 -79 -60 -136 -127 -136c-55 0 -131 41 -131 138c0 69 56 130 132 130c63 0 126 -48 126 -132zM550 624l-425 -617l-24 15l425 618zM607 132c0 -79 -60 -136 -127 -136c-55 0 -131 41 -131 138c0 69 56 130 132 130c63 0 126 -48 126 -132zM274 523
c0 56 -37 108 -94 108c-56 0 -95 -52 -95 -108c0 -55 39 -106 96 -106s93 51 93 106zM573 129c0 56 -37 108 -94 108c-56 0 -95 -52 -95 -108c0 -55 39 -106 96 -106s93 51 93 106z" />
    <glyph glyph-name="ampersand" unicode="&#x26;" horiz-adv-x="854" 
d="M875 484c-138 -18 -217 -153 -323 -276c18 -24 41 -56 77 -93c35 -36 66 -61 118 -61c53 0 96 47 116 80l9 -4c-18 -54 -103 -145 -196 -145c-87 0 -151 72 -197 143c-36 -50 -125 -138 -235 -138c-124 0 -197 83 -197 180c0 113 104 186 196 232
c-58 61 -105 93 -105 181c0 89 90 149 172 149c71 0 146 -42 146 -127c0 -86 -87 -138 -113 -155c41 -32 75 -68 108 -105c37 -42 70 -89 92 -126c61 78 113 159 113 195c0 58 -69 60 -130 62v12l349 8v-12zM383 585c0 61 -37 125 -91 125c-48 0 -68 -49 -68 -80
c0 -43 7 -61 27 -89c23 -32 47 -51 83 -83c34 36 49 72 49 127zM472 139c-36 60 -60 90 -109 148c-27 32 -83 83 -109 106c-45 -37 -102 -102 -102 -183s57 -148 141 -148c83 0 122 26 179 77z" />
    <glyph glyph-name="quoteright" unicode="&#x2019;" horiz-adv-x="126" 
d="M145 642c0 -66 -60 -109 -125 -109v10c47 9 74 28 74 70c0 12 -3 22 -6 29c-12 -9 -29 -12 -39 -12c-26 0 -41 22 -41 42c0 33 30 51 60 51c45 0 77 -37 77 -81z" />
    <glyph glyph-name="parenleft" unicode="(" horiz-adv-x="313" 
d="M293 -130l-13 -13c-116 86 -244 206 -244 438c0 224 121 344 243 436l14 -13c-113 -84 -220 -211 -220 -423c0 -217 114 -351 220 -425z" />
    <glyph glyph-name="parenright" unicode=")" horiz-adv-x="313" 
d="M277 295c0 -232 -128 -352 -244 -438l-13 13c106 74 220 208 220 425c0 212 -107 339 -220 423l14 13c122 -92 243 -212 243 -436z" />
    <glyph glyph-name="asterisk" unicode="*" horiz-adv-x="388" 
d="M348 470l-4 -6c-28 1 -46 7 -69 21c-25 15 -44 35 -68 56l-10 -5c6 -32 18 -56 18 -85c0 -28 -6 -48 -18 -73h-8c-12 25 -17 45 -17 73c0 33 11 52 17 85l-9 4c-26 -20 -42 -40 -67 -55c-23 -14 -41 -19 -70 -20l-4 6c16 25 29 36 53 49c29 17 51 18 83 27v13
c-31 11 -58 13 -83 29c-24 14 -38 26 -52 50l3 7c29 -1 46 -7 70 -22c35 -22 40 -35 66 -56l10 6c-7 31 -17 53 -17 85c0 28 5 47 17 72h8c12 -25 18 -44 18 -72s-11 -53 -17 -85l11 -6c25 21 33 38 66 56c30 17 42 21 69 22l4 -7c-14 -24 -27 -34 -53 -50
c-29 -18 -52 -18 -82 -29v-13c32 -9 54 -10 82 -27s39 -24 53 -50z" />
    <glyph glyph-name="plus" unicode="+" horiz-adv-x="700" 
d="M575 241h-205v-206h-40v206h-205v39h205v205h40v-205h205v-39z" />
    <glyph glyph-name="comma" unicode="," horiz-adv-x="243" 
d="M206 -1c0 -64 -45 -110 -89 -141l-7 7c39 34 64 71 64 125c0 24 -11 50 -25 53c-3 -26 -20 -45 -50 -45c-28 0 -48 22 -48 52c0 38 30 60 64 60c55 0 91 -54 91 -111z" />
    <glyph glyph-name="hyphen" unicode="-" horiz-adv-x="256" 
d="M243 225h-231v70h231v-70z" />
    <glyph glyph-name="period" unicode="." horiz-adv-x="243" 
d="M182 54c0 -35 -23 -57 -58 -57s-60 24 -60 59s25 61 60 61s58 -28 58 -63z" />
    <glyph glyph-name="slash" unicode="/" horiz-adv-x="311" 
d="M353 747l-371 -891l-33 12l371 892z" />
    <glyph glyph-name="zero" unicode="0" horiz-adv-x="533" 
d="M506 243c0 -143 -111 -248 -237 -248c-104 0 -242 75 -242 251c0 125 101 236 245 236c118 0 234 -87 234 -239zM458 238c0 107 -77 202 -191 202c-111 0 -192 -95 -192 -202s82 -201 194 -201c113 0 189 94 189 201z" />
    <glyph glyph-name="one" unicode="1" horiz-adv-x="316" 
d="M281 0h-239v11c36 1 76 14 76 44v364c0 31 -44 42 -80 43v11h243v-11c-35 -1 -80 -13 -80 -44v-364c0 -34 47 -42 80 -43v-11z" />
    <glyph glyph-name="two" unicode="2" horiz-adv-x="436" 
d="M437 134l-50 -134h-341l-3 8c90 76 231 196 231 296c0 54 -31 107 -95 107c-67 0 -114 -42 -146 -94l-10 6c28 53 111 160 209 160c66 0 117 -44 117 -116c0 -113 -110 -201 -195 -281v-2h180c71 0 79 24 93 53z" />
    <glyph glyph-name="three" unicode="3" horiz-adv-x="396" 
d="M370 -3c0 -150 -139 -249 -295 -249c-38 0 -86 20 -86 62c0 21 10 38 37 38c44 0 59 -74 116 -74c21 1 145 27 145 167c0 95 -83 157 -179 157h-13l-3 6c70 54 166 121 166 219c0 54 -47 89 -105 89c-57 0 -94 -16 -123 -61l-9 5c30 63 80 127 165 127
c90 0 154 -53 154 -128c0 -70 -57 -119 -139 -184c87 -18 169 -84 169 -174z" />
    <glyph glyph-name="four" unicode="4" horiz-adv-x="551" 
d="M525 5h-136v-233h-88v233h-294c-10 0 -16 1 -9 12l48 67l312 399h29v-401h138v-77zM301 82v297l-235 -297h235z" />
    <glyph glyph-name="five" unicode="5" horiz-adv-x="393" 
d="M385 511c-9 -24 -25 -72 -43 -134h-239l-17 -186c24 4 43 6 69 6c144 0 218 -90 218 -204c0 -143 -128 -245 -235 -245c-66 0 -138 23 -138 83c0 21 15 39 36 39c63 0 44 -99 131 -99c88 0 125 94 125 180c0 119 -72 157 -130 157c-62 0 -83 -23 -100 -68l-10 2l44 431
h213c44 0 52 14 64 42z" />
    <glyph glyph-name="six" unicode="6" horiz-adv-x="512" 
d="M487 237c0 -127 -94 -239 -233 -239c-124 0 -227 119 -227 250c0 239 261 429 448 480l8 -12c-103 -46 -217 -136 -288 -277c22 7 40 10 71 10c132 0 221 -95 221 -212zM396 196c-1 108 -45 234 -155 234c-23 0 -41 -5 -56 -21c-52 -57 -67 -134 -67 -206
c0 -119 54 -189 139 -189c81 0 139 62 139 182z" />
    <glyph glyph-name="seven" unicode="7" horiz-adv-x="444" 
d="M459 473c-12 -27 -169 -412 -289 -723l-67 3c20 40 218 432 303 635h-271c-85 0 -105 -56 -119 -87l-12 4l65 168h390z" />
    <glyph glyph-name="eight" unicode="8" horiz-adv-x="486" 
d="M453 193c0 -115 -99 -199 -219 -199c-94 0 -198 64 -198 164c0 83 77 137 144 183c-69 48 -136 103 -136 199c0 106 100 187 199 187c124 0 200 -71 200 -156c0 -79 -73 -135 -151 -183c56 -31 161 -88 161 -195zM375 571c0 75 -47 139 -130 139
c-66 0 -128 -42 -128 -119c0 -105 94 -157 158 -194c68 39 100 94 100 174zM371 138c0 92 -68 143 -174 195c-61 -36 -89 -114 -89 -170c0 -96 60 -152 142 -152c89 0 121 66 121 127z" />
    <glyph glyph-name="nine" unicode="9" horiz-adv-x="512" 
d="M486 231c0 -249 -240 -439 -435 -490l-6 15c113 47 218 129 287 290c-29 -12 -55 -15 -86 -15c-138 0 -220 97 -220 219c0 125 99 233 228 233c131 0 232 -118 232 -252zM393 261c0 101 -43 206 -139 206c-85 0 -141 -63 -141 -171c0 -109 51 -244 160 -244
c28 0 51 5 67 25c43 54 53 117 53 184z" />
    <glyph glyph-name="colon" unicode=":" horiz-adv-x="263" 
d="M192 364c0 -33 -27 -57 -58 -57s-59 22 -59 57c0 34 28 57 59 57s58 -26 58 -57zM192 54c0 -33 -27 -57 -58 -57s-59 21 -59 57c0 34 28 57 59 57s58 -26 58 -57z" />
    <glyph glyph-name="semicolon" unicode=";" horiz-adv-x="263" 
d="M174 250c0 -32 -26 -55 -56 -55s-57 21 -57 55c0 33 27 55 57 55s56 -25 56 -55zM201 8c0 -83 -67 -145 -128 -151l-3 10c57 10 98 60 98 117c0 21 -3 34 -16 39c-8 -20 -27 -30 -44 -30c-29 0 -48 24 -48 51c0 31 28 55 59 55c42 0 82 -39 82 -91z" />
    <glyph glyph-name="less" unicode="&#x3c;" horiz-adv-x="1000" 
d="M953 121h-36l-171 132h-31l171 -132h-37l-171 132h-31l171 -132h-37l-171 132h-30l170 -132h-36l-170 131h-371c45 -48 101 -115 107 -146l-6 -4c-92 70 -136 104 -232 159v4c105 60 147 93 232 159l6 -4c-6 -31 -62 -100 -107 -148h371l170 131h36l-170 -132h30l171 132
h37l-171 -132h31l171 132h37l-171 -132h31l171 132h36l-173 -132h27v-18h-27z" />
    <glyph glyph-name="equal" unicode="=" horiz-adv-x="700" 
d="M555 300h-410v39h410v-39zM555 186h-410v39h410v-39z" />
    <glyph glyph-name="greater" unicode="&#x3e;" horiz-adv-x="1000" 
d="M958 261c-96 -55 -140 -89 -232 -159l-6 4c6 31 62 98 107 146h-371l-170 -131h-36l170 132h-30l-171 -132h-37l171 132h-31l-171 -132h-37l171 132h-31l-171 -132h-36l173 132h-27v18h27l-173 132h36l171 -132h31l-171 132h37l171 -132h31l-171 132h37l171 -132h30
l-170 132h36l170 -131h371c-45 48 -101 117 -107 148l6 4c85 -66 127 -99 232 -159v-4z" />
    <glyph glyph-name="question" unicode="?" horiz-adv-x="383" 
d="M311 447c0 -46 -7 -122 -33 -146c-27 -25 -69 -37 -149 -53v-81h-18v175c34 6 69 12 101 22c54 17 79 40 79 106c0 86 -66 101 -125 101c-9 0 -33 -2 -56 -4v156h17v-49c60 0 95 -8 130 -41c48 -44 54 -128 54 -186zM192 55c0 -35 -24 -57 -59 -57s-60 24 -60 59
s25 61 60 61s59 -28 59 -63z" />
    <glyph glyph-name="at" unicode="@" horiz-adv-x="868" 
d="M825 337c0 -171 -128 -319 -309 -319c-29 0 -54 6 -75 17l71 164l-6 2c-66 -81 -170 -181 -255 -181c-38 0 -49 23 -49 50c0 142 231 392 347 392c23 0 41 -14 54 -30l25 35h59l-170 -408c10 -1 19 -3 29 -3c159 0 258 139 258 285c0 154 -122 258 -283 258
c-240 0 -417 -226 -417 -450c0 -192 136 -310 324 -310c116 0 201 40 286 111l8 -9c-82 -79 -186 -120 -311 -120c-214 0 -357 142 -357 345c0 249 202 457 449 457c178 0 322 -115 322 -286zM570 389c0 25 -15 53 -44 53c-71 0 -243 -230 -243 -338c0 -20 12 -37 36 -37
c67 0 251 199 251 322z" />
    <glyph glyph-name="A" unicode="A" horiz-adv-x="704" 
d="M736 0h-292v10c9 1 70 8 70 46c0 23 -32 115 -72 220h-266c-20 -50 -39 -95 -57 -142c-14 -36 -21 -63 -21 -76c0 -35 48 -44 83 -48v-10h-215v11c35 4 64 24 68 29c9 9 31 42 62 110c57 126 143 329 206 479l-10 22c48 21 77 64 88 83h8c83 -222 147 -393 210 -562
c15 -41 26 -64 42 -98c6 -12 35 -60 96 -62v-12zM434 297c-45 119 -97 249 -121 309c-15 -36 -65 -152 -128 -309h249z" />
    <glyph glyph-name="B" unicode="B" horiz-adv-x="745" 
d="M684 197c0 -95 -65 -155 -124 -177c-51 -19 -118 -20 -176 -20h-345v10c33 5 66 17 84 38c13 16 17 65 18 108c1 37 2 134 2 207c0 80 0 115 -1 195c-1 47 -4 105 -20 122c-20 21 -36 26 -72 30v10h337c51 0 96 -5 139 -21c67 -25 117 -78 117 -157
c0 -87 -63 -143 -153 -161v-4c97 -11 194 -73 194 -180zM528 542c0 66 -38 123 -89 145c-29 13 -69 20 -115 20c-28 0 -52 -3 -64 -7c-3 -17 -4 -22 -6 -71c-3 -93 -2 -241 -2 -253c44 0 75 0 93 1c120 7 183 74 183 165zM567 186c0 76 -53 140 -124 163
c-29 9 -56 12 -94 12h-97c0 -86 0 -173 1 -217c1 -50 2 -82 18 -103c12 -15 34 -26 79 -26c38 0 86 3 129 25c55 29 88 79 88 146z" />
    <glyph glyph-name="C" unicode="C" horiz-adv-x="776" 
d="M727 489l-12 -1c-36 128 -141 230 -275 230c-184 0 -289 -181 -289 -361c0 -193 114 -345 291 -345c138 0 247 109 272 224h12l-3 -220h-12c-16 23 -37 45 -43 45c-5 0 -87 -67 -236 -67c-249 0 -404 153 -404 368c0 47 10 125 59 202c57 91 164 171 339 171
c161 0 238 -70 244 -70c5 0 31 25 46 48h11v-224z" />
    <glyph glyph-name="D" unicode="D" horiz-adv-x="852" 
d="M822 370c0 -302 -231 -370 -416 -370h-365v10c33 4 68 18 84 37c12 14 15 66 16 109c1 37 2 134 2 207v195c0 47 0 99 -15 117c-20 24 -48 31 -83 35v10c55 0 163 1 312 1c84 0 176 3 261 -34c111 -49 204 -145 204 -317zM699 368c0 154 -102 303 -240 328
c-26 5 -57 9 -103 9c-33 0 -78 -4 -97 -8c-7 -65 -7 -182 -7 -340c0 -85 0 -158 1 -202c1 -38 5 -92 22 -109c27 -27 72 -31 108 -31c33 0 71 3 101 12c143 41 215 167 215 341z" />
    <glyph glyph-name="E" unicode="E" horiz-adv-x="711" 
d="M703 191l-50 -191h-612v10c33 5 64 17 82 38c13 16 17 65 18 108c1 37 2 134 2 207v195c0 47 -1 106 -17 123c-20 21 -40 24 -76 29v10h552l68 -165l-10 -5c-54 67 -106 113 -152 136c-23 11 -88 20 -175 20c-28 0 -63 -2 -76 -5c-2 -21 -5 -94 -5 -182
c0 -101 1 -136 1 -143c12 0 91 0 126 8c81 19 100 63 116 138h12v-315h-12c-11 42 -35 95 -59 117c-21 19 -51 32 -91 34s-49 2 -91 2c-2 -18 -2 -58 -2 -97c0 -36 0 -93 1 -119c1 -43 3 -85 15 -103s64 -26 117 -26c22 0 61 1 99 6c84 11 142 59 208 173z" />
    <glyph glyph-name="F" unicode="F" horiz-adv-x="656" 
d="M674 552l-10 -5c-54 67 -104 117 -150 140c-23 11 -87 19 -165 19c-28 0 -72 -2 -86 -3c-4 -16 -7 -28 -9 -77c-3 -93 -2 -237 -2 -250c9 0 91 0 129 8c96 20 106 72 116 138h12v-322h-12c-11 42 -31 97 -59 122c-25 22 -52 33 -91 36c-40 3 -53 2 -95 2
c0 -86 0 -172 1 -216c1 -43 3 -85 15 -103s39 -29 93 -31v-10h-320v10c33 5 64 17 82 38c13 16 17 65 18 108c1 37 2 134 2 207v195c0 47 -1 106 -17 123c-20 21 -40 24 -76 29v10h556z" />
    <glyph glyph-name="G" unicode="G" horiz-adv-x="825" 
d="M791 333c-23 -3 -54 -10 -66 -29c-9 -14 -9 -50 -9 -80v-146c-19 -15 -157 -85 -285 -85c-253 0 -403 140 -403 368c0 67 22 180 114 269c64 62 155 104 288 104c161 0 245 -67 251 -67c2 0 16 18 33 41h9v-218h-12c-14 59 -47 116 -80 151c-43 45 -112 76 -194 76
c-177 0 -286 -169 -286 -358c0 -208 103 -350 281 -350c63 0 123 21 155 70c11 17 16 68 16 114c0 47 -2 85 -24 109c-16 18 -44 28 -81 31v10h293v-10z" />
    <glyph glyph-name="H" unicode="H" horiz-adv-x="900" 
d="M850 0h-307v10c49 4 84 20 95 37c6 9 7 51 8 83c2 87 1 198 1 226h-395v-215c0 -38 0 -80 10 -94c16 -22 49 -35 77 -37v-10h-295v10c33 5 67 18 83 37c11 13 13 66 14 109c1 37 2 134 2 207v195c0 47 0 99 -15 117c-19 22 -46 31 -81 35v10h298v-10
c-38 -5 -89 -18 -91 -80c-3 -93 -2 -228 -2 -254h395c0 86 1 133 -1 220c-1 25 -1 56 -12 73c-24 36 -57 40 -87 41v10h301v-10c-32 -4 -67 -17 -81 -44c-10 -19 -10 -71 -10 -110v-171c0 -98 0 -152 1 -249c0 -38 1 -75 9 -87c17 -26 48 -35 83 -39v-10z" />
    <glyph glyph-name="I" unicode="I" horiz-adv-x="399" 
d="M349 0h-303v10c33 5 63 16 83 39c13 15 13 64 14 107c1 37 2 134 2 207v195c0 47 0 99 -15 117c-19 22 -46 31 -81 35v10h299v-10c-28 -4 -65 -11 -82 -43c-12 -23 -10 -62 -11 -92c-1 -68 -1 -126 -1 -208v-226c0 -38 0 -80 10 -94c16 -22 57 -35 85 -37v-10z" />
    <glyph glyph-name="J" unicode="J" horiz-adv-x="399" 
d="M380 710c-28 -4 -67 -11 -84 -43c-11 -21 -10 -62 -11 -92c-1 -68 -1 -126 -1 -208v-235c0 -44 -24 -74 -58 -100c-43 -33 -91 -49 -130 -49c-43 0 -87 21 -87 71c0 32 28 54 59 54c27 0 49 -22 49 -49c0 -31 -21 -43 -49 -47v-3c7 -9 20 -16 31 -16c33 0 54 26 63 57
c8 29 11 69 12 106s1 134 1 207v195c0 47 1 102 -14 120c-19 22 -54 28 -89 32v10h308v-10z" />
    <glyph glyph-name="K" unicode="K" horiz-adv-x="767" 
d="M805 0h-225c-5 3 -12 7 -20 16c-85 99 -158 184 -241 275c-35 38 -43 43 -52 43c-10 0 -12 -5 -16 -15c0 -69 0 -134 1 -178c1 -38 4 -75 17 -92c19 -26 69 -37 96 -39v-10h-321v10c33 5 67 15 83 34c14 16 14 69 15 112c1 37 1 134 1 207v195c0 50 -1 98 -16 116
c-19 22 -45 32 -80 36v10h310v-10c-50 -6 -100 -9 -103 -120c-2 -61 -2 -95 -2 -244c48 28 173 156 236 226c23 26 44 56 44 79c0 39 -32 54 -66 59v10h268v-10c-68 -6 -138 -65 -209 -131c-55 -52 -120 -119 -166 -166c22 -28 167 -191 279 -316c27 -31 74 -67 81 -70
c17 -7 49 -15 86 -17v-10z" />
    <glyph glyph-name="L" unicode="L" horiz-adv-x="708" 
d="M713 206l-37 -206h-642v10c33 5 70 17 88 38c13 16 18 65 19 108c1 37 2 134 2 207v194c0 47 0 97 -15 115c-19 22 -52 34 -87 38v10h319v-10c-36 -5 -103 -16 -105 -88c-3 -93 -3 -147 -3 -246c0 -91 0 -139 1 -230c1 -43 1 -86 13 -104c10 -14 69 -27 122 -27
c22 0 100 2 146 15c106 29 136 99 169 179z" />
    <glyph glyph-name="M" unicode="M" horiz-adv-x="991" 
d="M959 0h-343v11c57 3 98 27 111 55c8 17 12 45 13 72c2 88 2 165 2 250v283c-88 -197 -142 -317 -230 -513c-13 -28 -53 -126 -59 -141h-6c-127 297 -262 594 -281 638c-1 -175 -2 -254 -2 -449c0 -125 6 -181 122 -196v-10h-261v10c92 18 114 68 118 204
c2 57 4 138 4 227c0 76 1 98 -1 175c-2 75 -66 89 -99 94v10h213l239 -544c118 253 232 523 241 544h213v-10c-54 -1 -81 -26 -92 -55c-8 -22 -10 -78 -11 -124c-1 -64 -1 -123 -1 -184c0 -71 0 -142 1 -220c0 -25 3 -54 11 -69c3 -6 33 -46 98 -48v-10z" />
    <glyph glyph-name="N" unicode="N" horiz-adv-x="875" 
d="M846 710c-49 -7 -78 -24 -94 -62c-9 -20 -11 -81 -13 -142c-2 -57 -5 -138 -5 -227c0 -76 1 -195 1 -273c0 -5 -3 -11 -10 -11c-5 0 -12 5 -18 12c-228 261 -361 426 -542 629v-422c0 -67 2 -127 15 -153c15 -30 45 -44 99 -51v-10h-246v10c32 4 68 15 86 44
c18 28 22 84 24 160c2 57 4 138 4 227c0 76 1 94 -1 171c-8 78 -64 92 -106 98v10h203l474 -554v340c0 53 0 106 -10 134c-13 37 -45 61 -109 70v10h248v-10z" />
    <glyph glyph-name="O" unicode="O" horiz-adv-x="808" 
d="M779 365c0 -213 -172 -372 -377 -372c-203 0 -373 153 -373 368c0 230 177 369 386 369c227 0 364 -173 364 -365zM655 364c0 162 -82 349 -252 349c-174 0 -250 -183 -250 -355c0 -181 84 -348 253 -348c167 0 249 187 249 354z" />
    <glyph glyph-name="P" unicode="P" horiz-adv-x="656" 
d="M636 512c0 -98 -69 -160 -142 -186c-75 -27 -177 -25 -242 -25c0 -86 0 -113 1 -157c1 -43 0 -73 13 -93c11 -17 41 -39 95 -41v-10h-320v10c33 5 67 15 84 36c14 17 15 67 16 110c1 37 2 134 2 207v195c0 47 -1 104 -17 121c-20 21 -53 26 -89 31v10c25 0 212 2 284 2
c87 0 153 -5 213 -38c58 -32 102 -92 102 -172zM528 517c0 77 -43 141 -107 171c-32 15 -69 19 -107 19c-28 0 -42 -3 -51 -4c-4 -16 -7 -17 -9 -77c-3 -93 -2 -291 -2 -311c54 0 103 2 144 16c85 29 132 102 132 186z" />
    <glyph glyph-name="Q" unicode="Q" horiz-adv-x="808" 
d="M779 365c0 -190 -135 -331 -311 -363c0 -75 65 -111 133 -111c24 0 46 2 72 13l5 -8c-38 -27 -89 -49 -153 -49c-103 0 -186 42 -199 154c-162 35 -297 171 -297 360c0 113 43 206 130 280c70 60 160 89 256 89c227 0 364 -173 364 -365zM655 364c0 162 -82 349 -252 349
c-174 0 -250 -183 -250 -355c0 -181 97 -352 253 -352c182 0 249 197 249 358z" />
    <glyph glyph-name="R" unicode="R" horiz-adv-x="762" 
d="M797 0h-205c-23 24 -16 14 -58 76c-50 74 -73 116 -137 190c-26 30 -59 61 -93 68c-25 5 -33 4 -52 5c0 -86 0 -150 1 -194c1 -43 0 -73 13 -93c11 -17 41 -40 95 -42v-10h-320v10c33 5 67 15 84 36c14 17 15 67 16 110c1 37 2 134 2 207v195c0 47 -1 104 -17 121
c-20 21 -43 26 -79 31v10c21 0 202 1 274 1c89 0 157 -1 214 -31c58 -31 98 -82 98 -162c0 -98 -76 -156 -165 -184v-3c23 -12 44 -36 64 -64c35 -50 79 -115 111 -160c49 -70 91 -98 154 -107v-10zM518 534c0 66 -34 121 -98 151c-32 15 -68 21 -106 21
c-28 0 -45 -2 -54 -3c-3 -16 -4 -17 -6 -77c-3 -93 -2 -253 -2 -274c54 0 101 4 145 18c86 27 121 92 121 164z" />
    <glyph glyph-name="S" unicode="S" horiz-adv-x="605" 
d="M558 197c0 -128 -109 -206 -261 -206c-130 0 -184 45 -191 45c-4 0 -20 -20 -31 -35h-9l-3 199h10c24 -71 78 -142 124 -166c23 -12 64 -27 99 -27c98 0 166 59 166 150c0 75 -51 108 -115 132c-65 24 -87 29 -147 52c-69 27 -132 95 -132 181c0 143 113 209 240 209
c120 0 168 -48 172 -48s20 20 30 36h11v-185h-11c-33 89 -99 181 -203 181c-84 0 -150 -50 -150 -141c0 -70 48 -111 115 -136c54 -21 91 -31 143 -50c90 -33 143 -97 143 -191z" />
    <glyph glyph-name="T" unicode="T" horiz-adv-x="737" 
d="M750 535l-9 -3c-21 48 -62 107 -83 127c-28 26 -58 33 -108 34c-51 1 -68 1 -127 1c-1 -68 -1 -245 -1 -327v-222c0 -38 1 -79 11 -93c20 -29 63 -37 92 -42v-10h-325v10c35 4 67 9 97 43c13 14 13 64 14 107c1 37 2 130 2 203v331c-57 0 -76 0 -127 -1
c-50 -1 -80 -11 -108 -37c-21 -20 -60 -76 -81 -124l-9 3l32 190c31 -7 49 -11 99 -12c101 -2 151 -2 250 -2s149 1 250 2c44 1 68 8 99 17z" />
    <glyph glyph-name="U" unicode="U" horiz-adv-x="834" 
d="M824 710c-49 -7 -76 -24 -92 -62c-9 -20 -13 -90 -14 -151c-1 -57 -4 -127 -6 -216c-2 -75 0 -293 -292 -293c-287 0 -290 214 -290 264c0 37 1 100 1 173v133c0 47 0 99 -15 117c-19 22 -46 31 -81 35v10h298v-10c-38 -5 -89 -18 -91 -80c-2 -69 -2 -100 -2 -172
c0 -92 0 -138 1 -202c3 -142 80 -234 213 -234c227 0 238 170 240 305c1 72 0 113 0 170c0 53 -1 115 -11 143c-13 37 -43 61 -107 70v10h248v-10z" />
    <glyph glyph-name="V" unicode="V" horiz-adv-x="667" 
d="M702 709c-35 -4 -64 -26 -68 -31c-9 -9 -27 -31 -59 -108c-54 -129 -131 -325 -189 -477l-49 -102h-12c-87 222 -152 387 -219 557c-20 50 -30 72 -47 105c-8 15 -30 54 -91 56v11h301v-10c-13 -2 -79 -10 -79 -51c0 -35 147 -399 193 -517c12 30 78 196 150 389
c27 73 32 108 32 123c0 39 -61 52 -96 56v10h233v-11z" />
    <glyph glyph-name="W" unicode="W" horiz-adv-x="991" 
d="M1021 710c-33 -4 -59 -24 -63 -29c-9 -9 -33 -32 -59 -110c-44 -131 -113 -325 -164 -478l-42 -98h-10c-72 196 -123 349 -178 499c-44 -123 -96 -275 -141 -399l-44 -100h-12c-82 220 -146 385 -209 554c-19 50 -27 72 -43 105c-8 15 -28 53 -86 55v11h284v-10
c-13 -1 -74 -6 -74 -51c0 -35 140 -389 184 -507c8 21 69 189 129 372c-20 53 -34 91 -53 130c-10 20 -33 53 -98 55v11h313v-10c-16 -2 -93 -10 -93 -51c0 -26 147 -425 174 -501c11 29 89 256 133 399c19 61 18 85 18 98c0 39 -53 51 -86 55v10h220v-10z" />
    <glyph glyph-name="X" unicode="X" horiz-adv-x="708" 
d="M734 710c-68 -14 -115 -59 -173 -129c-45 -54 -114 -137 -153 -185c17 -24 148 -212 178 -254c54 -78 83 -123 140 -132v-10h-324v10c37 4 92 11 92 49c0 19 -20 52 -43 87c-30 48 -70 104 -120 174c-43 -51 -106 -128 -139 -173c-19 -27 -36 -54 -36 -78
c0 -38 55 -55 92 -59v-10h-267v10c55 14 113 60 173 127c40 45 126 151 166 199c-15 21 -130 183 -172 242c-56 78 -82 114 -143 132v10h326v-10c-36 -4 -95 -12 -95 -49c0 -19 22 -51 46 -86c33 -48 64 -93 114 -164c44 50 94 117 128 161c16 21 40 59 40 80
c0 38 -56 52 -91 58v10h261v-10z" />
    <glyph glyph-name="Y" unicode="Y" horiz-adv-x="649" 
d="M682 710c-74 -11 -102 -54 -151 -128c-33 -50 -122 -188 -154 -236v-201c0 -38 1 -81 11 -95c20 -29 56 -35 85 -40v-10h-308v10c35 4 57 7 87 41c13 14 13 66 14 109c1 37 2 87 2 160c-7 11 -122 199 -160 258c-50 78 -81 128 -135 132v10h305v-10
c-39 -4 -87 -8 -87 -42c0 -17 24 -57 45 -93c28 -48 86 -141 130 -213c34 50 109 169 134 211c12 20 36 59 36 86c0 42 -48 45 -85 51v10h231v-10z" />
    <glyph glyph-name="Z" unicode="Z" horiz-adv-x="694" 
d="M695 225l-72 -225h-603l-4 7l506 695c-57 0 -196 0 -246 -2s-91 -22 -124 -48s-98 -100 -127 -148l-11 4l73 213c55 -4 421 -3 569 -3l3 -6l-505 -694c66 -1 118 -1 171 -1c22 0 61 1 99 5c108 12 194 93 260 207z" />
    <glyph glyph-name="bracketleft" unicode="[" horiz-adv-x="286" 
d="M276 -107h-227v827h227v-24h-199v-779h199v-24z" />
    <glyph glyph-name="backslash" unicode="\" horiz-adv-x="311" 
d="M362 -132l-33 -12l-371 891l33 13z" />
    <glyph glyph-name="bracketright" unicode="]" horiz-adv-x="286" 
d="M237 -107h-227v24h199v779h-199v24h227v-827z" />
    <glyph glyph-name="asciicircum" unicode="^" horiz-adv-x="850" 
d="M883 579c0 -93 -67 -152 -156 -152c-50 0 -76 5 -115 20l-2 -2c33 -43 58 -96 58 -159c0 -169 -156 -290 -323 -290c-196 0 -325 130 -325 274c0 143 129 178 162 178c-22 30 -47 63 -47 118c0 86 68 155 146 155c86 0 127 -56 127 -118c0 -34 -27 -59 -60 -59
c-24 0 -47 20 -47 44c0 23 17 45 42 45c15 0 26 -5 34 -18h2c5 7 7 12 7 20c0 36 -30 50 -71 50c-74 0 -135 -80 -135 -160c0 -32 3 -60 20 -76c27 0 43 -1 65 -8s50 -30 50 -57c0 -17 -15 -30 -34 -30c-30 0 -60 53 -87 79c-5 1 -8 2 -21 2c-45 0 -95 -68 -95 -138
c0 -129 133 -207 256 -207c58 0 113 9 154 29c102 49 142 137 142 214c0 70 -22 121 -88 121c-60 0 -116 -24 -116 -87c0 -28 18 -51 44 -51c7 0 12 0 18 3l1 4c-20 15 -29 22 -29 40c0 30 23 44 50 44c32 0 48 -26 48 -54c0 -38 -32 -63 -70 -63c-45 0 -76 38 -76 82
c0 42 24 73 77 104c42 24 92 36 139 36c54 0 54 -1 90 -1c46 0 130 9 130 94c0 69 -35 87 -83 87c-19 0 -25 -6 -31 -13l1 -4c17 -3 33 -18 33 -37c0 -34 -24 -52 -56 -52c-34 0 -55 27 -55 60c0 43 51 70 91 70c68 0 135 -56 135 -137z" />
    <glyph glyph-name="underscore" unicode="_" 
d="M500 -131h-500v34h500v-34z" />
    <glyph glyph-name="quoteleft" unicode="&#x2018;" horiz-adv-x="126" 
d="M118 581c0 -33 -30 -51 -60 -51c-45 0 -77 37 -77 81c0 66 60 109 125 109v-10c-47 -9 -74 -28 -74 -70c0 -12 3 -22 6 -29c12 9 29 12 39 12c26 0 41 -22 41 -42z" />
    <glyph glyph-name="a" unicode="a" horiz-adv-x="448" 
d="M465 98c-3 -51 -43 -101 -99 -101c-45 0 -87 25 -87 92l-2 1c-22 -36 -73 -91 -144 -91c-42 0 -93 26 -93 95c0 37 34 73 78 101c88 56 133 76 161 93v103c0 6 -15 46 -78 46c-43 0 -85 -35 -85 -51v-45c0 -18 -24 -36 -46 -36c-21 0 -39 18 -39 38c0 33 37 52 59 65
c69 41 149 75 183 75c35 0 69 -21 82 -47c5 -9 6 -36 6 -59c0 -95 -2 -148 -2 -239c0 -60 25 -74 51 -74c31 0 44 14 49 34h6zM279 118v154c-48 -35 -160 -75 -160 -143c0 -35 26 -68 65 -68c34 0 61 7 83 29c9 8 12 18 12 28z" />
    <glyph glyph-name="b" unicode="b" horiz-adv-x="538" 
d="M519 242c0 -135 -99 -245 -235 -245c-76 0 -141 24 -183 60h-5l-24 -54h-7v623c-12 8 -35 21 -58 33v6l134 61h8l-3 -356l2 -1c23 55 101 114 176 114c124 0 195 -115 195 -241zM427 228c0 100 -49 192 -159 192c-82 0 -119 -61 -120 -78c-1 -16 -1 -53 -1 -71
c0 -26 0 -53 1 -78c3 -89 39 -180 139 -180c84 0 140 91 140 215z" />
    <glyph glyph-name="c" unicode="c" horiz-adv-x="432" 
d="M441 143c-23 -79 -100 -148 -200 -148c-129 0 -221 110 -221 247c0 127 95 241 226 241c88 0 178 -43 178 -119c0 -28 -24 -52 -52 -52c-23 0 -43 15 -48 35c4 11 5 20 5 34c0 49 -25 86 -81 86c-82 0 -143 -90 -143 -199c0 -121 66 -202 170 -202c82 0 126 28 158 81z
" />
    <glyph glyph-name="d" unicode="d" horiz-adv-x="546" 
d="M533 39l-148 -44h-6v102h-1c-38 -66 -89 -100 -167 -100c-99 0 -192 84 -192 239c0 139 102 247 255 247c40 0 76 -8 105 -17c-2 41 -2 150 -2 179l-82 31v6l159 44h8v-649c10 -6 46 -21 71 -31v-7zM378 135v238c-29 55 -80 91 -119 91c-103 0 -147 -105 -147 -215
s54 -213 158 -213c54 0 97 42 108 99z" />
    <glyph glyph-name="e" unicode="e" horiz-adv-x="435" 
d="M433 152c-10 -60 -78 -155 -188 -155c-137 0 -226 115 -226 254c0 113 83 232 212 232c105 0 186 -53 194 -165h-321c0 -10 -2 -25 -2 -40c0 -113 63 -212 186 -212c66 0 121 39 137 88zM326 376c0 49 -37 90 -94 90c-75 0 -122 -101 -126 -134c60 0 93 1 155 2
c20 0 38 1 51 6c9 10 14 18 14 36z" />
    <glyph glyph-name="f" unicode="f" horiz-adv-x="270" 
d="M379 675c0 -24 -17 -48 -42 -48c-48 0 -64 61 -95 72c-16 0 -66 -10 -70 -93c-3 -54 -3 -85 -3 -133h118l-13 -44h-106v-390c4 -23 46 -25 86 -29v-10h-255v10c31 3 86 11 86 32v387h-72l11 44h62c0 56 2 116 16 145c30 61 109 108 195 108c39 0 82 -14 82 -51z" />
    <glyph glyph-name="g" unicode="g" horiz-adv-x="525" 
d="M535 428c0 -20 -16 -38 -36 -38c-16 0 -69 29 -101 48l-4 -4c20 -30 36 -53 36 -95c0 -105 -79 -158 -207 -158c-18 0 -37 4 -63 4c-43 -3 -70 -21 -70 -48c0 -43 58 -53 103 -53h160c93 0 152 -62 152 -141c0 -105 -110 -195 -261 -195c-145 0 -230 46 -230 122
c0 55 67 91 122 126v2c-67 10 -106 41 -106 92c0 50 52 95 118 103v3c-58 23 -93 67 -93 134c0 85 82 153 194 153c50 0 86 -8 129 -31c16 -5 25 -6 41 -6c33 0 45 23 77 23c23 0 39 -19 39 -41zM350 339c0 68 -36 128 -109 128c-68 0 -106 -68 -106 -138
c0 -79 47 -133 105 -133c72 0 110 69 110 143zM438 -98c0 39 -19 68 -41 79c-29 15 -69 22 -146 22c-28 0 -60 -5 -79 -8c-63 -16 -83 -53 -83 -95c0 -85 105 -129 171 -129c40 0 67 4 90 12c47 18 88 62 88 119z" />
    <glyph glyph-name="h" unicode="h" horiz-adv-x="524" 
d="M514 0h-206v11c36 2 63 6 63 27v250c0 78 -19 135 -93 135c-48 0 -81 -19 -101 -48c-3 -4 -9 -20 -9 -30v-307c0 -25 29 -24 56 -28v-10h-199v10c31 3 60 7 60 32v568c0 10 -1 14 -10 21c-11 9 -31 18 -48 28v6l134 61h8l-3 -347l2 -1c19 36 79 105 171 105
c88 0 116 -65 116 -153v-295c0 -20 36 -23 59 -26v-9z" />
    <glyph glyph-name="i" unicode="i" horiz-adv-x="254" 
d="M177 641c0 -30 -24 -54 -54 -54c-29 0 -54 25 -54 54c0 30 24 53 54 53s54 -23 54 -53zM233 0h-215v10c31 3 68 7 68 32v343c0 10 -1 19 -10 25c-12 8 -29 17 -48 23v6l135 44h6v-447c5 -26 37 -22 64 -26v-10z" />
    <glyph glyph-name="j" unicode="j" horiz-adv-x="246" 
d="M179 639c0 -30 -24 -54 -54 -54c-29 0 -54 25 -54 54c0 30 24 53 54 53s54 -23 54 -53zM172 -63c0 -69 -99 -180 -192 -180c-41 0 -84 22 -84 62c0 29 17 48 50 48c57 0 40 -81 85 -83c51 10 52 75 54 126c2 52 3 109 3 134v325c0 10 -1 13 -10 21c-11 9 -37 23 -53 32v7
l140 54h6c0 -55 1 -467 1 -546z" />
    <glyph glyph-name="k" unicode="k" horiz-adv-x="488" 
d="M528 0h-242v10c26 1 47 3 47 21c0 15 -81 130 -120 184c-12 16 -19 22 -29 22c-6 0 -11 0 -16 -3v-196c0 -25 29 -24 56 -28v-10h-199v10c31 3 60 7 60 32v565c0 10 0 15 -9 22s-32 18 -49 27v6l133 61h8v-478c78 64 193 174 193 192s-47 25 -80 26v10h245v-10
c-9 -1 -93 -5 -148 -52c-42 -36 -85 -76 -121 -109c58 -89 113 -171 151 -222c24 -32 44 -53 59 -64c10 -3 36 -6 61 -6v-10z" />
    <glyph glyph-name="l" unicode="l" horiz-adv-x="246" 
d="M240 0h-233v11c61 4 76 11 76 32v575c0 10 -1 15 -10 21c-12 7 -41 24 -57 31v6l143 47h7v-685c0 -27 23 -22 74 -27v-11z" />
    <glyph glyph-name="m" unicode="m" horiz-adv-x="794" 
d="M782 0h-197v11c36 2 55 6 55 27v255c0 77 -24 127 -93 127c-44 0 -69 -26 -101 -62v-323c0 -20 31 -23 54 -26v-9h-197v11c36 2 59 6 59 27v256c0 78 -24 126 -93 126c-44 0 -66 -19 -101 -56v-328c5 -26 28 -22 55 -26v-10h-194v10c31 3 56 11 56 32v342
c0 10 -1 15 -10 21c-12 7 -29 16 -45 23v8l131 47h6v-108l2 -1c27 48 88 109 160 109c63 0 105 -46 114 -116h3c23 49 89 116 161 116c77 0 117 -63 117 -150v-298c0 -20 35 -23 58 -26v-9z" />
    <glyph glyph-name="n" unicode="n" horiz-adv-x="521" 
d="M512 0h-204v11c36 2 59 6 59 27v252c0 77 -27 129 -96 129c-44 0 -68 -19 -104 -55v-328c5 -26 27 -22 54 -26v-10h-193v10c31 3 56 11 56 32v344c0 10 -1 15 -10 21c-12 7 -29 16 -45 23v6l131 47h6v-108l2 -1c29 46 91 109 163 109c77 0 120 -64 120 -154v-294
c0 -20 38 -23 61 -26v-9z" />
    <glyph glyph-name="o" unicode="o" horiz-adv-x="511" 
d="M492 245c0 -136 -108 -250 -234 -250c-104 0 -239 78 -239 250c0 122 96 238 241 238c106 0 232 -79 232 -238zM399 246c0 91 -36 221 -146 221c-88 0 -141 -117 -141 -228c0 -122 42 -228 147 -228c103 0 140 141 140 235z" />
    <glyph glyph-name="p" unicode="p" horiz-adv-x="534" 
d="M514 265c0 -150 -107 -260 -280 -260c-24 0 -47 1 -72 6c1 -42 2 -157 2 -206c5 -24 55 -22 82 -26v-11h-248v11c31 3 82 12 82 34v556c0 10 -1 15 -10 21c-12 7 -45 22 -61 29v6l147 58h6v-112l1 -2c37 50 91 114 168 114c125 0 183 -112 183 -218zM424 236
c0 100 -48 182 -150 182c-70 0 -111 -59 -111 -76c0 -26 -1 -60 -1 -82c0 -55 0 -79 1 -110c5 -57 22 -126 111 -126c77 0 150 89 150 212z" />
    <glyph glyph-name="q" unicode="q" horiz-adv-x="548" 
d="M543 -232h-240v11c27 4 79 5 84 27c0 49 2 262 3 304l-2 1c-22 -53 -86 -112 -173 -112c-120 0 -196 113 -196 239c0 131 97 245 236 245c77 0 141 -24 175 -55h3l31 55h7v-670c0 -22 41 -31 72 -34v-11zM388 138c1 20 1 49 1 80c0 23 0 47 -1 69c-3 89 -36 180 -136 180
c-84 0 -142 -91 -142 -215c0 -100 54 -192 160 -192c81 0 117 61 118 78z" />
    <glyph glyph-name="r" unicode="r" horiz-adv-x="357" 
d="M367 430c0 -29 -20 -51 -43 -51c-44 0 -42 36 -79 36c-33 0 -62 -50 -77 -91v-288c9 -25 58 -22 85 -26v-10h-224v10c31 3 56 11 56 32v338c0 10 -1 15 -10 21c-12 7 -29 18 -45 25v6l131 51h6l-2 -139h2c14 32 56 139 140 139c33 0 60 -22 60 -53z" />
    <glyph glyph-name="s" unicode="s" horiz-adv-x="382" 
d="M369 146c0 -104 -89 -150 -187 -150c-58 0 -111 13 -155 33v132h8c22 -64 59 -151 147 -151c64 0 105 36 105 112c0 41 -28 70 -73 79c-36 7 -70 15 -97 24c-50 17 -85 63 -85 122c0 82 74 136 161 136c56 0 97 -11 135 -26l12 -124l-8 -2c-37 81 -72 138 -147 138
c-45 0 -91 -32 -91 -93c0 -49 32 -67 74 -77c29 -7 68 -15 93 -21c60 -14 108 -65 108 -132z" />
    <glyph glyph-name="t" unicode="t" horiz-adv-x="324" 
d="M351 473l-31 -61h-152v-263c0 -68 32 -97 79 -97c39 0 62 12 81 39l6 -3c-15 -41 -57 -92 -141 -92c-55 0 -109 44 -109 87c0 125 2 242 2 329h-73v11l145 137h8v-87h185z" />
    <glyph glyph-name="u" unicode="u" horiz-adv-x="523" 
d="M506 25l-142 -28h-7v103l-1 1c-29 -46 -86 -106 -160 -106c-85 0 -125 54 -125 151v244c0 11 -1 41 -5 49c-10 23 -42 21 -66 23v11h155v-291c0 -87 22 -129 95 -129c55 0 82 31 107 62v285c0 13 -2 38 -10 49c-16 7 -46 10 -75 13v11h168v-395c0 -10 1 -15 10 -21
c12 -7 40 -19 56 -26v-6z" />
    <glyph glyph-name="v" unicode="v" horiz-adv-x="443" 
d="M493 462c-27 0 -83 -7 -103 -55c-31 -74 -87 -213 -124 -307c-21 -47 -28 -64 -44 -98c-2 -5 -5 -8 -10 -8s-8 6 -9 9c-42 109 -72 187 -129 334c-9 22 -30 78 -43 102c-8 8 -19 21 -66 23v11h243v-11c-25 -3 -77 -4 -77 -32c0 -20 84 -227 122 -323
c39 98 116 297 116 320c0 38 -46 34 -70 36v10h194v-11z" />
    <glyph glyph-name="w" unicode="w" horiz-adv-x="739" 
d="M765 462c-32 -2 -68 -2 -93 -58c-33 -74 -91 -209 -129 -301c-24 -51 -31 -66 -46 -99c-2 -4 -4 -8 -9 -8c-6 0 -8 5 -9 9c-35 104 -60 179 -113 334l-95 -248c-18 -36 -25 -58 -38 -87c-2 -4 -5 -8 -10 -8s-7 4 -9 9c-52 127 -99 241 -155 376c-8 18 -19 43 -29 60
c-8 7 -17 19 -64 21v11h227v-11c-18 -2 -55 -6 -67 -19c4 -21 83 -210 134 -333c21 52 62 157 96 254c-9 27 -20 51 -33 75c-8 8 -10 21 -57 23v11h228v-11c-21 -4 -72 -3 -72 -32c0 -20 73 -219 108 -315c24 54 115 271 115 308c0 36 -38 37 -63 39v11h183v-11z" />
    <glyph glyph-name="x" unicode="x" horiz-adv-x="458" 
d="M483 462c-43 -4 -56 6 -128 -85c-41 -52 -51 -67 -84 -113c34 -69 58 -103 96 -168c48 -83 64 -83 111 -85v-11h-233v11c13 1 41 -2 47 32c-4 34 -41 95 -74 154c-33 -48 -92 -127 -92 -152c9 -29 26 -33 61 -34v-11h-197v11c37 1 61 -6 129 76c38 46 71 93 92 123
c-42 71 -65 114 -107 185c-9 15 -22 32 -31 43c-25 19 -51 20 -79 24v11h241v-11c-11 -1 -40 -2 -51 -27c2 -15 39 -90 81 -160c37 55 87 129 88 151c-4 28 -24 34 -61 36v11h191v-11z" />
    <glyph glyph-name="y" unicode="y" horiz-adv-x="416" 
d="M443 462c-32 -2 -64 -2 -77 -44c-20 -63 -118 -375 -184 -588c-16 -51 -48 -72 -79 -72c-27 0 -54 19 -54 45c0 27 18 46 44 46s43 -20 61 -37h2c28 72 47 146 50 158c-7 18 -112 305 -172 468c-12 13 -23 22 -70 24v11h220v-11c-28 -4 -52 -7 -52 -32
c0 -20 80 -234 115 -330c10 32 98 310 98 333c0 25 -31 27 -56 29v11h154v-11z" />
    <glyph glyph-name="z" unicode="z" horiz-adv-x="433" 
d="M437 149l-13 -154h-9c-6 7 -44 7 -75 7c-132 0 -191 -1 -316 -1l-3 7l279 445h-135c-97 0 -112 -28 -138 -105l-10 2l18 138l9 1c5 -8 11 -18 59 -18c128 0 188 0 301 1l1 -9l-282 -444h151c107 0 132 63 153 131z" />
    <glyph glyph-name="braceleft" unicode="{" horiz-adv-x="286" 
d="M205 179c0 -106 -109 -124 -109 -206c0 -64 58 -57 100 -57c3 -6 5 -13 5 -20c0 -11 -9 -18 -21 -18c-35 0 -112 53 -112 112c0 91 98 103 98 190c0 73 -74 115 -127 115v12c53 0 127 39 127 115c0 88 -100 99 -100 190c0 59 79 112 114 112c12 0 21 -7 21 -18
c0 -7 -2 -14 -5 -20c-38 0 -100 9 -100 -57c0 -82 109 -100 109 -206c0 -62 -52 -104 -118 -121v-2c64 -15 118 -59 118 -121z" />
    <glyph glyph-name="bar" unicode="|" horiz-adv-x="808" 
d="M1250 -132c-55 -44 -157 -77 -267 -78c-84 -1 -139 18 -224 49c-122 44 -182 73 -302 115c-48 17 -71 26 -124 44c-173 46 -304 174 -304 363c0 113 43 206 130 280c70 60 160 89 256 89c227 0 364 -172 364 -364c0 -153 -100 -274 -237 -337v-2c33 -8 67 -16 100 -28
c197 -74 341 -152 510 -152c29 0 73 19 92 31zM655 365c0 162 -82 348 -252 348c-174 0 -250 -183 -250 -355c0 -181 95 -353 254 -353c179 18 248 199 248 360z" />
    <glyph glyph-name="braceright" unicode="}" horiz-adv-x="286" 
d="M247 295c-53 0 -127 -42 -127 -115c0 -87 98 -99 98 -190c0 -59 -77 -112 -112 -112c-12 0 -21 8 -21 18c0 8 2 14 5 20c42 0 100 -7 100 57c0 82 -109 100 -109 206c0 62 54 106 118 121v2c-66 17 -118 59 -118 121c0 106 109 124 109 206c0 64 -60 57 -100 57
c-3 6 -5 13 -5 20c0 11 9 18 21 18c35 0 114 -53 114 -112c0 -91 -100 -102 -100 -190c0 -76 74 -115 127 -115v-12z" />
    <glyph glyph-name="asciitilde" unicode="~" horiz-adv-x="318" 
d="M294 331h-271v68h271v-68z" />
    <glyph glyph-name="exclamdown" unicode="&#xa1;" horiz-adv-x="303" 
d="M206 669c0 -35 -25 -61 -60 -61s-59 28 -59 63s24 57 59 57s60 -24 60 -59zM210 150c0 -61 -35 -150 -64 -150c-26 0 -62 89 -62 150c7 16 46 109 55 371h12c9 -267 54 -357 59 -371z" />
    <glyph glyph-name="cent" unicode="&#xa2;" horiz-adv-x="526" 
d="M481 150c-23 -77 -95 -148 -199 -148c-19 0 -36 2 -53 6l-34 -136l-19 4l36 137c-91 30 -152 117 -152 229c0 122 95 234 226 234c15 0 27 -1 41 -3l27 116l20 -5l-30 -114c60 -13 118 -49 118 -107c0 -28 -22 -52 -50 -52c-23 0 -41 15 -46 35c4 11 6 20 6 34
c0 33 -12 57 -34 69l-92 -371c20 -9 43 -14 68 -14c84 0 128 37 159 90zM321 455c-11 3 -21 4 -35 4c-83 0 -143 -85 -143 -191c0 -80 30 -151 86 -184z" />
    <glyph glyph-name="sterling" unicode="&#xa3;" horiz-adv-x="678" 
d="M700 666c0 -17 -19 -34 -36 -34c-22 0 -33 11 -40 40c-4 17 -8 43 -40 43c-65 0 -108 -104 -128 -152c-64 -153 -144 -373 -157 -408h134l-11 -34h-136c-24 -79 -84 -151 -115 -178l2 -4c37 2 61 7 98 7c129 0 129 -93 207 -93c33 0 76 28 76 59c0 28 -62 5 -62 55
c0 24 19 44 45 44c31 0 47 -24 47 -49c0 -80 -66 -144 -170 -144c-103 0 -133 104 -232 104h-37c-23 -38 -72 -84 -128 -84c-20 0 -43 9 -43 29c0 43 85 43 153 69c22 41 56 117 77 188h-92l9 31h93c11 33 63 176 123 334c46 122 137 240 250 240c48 0 113 -12 113 -63z" />
    <glyph glyph-name="fraction" unicode="&#x2044;" horiz-adv-x="110" 
d="M301 624l-425 -617l-24 15l425 618z" />
    <glyph glyph-name="yen" unicode="&#xa5;" horiz-adv-x="520" 
d="M520 535c-53 -8 -74 -37 -109 -88c-15 -22 -68 -104 -110 -172l-1 -33l158 1v-20l-158 1v-54l158 1v-20l-157 1c0 -49 -2 -100 8 -114c15 -20 44 -26 65 -29v-9h-238v9c25 3 44 4 66 29c13 15 11 74 11 114l-157 -1v20l158 -1v54l-158 -1v20l158 -1l-1 20
c-20 33 -87 143 -115 183c-42 61 -65 89 -107 90v9h238v-9c-28 -3 -62 -6 -62 -29c0 -12 17 -38 32 -64c20 -33 61 -99 94 -150c11 17 50 81 88 148c8 14 24 43 24 60c0 30 -35 31 -61 35v9h176v-9z" />
    <glyph glyph-name="florin" unicode="&#x192;" horiz-adv-x="538" 
d="M537 612c0 -20 -10 -38 -30 -38c-18 0 -24 3 -35 7c-14 47 -28 78 -69 78c-87 0 -119 -192 -130 -246h140l-11 -34h-136c-37 -155 -44 -223 -87 -364c-28 -93 -93 -217 -205 -217c-39 0 -82 19 -82 58c0 17 15 31 32 31c16 0 29 -7 36 -27c8 -23 20 -40 43 -40
c56 0 83 110 111 231c30 132 56 259 68 331h-97l9 31h96c29 154 107 265 234 265c71 0 113 -24 113 -66z" />
    <glyph glyph-name="section" unicode="&#xa7;" horiz-adv-x="468" 
d="M407 123c0 -200 -157 -317 -259 -317c-45 0 -84 24 -84 68c0 29 21 55 49 55c46 0 52 -57 98 -85c28 4 87 28 87 69s-33 79 -65 119c-49 60 -86 91 -123 161c-28 53 -39 91 -39 151c0 190 143 384 268 384c34 0 56 -30 56 -63c0 -32 -26 -59 -53 -59c-33 0 -48 23 -64 50
c-9 1 -15 2 -24 2c-37 0 -78 -34 -78 -70c0 -52 33 -93 71 -139c43 -52 71 -81 108 -137c42 -64 52 -123 52 -189zM380 54c0 66 -21 103 -55 158c-40 64 -74 102 -121 164c-33 43 -57 71 -76 120h-8c-11 -29 -16 -52 -16 -84c0 -57 14 -91 45 -138c43 -64 80 -99 130 -165
c35 -46 62 -77 73 -128h8c8 11 20 44 20 73z" />
    <glyph glyph-name="currency" unicode="&#xa4;" horiz-adv-x="700" 
d="M575 241h-450v40h450v-40z" />
    <glyph glyph-name="quotesingle" unicode="'" horiz-adv-x="222" 
d="M155 676c0 -22 -24 -115 -39 -252h-12c-14 137 -38 226 -38 251c0 29 24 51 44 51s45 -22 45 -50z" />
    <glyph glyph-name="quotedblleft" unicode="&#x201c;" horiz-adv-x="267" 
d="M258 581c0 -33 -28 -51 -58 -51c-45 0 -74 37 -74 81c0 66 57 109 122 109v-10c-47 -9 -71 -28 -71 -70c0 -12 2 -23 6 -29c12 9 24 12 34 12c26 0 41 -22 41 -42zM116 581c0 -33 -28 -51 -58 -51c-45 0 -74 37 -74 81c0 66 57 109 122 109v-10c-47 -9 -71 -28 -71 -70
c0 -12 2 -22 6 -29c12 9 24 12 34 12c26 0 41 -22 41 -42z" />
    <glyph glyph-name="guillemotleft" unicode="&#xab;" horiz-adv-x="393" 
d="M347 99l-7 -5l-167 159v5l167 159l6 -5l-86 -156zM227 106l-7 -5l-167 152v5l167 152l6 -5l-86 -149z" />
    <glyph glyph-name="guilsinglleft" unicode="&#x2039;" horiz-adv-x="284" 
d="M234 99l-7 -5l-180 159v5l180 159l6 -5l-94 -156z" />
    <glyph glyph-name="guilsinglright" unicode="&#x203a;" horiz-adv-x="284" 
d="M237 253l-180 -159l-7 5l95 157l-94 156l6 5l180 -159v-5z" />
    <glyph glyph-name="fi" unicode="&#xfb01;" horiz-adv-x="520" 
d="M499 0h-215v10c31 3 68 7 68 32v369c0 10 -3 18 -15 20h-169v-393c5 -26 49 -24 76 -28v-10h-235v10c31 3 76 11 76 32v387h-76l16 44h61c0 56 2 95 14 124c34 82 115 131 198 131c74 0 127 -23 127 -63c0 -26 -21 -43 -39 -43c-65 0 -46 60 -88 88
c-37 1 -116 -6 -125 -131c-4 -54 -4 -58 -4 -106h231l29 11h6v-448c5 -26 37 -22 64 -26v-10z" />
    <glyph glyph-name="fl" unicode="&#xfb02;" horiz-adv-x="520" 
d="M510 0h-233v11c61 4 76 11 76 32v388h-185v-393c5 -26 50 -24 77 -28v-10h-236v10c31 3 76 11 76 32v387h-75l16 44h60c0 56 2 92 14 121c33 81 114 131 197 131c51 0 86 -14 108 -30l25 35h6v-692c0 -27 23 -22 74 -27v-11zM354 473v165c-18 30 -39 54 -75 68
c-16 0 -97 -5 -106 -130c-4 -54 -4 -55 -4 -103h185z" />
    <glyph glyph-name="endash" unicode="&#x2013;" horiz-adv-x="460" 
d="M421 237h-382v46h382v-46z" />
    <glyph glyph-name="dagger" unicode="&#x2020;" horiz-adv-x="388" 
d="M354 555c0 -23 -19 -42 -41 -42c-20 0 -38 15 -42 33h-69l1 -265c19 -3 32 -22 32 -42c0 -23 -19 -42 -41 -42s-41 19 -41 42c0 20 13 39 32 42l1 265h-67c-4 -18 -23 -33 -43 -33c-22 0 -41 19 -41 42c0 22 19 41 41 41c20 0 39 -14 43 -33h67v82c-19 4 -33 22 -33 42
c0 22 19 41 41 41s41 -19 41 -41c0 -20 -14 -38 -33 -42v-82h69c4 19 22 33 42 33c22 0 41 -19 41 -41z" />
    <glyph glyph-name="daggerdbl" unicode="&#x2021;" horiz-adv-x="388" 
d="M354 565c0 -23 -19 -42 -41 -42c-20 0 -38 15 -42 33h-69v-176h59c4 18 22 33 42 33c22 0 41 -19 41 -42c0 -22 -19 -41 -41 -41c-20 0 -38 14 -42 33h-59v-102c19 -4 33 -22 33 -42c0 -22 -19 -41 -41 -41s-41 19 -41 41c0 20 14 38 33 42v102h-57
c-4 -19 -23 -33 -43 -33c-22 0 -41 19 -41 41c0 23 19 42 41 42c20 0 39 -15 43 -33h57v176h-67c-4 -18 -23 -33 -43 -33c-22 0 -41 19 -41 42c0 22 19 41 41 41c20 0 39 -14 43 -33h67v72c-19 4 -33 22 -33 42c0 22 19 41 41 41s41 -19 41 -41c0 -20 -14 -38 -33 -42v-72
h69c4 19 22 33 42 33c22 0 41 -19 41 -41z" />
    <glyph glyph-name="periodcentered" unicode="&#xb7;" horiz-adv-x="263" 
d="M192 258c0 -35 -23 -57 -58 -57s-60 24 -60 59s25 61 60 61s58 -28 58 -63z" />
    <glyph glyph-name="paragraph" unicode="&#xb6;" horiz-adv-x="530" 
d="M476 709c-7 0 -83 3 -83 -58v-585c0 -138 -69 -266 -237 -266c-45 0 -93 28 -93 72c0 26 24 52 54 52c29 0 51 -19 51 -43c0 -23 -9 -29 -15 -33c11 -17 37 -21 60 -21c101 0 143 116 143 262v144h-37c-146 0 -262 104 -262 252c0 137 103 236 303 236c36 0 86 -1 116 -1
v-11z" />
    <glyph glyph-name="bullet" unicode="&#x2022;" horiz-adv-x="556" 
d="M453 262c0 -96 -79 -174 -175 -174s-174 78 -174 174s78 174 174 174c98 0 175 -78 175 -174z" />
    <glyph glyph-name="quotesinglbase" unicode="&#x201a;" horiz-adv-x="106" 
d="M135 24c0 -66 -60 -109 -125 -109v10c47 9 74 28 74 70c0 12 -3 22 -6 29c-12 -9 -29 -12 -39 -12c-26 0 -41 22 -41 42c0 33 30 51 60 51c45 0 77 -37 77 -81z" />
    <glyph glyph-name="quotedblbase" unicode="&#x201e;" horiz-adv-x="247" 
d="M273 24c0 -66 -57 -109 -122 -109v10c47 9 71 28 71 70c0 12 -2 22 -6 29c-12 -9 -24 -12 -34 -12c-26 0 -41 22 -41 42c0 33 28 51 58 51c45 0 74 -37 74 -81zM131 24c0 -66 -57 -109 -122 -109v10c47 9 71 28 71 70c0 12 -2 23 -6 29c-12 -9 -24 -12 -34 -12
c-26 0 -41 22 -41 42c0 33 28 51 58 51c45 0 74 -37 74 -81z" />
    <glyph glyph-name="quotedblright" unicode="&#x201d;" horiz-adv-x="267" 
d="M283 642c0 -66 -57 -109 -122 -109v10c47 9 71 28 71 70c0 12 -2 22 -6 29c-12 -9 -24 -12 -34 -12c-26 0 -41 22 -41 42c0 33 28 51 58 51c45 0 74 -37 74 -81zM141 642c0 -66 -57 -109 -122 -109v10c47 9 71 28 71 70c0 12 -2 23 -6 29c-12 -9 -24 -12 -34 -12
c-26 0 -41 22 -41 42c0 33 28 51 58 51c45 0 74 -37 74 -81z" />
    <glyph glyph-name="guillemotright" unicode="&#xbb;" horiz-adv-x="393" 
d="M341 253l-167 -152l-7 5l87 150l-86 149l6 5l167 -152v-5zM221 253l-167 -159l-7 5l87 157l-86 156l6 5l167 -159v-5z" />
    <glyph glyph-name="ellipsis" unicode="&#x2026;" horiz-adv-x="755" 
d="M665 55c0 -33 -25 -58 -58 -58s-58 25 -58 58s25 58 58 58s58 -25 58 -58zM435 55c0 -33 -25 -58 -58 -58s-58 25 -58 58s25 58 58 58s58 -25 58 -58zM205 55c0 -33 -25 -58 -58 -58s-58 25 -58 58s25 58 58 58s58 -25 58 -58z" />
    <glyph glyph-name="perthousand" unicode="&#x2030;" horiz-adv-x="950" 
d="M308 526c0 -79 -60 -136 -127 -136c-55 0 -131 41 -131 138c0 69 56 130 132 130c63 0 126 -48 126 -132zM550 624l-425 -617l-24 15l425 618zM607 132c0 -79 -60 -136 -127 -136c-55 0 -131 41 -131 138c0 69 56 130 132 130c63 0 126 -48 126 -132zM274 523
c0 56 -37 108 -94 108c-56 0 -95 -52 -95 -108c0 -55 39 -106 96 -106s93 51 93 106zM573 129c0 56 -37 108 -94 108c-56 0 -95 -52 -95 -108c0 -55 39 -106 96 -106s93 51 93 106zM908 132c0 -79 -60 -136 -127 -136c-55 0 -131 41 -131 138c0 69 56 130 132 130
c63 0 126 -48 126 -132zM874 129c0 56 -37 108 -94 108c-56 0 -95 -52 -95 -108c0 -55 39 -106 96 -106s93 51 93 106z" />
    <glyph glyph-name="questiondown" unicode="&#xbf;" horiz-adv-x="383" 
d="M310 669c0 -35 -25 -61 -60 -61s-59 28 -59 63s24 57 59 57s60 -24 60 -59zM273 -5h-17v49c-60 0 -95 8 -130 41c-48 44 -54 128 -54 186c0 46 7 122 33 146c27 25 69 37 149 53v81h18v-175c-34 -6 -69 -12 -101 -22c-54 -17 -79 -40 -79 -106c0 -86 66 -101 125 -101
c9 0 33 2 56 4v-156z" />
    <glyph glyph-name="grave" unicode="`" 
d="M305 520l-10 -6l-137 153v5c8 11 17 24 46 24z" />
    <glyph glyph-name="acute" unicode="&#xb4;" 
d="M346 667l-140 -153l-10 6l104 176c29 0 38 -13 46 -24v-5z" />
    <glyph glyph-name="circumflex" unicode="&#x2c6;" 
d="M353 528l-12 -7l-91 111l-90 -111l-12 7l95 170h15z" />
    <glyph glyph-name="tilde" unicode="&#x2dc;" 
d="M398 665c-14 -54 -39 -103 -113 -103l-91 19c-52 0 -64 1 -82 -46h-13c14 57 48 98 110 98l89 -19c49 0 76 5 86 51h14z" />
    <glyph glyph-name="macron" unicode="&#xaf;" 
d="M391 576h-281v45h281v-45z" />
    <glyph glyph-name="breve" unicode="&#x2d8;" 
d="M358 673c0 -34 -6 -75 -28 -101c-17 -21 -47 -38 -82 -38c-34 0 -65 17 -82 38c-22 26 -28 67 -28 101v11h13c4 -66 43 -99 97 -99c55 0 93 33 97 99h13v-11z" />
    <glyph glyph-name="dotaccent" unicode="&#x2d9;" 
d="M301 603c0 -28 -23 -51 -51 -51c-27 0 -51 24 -51 51c0 28 23 50 51 50s51 -22 51 -50z" />
    <glyph glyph-name="dieresis" unicode="&#xa8;" 
d="M380 600c0 -25 -21 -46 -46 -46s-46 21 -46 46s21 46 46 46s46 -21 46 -46zM213 600c0 -25 -21 -46 -46 -46s-46 21 -46 46s21 46 46 46s46 -21 46 -46z" />
    <glyph glyph-name="ring" unicode="&#x2da;" 
d="M324 592c0 -41 -31 -72 -74 -72c-44 0 -74 30 -74 72c0 41 33 72 74 72c42 0 74 -30 74 -72zM297 592c0 29 -18 52 -47 52c-28 0 -47 -22 -47 -52c0 -29 18 -52 47 -52s47 23 47 52z" />
    <glyph glyph-name="cedilla" unicode="&#xb8;" 
d="M330 -134c0 -62 -68 -90 -105 -90c-45 0 -76 13 -76 45c0 13 9 29 31 29c15 0 23 -4 29 -11c0 -8 -1 -15 -1 -20c0 -21 6 -31 22 -31c24 0 44 19 44 55c0 35 -25 64 -73 80l80 83h20l-45 -49c67 -27 74 -75 74 -91z" />
    <glyph glyph-name="hungarumlaut" unicode="&#x2dd;" 
d="M400 667l-136 -149l-11 6l103 172c29 0 36 -13 44 -24v-5zM281 667l-120 -151l-11 6l87 174c29 0 36 -13 44 -24v-5z" />
    <glyph glyph-name="ogonek" unicode="&#x2db;" 
d="M347 -142c-12 -31 -44 -77 -97 -77c-46 0 -83 33 -83 77c0 64 66 114 109 147h15v-2c-31 -27 -67 -67 -67 -119c0 -29 16 -59 54 -59c35 0 46 15 61 37z" />
    <glyph glyph-name="caron" unicode="&#x2c7;" 
d="M353 686l-95 -170h-15l-95 170l12 7l90 -111l91 111z" />
    <glyph glyph-name="emdash" unicode="&#x2014;" horiz-adv-x="890" 
d="M798 237h-706v46h706v-46z" />
    <glyph glyph-name="AE" unicode="&#xc6;" horiz-adv-x="1016" 
d="M1007 199l-40 -199h-576v10c33 5 57 9 77 33c13 15 12 70 13 113c1 23 2 80 2 131h-268c-26 -39 -56 -88 -77 -123c-38 -61 -48 -90 -48 -106c0 -34 40 -44 74 -48v-10h-222v11c36 4 59 24 65 29c11 9 43 42 91 110c84 122 262 385 365 539c-23 12 -48 17 -81 21v10h544
l49 -166l-10 -5c-53 68 -88 113 -134 136c-23 11 -82 21 -169 21c-28 0 -57 -3 -71 -5v-327c18 0 77 -1 115 8c81 19 97 63 113 138h12v-315h-12c-11 42 -32 96 -56 118c-21 19 -51 31 -91 33s-43 2 -81 2c0 -86 0 -170 1 -214c1 -43 1 -87 12 -103c12 -18 42 -26 95 -26
c22 0 61 1 99 6c84 11 143 67 198 181zM483 308v369h-5c-29 -41 -158 -230 -248 -369h253z" />
    <glyph glyph-name="ordfeminine" unicode="&#xaa;" horiz-adv-x="248" 
d="M262 446c-3 -31 -23 -56 -54 -56c-25 0 -46 13 -46 40h-3c-12 -16 -35 -40 -73 -40c-23 0 -51 14 -51 50c0 21 19 40 41 53c42 24 71 37 84 44v52c0 3 -9 20 -38 20c-21 0 -42 -14 -42 -22v-23c0 -10 -13 -21 -27 -21c-13 0 -23 10 -23 22c0 17 20 28 33 35
c36 20 79 37 97 37c19 0 40 -13 46 -24c2 -5 3 -20 3 -31c0 -47 -1 -77 -1 -121c0 -27 11 -34 23 -34c14 0 21 10 24 19h7zM160 451v73c-37 -20 -78 -36 -78 -67c0 -17 12 -31 31 -31c16 0 31 3 42 13c4 4 5 8 5 12z" />
    <glyph glyph-name="Lslash" unicode="&#x141;" horiz-adv-x="708" 
d="M713 206l-37 -206h-642v10c33 5 70 17 88 38c13 16 18 65 19 108c1 34 2 114 2 183l-119 -39l-8 26l127 39v192c0 47 0 97 -15 115c-19 22 -52 34 -87 38v10h319v-10c-36 -5 -103 -16 -105 -88c-3 -86 -3 -138 -3 -223l165 51l8 -27l-173 -50c0 -89 0 -137 1 -227
c1 -43 1 -86 13 -104c10 -14 69 -27 122 -27c22 0 100 2 146 15c106 29 136 99 169 179z" />
    <glyph glyph-name="Oslash" unicode="&#xd8;" horiz-adv-x="808" 
d="M779 365c0 -213 -172 -372 -377 -372c-75 0 -146 21 -206 59l-61 -88l-19 13l64 86c-91 65 -151 170 -151 298c0 230 177 369 386 369c78 0 145 -20 199 -55l53 76l19 -13l-55 -74c95 -68 148 -180 148 -299zM577 622c-40 56 -100 91 -174 91c-174 0 -250 -183 -250 -355
c0 -91 20 -180 63 -245zM655 364c0 83 -21 175 -65 242l-361 -508c43 -57 100 -88 177 -88c167 0 249 187 249 354z" />
    <glyph glyph-name="OE" unicode="&#x152;" horiz-adv-x="980" 
d="M957 184l-48 -184h-376c-22 0 -94 -3 -136 -3c-202 0 -368 157 -368 363c0 217 167 363 390 363c54 0 97 -3 126 -3h313l65 -158l-10 -5c-54 67 -103 106 -149 129c-30 15 -134 19 -251 19v-2c150 -31 254 -169 263 -314c54 20 57 54 69 118h12v-285h-12
c-13 53 -21 105 -69 125c-10 -154 -118 -286 -260 -327v-3c24 -1 87 -2 115 -2c22 0 71 1 109 6c84 11 140 52 206 166zM665 379c-6 154 -68 266 -169 318c-2 -52 -2 -204 -2 -321zM384 363c0 108 -1 256 -1 344c-159 -15 -230 -182 -230 -350c0 -174 77 -331 230 -345
c1 68 1 230 1 351zM665 360h-171c0 -124 -1 -274 1 -335c105 53 169 170 170 335z" />
    <glyph glyph-name="ordmasculine" unicode="&#xba;" horiz-adv-x="280" 
d="M276 516c0 -69 -57 -126 -125 -126c-55 0 -127 40 -127 126c0 61 51 121 128 121c56 0 124 -41 124 -121zM221 517c0 43 -17 107 -72 107c-45 0 -71 -59 -71 -111c0 -58 21 -110 74 -110c51 0 69 68 69 114z" />
    <glyph glyph-name="ae" unicode="&#xe6;" horiz-adv-x="687" 
d="M684 153c-10 -60 -78 -156 -188 -156c-88 0 -160 54 -191 120c-39 -60 -105 -120 -176 -120c-42 0 -91 27 -91 96c0 38 34 74 77 102c61 39 136 75 163 92v104c0 6 -15 46 -78 46c-43 0 -84 -32 -84 -51v-45c0 -18 -24 -36 -46 -36c-21 0 -39 18 -39 38c0 33 37 52 59 65
c69 41 148 75 182 75c35 0 71 -21 83 -51c35 32 79 51 129 51c114 0 186 -59 190 -165h-315c0 -10 -1 -26 -1 -42c0 -122 64 -210 181 -210c66 0 121 40 137 89zM576 376c0 49 -34 90 -91 90c-80 0 -124 -91 -125 -132h151c20 0 38 1 51 6c9 10 14 18 14 36zM278 103v168
c-48 -35 -162 -75 -162 -143c0 -35 26 -69 65 -69c43 0 74 11 97 44z" />
    <glyph glyph-name="dotlessi" unicode="&#x131;" horiz-adv-x="254" 
d="M233 0h-215v10c31 3 68 7 68 32v347c0 10 1 15 -10 21c-12 6 -31 15 -48 22v7l135 44h6v-447c5 -26 37 -22 64 -26v-10z" />
    <glyph glyph-name="lslash" unicode="&#x142;" horiz-adv-x="256" 
d="M269 463l-98 -36v-388c0 -21 8 -25 74 -28v-11h-233v11c61 4 76 11 76 32v356l-90 -35l-9 23l99 36v195c0 10 -1 15 -10 21c-12 7 -41 24 -57 31v6l143 47h7v-271l89 35z" />
    <glyph glyph-name="oslash" unicode="&#xf8;" horiz-adv-x="511" 
d="M492 245c0 -136 -108 -250 -234 -250c-45 0 -95 14 -139 45l-64 -93l-15 11l67 91c-50 41 -88 105 -88 196c0 122 96 238 241 238c44 0 92 -14 132 -41l57 82l15 -10l-59 -81c50 -39 87 -102 87 -188zM360 403c-23 37 -57 64 -107 64c-88 0 -142 -117 -142 -228
c0 -56 10 -108 29 -149zM400 246c0 45 -10 98 -31 142l-221 -313c24 -39 60 -64 111 -64c103 0 141 141 141 235z" />
    <glyph glyph-name="oe" unicode="&#x153;" horiz-adv-x="792" 
d="M789 152c-10 -60 -76 -155 -183 -155c-78 0 -139 40 -175 104c-44 -68 -105 -106 -181 -106c-101 0 -231 78 -231 250c0 122 92 238 232 238c69 0 140 -30 183 -96c32 50 86 96 159 96c102 0 181 -53 189 -165h-311c0 -10 -2 -25 -2 -40c0 -113 60 -212 179 -212
c64 0 117 39 132 88zM684 376c0 49 -35 90 -90 90c-73 0 -120 -98 -121 -134c58 0 88 1 148 2c19 0 39 1 51 6c9 10 12 18 12 36zM386 246c0 95 -35 221 -141 221c-86 0 -133 -117 -133 -228c0 -122 37 -228 138 -228c100 0 136 136 136 235z" />
    <glyph glyph-name="germandbls" unicode="&#xdf;" horiz-adv-x="536" 
d="M527 138c0 -81 -65 -141 -168 -141c-20 0 -74 4 -110 24v118h9c22 -64 66 -127 125 -127c50 0 76 43 76 90c0 31 -11 58 -32 75c-31 25 -63 45 -96 73c-35 29 -68 62 -68 112c0 40 19 60 47 86c44 41 68 38 68 142c0 68 -38 112 -100 119c-16 0 -96 -5 -105 -130
c-4 -54 -5 -65 -5 -106v-434c0 -17 31 -26 56 -29v-10h-215v10c31 3 76 11 76 32v387h-72v11l73 41c0 48 2 87 14 116c32 78 114 131 197 131c120 0 143 -77 143 -120c0 -119 -104 -112 -104 -204c0 -40 24 -64 46 -83c28 -23 46 -34 75 -57c45 -35 70 -63 70 -126z" />
    <glyph glyph-name="NUL" horiz-adv-x="0" 
 />
    <glyph glyph-name="Eth" unicode="&#xd0;" horiz-adv-x="852" 
d="M822 370c0 -302 -231 -370 -416 -370h-365v10c33 4 68 18 84 37c12 14 15 66 16 109c1 35 2 126 2 198l-114 -1v27l114 -1v179c0 47 0 99 -15 117c-20 24 -48 31 -83 35v10c28 0 163 1 312 1c84 0 176 3 261 -34c111 -49 204 -145 204 -317zM699 368
c0 154 -102 303 -240 328c-26 5 -57 9 -103 9c-33 0 -78 -4 -97 -8c-7 -63 -7 -169 -7 -318l179 1v-27l-179 1c0 -82 0 -156 1 -199c1 -38 5 -92 22 -109c27 -27 72 -31 108 -31c33 0 71 3 101 12c143 41 215 167 215 341z" />
    <glyph glyph-name="eth" unicode="&#xf0;" horiz-adv-x="502" 
d="M482 277c0 -164 -102 -282 -231 -282c-140 0 -232 114 -232 244c0 121 90 220 223 220c49 0 81 -9 103 -16c-17 59 -68 131 -106 166l-115 -79l-15 21l114 73c-44 42 -92 71 -139 89l4 14c60 -11 118 -37 177 -74l97 68l17 -20l-93 -62c113 -85 196 -215 196 -362z
M392 233c0 64 -13 140 -41 177c-11 14 -54 28 -85 28c-111 0 -155 -119 -155 -228c0 -125 56 -199 138 -199c92 0 143 80 143 222z" />
    <glyph glyph-name="Scaron" unicode="&#x160;" horiz-adv-x="605" 
d="M434 927l-106 -163h-15l-106 163l13 7l101 -104l100 104zM558 197c0 -128 -109 -206 -261 -206c-130 0 -184 45 -191 45c-4 0 -20 -20 -31 -35h-9l-3 199h10c24 -71 78 -142 124 -166c23 -12 64 -27 99 -27c98 0 166 59 166 150c0 75 -51 108 -115 132
c-65 24 -87 29 -147 52c-69 27 -132 95 -132 181c0 143 113 209 240 209c120 0 168 -48 172 -48s20 20 30 36h11v-185h-11c-33 89 -99 181 -203 181c-84 0 -150 -50 -150 -141c0 -70 48 -111 115 -136c54 -21 91 -31 143 -50c90 -33 143 -97 143 -191z" />
    <glyph glyph-name="scaron" unicode="&#x161;" horiz-adv-x="382" 
d="M298 686l-95 -170h-15l-95 170l12 7l90 -111l91 111zM369 146c0 -104 -89 -150 -187 -150c-58 0 -111 13 -155 33v132h8c22 -64 59 -151 147 -151c64 0 105 36 105 112c0 41 -28 70 -73 79c-36 7 -70 15 -97 24c-50 17 -85 63 -85 122c0 82 74 136 161 136
c56 0 97 -11 135 -26l12 -124l-8 -2c-37 81 -72 138 -147 138c-45 0 -91 -32 -91 -93c0 -49 32 -67 74 -77c29 -7 68 -15 93 -21c60 -14 108 -65 108 -132z" />
    <glyph glyph-name="Yacute" unicode="&#xdd;" horiz-adv-x="649" 
d="M476 903l-176 -143l-11 7l136 167c29 0 45 -15 51 -26v-5zM682 710c-74 -11 -102 -54 -151 -128c-33 -50 -122 -188 -154 -236v-201c0 -38 1 -81 11 -95c20 -29 56 -35 85 -40v-10h-308v10c35 4 57 7 87 41c13 14 13 66 14 109c1 37 2 87 2 160c-14 23 -122 199 -160 258
c-50 78 -81 128 -135 132v10h305v-10c-39 -4 -87 -8 -87 -42c0 -17 24 -57 45 -93c28 -48 86 -141 130 -213c34 50 109 169 134 211c12 20 36 59 36 86c0 42 -48 45 -85 51v10h231v-10z" />
    <glyph glyph-name="yacute" unicode="&#xfd;" horiz-adv-x="416" 
d="M336 667l-140 -153l-10 6l104 176c29 0 38 -13 46 -24v-5zM443 462c-32 -2 -64 -2 -77 -44c-20 -63 -118 -375 -184 -588c-16 -51 -48 -72 -79 -72c-27 0 -54 19 -54 45c0 27 18 46 44 46s43 -20 61 -37h2c28 72 47 146 50 158c-7 18 -112 305 -172 468
c-12 13 -23 22 -70 24v11h220v-11c-28 -4 -52 -7 -52 -32c0 -20 80 -234 115 -330c10 32 98 310 98 333c0 25 -31 27 -56 29v11h154v-11z" />
    <glyph glyph-name="HT" horiz-adv-x="0" 
 />
    <glyph glyph-name="Thorn" unicode="&#xde;" horiz-adv-x="656" 
d="M633 383c0 -98 -69 -166 -142 -192c-75 -27 -174 -25 -239 -25c0 -25 -2 -91 13 -115c11 -17 44 -39 98 -41v-10h-322v10c33 5 67 15 84 36c14 17 15 67 16 110c1 37 2 134 2 207v195c0 47 -1 104 -17 121c-20 21 -53 26 -89 31v10h315v-10c-36 -4 -68 -11 -85 -32
c-9 -11 -15 -34 -15 -89c32 0 49 1 66 1c87 0 154 -5 213 -36s102 -89 102 -171zM522 384c0 77 -40 141 -104 171c-32 15 -73 19 -111 19c-28 0 -45 -2 -54 -3c-1 -37 -1 -293 -1 -391c54 0 100 2 141 16c85 29 129 104 129 188z" />
    <glyph glyph-name="thorn" unicode="&#xfe;" horiz-adv-x="526" 
d="M506 264c0 -150 -107 -260 -280 -260c-24 0 -47 3 -72 9c1 -42 2 -158 2 -207c3 -22 50 -24 82 -27v-11h-248v11c31 3 82 12 82 34v813l-63 33v6l139 61h8l-3 -355l2 -1c33 56 91 113 167 113c124 0 184 -113 184 -219zM416 235c0 100 -48 183 -150 183
c-73 0 -111 -59 -111 -76v-192c2 -57 22 -127 111 -127c77 0 150 89 150 212z" />
    <glyph glyph-name="CR" horiz-adv-x="0" 
 />
    <glyph glyph-name="Zcaron" unicode="&#x17d;" horiz-adv-x="694" 
d="M466 927l-106 -163h-15l-106 163l13 7l101 -104l100 104zM695 225l-72 -225h-603l-4 7l506 695c-57 0 -196 0 -246 -2s-91 -22 -124 -48s-98 -100 -127 -148l-11 4l73 213c55 -4 421 -3 569 -3l3 -6l-505 -694c60 -1 118 -1 171 -1c22 0 61 1 99 5c108 12 194 93 260 207
z" />
    <glyph glyph-name="zcaron" unicode="&#x17e;" horiz-adv-x="433" 
d="M319 686l-95 -170h-15l-95 170l12 7l90 -111l91 111zM437 149l-13 -154h-9c-6 7 -44 7 -75 7c-132 0 -191 -1 -316 -1l-3 7l279 445h-135c-97 0 -112 -28 -138 -105l-10 2l18 138l9 1c6 -10 13 -18 59 -18c128 0 188 0 301 1l1 -9l-282 -444h151c107 0 132 63 153 131z
" />
    <glyph glyph-name="onehalf" unicode="&#xbd;" 
d="M36 274h432v-27h-432v27zM364 332h-210v11c28 1 68 10 68 33v270c0 23 -43 31 -71 32v11h213v-11c-27 -1 -71 -9 -71 -33v-270c0 -26 46 -31 71 -32v-11zM446 -64l-41 -111h-282l-1 9c74 58 189 145 189 221c0 42 -26 80 -78 80s-90 -30 -116 -69l-10 5
c33 57 86 122 170 122c58 0 101 -38 101 -92c0 -99 -95 -155 -167 -212v-1h147c58 0 65 29 77 52z" />
    <glyph glyph-name="onequarter" unicode="&#xbc;" 
d="M36 274h432v-27h-432v27zM364 332h-210v11c28 1 68 10 68 33v270c0 23 -43 31 -71 32v11h213v-11c-27 -1 -71 -9 -71 -33v-270c0 -26 46 -31 71 -32v-11zM430 -78h-94v-116h-66v116h-194l-2 7l30 42l217 236h13v-238h96v-47zM270 -31v159l-148 -159h148z" />
    <glyph glyph-name="onesuperior" unicode="&#xb9;" horiz-adv-x="201" 
d="M189 394h-157v10c12 1 40 5 47 11c5 6 5 21 5 34s1 50 1 75v72c0 14 0 31 -5 37c-7 6 -35 9 -47 10v10h156v-10c-10 -1 -42 -2 -48 -13c-5 -8 -4 -21 -4 -31c0 -17 -1 -45 -1 -73v-81c0 -13 0 -25 4 -30c4 -6 39 -11 49 -11v-10z" />
    <glyph glyph-name="threequarters" unicode="&#xbe;" 
d="M399 443c0 -80 -83 -122 -168 -122c-61 0 -106 23 -106 56c0 15 8 33 49 33c13 -24 30 -73 85 -73c8 0 74 15 74 75c0 48 -36 79 -102 88l-1 7c52 33 77 55 77 98c0 31 -27 53 -64 53c-35 0 -72 -15 -85 -57l-9 1c3 70 63 104 117 104c57 0 106 -36 106 -84
c0 -33 -30 -49 -76 -77c48 -15 103 -51 103 -102zM468 247h-432v27h432v-27zM430 -78h-94v-116h-66v116h-194l-2 7l30 42l217 236h13v-238h96v-47zM270 -31v159l-148 -159h148z" />
    <glyph glyph-name="threesuperior" unicode="&#xb3;" horiz-adv-x="242" 
d="M235 408c0 -75 -68 -115 -136 -115c-51 0 -88 21 -88 52c0 13 10 27 38 27c7 -21 21 -64 72 -64c7 0 65 11 65 71c0 47 -35 83 -84 93l-3 7c40 27 67 47 67 92c0 29 -26 47 -58 47c-29 0 -61 -13 -73 -52h-8c0 60 46 93 97 93c48 0 91 -28 91 -73c0 -2 -1 -12 -4 -16
c-12 -18 -28 -37 -57 -62c34 -15 81 -50 81 -100z" />
    <glyph glyph-name="twosuperior" unicode="&#xb2;" horiz-adv-x="267" 
d="M274 468l-37 -74h-205l-2 8c51 29 152 85 152 156c0 34 -26 59 -64 59c-35 0 -66 -18 -79 -59h-8c1 65 48 101 104 101c51 0 98 -29 98 -86c0 -6 -2 -24 -9 -33c-29 -37 -55 -62 -113 -101v-2h96c40 0 48 19 58 35z" />
    <glyph glyph-name="brokenbar" unicode="&#xa6;" horiz-adv-x="243" 
d="M142 389h-41v395h41v-395zM142 -136h-41v395h41v-395z" />
    <glyph glyph-name="minus" unicode="&#x2212;" horiz-adv-x="700" 
d="M575 241h-450v40h450v-40z" />
    <glyph glyph-name="multiply" unicode="&#xd7;" horiz-adv-x="700" 
d="M544 94l-27 -28l-166 168l-167 -168l-28 28l168 167l-168 166l28 27l166 -168l166 168l28 -28l-168 -166z" />
    <glyph glyph-name="Adieresis" unicode="&#xc4;" horiz-adv-x="704" 
d="M496 815c0 -25 -21 -46 -46 -46s-46 21 -46 46s21 46 46 46s46 -21 46 -46zM320 815c0 -25 -21 -46 -46 -46s-46 21 -46 46s21 46 46 46s46 -21 46 -46zM736 0h-292v10c9 1 70 8 70 46c0 23 -32 115 -72 220h-266c-20 -50 -39 -95 -57 -142c-14 -36 -21 -63 -21 -76
c0 -35 48 -44 83 -48v-10h-215v11c35 4 64 24 68 29c9 9 31 42 62 110c57 126 143 329 206 479l-10 22c48 21 77 64 88 83h8c83 -222 147 -393 210 -562c15 -41 26 -64 42 -98c6 -12 35 -60 96 -62v-12zM434 297c-45 119 -97 249 -121 309c-15 -36 -65 -152 -128 -309h249z
" />
    <glyph glyph-name="Aring" unicode="&#xc5;" horiz-adv-x="704" 
d="M424 819c0 -43 -32 -75 -77 -75c-46 0 -77 31 -77 75c0 43 34 75 77 75c44 0 77 -31 77 -75zM396 819c0 30 -19 54 -49 54c-29 0 -49 -23 -49 -54c0 -30 19 -54 49 -54s49 24 49 54zM736 0h-292v10c9 1 70 8 70 46c0 23 -32 115 -72 220h-266c-20 -50 -39 -95 -57 -142
c-14 -36 -21 -63 -21 -76c0 -35 48 -44 83 -48v-10h-215v11c35 4 64 24 68 29c9 9 31 42 62 110c57 126 143 329 206 479l-10 22c48 21 77 64 88 83h8c83 -222 147 -393 210 -562c15 -41 26 -64 42 -98c6 -12 35 -60 96 -62v-12zM434 297c-45 119 -97 249 -121 309
c-15 -36 -65 -152 -128 -309h249z" />
    <glyph glyph-name="Ccedilla" unicode="&#xc7;" horiz-adv-x="776" 
d="M727 489l-12 -1c-36 128 -141 230 -275 230c-184 0 -289 -181 -289 -361c0 -193 114 -345 291 -345c138 0 247 109 272 224h12l-3 -220h-12c-16 23 -37 45 -43 45c-5 0 -82 -62 -222 -66l-28 -40c66 -16 90 -63 90 -94c0 -65 -73 -96 -112 -96c-48 0 -84 14 -84 48
c0 14 9 31 32 31c16 0 25 -5 31 -12c0 -9 -1 -16 -1 -21c0 -23 10 -33 27 -33c26 0 48 21 48 59s-31 68 -86 78l66 80c-248 1 -401 153 -401 367c0 47 10 125 59 202c57 91 164 171 339 171c161 0 238 -70 244 -70c5 0 31 25 46 48h11v-224z" />
    <glyph glyph-name="Eacute" unicode="&#xc9;" horiz-adv-x="711" 
d="M498 903l-176 -143l-11 7l136 167c29 0 45 -15 51 -26v-5zM703 191l-50 -191h-612v10c33 5 64 17 82 38c13 16 17 65 18 108c1 37 2 134 2 207v195c0 47 -1 106 -17 123c-20 21 -40 24 -76 29v10h552l68 -165l-10 -5c-54 67 -106 113 -152 136c-23 11 -88 20 -175 20
c-28 0 -59 -1 -71 -5c-3 -17 -6 -23 -8 -72c-3 -93 -2 -235 -2 -253c10 0 89 -1 127 8c81 19 100 63 116 138h12v-315h-12c-11 42 -35 95 -59 117c-21 19 -51 32 -91 34s-51 2 -93 2c0 -86 0 -172 1 -216c1 -43 3 -85 15 -103s64 -26 117 -26c22 0 61 1 99 6
c84 11 142 59 208 173z" />
    <glyph glyph-name="Ntilde" unicode="&#xd1;" horiz-adv-x="875" 
d="M638 898c-14 -56 -41 -107 -117 -107l-107 21c-54 0 -67 1 -85 -48h-14c15 60 50 102 114 102l105 -21c51 0 79 5 89 53h15zM846 710c-49 -7 -78 -24 -94 -62c-9 -20 -11 -81 -13 -142c-2 -57 -5 -138 -5 -227c0 -76 1 -195 1 -273c0 -5 -3 -11 -10 -11
c-5 0 -12 5 -18 12c-228 261 -361 426 -542 629v-422c0 -67 2 -127 15 -153c15 -30 45 -44 99 -51v-10h-246v10c32 4 68 15 86 44c18 28 22 84 24 160c2 57 4 138 4 227c0 76 1 94 -1 171c-8 78 -64 92 -106 98v10h203l474 -554v340c0 53 0 106 -10 134
c-13 37 -45 61 -109 70v10h248v-10z" />
    <glyph glyph-name="Odieresis" unicode="&#xd6;" horiz-adv-x="808" 
d="M542 830c0 -25 -21 -46 -46 -46s-46 21 -46 46s21 46 46 46s46 -21 46 -46zM365 830c0 -25 -21 -46 -46 -46s-46 21 -46 46s21 46 46 46s46 -21 46 -46zM779 365c0 -213 -172 -372 -377 -372c-203 0 -373 153 -373 368c0 230 177 369 386 369c227 0 364 -173 364 -365z
M655 364c0 162 -82 349 -252 349c-174 0 -250 -183 -250 -355c0 -181 84 -348 253 -348c167 0 249 187 249 354z" />
    <glyph glyph-name="Udieresis" unicode="&#xdc;" horiz-adv-x="834" 
d="M585 830c0 -25 -21 -46 -46 -46s-46 21 -46 46s21 46 46 46s46 -21 46 -46zM408 830c0 -25 -21 -46 -46 -46s-46 21 -46 46s21 46 46 46s46 -21 46 -46zM824 710c-49 -7 -76 -24 -92 -62c-9 -20 -13 -90 -14 -151c-1 -57 -4 -127 -6 -216c-2 -75 0 -293 -292 -293
c-287 0 -290 214 -290 264c0 37 1 100 1 173v133c0 47 0 99 -15 117c-19 22 -46 31 -81 35v10h298v-10c-38 -5 -89 -18 -91 -80c-2 -75 -2 -89 -2 -172c0 -92 0 -138 1 -202c3 -142 80 -234 213 -234c227 0 238 170 240 305c1 72 0 113 0 170c0 53 -1 115 -11 143
c-13 37 -43 61 -107 70v10h248v-10z" />
    <glyph glyph-name="aacute" unicode="&#xe1;" horiz-adv-x="448" 
d="M328 667l-140 -153l-10 6l104 176c29 0 38 -13 46 -24v-5zM465 98c0 -52 -43 -101 -99 -101c-45 0 -87 25 -87 92l-2 1c-22 -36 -73 -91 -144 -91c-42 0 -93 26 -93 95c0 37 34 73 78 101c88 56 133 76 161 93v103c0 6 -15 46 -78 46c-43 0 -85 -35 -85 -51v-45
c0 -18 -24 -36 -46 -36c-21 0 -39 18 -39 38c0 33 37 52 59 65c69 41 149 75 183 75c35 0 69 -21 82 -47c5 -9 6 -36 6 -59c0 -95 -2 -148 -2 -239c0 -60 26 -74 51 -74c31 0 44 14 49 34h6zM279 118v154c-48 -35 -160 -75 -160 -143c0 -35 26 -68 65 -68c34 0 61 7 83 29
c9 8 12 18 12 28z" />
    <glyph glyph-name="agrave" unicode="&#xe0;" horiz-adv-x="448" 
d="M285 520l-10 -6l-137 153v5c8 11 17 24 46 24zM465 98c0 -52 -43 -101 -99 -101c-45 0 -87 25 -87 92l-2 1c-22 -36 -73 -91 -144 -91c-42 0 -93 26 -93 95c0 37 34 73 78 101c88 56 133 76 161 93v103c0 6 -15 46 -78 46c-43 0 -85 -35 -85 -51v-45
c0 -18 -24 -36 -46 -36c-21 0 -39 18 -39 38c0 33 37 52 59 65c69 41 149 75 183 75c35 0 69 -21 82 -47c5 -9 6 -36 6 -59c0 -95 -2 -148 -2 -239c0 -60 26 -74 51 -74c31 0 44 14 49 34h6zM279 118v154c-48 -35 -160 -75 -160 -143c0 -35 26 -68 65 -68c34 0 61 7 83 29
c9 8 12 18 12 28z" />
    <glyph glyph-name="acircumflex" unicode="&#xe2;" horiz-adv-x="448" 
d="M317 528l-12 -7l-91 111l-90 -111l-12 7l95 170h15zM465 98c0 -52 -43 -101 -99 -101c-45 0 -87 25 -87 92l-2 1c-22 -36 -73 -91 -144 -91c-42 0 -93 26 -93 95c0 37 34 73 78 101c88 56 133 76 161 93v103c0 6 -15 46 -78 46c-43 0 -85 -35 -85 -51v-45
c0 -18 -24 -36 -46 -36c-21 0 -39 18 -39 38c0 33 37 52 59 65c69 41 149 75 183 75c35 0 69 -21 82 -47c5 -9 6 -36 6 -59c0 -95 -2 -148 -2 -239c0 -60 26 -74 51 -74c31 0 44 14 49 34h6zM279 118v154c-48 -35 -160 -75 -160 -143c0 -35 26 -68 65 -68c34 0 61 7 83 29
c9 8 12 18 12 28z" />
    <glyph glyph-name="adieresis" unicode="&#xe4;" horiz-adv-x="448" 
d="M348 600c0 -25 -21 -46 -46 -46s-46 21 -46 46s21 46 46 46s46 -21 46 -46zM191 600c0 -25 -21 -46 -46 -46s-46 21 -46 46s21 46 46 46s46 -21 46 -46zM465 98c0 -52 -43 -101 -99 -101c-45 0 -87 25 -87 92l-2 1c-22 -36 -73 -91 -144 -91c-42 0 -93 26 -93 95
c0 37 34 73 78 101c88 56 133 76 161 93v103c0 6 -15 46 -78 46c-43 0 -85 -35 -85 -51v-45c0 -18 -24 -36 -46 -36c-21 0 -39 18 -39 38c0 33 37 52 59 65c69 41 149 75 183 75c35 0 69 -21 82 -47c5 -9 6 -36 6 -59c0 -95 -2 -148 -2 -239c0 -60 26 -74 51 -74
c31 0 44 14 49 34h6zM279 118v154c-48 -35 -160 -75 -160 -143c0 -35 26 -68 65 -68c34 0 61 7 83 29c9 8 12 18 12 28z" />
    <glyph glyph-name="atilde" unicode="&#xe3;" horiz-adv-x="448" 
d="M364 665c-14 -54 -39 -103 -113 -103l-87 19c-52 0 -64 1 -82 -46h-13c14 57 48 98 110 98l85 -19c49 0 76 5 86 51h14zM465 98c0 -52 -43 -101 -99 -101c-45 0 -87 25 -87 92l-2 1c-22 -36 -73 -91 -144 -91c-42 0 -93 26 -93 95c0 37 34 73 78 101c88 56 133 76 161 93
v103c0 6 -15 46 -78 46c-43 0 -85 -35 -85 -51v-45c0 -18 -24 -36 -46 -36c-21 0 -39 18 -39 38c0 33 37 52 59 65c69 41 149 75 183 75c35 0 69 -21 82 -47c5 -9 6 -36 6 -59c0 -95 -2 -148 -2 -239c0 -60 26 -74 51 -74c31 0 44 14 49 34h6zM279 118v154
c-48 -35 -160 -75 -160 -143c0 -35 26 -68 65 -68c34 0 61 7 83 29c9 8 12 18 12 28z" />
    <glyph glyph-name="aring" unicode="&#xe5;" horiz-adv-x="448" 
d="M305 592c0 -41 -31 -72 -74 -72c-44 0 -74 30 -74 72c0 41 33 72 74 72c42 0 74 -30 74 -72zM465 98c0 -52 -43 -101 -99 -101c-45 0 -87 25 -87 92l-2 1c-22 -36 -73 -91 -144 -91c-42 0 -93 26 -93 95c0 37 34 73 78 101c88 56 133 76 161 93v103c0 6 -15 46 -78 46
c-43 0 -85 -35 -85 -51v-45c0 -18 -24 -36 -46 -36c-21 0 -39 18 -39 38c0 33 37 52 59 65c69 41 149 75 183 75c35 0 69 -21 82 -47c5 -9 6 -36 6 -59c0 -95 -2 -148 -2 -239c0 -60 26 -74 51 -74c31 0 44 14 49 34h6zM278 592c0 29 -18 52 -47 52c-28 0 -47 -22 -47 -52
c0 -29 18 -52 47 -52s47 23 47 52zM279 118v154c-48 -35 -160 -75 -160 -143c0 -35 26 -68 65 -68c34 0 61 7 83 29c9 8 12 18 12 28z" />
    <glyph glyph-name="ccedilla" unicode="&#xe7;" horiz-adv-x="432" 
d="M441 143c-16 -52 -69 -104 -109 -132l-76 -57c67 -25 74 -72 74 -88c0 -62 -68 -90 -105 -90c-45 0 -76 13 -76 45c0 13 9 29 31 29c15 0 23 -4 29 -11c0 -8 -1 -15 -1 -20c0 -21 6 -31 22 -31c24 0 44 19 44 55c0 35 -25 64 -73 80l96 80c-16 -5 -35 -7 -56 -7
c-128 0 -221 109 -221 246c0 127 95 241 226 241c88 0 178 -43 178 -119c0 -28 -24 -52 -52 -52c-23 0 -43 15 -48 35c4 11 5 20 5 34c0 49 -25 86 -81 86c-82 0 -143 -90 -143 -199c0 -121 66 -204 170 -204c84 0 126 30 158 83z" />
    <glyph glyph-name="eacute" unicode="&#xe9;" horiz-adv-x="435" 
d="M340 667l-140 -153l-10 6l104 176c29 0 38 -13 46 -24v-5zM433 152c-10 -60 -78 -155 -188 -155c-137 0 -226 115 -226 254c0 113 83 232 212 232c105 0 186 -53 194 -165h-321c0 -10 -2 -25 -2 -40c0 -113 63 -212 186 -212c66 0 121 39 137 88zM326 376
c0 49 -37 90 -94 90c-75 0 -122 -101 -126 -134c60 0 93 1 155 2c20 0 38 1 51 6c9 10 14 18 14 36z" />
    <glyph glyph-name="egrave" unicode="&#xe8;" horiz-adv-x="435" 
d="M283 520l-10 -6l-137 153v5c8 11 17 24 46 24zM433 152c-10 -60 -78 -155 -188 -155c-137 0 -226 115 -226 254c0 113 83 232 212 232c105 0 186 -53 194 -165h-321c0 -10 -2 -25 -2 -40c0 -113 63 -212 186 -212c66 0 121 39 137 88zM326 376c0 49 -37 90 -94 90
c-75 0 -122 -101 -126 -134c60 0 93 1 155 2c20 0 38 1 51 6c9 10 14 18 14 36z" />
    <glyph glyph-name="ecircumflex" unicode="&#xea;" horiz-adv-x="435" 
d="M342 528l-12 -7l-91 111l-90 -111l-12 7l95 170h15zM433 152c-10 -60 -78 -155 -188 -155c-137 0 -226 115 -226 254c0 113 83 232 212 232c105 0 186 -53 194 -165h-321c0 -10 -2 -25 -2 -40c0 -113 63 -212 186 -212c66 0 121 39 137 88zM326 376c0 49 -37 90 -94 90
c-75 0 -122 -101 -126 -134c60 0 93 1 155 2c20 0 38 1 51 6c9 10 14 18 14 36z" />
    <glyph glyph-name="edieresis" unicode="&#xeb;" horiz-adv-x="435" 
d="M356 600c0 -25 -21 -46 -46 -46s-46 21 -46 46s21 46 46 46s46 -21 46 -46zM198 600c0 -25 -21 -46 -46 -46s-46 21 -46 46s21 46 46 46s46 -21 46 -46zM433 152c-10 -60 -78 -155 -188 -155c-137 0 -226 115 -226 254c0 113 83 232 212 232c105 0 186 -53 194 -165h-321
c0 -10 -2 -25 -2 -40c0 -113 63 -212 186 -212c66 0 121 39 137 88zM326 376c0 49 -37 90 -94 90c-75 0 -122 -101 -126 -134c60 0 93 1 155 2c20 0 38 1 51 6c9 10 14 18 14 36z" />
    <glyph glyph-name="iacute" unicode="&#xed;" horiz-adv-x="254" 
d="M207 667l-140 -153l-10 6l104 176c29 0 38 -13 46 -24v-5zM233 0h-215v10c31 3 68 7 68 32v347c0 10 1 15 -10 21c-12 6 -31 15 -48 22v7l135 44h6v-447c5 -26 37 -22 64 -26v-10z" />
    <glyph glyph-name="igrave" unicode="&#xec;" horiz-adv-x="254" 
d="M171 520l-10 -6l-137 153v5c8 11 17 24 46 24zM233 0h-215v10c31 3 68 7 68 32v347c0 10 1 15 -10 21c-12 6 -31 15 -48 22v7l135 44h6v-447c5 -26 37 -22 64 -26v-10z" />
    <glyph glyph-name="icircumflex" unicode="&#xee;" horiz-adv-x="254" 
d="M218 527l-12 -7l-85 113l-86 -112l-12 7l91 170h15zM233 0h-215v10c31 3 68 7 68 32v347c0 10 1 15 -10 21c-12 6 -31 15 -48 22v7l135 44h6v-447c5 -26 37 -22 64 -26v-10z" />
    <glyph glyph-name="idieresis" unicode="&#xef;" horiz-adv-x="254" 
d="M237 600c0 -25 -21 -46 -46 -46s-46 21 -46 46s21 46 46 46s46 -21 46 -46zM95 600c0 -25 -21 -46 -46 -46s-46 21 -46 46s21 46 46 46s46 -21 46 -46zM233 0h-215v10c31 3 68 7 68 32v347c0 10 1 15 -10 21c-12 6 -31 15 -48 22v7l135 44h6v-447c5 -26 37 -22 64 -26
v-10z" />
    <glyph glyph-name="ntilde" unicode="&#xf1;" horiz-adv-x="522" 
d="M422 665c-14 -54 -39 -103 -113 -103l-91 19c-52 0 -64 1 -82 -46h-13c14 57 48 98 110 98l89 -19c49 0 76 5 86 51h14zM512 0h-204v11c36 2 59 6 59 27v252c0 77 -27 129 -96 129c-44 0 -68 -19 -104 -55v-328c5 -26 23 -22 50 -26v-10h-189v10c31 3 56 11 56 32v344
c0 10 -1 15 -10 21c-12 7 -29 16 -45 23v6l131 47h6v-108l2 -1c29 46 91 109 163 109c77 0 120 -64 120 -154v-294c0 -20 38 -23 61 -26v-9z" />
    <glyph glyph-name="oacute" unicode="&#xf3;" horiz-adv-x="511" 
d="M352 667l-140 -153l-10 6l104 176c29 0 38 -13 46 -24v-5zM492 245c0 -136 -108 -250 -234 -250c-104 0 -239 78 -239 250c0 122 96 238 241 238c106 0 232 -79 232 -238zM399 246c0 91 -36 221 -146 221c-88 0 -141 -117 -141 -228c0 -122 42 -228 147 -228
c103 0 140 141 140 235z" />
    <glyph glyph-name="ograve" unicode="&#xf2;" horiz-adv-x="511" 
d="M311 520l-10 -6l-137 153v5c8 11 17 24 46 24zM492 245c0 -136 -108 -250 -234 -250c-104 0 -239 78 -239 250c0 122 96 238 241 238c106 0 232 -79 232 -238zM399 246c0 91 -36 221 -146 221c-88 0 -141 -117 -141 -228c0 -122 42 -228 147 -228c103 0 140 141 140 235z
" />
    <glyph glyph-name="ocircumflex" unicode="&#xf4;" horiz-adv-x="511" 
d="M359 528l-12 -7l-91 111l-90 -111l-12 7l95 170h15zM492 245c0 -136 -108 -250 -234 -250c-104 0 -239 78 -239 250c0 122 96 238 241 238c106 0 232 -79 232 -238zM399 246c0 91 -36 221 -146 221c-88 0 -141 -117 -141 -228c0 -122 42 -228 147 -228
c103 0 140 141 140 235z" />
    <glyph glyph-name="odieresis" unicode="&#xf6;" horiz-adv-x="511" 
d="M386 600c0 -25 -21 -46 -46 -46s-46 21 -46 46s21 46 46 46s46 -21 46 -46zM219 600c0 -25 -21 -46 -46 -46s-46 21 -46 46s21 46 46 46s46 -21 46 -46zM492 245c0 -136 -108 -250 -234 -250c-104 0 -239 78 -239 250c0 122 96 238 241 238c106 0 232 -79 232 -238z
M399 246c0 91 -36 221 -146 221c-88 0 -141 -117 -141 -228c0 -122 42 -228 147 -228c103 0 140 141 140 235z" />
    <glyph glyph-name="otilde" unicode="&#xf5;" horiz-adv-x="511" 
d="M404 665c-14 -54 -39 -103 -113 -103l-91 19c-52 0 -64 1 -82 -46h-13c14 57 48 98 110 98l89 -19c49 0 76 5 86 51h14zM492 245c0 -136 -108 -250 -234 -250c-104 0 -239 78 -239 250c0 122 96 238 241 238c106 0 232 -79 232 -238zM399 246c0 91 -36 221 -146 221
c-88 0 -141 -117 -141 -228c0 -122 42 -228 147 -228c103 0 140 141 140 235z" />
    <glyph glyph-name="uacute" unicode="&#xfa;" horiz-adv-x="523" 
d="M360 667l-140 -153l-10 6l104 176c29 0 38 -13 46 -24v-5zM506 25l-142 -28h-7v103l-1 1c-29 -46 -86 -106 -160 -106c-85 0 -125 54 -125 151v244c0 11 -1 41 -5 49c-10 23 -42 21 -66 23v11h155v-291c0 -87 22 -129 95 -129c55 0 82 31 107 62v285c0 13 -2 38 -10 49
c-16 7 -46 10 -75 13v11h168v-395c0 -10 1 -16 10 -21c13 -8 40 -19 56 -26v-6z" />
    <glyph glyph-name="ugrave" unicode="&#xf9;" horiz-adv-x="523" 
d="M295 520l-10 -6l-137 153v5c8 11 17 24 46 24zM506 25l-142 -28h-7v103l-1 1c-29 -46 -86 -106 -160 -106c-85 0 -125 54 -125 151v244c0 11 -1 41 -5 49c-10 23 -42 21 -66 23v11h155v-291c0 -87 22 -129 95 -129c55 0 82 31 107 62v285c0 13 -2 38 -10 49
c-16 7 -46 10 -75 13v11h168v-395c0 -10 1 -15 10 -21c12 -7 40 -19 56 -26v-6z" />
    <glyph glyph-name="ucircumflex" unicode="&#xfb;" horiz-adv-x="523" 
d="M358 528l-12 -7l-91 111l-90 -111l-12 7l95 170h15zM506 25l-142 -28h-7v103l-1 1c-29 -46 -86 -106 -160 -106c-85 0 -125 54 -125 151v244c0 11 -1 41 -5 49c-10 23 -42 21 -66 23v11h155v-291c0 -87 22 -129 95 -129c55 0 82 31 107 62v285c0 13 -2 38 -10 49
c-16 7 -46 10 -75 13v11h168v-395c0 -10 1 -15 10 -21c12 -7 40 -19 56 -26v-6z" />
    <glyph glyph-name="udieresis" unicode="&#xfc;" horiz-adv-x="523" 
d="M379 600c0 -25 -21 -46 -46 -46s-46 21 -46 46s21 46 46 46s46 -21 46 -46zM212 600c0 -25 -21 -46 -46 -46s-46 21 -46 46s21 46 46 46s46 -21 46 -46zM506 25l-142 -28h-7v103l-1 1c-29 -46 -86 -106 -160 -106c-85 0 -125 54 -125 151v244c0 11 -1 41 -5 49
c-10 23 -42 21 -66 23v11h155v-291c0 -87 22 -129 95 -129c55 0 82 31 107 62v285c0 13 -2 38 -10 49c-16 7 -46 10 -75 13v11h168v-395c0 -10 1 -15 10 -21c12 -7 40 -19 56 -26v-6z" />
    <glyph glyph-name="degree" unicode="&#xb0;" horiz-adv-x="408" 
d="M345 584c0 -77 -62 -141 -142 -141c-79 0 -140 62 -140 141c0 80 63 141 141 141s141 -63 141 -141zM304 584c0 55 -44 101 -100 101c-55 0 -101 -45 -101 -101c0 -57 46 -102 101 -102c57 0 100 47 100 102z" />
    <glyph glyph-name="registered" unicode="&#xae;" horiz-adv-x="514" 
d="M470 594c0 -117 -95 -212 -213 -212c-117 0 -213 95 -213 212c0 118 96 212 213 212c118 0 213 -94 213 -212zM314 656c0 21 -10 39 -31 49c-10 5 -21 5 -34 5c-9 0 -13 0 -17 -1c-1 -4 -2 -10 -2 -25v-84c18 0 32 0 46 4c29 10 38 29 38 52zM451 594
c0 106 -88 194 -194 194s-193 -88 -193 -194c0 -107 87 -194 193 -194c63 0 120 30 156 76h-73c-7 10 -5 7 -19 29c-16 24 -24 38 -45 62c-8 9 -20 19 -29 21c-8 2 -11 1 -17 1v-58c0 -14 0 -26 4 -33c4 -6 15 -12 33 -12v-10h-117v10c10 0 25 4 31 10c5 6 7 25 7 39v126
c0 15 -1 34 -7 40c-7 6 -17 9 -29 11v8c11 0 73 2 98 2c32 0 55 -2 75 -11c22 -10 35 -31 35 -57c0 -32 -27 -53 -58 -60v-1c7 -6 14 -13 22 -23c13 -16 28 -37 39 -53c18 -21 35 -30 56 -32c21 31 32 69 32 109z" />
    <glyph glyph-name="copyright" unicode="&#xa9;" horiz-adv-x="1000" 
d="M878 230c0 -211 -171 -383 -382 -383s-383 172 -383 383s172 383 383 383s382 -172 382 -383zM847 230c0 195 -156 352 -351 352c-196 0 -352 -157 -352 -352c0 -196 156 -353 352 -353c195 0 351 157 351 353zM689 166l-3 -161h-9c-11 14 -24 33 -28 33
c-2 0 -52 -40 -137 -40c-164 0 -254 99 -254 234c0 29 5 76 37 126c38 59 104 110 216 110c87 0 136 -40 139 -40c4 0 20 17 30 30h9v-158h-11c-6 23 -17 51 -27 68c-29 46 -74 85 -138 85c-112 0 -164 -114 -164 -224c0 -116 58 -215 165 -215c93 0 148 79 164 152h11z" />
    <glyph glyph-name="trademark" unicode="&#x2122;" horiz-adv-x="647" 
d="M281 652l-8 -2c-8 16 -18 38 -25 45c-9 8 -20 11 -37 11h-33c0 -23 -1 -68 -1 -94v-76c0 -12 1 -27 4 -32c6 -9 25 -13 35 -13v-9h-121v9c12 0 24 4 34 15c4 6 4 22 4 31c0 13 1 31 1 73c0 26 -1 69 -1 96h-33c-17 0 -27 -4 -36 -13c-8 -6 -22 -27 -30 -43l-7 2l13 73
c10 -2 17 -7 34 -7h165c14 0 23 3 33 7zM618 482h-125v9c35 3 44 18 44 44v162c-30 -67 -43 -97 -72 -161c-5 -9 -14 -33 -20 -48h-8c-43 98 -78 172 -92 202v-138c1 -41 1 -57 42 -61v-9h-99v9c31 5 43 24 43 64v125c0 25 -25 30 -36 32v8h82l79 -171c38 82 63 142 75 171
h85v-9c-19 -2 -28 -7 -32 -20c-3 -10 -3 -22 -4 -40c-1 -20 -1 -35 -1 -54c0 -23 0 -41 1 -66c1 -22 3 -38 38 -39v-10z" />
    <glyph glyph-name="notequal" unicode="&#x2260;" horiz-adv-x="539" 
d="M648 676c0 -24 -17 -42 -42 -42c-48 0 -58 57 -95 66c-16 0 -66 -8 -71 -99c-3 -54 -2 -81 -2 -129h118l-16 -43h-103v-391c5 -26 59 -24 86 -28v-10h-244v10c31 3 75 11 75 32v387h-186v-391c4 -22 49 -26 76 -28v-10h-235v10c31 3 76 11 76 32v387h-72l16 43h57
c0 56 2 91 14 120c32 78 114 131 197 131c67 0 107 -20 117 -51c39 33 94 56 152 56c39 0 82 -15 82 -52zM375 624c-45 8 -37 73 -97 80c-16 0 -97 -5 -106 -130c-4 -54 -4 -54 -4 -102h188c0 56 2 120 19 152z" />
    <glyph glyph-name="infinity" unicode="&#x221e;" horiz-adv-x="793" 
d="M772 0h-215v10c31 3 68 7 68 32v369c0 10 -4 19 -15 19h-170v-392c5 -26 49 -24 76 -28v-10h-233v10c31 3 74 11 74 32v386h-189v-390c5 -26 47 -24 74 -28v-10h-233v10c31 3 76 11 76 32v386h-72l24 44h49c0 56 2 91 14 120c32 78 114 131 197 131c89 0 109 -44 127 -73
c35 50 92 78 148 78c89 0 125 -30 125 -63c0 -26 -21 -43 -39 -43c-70 0 -41 52 -91 85c-6 2 -12 2 -20 2c-37 0 -99 -37 -104 -136c-3 -54 -3 -53 -3 -101h235c16 5 20 12 25 24h8v-460c5 -26 37 -22 64 -26v-10zM358 472v156c-4 18 -22 67 -80 76c-16 0 -97 -5 -106 -130
c-4 -54 -4 -58 -4 -102h190z" />
    <glyph glyph-name="plusminus" unicode="&#xb1;" horiz-adv-x="792" 
d="M782 0h-231v11c61 4 74 11 74 32v388h-187v-393c5 -26 50 -24 77 -28v-10h-236v10c31 3 76 11 76 32v387h-187v-391c5 -26 49 -24 76 -28v-10h-235v10c31 3 76 11 76 32v387h-72l16 43h57c0 56 2 91 14 120c32 78 114 131 197 131c70 0 106 -26 125 -66
c35 39 84 68 145 68c51 0 88 -14 110 -30l25 35h6v-693c0 -21 23 -21 74 -26v-11zM626 472v166c-18 30 -41 54 -77 68c-16 0 -101 -5 -108 -130c-3 -54 -3 -56 -3 -104h188zM357 472v153c-2 17 -28 71 -79 80c-16 0 -96 -6 -106 -131c-4 -54 -4 -54 -4 -102h189z" />
    <glyph glyph-name="lessequal" unicode="&#x2264;" 
d="M411 496l-4 -6c-31 6 -100 62 -148 107v-371l131 -170v-36l-132 170v-30l132 -171v-37l-132 171v-31l132 -171v-37l-132 171v-31l132 -171v-36l-132 173v-27h-18v27l-132 -173v36l132 171v31l-132 -171v37l132 171v31l-132 -171v37l132 171v30l-132 -170v36l131 170v371
c-48 -45 -115 -101 -146 -107l-4 6c56 73 107 145 159 232h4c48 -83 96 -150 159 -232z" />
    <glyph glyph-name="greaterequal" unicode="&#x2265;" 
d="M409 50c-55 -74 -108 -147 -159 -232h-4c-53 85 -97 149 -159 232l4 6c31 -6 100 -62 148 -107v371l-131 170v36l132 -170v30l-132 171v37l132 -171v31l-132 171v37l132 -171v31l-132 171v36l132 -173v27h18v-27l132 173v-36l-132 -171v-31l132 171v-37l-132 -171v-31
l132 171v-37l-132 -171v-30l132 170v-36l-131 -170v-371c48 45 115 101 146 107z" />
    <glyph glyph-name="mu" unicode="&#xb5;" horiz-adv-x="630" 
d="M598 184c0 -72 -13 -117 -38 -149c-24 -31 -51 -40 -79 -40c-58 0 -75 50 -75 112c0 12 3 34 5 44h-3c-38 -94 -110 -157 -192 -157c-55 0 -92 45 -92 126c0 12 2 25 4 39h-9c-45 -113 -57 -252 -60 -280c3 -24 17 -60 17 -75c0 -34 -18 -52 -35 -52c-21 0 -40 13 -40 43
c0 41 15 104 42 197c27 92 59 180 65 211c4 17 13 104 22 164c7 43 16 116 70 116c58 0 32 -78 19 -119c-19 -61 -42 -102 -59 -155c-6 -17 -10 -36 -10 -49c0 -52 37 -81 84 -81c74 0 139 117 158 181c3 9 16 84 24 120c8 37 16 102 68 102c62 0 32 -82 23 -109
c-40 -121 -81 -194 -81 -209c0 -62 33 -88 64 -88c52 0 83 30 98 108h10z" />
    <glyph glyph-name="partialdiff" unicode="&#x2202;" horiz-adv-x="717" 
d="M739 473l-27 -61h-154v-263c0 -68 32 -97 79 -97c39 0 62 14 81 41l6 -3c-14 -41 -57 -94 -141 -94c-55 0 -104 42 -109 87c0 64 2 204 2 329h-61v11c102 37 131 113 131 165c0 67 -45 127 -144 127c-111 0 -149 -82 -149 -138c0 -53 10 -68 22 -94c69 -1 97 -28 97 -56
c0 -21 -22 -43 -49 -43c-15 0 -31 23 -37 35c-7 12 -18 38 -22 49c-89 0 -159 -81 -159 -200c0 -117 64 -202 168 -202c112 0 140 61 162 104l10 -4c-22 -81 -93 -171 -205 -171c-128 0 -220 110 -220 247c0 119 83 240 241 240c-11 22 -24 55 -24 94c0 82 62 153 167 153
c94 0 164 -48 164 -169c0 -44 -7 -81 -8 -87h179z" />
    <glyph glyph-name="summation" unicode="&#x2211;" horiz-adv-x="692" 
d="M714 473l-23 -60h-152v-264c0 -68 32 -97 79 -97c39 0 60 19 79 45l7 -4c-14 -41 -56 -97 -140 -97c-55 0 -109 43 -109 93c0 64 1 198 1 323h-68v11c103 36 140 112 140 163c0 69 -47 129 -144 129c-110 0 -149 -84 -149 -138c0 -58 11 -68 26 -97l61 -17l8 -128l-8 -2
c-24 49 -53 98 -71 123c-16 8 -39 13 -60 13c-52 0 -98 -32 -98 -93c0 -49 32 -67 72 -77c28 -7 71 -17 96 -23c58 -14 105 -63 105 -130c0 -104 -91 -150 -187 -150c-57 0 -108 13 -152 32v134h8c20 -61 63 -152 144 -152c63 0 107 36 107 112c0 41 -29 69 -72 78
c-35 7 -72 16 -99 25c-49 17 -83 63 -83 122c0 82 73 136 158 136c22 0 44 -1 56 -2c-15 21 -28 51 -28 95c0 79 64 153 168 153c93 0 163 -50 163 -171c0 -44 -10 -78 -12 -85h177z" />
    <glyph glyph-name="pi" unicode="&#x3c0;" horiz-adv-x="680" 
d="M654 495c-23 -55 -50 -100 -62 -105c-5 -2 -29 -4 -63 -4c-11 0 -23 0 -36 1c-14 -39 -47 -157 -47 -221c0 -63 23 -89 52 -89c30 0 65 17 79 94h12c-10 -75 -27 -111 -44 -134c-22 -30 -48 -41 -78 -41c-78 0 -91 71 -91 115c0 70 36 203 58 279l-137 8
c-7 -34 -39 -147 -61 -213c-34 -100 -46 -134 -69 -165c-14 -19 -30 -25 -45 -25c-25 0 -41 17 -41 40c0 46 50 56 71 77c50 56 89 128 125 286c-7 0 -17 0 -46 -2c-107 -6 -139 -97 -142 -158h-9c-2 14 -9 36 -9 62c0 32 6 70 30 103c43 62 110 69 180 69
c52 0 166 -7 243 -7c26 0 66 -1 84 6c20 7 24 12 38 28z" />
    <glyph glyph-name="logicalnot" unicode="&#xac;" horiz-adv-x="700" 
d="M570 55h-43v206h-404v39h447v-245z" />
    <glyph glyph-name="approxequal" unicode="&#x2248;" horiz-adv-x="726" 
d="M713 127c0 -82 -56 -136 -123 -136c-95 0 -131 52 -161 135c-55 -74 -104 -136 -217 -136c-105 0 -181 81 -181 174c0 105 77 153 142 184c-41 35 -69 67 -69 127c0 79 75 138 156 138c82 0 155 -36 155 -116c0 -79 -74 -120 -145 -121c37 -22 66 -39 101 -66
c66 -51 72 -61 104 -100c33 45 71 95 71 129c0 36 -39 53 -89 53v12h247v-10c-65 -15 -90 -29 -136 -80c-23 -26 -50 -68 -86 -114c20 -31 30 -55 46 -85c21 -39 46 -57 82 -57c57 0 91 34 91 96h10c1 -9 2 -18 2 -27zM340 488c0 57 -23 113 -81 113c-46 0 -74 -45 -74 -102
c0 -46 10 -77 65 -115h11c54 0 79 53 79 104zM422 134c-14 29 -32 49 -55 71c-32 30 -52 45 -87 70c-37 27 -59 40 -98 66c-46 -20 -70 -68 -70 -136c0 -91 64 -146 151 -146c71 0 120 21 159 75z" />
    <glyph glyph-name="Delta" unicode="&#x394;" horiz-adv-x="374" 
d="M351 710c-28 -4 -65 -11 -82 -43c-11 -21 -10 -62 -11 -92c-1 -68 -1 -126 -1 -208v-233c0 -267 -166 -318 -227 -318c-48 0 -92 22 -92 65c0 32 18 54 54 54c55 0 56 -64 78 -87c4 -1 8 -2 14 -2c49 0 58 78 61 138c3 58 3 306 3 379v195c0 47 0 101 -15 119
c-19 22 -40 28 -89 33v10h307v-10z" />
    <glyph glyph-name="nbspace" unicode="&#xa0;" horiz-adv-x="105" 
 />
    <glyph glyph-name="Agrave" unicode="&#xc0;" horiz-adv-x="704" 
d="M428 767l-11 -7l-176 143v5c6 11 22 26 51 26zM736 0h-292v10c9 1 70 8 70 46c0 23 -32 115 -72 220h-266c-20 -50 -39 -95 -57 -142c-14 -36 -21 -63 -21 -76c0 -35 48 -44 83 -48v-10h-215v11c35 4 64 24 68 29c9 9 31 42 62 110c57 126 143 329 206 479l-10 22
c48 21 77 64 88 83h8c83 -222 147 -393 210 -562c15 -41 26 -64 42 -98c6 -12 35 -60 96 -62v-12zM434 297c-45 119 -97 249 -121 309c-15 -36 -65 -152 -128 -309h249z" />
    <glyph glyph-name="Atilde" unicode="&#xc3;" horiz-adv-x="704" 
d="M536 888c-14 -56 -41 -107 -117 -107l-107 21c-54 0 -67 1 -85 -48h-14c15 60 50 102 114 102l105 -21c51 0 79 5 89 53h15zM736 0h-292v10c9 1 70 8 70 46c0 23 -32 115 -72 220h-266c-20 -50 -39 -95 -57 -142c-14 -36 -21 -63 -21 -76c0 -35 48 -44 83 -48v-10h-215
v11c35 4 64 24 68 29c9 9 31 42 62 110c57 126 143 329 206 479l-10 22c48 21 77 64 88 83h8c83 -222 147 -393 210 -562c15 -41 26 -64 42 -98c6 -12 35 -60 96 -62v-12zM434 297c-45 119 -97 249 -121 309c-15 -36 -65 -152 -128 -309h249z" />
    <glyph glyph-name="Otilde" unicode="&#xd5;" horiz-adv-x="808" 
d="M570 898c-14 -56 -41 -107 -117 -107l-107 21c-54 0 -67 1 -85 -48h-14c15 60 50 102 114 102l105 -21c51 0 79 5 89 53h15zM779 365c0 -213 -172 -372 -377 -372c-203 0 -373 153 -373 368c0 230 177 369 386 369c227 0 364 -173 364 -365zM655 364
c0 162 -82 349 -252 349c-174 0 -250 -183 -250 -355c0 -181 84 -348 253 -348c167 0 249 187 249 354z" />
    <glyph glyph-name="divide" unicode="&#xf7;" horiz-adv-x="700" 
d="M403 411c0 -32 -21 -57 -52 -57c-32 0 -54 24 -54 55s22 53 54 53c31 0 52 -20 52 -51zM575 241h-450v40h450v-40zM403 110c0 -31 -21 -51 -52 -51c-32 0 -54 22 -54 53s22 55 54 55c31 0 52 -25 52 -57z" />
    <glyph glyph-name="lozenge" unicode="&#x25ca;" horiz-adv-x="556" 
d="M477 262l-199 -205l-198 205l198 204z" />
    <glyph glyph-name="ydieresis" unicode="&#xff;" horiz-adv-x="416" 
d="M357 600c0 -25 -21 -46 -46 -46s-46 21 -46 46s21 46 46 46s46 -21 46 -46zM199 600c0 -25 -21 -46 -46 -46s-46 21 -46 46s21 46 46 46s46 -21 46 -46zM443 462c-32 -2 -64 -2 -77 -44c-20 -63 -118 -375 -184 -588c-16 -51 -48 -72 -79 -72c-27 0 -54 19 -54 45
c0 27 18 46 44 46s43 -20 61 -37h2c28 72 47 146 50 158c-7 18 -112 305 -172 468c-12 13 -23 22 -70 24v11h220v-11c-28 -4 -52 -7 -52 -32c0 -20 80 -234 115 -330c10 32 98 310 98 333c0 25 -31 27 -56 29v11h154v-11z" />
    <glyph glyph-name="Ydieresis" unicode="&#x178;" horiz-adv-x="649" 
d="M490 830c0 -25 -21 -46 -46 -46s-46 21 -46 46s21 46 46 46s46 -21 46 -46zM313 830c0 -25 -21 -46 -46 -46s-46 21 -46 46s21 46 46 46s46 -21 46 -46zM682 710c-74 -11 -102 -54 -151 -128c-33 -50 -122 -188 -154 -236v-201c0 -38 1 -81 11 -95c20 -29 56 -35 85 -40
v-10h-308v10c35 4 56 7 87 41c13 14 13 66 14 109c1 37 2 87 2 160c-7 11 -122 199 -160 258c-50 78 -81 128 -135 132v10h305v-10c-39 -4 -87 -8 -87 -42c0 -17 24 -57 45 -93c28 -48 86 -141 130 -213c34 50 109 169 134 211c12 20 36 59 36 86c0 42 -48 45 -85 51v10h231
v-10z" />
    <glyph glyph-name="Acircumflex" unicode="&#xc2;" horiz-adv-x="704" 
d="M470 761l-13 -7l-101 104l-100 -104l-13 7l106 163h15zM736 0h-292v10c9 1 70 8 70 46c0 23 -32 115 -72 220h-266c-20 -50 -39 -95 -57 -142c-14 -36 -21 -63 -21 -76c0 -35 48 -44 83 -48v-10h-215v11c35 4 64 24 68 29c9 9 31 42 62 110c57 126 143 329 206 479
l-10 22c48 21 77 64 88 83h8c83 -222 147 -393 210 -562c15 -41 26 -64 42 -98c6 -12 35 -60 96 -62v-12zM434 297c-45 119 -97 249 -121 309c-15 -36 -65 -152 -128 -309h249z" />
    <glyph glyph-name="Ecircumflex" unicode="&#xca;" horiz-adv-x="711" 
d="M494 771l-13 -7l-101 104l-100 -104l-13 7l106 163h15zM703 191l-50 -191h-612v10c33 5 64 17 82 38c13 16 17 65 18 108c1 37 2 134 2 207v195c0 47 -1 106 -17 123c-20 21 -40 24 -76 29v10h552l68 -165l-10 -5c-54 67 -106 113 -152 136c-23 11 -88 20 -175 20
c-28 0 -59 -1 -71 -5c-3 -17 -6 -23 -8 -72c-3 -93 -2 -232 -2 -253c8 0 89 -1 127 8c81 19 100 63 116 138h12v-315h-12c-11 42 -35 95 -59 117c-21 19 -51 32 -91 34s-51 2 -93 2c0 -86 0 -172 1 -216c1 -43 3 -85 15 -103s64 -26 117 -26c22 0 61 1 99 6
c84 11 142 59 208 173z" />
    <glyph glyph-name="Aacute" unicode="&#xc1;" horiz-adv-x="704" 
d="M473 903l-176 -143l-11 7l136 167c29 0 45 -15 51 -26v-5zM736 0h-292v10c9 1 70 8 70 46c0 23 -32 115 -72 220h-266c-20 -50 -39 -95 -57 -142c-14 -36 -21 -63 -21 -76c0 -35 48 -44 83 -48v-10h-215v11c35 4 64 24 68 29c9 9 31 42 62 110c57 126 143 329 206 479
l-10 22c48 21 77 64 88 83h8c83 -222 147 -393 210 -562c15 -41 26 -64 42 -98c6 -12 35 -60 96 -62v-12zM434 297c-45 119 -97 249 -121 309c-15 -36 -65 -152 -128 -309h249z" />
    <glyph glyph-name="Edieresis" unicode="&#xcb;" horiz-adv-x="711" 
d="M520 830c0 -25 -21 -46 -46 -46s-46 21 -46 46s21 46 46 46s46 -21 46 -46zM343 830c0 -25 -21 -46 -46 -46s-46 21 -46 46s21 46 46 46s46 -21 46 -46zM703 191l-50 -191h-612v10c33 5 64 17 82 38c13 16 17 65 18 108c1 37 2 134 2 207v195c0 47 -1 106 -17 123
c-20 21 -40 24 -76 29v10h552l68 -165l-10 -5c-54 67 -106 113 -152 136c-23 11 -88 20 -175 20c-28 0 -59 -1 -71 -5c-3 -17 -6 -23 -8 -72c-3 -93 -2 -233 -2 -253c17 0 89 -1 127 8c81 19 100 63 116 138h12v-315h-12c-11 42 -35 95 -59 117c-21 19 -51 32 -91 34
s-51 2 -93 2c0 -86 0 -172 1 -216c1 -43 3 -85 15 -103s64 -26 117 -26c22 0 61 1 99 6c84 11 142 59 208 173z" />
    <glyph glyph-name="Egrave" unicode="&#xc8;" horiz-adv-x="711" 
d="M443 767l-11 -7l-176 143v5c6 11 22 26 51 26zM703 191l-50 -191h-612v10c33 5 64 17 82 38c13 16 17 65 18 108c1 37 2 134 2 207v195c0 47 -1 106 -17 123c-20 21 -40 24 -76 29v10h552l68 -165l-10 -5c-54 67 -106 113 -152 136c-23 11 -88 20 -175 20
c-28 0 -59 -1 -71 -5c-3 -17 -6 -23 -8 -72c-3 -93 -2 -228 -2 -253c16 0 89 -1 127 8c81 19 100 63 116 138h12v-315h-12c-11 42 -35 95 -59 117c-21 19 -51 32 -91 34s-51 2 -93 2c0 -86 0 -172 1 -216c1 -43 3 -85 15 -103s64 -26 117 -26c22 0 61 1 99 6
c84 11 142 59 208 173z" />
    <glyph glyph-name="Iacute" unicode="&#xcd;" horiz-adv-x="399" 
d="M322 903l-170 -143l-11 7l131 167c29 0 44 -15 50 -26v-5zM349 0h-303v10c33 5 63 16 83 39c13 15 13 64 14 107c1 37 2 134 2 207v195c0 47 0 99 -15 117c-19 22 -46 31 -81 35v10h299v-10c-28 -4 -65 -11 -82 -43c-12 -23 -10 -62 -11 -92c-1 -68 -1 -126 -1 -208v-226
c0 -38 0 -80 10 -94c16 -22 57 -35 85 -37v-10z" />
    <glyph glyph-name="Icircumflex" unicode="&#xce;" horiz-adv-x="399" 
d="M306 771l-13 -7l-96 104l-95 -104l-13 7l101 163h15zM349 0h-303v10c33 5 63 16 83 39c13 15 13 64 14 107c1 37 2 134 2 207v195c0 47 0 99 -15 117c-19 22 -46 31 -81 35v10h299v-10c-28 -4 -65 -11 -82 -43c-12 -23 -10 -62 -11 -92c-1 -68 -1 -126 -1 -208v-226
c0 -38 0 -80 10 -94c16 -22 57 -35 85 -37v-10z" />
    <glyph glyph-name="Idieresis" unicode="&#xcf;" horiz-adv-x="399" 
d="M329 830c0 -25 -21 -46 -46 -46s-46 21 -46 46s21 46 46 46s46 -21 46 -46zM162 830c0 -25 -21 -46 -46 -46s-46 21 -46 46s21 46 46 46s46 -21 46 -46zM349 0h-303v10c33 5 63 16 83 39c13 15 13 64 14 107c1 37 2 134 2 207v195c0 47 0 99 -15 117
c-19 22 -46 31 -81 35v10h299v-10c-28 -4 -65 -11 -82 -43c-12 -23 -10 -62 -11 -92c-1 -68 -1 -126 -1 -208v-226c0 -38 0 -80 10 -94c16 -22 57 -35 85 -37v-10z" />
    <glyph glyph-name="Igrave" unicode="&#xcc;" horiz-adv-x="399" 
d="M256 767l-11 -7l-170 143v5c6 11 21 26 50 26zM349 0h-303v10c33 5 63 16 83 39c13 15 13 64 14 107c1 37 2 134 2 207v195c0 47 0 99 -15 117c-19 22 -46 31 -81 35v10h299v-10c-28 -4 -65 -11 -82 -43c-12 -23 -10 -62 -11 -92c-1 -68 -1 -126 -1 -208v-226
c0 -38 0 -80 10 -94c16 -22 57 -35 85 -37v-10z" />
    <glyph glyph-name="Oacute" unicode="&#xd3;" horiz-adv-x="808" 
d="M514 903l-176 -143l-11 7l136 167c29 0 45 -15 51 -26v-5zM779 365c0 -213 -172 -372 -377 -372c-203 0 -373 153 -373 368c0 230 177 369 386 369c227 0 364 -173 364 -365zM655 364c0 162 -82 349 -252 349c-174 0 -250 -183 -250 -355c0 -181 84 -348 253 -348
c167 0 249 187 249 354z" />
    <glyph glyph-name="Ocircumflex" unicode="&#xd4;" horiz-adv-x="808" 
d="M518 771l-13 -7l-101 104l-100 -104l-13 7l106 163h15zM779 365c0 -213 -172 -372 -377 -372c-203 0 -373 153 -373 368c0 230 177 369 386 369c227 0 364 -173 364 -365zM655 364c0 162 -82 349 -252 349c-174 0 -250 -183 -250 -355c0 -181 84 -348 253 -348
c167 0 249 187 249 354z" />
    <glyph glyph-name="apple" unicode="&#xf8ff;" horiz-adv-x="700" 
d="M544 94l-27 -28l-166 168l-167 -168l-28 28l168 167l-168 166l28 27l166 -168l166 168l28 -28l-168 -166z" />
    <glyph glyph-name="Ograve" unicode="&#xd2;" horiz-adv-x="808" 
d="M491 767l-11 -7l-176 143v5c6 11 22 26 51 26zM779 365c0 -213 -172 -372 -377 -372c-203 0 -373 153 -373 368c0 230 177 369 386 369c227 0 364 -173 364 -365zM655 364c0 162 -82 349 -252 349c-174 0 -250 -183 -250 -355c0 -181 84 -348 253 -348
c167 0 249 187 249 354z" />
    <glyph glyph-name="Uacute" unicode="&#xda;" horiz-adv-x="834" 
d="M575 903l-176 -143l-11 7l136 167c29 0 45 -15 51 -26v-5zM824 710c-49 -7 -76 -24 -92 -62c-9 -20 -13 -90 -14 -151c-1 -57 -4 -127 -6 -216c-2 -75 0 -293 -292 -293c-287 0 -290 214 -290 264c0 37 1 100 1 173v133c0 47 0 99 -15 117c-19 22 -46 31 -81 35v10h298
v-10c-38 -5 -89 -18 -91 -80c-2 -65 -2 -73 -2 -172c0 -92 0 -138 1 -202c3 -142 80 -234 213 -234c227 0 238 170 240 305c1 72 0 113 0 170c0 53 -1 115 -11 143c-13 37 -43 61 -107 70v10h248v-10z" />
    <glyph glyph-name="Ucircumflex" unicode="&#xdb;" horiz-adv-x="834" 
d="M564 771l-13 -7l-101 104l-100 -104l-13 7l106 163h15zM824 710c-49 -7 -76 -24 -92 -62c-9 -20 -13 -90 -14 -151c-1 -57 -4 -127 -6 -216c-2 -75 0 -293 -292 -293c-287 0 -290 214 -290 264c0 37 1 100 1 173v133c0 47 0 99 -15 117c-19 22 -46 31 -81 35v10h298v-10
c-38 -5 -89 -18 -91 -80c-2 -55 -2 -73 -2 -172c0 -92 0 -138 1 -202c3 -142 80 -234 213 -234c227 0 238 170 240 305c1 72 0 113 0 170c0 53 -1 115 -11 143c-13 37 -43 61 -107 70v10h248v-10z" />
    <glyph glyph-name="Ugrave" unicode="&#xd9;" horiz-adv-x="834" 
d="M496 767l-11 -7l-176 143v5c6 11 22 26 51 26zM824 710c-49 -7 -76 -24 -92 -62c-9 -20 -13 -90 -14 -151c-1 -57 -4 -127 -6 -216c-2 -75 0 -293 -292 -293c-287 0 -290 214 -290 264c0 37 1 100 1 173v133c0 47 0 99 -15 117c-19 22 -46 31 -81 35v10h298v-10
c-38 -5 -89 -18 -91 -80c-2 -53 -2 -73 -2 -172c0 -92 0 -138 1 -202c3 -142 80 -234 213 -234c227 0 238 170 240 305c1 72 0 113 0 170c0 53 -1 115 -11 143c-13 37 -43 61 -107 70v10h248v-10z" />
    </font>
</defs>
</svg>
