<svg id="Layer_1" data-name="Layer 1" xmlns="http://www.w3.org/2000/svg" viewBox="0 0 486.58 389.9"><title>not-sam</title><path d="M380.42,280c-5.06,1.65-8.55,5.28-11.85,9.3-9.84,12-17.72,25.28-26.15,38.21a89.62,89.62,0,0,1-10,12.89c-7.19,7.56-14.48,6.13-18.84-3.27-.44-1-.94-1.9-1.42-2.88-4.76,7.35-9.25,14.6-14.09,21.61a28.54,28.54,0,0,1-6.78,7c-9.73,6.91-21.75,3-25.51-8.38-2.45-7.38-2.48-15-1.08-22.63a84,84,0,0,1,21.5-42.75c4.51-4.85,9.88-7.86,16.61-8.3,8.35-.55,14.89,2.44,19.61,10.08a71.55,71.55,0,0,1,4.75-6.56,30.83,30.83,0,0,1,6.43-5.8c5.48-3.32,11.47.34,11.13,6.76-.24,4.52-3,9-3.07,13.09a37.75,37.75,0,0,1-7.57,22.33c-1.79,2.38-1.57,3.65-2.25,7.53a30.86,30.86,0,0,0,3.52-3.24c5.4-7.06,10.67-14.22,16.12-21.25,6.68-8.61,13.34-17.24,20.31-25.61a30.42,30.42,0,0,1,7.73-6c8.18-4.89,16.11-1.74,18.88,7.34.41,1.34.66,2.74,1.16,4.84a38.47,38.47,0,0,0,2.73-3.13c5.5-7.86,12.11-14.42,20.79-18.81,4.77-2.41,8.09-2,11.4,2.11,2.86,3.56,3.73,7.77,3.67,13,1.55-1.32,2.58-2.18,3.61-3,5.25-4.47,10.36-9.14,15.83-13.32a29.38,29.38,0,0,1,8.72-4.28c6.54-2.09,12.41,1.71,12.71,8.57a25,25,0,0,1-2.15,11,150.92,150.92,0,0,1-9.76,17.6,70.13,70.13,0,0,0-9.79,25.8c-.84,4.88.35,6.21,5.32,6.08,6.11-.16,15.41-7,17-12.78A8.88,8.88,0,0,0,479,308c-.73-1.91-2-3.91-.17-5.44,1-.83,3.13-.89,4.55-.53a4.13,4.13,0,0,1,3.12,4.93c0,.05,0,.11-.05.16-.8,3.69-1.53,7.63-3.42,10.78a57.29,57.29,0,0,1-9.26,11.33c-6.77,6.56-19.43,7.83-27.43,3-4.65-2.79-6.31-7.28-6.25-12.52a73.82,73.82,0,0,1,10.42-36.81c3.57-6.08,7.93-11.7,12.51-18.37-1.8.58-3.13.71-4.12,1.38a107.49,107.49,0,0,0-21.6,19.86c-1.33,1.6-1.78,3.93-2.61,5.93-2.06,5-3.74,10.27-6.28,15a19.28,19.28,0,0,1-6.6,6.92c-4.61,2.86-9.67.73-11.24-4.51a16.45,16.45,0,0,1-.33-7.45c.56-3,1.91-5.85,3-8.75,2.74-7.46,5.5-14.9,8.51-23.06-1.53.19-2.3.06-2.78.38a48.94,48.94,0,0,0-14.33,14c-8,12.06-13.24,25.38-18.29,38.82a137.44,137.44,0,0,1-5.89,13.46A13.39,13.39,0,0,1,370.32,344c-5,.85-8.86-1.7-9-6.81A29,29,0,0,1,362.89,326c4.93-12.69,10.36-25.18,15.58-37.76,1-2.45,1.92-4.93,2.88-7.4Zm-99.77,68.34c.62,1.46,1,4.66,2.79,6,2.67,2.06,5.57-.26,7.72-2.15,9-7.9,16.19-17.28,20.43-28.48,2.81-7.41,4.49-15.27,6.43-23,1.41-5.61-3.42-9.89-9-8.28a15.73,15.73,0,0,0-8.55,6.41c-3,4.3-6.05,8.63-8.72,13.15C285.36,322.81,282.29,334.69,280.65,348.32Z"/><path d="M157.39,140.53l17.15-18.17c6,2.18,11,3.94,16,5.89s9.72,4,15.32,6.33c-2.43,2.54-4.58,5.08-7,7.28-2.64,2.35-3.59,4.93-3.46,8.71.31,9.07,0,18.15-.51,27.22a204.44,204.44,0,0,0,1.58,42.32c.51,3.4.57,6.48-3,8.93l14.45,13.23L188.7,261.76l-22.83-20.09c2.52-2.6,4.92-5.24,7.51-7.69,1.72-1.64,2.13-3.34,2.11-5.76-.12-18.16,0-36.32,0-54.48,0-5.8-.17-11.62-.69-17.4-.41-4.76-2.26-8.6-7.78-9.76-3.12-.65-6-2.35-9.43-3.74-2.77,2.75-5.79,5.38-8.32,8.41a8.35,8.35,0,0,0-1.33,5c0,5.08.38,10.16.54,15.25q.79,26.42,1.54,52.84c.27,9.7.22,9.71,7.39,16.25,1.87,1.7,3.77,3.35,5.22,4.64l-19.24,19.22-26.62-22.4c3.15-3.21,6-6.46,9.23-9.31a10.86,10.86,0,0,0,4-9.5c-.81-17.78-1.31-35.58-2-53.37-.08-2.35-.86-4.72-.7-7,.63-8.9-3.79-14.7-11-18.94-.45-.26-.87-.59-1.11-.75l19.67-19.1c1.06.72,2.87,1.84,4.57,3.1s2.9,3.61,5.38,1.64C146.48,135.37,152.45,136.75,157.39,140.53Z"/><path d="M301.05,94.64,320.4,75.35c2.2.56,3.44,4.79,7.52,4.69.94,0,1.83,2.76,2.95,4.07C333.35,87,336,89.8,341.54,89.8c-3.13,3.2-5.39,5.64-7.8,7.92a6.28,6.28,0,0,0-2.15,5.75c.58,5.57.69,11.18,1,17.19,3.42.19,6.47.2,9.47.55,9.74,1.16,19.45,2.58,29.2,3.62,6.3.67,12.66.86,19,1.24,1.19.07,2.39,0,4.57,0-2,2.37-2.78,3.56-4.36,4.83a55,55,0,0,0-10.17,10.17c-2.68,3.62-5.72,4.63-9.66,4.8-9.36.4-18.46-1.42-27.63-2.67-3-.4-6-.59-9.53-.93.17,2.76.36,4.89.41,7,.19,7.63.32,15.26.48,22.9.41,20.53.78,41.06,1.31,61.59a8.48,8.48,0,0,0,2,4.79c2.56,2.75,5.62,5,8.29,7.68a23.07,23.07,0,0,1,2.71,3.88c-6.66,6.66-12.91,12.93-19.44,19.47-2.12-2.27-4.51-4.94-7.05-7.44A34.32,34.32,0,0,0,318,259c-.41-.3-1.19-.39-1.3-.74-1.89-5.84-7.53-8.1-11.39-12a7.45,7.45,0,0,1-.49-1.32c2.65-2.46,5.69-5,8.41-8a7.39,7.39,0,0,0,2.15-4.6c-.14-18.72-.38-37.44-.82-56.15-.23-10-.88-20-1.38-30-.08-1.6-.35-3.19-.55-5-8.66-1.79-17.52.44-26.61-2.58l11.36-11.4,3.86-3.85c3.88-3.86,3.88-3.86,10.13-3.41.21-5.06-.94-9.94-1.5-14.87C309.12,99.52,303.26,98.21,301.05,94.64Z"/><path d="M253.94,259.09a101.77,101.77,0,0,1-27.34-14.72,5.46,5.46,0,0,1-2.38-4.55c-.2-8-.35-16-.9-24-1.31-19-2.81-38-4.35-57-.21-2.64-.08-4.86,1.65-7.1,9.58-12.43,20.76-23.34,32-34.18a18.57,18.57,0,0,1,2.71-1.69c5.3,4.31,10.61,8.61,15.89,13,2.39,2,4.6,4.14,7.06,6a10.73,10.73,0,0,1,4.41,8.32c1.55,19.72,3.23,39.44,4.79,59.16.53,6.7.9,13.41,1.17,20.12a5.4,5.4,0,0,1-1.22,3.74C276.51,237,265.46,247.81,253.94,259.09Zm14.74-22.17c0-2.64.16-5,0-7.3-1.81-21.84-3.77-43.68-5.49-65.54-.38-4.85-1.76-8.69-6.21-11.24-1.84-1.06-3.21-2.92-4.87-4.31-4.11-3.41-8.25-6.75-13-10.66.64,9.75,1.25,18.4,1.79,27,1,16.64,2.47,33.28,2.84,49.94.15,6.36,1.52,10.78,7.4,13.42a19,19,0,0,1,2.63,1.91A42,42,0,0,0,268.68,236.92Z"/><path d="M150.79,82c-3.4,5-6,9.58-9.43,13.58a78,78,0,0,1-11.66,11.32c-7.7,6-19.71,1.25-21.56-8.79-1.65-9-.16-17.54,2.93-25.68,2.68-7.06,6.61-13.72,10.58-20.19,3.48-5.68,8.93-9.47,14.85-12.49C143.91,36,156.15,37.1,161.82,48c1-1.49,1.55-2.84,2.54-3.74A22.52,22.52,0,0,1,170,40.06c5-2.19,8.52.64,7.44,5.91a62.53,62.53,0,0,1-3.25,9.8c-2.18,5.51-4.55,10.94-6,17,1.37-1.28,2.83-2.48,4.08-3.87,5.93-6.65,11.67-13.46,17.73-20,3.33-3.58,7.23-6.62,10.73-10,4.82-4.74,10.45-1.91,11.21,4.53.37,3.17-.28,6.46-.5,10.28,1-1.12,1.77-1.92,2.48-2.78,3.46-4.16,6.87-8.36,10.37-12.5a16.24,16.24,0,0,1,2.49-2.34c5.59-4,10.15-2.87,12.69,3.09q1.05,2.91,1.82,5.93c3.17-2.62,6-5.12,9-7.39a41.43,41.43,0,0,1,6.87-4.38c5.57-2.68,11,0,11.68,6.17a22,22,0,0,1-1.5,10c-2.12,5.19-5.13,10-7.72,15-3.08,6-6.29,11.88-9.09,18-1.17,2.54-1.42,5.51-2.07,8.19,2.68,1.78,4.72.77,6.64-.12A22.26,22.26,0,0,0,265,82.36c3.71-5.83,7.6-11.57,8.42-18.71.08-.62.67-1.18,1.15-2,3.17,1.56,2.79,4.08,2.26,6.51a41.87,41.87,0,0,1-14.1,23.37,38,38,0,0,1-9.6,6.1c-8.32,3.53-14.57-.51-15.11-9.5a40.29,40.29,0,0,1,4.14-20.62c3.88-7.8,8-15.46,12.09-23.18.57-1.09,1.15-2.17,1.87-3.53-6.28,2.25-15.68,10.88-18.12,16.49-2,4.5-3.63,9.13-5.79,13.52a19.22,19.22,0,0,1-4.8,6.46c-4.27,3.44-9.58,1.17-9.82-4.29a23.78,23.78,0,0,1,1.86-9.45c2.21-5.56,5.06-10.87,7.48-16.35a46.46,46.46,0,0,0,1.79-6l-1-.69c-1.42,1-3.09,1.74-4.21,3-3.26,3.64-6.68,7.23-9.34,11.29-7.49,11.44-12.64,24.11-18.5,36.41a32.81,32.81,0,0,1-3.81,6.56c-1.72,2.15-4,3.88-7.1,2.76-2.46-.88-3.76-3-3.33-6.75a36.94,36.94,0,0,1,2.38-8.87c4.69-12.21,9.54-24.35,14.33-36.52.18-.47.24-1,.71-2.87-2.34,2-4,2.94-5.15,4.35-5,6.21-9.92,12.52-14.8,18.85-3.26,4.22-6.38,8.54-9.63,12.77a21.91,21.91,0,0,1-3.59,3.74c-5.35,4.36-9.7,3.76-13.83-1.78ZM124,97.51a6.66,6.66,0,0,0,7-1.62,109.74,109.74,0,0,0,10.13-9.75c8.13-9.11,12.15-20.45,16.49-31.58a6.29,6.29,0,0,0,.07-3.67c-1.46-5.7-8.06-7.14-12.41-2.26a76.41,76.41,0,0,0-10.78,14.91C129,74,125.88,85.4,124,97.51Z"/><path d="M223,318.14c-15.15,5.46-30.09,11-42.88,20.92-2.32,1.79-3.91,4.51-5.92,6.89-2-.94-1.49-2.61-.44-3.92a38.79,38.79,0,0,1,5.27-5.45c8.55-7.29,18.64-11.86,28.89-16.13,4.85-2,9.77-3.9,14.66-5.84.54-4.61.75-9.15,1.64-13.55,2.19-10.75,7.86-19,18.1-23.69A20.65,20.65,0,0,1,259,277.2a8.62,8.62,0,0,1,5.38,9.58A20.38,20.38,0,0,1,258.11,298a146.54,146.54,0,0,1-12,9.36,57.38,57.38,0,0,1-5.3,3.11c-.06,4.52,1.83,8.46,3.32,12.48,1.78,4.76,3.93,9.4,5.38,14.25,2.25,7.5,3.94,15.25,1.86,23-3.93,14.72-12.56,25.11-27.86,29.14a14.11,14.11,0,0,1-11.45-1.73c-7.45-4.49-12.42-11.15-13.36-19.6-1.45-13.17,4.32-22.16,16.88-25.35,1.15-.29,2.5.16,3.75.27l.36,1.4c-1.54,1.08-3.06,2.19-4.63,3.23-5.36,3.55-9.45,7.75-9.62,14.82a17.84,17.84,0,0,0,5,12.84c3.12,3.46,6.51,3.76,10.79,1.64,9.93-4.89,11.59-14.07,11.23-23.5-.24-6.42-2.26-12.83-4-19.12C227.12,329.1,225,324.06,223,318.14Zm36.86-33.61c-10.33-3.71-20.69,7.75-19.08,21.09,11.37-3.41,20-12.88,19.08-21.09Z"/><path d="M15.24,132.12c9-2,14.51-8.33,22-12.71,0,1.64.38,2.85-.07,3.44a37.39,37.39,0,0,1-5,5.67c-3.93,3.49-8,6.86-12.11,10.12-7.21,5.68-14.93,3.51-18.3-5.13-2.25-5.77-2-11.88-1.16-17.76C3.78,94,10.36,73.37,23.47,55.3a32.74,32.74,0,0,1,4.3-4.88,6.37,6.37,0,0,1,7.1-1.27A6.14,6.14,0,0,1,38.13,56a119.44,119.44,0,0,1-3.42,13.68c-6,18.64-12.16,37.21-18.19,55.83A56.62,56.62,0,0,0,15.24,132.12Z"/><path d="M51.48,8.29c-.12,5-4.33,9.15-9.09,9-4.51-.2-7.6-3.71-7.37-8.37S39.31,0,43.71,0C47.86,0,51.57,4,51.48,8.29Z"/></svg>