<svg id="Layer_1" data-name="Layer 1" xmlns="http://www.w3.org/2000/svg" viewBox="0 0 1306.73 1032.05"><title>calligraphy</title><path d="M1087.43,492.88c6.71-.92,12.09-3.79,17.06-7.44,2-1.51,3.65-3.88,6.56-2,2,1.36,2.38,4.75.36,7.95a24,24,0,0,1-5.43,6c-4.17,3.21-8.53,6.2-13,9a14.37,14.37,0,0,1-19.46-3.69c-2.13-2.78-3.19-6.41-4.51-9.75-.64-1.63-.74-3.47-1.28-6.22l-3.2,5.4c-3.33,5.63-6.55,11.34-10,16.87a42.79,42.79,0,0,1-13.24,13.54c-4.1,2.59-8.33,3.88-12.75,1s-5.6-7.56-4.95-12.47a50.2,50.2,0,0,1,6.95-18.8c2.47-4.18,5.11-8.26,7.67-12.38l-.71-.85a27.92,27.92,0,0,0-4.6,3.2c-2.91,3-6,5.91-8.27,9.36-6.46,9.86-13,19.69-17.24,30.83-3.48,9.06-9.27,16.86-15.15,24.51a16.52,16.52,0,0,1-4,3.66,6.29,6.29,0,0,1-7.65-.11c-2.4-1.79-3.52-4.4-2.43-7.21a104.73,104.73,0,0,1,5.31-11.3c1.8-3.36,3.85-6.59,5.93-9.79,4.76-7.3,5.57-16,8.91-23.76l-.94-.84a53.12,53.12,0,0,0-6,4.7c-5.43,5.62-10.61,11.48-16,17.11-3.15,3.26-6.57,6.27-9.89,9.37a16.19,16.19,0,0,1-1.75,1.3c-9.64,6.7-16.57,4.71-21.05-6.05-.21-.5-.43-1-1-2.21-1.45,1.79-2.71,3.22-3.84,4.76-4,5.41-7.73,11-12,16.22a35,35,0,0,1-8.46,7.57c-6.17,3.81-12.41,1-14.45-6-1.45-5-.21-9.79.86-14.53a102.37,102.37,0,0,1,13.55-32.54,12.54,12.54,0,0,0,2.11-4.88,32.14,32.14,0,0,0-3.81,3.55c-5.49,7-11.25,13.76-14.75,22.12a99.42,99.42,0,0,1-6.46,12,14.19,14.19,0,0,1-3.56,4.07c-4.06,3.07-9.22.86-9.64-4.19a21.52,21.52,0,0,1,.78-7.53c1.24-4.35,2.91-8.59,4.5-12.83,1-2.68,2.19-5.28,3.79-9.08a33.8,33.8,0,0,0-10.06,11c-5.53,9.18-10.86,18.48-16.18,27.78-.89,1.56-1.3,3.39-2.06,5-3.28,7.07-6.46,14.2-10,21.14-1.93,3.82-5,5-8,3.84s-4.39-3.9-3.8-8.1c1.13-8.05,2.25-16.11,3.48-25-5.47,5.18-10.71,10-15.73,15-.89.89-1,2.65-1.27,4-.74,4.29-1.14,8.65-2.08,12.9-2.19,9.9-7,18.27-15.24,24.44A20.66,20.66,0,0,1,794,596.87c-5.68-.71-7.62-3.26-5.25-8.55,2.2-4.9,4.92-9.94,8.64-13.69,6-6,10.61-12.21,11.12-21,.1-1.74,1.13-3.43,1.77-5.13s1.27-3.31,2.06-5.37c-2.65-.38-4.31.88-5.68,2.09q-7.74,6.87-15.16,14.08a12,12,0,0,0-2.47,4.2c-6,15.39-12,30.77-17.83,46.25-2.79,7.48-5.06,15.16-7.5,22.77a22.45,22.45,0,0,1-7.07,10.78c-1.92,1.59-4,2.54-6.54,1.6a5.87,5.87,0,0,1-4.12-5.85c.08-4.15-.16-8.46.86-12.41,3.23-12.48,7-24.82,10.52-37.21.43-1.51.93-3,1.53-4.94l-6.67,1.13c-5,9.41-9.74,18.41-14.59,27.33A54.79,54.79,0,0,1,721,631.5c-10.72,7.67-20.32,3.91-22.94-9a47.18,47.18,0,0,1-.79-8.65c0-2.88.29-5.76.5-9.52-2.62,1.95-4.72,3.55-6.86,5.09-7.16,5.17-12.76,3.83-16.81-4.11-1.21-2.39-2.11-4.95-3.36-7.91a40.08,40.08,0,0,0-10.13,10c-3.7,5.18-7.23,10.49-11.13,15.5a98,98,0,0,1-9.15,10.07c-4.42,4.27-9.69,6.92-15.85,4.44A15.75,15.75,0,0,1,614.29,623c-.32-6.47-.26-13.2,1.18-19.46,3.42-14.94,11-27.31,25.46-34.13a29.58,29.58,0,0,1,9.34-2.54c4.8-.52,8.39,2,10.81,6s2.13,8-.36,11.85c-6.22,9.56-14.22,17.07-25.38,20.37-3.48,1-5.27,2.76-5.71,6.18-.5,3.95-1.38,7.9-1.43,11.86-.06,4.9,2.41,6.36,6.63,3.72a49.11,49.11,0,0,0,10.46-8.58c4.85-5.39,9-11.38,13.64-17a73.25,73.25,0,0,1,8.42-9.24,8.89,8.89,0,0,0,3.37-8c-1.36-22.36,7.2-41.54,19.45-59.45a72.61,72.61,0,0,1,7.54-8.57,14.86,14.86,0,0,1,3.51-2.56c4.13-2.36,8.48-3.7,12.87-.89,4.65,3,6,7.58,5.14,12.85-1.48,8.84-3.84,17.4-8.7,25.07-6.32,10-12.67,20-20.86,28.58a8.61,8.61,0,0,0-2.62,5.75c-.25,4.53-.76,9-1.07,13.57a23,23,0,0,0,.52,3.9c6.58-3.59,13.16-5.94,16.1-13.31,3.71-9.3,7.82-18.47,15.18-25.6a57.4,57.4,0,0,1,8.14-6.3,5.56,5.56,0,0,1,8.31,6.66,97.79,97.79,0,0,1-4.22,9.42c-6.81,13.87-13.64,27.72-17,43-.56,2.59-.67,5.28-1,8.25a19.25,19.25,0,0,0,11-4.56,34.14,34.14,0,0,0,5.83-5.69c7.07-9.06,12.37-19.14,17-29.31a6.25,6.25,0,0,0-.8-1.36c-7.23-6.1-8.17-11-3.65-18.94,1.55-2.75,3.7-4.52,7-4.17s4.59,2.93,5,5.69c.53,3.73.51,7.55.72,11.33,5,.38,7.5-1,9.4-5.07,2.91-6.25,5.74-12.56,8.89-18.69a27.8,27.8,0,0,1,5.11-7c6.15-6,12.66-4.76,16.67,3.88,2-2.27,3.57-4.56,5.63-6.27a115.65,115.65,0,0,1,12.18-9.12c5.92-3.73,11.23-1.91,14.26,4.45.54,1.13.92,2.34,1.54,4a25.12,25.12,0,0,0,3-2.13c5.39-5.15,10.8-10.28,16-15.57,1.49-1.51,2.45-3.54,3.72-5.28,2.24-3.06,4.26-6.34,6.88-9,2.2-2.25,5.28-3.4,8.51-1.86s4,4.43,3.6,7.79a13.19,13.19,0,0,0,.11,2c2.44-1.33,2.82-3.85,4.14-5.63,4.31-5.82,8.51-11.74,13.07-17.35a23.34,23.34,0,0,1,6.44-4.95c5-2.94,9.23-1.25,11.14,4.23.41,1.17.73,2.37,1.59,5.19,1.25-2,1.84-3.1,2.6-4.1,6.2-8.21,14.37-14.36,22.07-21,2.41-2.08,5-3.95,8.35-2.27,3.49,1.76,4.83,5,4.43,8.67a28.48,28.48,0,0,1-2.19,8.91c-6.37,13.65-13,27.19-19.57,40.76-1.08,2.23-2.34,4.37-3.52,6.55l1,.83c1.54-1.54,3.23-3,4.61-4.62,5.45-6.58,10.88-13.19,16.14-19.92,1-1.33,1.4-3.24,1.94-4.93,2.33-7.25,4.26-14.65,7-21.73,4.41-11.43,12.79-19.74,22.71-26.51a35.11,35.11,0,0,1,9.79-4.66c7.43-2.15,13.22,1.93,13.64,9.64a21.76,21.76,0,0,1-1.61,9,38,38,0,0,1-11.86,16.07c-5.14,4-10.35,8-15.8,11.62a14.17,14.17,0,0,0-6.18,7.91c-1.18,3.77-3.06,7.36-2.78,11.79,2.82.47,4.68-1.17,6.25-2.69,5.86-5.68,11.74-11.38,17.23-17.41a71.38,71.38,0,0,1,15.86-13.21c7.31-4.41,12.67-2.64,16.19,5.2.36.81.74,1.61,1.42,3.09,1.35-2,2.34-3.61,3.46-5.11,3.26-4.36,6.41-8.82,9.92-13a28.87,28.87,0,0,1,13.89-9.24c3.74-1.12,6.27-.23,8.47,3a13.24,13.24,0,0,1,1.67,12,134,134,0,0,1-5.54,14.16c-1.86,4.06-3.73,8.07-5.27,12.23l1,.81a29.48,29.48,0,0,0,4.29-3.61c3.89-4.78,7.7-9.64,11.35-14.62,2.68-3.66,5-7.61,7.57-11.33a31.77,31.77,0,0,0,5.67-14,70.33,70.33,0,0,1,2.41-9.5c.89-3.12,1.91-6.19,3-9.69a12.94,12.94,0,0,0-2.78-.42c-16.59,1.73-33-.37-49.45-2.13-17-1.82-33.88-4.88-50.89-5.56-22.27-.88-44.29,2-65.11,10.8A82,82,0,0,0,881.19,470c-4.77,4.73-9.42,9.6-14.16,14.37-1.2,1.21-2.11,3.15-4.45,2.25-1.46-2,.24-3.42,1.09-4.87,8.35-14.31,20-25.38,34.1-33.81,20.72-12.35,43.35-18.11,67.28-20,20.15-1.59,39.86,1.43,59.65,4.1,17.1,2.31,34.13,5.12,51.43,5.61,3.56.1,5.4-1,7.31-4.07A182.75,182.75,0,0,1,1096.18,416c1.88-2.35,4.59-4.13,7.15-5.81,2.31-1.52,5.05-2.62,7.61-.57s2,4.88,1,7.51c-1.74,4.39-3.62,8.72-5.44,13.08l-2.25,5.4c28.24-2.27,52.62-11.61,70.91-33.78,2.59,1.6,1.9,3.36.81,4.76a147.48,147.48,0,0,1-10.35,12.58c-15.56,15.93-35.25,23.14-56.76,26.49-10.63,1.65-10.85,1.69-14.7,11.87-2.76,7.28-4.95,14.8-7,22.31A21.25,21.25,0,0,0,1087.43,492.88ZM690.7,567.43c5.64-5.49,16.86-20.91,19.54-27.45a87,87,0,0,0,3.86-13c.58-2.48.46-5.13-2.38-6.54C705.3,523.73,691.69,553.89,690.7,567.43Zm-55.86,32.06A37,37,0,0,0,655,583.3c1.1-1.78,1.45-3.75-1.33-5.48A39.47,39.47,0,0,0,634.84,599.49ZM986.79,469.9c-8.14,6.25-14.8,13.69-18.9,23.2C977,487.61,986,482.11,986.79,469.9ZM801.36,579.24c-3.07,2.44-6,4.9-6.19,9.9C799.17,586.38,801.19,583.35,801.36,579.24ZM748.3,567.73c-2.38,2.33-3.23,4.7,0,7.88Z"/><path d="M257.78,298.08a8.16,8.16,0,0,0,1.6-.81c14.2-12.08,30.42-21.15,46-31.12,3.47-2.22,6.46-5.19,9.68-7.8,2.81-2.28,5.52-4.72,8.51-6.73a6.16,6.16,0,0,1,7.64.26c2.64,2.05,3,4.84,2.2,7.88a16.55,16.55,0,0,1-.93,2.55c-8.7,19.14-13.74,39.42-18.55,59.75-4.35,18.38-8.54,36.79-12.79,55.2-.27,1.18-.39,2.41-.68,4.21,1.71-.75,2.86-1.17,3.94-1.73,7.74-4,15.41-8.18,23.24-12a9.65,9.65,0,0,0,5.54-6.76c5.11-18.57,10.61-37,17.95-54.86a260.71,260.71,0,0,1,19.73-39.44,123.1,123.1,0,0,1,20.08-25,79.09,79.09,0,0,1,11.89-9.51c18.6-11.58,39.34-1.54,42.16,20.21a51.38,51.38,0,0,1-2.84,23.6,98.7,98.7,0,0,1-17.92,31c-10.44,12.53-22.8,22.94-36.18,32.13-7.79,5.35-15.86,10.28-23.89,15.26a9.32,9.32,0,0,0-4.31,5.29c-6.77,20.38-12.59,41-14.77,62.44-.93,9.06-1.18,18.16.62,27.16a40.53,40.53,0,0,0,2.31,7.81c3.18,7.56,7.6,9.92,15.59,8.17a25.77,25.77,0,0,0,8.05-3.19c12.06-7.56,23.49-15.9,31.6-28,.2-.3.33-.77.61-.89.9-.4,1.85-.68,2.78-1,.32.95,1.14,2.1.85,2.82a35.85,35.85,0,0,1-4.06,8.26,74.35,74.35,0,0,1-9.73,11q-10.37,9.26-21.43,17.69a36.76,36.76,0,0,1-10.56,5.49c-9.55,3.16-17.92.86-24.74-6.61-5-5.51-7.85-12.18-9.8-19.25a120.45,120.45,0,0,1-2.7-50.26c1.19-8.08,3-16.07,4.45-24.1.19-1,.17-2.08.3-3.77l-15.53,7.79c-3.89,2-7.73,4.07-11.72,5.8a8.69,8.69,0,0,0-5.23,6.36,311.26,311.26,0,0,1-18.62,51.72c-13.28,28.11-30,54-51.2,76.81a128.5,128.5,0,0,1-22.64,19.58c-7.93,5.3-16.38,9.38-26,10.74-12,1.7-21.54-3.91-25.76-15.33-3.31-9-3.21-18.32-1.67-27.48a148.09,148.09,0,0,1,25.2-61.53,64.73,64.73,0,0,1,19.54-18.75,35.22,35.22,0,0,1,14.78-5.2,21.32,21.32,0,0,1,15,4.13,15.93,15.93,0,0,0,1.94-1c11.44-7.73,22.78-15.61,34.35-23.13a11.52,11.52,0,0,0,5.43-7.59Q273,371.15,279.11,346c5.93-24.56,12.64-48.87,24.72-72.38a25.23,25.23,0,0,0-3.32,1.29,306,306,0,0,0-38.46,26.74c-2.49,2-3.3,4.22-3.5,7.38-1.33,21.05-11,37.3-28.87,48.55-3.34,2.1-7,3.83-10.58.9s-3-7-1.63-10.61a75.38,75.38,0,0,1,6.62-13.08c6.47-10.2,15-18.67,23.65-27,2.13-2,5.22-3.61,4.09-7.56-1.26-4.41-3.22-8.38-8-9.53a28.81,28.81,0,0,0-9.63-.48,31.89,31.89,0,0,0-8.33,2.48c-24.1,9.69-44.79,24-60.33,45.13-6.4,8.7-13.59,17.1-14.61,30-1.44-1.85-2.62-2.67-2.63-3.5a25.06,25.06,0,0,1,.77-7.5,44,44,0,0,1,4-8.94c17.12-29.57,42.59-49.14,74.08-61.33a34.77,34.77,0,0,1,11.16-2.16c8.16-.29,14.38,3.21,18,10.79C256.74,296.15,257.27,297.09,257.78,298.08ZM222.07,431.33c-6-3.78-11.22-3.06-16.51-1.11-7.5,2.78-13.68,7.62-19,13.39-18.39,20-29.49,43.42-31.3,70.8a42.05,42.05,0,0,0,3.05,19.75c3.08,7.05,8.07,10,15.65,8.8a44.07,44.07,0,0,0,10.37-3.11c7.78-3.32,14.23-8.66,20.27-14.5,11-10.69,19.78-23.17,27.62-36.31,13.5-22.64,22.46-47.13,29.49-72.4.76-2.76,1.49-5.52,2.56-9.49-13.25,7.56-25,15-35.79,24.08,4.52,9.54,3.49,18.63.63,27.65-3.24,10.23-8.51,19.25-16.87,26.19-2.56,2.12-5.57,3.72-9,2.2-3.63-1.6-3.75-5-3.83-8.34,0-.91,0-1.82.07-2.73a57.74,57.74,0,0,1,17.26-39.46C218.34,435.09,220,433.45,222.07,431.33Zm143-84.92a4.27,4.27,0,0,0,1.47-.25c19.12-11.7,37.28-24.62,52.06-41.72a84.63,84.63,0,0,0,16-27,45.21,45.21,0,0,0,2.83-20.31c-.53-4.86-2.3-9.14-6.06-12.41-4.39-3.84-9.25-4.32-13.91-.82a37,37,0,0,0-7.67,7.63c-4.6,6.29-9,12.73-13.05,19.41-14,23.34-23.06,48.83-31.89,74.4C364.8,345.59,365,346,365.09,346.41ZM225.93,435.3c-1.35,0-1.59-.07-1.69,0-11.39,9.43-19.38,20.94-21.37,35.91a26.78,26.78,0,0,0,.38,8.61c.54,2.81,2.4,3.6,4.84,2.1a29.73,29.73,0,0,0,6.7-5.42,47.42,47.42,0,0,0,12.4-32.19C227.19,441.34,226.38,438.34,225.93,435.3Zm-3.74-80.85c13.18-3.1,29.47-24,29.45-43.88-3.87,3.66-7.31,6.77-10.58,10a82.58,82.58,0,0,0-17.89,25.74C222.13,348.77,220.82,351.27,222.19,354.45Z"/><path d="M725.28,325.9c3.63-3.23,7.41-6.3,10.85-9.72,4.11-4.11,7.93-8.51,11.88-12.78,6.32-6.83,11.73-14,15.08-23,2.55-6.86,7-13.15,11.25-19.18a26.12,26.12,0,0,1,17.49-11.13,15.78,15.78,0,0,1,6.39.56c3.43.92,6.75,2.27,10,3.39,2.42-2.31,4.4-4.44,6.64-6.26a22.49,22.49,0,0,1,5.56-3.35,6.3,6.3,0,0,1,8.34,8.06,41.2,41.2,0,0,1-1.78,4c-4.54,10.31-9.1,20.6-13.6,30.93-.76,1.76-1.24,3.65-2.25,6.67,5.2-4.13,8-8.54,11.11-12.7,6.62-8.89,13.14-17.85,19.91-26.62a81.14,81.14,0,0,1,18.16-17.17c5.18-3.58,10-2.1,11.72,4,.87,3.07.72,6.43,1.12,10.53,1.53-1.7,2.84-3.05,4-4.49a95.23,95.23,0,0,1,22.21-19.15c5.73-3.66,11.28-1.24,12.45,5.5.4,2.29.06,4.7.06,7.28,2.58.18,3.78-1.6,5.14-2.8a73.88,73.88,0,0,1,17.81-11.48c8-3.71,14.32.32,14.34,9.1a22.32,22.32,0,0,1-3.76,11.8c-4.56,7.43-9.35,14.72-14,22.07a140.84,140.84,0,0,0-10.06,17.64l3.35-2.94c7.65-6.68,15.35-13.32,22.92-20.1a12.07,12.07,0,0,0,3.31-4.73,80.22,80.22,0,0,1,15.82-26.54c7.41-8.48,16.07-15.36,27.33-18a29.34,29.34,0,0,1,10.23-.51c6.18.83,9.74,5.25,9.15,11.46a19.09,19.09,0,0,1-3.06,9.09,51.37,51.37,0,0,1-9.74,10.13c-8.48,6.72-18.3,11.14-28.41,14.79a11.1,11.1,0,0,0-7,6.25c-1.87,4.34-3.83,8.64-5.67,13-1.09,2.56-2.09,5.47.09,7.69s5.19,1.68,7.7.42c9.23-4.65,18.37-9.47,27.53-14.26,1.5-.78,2.9-3.15,4.63-1.29,1.91,2-.28,3.78-1.62,5a48.89,48.89,0,0,1-8.15,6.3q-10.62,6.12-21.58,11.66c-8.38,4.25-17.37.42-19.86-8.65-1.18-4.3-1.23-8.92-1.83-13.77a12.59,12.59,0,0,0-2.93,1.52c-3,2.66-5.94,5.36-8.69,8.24-3.38,3.56-6.3,7.57-9.88,10.9a29.89,29.89,0,0,1-8.59,5.49c-4,1.7-7.91,0-9.27-4A21.78,21.78,0,0,1,906,285.1a85.18,85.18,0,0,1,10.9-31.18c2.46-4.24,5.15-8.34,8.31-13.42-1.73.84-2.86,1.11-3.61,1.79-6.8,6.24-13.64,12.25-18.56,20.44-4.64,7.71-11,14.36-16.68,21.45a12.54,12.54,0,0,1-2,1.89c-1.84,1.46-3.87,2.07-6.06.85a4.89,4.89,0,0,1-2.43-6.07,107.31,107.31,0,0,1,4.74-13.9c3.61-7.94,7.7-15.65,11.57-23.46.53-1.06,1-2.15,1.48-3.23l-1-.78c-3.59,3.47-7.58,6.62-10.66,10.5-7,8.8-13.9,17.63-19.33,27.62-4.31,7.93-10,15.11-15.22,22.54a18.61,18.61,0,0,1-3.89,3.78c-1.76,1.38-3.72,2.3-6,1.21-2.48-1.16-3.26-3.3-3.32-5.79a42,42,0,0,1,3.24-16.47q4.2-10.64,8.42-21.28c.44-1.12.89-2.23,1.34-3.35l-1.09-.84c-.8,1.13-1.62,2.25-2.42,3.39q-5.46,7.8-10.92,15.62c-6,8.64-12,17.32-18.1,25.92a27.87,27.87,0,0,1-4.41,4.8c-4.31,3.73-8.57,3.45-12.47-.64-.61-.64-1.14-1.37-2.06-2.47-1.33,1.79-2.5,3.33-3.63,4.89a56.39,56.39,0,0,1-15.12,14.78c-8.61,5.51-17.37,1.88-19.45-8.15a60,60,0,0,1-.69-9.22c-.09-1.93,0-3.87,0-5.8l-1.36-1a20.88,20.88,0,0,1-1.81,3.16q-11.67,14.4-23.47,28.7a35.32,35.32,0,0,1-5.78,5.75c-5.43,4.1-11.63,2.56-14.39-3.68a27.1,27.1,0,0,1-2-8.41c-.69-7.52.63-14.82,2.73-22C717.77,279.21,729,257.56,743,237.2c4.83-7,9.17-14.41,13.39-21.83,2.11-3.69,4.39-7.56,3.47-13a46.38,46.38,0,0,0-5.14,1.36c-9.53,3.79-17.25,10.13-23.76,17.84a403.4,403.4,0,0,0-42.59,60.58c-3.75,6.57-6.07,14-8.91,21-7.2,17.87-14.5,35.68-23.7,52.65a32.35,32.35,0,0,1-8.49,10.52c-2.16,1.66-4.43,2.58-7.07,1.4a6.3,6.3,0,0,1-4-6.57c.39-3.94.85-8,2.29-11.66,9.15-22.95,18.64-45.76,27.88-68.67,4.75-11.79,9.41-23.62,13.7-35.58,2.6-7.24,3.66-14.8,1.67-22.51-1.68-6.55-5.26-9.93-12-10.74-7.68-.93-14.87,1.26-21.57,4.61-14.81,7.41-26.77,18-34.62,32.85-.9,1.71-1.92,3.37-2.89,5.07-2.73-1.17-1.78-2.87-1.29-4.3a49.47,49.47,0,0,1,9-16.69,98.37,98.37,0,0,1,32.72-24.92,40.83,40.83,0,0,1,21.19-4c9.21.8,16,5.14,20.45,13.39,5.68,10.63,6.61,21.75,3.94,33.32a33.27,33.27,0,0,0-1.21,9.27c.87-1.27,1.83-2.48,2.6-3.8,8.3-14.41,18.8-27.21,29.59-39.74,7.45-8.65,17-14.78,27.25-19.64a20.18,20.18,0,0,1,5.73-1.6c4.67-.65,8.14,1.35,10.4,5.4a18.65,18.65,0,0,1,2.38,11c-.67,7.27-1.82,14.45-4.89,21.14C765.81,239.32,763,245.23,760,251c-8.37,15.92-17,31.74-25.27,47.68-2.44,4.65-4.41,9.56-6.38,14.44-1.55,3.84-2.75,7.82-4.11,11.73C724.56,325.22,724.92,325.56,725.28,325.9ZM803,256.46c-3.92,5.27-7.94,10.57-11.85,16A141.47,141.47,0,0,0,771,312.66a48.83,48.83,0,0,0-1.09,5.76,12.35,12.35,0,0,0,2.32,0,15.89,15.89,0,0,0,2.56-.9c8.73-3.94,14-11.34,18.68-19.18a6.07,6.07,0,0,0,.52-3.14c-.24-9.68,2.52-18.63,6.49-27.29,1.21-2.63,2.58-5.2,3.91-7.78C805.19,258.59,805.17,257.35,803,256.46Zm174.4-6.06c7.82-3.54,15.4-7.27,21.61-13.23,2.33-2.24,4.24-4.7,4.18-8.34C996.49,230.18,982.79,241.49,977.38,250.4Z"/><path d="M360.6,546.89c-1.64,2.61-3,4.35-3.9,6.28-6.65,13.52-13.34,27-19.75,40.67-4.18,8.87-7.84,18-11.87,26.93a49.34,49.34,0,0,1-4.78,8.55c-3.74,5.2-9.25,6-14.14,1.77-2.39-2.06-4.05-5-5.81-7.73-.86-1.32-1.19-3-2-5.15-1.1,2.14-1.93,3.69-2.71,5.28-6.28,12.71-12.52,25.43-18.82,38.13-6,12.14-14.1,22.87-23,33-.48.55-1,1.08-1.49,1.6-13,13.26-32.13,10.42-40.85-6.15-3.62-6.87-5.08-14.35-5.47-22-.58-11.35,1.07-22.48,3.31-33.55a237.45,237.45,0,0,1,16.26-50.74c8.26-18.33,19.94-34.17,33.73-48.57a86.14,86.14,0,0,1,22-16.79c5.21-2.75,10.74-4.63,16.75-3.63a23.11,23.11,0,0,1,17,11.55c1.53,2.67,2.74,5.51,4.39,8.86a40.56,40.56,0,0,0,2.35-3.39c3.76-6.93,8.3-13.26,14.46-18.27a21,21,0,0,1,6-3.63c4.24-1.52,7.41,1.19,6.54,5.57a38.4,38.4,0,0,1-2.67,7.7c-11.48,26.39-19.43,54-27.58,81.48a89.48,89.48,0,0,0-2,9c-.34,1.85-.37,3.75-.54,5.63l1.15.44c1.61-2.09,3.51-4,4.77-6.3,4.39-8,8.77-15.91,12.76-24.06,6.46-13.23,12.44-26.69,19-39.87,2.4-4.84,5.79-9.2,8.81-13.72a13.18,13.18,0,0,1,2.65-2.73c6.06-5,11.84-3.53,14.35,3.95,1.06,3.17.94,6.74,1.45,10.86,1.3-1.81,2.44-3.29,3.46-4.84,5.12-7.76,10.55-15.26,17.68-21.35a37.71,37.71,0,0,1,4.76-3.61c4.43-2.7,8-1.49,10,3.4,1.9,4.63,1.39,9.39-.26,13.87-3.64,9.88-7.58,19.65-11.47,29.44-2,5.06-4.19,10.05-6.24,15.09a4.91,4.91,0,0,0,0,3.59,68,68,0,0,0,6.25-4.75c9.92-9.44,18.25-20.23,26.37-31.2,1-1.41,1.43-3.3,2.18-4.95,3.07-6.77,5.84-13.7,9.35-20.24a48.57,48.57,0,0,1,16.68-17.68c8.8-5.74,17.78-8.61,27.38-.71.68-1.87,1.27-3.33,1.76-4.82,4.48-13.72,10.34-26.77,19-38.45a59.47,59.47,0,0,1,14.32-14.08,28.5,28.5,0,0,1,5.74-3.06c2.11-.82,4.38-.87,6,1.17s.57,3.76-.46,5.56c-3.87,6.79-7.66,13.62-11.58,20.38a216.26,216.26,0,0,0-23.64,57.8c-2.15,8.94-3,17.94.49,26.81,2.37,6,4.57,6.89,10.44,4.2,1.32-.6,2.57-1.35,3.87-2,1.07-.54,2.16-1,3.18-1.5,1.87,2.31.5,3.73-.76,5-9.23,9.43-20.39,5.64-25-2.2a52.08,52.08,0,0,1-7.09-18.62c-1.44,2.27-2.27,3.55-3.07,4.85-4.31,6.94-8.46,14-13,20.81-3.45,5.23-7.74,9.52-14.13,11.36-8.92,2.58-16.55-.79-19.84-9.44-1.21-3.19-1.7-6.64-2.66-10.55-1.16,1.26-2.13,2.18-2.94,3.23-5.8,7.47-11.47,15-17.38,22.41a70,70,0,0,1-8.91,9.53c-6.2,5.32-13.06,4-16.59-3.36a31.67,31.67,0,0,1-3-12c-.37-8.27,1.67-16.24,4.87-23.85,2-4.84,4.33-9.57,6.19-14.73a33.79,33.79,0,0,0-2.49,2.88c-6.92,10-13.32,20.22-16.94,32.14-2.88,9.51-7.2,18.62-11.22,27.76a35.62,35.62,0,0,1-5.71,8.54c-1.79,2.1-4.29,3.39-7.32,2.19a6.92,6.92,0,0,1-4.47-6.31,37,37,0,0,1,.21-8.15A134.77,134.77,0,0,1,358.13,555c1-1.93,1.85-3.94,2.71-5.94C361,548.78,360.78,548.37,360.6,546.89ZM229.67,672.05c.24,3.51.45,7.32.79,11.12a18.33,18.33,0,0,0,.82,3.72c1.95,6.34,6.18,8.46,12.11,5.44a36.06,36.06,0,0,0,9.07-6.82,135.72,135.72,0,0,0,24-32.24c3.8-7.24,7.84-14.35,11.47-21.67,5.32-10.73,11.06-21.33,11.32-33.8a42.49,42.49,0,0,1,1.3-7.51c2.83-13.94,7.56-27.28,12.94-40.41.74-1.82,1.81-3.87,1.57-5.66-.94-6.83-3.44-13-9.42-17.14-4-2.76-8.47-3.36-12.92-1.2a23.62,23.62,0,0,0-6.74,4.53c-4.89,5.1-10,10.11-14,15.88-18,26-29.89,54.77-36.83,85.56A208.34,208.34,0,0,0,229.67,672.05ZM449.91,566c4.11.89,6.49-1.34,8.86-3.6,12.71-12.09,20.53-27,25.09-43.76.46-1.71,1.2-3.59-.66-5a5.31,5.31,0,0,0-6.13-.52,22.83,22.83,0,0,0-5.51,4.33A95.32,95.32,0,0,0,450,560.72C449.59,562.37,449.91,564.17,449.91,566Z"/><path d="M597.33,305.31a19.49,19.49,0,0,0-2.07-1c-5.4-1.55-7.22-3.23-7.25-6.74,0-5.1,3.8-10.94,7.9-12,3.48-.91,6.57.88,8,4.83a52.69,52.69,0,0,1,1.33,5.86c2.28-1.46,4.33-2.54,6.11-3.94a40.78,40.78,0,0,0,11.5-15c4-8.53,8-17.13,11.95-25.7.79-1.7,1.05-3.88,4.16-4.65,0,1.68.38,3.12-.06,4.22-4.35,10.77-8.36,21.71-13.44,32.14-4.2,8.63-10.82,15.51-20,19.28-2.2.91-2.88,2.51-3.49,4.46a81.86,81.86,0,0,1-12.29,23.58,50.05,50.05,0,0,1-14.15,13.44c-9.36,5.81-17.66,4-24.11-5-.4-.56-.83-1.11-1.46-1.95-3.69,3.48-7.2,6.83-10.76,10.13a53.74,53.74,0,0,1-4.17,3.51c-8.89,6.65-19.42,3.62-23.29-6.88-1.17-3.19-1.53-6.67-2.33-10.34-2.23.63-3,2.55-4,4.06-4.91,7.42-9.53,15-14.61,22.35a94.9,94.9,0,0,1-10.36,12.61c-8,8.13-19.68,5.79-24.26-4.82-1.63-3.8-2.34-8-3.47-12-.28-1-.53-2-1-3.87-1.26,1.67-2.08,2.7-2.85,3.78-9.48,13.31-18.77,26.76-28.5,39.89a64.79,64.79,0,0,1-17.6,16.16c-12,7.51-25.57,1.78-28.72-12a39.3,39.3,0,0,1-.87-5.92c-1.38-19.87,7-35.58,21.15-48.67a54.76,54.76,0,0,1,9.29-6.66A32,32,0,0,1,412,334.8c7.59-1.86,13.29,2.15,14.64,9.84a22.8,22.8,0,0,1-3.7,17.63A78.29,78.29,0,0,1,398.24,385c-6.14,3.66-6.95,8.75-6.79,14.69.11,3.81,2.18,5.16,5.87,3.91a21.75,21.75,0,0,0,6.31-3.12c5-3.87,10.45-7.46,14.57-12.17,11.7-13.41,22.93-27.26,32.09-42.61a15.69,15.69,0,0,0,1.66-5.06c2.21-11.6,3.59-23.4,6.62-34.78,8.11-30.53,23-57.17,47.34-78,4.45-3.81,9.31-7,15.08-8.49,8.09-2.11,12.9,1.61,12.43,10-.45,8.24-2.91,16-6.16,23.61-9.59,22.34-23.41,41.78-40.29,59.14-2.41,2.48-4.62,5.18-7.25,7.4-4.41,3.75-6.38,8.58-7.56,14.06-2,9.08-4,18.11-3,27.5a23.23,23.23,0,0,0,.3,3.25c.9,3.44,3.16,4.58,6,2.5a39.64,39.64,0,0,0,8.25-7.79c4.83-6.36,9.06-13.17,13.77-19.63,3.41-4.69,7.27-9,10.74-13.69a11.17,11.17,0,0,0,2.34-5.21,101.46,101.46,0,0,1,8.38-32c3.07-7,5.86-14.09,8.91-21.08a150.71,150.71,0,0,1,29.3-43.72,129.55,129.55,0,0,1,17.76-15.2,30,30,0,0,1,11.89-4.93c7.54-1.38,11.7,2.54,10.92,10.11-1.11,10.87-3.26,21.54-8.58,31.33-8.56,15.77-19,30.13-32,42.49-7,6.63-14,13.25-21.12,19.73a14.17,14.17,0,0,0-4.62,7.17c-1.8,7.22-3.79,14.4-5.36,21.67-.58,2.7-1.62,6.23,1.45,8,2.9,1.69,5.53-.64,7.88-2.26s4.31-3.33,6.4-5.07c4.47-3.72,6.78-7.89,7.23-14.28,1-15,7-28.12,19.45-37.49,3.09-2.32,6.43-4.13,10.43-4.27,2.67-.09,5.16.43,6.63,2.9,1.37,2.3.69,4.55-.64,6.67-2.82,4.45-5.66,8.89-8.46,13.36a76.43,76.43,0,0,0-9.63,23,25.24,25.24,0,0,0-.69,3.75c-.46,5.39,1.23,6.58,6.38,4.46a18.79,18.79,0,0,0,3.84-2A59.29,59.29,0,0,0,597.33,305.31Zm-57.21-12.43.94.87a17.8,17.8,0,0,0,1.73-1.21c16.46-14.74,31.24-30.81,42-50.38a77.59,77.59,0,0,0,8.65-27.3c.25-1.78-.29-3.66-.59-6.79-2.58,1.92-4.34,2.82-5.54,4.21a72.11,72.11,0,0,0-7,9.06c-8.2,13.28-16.53,26.51-24.23,40.08C550.34,271.65,545.43,282.38,540.12,292.88Zm-60.9,17.56c.33-.11.76-.13,1-.36C498,291.49,514,271.63,523.75,247.44a120.53,120.53,0,0,0,4.54-15.07c.44-1.72-.09-3.68-.2-5.89C514.86,234.24,480.14,294.47,479.22,310.44ZM418.73,349c-8.9,6.68-20.14,22.41-20.87,29.82,5.94-5.5,11.48-10.4,16.72-15.6a28.58,28.58,0,0,0,4.5-6.73A6.56,6.56,0,0,0,418.73,349Zm181.18-55.53c-.37-.5-1.07-2.25-2.33-2.92s-3.11,2.27-3.37,4.77c-.23,2.21,1.06,2.9,2.86,3C599.68,298.41,599.82,296.53,599.91,293.42Z"/><path d="M575.54,900.57c-2.07,1.13-3.8,2.07-5.51,3-19,10.71-39,18.56-60.76,21.55-13.48,1.86-26.84,1.43-39.78-3.4-28.33-10.6-37.44-36.43-34.72-58.38,1.92-15.51,8-29.38,16.21-42.39a169.38,169.38,0,0,1,42.58-45.56C501,769.87,509,765.22,518.21,763c1.57-.39,3.35-1,4.78-.56a7,7,0,0,1,4,3.06c1,1.91-.62,3.21-2.37,4.2-24.07,13.66-42.81,32.88-57.9,55.85a111.55,111.55,0,0,0-13.43,27.91c-2.56,8.18-4,16.48-3.08,25.2,1.69,16.16,10.17,27.27,24.57,34.06,10.81,5.11,22.37,6.17,34.11,5,22.42-2.2,43.16-9.55,62.63-20.77,2.94-1.7,3.69-3.67,3.66-7-.34-36.28,7.85-70.25,28.12-100.79a103.34,103.34,0,0,1,26.21-27.47c6.12-4.34,12.65-7.87,20-9.66a30.6,30.6,0,0,1,5.36-.89c11.3-.68,18.51,5.63,18.86,16.94a37.18,37.18,0,0,1-1.56,11.26,79.55,79.55,0,0,1-5.45,14.21c-17.64,34.48-40.3,65.15-69.46,90.83a82.46,82.46,0,0,1-9,7.11c-2.87,1.89-3.39,4.07-3,7.34,6,48,37.78,84.38,84.66,96.66,24.46,6.4,49,5.71,73.42.12,37-8.44,69.55-25.16,96.59-52.05a123.68,123.68,0,0,0,22.25-30.16c.68-1.28,1.29-2.6,1.89-3.92a6.51,6.51,0,0,0,.08-1.59l-5.33-1.8c-12.35-4.1-23-10.8-31.42-20.78-3.91-4.62-7.16-9.62-8.48-15.67-1.69-7.74,1-13.91,7.83-18.07,15-9.09,35.72-3.87,44.87,11.37,5.3,8.83,6.31,18.45,4.81,28.43-.51,3.37-1.28,6.69-2,10.33a47.62,47.62,0,0,0,15.39-.9,82.6,82.6,0,0,0,30.6-12.4c17.26-11.48,25.38-27.94,26-48.35.44-14.2-2.56-27.86-7.5-41a265.28,265.28,0,0,0-11.21-24.81c-1.65-3.34-4.5-6.06-6.6-9.2-.71-1-1.44-2.89-1-3.7s2.44-1.58,3.62-1.41a10.79,10.79,0,0,1,4.87,2.14,18.93,18.93,0,0,1,4.4,4.79c10.14,16.24,19.07,33.09,23,52A77.71,77.71,0,0,1,954,859.76c-8.28,25.08-26.29,39.83-51,47.24a70.63,70.63,0,0,1-27,2.62c-1.43-.13-2.88-.15-4.29-.22a6.51,6.51,0,0,0-1.15,1.29c-11.43,24.36-29.23,43.25-51,58.52-30.66,21.5-64.64,34.59-102,38-29.84,2.74-58.45-1.71-84.42-17.67-31.33-19.25-50.48-46.91-56.45-83.41C576.44,904.43,576,902.72,575.54,900.57Zm9.28-12.78c2.49-2,4.13-3.1,5.55-4.46,6.3-6,12.9-11.79,18.73-18.25a520.55,520.55,0,0,0,46.35-59.88,120.5,120.5,0,0,0,9.41-16.57,54.07,54.07,0,0,0,4.6-15c1.83-13.77-7.11-20.66-20.22-16-7,2.46-12.91,6.64-18.43,11.43a117.05,117.05,0,0,0-22.55,27.18c-12.56,20.28-19.41,42.53-22.52,66A126,126,0,0,0,584.82,887.79Zm282.3,13.37c5.62-10.49,5.86-25,.74-34.83-6-11.64-18.4-17.56-31-14.82-13.11,2.85-17.13,11.9-10.33,23.5A52,52,0,0,0,846.4,894,54.66,54.66,0,0,0,867.12,901.16Z"/><path d="M433.25,799.46c-2.31,5.39-4.69,10.76-8.32,15.49a45,45,0,0,1-5.12,5.65c-24.66,22.8-52.58,40-85.17,48.95-14.42,3.94-29.12,6.38-44.19,5-13.54-1.25-25.29-6.41-34.81-16.21-12.71-13.1-20.41-28.64-21.82-47A47.38,47.38,0,0,1,238.24,788c8.73-19.25,23.15-32.72,42.33-41.27,1.48-.66,3-1.25,4.88-2a11.61,11.61,0,0,0-.91-2c-7.33-9.85-8.19-21.07-7-32.75,2.84-28.25,30-62.86,69.66-62.32,1.07,0,2.14-.14,3.54-.24l.77-3.67a42.54,42.54,0,0,1,18-27c13.6-9.43,28.88-12.45,45.07-11.47,3.35.2,6.62,1.65,10.22,2.61,9.55-13.69,23.63-21.49,38.88-27.37A68.69,68.69,0,0,1,480.09,577a19,19,0,0,1,17.17,6.46c8.68,9.7,13.05,21.16,14.36,34a98.94,98.94,0,0,1-1.85,33.28c1.78-.93,2.84-1.38,3.78-2,3.48-2.3,6.89-4.74,10.41-7a5.58,5.58,0,0,0,2.91-4.75c.91-11,5.75-20.15,13.78-27.6,3.39-3.15,7.27-5.39,12.08-5.71,5.13-.33,8.89,1.77,11.06,6.32,3,6.25,2.77,12.43-1.08,19.21-4.15-4.51-1.21-11.25-6.32-14.55-2.79.52-4.4,2.67-5.45,4.86a113.54,113.54,0,0,0-6.15,15.06c-.62,2,.3,4.59.9,6.81.42,1.53,1.6,2.84,2.26,4.33,2.53,5.69.26,10.46-6,11.16-5.26.59-8,3.57-10.33,7.73-3.32,5.93-4.1,12.38-4.06,19,0,9,7.84,13.25,15.49,8.38a21.33,21.33,0,0,0,6.67-7c2.09-3.54,3.26-7.62,4.84-11.46.39-.94.85-1.85,1.68-3.63.66,1.73,1.28,2.62,1.3,3.52a29.7,29.7,0,0,1-19.17,28.91c-11.63,4.64-24.34-1.44-26.69-13.71-2.91-15.23.28-28.93,13.28-39a19.32,19.32,0,0,0,3-2.34c.38-.45.07-1.5.07-3.42-4.15,3.1-7.44,5.85-11,8.16-6.62,4.27-10.81,9.79-13.57,17.49A182.41,182.41,0,0,1,483.43,710c-6.46,9.61-14.05,18-23.91,24.3a29.43,29.43,0,0,1-14.27,4.86c-8.78.48-13.88-6.73-10.46-14.9a36.31,36.31,0,0,1,4.64-8,246.59,246.59,0,0,1,35-36.54,16.82,16.82,0,0,0,4.91-7c7.45-19.41,11.48-39.44,10.19-60.26-.42-6.63-2.21-13.2-3.65-19.74-1-4.42-4.3-6.54-8.58-7.29a28.07,28.07,0,0,0-15,1.74c-12.05,4.53-23.27,10.44-31.74,20.43-3,3.53-6.46,4.09-10.64,3.76-17-1.33-32.9,2-46.79,12.45A33.43,33.43,0,0,0,359.56,646a17.48,17.48,0,0,0,0,2.31c1.56.37,2.93.79,4.33,1,12.28,1.84,20.48,9.54,27.45,19a14.19,14.19,0,0,1,1.73,3.38c3.25,8.48-1.64,16.4-10.7,16.4-7.77,0-15.17-2.28-20.95-7.82-6.1-5.85-9.81-13-10.25-21.63-.1-2.14-.37-4.28-.58-6.54a47,47,0,0,0-16.05.73c-13.06,2.54-24.44,8.29-33.34,18.27a115.27,115.27,0,0,0-11.53,15.15c-7.93,12.6-9.84,26.47-6.78,40.89.84,4,3.09,7.7,5.16,11.27a9.2,9.2,0,0,0,7.94,5c2.38.06,4.3,1.28,4.65,3.8.4,2.85-1.53,4.25-3.9,5.16-.85.32-1.69.68-2.57.92-12.71,3.41-23,10.82-31.83,20.18-18,19-21.28,38.65-8.65,62.92,11.25,21.6,29.78,31.1,54,29.11,27.63-2.26,53.52-10.22,76.91-25.26,10.52-6.76,20.43-14.5,30.53-21.92a44.21,44.21,0,0,0,12.18-13.8,60.07,60.07,0,0,1,4.4-6ZM358.9,653c.46,3.79.47,7.1,1.32,10.18,2.9,10.56,10.13,16.9,20.49,19.8a7.48,7.48,0,0,0,7.94-2.29c2.09-2.36,1.51-5.07.59-7.72a8.38,8.38,0,0,0-.92-2c-4.07-5.87-8.76-11.17-15-14.7A26.16,26.16,0,0,0,358.9,653Zm80.51,77.44c11.89-3.39,31.76-29.84,33.23-43.3-11.06,9.58-21.52,19.36-30.05,31a23.19,23.19,0,0,0-3.26,6.82C438.86,726.48,439.34,728.28,439.41,730.46Z"/><path d="M837.9,376.6c.47,4.51.94,9.17,1.46,13.83,1.69,15.17,3.37,30.38,2.54,45.65a196.48,196.48,0,0,1-5.16,37.18A92.15,92.15,0,0,1,820,508.43c-11.3,14.38-25.65,24.44-43.9,28.39-14.76,3.2-26-3-35.31-13.37-5-5.57-6.15-13.05-6.74-20.37-1.37-17,4.4-31,17.91-41.63,5.86-4.6,11.69-9.29,18.82-11.83,4.07-1.46,8.26-2.37,12.71-1.15.27,3.08-2,3.37-3.73,4a53.76,53.76,0,0,0-20.6,13.89c-6.82,7.45-11.23,15.89-11.63,26.3-.4,10.65,4.19,18.72,13.75,23.22a10.73,10.73,0,0,0,8.48.08c10.69-3.78,19.81-9.76,26.35-19.27,10.12-14.72,15.25-31.16,17.5-48.74,2.47-19.31,0-38.45-1.41-57.63,0-.32-.32-.62-.75-1.4-1.36.48-2.83.93-4.24,1.52-21.12,8.7-38.52,22.53-53.32,39.64-11.25,13-24.7,22.9-39.77,30.93-11,5.86-22.79,8.28-35.07,8.95-4.49.25-8.72-.62-12.15-3.78-1.73-1.59-3.43-3.34-1.85-6.29.73.17,1.58.12,2,.52,4,3.69,8.76,3.7,13.8,3.45,21.72-1.1,38.95-12,54.86-25.39A321,321,0,0,0,759.43,416c13-13.43,28.31-23.21,45.44-30.39,2.16-.9,4.25-2,6.62-3.11.38-5.3.7-10.51,1.13-15.72a81.07,81.07,0,0,1,5.65-24.32c9.09-22,33.89-37.77,56.21-35.53a30.8,30.8,0,0,1,8.9,2.29c8.56,3.68,11.66,11.16,7.88,19.65a69.77,69.77,0,0,1-7.52,12.58A93.26,93.26,0,0,1,855,367C849.53,370.22,843.94,373.22,837.9,376.6Zm.52-7.09c14.57-7.55,28.12-15.29,38.15-27.65,3.47-4.28,5.84-9.61,7.95-14.77,2-4.91,0-7.53-5.43-8a27,27,0,0,0-15.79,3.05C845.78,331.72,837.63,345.41,838.42,369.51Z"/><path d="M594.3,403.52c-2.48,2.63-4.82,5.41-7.49,7.84a31.52,31.52,0,0,1-7,5.08c-6.39,3.18-12.2.59-13.87-6.37a32.71,32.71,0,0,1-.34-10.23c.61-6.95,3-13.44,6.09-19.66a10.85,10.85,0,0,0,1.41-5.5c-1.69,1.16-3.48,2.2-5.06,3.49a62.47,62.47,0,0,0-13.62,16.19Q547.16,406.23,540,418.1a33.89,33.89,0,0,1-9.8,10.83c-5.63,3.83-11.36,1.76-13-4.88a24.82,24.82,0,0,1-.53-7.55,65.2,65.2,0,0,1,9.32-29.13,35.54,35.54,0,0,0-4.21,3.48c-4.35,4.88-8.69,9.78-12.76,14.89-1.42,1.78-2.06,4.18-3.05,6.3-2.74,5.91-5.4,11.86-8.26,17.71a11.29,11.29,0,0,1-3.15,3.7c-3,2.39-6.8,1.5-7.92-2.13a17.46,17.46,0,0,1-.55-8c1-5.52,2.65-10.93,4-16.38a5.47,5.47,0,0,0,0-3.61c-1.24,1.36-2.56,2.66-3.71,4.09A141.77,141.77,0,0,0,463.31,448c-1.11,3.07-2.25,6.15-3.64,9.1-1.61,3.43-3.92,4.71-6.82,4.24s-5-2.49-5.05-6.21A57.46,57.46,0,0,1,449,441.62c1.69-7.61,4-15.07,6.07-22.6.65-2.4,1.2-4.83,2-8.09-6.42.92-10.59,4.22-13.81,8.13s-5.32,8.78-8.58,14.38c-.72-2.25-1.55-3.44-1.28-4.29,1-3.1,1.76-6.45,3.58-9,4.07-5.82,9-11,15.33-14.46,7.9-4.31,15.15-.89,16.59,8a94.31,94.31,0,0,1,.5,9.47c1.08-1.47,1.8-2.38,2.44-3.35,6.64-10,13.88-19.52,23.21-27.3,6.59-5.5,11-4.13,13.12,4.39.15.63.31,1.27.65,2.66,2.39-2.85,4.2-5.33,6.34-7.49,4.48-4.5,9.12-8.84,13.74-13.2a12.53,12.53,0,0,1,2.71-1.8c5.8-3.06,11.37-.1,11.47,6.5a30.56,30.56,0,0,1-1.93,10.59c-2.41,6.65-5.39,13.09-8.13,19.62a8.63,8.63,0,0,0-.85,4.91,53.94,53.94,0,0,0,4.18-4.66c4.71-6.68,9.42-13.36,13.9-20.19,6-9.2,12.81-17.63,21.92-24,.6-.42,1.17-.86,1.78-1.26,3.38-2.19,6.92-3.53,10.65-.94a9.56,9.56,0,0,1,3.93,11.06c-1.57,5.56-3.81,10.95-5.78,16.4-1.27,3.54-2.57,7.06-4.27,11.69,2.19-.82,3.36-1,4.27-1.63a57.28,57.28,0,0,0,19.8-22.72c3.82-7.84,7.42-15.79,11.37-23.55a35.27,35.27,0,0,1,5.4-7.43,5,5,0,0,1,6-1.14c2.21,1,3.57,2.93,3.21,5.22a100.65,100.65,0,0,1-3.1,14.85c-3.7,11.58-8,23-11.71,34.56-3.48,10.89-6.52,21.93-9.73,32.9-.3,1-.44,2.09-.71,3.44,6.36,0,12.48,0,18.6,0,7.63,0,15.26.13,22.89.21.72,0,1.64-.15,2.13.22,1.07.81,2.59,1.85,2.67,2.89s-1.26,2.37-2.31,3.11c-.79.57-2.09.51-3.17.56-6.71.28-13.42.6-20.13.75-7.6.17-15.21.18-23.16.26-.76,2.28-1.35,4.14-2,6-3.3,9-6.16,18.27-10,27.05A99.41,99.41,0,0,1,545.66,530c-5.57,3.14-11.41,4.52-17.81,3.21s-10.58-4.8-12.23-11c-2.88-10.88-3.08-21.77,3-31.66a86.34,86.34,0,0,1,13-16.71,99.14,99.14,0,0,1,36.6-23.09c4.46-1.55,8.88-3.23,13.4-4.57,2.16-.63,3.45-1.58,4-3.83,3.1-12.84,6.28-25.67,9.44-38.5ZM582,453.13a5.72,5.72,0,0,0-1.43,0c-18.54,4.65-35,13-48.33,27a55.71,55.71,0,0,0-11.19,16.66,33.11,33.11,0,0,0-1.65,19.8c1.51,7.53,6.69,11.37,14.27,10.07a28.92,28.92,0,0,0,10.44-4.26c8.22-5.27,14.6-12.49,20.05-20.54,9.79-14.43,13.74-31.1,18.2-47.57C582.48,454,582.21,453.65,582,453.13Z"/><path d="M1008.75,647.88a32,32,0,0,1-1.7,4.85,85.78,85.78,0,0,1-25.51,27.95c-3.39,2.42-7.23,4.43-11.66,3.85-6.35-.85-11.36-3.67-13.61-10.14-.52-1.5-1.14-3-2.1-5.46-2.75,4.29-5.1,7.83-7.32,11.46-2.46,4-4.78,8.15-7.2,12.21a28.1,28.1,0,0,1-2.15,3.14c-2.89,3.59-6.4,6.2-11.26,5-5.2-1.24-8-5.11-8.52-10.19-1-8.52-.9-17.05,1.53-25.4a24.4,24.4,0,0,0,1.09-6.34,62.25,62.25,0,0,0-11.24,19.62c-1.77,4.95-3.75,9.83-5.65,14.74a11.7,11.7,0,0,1-.67,1.49c-1.9,3.6-4,5.08-6.62,4.66s-4.34-2.54-5.15-6.29c-1.41-6.56-.24-13,.72-19.49.59-3.92,1.57-7.77,1.65-12.1-1.26,2-2.83,3.84-3.72,6-4.31,10.36-9.39,20.41-10.71,31.87-.66,5.71-2.72,11.27-4.29,16.86a17,17,0,0,1-2.22,4.95c-2.81,4.07-8,3.65-10-.92a17.82,17.82,0,0,1-1.56-7.4c.24-6,.81-11.91,1.62-17.82.55-4,1.71-8,2.18-12.17-3.31,2.29-5.18,5.56-7,8.88-4,7.36-7.84,14.76-11.77,22.13-.85,1.61-1.71,3.22-2.7,4.74-4.74,7.27-10.92,8.41-18,3.37a14.77,14.77,0,0,0-1.62-.82,53.11,53.11,0,0,1-2,5.1c-2.84,5.46-5.56,11-8.79,16.23a23.44,23.44,0,0,1-6.13,6.11c-7.78,5.78-14.85,4.72-20.86-2.94a21.23,21.23,0,0,1-4.87-12c-.82-14.31,1.55-28,9.82-40a83.43,83.43,0,0,1,10.09-11.36,18.83,18.83,0,0,1,6-3.75c8.31-3.57,14.09-.74,16.57,8.81a47.26,47.26,0,0,1,2.77-5.9,35.66,35.66,0,0,1,5.3-6.74,6.08,6.08,0,0,1,7.18-.56c2.51,1.38,3.28,3.74,2.77,6.54-1.4,7.67-2.81,15.34-4.17,23-.58,3.28-1,6.58-1.52,9.88l1.18.55a44.05,44.05,0,0,0,3.59-4.41c4-6.3,7.63-12.79,11.72-19,3.69-5.6,7.73-11,11.75-16.32a16.87,16.87,0,0,1,4-3.61c4-2.7,6.75-2.32,10.1,1.17.62.65,1.13,1.41,1.85,2.32,2.23-1.38,2.67-3.82,3.57-5.84a48.65,48.65,0,0,1,12.56-17.59c6.74-5.8,12.51-3.86,14.36,5,.26,1.23.27,2.51.53,5,1.69-2.23,2.69-3.76,3.88-5.12,3.59-4.07,7-8.37,11-12,4.49-4.15,9.14-3,11.92,2.46s2,11,.81,16.55c-1,4.77-2.89,9.36-4.2,14.08-1.21,4.33-2.17,8.73-3.38,13.7,3.27-.57,4-2.69,5.18-4.33,5.3-7.58,10.64-15.13,15.83-22.79a10.58,10.58,0,0,0,1.41-4.46c.6-4.68.86-9.41,1.51-14.08,1.83-13,7.9-24.12,16.15-34a41,41,0,0,1,10.41-8.6,18.76,18.76,0,0,1,9.3-2.4c7.44,0,11.65,5.1,10.9,12.51-1.07,10.44-4.66,19.81-12.54,27.08-4.53,4.18-9.27,8.16-14.07,12-1.79,1.45-3.13,2.87-3.38,5.26-.51,4.68-1.45,9.33-1.67,14-.17,3.6,1.77,5.2,5.2,4.1a34.72,34.72,0,0,0,10.12-5,85.84,85.84,0,0,0,17.78-18.32C1004.22,650,1004.83,647.75,1008.75,647.88ZM799.47,741.57a12.58,12.58,0,0,0,2.34,0,5.31,5.31,0,0,0,2-.86c9.49-7.8,15.7-17.41,16.37-30,.23-4.34.52-8.68.61-13a21.47,21.47,0,0,0-.56-5.88c-.76-2.89-2.83-3.82-5.37-2.26a13.89,13.89,0,0,0-4.1,4.19c-8.3,12.71-10.78,27.17-12.26,41.88C798.27,737.53,799.12,739.6,799.47,741.57Zm176.22-98.23c10.28-7.56,18.45-16,18.07-30C987.42,617.05,976.6,635,975.69,643.34Z"/><path d="M1189.87,323.84c23.43-8.34,44.25-18.68,60.17-36.89a74.7,74.7,0,0,0,18.88-45.46,105.88,105.88,0,0,0-7.87-48.49c-4.72-11.3-13-18.48-24.06-23.09-6.14-2.56-12.39-2.55-18.73-1.3a14.72,14.72,0,0,0-4.51,1.83c-5.67,3.32-6.58,6.24-2.57,11.42s3.57,12.81-.28,16.47c-4.1,3.89-10.94,4-16.66.21-8-5.26-10.85-13.77-7.75-22.78,4.2-12.21,13.4-18.91,26.25-19.11,1.45,0,2.92.06,4.36-.08,18.48-1.77,32.32,6.43,43.27,20.44,8.35,10.68,13,23,15.33,36.3,3.1,17.84,2.36,35.45-3.39,52.75a78.46,78.46,0,0,1-25.43,36.67c-12.38,10.12-26.41,17.29-41.23,23-5.42,2.09-10.93,3.95-16.46,5.75a8.78,8.78,0,0,0-5.18,4.35,120.51,120.51,0,0,1-9.2,14.13c-12.84,16.2-30,23.58-50.43,23.67a26.23,26.23,0,0,1-10-2.06c-6.06-2.54-7.45-8.19-3.36-13.32a40.58,40.58,0,0,1,7.57-7c9-6.7,19.12-11.17,29.73-14.54,9.87-3.13,19.8-6.05,29.75-8.91a8.15,8.15,0,0,0,6-5.54c4-11,7.33-22.11,7.49-33.89a65.57,65.57,0,0,0-1.17-14.06c-2.35-11.37-9-19.7-19.37-24.93-12.27-6.22-25.35-7.74-38.74-5.32a171.39,171.39,0,0,0-21.56,5.67c-3.48,1.12-6.57,3.43-10.5,5.56-1.87-.74-2.21-3-.59-4.82,6.57-7.28,6.13-16,5.52-24.77a166.89,166.89,0,0,0-6.29-34.79c-7.22-25.09-24.17-38.89-49.52-43-13.22-2.17-26.43-1.65-39.66,0-2.78.36-3.91,1.76-4.89,4.21-8.19,20.5-24.27,31.54-45,36.6-6.49,1.58-12.36-.66-14.53-4.86-3-5.78-.32-10.59,3.26-15,4.47-5.43,10.33-9.11,16.56-12.21,9-4.49,18.57-7.3,28.32-9.61,1.39-.33,2.78-.7,4-1,2.36-7.43.57-13.12-5.41-17.38s-12.64-5.37-19.6-5.77c-9.91-.56-19.58,1.21-29.11,3.6-46,11.57-86.38,33.87-122,65-3.09,2.69-5.62,6-9.06,9.76,0-1.68-.4-3,.07-3.74a36.36,36.36,0,0,1,5.47-7.4c6.23-5.83,12.4-11.82,19.22-16.9,33.3-24.79,69.76-43.17,110.25-53,12.08-2.94,24.36-4.39,36.73-1.79a43.86,43.86,0,0,1,9.75,3.33c7.83,3.73,12.25,10,13,18.76.09,1.07.17,2.14.28,3.58a32.07,32.07,0,0,0,3.68,0c14.91-1.78,29.74-1.66,44.45,1.71,25.83,5.91,42.53,21.43,48.52,47.39,2.56,11.11,3.83,22.54,5.33,33.87a37.87,37.87,0,0,1-1.5,16.72,15.09,15.09,0,0,0-.21,2.73c2.51-.9,4.49-1.63,6.49-2.32,14.86-5.18,30-7.45,45.52-3.55,1.41.35,2.82.72,4.2,1.15,20.34,6.31,31.62,20.64,33,42,.77,11.6-1.23,22.81-4.64,33.83C1191.33,319.26,1190.78,321,1189.87,323.84Zm-12.54,11.78a32.33,32.33,0,0,0-3.54.59c-8.19,2.39-16.51,4.44-24.52,7.33a232.76,232.76,0,0,0-23.47,10.12,33.46,33.46,0,0,0-8.9,7c-2.83,3-2.2,4.9,1.65,6.59a23.57,23.57,0,0,0,13.89,1.59c18.92-3.48,33.56-13.25,43.45-29.89A29.68,29.68,0,0,0,1177.33,335.62ZM996.42,152.24l-.95-1.15a18.36,18.36,0,0,0-2.58.31c-9.48,2.54-18.75,5.67-27.21,10.7a83.84,83.84,0,0,0-11.38,8.27,18.56,18.56,0,0,0-4.43,6.08c-1.88,3.88-.3,6.62,4,6.66a23.31,23.31,0,0,0,8.46-1.51,64.68,64.68,0,0,0,26.88-18.76C991.9,159.57,994,155.79,996.42,152.24Z"/><path d="M899.82,405.85c-4.18,6-7.79,11.94-12.11,17.27a40.07,40.07,0,0,1-9.75,8.55c-6.23,3.92-13,3.11-18.72-1.6a23,23,0,0,1-8.53-15.91A40,40,0,0,1,854,393.39c4.73-10.42,11.34-19.46,20.85-26.09,5.28-3.68,10.8-5.35,17.44-3.15,3.29,1.1,7.11.57,9.41,4.2,2.29-2.39,4.2-4.56,6.3-6.55,2.68-2.54,5.69-4.55,9.57-4.69,4.68-.17,7.24,2.48,6.55,7.14a36.51,36.51,0,0,1-2,6.18c-3,8.88-6,17.76-9.29,27.29,3.73.13,5.53-1.72,7.3-3.31,5.63-5.05,9.69-11.28,13-18,4.68-9.34,11.05-17.48,18-25.23,3.15-3.54,6.78-6.31,11.84-5,5.26,1.37,7.2,5.68,8.28,10.51.28,1.2.57,2.41,1.08,4.59,3.15-3.74,5.68-7,8.49-10,4.45-4.75,8.72-9.8,13.76-13.86,6.56-5.29,12.94-2.77,15.09,5.44.64,2.42.6,5,.92,8.08a28.34,28.34,0,0,0,2.95-2.17c3.29-3.14,6.35-6.53,9.81-9.45a45.44,45.44,0,0,1,9-6c4.5-2.24,7.91-1.1,10.93,2.93,4.36,5.83,5.19,12.38,3.2,19.16-1.38,4.68-3.63,9.1-5.23,13.72-2,5.82-4,11.66-5.55,17.62-1.45,5.66.56,7.8,6.47,7.25a33,33,0,0,0,9.55-2c7.59-3.2,14.55-7.44,19.82-14,2.49-3.12,5-6.21,7.65-9.23a48.89,48.89,0,0,0,11.3-24.42c1.54-9.2-3.3-14.67-12.7-14.3-1.22,0-2.44,0-4.78,0,1.19-1.64,1.64-3,2.48-3.29,5.26-2,11.37-2.14,15.52,3.89,3.2,4.63,4.92,9.8,3.39,15.48-3.55,13.15-9.17,25.23-18.67,35.26-7.8,8.24-16.15,15.77-26.81,20.15a51.3,51.3,0,0,1-10.83,3.45c-11.25,1.88-20.08-5.67-20.36-17.08a50.05,50.05,0,0,1,3.7-19.69c2.32-5.92,5.07-11.66,7.45-17.55,1.19-2.94,2-6,3-9.07l-1-.7a28.7,28.7,0,0,0-3.76,2.63c-8.77,8.46-17.15,17.23-23.61,27.7a50.69,50.69,0,0,1-6.88,8.4c-3.06,3.16-6.23,3.86-8.77,2.32-3.18-1.93-3.38-5.08-2.71-8.2,1.14-5.31,2.54-10.57,3.94-15.83.87-3.28,1.93-6.51,2.91-9.77l-1-.63a28.43,28.43,0,0,0-3.34,3c-8.94,11-18.15,21.74-23.45,35.23-2,5-5.08,9.63-7.92,14.28a20.56,20.56,0,0,1-4.63,5.29c-4.06,3.22-9.15,1.5-9.93-3.63A25.84,25.84,0,0,1,942.3,391c1.86-6.43,4.48-12.65,6.85-18.93,2-5.39,4.13-10.74,6.49-16.88a8.92,8.92,0,0,0-6.52,4.61c-4.82,7.47-9.82,14.86-14,22.67-3.89,7.22-7.56,14.5-13.09,20.64a39.25,39.25,0,0,1-4.16,4.29c-5.83,4.74-11.39,4.44-17-.76A10,10,0,0,0,899.82,405.85Zm-4.68-35.32c-.74.91-1.54,1.83-2.28,2.79-8.45,10.93-16.32,22.23-21,35.38a27.92,27.92,0,0,0-1.6,8.47c-.12,4.62,1.86,6,6.13,4.52a22.08,22.08,0,0,0,5.29-2.72c6.43-4.48,10.65-10.8,14.1-17.66a6.54,6.54,0,0,0,.5-4.15c-1.7-6.76-.9-13.35,1.29-19.78C898.58,374.39,898.53,372.15,895.14,370.53Z"/><path d="M973.55,729.58c.32,2,.61,3.35.75,4.74a50.7,50.7,0,0,0,5.3,18.21,119.21,119.21,0,0,0,22,30.33c8.58,8.47,19.08,13.79,30.36,17.68,26.49,9.15,52.76,9,78.73-2a83.93,83.93,0,0,0,25.39-16.67c21.41-20.48,26.13-45.48,19.89-74.11-2.94-.06-5.59-.16-8.25-.15a87,87,0,0,1-60.18-23,56.12,56.12,0,0,1-9.67-11c-5.67-8.76-2.62-16.48,7.41-19.36,8.62-2.47,17.31-1.72,25.83.69,21.09,6,35.54,19.78,45.34,38.94,1.16,2.25,2.18,4.58,3.54,7.47,3.64-.44,7.39-.78,11.09-1.38a95.34,95.34,0,0,0,28-8.82c21.47-10.87,32.22-28.58,31.23-52.45-.89-21.68-8.74-40.78-25.57-55.31-13.06-11.29-28.39-18.12-45.13-22-21.6-5-42.61-3-63,5.49-6.2,2.57-12.3,5.43-18.25,8.55-3.5,1.83-6.55,4.5-9.94,6.58-.89.55-2.7.79-3.31.27s-.83-2.33-.51-3.33a9.34,9.34,0,0,1,2.42-3.54,23.83,23.83,0,0,1,4.29-3.33,177.4,177.4,0,0,1,36.92-17.34c15.25-5,30.79-4.45,46.36-1.53,17.6,3.3,33.84,9.71,47.87,21.1,20.66,16.78,31.74,38.72,33.09,65,1.2,23.53-8.75,41.91-29.1,54.23-12,7.29-25.31,10.84-39.09,12.82-1.26.18-2.53.3-3.78.51a5.27,5.27,0,0,0-1.3.72c.68,3.55,1.47,7.22,2.09,10.92a94.44,94.44,0,0,1-1.76,41.07c-4.75,17.44-14.69,31.46-28.8,42.61a106.43,106.43,0,0,1-126.65,4.47C987,793,975.62,773.38,970.38,750c-1-4.67-.53-9.75-.32-14.63C970.15,733.47,970.24,731,973.55,729.58Zm179.69-27.84a33.9,33.9,0,0,0-1.11-4,76.34,76.34,0,0,0-18.1-26.26c-8-7.43-17.25-12.67-28-14.86-7-1.42-14.1-1.77-20.85,1.27-5.79,2.61-7.43,7-4,12.38a46.1,46.1,0,0,0,8.86,10.19,87.6,87.6,0,0,0,39.16,19.25A88.6,88.6,0,0,0,1153.24,701.74Z"/><path d="M761.32,796.37c10.25-.85,19.82-1.56,29.38-2.45s19-2.16,28.79-7.93c-.61,2.43-.53,4-1.18,4.38-3,2-6,4.38-9.34,5.32a159.29,159.29,0,0,1-21.28,4.46C778.35,801.43,768.91,802,759,803c-.39,1.15-.93,2.64-1.39,4.16A189.11,189.11,0,0,1,738,850.74,51,51,0,0,1,722.19,867c-13.7,8.93-26.11,4.12-31.57-10.17-4.77-12.47-2.33-23.74,6.35-34A65.78,65.78,0,0,1,733,800.82a19.18,19.18,0,0,1,2.64-.65c4.94-.39,6.68-3,7.53-7.95,2.54-15,5.9-29.91,8.88-44.86a36.82,36.82,0,0,0,.79-11.13c-1.11,1.75-2.1,3.58-3.35,5.23-2.17,2.87-4.19,6-6.84,8.37-5.07,4.54-10.36,4.9-15.93.95a28.1,28.1,0,0,1-7.33-7.84,31.05,31.05,0,0,1-4.68-20.36c2-16.58,7.51-31.77,19-44.32a33.91,33.91,0,0,1,6.11-5.37c8.76-5.83,16.73-5.5,25.19.77.7.52,1.43,1,2.19,1.55,1.73-2.84,3.15-5.6,5-8.06,2.67-3.62,6.13-6.26,10.85-6.5s6.91,2.78,5.14,7c-4.33,10.31-6.59,21.12-8,32.12-4.12,31.54-9.81,62.76-18.51,93.39A24.54,24.54,0,0,0,761.32,796.37Zm-20.64,8.8c-.84-.38-1.15-.63-1.48-.64a9.79,9.79,0,0,0-2.16.11,62.38,62.38,0,0,0-22.79,8.57A54.31,54.31,0,0,0,697,831.11c-5,8.37-3.65,16.72.42,24.93a10.33,10.33,0,0,0,3.29,3.52c4.3,3,9.25,2.48,13.88-1.68,4.88-4.39,9.34-9.17,11.89-15.39,3.92-9.56,7.88-19.11,11.68-28.72C739.28,811,739.88,808,740.68,805.17Zm-4.89-63.92a11.28,11.28,0,0,0,2.16-.61,9.67,9.67,0,0,0,2.17-1.62c9.56-10.21,17.5-21.29,20-35.52,1.12-6.43,2.64-12.79,4-19.17.73-3.39-.2-5.15-3.47-6.09a6.57,6.57,0,0,0-7,1.66,41,41,0,0,0-5.66,7.25c-6.75,12-11.68,24.6-13.43,38.29C733.88,730.59,733.29,735.89,735.79,741.25Z"/><path d="M1008.24,908.83q-.72,6.12-1.43,12.25a30.7,30.7,0,0,1-.48,4.32c-1,3.71-4,5.27-7,3.13-8-5.62-16.75-10.38-23.26-17.92s-10.57-16.51-10.54-26.79a17.53,17.53,0,0,1,1.32-6.33c.51-1.28,1.93-2.2,3.85-4.26,1,5.91,1.42,10.57,2.77,14.93a48.46,48.46,0,0,0,5.67,12.31A59.66,59.66,0,0,0,988.44,911c3.28,3,7.13,5.48,11.31,8.62,1.39-4.64,2.56-8.57,3.74-12.49,1.8-6,4.42-7,9.38-3.11a41.54,41.54,0,0,1,8.09,8c5.75,7.94,11.22,16.08,16.52,24.32,3.14,4.88,5.72,10.13,8.61,15.17.87,1.51,2,2.9,2.93,4.34l1.1-.33c-.36-2.18-.56-4.4-1.11-6.52-1.36-5.28-3-10.5-4.31-15.77-3-11.61-6-23.22-8.78-34.86-1.13-4.66,1.2-6.84,5.67-4.77A76.54,76.54,0,0,1,1056,902.3c9.56,7.31,19.38,14.21,30.25,19.36,7,3.33,14.5,5.7,21.79,8.45a26.5,26.5,0,0,0,3.87.68,103.19,103.19,0,0,0-14.69-17.07c-6.3-5.77-12.69-11.45-18.92-17.28a20.15,20.15,0,0,1-4-5.12c-1.39-2.6.12-4.69,3.09-4.62a10.23,10.23,0,0,1,2.66.54c11.56,3.52,23.5,4.69,35.45,5.79a33.28,33.28,0,0,0,9.16,0,58.64,58.64,0,0,0-5.21-5.88c-15.83-13.74-33.88-23.14-54.59-26.91-7.85-1.43-15.85-2-23.77-3a17.74,17.74,0,0,1-5.26-1.24c-1.14-.55-2.62-2-2.6-3a5.8,5.8,0,0,1,2.25-3.85,59.68,59.68,0,0,1,6.92-3.85l0-1.25c-7.26-2.57-14.46-5.31-21.78-7.67-4.49-1.44-9.19-2.18-13.73-3.46a13.54,13.54,0,0,1-5.25-2.59,4.15,4.15,0,0,1-.82-3.83c.45-1,2.19-1.49,3.44-2,.41-.18,1.06.12,1.58.26,12.44,3.4,24.9,6.72,36.46,12.71,6.54,3.38,7.22,7.16,2,12.61a13.12,13.12,0,0,0-1.19,2c4.47.59,8.53,1.24,12.61,1.65a113.38,113.38,0,0,1,61.19,25,105,105,0,0,1,9.77,9.45,12.17,12.17,0,0,1,2.43,4.22c1.34,3.82-.49,6.17-4.52,5.64-13.14-1.74-26.27-3.62-39.41-5.45-.7-.1-1.4-.22-3-.47a28,28,0,0,0,2.56,3.17c3,2.63,6.25,5,9.13,7.77,5.91,5.64,11.71,11.4,17.44,17.22,3.57,3.62,7,7.42,10.39,11.17,1,1.06,2.24,2.09,2.66,3.37a4.93,4.93,0,0,1-.38,4,4.41,4.41,0,0,1-3.82,1.12c-11.63-3.44-23.48-6.4-34.71-10.88-12.21-4.88-22.63-13-32.8-21.34-3.05-2.49-6.21-4.82-9.32-7.22l-.93.62c.36,1.68.65,3.37,1.1,5,4,14.55,8,29.07,12,43.62a44,44,0,0,1,1.7,8.53c.37,5.3-3.26,8.11-8.4,6.76a13.16,13.16,0,0,1-8.21-6.73c-2.75-4.91-5.15-10-8-14.87q-8.33-14.05-17-27.87c-1.62-2.56-3.87-4.72-5.83-7.06Z"/><path d="M903.27,593.36q-11.1,15.46-22.18,30.92c-1.27,1.78-2.33,3.71-3.7,5.4-4.88,6.06-11.59,5.89-15.7-.75-2-3.16-2.94-7-4.16-10.55a67,67,0,0,1-1.51-7.21c-2.91,5.08-5.28,9-7.47,13.09-6.65,12.31-13.19,24.67-19.85,37a46.25,46.25,0,0,1-4.19,6.36c-1.84,2.36-4.1,4.24-7.43,3.32-2.91-.8-4.69-3.23-4.54-7.24a38.62,38.62,0,0,1,1.68-11.21,98.81,98.81,0,0,1,11.21-23c4.77-7.06,8.82-14.63,13.71-21.61,3.74-5.33,8.26-10.11,12.53-15a18,18,0,0,1,3.75-3.14c5.49-3.61,11.41-1.77,13.62,4.44a103.83,103.83,0,0,1,2.65,10.56c.5,2.08.95,4.17,1.61,7.09,1.36-1.39,2.23-2.15,2.94-3,6.43-7.87,12.66-15.93,19.32-23.6a109.23,109.23,0,0,1,11.5-10.83c5.45-4.7,10.73-3.28,13.07,3.54,2.69,7.83,2,15.74.17,23.66-1.43,6.19-2.53,12.45-4,18.62a38.88,38.88,0,0,1-3,8.07c-1.41,2.83-3.38,5.52-7.1,4.74s-4.67-4.06-4.77-7.15a165.05,165.05,0,0,1,.39-17.37c.23-3.23,1.32-6.39,2-9.6.34-1.72.56-3.46.83-5.2Z"/><path d="M450.07,157.06c-.5-.54-.78-1.09-1.22-1.3-25.94-12.22-52.18-15.07-78.79-2.2a72,72,0,0,0-27.73,23.22,51.27,51.27,0,0,0-5.8,10.44c-3.77,9.4-2.17,18.23,4,26.15,4.88,6.25,11.12,9.75,19.36,9,2.57-.23,5.18,0,8.78,0-1.18,1.49-1.49,2.32-2,2.45C350.36,229,333,217.57,330.54,201a38.66,38.66,0,0,1,3-21.32A60.41,60.41,0,0,1,347.07,160c25.58-24.82,55.67-31.42,89.51-21.34,8,2.37,15.54,6,24,9.35,1-.7,2.61-1.83,4.19-3,18.11-13.35,37.82-23.14,60.24-26.63,35.45-5.52,66.24,4.86,92.45,28.63,8.13,7.37,14.52,16.67,21.6,25.18a8.57,8.57,0,0,1,1.9,4.36c.09.88-1.08,2.14-2,2.74-.34.22-1.91-.75-2.38-1.51-20.18-32.54-48.87-52.13-87.13-56.8-14.14-1.73-27.88,1.11-41.29,5.54A141.38,141.38,0,0,0,466.61,149c-.69.53-1.28,1.18-2.24,2.07,1.25,1.12,2.35,2,3.31,3,3.14,3.26,6.67,6.26,9.26,9.92a22.57,22.57,0,0,1-2.6,29.88c-8.31,8.22-18.49,10.62-29.67,7.6-9.59-2.6-13.64-10.18-11.15-19.82,1.58-6.11,4.94-11.29,8.94-16.07C444.9,162.7,447.49,159.94,450.07,157.06Zm5,2.11a28.26,28.26,0,0,0-3,2.53c-2.66,3-5.64,5.79-7.73,9.14A56.85,56.85,0,0,0,438,184c-1.72,5.61,1.19,9.93,6.79,11.8,7.86,2.62,18-.32,23.28-6.75s5.22-14-.44-20.24A46.31,46.31,0,0,0,455.07,159.17Z"/><path d="M686.12,404.27c7.63-8.23,15.38-16.35,22.82-24.74,3.23-3.65,5.77-7.9,8.69-11.83a60.57,60.57,0,0,1,4.8-5.9c2.11-2.2,4.68-3.55,7.84-2.23,2.57,1.07,3.83,4.12,3.42,7.9-.73,6.68-1.47,13.36-2.18,20-.1.88-.12,1.77-.22,3.42,1.68-1.07,2.86-1.74,3.94-2.54,8.12-6.12,16.21-12.31,24.37-18.39,1.47-1.09,3.33-3.52,5.08-1.41,2,2.45-1,3.75-2.48,5-9.25,7.92-18.52,15.8-27.93,23.53a9.1,9.1,0,0,0-3.73,7.31,114.47,114.47,0,0,1-1.88,17.84c-2.3,11.19-10,17.7-20.3,21.62-4.31,1.65-7.81-.1-11-2.9s-3.06-6.21-1.87-10a33.43,33.43,0,0,1,10.34-15.72c2.42-2.08,3.23-4.43,3.21-7.6-.05-7,.34-14,.58-21.7-1.26,1.49-2.21,2.5-3,3.61-5.81,7.91-11.55,15.86-17.39,23.75a46.47,46.47,0,0,1-5.61,6.64c-5.47,5-11.67,4.13-15.77-1.95-.68-1-1.23-2.09-2-3.43-2,2.57-3.75,4.89-5.6,7.1-3.7,4.44-8.65,5.87-14.18,5.39-5-.43-6.44-3-5.17-7.72,2.65.66,5.27,1.8,7.9,1.84,3.71.06,6.24-2.56,8.46-5.32,1.14-1.41,2.24-2.87,3.49-4.18a21.86,21.86,0,0,0,6.17-12.94c.91-7.49,4.11-14.34,8.43-20.48a24.34,24.34,0,0,1,7.14-6.44,6.26,6.26,0,0,1,7.64.71c2.41,2.14,2.06,4.79,1.24,7.54q-3.11,10.44-6.08,20.9a17.52,17.52,0,0,0-.35,2.63Zm14.77,30.55c6.27-.81,9.25-6.52,7.59-14.54C702.79,424.45,700.2,429.42,700.89,434.82Z"/><path d="M325.07,231.14a18.51,18.51,0,0,1-2.85.68,208.43,208.43,0,0,0-73.82,15c-18.86,7.64-38.18,14.07-58.17,18.25a100.13,100.13,0,0,1-27.64,2c-19.17-1.33-44.19-19-44.21-47.33,0-29.29,12.12-52.28,35.71-69.26,8.73-6.28,18.5-10.06,29.58-9.22a32.29,32.29,0,0,1,15.82,5.37,14,14,0,0,1,6.61,10.18c.61,5.16-2.31,8-7.46,7.24-4.48-.65-8.93-1.6-13.42-2.08a32.13,32.13,0,0,0-17.93,3.63,89.31,89.31,0,0,0-21.65,14.56c-14.28,13.38-20.51,29.84-17.34,49.22,2.39,14.56,12.41,23,25.49,28.09,10.09,3.91,20.71,3.74,31.22,2.22,18.6-2.68,36.55-7.94,54.07-14.68,12.21-4.7,24.23-10.18,37.22-12.2s26.32-3.09,39.51-4.33C318.68,228.18,322,227.83,325.07,231.14Z"/><path d="M351.13,747.66c0,1.34,0,2.68,0,4a24.33,24.33,0,0,0-.14,4.25c1.16,7.52,4.39,10.33,12,10.68a22,22,0,0,0,13.88-3.91A48.84,48.84,0,0,0,397,734.53c2.84-10.31,5.48-20.7,7.73-31.16,5.43-25.35,13.69-49.73,25.9-72.58,5-9.38,11.57-18,17.91-26.58a37.49,37.49,0,0,1,15.35-11.92,10.1,10.1,0,0,1,3.57-1.22,5.16,5.16,0,0,1,3.16,1.38c.25.23-.42,2.07-1.1,2.64-13.48,11.18-19.41,27-25.6,42.46-8.46,21.08-14,43.14-19.65,65.1A199.16,199.16,0,0,1,410,742c-7.29,14.58-18.42,25.11-33.92,30.57-8.3,2.93-16.13.47-23.55-3.34-1.47-.75-2.56-2.56-3.41-4.12-2.35-4.32-2.45-9.08-1.85-13.8.18-1.41,1.38-2.69,2.12-4Z"/><path d="M354.46,955.4c-3.29,1.87-6.59,3.72-9.87,5.6a678.9,678.9,0,0,0-79.92,54,19.88,19.88,0,0,1-4,2.72,3.3,3.3,0,0,1-3-.28,4.08,4.08,0,0,1-1.07-3.28,19.77,19.77,0,0,1,2.49-4.8C274.82,983.24,293,959,314.71,937.55A14.78,14.78,0,0,0,316,935.7a19.35,19.35,0,0,0-3.79.34c-5.22,1.56-10.4,3.27-15.62,4.83a18.08,18.08,0,0,1-5.3,1c-2.33,0-3.57-1.91-3-4.15a10.3,10.3,0,0,1,1.13-2.46,111.13,111.13,0,0,1,32.09-36.62,67.78,67.78,0,0,1,33.75-12.81c2.15-.21,4.79-1,6.18,2.9-9.08,1.7-18,3.29-26.07,7.45-8.35,4.3-15.45,10.2-22.08,16.74A125.37,125.37,0,0,0,296,934.35c1,.19,1.47.45,1.88.35q12.15-3,24.29-6.13a10.74,10.74,0,0,1,2.65-.53c2.62.05,4,2.26,2.59,4.51a24.27,24.27,0,0,1-3.93,4.5c-19.48,19-35.64,40.73-51,63.1a6.19,6.19,0,0,0-1.21,3.24,27.55,27.55,0,0,0,3.45-2c24.29-19,51.75-33,77.61-49.6,4.9-3.14,7.88-1.55,8.18,4.36a43,43,0,0,1-1.33,11.3c-1.29,5.79-3,11.48-3.89,17.62a47.19,47.19,0,0,0,3.84-3.64c5.66-6.63,11.24-13.33,16.86-20,4.45-5.27,8.76-10.68,13.44-15.74,3.57-3.86,6.15-3.34,8.08,1.5,1.54,3.87,2.51,8,3.78,11.94.82,2.55,1.32,5.31,3.92,7,3.06-1,4.23-3.72,4.69-6.27a76.05,76.05,0,0,0,1.57-15.07c-.25-10.72-1.15-21.41-1.71-32.12a14.37,14.37,0,0,1,.42-5.38,4.43,4.43,0,0,1,3.08-2.19c.55-.1,2,1.61,2.07,2.56.94,14.31,2.07,28.63,2.34,43,.09,4.7-1.91,9.54-3.5,14.13a13.52,13.52,0,0,1-4.25,5.51,6.73,6.73,0,0,1-10.4-1.61,40.12,40.12,0,0,1-3.62-9c-1.06-3.4-1.74-6.91-2.78-11.16a36.38,36.38,0,0,0-3.62,3.45c-4,5.18-7.78,10.53-11.89,15.61q-8.24,10.17-16.88,20a31.72,31.72,0,0,1-6.36,5.07c-1.9,1.26-4.16,1.73-6.09.09s-1.34-3.54-.72-5.56c1.82-5.9,3.69-11.79,5.28-17.76,1.16-4.34,1.9-8.79,2.83-13.19Z"/><path d="M117.71,637.67a33.61,33.61,0,0,0-4.14.63c-8.93,2.44-17.84,5-26.76,7.44-1.75.49-3.48,1.29-5.25,1.37-1.26,0-3.08-.51-3.71-1.44s-.35-2.73,0-4a7.44,7.44,0,0,1,2-2.56,226.71,226.71,0,0,1,39.57-34.92c6-4.12,12.33-7.81,19.52-9.41a33.14,33.14,0,0,1,10.23-.57c3.17.3,6.24,1.61,7.74,4.92-1.24,1.95-2.64,1.23-4,.69a18.64,18.64,0,0,0-15.37.48,90.38,90.38,0,0,0-14.78,8,236.44,236.44,0,0,0-32.86,28.6c-.46.48-.86,1-1.9,2.27,2.13-.27,3.32-.34,4.48-.58q13.85-3,27.68-6a5.09,5.09,0,0,1,1.61-.25c1.35.21,3.16.12,3.93.94,1.42,1.53,0,3.06-1.15,4.21-4.23,4.26-8.43,8.54-12.82,12.63-16.36,15.24-29.26,33.23-41.38,51.85a13.33,13.33,0,0,0-.78,2.28c1.71-1.1,2.88-1.74,3.92-2.54,7.24-5.49,14.41-11.08,21.69-16.52a185,185,0,0,1,32-19.73c.82-.39,1.62-.82,2.46-1.17,5.27-2.24,7.58-.7,7.34,5-.09,2-.4,4-.68,6s-.65,3.88-1,5.82l1.25,1a23.73,23.73,0,0,1,1.82-3.19,95.53,95.53,0,0,0,13.55-22.28A50,50,0,0,1,157,647c2.74-3.89,5.84-3.52,7.74.83a89.62,89.62,0,0,1,3,9.32c.68,2.2,1.33,4.43,2.22,7.38a10,10,0,0,0,4.26-8.86,103,103,0,0,0-1.63-16.17c-.76-4.07-2.43-8-3.84-11.92-1.26-3.54-1.37-3.63-5.09-2.67-1.56.39-3.17.8-3.71-.85-.35-1.08.39-2.63.93-3.83a7.38,7.38,0,0,1,1.89-1.94c10.77-10,21.5-20.12,32.35-30.07a67.89,67.89,0,0,1,8.24-6.22c1.78-1.19,3.69-1.41,4.88,1-12.68,11.93-25.19,23.69-37.69,35.47a8.72,8.72,0,0,0-.93,1.24c6.6,10.76,11.05,22.09,10.54,34.92-.19,4.67-1.39,9-4.69,12.46-4.05,4.27-7.81,3.68-10-1.75a95.8,95.8,0,0,1-2.71-9.41,14.13,14.13,0,0,0-2.62-5.6c-.81,1.75-1.72,3.47-2.41,5.27-5.19,13.61-13.4,25.31-23,36.13a16.24,16.24,0,0,1-3.6,3.29c-2.28,1.35-4.52-.14-4.22-2.8a33.35,33.35,0,0,1,1.34-4.7c1.66-6.27,3.29-12.54,5.18-19.75-2.25.6-3.51.66-4.46,1.23-8.24,5-16.79,9.49-24.55,15.11C91,693.89,77.94,704.38,64.68,714.56a17.51,17.51,0,0,1-4,2.74,3.86,3.86,0,0,1-3.41-.37c-.66-.66-.6-2.29-.46-3.44a6.14,6.14,0,0,1,1.32-2.34c7.36-10.6,14.61-21.28,22.14-31.75,8.85-12.29,19.41-23.06,30.46-33.37,2.6-2.43,5-5,7.53-7.57Z"/><path d="M674.45,650c-3.26,0-4.76,1.84-6.21,3.65-3.31,4.14-4.53,9.08-4.75,14.21a7.84,7.84,0,0,0,1.9,4.83c2,2.36,4.48,4.25,6.58,6.49,8.09,8.63,11.77,18.6,8.95,30.45-2.63,11-10.38,17.55-20.77,19.13-13.77,2.09-22.79-4.28-26.09-17.93-1.18-4.86,3.22-12.87,7.77-15.13,3.5-1.75,6.47-.33,7.32,3.64.78,3.71,1.51,7.43,2,11.19.36,2.71,1.77,3.79,4.33,3.81a8.66,8.66,0,0,0,8.82-7.87c.63-5.81-1.35-10.7-5.3-14.86-2-2.11-4-4.2-6.2-6.12-6.65-5.91-8.45-13.54-7-21.8,2.05-11.94,8.09-21.35,19.59-26.33a24.38,24.38,0,0,1,8.94-1.84c8.17-.21,13.52,4.44,14.4,12.48a23.73,23.73,0,0,1-3.48,15.64c-.85,1.33-2.83,2.79-4.19,2.69s-3.12-1.85-3.7-3.28c-1.06-2.65-1.4-5.6-2-8.42C675,653.12,674.74,651.58,674.45,650Z"/><path d="M1247.41,463.69c3.58,0,7.17-.22,10.73,0,12.68.92,25.35,2,38,3.06a18.93,18.93,0,0,1,4.82.82c1,.38,2.4,1.33,2.6,2.25a3.76,3.76,0,0,1-1.37,3.17,38.11,38.11,0,0,1-7.66,4.09c-12.75,4.78-25.57,9.4-38.37,14.05-2.32.85-4.67,1.59-7,2.39l0,1.26c6.07,2.35,12.12,4.72,18.19,7,2.55,1,5.23,1.61,7.71,2.7,4,1.73,4.73,4.77,1.51,7.57a21.59,21.59,0,0,1-8.48,4.5c-9.77,2.55-19.83,2.6-29.79,1.61s-19.67-2.75-29.82-4.22c.82,1.59,1.76,3.4,2.69,5.22,3.13,6.12.74,9.24-5,9.9a57.49,57.49,0,0,1-24.22-2.34c-9.16-2.9-18.11-6.48-27.15-9.77-.51-.19-1.18-.29-1.47-.67-.81-1.07-2.15-2.33-2-3.38.23-2.05,2.19-2.13,3.87-1.74s3.13.93,4.69,1.44c7.94,2.59,15.82,5.36,23.83,7.73,7.3,2.16,14.78,3.38,22.73,2.37.14-3.56-2.17-5.56-3.66-7.92-1.22-1.94-3.48-3.72-2-6.3,1.61-2.88,4.5-1.85,6.9-1.44,10.92,1.84,21.74,4.41,32.73,5.55,8,.83,16.29,0,24.43-.43a10.85,10.85,0,0,0,8.67-4.19c-2.44-.76-4.47-1.31-6.44-2-8-2.87-16-5.73-24-8.74-1-.39-2.4-1.72-2.36-2.54a4.64,4.64,0,0,1,2.06-3.36,77.28,77.28,0,0,1,10-4.18c11-3.72,22.09-7.25,33.09-11,3.19-1.09,6.21-2.65,9.31-4l-.15-1.1c-3.46-.44-6.92-1.05-10.4-1.31-12.32-.91-24.64-1.7-37-2.55a35.92,35.92,0,0,1-5.41-.53c-2.34-.54-3-2.18-1.53-4a25.46,25.46,0,0,1,3.92-3.77c4.47-3.71,9.11-7.24,13.46-11.1,3.07-2.72,5.78-5.86,9-9.21-2.82-1.63-4.95-.72-6.9-.34a315.31,315.31,0,0,0-52.4,14.71c-6.27,2.39-12.45,5.05-18.57,7.83-17,7.71-30.21,20-41.45,34.55-2.07,2.69-3.7,5.71-6.11,9.49-.41-1.9-.86-2.82-.75-3.67.56-4.32,3-7.72,5.6-11a114.31,114.31,0,0,1,41-33.43c20.75-10.07,42.67-16.41,65.25-20.69,4.28-.81,8.58-1.63,12.91-2,1.59-.15,3.84.35,4.83,1.44,1.62,1.77.15,3.86-1.18,5.31-3.31,3.62-6.69,7.17-10.24,10.53-3.94,3.73-8.09,7.22-12.15,10.81C1247.12,462.62,1247.26,463.15,1247.41,463.69Z"/><path d="M531.26,603.46a19.39,19.39,0,0,1,1.59-3.76c6.68-9.47,15.21-16.44,26.49-19.92,6.46-2,11.73-.23,16.6,4,7.46,6.42,10.81,14.84,12,24.34.35,2.88.7,5.75,1.16,9.46a40.84,40.84,0,0,0,2.44-3.36c2.74-4.92,5.6-9.78,8.08-14.83a102,102,0,0,1,18.69-26.69c4-4.12,8.83-7.5,13.46-11a16.42,16.42,0,0,1,5.48-2.33c.87-.24,2,.36,3,.58-.26,1.12-.18,2.57-.86,3.3a36.41,36.41,0,0,1-5.41,4.55,83.61,83.61,0,0,0-25.76,29.14Q601.54,609.44,595,622a35.38,35.38,0,0,0-2.7,6.53c-3.23,11.34-6.34,22.73-9.48,34.1-.14.52-.14,1.09-.28,1.61-1,3.55-3.42,5.74-6.38,5.78a6.72,6.72,0,0,1-6.54-6.2,90,90,0,0,1-.81-14.66c.61-13.78,1.81-27.53,2.35-41.32.23-6-.32-11.94-4.17-17.13-2.06-2.77-4.16-4.1-7.75-3.68-8.87,1-15.4,6.07-21.56,11.86-1.81,1.7-3.47,3.57-5.2,5.36Z"/><path d="M714.85,155.35c.83-2.9,1.35-5.4,2.26-7.75,6.68-17.25,13.17-34.58,20.22-51.68,8-19.31,14.64-39,20.82-59A79.87,79.87,0,0,1,763.26,25,9.49,9.49,0,0,1,767,21.14a5.49,5.49,0,0,1,4.5-.3c1.14.62,1.67,2.53,2.22,4,.23.58-.12,1.42-.28,2.12-5.66,25.16-12.69,49.94-22.1,74A289.38,289.38,0,0,1,728,147.55a79.27,79.27,0,0,1-7.27,9.49c-.83,1-2.8,2.2-3.45,1.85C716.09,158.27,715.57,156.52,714.85,155.35Z"/><path d="M130.85,417.68c-.83-.52-2-.85-2.43-1.59-3.39-5.37-8.82-6.77-14.51-7.42-10.76-1.23-20.44,1.87-29.9,8.09,1.35.82,2.34,1.37,3.28,2,4.4,2.88,8.87,5.66,13.12,8.75.91.66,1.72,2.73,1.33,3.57s-2.42,1.7-3.55,1.5c-13.76-2.37-25.93,2.37-37.53,8.71-11,6-21.55,12.79-32.28,19.27a4.83,4.83,0,0,0-2.06,2.67c1.73-.38,3.47-.67,5.18-1.13a372.57,372.57,0,0,1,49.25-9.27c1.82-.23,4-.84,4.82,1.19.52,1.25.09,3.17-.49,4.55-2.16,5.14-4.56,10.17-6.09,15.94,1.15-.63,2.34-1.22,3.45-1.92,6.77-4.26,13.46-8.64,20.3-12.79,5.19-3.14,7.65-1.85,8.3,4.2.36,3.36.4,6.75.64,11.06,3.56-3,5.47-6.12,5.93-9.58a164.56,164.56,0,0,0,.91-16.78c.06-2-.32-4-.44-6a6.33,6.33,0,0,1,3-6c6.7-4.36,13.32-8.85,20.16-13,2.48-1.5,5.36-3.19,8.47-1.39.68,2.45-1,3-2.39,3.85-8,4.74-15.9,9.49-24.24,14.47.24,3,.38,5.83.71,8.66.68,5.81.93,11.6-.59,17.33a26,26,0,0,1-9,13.93,6.14,6.14,0,0,1-4.85,1.13c-1-.31-1.9-2.52-2-4-.47-4.64-.57-9.32-.84-14.67a43.69,43.69,0,0,0-4.32,2.13q-10,6.61-19.94,13.33c-1.51,1-3,2.13-4.47,3.13-1.69,1.11-3.54,2.33-5.47.75-1.77-1.45-.83-3.37-.19-5,1.89-4.92,3.86-9.81,5.8-14.7.59-1.46,1.19-2.91,2.12-5.22-9.77,1.43-18.8,2.35-27.66,4.13-10.86,2.18-21.57,5.11-32.36,7.62-2.17.5-5.09,2.19-6.46-.41-1.62-3.09,1.77-4.39,3.68-5.72A339.2,339.2,0,0,1,68,433.42,69.8,69.8,0,0,1,91,427.22c-2-3-4.82-3.57-7.32-4.64-1.33-.57-2.82-.78-4.1-1.43-2.37-1.17-2.78-3.26-1.15-5.4a8.31,8.31,0,0,1,2-1.84c12.18-8.06,25.27-11.88,39.85-8.26,4.92,1.23,9.34,3.26,11,8.66a7.29,7.29,0,0,1,.28,2.13C131.6,416.73,131.26,417,130.85,417.68Z"/><path d="M600.18,543.86c-3.26,1.4-6.45,2.94-9.77,4.15-3.1,1.13-6,3.68-9.67,2.08-.89-3.06,1.38-4.1,3.22-5,5.51-2.76,11-5.57,16.76-7.83a15.4,15.4,0,0,0,8.36-7.24c2.19-4,4.78-7.67,7.7-12.28a25.83,25.83,0,0,0-4.14.74c-8.81,3.39-17.6,6.87-26.4,10.27a22.65,22.65,0,0,1-5.67,1.75,3.86,3.86,0,0,1-2.85-1.89,3.12,3.12,0,0,1,.81-2.83,17.16,17.16,0,0,1,4.63-2.79c11.77-4.79,23.54-9.61,35.41-14.16a9.87,9.87,0,0,0,6.32-6c2.63-6.57,5.71-13,8.71-19.37a27.78,27.78,0,0,1,2.74-3.91c3.11,4.48,2.1,9.38-4.48,23.82a24.32,24.32,0,0,0,3.54-.65c7.38-2.53,14.72-5.23,22.15-7.64,2-.65,4.94-2.48,6.13.8,1,2.64-2,3.62-3.76,4.57a86.2,86.2,0,0,1-9.92,4.43c-6.29,2.38-12.66,4.53-19,6.86-1.33.49-3,1-3.7,2-3.14,5-6,10.14-9.54,16.29a37.09,37.09,0,0,0,3.73-1q13.79-5.85,27.53-11.77c3.5-1.51,6.92-3.22,10.43-4.71a9.36,9.36,0,0,1,4.2-1,5.08,5.08,0,0,1,3.45,1.87c.43.67-.14,2.62-.89,3.29a19,19,0,0,1-5.45,3.48c-14,5.58-28,11.21-42.13,16.4-4,1.49-7,3.47-8.67,7.42-2.58,6-5.29,12-8,17.88-1.52,3.28-3.15,6.53-5,9.67-1.09,1.9-2.93,2.85-5.09,1.63-1.89-1.08-2-3-1.4-4.79.72-2,1.73-4,2.61-6L601,544.71Z"/><path d="M1010.44,7.36c-1.51.91-3.05,1.76-4.52,2.73a116.1,116.1,0,0,0-28.42,26c-6.1,7.92-12.37,15.73-18.08,23.93-3.6,5.18-6.33,11-9.43,16.51-1.29,2.32-1.89,5.66-5.3,5.42-3.22-.23-4-3.43-5-5.89a60.06,60.06,0,0,1-2-7.83,20.15,20.15,0,0,0-3.82,2.19c-5.06,4.69-10.2,9.31-14.93,14.31-4,4.27-6,9.48-4.8,15.54a3.13,3.13,0,0,1,.14,1.61,32.77,32.77,0,0,1-1.58,3.13c-1-.58-2.69-.94-3-1.78a22.61,22.61,0,0,1-1.5-7.35,19.33,19.33,0,0,1,5.83-13.75c6.26-6.3,12.72-12.45,19.51-18.18,4.84-4.07,8.63-2.46,10.43,3.74.41,1.38.64,2.82,1.11,5,1-1.27,1.72-2.09,2.31-3,3-4.74,5.73-9.72,9.1-14.2,6.12-8.13,12.56-16,19-23.9a106.49,106.49,0,0,1,28.08-23.95c3.9-2.33,7.67-4.87,11.62-7.11.93-.53,3-.73,3.36-.24a5,5,0,0,1,.66,3.89,46.26,46.26,0,0,1-3.34,7.44,234.86,234.86,0,0,0-17.13,43.55c-.25.85-.43,1.72-.88,3.51,2.36-.6,4.16-1.14,6-1.51,3.54-.7,7.1-1.74,10.67-1.84,4.7-.13,7.12,3.27,5.41,7.64a38.21,38.21,0,0,1-5.49,9.31c-3,3.85-6.46,7.32-10.1,11.37,1.34.36,2.28.64,3.24.88,4.42,1.13,6.17,4,4.34,8.09-2.55,5.78-7.24,9.93-12,13.93a2.94,2.94,0,0,1-2.89-.07,3.94,3.94,0,0,1-.79-3.3,16.79,16.79,0,0,1,2.76-4c2.28-3,4.59-5.92,7.52-9.69-2.94-.2-4.84-.24-6.72-.48-4-.5-5-2.83-2.32-5.94,3.18-3.74,6.76-7.14,9.86-10.93,2.58-3.18,4.73-6.71,7.08-10.08l-.81-1.19c-2.7.6-5.43,1.09-8.1,1.82-3.14.88-6.18,2.18-9.36,2.91-3.74.85-6-1.14-5.85-5a21.75,21.75,0,0,1,1.07-5.32c4.66-15.71,10.13-31.1,18.73-45.19a18.53,18.53,0,0,0,.88-1.92Z"/><path d="M688.18,157.2c-.76,3.18-2.1,9-3.56,14.77A13.67,13.67,0,0,1,683,175.4c-1,1.73-2.24,3.78-4.61,2.84-2.63-1-1.43-3.37-1-5.21,3.55-13.9.7-26.63-7.11-38.4a70.23,70.23,0,0,0-6.63-8.62c-14.95-16.31-32.38-29.07-53.4-36.5-4-1.43-8-3.09-12.64-1.32-2.53,1-4.49-1.07-4.57-3.87a7.31,7.31,0,0,1,6.25-7.2,26,26,0,0,1,9.18,0c29.9,6.25,54.42,20.64,70.57,47.42C684.59,133.75,688,143.59,688.18,157.2Z"/><path d="M459.44,78.55c-.58-11.66.86-22.22,2.94-32.75,2.42-12.22,8.54-22.7,15.15-33a5,5,0,0,1,3.4-2.15c2.19-.08,2.89,2,3.23,3.76,1.18,6.25,2,12.56,3.42,18.76,2.32,10.46,4.94,20.84,7.46,31.25a11.2,11.2,0,0,0,.88,1.76c1.56-1.17,2.91-2.33,4.4-3.28a132,132,0,0,1,11.57-7.07c5-2.5,7.87-1.25,9.61,4.13,3.11,9.63,3.19,19.29-.83,28.76a61.68,61.68,0,0,1-3.41,6.8c-.94,1.62-2.32,3.08-4.43,2.1s-1.24-2.73-.86-4.3c1-4.24,2.06-8.46,3.08-12.7,1.62-6.66.51-13.24-.2-21-3.19,2.18-5.62,3.67-7.84,5.41-2.43,1.9-4.6,4.12-7,6.06-6,4.84-10.45,3.75-12.61-3.75-2.56-8.87-4.57-17.93-6.34-27-1.2-6.19-1.58-12.53-2.44-19.75a48.57,48.57,0,0,0-2.74,4.13c-7.35,14.61-9.9,30.29-10,46.45a33.36,33.36,0,0,0,1.45,8c.57,2.36,1.24,4.7-.82,6.61s-4,.93-6.14.24c-3.61-1.16-7.27-2.17-11.42-3.39a18.9,18.9,0,0,0-.14,3.74c1.83,10.85,6,20.19,16.59,25.34,1.56.76,3.15,2,2,3.74a4.58,4.58,0,0,1-4.09,1.48,20.17,20.17,0,0,1-7.06-3.89c-9.71-8.71-13.56-19.94-13.08-32.75.15-4.19,2-5.41,6.11-4.57,1.6.33,3.14.91,4.71,1.35S457.11,77.93,459.44,78.55Z"/><path d="M746.94,186.39A55.07,55.07,0,0,1,754.43,161c12.19-20.68,29.64-35.3,52.22-43.12,13.85-4.79,28.19-8.21,42.43-11.8,4.12-1,8.64-.83,12.95-.67a9.94,9.94,0,0,1,8.19,4.74,4.51,4.51,0,0,1,0,3.85c-.32.63-2.47,1-3.28.56-4.38-2.42-8.79-1.61-13.26-.62a178.81,178.81,0,0,0-68.1,30.39c-13.42,9.82-24.06,22-30.82,37.4A22.79,22.79,0,0,1,751.9,187c-.78,1-2.4,2-3.47,1.79C747.62,188.61,747.1,186.67,746.94,186.39Z"/><path d="M938,592.6c-5.32-5.93-7.33-13.41-7.77-21.32a17.69,17.69,0,0,1,1.65-8.36c2.55-5.23,8-5.45,11.21-.65A63.89,63.89,0,0,1,947.2,570c.95,1.91,1.78,3.89,3.08,6.77,1.74-2.42,3.12-4.19,4.34-6.06,3-4.55,5.75-9.25,8.86-13.7,2.84-4.06,5.36-5,8.08-3.45s4,5.25,2.71,9.11a16,16,0,0,1-1.87,3.89q-8.1,12.25-16.3,24.42c-.61.9-1.21,2.08-2.09,2.46-4.35,1.86-4.08,5.81-4.75,9.48a141,141,0,0,1-3.64,16.38,14.08,14.08,0,0,1-4.76,6.32c-3.06,2.42-6.57,1.37-8-2.25a12.79,12.79,0,0,1-.76-6.84C933.81,608.7,935.92,601,938,592.6Z"/><path d="M1256.61,398.21c2.58.64,5.16,1.27,7.74,1.94,2.19.56,4.21,1.45,4.82,3.89a5.52,5.52,0,0,1-2.54,6.16,23.85,23.85,0,0,1-8.31,3.72c-13.69,2.35-27.45,2.82-41.16,0-2-.42-5-.38-4.73-3.37s3.25-2.21,5.27-2.53a8.41,8.41,0,0,1,3.24,0c10.93,2.76,22,1.88,33.08,1.44,7-.28,8-1,11.26-4.9a38.74,38.74,0,0,0-4-1.42c-4.07-.94-8.19-1.66-12.22-2.74a3.83,3.83,0,0,1-2.48-2.35,3.93,3.93,0,0,1,1.77-3,35.75,35.75,0,0,1,6-2.64c13.07-5,26.09-10.11,38.19-17.25,1.25-.74,2.5-1.48,3.71-2.28.23-.15.29-.57.61-1.23-4.23,0-8.32-.29-12.36.06-10.16.87-20.21,2.34-29.42,7.27-1.19.64-3.42.81-4.37.11-1.84-1.35-.62-3.25.36-4.82,2.4-3.86,4.83-7.7,7.19-11.58a14.39,14.39,0,0,0,2-4.9c-22.42,8.46-42.09,20.1-52.21,43.19-2.23-.61-2.27-2.07-1.79-3.5.82-2.4,1.43-5,2.89-7,3.74-5.09,7.45-10.36,12-14.7,11-10.46,24.3-17.09,38.45-22.12,1.47-.52,4-.44,4.88.47s.77,3.45.23,5a59,59,0,0,1-4,7.74c-.91,1.69-1.9,3.35-3.16,5.57,6.22-1.26,11.63-2.81,17.13-3.36,9.39-1,18.84-1.33,28.27-1.78,1.25-.05,2.54.93,3.81,1.42-.65,1.36-1,3-2,4a22.42,22.42,0,0,1-4.48,3.06,220.52,220.52,0,0,1-35,17.54c-2.85,1.13-5.66,2.37-8.49,3.56C1256.66,397.3,1256.64,397.75,1256.61,398.21Z"/><path d="M631.76,669.09c-.58,9.3-3.08,18.21-5.84,27-3.2,10.19-6.53,20.34-10.11,30.4a19.37,19.37,0,0,1-4.77,7.67c-4.08,3.7-9.62,2-11.13-3.32a14.46,14.46,0,0,1,0-7.39c4.23-15.93,8.66-31.8,13.11-47.66a103.56,103.56,0,0,1,3.57-10.25,15,15,0,0,1,2.63-4.09c2.41-2.8,5.52-3.74,8.24-2.58,3,1.29,4.29,3.73,4.28,6.93Z"/><path d="M1120.29,982.72c-12.79-.11-24.44-5.28-33.91-15.12a23,23,0,0,1-5-8.24c-1.37-4,.24-5.78,4.46-5.84a30.59,30.59,0,0,1,7,.43c12.79,2.83,25.52,5.88,34.6,16.48a20.42,20.42,0,0,1,3.37,4.89c1.81,4.12-.19,7.11-4.73,7.38C1124.54,982.8,1122.9,982.72,1120.29,982.72ZM1089.09,959c9.5,11.24,20.84,18.66,36.35,17.51C1116.93,963.48,1103,961.32,1089.09,959Z"/><path d="M1065.71,7c5.54,0,7.62,2.51,5.49,6.59-6.56,12.51-14.72,23.74-27.74,30.39-2.76,1.41-5.94,2.7-8.65.22-3-2.77-1.31-6,0-9s3.78-5.63,3.11-9.52c-.2-1.13,1.39-3,2.64-3.89q10.26-7,20.83-13.64C1062.8,7.25,1064.81,7.25,1065.71,7Zm-27,33.44c12.9-5.4,20-15.2,26-26.25-.64-.34-.8-.48-1-.48a3.45,3.45,0,0,0-1.07.13c-11.94,4-19,12.91-23.8,24A11.93,11.93,0,0,0,1038.68,40.47Z"/><path d="M99.39,717.13c-1.66,4.4-3,8.36-4.63,12.15-2.5,5.62-5,11.26-8,16.62a18.69,18.69,0,0,1-10.38,8.44c-4.72,1.66-7.76-.71-6.91-5.58a39.82,39.82,0,0,1,3-9.28c4.33-9.66,11.21-17.34,19.38-23.91C94.88,713.15,95.29,713.32,99.39,717.13ZM92,723.21C83.46,729.55,76.27,741,75.51,749,86,743.16,87.69,732.33,92,723.21Z"/><path d="M1162.38,916.53c7.6,0,15.38.46,21.78,6,1.09.94,2.54,1.85,3,3.08.61,1.74,1.08,4,.39,5.56-.52,1.17-3,2.21-4.46,2.08a91.14,91.14,0,0,1-15-2.39c-6.12-1.62-12.07-3.88-18-6.09-1.1-.42-2.48-1.93-2.49-3s1.2-2.63,2.28-3.3a12.14,12.14,0,0,1,4.66-1.33C1157,916.82,1159.56,916.74,1162.38,916.53Zm-1.11,5.54a38,38,0,0,0,18.52,4.39C1174.53,921.4,1167.72,922.34,1161.27,922.07Z"/><path d="M37.11,489.82a19.53,19.53,0,0,1-2,3.43c-6.67,7.2-13.82,13.84-22.66,18.36a22.79,22.79,0,0,1-6,2.32c-4.43.82-7.56-2.8-5.95-7a17.33,17.33,0,0,1,3.92-5.77c6.1-6.11,13.56-10.21,21.43-13.54C29.41,486.11,31,486.62,37.11,489.82ZM7,507.64c8.42-3.77,15.44-9.38,23.2-15.92C21.4,492.69,10.43,500.26,7,507.64Z"/><path d="M1162.46,952.85c6.7.89,12.75,1.67,18.78,2.52a20.83,20.83,0,0,1,14.88,9.09c2.63,3.84,1.66,6.44-2.82,7.71a11.66,11.66,0,0,1-3.22.46,36.47,36.47,0,0,1-21.93-6.93c-2.43-1.77-4.85-3.76-3.7-7.7C1164.81,956.74,1163.32,954.94,1162.46,952.85Zm28.42,14.26c-6.17-7.93-14.29-8.19-22.56-9.7C1172,962.93,1181.31,967,1190.88,967.11Z"/><path d="M703.77,349.25c0,5.48-3.7,9.51-8.9,9.66a10,10,0,0,1-10.28-9.77c-.09-5.76,3.89-9.39,10.28-9.38C700.21,339.76,703.75,343.53,703.77,349.25Z"/><path d="M1282.32,1027.67a4.61,4.61,0,1,1-9.18-.72,4.61,4.61,0,0,1,9.18.72Z"/></svg>