<?xml version="1.0" encoding="UTF-8" standalone="no"?>
<svg
   version="1.1"
   id="svg1"
   width="2548.1409"
   height="1295.7749"
   viewBox="0 0 2548.1409 1295.7749"
   xmlns="http://www.w3.org/2000/svg"
   xmlns:svg="http://www.w3.org/2000/svg">
  <defs
     id="defs1" />
  <g
     id="layer-MC4"
     transform="translate(-357.92918,-74.779747)">
    <path
       id="path8"
       d="m 0,0 c 43.036,-16.476 84.896,-29.145 111.856,-29.145 34.7,0 53.423,14.804 53.423,28.733 0,6.08 -3.714,11.908 -10.456,16.411 -6.368,4.252 -18.391,9.321 -39.502,9.321 C 92.884,25.32 52.634,21.388 0,0 m 1163.973,29.906 c -9.518,0 -21.601,-10.983 -31.533,-28.665 -10.974,-19.534 -17.524,-44.014 -17.524,-65.486 0,-11.107 1.769,-26.033 9.405,-38.708 27.506,43.496 46.468,91.192 46.468,118.654 0,14.205 -4.777,14.205 -6.816,14.205 M 431.279,72.521 c -8.231,0 -25.404,-9.426 -42.696,-34.123 -41.521,-59.297 -99.59,-168.424 -144.497,-271.549 -10.144,-23.293 -19.212,-45.349 -27.035,-65.716 64.507,79.892 122.465,166.284 169.69,239.445 31.969,49.527 44.164,80.842 48.764,98.391 5.665,21.607 2.217,30.708 -0.714,32.678 -0.85,0.572 -2.038,0.874 -3.512,0.874 M -195.746,-588.02 c -41.983,0 -77.466,6.547 -105.464,19.458 -27.546,12.702 -47.893,31.493 -60.476,55.848 -17.991,34.823 -19.643,79.31 -4.91,132.224 14.234,51.117 42.98,107.381 85.441,167.229 60.051,84.641 132.395,153.313 209.213,198.591 8.044,4.741 16.121,9.218 24.202,13.421 -64.374,27.228 -120.931,56.63 -125.301,58.912 -4.651,2.43 -6.452,8.168 -4.022,12.818 2.427,4.652 8.167,6.453 12.818,4.024 1.153,-0.603 68.25,-35.486 139.327,-64.616 49.097,22.392 97.625,34.431 140.239,34.431 20.479,0 37.787,-4.33 50.054,-12.52 12.014,-8.024 18.904,-19.764 18.904,-32.212 0,-23.72 -24.877,-47.733 -72.423,-47.733 -33.268,0 -85.559,16.958 -136.334,37.308 -12.089,-5.788 -24.71,-12.476 -37.816,-20.201 -74.529,-43.93 -144.852,-110.743 -203.365,-193.217 -82.251,-115.932 -111.099,-217.892 -79.148,-279.737 10.596,-20.508 27.941,-36.428 51.553,-47.317 25.486,-11.752 58.292,-17.711 97.508,-17.711 53.154,0 107.806,14.824 162.437,44.059 49.379,26.425 100.582,65.628 152.187,116.522 21.453,21.157 42.477,43.826 62.957,67.444 11.037,33.93 27.341,75.662 47.538,121.617 45.552,103.647 101.936,209.107 143.646,268.675 24.326,34.741 54.086,50.415 72.375,38.117 8.708,-5.856 17.25,-19.851 8.49,-53.264 -7.202,-27.473 -24.422,-62.421 -51.18,-103.877 -55.429,-85.87 -125.574,-189.871 -203.969,-280.77 -1.588,-4.977 -3.054,-9.771 -4.394,-14.37 -14.081,-48.338 -9.59,-59.758 -8.595,-61.504 2.754,0.044 11.004,2.846 29.302,27.13 14.129,18.751 30.738,45.519 48.323,73.858 29.332,47.274 62.579,100.854 99.538,143.385 44.166,50.823 85.05,75.529 124.99,75.529 13.986,0 24.044,-4.565 29.893,-13.571 15.06,-23.184 -5.297,-68.938 -26.851,-117.378 -9.487,-21.324 -19.298,-43.373 -24.966,-61.512 -6.925,-22.162 -5.444,-31.332 -2.982,-35.121 0.7,-1.078 2.831,-4.358 12.538,-4.358 11.457,0 35.038,12.3 82.312,70.896 34.368,42.6 71.658,97.801 101.62,142.156 53.524,79.233 66.149,96.233 78.238,96.233 4.245,0 7.958,-1.974 10.187,-5.414 5.62,-8.679 0.377,-21.395 -17.049,-60.283 -20.372,-45.465 -54.469,-121.561 -34.928,-151.729 6.209,-9.586 17.965,-14.245 35.943,-14.245 35.734,0 71.468,51.953 112.844,112.108 29.075,42.273 62.03,90.186 100.604,126.855 45.239,43.003 91.175,63.907 140.435,63.907 5.229,0 13.983,0 15.667,-8.438 1.034,-5.181 -1.598,-9.323 -7.821,-12.309 -2.006,-0.963 -4.745,-2.1 -8.212,-3.542 -24.379,-10.133 -81.472,-33.861 -121.258,-90.682 -28.9,-41.273 -39.344,-86.24 -25.988,-111.894 8.451,-16.236 25.904,-24.468 51.875,-24.468 38.118,0 82.93,32.539 122.948,89.274 0.014,0.02 0.028,0.04 0.043,0.06 -11.183,14.223 -17.075,33.389 -17.075,55.679 0,24.951 7.274,52.212 19.959,74.792 13.693,24.378 31.224,38.359 48.098,38.359 6.056,0 25.816,-2.394 25.816,-33.205 0,-32.114 -21.039,-85.209 -52.2,-133.171 10.862,-7.888 25.536,-11.876 43.794,-11.876 36.073,0 73.27,14.355 110.558,42.666 38.554,29.272 63.584,63.545 70.338,73.353 13.065,18.973 22.185,45.995 25.018,74.136 2.319,23.038 1.415,57.483 -16.066,90.746 -30.57,58.168 -99.855,88.914 -200.364,88.914 -63.003,0 -121.855,-10.189 -174.92,-30.283 -42.4,-16.056 -81.254,-38.448 -115.484,-66.554 -58.424,-47.975 -83.47,-96.659 -83.716,-97.145 -2.368,-4.677 -8.078,-6.556 -12.76,-4.194 -4.68,2.363 -6.564,8.065 -4.206,12.748 1.06,2.105 26.675,52.165 87.874,102.655 35.846,29.575 76.541,53.136 120.954,70.027 55.386,21.065 116.706,31.746 182.258,31.746 136.469,0 193.43,-53.878 217.182,-99.075 32.873,-62.55 19.321,-141.742 -10.122,-184.497 -9.175,-13.325 -34.802,-47.572 -74.497,-77.71 -40.668,-30.876 -81.73,-46.533 -122.047,-46.533 -22.216,0 -40.48,5.085 -54.516,15.149 -19.243,-26.89 -40.42,-49.485 -61.362,-65.455 -25.76,-19.645 -51.164,-29.606 -75.505,-29.606 -41.877,0 -60.49,18.867 -68.729,34.695 -8.648,16.613 -10.27,38.274 -4.689,62.642 5.179,22.62 16.233,46.453 31.966,68.923 25.175,35.953 57.196,59.812 84.16,75.387 -25.14,-9.384 -49.749,-25.64 -74.315,-48.993 -37.136,-35.3 -69.492,-82.343 -98.041,-123.849 -44.414,-64.574 -82.771,-120.342 -128.498,-120.342 -24.583,0 -42.041,7.71 -51.891,22.916 -25.156,38.839 8.768,114.547 33.537,169.827 2.55,5.691 5.302,11.832 7.853,17.713 -1.247,-1.676 -2.573,-3.48 -3.982,-5.424 -11.649,-16.058 -25.789,-36.991 -42.163,-61.229 -30.164,-44.653 -67.704,-100.224 -102.578,-143.45 -42.914,-53.193 -73.767,-77.967 -97.099,-77.967 -13.286,0 -22.865,4.377 -28.472,13.009 -14.549,22.397 4.484,65.173 26.524,114.706 9.657,21.705 19.643,44.149 25.42,62.769 7.103,22.896 5.474,32.505 2.856,36.535 -0.79,1.217 -3.196,4.921 -13.96,4.921 -34.112,0 -70.306,-22.567 -110.649,-68.992 -35.959,-41.381 -68.779,-94.273 -97.735,-140.939 -44.839,-72.263 -69.376,-109.972 -93.837,-109.972 -7.394,0 -13.381,3.679 -16.858,10.358 -3.4,6.531 -6.424,18.918 1.181,52.233 -12.425,-13.507 -25.022,-26.603 -37.782,-39.187 -52.902,-52.173 -105.577,-92.461 -156.563,-119.745 -57.419,-30.726 -115.086,-46.307 -171.402,-46.307"
       style="fill:#ffffff;fill-opacity:1;fill-rule:nonzero;stroke:none"
       transform="matrix(1.3333333,0,0,-1.3333333,1029.8364,586.528)" />
    <path
       id="path9"
       d="m 0,0 c -10.187,-12.282 -42.246,-29.75 -48.227,-38.292 -8.639,-12.338 -5.641,-29.343 6.697,-37.982 12.337,-8.638 29.342,-5.64 37.981,6.697 5.981,8.543 8.794,44.681 18.477,58.262 z"
       style="fill:#ffffff;fill-opacity:1;fill-rule:nonzero;stroke:none"
       transform="matrix(1.3333333,0,0,-1.3333333,2099.7079,467.82947)" />
    <path
       id="path10"
       d="M 0,0 C 9.737,27.02 -11.643,55.062 -40.277,52.843 -99.296,48.27 -83.619,89.346 -201.317,42.32 -247.799,23.748 -354.29,-93.731 -324.927,-134.269 c 29.363,-40.537 191.118,-7.294 237.6,11.278 59.756,23.876 72.299,76.398 87.125,122.429 z"
       style="fill:#ffffff;fill-opacity:1;fill-rule:nonzero;stroke:none"
       transform="matrix(1.3333333,0,0,-1.3333333,797.88707,539.58333)" />
    <path
       id="path11"
       d="M 0,0 C -19.246,-16.017 -48.587,-6.839 -55.287,17.287 -69.096,67.014 -98.094,41.947 -94.568,152.39 -93.176,196.007 -28.58,318.224 13.375,306.22 55.331,294.216 76.206,151.769 74.813,108.152 73.023,52.08 33.713,26.176 0.4,0.333 Z"
       style="fill:#ffffff;fill-opacity:1;fill-rule:nonzero;stroke:none"
       transform="matrix(1.3333333,0,0,-1.3333333,833.9048,484.17347)" />
  </g>
</svg>
