<svg xmlns="http://www.w3.org/2000/svg" viewBox="0 0 1200 800" font-family="-apple-system,Segoe UI,Helvetica,Arial,sans-serif">
  <rect width="1200" height="800" fill="#eef1f4"/>
  <rect x="120" y="80" width="960" height="640" fill="#fff" stroke="#34424b" stroke-width="4"/>
  <rect x="124" y="84" width="952" height="64" fill="#fff"/>
  <text x="148" y="126" font-size="28" fill="#111">2. parley: call play and choose target</text>
  <line x1="124" y1="148" x2="1076" y2="148" stroke="#34424b" stroke-width="4"/>
  <rect x="124" y="148" width="952" height="400" fill="#eef1f4"/>
  <line x1="124" y1="348" x2="1076" y2="348" stroke="#34424b" stroke-width="3" stroke-dasharray="16 12"/>
  <g stroke="#111" stroke-width="3">
    <circle cx="220" cy="210" r="30" fill="#fff"/><circle cx="380" cy="210" r="30" fill="#fff"/>
    <circle cx="540" cy="210" r="30" fill="#fff"/><circle cx="700" cy="210" r="30" fill="#fff"/>
    <circle cx="860" cy="210" r="30" fill="#fff"/><circle cx="990" cy="210" r="30" fill="#fff"/>
  </g>
  <circle cx="404" cy="188" r="10" fill="#e23150"/>
  <circle cx="724" cy="188" r="10" fill="#e23150"/>
  <g fill="#111">
    <circle cx="500" cy="470" r="30"/><circle cx="566" cy="470" r="30"/>
    <circle cx="632" cy="470" r="30"/><circle cx="698" cy="470" r="30"/>
  </g>
  <circle cx="524" cy="448" r="10" fill="#e23150"/><circle cx="590" cy="448" r="10" fill="#e23150"/>
  <circle cx="656" cy="448" r="10" fill="#e23150"/><circle cx="722" cy="448" r="10" fill="#e23150"/>
  <g fill="#111">
    <circle cx="200" cy="500" r="30"/><circle cx="320" cy="500" r="30"/>
    <circle cx="880" cy="500" r="30"/><circle cx="1000" cy="500" r="30"/>
  </g>
  <g font-size="30" font-weight="800" text-anchor="middle">
    <text x="220" y="221" fill="#111">1</text><text x="380" y="221" fill="#111">2</text>
    <text x="540" y="221" fill="#111">3</text><text x="700" y="221" fill="#111">4</text>
    <text x="860" y="221" fill="#111">5</text><text x="990" y="221" fill="#111">6</text>
    <text x="500" y="481" fill="#fff">1</text><text x="566" y="481" fill="#fff">4</text>
    <text x="632" y="481" fill="#fff">5</text><text x="698" y="481" fill="#fff">8</text>
    <text x="200" y="511" fill="#fff">2</text><text x="320" y="511" fill="#fff">3</text>
    <text x="880" y="511" fill="#fff">6</text><text x="1000" y="511" fill="#fff">7</text>
  </g>
  <line x1="124" y1="548" x2="1076" y2="548" stroke="#34424b" stroke-width="4"/>
  <rect x="124" y="550" width="952" height="56" fill="#111"/>
  <rect x="148" y="576" width="904" height="4" fill="#fff"/>
  <rect x="330" y="568" width="4" height="20" fill="#fff"/>
  <rect x="560" y="568" width="4" height="20" fill="#fff"/>
  <rect x="800" y="568" width="4" height="20" fill="#fff"/>
  <rect x="1048" y="568" width="4" height="20" fill="#fff"/>
  <rect x="238" y="568" width="20" height="20" fill="#fff"/>
  <line x1="124" y1="606" x2="1076" y2="606" stroke="#34424b" stroke-width="4"/>
  <rect x="160" y="630" width="880" height="60" fill="#eef1f4" stroke="#34424b" stroke-width="3"/>
  <path d="M 590 645 L 590 675 L 616 660 Z" fill="#111"/>
</svg>
