<svg fill="#000" xmlns="http://www.w3.org/2000/svg" viewBox="0 0 2834 1865"><path d="M601.3 64.7c.5.7-.3 1.9-1.8 2.9-2.1 1.3-3.9 1.5-9.5 1-10-1-18.6.7-21.7 4.5-1.7 1.9-3.4 2.9-5.3 2.9-1.5 0-3.3.7-4 1.5-.7.9-2.9 1.5-5.5 1.5-2.3 0-5.7.3-7.4.6-2.7.6-3.2 1-2.7 2.9.4 1.4-.1 2.8-1.3 3.9-1.5 1.4-2.6 1.5-6.2.7-2.4-.6-6.1-1.1-8.1-1.1-3.1 0-3.8.4-3.8 2 0 1.2-1.5 2.9-3.8 4.4-2 1.3-4.3 3.1-5.1 4-.7.9-2 1.6-2.7 1.6-.8 0-1.4.6-1.4 1.3 0 2.3-4.5 5.7-7.4 5.7-1.6 0-2.6.5-2.5 1.2s-.1 2.1-.5 3-.3 2.5.3 3.6c1.2 2.3.1 3.6-4.3 4.6-1.6.4-3.8 1.8-4.8 3.2-1.1 1.3-2.5 2.4-3.2 2.4-1.6 0-8.3 6.6-11.2 11-2.9 4.6-9.1 10.8-14.1 14.3-2.8 2-4.4 4.1-5.2 6.7-.7 2.3-2.4 4.8-4.1 6s-3 2.8-3 3.6-1.1 3.1-2.4 5.2c-3.4 5.5-6.6 12.3-6.6 14.3 0 1-.5 2.1-1 2.4-1.4.9-6.2 8.4-6.4 10.1-.1.7-.9 2.1-1.8 3.1-.8 1-2.4 3.6-3.4 5.8s-2.9 5.4-4.3 7.2c-1.9 2.4-2.5 4.2-2.3 6.7.3 2.7-.3 4.1-2.3 6.2-1.4 1.4-2.5 3.3-2.4 4.2.4 3.3-1.4 7.3-4.2 9.3-1.6 1.1-2.8 2.3-2.7 2.7s-.5 2.3-1.4 4.2-1.9 5.6-2.3 8.2c-.3 2.6-1 5-1.5 5.3-.4.3-1.1 2.2-1.5 4.3-.3 2-1.7 5.5-3.1 7.7-1.3 2.2-2.6 4.7-3 5.5-1.3 3.4-2.2 4.5-4.2 5.5-1.6.7-1.9 1.5-1.5 3.7.3 1.5 0 3.4-.6 4.1-.6.8-.8 1.7-.5 2 .4.4-.5 2.3-2 4.2-1.5 2-2.5 4.2-2.3 4.9.6 1.4-1.3 8-2.6 9.2-.4.4-.7 1.8-.7 3.1s-.4 3.1-.9 4.1c-.5.9-1.5 3.7-2.1 6.2-.7 2.5-2.2 5.8-3.3 7.5-2.6 3.5-2.6 3.6-3.2 15-.4 6.9-1.1 10.2-3.1 14.3-2.1 4.3-2.3 5.6-1.4 6.8 1 1.1 1 1.8-.4 3.2-.9 1-1.6 3.1-1.6 4.6s-.5 3.7-1.1 4.8c-.6 1.2-1.3 3.5-1.5 5.2-.7 5.5-1.5 9-3 12.3-.8 1.7-1.4 3.7-1.4 4.4s-.9 2.2-2 3.4c-2.6 2.8-3.6 7.5-1.6 7.5 3.2 0 3.8 2.6 1.7 8.7-1.1 3.3-1.7 6.9-1.4 8.1s-.1 2.9-.8 3.8c-.8.9-1.5 4.2-1.5 7.3-.1 3.1-.9 6.9-1.8 8.5-1 2.1-1.3 4.3-.9 7.3.4 2.8.1 5.3-.7 6.8-1 1.9-1 2.7-.1 3.9 1 1.2.9 2.1-.3 4.5-2.2 4.2-2 8.1.6 10.8l2.1 2.3-2.2 2.4c-1.2 1.3-2.3 3-2.5 3.7-.1.8-.5 2-1 2.7-.4.7-.5 1.6-.2 1.9.3.4-.1 1.4-1 2.4s-1.4 2.5-1.1 3.2c.3.8.1 1.9-.5 2.5s-.6 1.2.1 1.6c.8.5.8 1.3 0 2.8-.6 1.1-.9 3.3-.5 4.8.3 2-.1 3.3-1.4 4.5-2.4 2.2-2.5 3.3-.4 7.3 1.4 2.9 1.4 3.7 0 9.3-1.9 7.3-1.9 8.7-.3 11.9 1.2 2.3 1 2.9-2 6.6-3.4 4.2-4 6.3-2.4 7.9.5.6 1.3 3.1 1.9 5.7 1 4.8.2 6.8-2.5 6.8-1.7 0-1.7 2.5.1 3.9 2 1.7 1.5 10.5-.9 13-1.5 1.7-1.6 2.3-.5 3.6 1.7 2 2.1 8.6.6 10.4-.7.9-1.1 6.3-1.1 14.7 0 10.3-.4 13.6-1.6 15.1-.9 1.2-1.4 3.6-1.3 6.8.1 3-.4 6-1.3 7.4-1.4 2.2-2 8.2-1.5 16.6.4 7.4.2 8.4-2.4 10.4-2.2 1.7-2.4 2.3-1.4 3.6 1 1.2 1 1.8 0 3s-1 1.8 0 3c1.1 1.3.9 2-.9 3.8-2.5 2.7-2.6 3.5-.7 5.6 1 1.2 1.1 3.3.6 8.1-.5 4.7-.3 7.3.7 9.3 1 1.9 1.1 3.3.3 4.6-1.8 3.6-.6 24.7 1.6 27.2.8.9 1.1 1.9.7 2.2-.3.4.3.7 1.4.7s2.6.7 3.3 1.5c1.8 2.1-1.4 5.5-5.1 5.5-1.5 0-3.1.5-3.5 1.1s-.7 5.5-.8 10.8c0 5.3-.5 10.2-.9 10.8-.5.8-.1 2.5.9 4.3 1.8 2.9 1.8 3-.9 5.8-3.1 3.3-3.5 6.2-.9 6.2 2.4 0 4.6 2.5 6 6.7 1 2.9.8 3.5-1.2 5-3 2.4-4.6 5.5-4.6 9 0 1.6-.7 3.9-1.7 5.2-1.2 1.9-1.4 2.8-.5 4.2.7 1 .9 2.5.6 3.3s-.1 1.7.5 2.1c1.6.9 1.3 6.7-.4 10.8-1.3 3.2-1.3 3.6.5 5.2 1.7 1.5 1.9 2.6 1.3 7.9-.3 3.3-1 6.7-1.6 7.4-.7.9-.5 1.8.6 3 1 1 1.8 4.1 2 7.3.2 2.9.9 6.6 1.5 8.1.7 1.7.8 3.7.3 5-1.1 3-.4 25.3.8 27.7.7 1.2.5 2.6-.5 4.7-1.2 2.2-1.3 3.8-.6 6.9.6 2.4.7 6 .2 9-2.1 12.3-3 15.9-4.3 17.4-.8.9-1.7 2.4-2 3.4-.4.9-1.7 2.2-2.9 2.8-7.6 3.4-15.8 10.2-15.8 13.1 0 2-2.6 5.2-13.7 16.5-2.9 3-6 6.7-6.8 8.3s-2.5 3.6-3.7 4.4c-3.8 2.7-15.8 14.8-15.8 16 0 .6-2 3.1-4.5 5.6-6.8 6.8-12.1 13.1-13.9 16.7-.9 1.8-2.2 3.6-3 4-.7.4-2.1 2.1-3 3.8-.9 1.6-2.7 4.8-3.9 7-1.2 2.1-4.5 5.7-7.4 8-2.8 2.2-5.2 4.5-5.2 5.2-.1.6-1.5 2.3-3.2 3.7s-2.8 3-2.4 3.6c.8 1.2-5.4 9-7.2 9-.7 0-1.3.7-1.3 1.6 0 2.4-3.9 7.4-5.7 7.4-1.4 0-1.4.2.1 1.9 1.7 1.9 1.7 2-1.1 3.7-1.5 1-4.9 3.5-7.4 5.6s-5.3 3.8-6.2 3.8c-1 0-2 .8-2.4 1.7-.8 2.6-12.5 13.6-16.7 15.8-2 1.1-3.6 2.6-3.6 3.4s-.8 2.4-1.9 3.5c-1 1.2-2.8 5-3.9 8.5l-2 6.5 2.4 3.1c2.4 3.2 7.7 5.5 12.7 5.5 1.3 0 3.5.8 4.7 1.8 2 1.6 2.1 1.9.6 3.1-.9.7-1.6 1.7-1.6 2.1s5.4 1.1 12.1 1.5l12.1.7 4.1-4c2.3-2.2 4.7-3.8 5.3-3.5 1.7.6 15.3-12.6 16.9-16.4.8-1.9 2.3-3.7 3.4-4 2-.5 3.6-3.1 4.5-7.5.4-1.7 2.4-4 5.4-6.2 10.7-7.9 13.1-10.1 13.1-12.4.1-2.8 8.1-10.9 11.2-11.4 1.3-.1 2.4-.8 2.4-1.3 0-.6.4-1.6.9-2.3.5-.8.4-1.8-.3-2.5-1.5-1.5 4.5-7.7 7.3-7.7 1.2 0 2.6-.4 3.1-.8 1.6-1.2 10.5-13 10.5-13.9 0-1.8 4.6-5.1 7.5-5.5 2.4-.2 2.9-.7 2.7-2.5-.5-3.3 2.4-8 6.9-11.3 2.2-1.6 5.3-4.6 6.8-6.7 6-8.2 12.5-11.7 15.4-8.5 2.4 2.8 2.9 5.8 1.2 7.2-2 1.6-1.9 5.4.1 7.1 1.2.9 1.4 2.3.9 5.3-.3 2.3-.9 6.8-1.2 10.1s-.9 6.8-1.4 7.8c-.7 1.2-.5 2.4.5 3.8 1.1 1.7 1.2 2.6.3 3.9-.8 1.4-.8 2.2.1 3.3s.8 1.8-.8 3.2c-2.4 2.2-2.5 3.8-.5 5.5.9.8 1.3 2.1.9 3.2-.3 1.1.1 2.7.9 3.6 1.2 1.4 1.3 2.6.3 7.2-.6 3-1.5 6.1-1.9 6.7-1.2 1.9 1 8.6 3.3 10.1 2.5 1.5 2.6 4.3.1 7.3-1.8 2.2-1.8 2.6-.4 4.1 1.5 1.6 1.5 2.1 0 5.5-.9 2.1-1.9 6-2.3 8.8-.3 2.7-1.2 5.7-1.9 6.5-2.2 2.6-2.3 4.4-.4 6.5 1.5 1.7 1.6 2.7.7 6.9-.7 3.5-.7 5.5.1 7.3.7 1.6.9 5 .5 9-1.1 11.6-1.1 17.7 0 20.1.7 1.7.7 2.9-.2 4.3-1.5 2.4-1.6 8.1 0 9.7.8.8.8 1.5-.1 2.6-1 1.2-1 2.1.3 4.7.9 1.8 1.2 3.7.8 4.3-1.8 2.4-3.4 9.6-2.8 12.3.9 3.8.9 4.2-.5 8.9-.7 2.3-.9 5-.5 6 1.1 2.7 1.4 11.5.5 14-.4 1.1-.9 5.9-1 10.5-.2 5-.9 9.3-1.8 10.7-1.2 2-1.2 2.5.4 4.2 1 1.1 1.5 2.5 1.2 3.3-.2.7.1 2.1.8 3.1.9 1.2 1.1 2.7.5 4.6-.4 1.6-.6 3.1-.3 3.4s.1 1.2-.6 2c-.8.9-1.2 6.2-1.2 15.2 0 7.7-.5 15.1-1.1 16.6-.8 2-.7 3.6.1 5.7 1.3 3 1.4 8.2.5 17.1-.6 5.7-.8 10.4-.5 18 .2 6.5-1.6 21.6-2.9 24.1-.6 1.1-.9 2.8-.6 3.6.4.9.1 2.2-.6 3.1-1.1 1.3-1.5 3.8-1.7 12.7-.1 2.4-1.9 9.1-3.3 12.2-.6 1.1-.7 2.6-.3 3.3.9 1.5 1.3 10 .4 10.5-.6.4-1.5 3.5-2.6 9-.7 3.4-.3 8.9.7 9.9.7.7.1 2-1.7 3.8-2.6 2.7-2.6 2.8-.8 4.8 1.7 1.9 1.7 2.1.1 3.9-1.2 1.3-1.5 2.7-1 4.5.3 1.4 1 2.4 1.4 2.1s1.3.2 1.9.9c.9 1 .9 1.6.1 2.1-.6.4-.8 1.6-.4 2.7.4 1.5-.2 2.8-2.6 5-3.1 2.7-3.1 3-1.5 4.7 1.1 1.3 1.3 2.1.6 2.6-.6.3-1.1 1.4-1.1 2.3s-.7 2.9-1.4 4.4c-1.1 2-1.3 5-1 11.1.4 5.9.1 9.6-1 12.7-.8 2.4-1.3 4.7-1 5.2.3.4.2 1.4-.3 2.1-.4.6-.8 3.2-.8 5.7 0 3.7-.4 4.6-2.5 5.7l-2.4 1.2 2.6 1c3.6 1.3 4.3 2.9 2.4 5-.9 1-1.6 2.2-1.6 2.8 0 .5-.9 1.8-2 2.8-1.3 1.1-1.8 2.5-1.4 3.9.3 1.4-.3 3.2-1.7 5-1.8 2.3-2 3.1-1 5.3.8 1.8.9 2.9.1 3.7-.5.5-1 1.9-1 3.1s-.6 2.7-1.2 3.3c-1 1-1 1.7 0 3.3 1.2 1.8.9 2.6-2.2 6.4-2 2.4-3.6 4.8-3.6 5.3s-.7 1.5-1.5 2.2c-1 .8-1.5 3.1-1.5 6.7 0 5.6-1 8.3-6.2 15.7-1.6 2.1-2.8 4.9-2.8 6.1 0 1.1-.7 3-1.5 4.1-.8 1-1.5 3.1-1.5 4.5 0 1.5-.7 3.2-1.5 3.9s-1.5 2.3-1.5 3.5c0 1.3-1.6 6.1-3.5 10.6-1.9 4.6-3.5 9-3.5 9.9 0 .8-1.1 3.2-2.4 5.1-1.8 2.7-2.2 3.9-1.4 4.7.9.9.7 1.7-.7 3.2-1.2 1.3-1.8 3.3-1.7 5.2.2 2.8-.7 5.7-4 12.5-.9 1.8-.6 2.6 1.8 4.7 1.6 1.4 3.8 2.8 4.9 3.2s3.3 1.6 4.9 2.7l2.9 2-2.8 2.3c-2.5 2-2.8 2.9-3 9.5-.3 6-.7 7.7-2.4 9l-2.1 1.7 2.5 1.6c1.3.9 3.3 1.6 4.3 1.6s2.9 1.1 4.2 2.5c2.1 2.2 2.2 2.9 1.2 4.5-.7 1.1-1.2 2.2-1.2 2.5 0 1 7.9.5 10.5-.7 2.8-1.2 3-1.9 1.4-3.5-1.9-1.9 3-4 10.9-4.6 4.9-.4 8.1-1.2 10-2.6 1.6-1.1 3.9-2.1 5.3-2.3 2.8-.4 5.9-2.4 14.2-9.5 3.4-2.9 8.1-6.8 10.4-8.5 2.3-1.8 4.7-4.5 5.2-6.1.6-1.5 1.7-3 2.6-3.3.8-.3 1.5-1.4 1.5-2.3 0-1.9 5.9-8.1 7.8-8.1.6 0 1.4-1.1 1.8-2.5.3-1.4 1.5-3.2 2.6-4 2-1.3 3.7-3.8 5.7-8.2.6-1.2 2.2-2.9 3.6-3.9 1.4-.9 2.5-2.2 2.5-2.8 0-.7 1.6-2.7 3.5-4.6s3.5-3.9 3.5-4.5 2.4-3.4 5.3-6.3c5-4.9 5.5-5.2 10.4-5.2q8.4 0 4.8-3c-.8-.7-1.5-2-1.5-3 0-1.8 5.2-9.3 10.3-14.7 1.6-1.7 2.6-3.6 2.2-4.2-.3-.6 1.6-3.4 4.4-6.3s5.1-6 5.1-6.9.6-2.1 1.3-2.7c1.9-1.6 9.8-4.4 13.9-4.9 2.1-.3 3.5-.9 3.2-1.4-.2-.5.1-2.7.7-4.9 1.1-3.7 1-4.2-1-6.4-1.5-1.5-1.9-2.6-1.2-3.1.8-.4.7-1.3-.4-2.8-1.3-1.9-1.3-2.3.1-3.8.9-1 2.2-1.5 3-1.2.9.3 1.4 0 1.2-.7-.4-1.7 4.6-4.6 10.7-6.2 2.8-.7 5.5-2 6.2-2.8 1.2-1.5 1.2-4.8 0-6.7-.4-.6-.2-1.5.3-1.8.6-.4 1.5-1.7 2-3s4.4-4.9 8.7-8.1 10.9-9 14.7-12.8c6.9-7 7-7.1 7.2-12.9.1-3.8.7-6.4 1.8-7.6 1-1.1 1.9-3.9 2.1-6.3.1-2.3.6-5.5 1-6.9.4-1.7.2-3-.5-3.4-.8-.5-.6-1.4.5-3.2 1.1-1.7 1.5-3.6 1.1-5.6-.3-1.6-.1-3.6.5-4.3 1.8-2.2 2-9 .4-10.4-1.1-.9-1.2-1.7-.4-3.2.7-1.4.7-2.3-.2-3.4-.6-.8-.9-1.7-.6-2.1.4-.3.2-1.2-.4-2-.9-1-.7-2 .6-3.9.9-1.5 1.9-4.1 2.1-5.8.3-1.7.7-4.1.9-5.3.3-1.2 0-2.5-.6-2.9-.7-.4.5-2.1 3.2-4.4l4.4-3.8-2.4-2.6c-2.4-2.5-2.4-2.6-.6-4.6s1.8-2.1-.5-4.5-2.3-2.5-.5-4.5c1-1.1 2.3-1.7 2.9-1.3s.5-.1-.2-.9c-2.3-2.9-1.1-7.1 2.6-8.7 3.9-1.8 4.1-3.3.6-5.6-2-1.3-2.3-1.9-1.3-3.1.9-1.1.9-1.7-.1-2.9-.7-.8-.9-1.5-.6-1.5.4 0-.5-1.1-2-2.3l-2.7-2.4 3.1-2.3c2.6-1.9 3-2.8 2.5-5.2q-.6-2.85 1.2-4.8c.9-1 1.4-2.3 1.1-2.9-.4-.6 0-2.4.9-4.1 1.2-2.3 1.3-3.5.6-4.4-.8-1-.7-1.7.5-2.6.8-.8 1.3-2.2 1.1-3.1-.3-1 .2-2.4.9-3 .8-.7 1.3-1.8 1-2.6-.3-.7 0-2.4.6-3.8.9-2.1.8-2.8-.8-4.6-2.2-2.5-2-6.1.7-10.7 2.4-4.1 1.7-12.2-1.1-12.2-3.7 0-4.3-2.6-1.6-6.8 1.6-2.6 2.3-4.7 1.9-6.2-.5-1.8.3-3 3.3-5.5 3.7-3.2 3.9-3.5 3.7-8.9-.2-4.9-.6-6-3.2-8.2s-2.9-2.8-1.9-4.9c.8-1.8.7-2.8-.6-4.6-1.5-2.2-1.4-2.4.6-4.6 1.7-1.8 1.9-2.5.9-3.7-.9-1.1-1-2-.1-3.6.6-1.2 1-3.1.9-4.3s.1-3 .5-3.9.4-2.3 0-3c-1.1-1.8-1.3-7.8-.2-8.4 1.2-.8-1-4.3-4.4-7.2-2.6-2.2-2.7-2.6-1.4-4.1 1.2-1.4 1.2-2.2.1-5.6-1.3-3.5-1.2-4.1.2-5.7.9-1 1.3-1.8.9-1.8s.5-1.6 2-3.6c2.5-3.2 3.1-3.5 6.3-2.9 4.4.8 6.4 2.3 5.8 4.5-.3 1.1 1.7 3.2 6 6.4 3.5 2.6 6.2 5.3 6 5.9-.2.7-1.6 1.8-3 2.5-1.5.7-2.7 1.7-2.7 2.1 0 2 4 4 9 4.7 4.7.6 6.1 1.3 9.8 5 2.4 2.4 4.1 4.8 3.8 5.3s.1 1.4.9 2.1 1.5 1.8 1.5 2.4.9 1.7 2 2.4 2 1.8 2 2.6c0 1.4 5.1 9.9 8.9 14.7l2 2.6-2.7 2.7c-2.6 2.6-2.6 2.8-.8 3.9 4.9 3.1 6.6 4.9 5.7 6.1-1.5 1.8-1.7 6.2-.3 7.9.7.8 1.4 2.6 1.6 4 .1 1.3 2.1 4.1 4.5 6.2 4.1 3.7 4.3 4.1 3.8 8.4-.4 3.6-.1 4.7 1.6 6.1 1.1.9 2.1 2.5 2.2 3.6.1 1 .9 3.3 1.8 5.1s1.7 4.2 1.7 5.5.6 3.2 1.4 4.3c.7 1.1 1.7 4.7 2.1 8s1.5 7.6 2.4 9.5c1.6 3.1 1.6 4.4.6 11-.9 5.8-.9 8.3 0 11 .7 1.9 1 4.1.8 4.7-.3.7.5 2.5 1.6 3.9 1.2 1.5 2.1 3.9 2.1 5.3 0 1.5.7 3.7 1.6 4.9.9 1.3 1.3 2.9 1 3.7-.2.7.2 1.9 1 2.6 1 .8 1.4 2.6 1.3 4.8-.3 4.5.7 8.4 3.8 13.8 1.2 2.3 2.3 4.8 2.3 5.6s.7 2 1.5 2.7c.9.7 1.5 2.9 1.5 5.4 0 2.3.9 5.5 2 7.4 1.5 2.3 2 5 2 9.7 0 6.2.1 6.5 3.6 9.1 3 2.3 3.5 3.2 3 5.5-.3 1.6-.1 3.1.4 3.4.6.3 1 2.8 1 5.5 0 4.5 2.3 10.5 5.1 13.5.5.5.9 2.8.9 5.2 0 3.6.4 4.5 2.3 5.2 3.1 1.2 4.2 2.8 5.5 8.3.7 2.5 1.7 5.9 2.4 7.5.6 1.5 1.2 3.5 1.3 4.3.2.8 1.2 3.4 2.5 5.8 1.2 2.3 2 4.8 1.7 5.6s.3 2.2 1.4 3.2c1 .9 1.9 2.9 1.9 4.3s.7 3.5 1.5 4.5c.8 1.1 1.5 3 1.5 4.2s.7 2.7 1.5 3.4 1.5 2.1 1.5 3.2c0 1 1 3.2 2.1 4.8 1.2 1.5 2.1 4.1 2.2 5.6 0 1.7.9 3.5 2.5 4.9 2.4 2.1 2.4 2.3.9 4.5s-1.4 2.4 4.9 8.6c3.6 3.5 6.3 6.7 6 7.2s.9 2.5 2.5 4.6c1.7 2 2.8 4.3 2.5 5.1-.3 1 .1 1.5 1.4 1.5 2.6 0 8 6.8 8 10.1 0 1.5.7 3.2 1.5 3.9s1.5 1.9 1.5 2.6c0 .8 1.1 1.9 2.4 2.4 1.5.5 3.2 2.7 4.5 5.4 1.1 2.6 2.4 4.6 2.9 4.6s3.4 2.5 6.5 5.5c4.1 4 5.8 6.5 6.3 9.2.4 2.1 1.6 4.4 2.6 5.2 1.3.9 1.8 2 1.4 3.5-.6 2.5 2.9 6.3 10.1 10.9 3.1 2 5 4.3 7.5 9.4 2.9 5.9 3.7 6.9 6.8 7.6 4.1 1 7 3.3 7 5.6.1 2.4 4 6.5 8.5 8.6 5 2.5 10.5 6.5 10.5 7.6 0 .5 1.4 2.2 3.2 3.7 1.7 1.5 5.3 4.7 7.9 7.2 3.6 3.5 5.6 4.6 8.5 4.8 4.3.3 10.4 5.2 10.4 8.4 0 1.1.5 1.5 1.5 1.1 2-.7 5.7 2.6 5 4.5-1 2.7 3.5 4.7 10.9 4.7 5.8 0 7.1.4 8.6 2.2 1.1 1.4 2.4 2 3.7 1.7 1.4-.4 2.7.4 4.6 2.9 2.6 3.5 5 4.3 14.3 5 1.7.1 3.8.8 4.7 1.6 1.2.9 3.4 1.2 7.2.9 3.1-.3 5.8-.1 6.1.3 1 1.8 8.1 4.4 11.6 4.4 2.8 0 4.2-.6 5.4-2.3 1.6-2.3 6.7-3.1 7.9-1.2.3.5 2 1 3.7 1s4 .8 5 1.7c1.1 1 3.9 2.2 6.4 2.9 3.6.9 4.6.8 5.6-.4q1.2-1.35 4.5-.9c3 .5 3.7.1 6.9-3.8 3.1-3.7 4-4.2 5.5-3.2 2.2 1.4 6.5-.6 7.2-3.4.3-1 1.2-2.2 2.1-2.5 2-.8 5.6 2.2 5.6 4.6 0 1 .6 2.3 1.4 3 .8.6 1.6 2.3 1.8 3.7.2 1.5.9 2.9 1.7 3.1 1.1.4 1.3-.6.8-5.1-.7-6.9.2-7.7 8-8.1 3.2-.1 7.1-.8 8.6-1.4 3.5-1.5 6-1.5 7.4-.1.8.8 1.5.3 2.5-1.7.9-2 2.3-3.1 4.3-3.4 2.1-.4 3-1.1 3.1-2.5 0-1.1.5-3.1 1.1-4.5.8-1.9.8-2.9-.3-4.1-1.2-1.3-1-1.9 1.4-4.2 1.6-1.5 3.9-2.7 5.3-2.7 3.7 0 5.3-1.4 3.5-2.9-1.1-1-1.3-1.8-.6-3.1 1.5-2.8 12.7-11 15-11 1.1 0 2-.4 2-.9 0-1.3-6.8-1.9-8-.7-.6.6-1.5.4-2.5-.4-1.2-1-1.3-1.6-.4-2.7.7-.8 1.8-1.2 2.5-.9s2.9-1.1 5.1-3c3.8-3.5 3.8-3.5 1-2.9-3.5.7-5.7-.9-4.9-3.7.5-1.9.2-2-3.4-1.4-2.1.4-4.6 1.4-5.5 2.2-1.1 1-2.6 1.3-4.3.8-1.5-.3-4-.1-5.7.6-2.7 1.1-3.3 1-5.8-.8-2.7-2-2.8-2-4 0-.6 1-2 1.8-2.9 1.7s-3-.1-4.6 0l-2.8.1 2.2 1.8 2.1 1.7-2.1 2.8c-2.5 3.2-7.5 3.4-9.4.5-1.4-2.2-3.4-2.3-7.6-.2-2.5 1.3-3.7 1.4-5.1.6-1.4-.9-2.6-.8-5.3.3-2.6 1.1-4.2 1.2-6.1.5-1.5-.6-3.7-1-4.9-1-2.5 0-8.3-6.5-7.8-8.6.1-.7-1.3-2.7-3.2-4.5s-3.3-3.6-3-4.1c.9-1.3-4.8-9.4-8.2-11.6-3.3-2.2-3.6-4-1.5-9.6.8-2 .9-3.2.1-4-.5-.5-1-1.6-1-2.4 0-.7-1.4-3.1-3.1-5.2-2.2-2.8-2.9-4.4-2.4-6 .4-1.2.1-2.7-.6-3.6-.9-1.1-.9-1.8-.1-2.6 1.5-1.5-1.4-3.7-4.9-3.8-3.3 0-5.4-2.1-3.7-3.8.7-.7 1.8-1.2 2.5-1.2 2 0 1.6-.6-2.9-5l-4.3-4 3.2-2.9c2.7-2.5 2.9-3.1 1.7-4.1-.7-.7-1.1-1.6-.8-2.1.2-.5-.2-2.2-1.1-3.9-1.2-2.4-2.2-3-4.8-3-1.8 0-4.4-1-6-2.3-2.7-2.1-2.8-2.3-1.3-5.1 1.6-3.2 1.4-3.7-5.5-12.6-2.7-3.4-5.5-9.7-6.6-15-.3-1.4-1.1-3.2-1.8-4-1.2-1.4-3.1-7.5-4.2-13.1-.3-1.7-1.6-3.1-3.6-4-2.2-.9-3.3-2.2-3.5-3.9-.2-1.4-1.1-3.3-2-4.3-1.3-1.5-1.4-2.2-.3-3.8 1.1-1.8.8-2.6-2.6-6.6-7.5-9-8.4-10.3-7.9-11.2.3-.5.2-2.2-.3-3.7-4.1-13.6-6.7-21.2-7.8-22.9-.7-1.1-1.3-2.8-1.3-3.9 0-1-1.5-3.7-3.3-6-4.5-5.5-5.1-7.5-3.1-9.7 1.6-1.7 1.5-2.2-.5-7-1.3-2.8-2.4-7.7-2.5-10.8-.3-5.8-1.7-10.4-3.5-11.6-.6-.3-1.1-1.4-1.1-2.4s-1.9-3.7-4.2-6c-3.7-3.6-4.1-4.4-3-6.1.6-1.1 1.2-4.8 1.2-8.3 0-5.5-.3-6.7-2.5-8.7-2.7-2.5-3.1-5-1.4-7.8 1-1.5.7-2.3-1.5-4.5-1.5-1.5-2.4-3.2-2.1-3.8.4-.5.1-1.6-.5-2.4-.8-.9-.8-2-.2-3.1.5-1 .7-3.4.5-5.4-.3-2.2-.1-4 .6-4.4 1.8-1.1 1.3-3.6-.8-3.6-3.8 0-8-7.9-8.1-15.5-.1-7.3.5-8.4 5.4-10 1.9-.5 1.9-.6-.2-2.1-1.2-.8-2.2-2.2-2.2-2.9 0-.8-1.3-2.1-3-3-1.6-.8-4.4-3.6-6.1-6.3-1.8-2.6-4.1-5.3-5.1-6-1.6-1.2-1.7-1.6-.3-4.2.8-1.6 2.4-3.5 3.5-4.3 2.3-1.6 1.7-2.7-1.6-2.7-1.5 0-2.2.5-1.8 1.3.3.8-.2 2-1.1 2.7-2 1.7-5.2.1-4.7-2.3.1-.9-.2-1.8-.8-2.2-.5-.3-1-2.7-1-5.2 0-3.8-.6-5.2-3.5-8.5-2-2.1-4.1-5.1-4.8-6.6-.6-1.5-2.7-4.1-4.7-5.8-2.7-2.5-3.2-3.4-2.3-4.5 1.9-2.3-1.8-5.9-6-5.9-2.9 0-4.1-.7-6.6-3.7-1.7-2.1-3.1-4.3-3.1-5.1 0-.7-1.6-2.7-3.5-4.4-2.3-2-3.4-3.6-3-4.7.4-1.3-.6-2-4.2-2.9-6-1.6-7.7-3-6.2-4.8.6-.8 1.8-1.4 2.5-1.4 2 0 1.7-1.3-.7-2.8-1.3-.9-1.9-2-1.6-3.2.3-1.1-.3-2.6-1.4-3.6-2-1.8-2.5-5.9-1-8.3.7-1.1 0-2.8-2.2-5.9-1.8-2.5-3.7-4.6-4.3-4.9-.7-.2-2.9.3-4.9 1.1-2.9 1.2-4.1 1.3-5.2.5-.7-.7-1.1-1.4-.9-1.7.3-.2-2-3.4-5.1-6.9-5.3-6-6-6.5-9-6-1.8.3-3.5.1-3.8-.4-.4-.5-1.5-.9-2.7-.9-3.3 0-10-5.9-9.3-8.1.7-2.1-.5-2.5-2.2-.8-1.6 1.6-6.5.6-7.7-1.6-.6-1.1-1.9-2.6-2.8-3.3s-1.5-1.9-1.2-2.6c.3-.8-.4-1.6-1.9-2-1.3-.3-4.1-1.9-6.2-3.6-2.1-1.6-4.7-3-5.9-3s-3.7-1.6-5.6-3.5c-1.8-1.9-6.1-4.8-9.4-6.5-3.4-1.7-7.9-4.4-10.2-6.1-3-2.3-5.8-3.3-11-4-10.6-1.4-21.7-4.4-22.8-6.1-1.2-2 2.6-7.6 6.2-8.9 2-.8 3.1-.6 5.1.9 1.4 1 4 2.6 5.6 3.4 2.8 1.5 3.2 1.5 5.3-.2 1.2-1 2.2-2.3 2.2-2.8 0-1.6 2.7-3.4 3.5-2.2.3.5 1.5 1 2.7 1 1.1 0 3.3.8 4.9 1.7 2.9 1.7 3 1.7 5.2-.9 1.2-1.4 3.5-2.9 5-3.2 3.5-.8 7.8-5.5 7.3-7.9-.5-2 2.9-4.7 6-4.7 2.2 0 10.6-6.2 11.3-8.4.7-2.1 3.6-4.8 6.6-6 2.9-1.3 6.1-4.2 10.3-9.6 1.6-1.9 2.3-2.2 3.4-1.2 1.1.9 1.9.8 3.6-.4 1.2-.8 2.2-2.1 2.2-2.8 0-2.5 9.1-11.7 10.9-11.1 1.1.3 3.7-1.3 7.3-4.5 3.1-2.7 6.3-5 7-5 .8 0 2.5-1.2 3.9-2.6 1.3-1.5 3.8-3.3 5.6-4 2.6-1.1 3.1-1.8 3-4.7-.1-2.6.8-4.5 3.6-7.7 2-2.4 3.7-5.4 3.7-6.6 0-3.2 5.4-9.1 9-9.9 3.1-.7 20.4-14.8 23-18.8.8-1.2 2.4-3.8 3.5-5.6s3.2-4.9 4.8-6.8c1.5-2 2.7-4.1 2.7-4.8 0-.6 4-5 9-9.6 4.9-4.6 9-8.9 9-9.6 0-2.1 5.2-5.3 8.7-5.3 4.1 0 7.8-3.6 8.8-8.3.4-1.8 1.8-4.4 3.2-5.9s3.1-3.7 3.7-5c.9-1.7 2-2.3 4.4-2.2 3.1.2 3.6-.4 3.3-3.7-.1-.9 1.2-3.1 2.9-4.9 1.6-1.7 3-3.7 3-4.4 0-2.5 2.8-8.7 4.8-10.9 1.2-1.3 2.2-3.3 2.2-4.5 0-1.1.5-2.4 1.1-2.8s.8-2 .4-4c-.7-4.1 1.4-8.7 5.3-11.1 4.7-3 8.2-7.4 8.2-10.2 0-3.8 3.7-13.3 5.8-15.1 2.2-1.8 4.3-7.5 3.6-9.5-.6-1.6.9-4.8 4.1-8.7 1.6-1.9 2.1-3.6 1.9-5.9-.3-2.2.2-3.9 1.5-5.3 1-1.2 2.2-4.1 2.6-6.6s1.1-5 1.6-5.6c1.8-2.3 7.1-19.7 6.6-22-.2-1.4.2-5.8.9-9.8 1.5-7.8 1.4-10.6-.2-12.8-1.6-2.1-.4-15.8 1.7-18.4.5-.5.6-2.6.3-4.6-.4-1.9-.1-4.5.5-5.7.8-1.3.8-2.7.2-3.9-.5-1-.5-5.2 0-10.7 1.7-16.5 1.9-26.7.8-32.9-.6-3.3-1.2-7.4-1.3-9 0-1.6-1.1-4-2.4-5.3s-2-2.7-1.7-3.3c.3-.5-.5-1.4-1.7-2.1-1.3-.6-5.1-3.9-8.5-7.2-5.1-5-6-6.3-5.2-7.9.8-1.5.6-1.8-1.4-1.8-1.6 0-3.5-1.4-5.6-4-1.7-2.2-4-4-5-4s-2.4-.7-3.1-1.5-1.8-1.5-2.5-1.5c-2.2 0-11.9-4.3-16.3-7.2-2.4-1.5-5.3-2.8-6.4-2.8-2.9 0-13.9-3.9-15.9-5.6-.8-.8-2.1-1.4-2.7-1.4s-2.6-.9-4.4-1.9c-4.2-2.4-11.3-3.7-12.3-2.1-.5.8-1.1.8-2.1-.1-.8-.6-2.2-.8-3.1-.4-1 .4-8.9.9-17.6 1.1-16.9.5-20.3 1.4-20.9 5.7-.2 1.2-1.7 3.1-3.4 4.2-2.3 1.5-3.3 3.2-4.2 6.8-.6 2.6-2.1 6.1-3.3 7.8s-1.8 3.7-1.5 4.6c.4 1-.5 3.1-2.4 5.4-2.9 3.7-3.9 7.3-2.1 8.3 1.1.7 1.3 14.4.1 15.1-.4.3-.6 2.3-.3 4.4.3 2.2.1 5.4-.5 7.1-.9 2.4-.8 4.1.3 7.3 1.2 3.5 1.2 4.5 0 6.6-1.7 3.3-3.5 13-3.5 19.1 0 4.9-1.3 7-4.2 7-1.8 0-2.5 2.9-1.1 4.4.4.4.8 4.9 1 10.2.2 7.6-.1 10.1-1.6 12.7-1 1.7-2 5.7-2.3 8.7-.4 3-1.3 7.5-2.2 10s-1.6 6.4-1.6 8.7-.5 4.5-1 4.8c-.6.3-1 1.6-1 2.9 0 3.1-3.7 13.6-5.4 15.5-.8.9-1.8 4.4-2.2 7.9-.5 4.4-1.2 6.7-2.5 7.6-2.8 1.9-8.9 9.9-8.9 11.6 0 .8.9 2.1 2.1 2.8 1.6 1.1 1.8 1.6.9 2.8-.7.8-1.9 1.4-2.6 1.4-.8 0-1.9 1.2-2.5 2.6-.5 1.5-2.3 4.4-3.9 6.4-1.7 2.1-3 4.3-3 4.9 0 1.6-5.9 11.2-9.1 14.6-2.8 3.1-6.9 10.9-6.9 13.1 0 .7-2 3.4-4.5 6.1-2.5 2.6-4.5 5.2-4.5 5.9 0 .6-.9 1.9-2.1 3-2.8 2.5-4.9 6.7-4.9 9.7 0 2.4-2.1 4.9-5.2 6-.9.3-2.5 1.9-3.4 3.4-1 1.5-2.4 3.6-3.3 4.6-.8 1-2.2 3.7-3 6.1-1 2.9-4.3 7.2-9.1 12.3-4.1 4.3-7.5 8.3-7.5 9s-2.8 3.9-6.3 7.2c-3.4 3.3-6.2 6.4-6.2 6.9s-3.2 4.1-7 8c-3.9 3.9-7 7.9-7 9 0 1-1.6 3.4-3.6 5.3-2 1.8-5.3 5.9-7.5 8.9-2.1 3-5.5 6.8-7.5 8.3-1.9 1.6-3.3 3.5-3 4.2.2.7-1.4 2.7-3.6 4.5s-4.6 4.7-5.3 6.4-4.1 6.1-7.5 9.6c-3.4 3.6-8.5 9.3-11.2 12.7-2.7 3.5-5.3 6.3-5.7 6.3-.3 0-1.1 1-1.6 2.2-.6 1.2-3 3.8-5.5 5.6-2.5 1.9-5 4.6-5.7 6.1-.6 1.6-2.4 3.6-3.8 4.5-3.8 2.5-5.9.6-5.1-4.5.4-2.5.2-4-.8-4.9-1.1-.8-1.4-2.8-1-7.8.2-3.7.5-7.4.5-8.2s.5-2.6 1-4c.8-2.3 1.1-4.5 2.6-17.5.3-2.8.9-5.5 1.4-6.1s.5-1.5 0-2c-1.7-1.8-2.1-7.2-.6-8.4 1.3-1.1 1.2-1.6-.5-4-1.1-1.5-1.5-3.1-1-3.6 1.2-1.2 1.6-7.6.6-9.2-.5-.8-.1-2.1.9-3.2 2.3-2.6 2-17.6-.5-20.5s-4.2-8.7-3-9.9c.5-.5 1-2.5 1-4.2 0-1.8.4-3.5.9-3.8 1.4-.9 1.9-7.9.7-9.8-.8-1.4-.6-2.7.9-5.5 2.4-4.4 2.1-7-1.1-10.4-2.3-2.4-2.4-2.7-.8-5.8 1.1-2.1 1.3-4.1.8-5.9-.4-1.5-.8-4.3-.9-6.2s-.8-4.9-1.5-6.5c-1.6-3.6-2.1-10.5-.8-12.2.5-.6.5-1.4 0-1.7-.9-.5.3-11.1 1.9-16.3 1.7-5.4 1.3-16.2-.6-18.3-1.2-1.3-1.3-2-.4-2.5.8-.5.9-2.5.5-6.1-.3-2.9-.2-5.5.3-5.9 1.2-.7.2-11.2-1.2-14-.6-1.1-.9-5.2-.8-9 .6-12 0-23.8-1.4-28.7-.4-1.5-.3-3.3.1-4 1.4-2.2 1-4.2-1.4-6.9l-2.4-2.7 2.2-1.5c1.2-.9 1.9-2 1.5-2.6-.3-.6.7-1.9 2.4-2.9 3.8-2.1 3.9-3.5.2-6.1-2.4-1.7-2.9-2.8-2.9-6.6-.1-2.5-.4-5-.7-5.5s1.9-3.5 5-6.7c3-3.1 5.5-6.3 5.5-7 0-1.5 2.3-5.6 5-8.8.9-1.1 2.7-4.5 4-7.5 1.2-3 4-7.4 6.1-9.7 2.2-2.4 3.9-5.1 3.9-6.1s1.2-2.9 2.6-4.3c1.4-1.3 3.2-3.8 3.9-5.6.7-1.7 2.5-3.9 3.9-4.8 1.4-1 2.6-2.5 2.6-3.5s1.6-3.2 3.5-4.9 3.5-3.7 3.5-4.5c0-1.3 2.4-4.5 11-14.7 1.6-2 3-4.3 3-5.1s2.6-3.8 5.9-6.6c4.5-4 6-6 6.6-8.8.3-2.1 2.2-5.6 4.1-7.9 1.8-2.3 4-5.7 4.8-7.6.8-2 3.3-5.4 5.5-7.7 2.3-2.3 4.1-4.9 4.1-5.7s1.1-2.2 2.5-3.1 2.5-2.5 2.5-3.6c0-1 1.1-3.6 2.5-5.6s2.5-4.2 2.5-4.9c0-1.3 5.6-9.9 7.1-10.8.5-.4.9-1.4.9-2.4 0-2.1 2.7-7.8 4.1-8.6.5-.4.9-1.4.9-2.4s.7-2.4 1.5-3.1 1.5-2 1.5-3 .7-2.3 1.5-3 1.5-2.3 1.5-3.5c0-1.3 1.4-3.7 3-5.5 1.7-1.8 3-3.5 3-4 0-.4.9-1.5 2-2.5s2-2.4 2-3.2c0-2.5 3.1-7.5 7.8-12.5 3.5-3.7 4.3-5.1 3.4-6-1.5-1.5-1.5-6.3-.1-9.1.7-1.2 2.7-3.9 4.5-6 1.9-2 4.8-6.6 6.5-10.2 1.6-3.5 3.4-6.7 3.9-7s.7-2.1.5-3.9c-.4-2.9 0-3.8 2.8-5.9 2.6-2 3.5-3.6 4.5-8.5.8-3.7 2.3-7.4 4.2-9.7 1.7-2.1 3-4.5 3-5.3 0-.9.6-2.3 1.3-3.1 1.4-1.7 3.2-7.4 4.1-12.9.3-1.9 1.4-4.6 2.4-6 1.1-1.5 1.7-3.3 1.5-4-.3-.7.3-2.5 1.3-4s2.3-5 3-7.7c1.5-6.2 5-16.6 7.5-22.3 1.1-2.3 1.9-4.8 1.9-5.6 0-.7 1.1-2.3 2.5-3.6 1.9-1.7 2.2-2.7 1.5-4.1-1.3-2.3-1.3-7.6 0-8.4.6-.3 1-1.3 1-2.2s.6-2.4 1.3-3.2c.8-.9 1.9-4.7 2.6-8.5.9-5 2-7.9 4.3-10.7 2.9-3.6 3-4 1.5-5.7-1.6-1.7-1.4-5.4.3-7.7 1.4-1.8 1.5-5.2.2-6.7-1-1.3-.7-2 2.3-4.2 2-1.5 3.5-3.3 3.4-3.9-.3-1.6 1.9-9.5 3.8-13.6 1.3-3 1.3-3.7 0-7.2-1.3-3.2-1.3-4-.2-4.9 1.9-1.5 2.9-7 1.7-8.2-1.5-1.5-.3-10.6 2-15 1.1-2 2.4-7 3-11 .8-5 1.9-8.3 3.5-10.5 1.9-2.4 2.2-3.6 1.5-5-.8-1.3-.3-2.7 1.8-5.8 2.3-3.4 3-5.7 3.6-12.5.7-8.7 2.4-14.1 5.2-17.3 1.5-1.7 1.4-2-1.3-4.1-2.7-2.2-2.7-2.4-1.4-5.2 1.5-2.9 1.7-11.3.4-15.3-.4-1.5-.1-2.9 1-4.1 1-1.1 1.2-2 .6-2.4-.5-.3-1-3.4-1-6.9 0-3.4-.3-8-.7-10.3-.4-3-.2-4.3 1-5.3s1.3-1.6.3-3.2c-.9-1.5-.9-2.3 0-3.8 1.7-2.7-1-9.9-5-13.3-2.8-2.3-3-2.9-2-4.6s.8-2.3-1.3-4.3-2.2-2.4-1-3.8c1.6-1.8.5-5.1-1.8-5.1-.7 0-2.2-1-3.4-2.3-1.7-1.8-2.2-3.9-2.6-10.1-.4-5.9-1-8.4-2.5-10-2.6-2.9-5.1-8.1-5.1-10.7 0-1.2-.7-3.1-1.6-4.1-1.3-1.3-1.4-2.1-.5-3.1.8-1.1.3-1.9-2.7-3.8-2.2-1.5-3.7-3.2-3.7-4.4 0-1.1-.9-2.5-2-3.1s-1.8-1.7-1.6-2.5c1.6-5.1-1.7-10.6-12.4-21.1-6.9-6.7-8.5-7.8-11.4-7.8-2.7 0-7.2-3.6-6.8-5.5.1-.5-.7-1.1-1.8-1.3-1.1-.3-3.9-1.7-6.3-3.3-2.3-1.6-5.4-3.2-6.8-3.5-1.4-.4-3.1-1.5-3.7-2.5-.9-1.5-2.4-1.9-6.5-1.9-4.7 0-10.3-1.7-16.7-5.3-1.1-.6-5.7-1.2-10.2-1.3-9.1-.2-14.7-2.5-14.9-6-.2-4.4-.3-4.5-2.5-3.4-1.5.9-2.4.8-3.7-.2-1-.9-1.3-.9-.9-.1m31.6 55.7c.8.9 2.4 1.2 4.9.9 3.1-.4 4.1 0 6.1 2.1 1.4 1.4 3.1 2.6 3.9 2.6 2.2 0 12.4 9.2 13.8 12.5.7 1.6 3.6 5.8 6.4 9.3s5.5 7.3 6 8.5c1.5 3.3 3.3 6 5 7.3 1.5 1.2 2 4.2 2.1 11.4 0 1.9.6 4.1 1.3 5 .8.8 1.7 2.6 2 4 2.1 8 3.3 10.9 6 14.7 1.6 2.4 2.7 4.6 2.3 4.9-.3.4.3 2.5 1.4 4.7 1.3 2.5 1.9 5 1.5 6.7-.3 1.5.1 3.6.9 4.7 1.8 2.6 2.7 18.7 1.3 21.9-.9 1.8-.8 2.8 0 3.6.9.9.8 1.6-.5 3-2.4 2.6-2.3 7 0 8.7 2 1.4 2 1.5-.2 3.2-1.6 1.3-2.3 3.1-2.5 6.4-.1 2.5-.8 5.1-1.4 5.7-1.6 1.6-1.5 3.9.3 6.5 1.3 1.8 1.3 2.2 0 3.3-.8.7-1.5 2.2-1.5 3.4s-.4 2.6-.9 3.2c-1.7 1.8-3.3 17.1-2.1 19.5.9 1.6.8 2.4-.3 3.7-.8.9-2.2 3.4-3.2 5.5-1.4 3-1.5 4.3-.7 6.2.9 1.9.7 2.8-1 5.1-1.6 2-1.9 3.1-1.1 4.2 1.4 2.3-.2 8.7-3.2 12.7-1.5 1.8-2.3 3.9-1.9 4.8.3.8.1 2.5-.6 3.6-.7 1.4-.8 2.7-.1 3.9.7 1.3.4 2.3-1.4 4.2-1.9 2-2.5 4-2.9 10.3-.3 4.3-1 8.6-1.6 9.6-.5 1-.7 3.4-.3 5.3.4 2.7 0 4.3-1.7 6.6-1.9 2.6-2.2 4-1.8 9.2.4 5.1.1 6.4-1.2 7.3-1 .6-1.5 1.8-1.3 2.8.3 1-.4 3.5-1.6 5.4-1.2 2.2-1.9 4.5-1.6 5.8.3 1.2-.1 3.1-.8 4.2-1.1 1.4-1.2 2.4-.4 3.6.6.9.7 2.4.2 3.5-.4 1.1-.7 2.5-.6 3.1.3 1.9-1.7 5.2-6.3 10.7-3.7 4.3-4.1 5.3-3.9 9.6q.15 4.8-1.2 6c-.8.7-1.5 2-1.5 2.9s-.9 3.4-2 5.6-2 5-2 6.3-1.3 3.6-2.8 5c-1.5 1.5-3.4 4.7-4.2 7.2s-2.1 5.6-2.9 6.8c-1.1 1.9-1.2 2.8-.3 4.2s.8 2.1-.3 3c-1.7 1.4-7.5 13.4-7.5 15.4 0 .8-.4 1.7-.9 2.1-1.6 1-4.1 6.7-4.1 9.4 0 1.5-.8 3.8-1.7 5.1-2.3 3.3-4.4 8.6-5 13-.3 1.9-1.4 4.4-2.4 5.5-5 5.3-6.8 8.2-6.2 10.3.3 1.2-.2 3.3-1.1 4.7-.9 1.3-1.6 3.8-1.6 5.4 0 3.2-1.3 4.5-4.7 4.6-3 0-3.6 1-2.3 3.5.9 1.7.8 2.5-.4 3.9-.9 1-1.6 2.5-1.6 3.3 0 .9-.7 2.1-1.5 2.8-1.7 1.4-4.5 6.7-4.5 8.6 0 .8-1.1 2.1-2.5 3S582 609 582 610s-1.5 4.1-3.4 6.9-3.8 6-4.1 7.1c-.4 1.1-1.8 3.4-3.2 5-1.4 1.7-2.3 3.4-2 3.7.4.3-.3 1.7-1.3 3.1-1.1 1.3-2 3.3-2 4.3s-.9 2.4-2 3.1-2 1.8-2 2.4-1.2 2.8-2.6 4.9c-1.7 2.6-2.4 4.6-2 6.1.5 1.7.1 2.7-1.4 3.6-1.1.7-2 1.6-2 1.9 0 1.3-7.1 12.4-9.5 14.9-1.4 1.4-2.5 3.1-2.5 3.8 0 .6-.9 1.7-2 2.4s-2 1.9-2 2.7c0 .7-2.7 4.2-5.9 7.7-3.7 3.9-6.1 7.4-6.3 9.1-.2 1.8-1.5 3.5-3.8 5.1-1.9 1.3-3.4 2.7-3.3 3.2.1.4-.7 1.6-1.7 2.5-1.1 1-2 2.3-2 2.9 0 2.2-6.4 7.6-9.1 7.6-3.2 0-4.7-1.6-5.5-5.9-.4-1.7-1.1-3.4-1.5-3.7-.5-.3-.5-1.4.1-2.4.8-1.5.5-2.4-1.6-4.5-2.5-2.5-2.5-2.7-.9-4.5 1.1-1.3 1.5-2.8 1.1-4.7-.4-1.7 0-3.9.9-5.6 1.1-2.2 1.2-3.2.3-4.7s-.9-2.4.1-4.3c1.1-2 1.1-3.2.1-6.2-.9-2.8-1-4.7-.2-7.4.6-2 1.6-6.9 2.3-10.9s1.6-7.5 2.1-7.8.4-1.1-.1-1.8c-1.1-1.3-.7-2.2 3.6-9.9 1-1.7.9-2.5-.3-3.8-1-1.1-1.2-1.9-.5-2.3.7-.5.7-1.3-.1-2.6-.9-1.4-.9-2.2.1-3.4 1.8-2.2 2.2-22.5.6-25.7-.9-1.5-.9-3-.2-4.9.8-2 .6-3.4-.6-6-3.1-6.1-1.5-16.8 2.2-14.6 1.1.7 2.1-1.7 2.1-5 0-1.3.9-2.9 1.9-3.6 1.4-.8 1.7-1.7 1.1-2.8-1.3-2.5-1-11.2.6-14.7 1.9-4.1 2.4-10.4 1.1-12.1-.6-.8-.6-1.6 0-2.5.6-.6 1.3-3.9 1.7-7.2s1.4-8 2.2-10.5c.9-2.5 1.4-6.5 1.3-9-.2-2.5.2-5.4.8-6.6.7-1.1 1.2-4.5 1.2-7.5.1-7.6.5-9.9 2.5-14.1 1.1-2.2 1.4-4.2 1-5-1.6-2.5-1.2-6.8.7-8.2 1.7-1.1 1.7-1.5.5-2.5-1.3-1.1-1.2-1.7.3-4.5 2.8-5 3.5-9.1 1.6-10.6-1.9-1.6-1.9-3.4-.1-4.9 1.1-.9 1.4-2.9 1.1-6.9-.2-4.1.2-6.7 1.5-9.2 2.5-4.8 3-8.7 1.4-11.8-1.4-2.8-.4-5.2 2.2-5.2 1 0 1.2-1.2.8-4.8-.3-2.6-.7-5.4-1-6.4-.3-.9 0-3.6.7-6.1.7-3 .8-5.1.1-6.3-.7-1.3-.2-2.7 2-5.8 6.7-9.5 6.2-8.4 4.3-10.5-1.6-1.9-1.5-2 .8-3.6 1.5-1 2.5-2.5 2.5-4.1 0-1.4.9-3.5 2-4.7 1.6-1.7 1.8-2.6 1-4.1-.8-1.4-.8-2.4.1-3.8.8-1.3.9-2.4.1-3.9-.9-1.5-.8-2.4.1-3.5.8-1 .9-2.5.1-5.4-.9-3.6-.8-4.2 1.2-5.8 1.3-.9 2.1-2.2 1.9-2.8s.6-1.9 1.7-2.9 2-2.5 2-3.3c0-.9 1-2.6 2.2-3.9 2.1-2.2 2.1-2.3.2-4.4s-1.9-2.1.6-4.2c5.2-4.5 6.3-6.3 4.9-8.5-1-1.6-1-2.6-.1-4.7.7-1.4 1.2-3.7 1.2-5s.5-2.7 1.1-3c.6-.4.8-2.2.4-4.4-.5-3.1-.2-4 1.9-6 1.9-1.8 2.4-3 2-4.8-.4-1.3-.1-2.9.4-3.6.6-.7 1.3-3.4 1.5-6s1.1-5.5 2-6.5c1.2-1.3 1.5-2.8 1.1-5.4-.4-2.4-.1-4.3 1.1-6.1 1.2-1.9 1.5-3.7 1-6.6-.4-2.5-.2-4.1.5-4.6.6-.4.8-1.5.5-2.4-.3-1 .1-2.3.9-3s1.7-4.1 2.1-8.1 1.3-7.4 2.1-8.1c1.3-1 1.3-1.4 0-2.8-.8-.9-1.4-1.8-1.4-2.1s-.3-2-.7-3.8c-.4-2-.2-3.8.4-4.6.6-.7 1.2-3.1 1.4-5.3.5-5.4 1.3-6.3 5-6.3l3.2-.1-3.5-2.9-3.5-3 3.2-2.8c1.7-1.5 3.4-4.1 3.7-5.7.3-1.7 1.7-4.1 3.2-5.3 1.6-1.4 2.8-3.6 2.9-5.2.2-1.5 1.4-4.4 2.9-6.2 1.4-1.9 2.6-4.2 2.6-5.1s.5-1.9 1.1-2.3c.6-.3.9-1.5.6-2.5-.3-1.3.8-2.8 4.1-5.3 2.5-2 4.9-3.6 5.3-3.6s1.2-1.2 1.8-2.8c.6-1.5 2.1-4 3.3-5.5 1.5-1.8 2.3-4.2 2.3-6.5 0-2.9.5-3.9 2.5-4.9 3.3-1.7 8.5-1.6 9.9.1"/><path d="M1229 355.7c-2.5.8-6.7 2.6-9.5 3.9-2.7 1.3-6.3 2.7-8 3.1-3.5.7-18.2 14.3-23.6 21.7-2.1 2.8-4.8 6.4-6.1 8.1-1.2 1.6-2.2 3.2-2.1 3.6s-1.3 1.9-3.2 3.4c-1.9 1.4-3.5 3.2-3.5 3.9s-.9 2.1-2 3.1-2 2.8-2 4c0 2.2-3.8 6.5-5.8 6.5-1.3 0-8.2 10.1-8.2 12 0 .6-1.8 3.3-4.1 5.8-5.8 6.6-22.9 31.9-22.9 33.8 0 2-6.9 15.7-8.9 17.7-.6.6-1.1 2.2-1.1 3.6 0 2.2-1.3 6.1-5.5 16.1-1.2 3.1-3.3 6.2-6 9-2.4 2.5-2.6 3.2-1.5 4.5s1 1.9-.4 3.3c-.9 1-1.6 2.3-1.6 2.8s-1.2 2.7-2.6 4.8c-1.7 2.5-2.7 5.4-2.8 8.2-.2 2.4-1 5.2-1.9 6.2s-1.7 2.6-1.7 3.4c0 .9-.7 2.2-1.6 2.9-.9.8-2.8 3.2-4.2 5.3-2.1 3.4-2.3 4.5-1.5 6.7.9 2.4.7 3.1-1.3 5-1.3 1.2-2.4 2.8-2.4 3.6 0 .7-.9 2.7-2 4.5s-2 4.5-2 6c0 1.8-1 3.5-3.2 5.1-2.7 2.2-3 2.8-1.9 4.1.9 1.1 1 2 .3 2.8-.5.7-1.3 3.5-1.7 6.1-.5 3.1-1.4 5.3-2.6 6-1.1.7-1.9 1.9-1.9 2.9 0 .9-.4 2-1 2.3-.5.3-1 2.3-1 4.3s-.7 5-1.5 6.6c-.9 1.6-1.3 3.8-.9 4.8.3 1 0 2.6-.7 3.4-1.2 1.4-2.7 7.9-3.2 13.2-.1 1.3-1 2.9-1.9 3.6-1 .7-1.8 1.9-1.8 2.6s-1.3 2.7-2.9 4.5c-1.9 2.2-3 4.8-3.5 8.3-.4 2.8-1.1 5.4-1.6 5.7-.6.3-1 2-1 3.6 0 2-1.2 4.6-3.6 7.4-2 2.4-3.3 4.8-3 5.4.3.5-.2 2.6-1.1 4.7-.9 2.2-1.6 4.4-1.5 5s-.5 1.7-1.3 2.4-1.5 2-1.5 3-.6 2.3-1.3 2.9c-1.4 1.1-2 2.9-5.3 15.1-1 3.6-2.3 7.2-3.1 8.1-.7.8-1.3 2.3-1.3 3.2s-.9 3.1-2 4.9-2 4.9-2 6.9-.8 5.4-1.7 7.5c-.9 2.2-1.6 5.7-1.4 8 .2 2.7-.3 4.5-1.3 5.3-.8.7-1.3 1.8-1 2.6.3.7.1 1.6-.5 2-.6.3-1.1 1.5-1.1 2.7 0 1.1-.9 3.1-2 4.5-1.1 1.5-1.8 3.4-1.5 4.3.3 1-.1 2.3-1 3-.8.7-1.5 2.6-1.5 4.3s-.7 3.9-1.6 4.9c-1.4 1.4-1.4 2-.4 3.3.9 1 .9 1.9.2 2.7-1.8 2.3-3.2 9.1-2.2 10.4.7.8.6 1.5-.4 2.3-.8.7-1.7 2.9-2.1 4.9-.7 3.8-2.6 8-5.8 12.5-1 1.4-2 4.5-2.2 6.8-.6 6.7-2.5 16.2-3.5 18.1-.6 1-1 2.9-1 4.3s-.7 3.7-1.6 5c-1.1 1.7-1.4 3.6-1 5.6.4 2.2-.1 4.6-1.9 8.3-1.4 2.9-2.5 6.8-2.5 8.7-.1 1.9-1.2 6.5-2.5 10.4-1.3 3.8-2.1 7.3-1.9 7.7.3.4.2 1.4-.3 2-.4.7-.9 2.9-1 4.8-.2 3.7-1.1 8.5-2.1 11-.3.8-.6 3.3-.7 5.5 0 2.2-.8 5.5-1.8 7.4-.9 1.9-1.7 4.6-1.7 6s-.7 3.4-1.4 4.4c-1 1.2-1.2 3.6-.9 8.1.4 4.1.2 6.6-.6 7-.6.4-1.1 1.4-1.1 2.3 0 .8-1.1 2.8-2.5 4.5-2.8 3.3-3.1 5-1.1 6.7 1.5 1.2 1 5.7-.8 8.1-3 3.8-4.3 10.6-2.5 12.4.6.6.4 7.3-.5 15.9-.2 2-1.1 4.6-2 5.6-1.5 1.6-1.5 2.2-.5 3.9 1 1.6 1 2.4.1 3.5-.7.8-1 2.2-.6 3.1.3.9-.3 3.4-1.5 5.6s-2.1 5.1-2.1 6.4c0 2.3-2.2 5.1-3.2 4-.3-.2-.8.2-1.1 1.1q-.6 1.5 1.2 1.5c3.2 0 4.3 2.4 3.5 8.2-.4 2.9-1.3 6.2-2 7.3-.9 1.4-1 3.7-.4 8 1 6.4 0 9.2-4 11.7-1.8 1.1-1.8 1.2.3 2.3 1.7.8 2.1 1.8 1.9 4-.2 1.7-.4 5.5-.6 8.6-.1 3.1-.6 6.1-1 6.8-.7 1.1-1.7 8.3-1.8 12.9 0 1.3.8 3.2 1.8 4.4 2.3 2.4 2 5.7-.6 7.9-1.1.9-1.6 1.9-1.3 2.3.3.3-.2 1.5-1.1 2.5q-1.8 1.95-.9 3.6c.5.9.5 4.7 0 9.1-.7 5.7-.6 8.1.3 10 1 1.8 1.1 2.9.2 4.6-1.1 2.3-2.3 11.4-2.6 19.4 0 2.2-.7 4.8-1.4 5.6-1 1.2-1 1.8.2 2.7 2.1 1.8 3.2 9.7 1.6 11.7-1.1 1.2-1 1.7.8 3 3.8 2.6 1.8 10.4-2.6 10.4-.6 0 .9 2.1 3.3 4.7 5 5.2 5.1 5.5 3 7.3-1.1.9-1.3 2.3-.9 5.1.4 2.6.2 4.4-.7 5.5-1.7 2.1-2.9 12.5-1.6 14.1.6.9.5 1.8-.3 2.8-1 1.2-1 1.8-.1 2.9 1.2 1.4.7 17.7-.5 19.8-.3.5-.1 1.5.5 2.2 1.2 1.4.8 11.5-.4 14.8-.4.9.1 3.1 1 4.8 1.2 2.2 1.6 5 1.3 9-.2 4.5.1 6.2 1.5 7.8 1.6 1.7 1.7 2.7.7 8.7-.7 4.6-.8 8.4 0 12.2.5 3 .7 5.9.4 6.4s.3 2 1.4 3.4c3.1 3.9 2 11.1-2.4 15.3-1.9 1.8-3.4 3.9-3.4 4.7 0 .7-.4 1.6-.9 1.9-.5.4-2 2.7-3.2 5.3-2.7 5.7-31.8 35-35.1 35.5-1.2.2-2.9 1.5-3.7 3-2 3.3-14.4 13.8-16.4 13.8-1.1 0-1.3 1-1 4.3.4 3.4 0 4.9-2.1 7.7-1.4 1.9-3 4.5-3.6 5.8-.5 1.2-1.6 2.5-2.3 2.7-.9.4-1.2 2.4-.9 7.5.3 4.6 0 7.5-.8 8.5-1 1.2-.9 1.5.3 1.5.9 0 3.2 1.3 5 3 1.9 1.6 3.8 3 4.1 3 .4 0 3.4 1.4 6.8 3 3.3 1.7 6.6 3 7.3 3s1.9.7 2.6 1.6c2 2.5 8.8 1.2 11.2-2 1-1.4 2.6-2.6 3.5-2.6s2.6-.9 3.8-2.1c1.2-1.1 2.8-2.1 3.6-2.2 1.7-.3 6.4-3.6 9.1-6.5 1.1-1.2 2.5-2.2 3-2.2 1.6 0 7.2-5.3 6.9-6.6-.1-.7 1.1-2.2 2.8-3.4 1.6-1.2 3-3 3-4 0-1.1 1.4-2.9 3-4.2 1.7-1.2 3-2.7 3-3.3 0-1.3 5.8-7 11-10.8l3.5-2.5 4 4c5.4 5.5 7.5 8.8 7.5 11.9 0 1.4 1.1 4 2.5 5.9s2.5 4 2.5 4.7c0 .8.7 2.5 1.6 3.8s1.3 2.8 1 3.3.3 2.1 1.5 3.6c1.1 1.4 2.1 4.1 2.2 6.1.2 1.9.8 4 1.5 4.7s1.2 2.2 1.2 3.4.7 2.7 1.5 3.4c.9.8 1.2 2.2.8 4.1-.4 2.4-.2 2.9 1.4 2.9 2.3 0 10 7.9 9.8 10 0 .8-.5 2.7-.9 4.3-1 3.5.6 7.5 4.5 11.3 1.6 1.5 2.9 3.7 2.9 4.9s.9 3 2 4 2 2.8 2 4.1c0 1.2 3 6.7 6.6 12.2 5.5 8.4 7.1 10.2 9.7 10.8 4 .8 5.7 2.1 5.7 4.3 0 1 1.1 2.8 2.5 4.1s2.5 3.3 2.5 4.4c0 1.2.9 2.5 2.3 3.1s2.3 2.1 2.5 3.9c.4 3.2 7.7 12.6 9.8 12.6.7 0 2.6 1.6 4.1 3.5s3.5 3.5 4.4 3.5c2.2 0 4.9 3.2 4.9 5.8 0 1.5 1.2 2.7 4.2 4.2 2.3 1.1 4.7 2 5.4 2 .6 0 1.7.6 2.3 1.4.9 1.1.8 1.7-.8 2.8-2 1.4-2 1.4 0 2.7 1.2.7 1.8 1.8 1.5 2.6-.7 1.8 2 3.9 4 3.1 1-.4 2.6.1 3.8 1.2s3.8 2.2 5.8 2.5 5 1.5 6.7 2.8c1.6 1.2 3.6 1.9 4.4 1.6s2.3.3 3.3 1.4c.9 1 2.4 1.9 3.2 1.9.7 0 4.4 3 8 6.6 8.1 8.1 12.5 9.8 22.3 8.9 4.8-.5 7.9-.2 11.3.9 2.6.9 5.9 1.6 7.5 1.6s3.7 1 5 2.4 2.9 2.2 3.6 1.9c.8-.2 3.8 0 6.7.6 4.1.9 6.3.8 9.8-.2 6.7-2 22-2.2 24.5-.3 2.8 2.1 3.9 2 7.5-1 2.9-2.5 3.3-2.6 7-1.4s4.2 1.1 8.2-1.5c2.4-1.6 5.7-4.2 7.4-5.8 2.3-2.1 4.4-3 7.5-3.2 2.4-.2 4.7-.4 5.2-.4.4-.1.7-.7.7-1.5 0-1.7 2.8-4.1 4.9-4.1 4.1-.2 11.1-3 15.8-6.6 2.9-2.1 5.5-3.9 5.9-3.9s2.6-1.7 4.9-3.9c2.3-2.1 4.6-4 5.1-4.2 1.9-.8 4.3-7 3.8-9.7-.4-2.2.4-3.6 3.8-7.4 4.8-5.1 6.4-7.3 7.8-10.5.5-1.2 1.8-2.7 3-3.3 1.1-.6 2-1.9 2-3 0-1 1-2.6 2.2-3.4 2.2-1.6 3.6-3.8 7.7-12.1 1.1-2.2 3.3-5.3 4.9-6.8l2.9-2.8 5.3 5.8c2.8 3.2 6.6 8.6 8.2 12.1 1.7 3.4 4.8 8.2 7 10.5 2.8 3.1 3.7 4.8 3.3 6.4-.4 1.7-.2 2.1.9 1.7 1.5-.6 3.3 1 8.8 7.4 1.6 1.7 4.6 4.3 6.8 5.7s4 3 4 3.6c0 .5 2.1 3 4.7 5.4 3.9 3.7 5.5 4.5 9.9 5.1 2.9.3 5.7.3 6.4-.1.6-.4 2.8.8 5 2.7 6.6 5.6 9.3 7.4 13.9 8.8 2.3.8 5 2.5 5.9 3.8 1.1 1.7 2.2 2.2 3.9 1.9 2-.4 3.6.6 3.8 2.3.1.3.4 1.5.9 2.7.9 2.7 1.5 2.9 7.5 2 2-.4 4.6 0 6.1.8 2.3 1.2 2.9 1.2 4.2-.1 1.2-1.3 1.9-1.3 4.2-.3 2.2 1 3.2 1 4.8 0 1.7-1.1 2.3-1 3.6.3s1.8 1.3 4.4 0 3.2-1.3 6 0c2.8 1.4 3.4 1.4 6.1.1s3.2-1.3 4.7 0c1.3 1.2 7 1.5 10 .4h2.6c1.1.1 2.7-.5 3.4-1.3.7-.9 2.1-1.6 3.1-1.6s2-.4 2.3-.8c.3-.5 3.6-1.7 7.3-2.7s8.2-2.9 9.9-4.2c1.7-1.2 3.6-2.3 4.1-2.3.6 0 1.6-.6 2.2-1.4.9-1.1 2.1-1.2 5.3-.4 2.7.6 4.5.5 5.2-.2.5-.5 2.3-1 3.9-1 1.9 0 3.6-.9 4.9-2.5 1.1-1.5 3-2.5 4.4-2.5s4.5-1.4 7-3c2.4-1.7 5.7-3.2 7.4-3.3 1.8-.1 3-.8 3-1.6 0-1.8 4.9-7.1 6.6-7.1 1.4 0 5.9-6.6 6.7-10.1.4-1.5 1.5-3.7 2.5-4.9 1.6-2 2.1-2.1 3.9-1 1.7 1.1 2.4 1 4.7-.6 1.4-1 2.9-3 3.2-4.4.4-1.4 2.9-5.2 5.5-8.5 2.7-3.3 4.9-6.5 4.9-7.1s.7-1.7 1.5-2.4 1.5-1.8 1.5-2.5 1.6-3.6 3.5-6.5c2.3-3.4 3.5-6.4 3.5-8.5 0-1.9.5-3.7 1-4 1.5-.9 1.2-6.1-.4-7.5-1.2-.9-1.3-1.7-.4-3.8 1.5-3.6 6.7-9.2 9.6-10.3 3.1-1.2 3.8-3.6 1.8-5.8-1.6-1.8-1.6-2 .8-3.9 1.5-1.1 2.6-2.6 2.6-3.4 0-2.1 3.3-4.8 5.7-4.8 2.6 0 4.5-2.3 3.7-4.4-.9-2.3 3.3-6.6 6.3-6.6 1.7 0 2.3-.6 2.3-2.3 0-2.7 4.3-7.1 8.4-8.7 2.8-1 2.8-1.1 1.1-3-1.5-1.6-1.5-2.2-.5-3.5.7-.8 1.9-1.5 2.6-1.5.8 0 1.3-.9 1.1-2.2-.1-1.4.6-2.6 1.9-3.3 3.7-1.8 5.4-3.7 5.2-5.3-.2-.9.7-2.1 1.9-2.7 1.3-.7 2-1.5 1.6-1.8-.3-.4.2-1.6 1.1-2.6 1-1.1 1.5-2.7 1.2-3.8-.8-2.4.9-8.1 3-10.5 2.2-2.3 2.8-6.8 1-6.8-.8 0-1.9-.7-2.6-1.5-1-1.2-.8-2.1 1-5 1.2-1.9 3-4 4.1-4.5 1.6-.9 1.7-1.4.7-2.9-1-1.6-.7-2.5 1.8-5.6 1.6-2.1 3.5-4.7 4.3-5.9.8-1.1 3.2-3.9 5.2-6.1 2.1-2.2 4.1-5.3 4.5-6.8.3-1.6 1.5-3.4 2.5-4 1.6-1 1.7-1.3.3-2.8-1.2-1.4-1.3-2.4-.5-5.5.7-2.4.7-4.2.1-4.9-.7-.8 0-2 2-3.8 1.7-1.5 3-3.3 3-4.1 0-.7.7-1.9 1.5-2.6 1.7-1.4 1.1-5.5-1.1-8.1-1.2-1.4-1.1-1.8.5-3.3s1.8-2.2.8-3.6c-.9-1.5-.7-2.3.7-3.9 1.1-1.2 2.5-2.1 3.3-2.1s1.3-1.2 1.3-3.4c0-1.9.5-3.8 1-4.1.6-.3 1-2.1 1-3.9 0-2.2.8-3.9 2.5-5.4 2.4-2.1 2.9-3.8 2.5-9.3 0-1.4.6-3.1 1.4-3.8.9-.7 1.3-1.7 1-2.2-.2-.5.8-4.1 2.5-8.1 3.7-9.1 4.5-11.9 4.3-13.8-.1-.8.7-3.3 1.8-5.5s2-5.9 2-8.5c0-2.5.5-5.1 1.2-5.8s.8-1.2.3-1.2.4-1.3 2-3 3.5-3 4.2-3c2 0 1.6-1.4-1.2-4-2.6-2.4-3.3-5.4-1.5-6.5.6-.4.8-1.5.5-2.5s.3-3.4 1.4-5.4c1.4-2.3 2.2-6.2 2.6-11.8.3-4.6 1-9.6 1.7-11.1.9-2.3.8-3.1-.5-4.4-1.3-1.4-1.1-2.1 2.5-7.4 2.9-4.2 3.9-6.5 3.5-8.1-.4-1.5 0-3 1.3-4.3 2.2-2.4 8.8-19.7 10.2-27 .5-2.8 1.8-6.8 2.9-9.1 1-2.2 1.9-4.4 1.9-4.8 0-.5 1.3-2.5 2.9-4.5 5-6.3 5.4-7.8 3.7-11.5-1.4-3-1.4-3.5 1.4-8.9 2.1-4.3 2.7-6.6 2.3-9.1s.1-4.4 1.6-6.9c1.5-2.4 2.1-5.1 2.1-8.9 0-3.7.5-6 1.5-6.8.8-.7 1.5-1.9 1.5-2.8 0-.8.7-2.3 1.5-3.2 2-2.2 4.5-11.8 3.8-15.1-.3-1.6.1-3 1.1-3.8.9-.8 1.6-2.4 1.6-3.7 0-1.2.4-2.5.9-2.8 1.3-.8 1.9-5.2.9-6.9-.5-1-.4-1.8.3-2.2.6-.4.9-2.8.8-5.4-.2-3.5.3-5.6 1.8-7.7 1.1-1.6 2.6-5.3 3.2-8.3s1.6-6 2.1-6.6 1.4-4.2 1.9-8.1c.6-3.8 1.5-10.1 2.1-13.9.5-3.9 1.2-7.5 1.4-8.2.3-.6-.2-1.7-1-2.4-1.3-1-1.2-1.4.2-3 .9-1 1.4-2.5 1.1-3.3s-.1-2.8.6-4.5c.8-2.2.8-3.6 0-5.3-2.2-4.3-2.4-6.5-.8-7.8.9-.8 1.5-3 1.5-5.9 0-2.6.6-7.1 1.4-10.1.9-3.3 1.1-6.1.6-7.1-1.2-2.1.7-3.9 4.1-3.9 1.8 0 3.6 1 5.3 3.1 2.2 2.6 3.2 3 5.5 2.6 1.9-.4 3.3-.1 4 .7s3.5 2.2 6.4 3.1 7.1 3.3 9.5 5.2c2.3 1.9 5.4 3.8 7 4.3 9.8 3.2 14.2 5.2 17.6 8.2 5.4 4.4 12.1 7.6 15 7.1 1.7-.4 2.8.1 3.8 1.6.7 1.2 1.8 2.1 2.4 2.1s3.1 2 5.7 4.4c3.4 3.3 5.1 4.3 6.7 3.9 1.2-.3 2.9.2 4 1.2 2.1 1.9 5.1 3.8 8.5 5.4 1.2.5 2.6 1.6 3.3 2.4s2.8 1.8 4.6 2.1c3.6.7 10.6 5.7 13.2 9.5 1.5 2.1 1.5 2.5-.5 5.2-1.1 1.5-2.1 3.8-2.1 5s-1.6 3.6-3.5 5.3c-2.4 2.2-3.6 4.4-4.1 7.3-.4 2.7-1.7 5.1-3.5 6.9-2 1.9-2.6 3.1-2 4.3.9 1.7-.1 5.5-1.8 6.6-.6.3-1.1 1.7-1.1 3s-.5 2.7-1 3c-.6.4-.8 1-.5 1.5s-.3 1.5-1.5 2.2c-1.1.7-2 2-2 3 0 .9-.8 2.3-1.8 3-1.1.7-2.2 2.9-2.6 4.9-.3 2.1-1.3 4.3-2.2 5-1.6 1.3-4.7 7.6-5.8 11.9-.8 2.9-2.4 6.8-3.7 9-.5.8-1.5 2.9-2.3 4.6s-2.4 3.9-3.7 4.8c-1.5 1-2.4 2.7-2.5 4.7-.1 1.7-1.1 4.3-2.3 5.8-1.1 1.4-2.8 4.2-3.6 6.1-.9 1.9-3 5.2-4.6 7.3-1.8 2.3-3.3 5.5-3.6 7.8-.4 3-1.4 4.6-3.9 6.5-2.6 2-3.4 3.5-4 7.2-.3 2.6-1.5 5.7-2.6 6.9-1.1 1.1-2.2 3.9-2.5 6.2-.3 2.2-1.2 4.6-1.9 5.2-.8.6-1.4 1.8-1.4 2.6s-.6 2.7-1.3 4.1c-1.4 2.8-3 6.1-6.8 14.7-1.2 2.7-2.1 6.4-2 8.1.1 1.8-.4 3.6-1.3 4.3-.9.8-1.6 2.3-1.6 3.6 0 1.2-.9 3-2 4s-2 2.5-2 3.4-1.1 3.8-2.5 6.6c-1.3 2.7-2.5 5.8-2.5 6.7 0 1-.9 3.2-2 5s-2 4.4-2 5.8-2.7 7.9-6 14.4-5.8 12.2-5.5 12.6-.2 1.3-1 2-1.5 2.7-1.5 4.6c0 1.8-.4 3.6-1 3.9-.5.3-1 1.7-1 2.9 0 1.3-.6 2.9-1.4 3.5-.8.7-1.8 2.6-2.1 4.2-.4 1.6-1.1 3.1-1.6 3.4-.5.4-.9 1.7-.9 3.1 0 2.2-.6 3.7-3.1 8.4-4.8 8.6-5.7 11.3-4.6 13.2 1 1.5.7 2.8-1.7 7.2-2.5 4.6-2.8 5.7-1.6 7.1 1.1 1.3 1 1.8-.4 3.3-.9 1-1.6 2.5-1.6 3.2 0 1.3-2.9 8.1-5.2 12.4-.5 1.1-1.1 3-1.3 4.4-.1 1.3-1 5-2 8.1-3.2 10.6-3.5 11.7-3.5 13.7 0 1.1-.6 2.9-1.4 3.9-.7 1-1.1 2.6-.9 3.5.3.9-.7 4-2 6.8-1.4 2.8-2.5 6.8-2.5 8.7 0 2-.5 4.2-1.1 4.9s-.8 2.7-.5 4.5c.4 2 .2 3.7-.7 4.8-.8.9-1.5 4.6-1.7 8.7-.7 16.8-1 19.7-2.1 20.9-.6.8-1.2 3.9-1.3 7.1-.3 6.3-.9 7.2-5 6.7-3.6-.3-3.5 1 .2 3.8 2.5 1.8 3.1 2.9 3 5.9v7.7c.1 2.2.1 11.2 0 19.9-.1 13.9.7 21.7 2.8 27.6.3.8.6 4.3.8 7.6.1 3.4.7 7.2 1.4 8.4.7 1.3 1 5.5.8 10.8-.2 7.6 0 9.2 2 12.6 1.3 2.1 2.1 4.5 1.8 5.2-.9 2.3 1.6 8.4 3.5 8.4 3 0 4.1 3 4.2 11.2 0 3.5.3 4.5 1.4 4.1 1.9-.7 6.3 3.6 6.3 6.1 0 2.8 7 12.5 9.1 12.5 3 .1 5.1 3.7 4.8 8.2-.3 3.5 0 4.3 1.7 5 1.2.4 3.1 2.2 4.2 4.1 6.8 10.4 11.2 15.8 13.1 15.8.9 0 4.5 2.9 8.1 6.4 5.6 5.5 8.6 9.3 13.5 17.4 1.6 2.8 2.9 3.2 4.6 1.6 1.9-1.7 4.4-1 10.3 3 2.1 1.5 5.1 3 6.7 3.3 1.5.3 3.6 1.4 4.5 2.4.9 1.1 2.6 1.9 3.7 1.9 1 0 3.3 1.1 4.9 2.6 1.7 1.4 4.4 2.8 6 3.1s3.4 1.3 4.1 2.2 2.3 1.7 3.7 1.7c3 .2 15.2 3.6 19.5 5.4 3.7 1.6 3.1 1.5 8.5 2.4 2.5.5 6 1.4 7.9 2.2 4.2 1.7 7.1 1.8 14.6.4 3.3-.6 7.4-1.3 9.1-1.6 2-.4 4.6.1 6.8 1.1 2 1 4 1.5 4.3 1.1.4-.3 1.5.1 2.5 1.1 1.7 1.5 1.9 1.5 3.6 0 1-1 3.2-1.7 4.9-1.7s4.1-.8 5.4-1.8c4.9-3.5 7-4.3 10.4-3.6 2.2.4 5 0 7.9-1.1 3.2-1.2 5.8-1.6 8.7-1.1 3.9.6 4.3.4 8-3.6 3.5-3.9 4.1-4.2 6-3 1.8 1.1 2.3 1 4-1.2 1.4-1.7 3-2.6 4.9-2.6 1.6 0 3.2-.5 3.5-1 .3-.6 1.5-1 2.6-1 1.3 0 2.5-1.2 3.5-3.5.8-2 3.2-5.4 5.4-7.6 4.2-4.3 4.7-5.4 3-6.4-1.4-.9.7-3.5 2.6-3.5 2.1 0 8.4-4.3 8.4-5.7 0-.6-.5-1.5-1-1.8-1.6-1 .8-3.5 3.4-3.5q4.8-.15 6-6c1.4-7.5 11.1-18 20.3-22 2.4-1 4.6-4.4 3.6-5.4-.3-.3.1-1.4 1-2.4.9-.9 1.5-3.1 1.5-4.7-.1-5.5 1.4-9.8 5.6-15.8 2.2-3.2 4.6-6.7 5.2-7.8s2-3 3.1-4.2 2.7-3.5 3.7-5c.9-1.5 2.5-3.1 3.4-3.4 3.6-1.4 4.4-6.1 1.3-8-1.8-1.1-1.9-1.5-.5-4.1.8-1.6 4.4-6 8-9.7 4.7-4.8 6.3-7 5.5-7.8-2.1-2.1-1.1-4.6 3-7.9 4.8-3.9 6.9-7.5 6.9-11.9 0-3.9 4.2-10.9 9.7-16.3 4.6-4.5 6.3-8 6.3-13 0-3.2 2.6-6.7 6.1-7.9 1.1-.4 1.8-2.3 2.3-6.5.5-4 1.3-6.5 2.6-7.7 1.1-1 2.3-1.5 2.7-1.2.3.4 1.2.2 2-.4 2.2-1.9 5.3 1.6 4.6 5.2-.3 1.8.1 3.9 1.5 6.1 1.1 1.8 2.3 5.1 2.7 7.3.4 2.1 1.3 5.2 2.1 6.7s1.6 4.3 1.9 6.3c.2 2 1.4 5.3 2.6 7.5 1.3 2.2 1.9 4.7 1.6 6-.4 1.5.4 3.2 2.5 5.6 1.6 1.9 4 5.2 5.2 7.3 5.8 10.7 7.1 12.8 9.7 15.9 1.6 1.8 2.9 4.2 2.9 5.3s1.6 3.5 3.5 5.5c2.1 2 3.5 4.5 3.5 5.9 0 1.3.6 2.9 1.3 3.4.6.6 2.7 2.2 4.5 3.7 1.7 1.4 3.2 3.5 3.2 4.5 0 1.2.5 1.7 1 1.4.6-.4 2.6.9 4.5 2.9 1.8 2 3.8 3.6 4.3 3.6 1.6 0 9.2 9.8 9.2 12 0 1.5 1.1 2.6 3.7 3.6 2 .9 6 3.9 8.9 6.7 2.9 2.9 7.2 6.9 9.6 9 5.2 4.6 20.5 13 21.9 12.1.6-.3 1.9.2 3 1.2 1.8 1.6 4.5 3.4 7.8 5 .7.4 2.2.2 3.2-.4 1.5-1 2.2-.7 4.1 1.9 5.3 7.1 7.8 8.9 12.4 8.9 3.5 0 4.7.5 6 2.5s2 2.3 3.4 1.5c1.2-.7 2.8-.7 4.4 0 1.6.6 2.7.6 3.1 0 .9-1.5 8.1-1.2 9.4.3.6.8.8 1.7.4 2-.3.4 0 .7.9.7.8 0 2.3-.9 3.3-2 1.7-1.9 1.8-1.9 7.2 3 5.4 5 7.9 6 9.9 4 .8-.8 1.9-.7 3.9 0 2.2.8 3.1.7 4.5-.5 1.1-1 2-1.2 2.4-.7.3.6 2.3.8 4.4.5 2.7-.4 4.2-.1 5.1 1.1 2 2.4 8.7 2.1 10.9-.5 2.8-3.4 6.1-4.2 16.7-4.3s11.3-.4 25.1-8c2.6-1.4 4.7-2 5.6-1.5.8.4 3.3.9 5.5 1 3.2.2 4.8-.3 7.3-2.4 1.7-1.5 3.7-2.7 4.4-2.7.8 0 2.5-.9 4-2.1 1.4-1.1 3.1-1.7 3.7-1.4.6.4 2.5-.6 4.2-2.2 6-5.5 6.4-5.6 8.9-3.9 3.1 2.2 4.5 2 2.4-.3-1.2-1.3-1.4-2.1-.6-2.6s.7-1.1-.2-2.2c-1-1.3-.6-2 2.5-4.5 2-1.7 3.7-3.8 3.7-4.8 0-2.1 4.9-6.6 8.2-7.5 2.1-.6 5.7-2.1 11.7-4.9 2.2-1 4.9-4.5 6.7-8.6.4-.8 1.5-2.4 2.5-3.5s3.3-3.7 5-5.8c1.7-2 3.7-3.7 4.4-3.7 2.5 0 4.3-3.9 3.8-7.9-.3-2.3-.1-4.1.6-4.5.6-.4 1.1-1.7 1.1-2.9 0-3 3.4-8.4 5.8-9.1 1.2-.4 2-1.6 2-3.2 0-1.3.6-3.2 1.5-4.2 2.5-2.9 4.7-8 4.7-11 0-2.1 1-3.9 3.3-5.9 1.7-1.6 3.9-4.3 4.8-5.9 1-1.6 2.6-3.3 3.8-3.9 1.2-.5 2.1-1.7 2.1-2.5 0-.9.7-2.5 1.5-3.6.8-1 1.5-2.7 1.5-3.6s1-2.5 2.3-3.5c2.7-2.2 5.9-7.8 5-8.7-.3-.3.1-1.4.9-2.3 2.2-2.6 8.3-15.6 7.9-17.1-.1-.8.3-1.9.9-2.7.6-.7 1.3-3.6 1.7-6.5.4-3.4 1.2-5.6 2.4-6.3 1.3-.8 1.5-1.6.8-3.4-.5-1.3-.5-3.1 0-4.1.5-.9 1.8-3.6 3.1-6 1.3-2.6 1.9-5 1.5-6-1.3-3-1.2-6.6.1-8.9.9-1.4 1-2.4.4-2.8-1.3-.8-1.3-5.2 0-6 .8-.5.7-1.1-.1-2.1s-.8-1.8-.1-2.6c.9-1.2 1.8-6 2.6-13.8.1-1.9.8-4.8 1.4-6.3 1.5-3.6 1.5-8 0-9.5-2.1-2.1-2-8.1.2-11.2 1.1-1.5 2-3.6 2-4.5s.5-2.6 1.1-3.7c.8-1.5.8-2.7 0-4.4-2.6-5.6-3.1-7-3.4-9.2-.2-1.2-.9-2.8-1.5-3.4-.7-.7-1.2-1.7-1.2-2.4 0-.6-.7-1.7-1.5-2.4-1.3-1.1-1.3-1.5 0-3.3.8-1.2 1.5-3.3 1.5-4.7s.5-3.1 1-3.6c.8-.8.6-1.5-.4-2.3-1.4-1.1-1.4-1.7-.1-4.6 1.2-2.9 1.1-3.5-.1-4.6-.8-.6-1.4-2.8-1.5-4.8 0-2-.4-4.5-.9-5.6-.8-2.2 1.3-5.5 3.7-5.5 2 0 1.5-1.4-.9-2.5-2.8-1.3-5.2-8.8-3.7-11.6 1.1-2.2-.1-2.5-3-.7-3.5 2.2-5-.4-4.5-7.5.3-3.4 1-6.7 1.5-7.3 1.2-1.4.7-4.7-1-6.8-1.2-1.4-1.1-1.9.4-3.6 2.6-2.9 1.7-15.2-1.3-17.7-2.3-2-5-9.4-5.9-16.2-.3-2.5-1.2-6.5-1.9-8.9-.8-2.4-1.2-4.7-.9-5.2.3-.4-.2-1.3-1-2s-1.7-2.8-2.1-4.9c-.4-2-1.2-4.3-1.9-5.1-1.9-2.2-3.8-10-3.1-13.1.3-1.6.1-3.1-.4-3.4-.6-.3-1-1.6-1-2.9s-1.8-4-4.6-6.6c-4-4-4.4-4.9-3.9-7.7.4-2.4-.1-4.1-2.5-7.7-1.7-2.5-3.5-4.8-4.1-5.1-.5-.4-.9-1.2-.9-2 0-.7-2.2-3.7-5-6.5-2.7-2.8-5-5.9-5-6.9 0-2.3-7.3-9.3-9.2-8.9-1.5.3-8.9-4.8-14.4-9.9-2.8-2.6-3.1-5.9-.8-9.1 1.1-1.6 2.1-2.1 3.6-1.6 1.7.5 2 .3 1.4-1.1-.9-2.6 2.1-5.5 5.8-5.5 1.7 0 4-.7 5-1.5 1.1-.8 2.9-1.5 4-1.5 1.2 0 3.4-.7 5-1.5 1.5-.8 3.4-1.5 4.1-1.5 2.3 0 7.1-3.3 8.1-5.4.6-1.5 1.7-2 3.5-1.8 1.9.2 3.1-.5 4.3-2.3 1.3-1.9 2.5-2.5 5.3-2.5 1.9 0 5.1-1 7.1-2.2 2.5-1.5 3.9-1.9 5-1.1 1.8 1.1 8.7-.9 11.4-3.4 1-.8 2.4-1.3 3.1-1 .8.3 5 .1 9.3-.4 6.6-.8 8.2-1.4 9.7-3.4 1.4-1.9 2.8-2.5 5.7-2.5 2.1 0 4.3-.6 5-1.5.7-.8 1.8-1.5 2.5-1.5s1.8-.6 2.4-1.4c.7-.8 2.6-1.8 4.2-2.1 1.8-.4 5.4-3.2 9.1-7.1 5.8-5.9 6.6-6.4 10.6-6.4 2.4 0 5.6-.7 7.1-1.5 1.6-.8 4.8-1.8 7.2-2.1 2.4-.4 5.3-1.3 6.4-2s6.1-2 11-2.9c5-1 9.7-2.1 10.5-2.6.8-.4 3.8-2.2 6.6-3.9 3.2-1.9 6.5-3 8.8-3 2.1 0 4.7-.5 5.8-1.1s4.4-1.5 7.2-2c11.4-1.9 11.4-1.9 12.6-5.5.7-1.9 2.3-4.2 3.6-5.1 1.6-1 2.4-2.5 2.4-4.3 0-1.5.7-3.3 1.5-4 .9-.7 1.3-2 1-2.9-.2-.9-.7-3.3-.9-5.4-.3-2.1-1-4.4-1.6-5.1-.5-.8-.8-2-.5-2.8s-.1-2.1-1-2.8c-.8-.7-1.5-2-1.5-3 0-.9-.9-2.5-2-3.5s-2-2.4-2-3.1-2.1-2.5-4.6-4.1c-2.5-1.5-6.1-4-7.9-5.6-2.1-1.7-4.7-2.8-7.1-3-2.2-.2-4.8-.8-5.9-1.4s-3.6-1.4-5.5-1.8-5.9-2.1-8.9-3.7c-4.3-2.3-6.3-2.9-9.1-2.4-4.2.7-8.8-1.8-7.1-3.7.7-.9-.4-1.2-4.1-1.4-3.7-.1-4.8.2-4.4 1.2 1 2.8-9.1 9.4-11.2 7.3-1.2-1.2-6.3.4-9.2 2.7-.8.7-3.6 1.6-6.2 1.9-5 .7-5.3 1.3-5.1 7.4.1 1.6-6.3 6.6-7.5 5.8-.5-.3-2.7.6-4.8 2-2.1 1.5-5.6 2.9-7.6 3.2-2.1.2-3.8 1-3.8 1.7 0 2-3.1 4-5.5 3.7-1.4-.2-3.3.8-5.3 2.7-1.8 1.8-4.1 3.1-5.5 3.1s-3.8 1.1-5.4 2.4c-1.5 1.3-4.1 2.6-5.8 2.9-7.5 1.5-9.3 2-14.5 4.4-3 1.5-7.1 4.2-9.1 6-3.2 3-4.2 3.4-9.8 3.6-3.6.1-6.7.7-7.3 1.4s-1.9 1.3-2.9 1.3-2.1.5-2.4 1c-.4.6-1.5.8-2.4.5-1-.3-2.4.1-3.1 1-.7.8-1.7 1.2-2.2.9-.6-.4-2.8 1.3-4.9 3.6-2.9 3.1-4.2 4-5.1 3.2-1.7-1.3-10.7-.6-12.7 1.1-.9.8-3.2 2-5.1 2.7-1.9.8-4.8 2.4-6.5 3.6-1.6 1.2-5.3 2.9-8.1 3.8s-6 2.3-7 3.1-2.5 1.5-3.2 1.5-3.5 1.8-6.2 4.1c-3.8 3.2-5.9 4.2-10.4 4.8-3.1.4-6.4 1.4-7.3 2.2-2.2 1.8-6.9 3.9-8.8 3.9-.7 0-3.6 1.4-6.4 3.1-3.6 2.3-5.4 4.1-6.2 6.6-.6 1.8-2.2 4.1-3.5 5-2.2 1.4-2.3 1.7-.9 3.3.8.9 1.5 2.3 1.5 3.1s1.4 3.2 3 5.3c1.7 2.2 3 4.4 3 5 .1 1.7 4.8 6.6 6.3 6.6 1.8 0 6.2 4.8 10.7 11.8 1.8 2.9 4 5.2 4.7 5.2 1.8 0 12.3 10.9 12.3 12.7 0 .8 1.2 1.3 2.8 1.3 1.7 0 3.7.9 4.8 2.2 3.4 3.9 7.4 10.3 7.4 11.9 0 .9 1.1 2.6 2.5 3.9s2.5 3.2 2.5 4.3 1.1 3.5 2.4 5.2c1.7 2.2 2.2 3.5 1.4 4.3-.7.7-.3 2.5 1.2 5.8 1.2 2.7 2.2 6.1 2.2 7.5 0 1.6 1 3.6 2.4 5 1.3 1.2 2.4 2.7 2.4 3.2s1 1.7 2.2 2.7c2.2 1.8 2.2 1.8.4 3.9-2 2.2-1.5 3.5 2.9 7.2 2 1.7 2 1.7-.3 4.8-2.6 3.5-2.2 5.1 1.2 5.1 4 0 4.8 1.9 2.4 6.1-1.7 3-1.9 4.1-.9 5.2.6.8 1.8 6.4 2.7 12.3.8 6 1.9 14 2.5 17.9 1.2 8.8 1.4 14.8.5 16.3-.4.6-.8 6.9-1 13.9-.2 7.1-.7 14.2-1.1 15.9-.5 2.3-.1 4.5 1.6 8 1.2 2.7 2.1 5.7 2 6.6-.1 1 .3 2.7.9 3.8.9 1.6.8 2.5-.1 3.6-.9 1.2-.9 2 0 3.8 1.4 2.5 1.9 23.6.7 27.3-.4 1.2-.9 5-1.1 8.5s-.7 8.4-1.1 10.9c-.5 3.5-.2 5.2 1.1 7.3 1.2 1.8 1.4 3 .7 3.9-.9 1.1-2.2 9.4-2.7 18-.2 2-.8 4.3-1.3 5-1.1 1.2-2.2 6.4-2.4 10.7-.1 1.4-.7 3.2-1.4 4-.6.8-1.5 3.5-1.9 6s-1.4 5.3-2.3 6.3c-.8.9-1.2 2-.9 2.4.4.3 0 1.4-.9 2.4-1.1 1.3-1.5 2.8-1.1 4.8.6 2.9-1.3 8.4-3.4 9.6-.5.4-.9 1.8-.9 3.3s-1.5 4.9-3.2 7.7c-1.8 2.7-3.3 6.3-3.3 8-.2 3.8-3.7 11.5-6.4 13.9-1.2 1.1-2.1 2.6-2.1 3.5-.1 4-5.5 15.1-11.7 23.8-1.3 1.7-2.3 3.8-2.3 4.6 0 2.6-2.7 4-6.6 3.2-3.5-.6-3.6-.6-3.2 2 .6 3.1-2.3 9.8-5.8 13.5-6.1 6.5-11.2 12-14.4 15.6-1.9 2.1-5.1 4.8-7 5.9-5.8 3.4-6.9 4.1-8.7 5.7-1 .9-2.9 1.9-4.3 2.3s-4.5 1.8-6.9 3.1-5.6 2.4-7.1 2.4c-3.2 0-9.3 2.4-13.1 5.1-2.1 1.4-2.9 1.6-3.6.6-1.2-1.6-3-5.7-3.8-8.4-.3-1.2-2.2-3.2-4.1-4.4-2.2-1.3-4.3-3.8-5.6-6.8-6.5-14.6-9.1-19.1-12.8-22-2-1.5-2.5-2.6-2.3-5.3.9-9 1.2-12.1 1.6-12.5.7-.7-1.3-8.6-2.5-10.1-1.7-2-1.8-5.5-.2-7.3 1.2-1.3 1.2-2.1.1-5-.8-1.9-1.5-6.1-1.6-9.4-.2-3.5-.9-6.7-1.7-7.6-1.5-1.7-1.9-6.5-.5-7.3 1.2-.8.1-10.8-1.4-12.6-.8-.8-1.1-2.7-.8-4.2s0-6.4-.6-10.9c-.8-5.8-.8-8.6 0-9.5.7-.9.3-2.7-1.7-6.6-3.2-6-3.7-10.2-1.9-13.8 1.9-3.9 2.6-9 1.4-11.1-.5-1.1-1.2-6.3-1.5-11.7-.3-5.3-.6-12-.8-14.8-.2-4.3-.8-5.6-3.2-7.7-2.6-2.3-2.9-3-3-10.1-.1-4.2.3-7.9.8-8.2.5-.4 1.8-2 2.8-3.6 1.8-3 1.8-3.1-.5-6.8-1.3-2-2.3-4.7-2.4-6.1-.3-9.5-.1-11.2 1.3-13.4.8-1.2 1.1-3.4.9-5-.3-1.7-.7-6.8-.9-11.4-.3-6-.9-9-2.1-10.3-1.3-1.5-1.4-2-.3-3.3 1.5-1.8 2.3-18.2.9-19.1-.5-.3-.9-1.5-.9-2.8 0-1.2-.3-2.6-.7-2.9-1.7-1.8-.6-10.9 1.9-16.4.6-1.2 1.1-4 1.1-6.3 0-2.2.4-4.3.8-4.6.5-.3.9-1.7.9-3.1 0-1.3.8-3.8 1.7-5.4 1.6-2.8 1.6-2.9-1-4.9-1.5-1.2-2.5-2.6-2.2-3.1.4-.5.3-1.5-.2-2.2-.4-.6-.8-3.7-.8-6.8s-.6-6.3-1.3-7.1c-1-1.2-.8-1.9.8-3.3 2.2-2 2.5-5 1-8.9-.6-1.6-.6-2.7.1-3.1.5-.4.7-1 .5-1.4-.3-.4-.1-2.3.3-4.3.5-2.2.5-4-.1-4.6s-.2-1.5 1.2-2.5c2.4-1.7 1.9-3.7-.9-3.7-.9 0-2.2-.5-2.9-1.2-1.8-1.8-1.5-7.9.5-10 1.3-1.4 1.7-4 1.9-10.1.2-8.6 1.8-16.2 3.9-18.7.7-.8 2-3.2 2.9-5.3.8-2 2.2-4 3.1-4.3.8-.3 1.5-1.2 1.5-1.8 0-.7 1.1-2.3 2.5-3.6 1.4-1.4 2.5-3.3 2.4-4.5-.4-3.3 1.2-8.9 3.1-11 1-1.1 2.1-3.4 2.5-5.2.3-1.8 2.4-5.4 4.6-8.2 2.1-2.7 3.9-5.7 3.9-6.8 0-1 .4-2.3.9-2.8.5-.6 1.4-2.8 2.1-5 1.9-6.2 4.7-12 6.5-13.5.8-.7 1.5-2.2 1.5-3.4 0-1.1.7-3.5 1.6-5.1.9-1.7 1.7-4.2 1.8-5.7s1.1-3.7 2.1-4.8c1.5-1.7 1.7-2.5.8-3.9-.8-1.3-.8-2.2-.1-2.9.6-.6 1.1-4.4 1.2-8.4.1-4.2.7-8.4 1.6-9.8 3.9-7 5.8-11.4 5.3-12.6-.3-.8 0-2.1.7-2.9.7-.9 1-1.8.7-2.2-.4-.3.4-1.9 1.8-3.4 2.9-3.6 7.5-17.8 7.5-23.5 0-2.4.5-4.6 1.1-5 .6-.3.8-1.6.5-2.9-.3-1.2.2-3.8 1.1-5.6.9-1.9 1.8-5.6 1.9-8.2.1-2.7.6-5.3 1.3-6 .6-.6 1.1-1.7 1.1-2.5s.9-2.5 2-3.9 2-3.6 2-4.8c0-2.4 2.6-8.1 4-9 1.7-1.1 5.9-10.4 4.9-11-1.4-.9-1.1-4.8.7-7.3 1.5-2.1 1.5-2.5 0-4.1-1.3-1.4-1.3-2-.2-3.2 2.5-2.7 6.5-13.6 7.2-19.2.4-3.2 1.1-6 1.5-6.3.5-.3.9-3.4.9-6.8 0-4.4.5-6.7 1.5-7.6.8-.7 1.5-2.3 1.5-3.6s.5-3.5 1.2-4.9c.9-2 .9-3.1.1-4.5-.9-1.3-.8-2.2.3-3.8.8-1.1 1.1-2.3.6-2.6-2-1.2.2-38.9 2.4-40.7 1-.8 1.1-1.6.3-3-.5-1.1-1.2-5.4-1.5-9.7-.3-4.2-.7-8.2-.8-8.7-.3-1 1.8-12.4 2.7-14.9.3-.7.1-3.5-.5-6.2-1.5-7.4-1.2-11.6 1.1-15.9 1.7-3.2 2-5.1 1.6-10.3-.3-3.5-1.2-7.9-2.1-9.8-1.4-3-1.5-3.9-.4-5.9 1-1.9 1-3.3.1-6.7-.9-3.2-.9-5.1-.2-7.1 1.2-3.1 1.5-17 .4-18-.3-.4-.7-5.2-.8-10.6-.1-6.1-.6-10.6-1.4-11.4-.6-.8-1.2-4-1.2-7.1-.1-3.4-.6-6-1.5-6.7-.8-.6-1.4-1.8-1.4-2.6 0-2.6-3.8-8.9-7.9-13-2.3-2.2-4.1-4.8-4.1-5.6 0-.9-1-2.6-2.2-3.7-1.5-1.4-2.2-3-2-4.8.2-2-.5-3.5-2.7-5.6-2.5-2.4-2.8-3.2-2.1-5.7.7-2.3.3-3.6-1.6-6.4-1.3-2-2.4-4.6-2.4-5.8 0-2.2-3.3-5.1-5.9-5.2-2.4 0-3.8-3.2-2.4-5.5 1.1-1.7.8-2.2-2.2-4.6-1.9-1.4-3.5-3.2-3.5-3.9s-.8-2.3-1.9-3.6c-1.8-2.4-2.3-3.8-4.3-13.7-.6-2.8-1.7-5.2-2.4-5.2-.6 0-2.8-1.8-4.8-4s-4-4-4.4-4c-.5 0-1.7-.9-2.7-2s-2.5-2-3.4-2c-2.6 0-6.2-3-5.9-4.8.4-1.8-5.4-4.2-10.4-4.2-1.4 0-3.9-1.1-5.5-2.4-1.6-1.4-4.3-2.8-5.9-3.2s-3.5-1.1-4.2-1.7c-.7-.5-2.7-.7-4.6-.4s-3.9 0-4.5-.6-4.5-1.2-8.6-1.3-9.8-1-12.6-1.9c-4.1-1.4-5.9-1.5-8.8-.7-2.1.7-9.2.9-17.6.6-12-.4-14.8-.2-19.3 1.4-2.9 1.1-5.9 2.8-6.7 3.9-2.1 2.9-8.9 4.9-12 3.5-3.3-1.5-3.2-1.5-3.8.8-.3 1.1-1.3 2.2-2.4 2.6-1 .3-2.5 1-3.3 1.5s-3.4 1.8-5.7 2.9c-3.4 1.5-4.3 2.5-4.3 4.4 0 1.4-1.1 3.4-2.8 4.8-1.5 1.2-3.6 4.5-4.6 7.3-1.1 2.7-3.4 7.3-5.2 10.1-1.9 2.8-3.4 5.6-3.4 6.2s-1.6 2.3-3.5 3.8c-2.7 2-3.4 3.1-2.9 4.9.4 1.6-.3 3.2-2.3 5.6-1.6 1.9-3.7 5.6-4.8 8.4-1 2.7-2.3 5.7-3 6.5s-1.6 3.5-2 5.9c-.7 4.3-3.1 7.7-7 9.8-1.6.9-1.7 1.5-.8 3.6 1.2 2.6.8 6.2-1 8.4-.5.7-.7 2.2-.4 3.3.3 1-.2 2.5-1 3.2-.8.6-1.3 2.2-1 3.5.2 1.4-.3 2.9-1.5 3.9-1.8 1.7-1.8 1.8.3 4 1.8 1.9 2 2.6.9 3.9-.7.8-1.8 1.5-2.5 1.5-.9 0-1.2 1.8-1 6.2.1 4.2-.3 6.8-1.2 7.9-.7.9-1.8 5.4-2.2 10-.5 4.6-1.6 10.3-2.5 12.6-.9 2.4-1.8 6.5-2 9.3-.2 2.7-1.3 6.5-2.5 8.5-1.1 2-2.1 4.4-2.1 5.4 0 .9-.5 2.2-1.2 2.9-.9.9-.9 1.8 0 3.7 1 2.1.8 3.4-.8 7.5-1.7 4.4-2.4 9.9-3.4 28-.2 3.9-1.5 9-2.6 10.5-.4.5-.8 6.2-.8 12.6 0 6.3-.3 12.5-.7 13.8-.3 1.2-.2 2.8.4 3.5 1.2 1.4 1 2.6-1.3 10.6-.8 3-1.5 6.8-1.5 8.5 0 1.6-.3 5.5-.6 8.5-.5 5.3-.6 9.1-.6 12.7.1 3.2-.5 6.8-1.3 8.6-.5 1-.4 2.3.2 3 1.2 1.4.7 4.7-1 8.3-.7 1.5-.7 2.8.2 4.4s.9 2.5.1 3.3c-.6.6-1.1 1.9-1.1 2.9s-.5 2.7-1.2 3.8c-1 1.6-.9 2.3.9 4.2 4.1 4.5 4.6 6.6 3 11.6-1.3 4-2.3 17.3-1.8 22.2 1.2 11.2 1.2 13.7-.3 14.9-2 1.7-2 4.4.1 10.1.9 2.5 1.7 7.6 1.9 11.5.3 6.3.1 7.2-2.2 9.6-1.9 2-2.4 3.2-1.7 4.5 1.3 2.8 1 8.9-.6 10.8-1.2 1.4-1.1 1.9.3 3.4 1.8 2.1 2.1 5.8.6 6.7-.7.4-.3 1.8.9 3.9 1.9 3 1.9 3.4.4 4.9-1.4 1.3-1.5 2.1-.5 4.2 1.5 3.2 1.6 12.9.2 15.6-1.3 2.4-2 17.8-.9 18.5.5.3.9 1.9.9 3.7-.1 1.8.3 5.9.8 9.2.6 3.6.6 7.7.1 10.3-1.1 5.2-.9 11.2.4 12.9.5.7.6 3 .3 5-1.7 10.6-1.8 13.3-.6 14.8.7.9 1 1.8.7 2.1s.1 2.1.9 4c1.2 3 1.2 3.9-.1 7-1.8 4.4-1.9 8.6-.3 10.2.9.9.9 1.5 0 2.4-.7.7-1.2 2.2-1.2 3.4s-.7 2.7-1.5 3.4c-1.4 1.1-1.4 1.5-.1 2.9 1.9 2.2 1.5 25.6-.5 28.8-1.1 1.9-1.1 2.4.4 4.1 1.5 1.6 1.6 3.2 1.1 10.8-.3 4.9-.7 10.3-.8 12.1-.2 4.2-1.9 6.1-4.1 4.3-2.9-2.4-1.7 1.8 2 6.6 3.6 4.7 4.3 6.8 2.4 8-.6.3-.8 1.6-.5 2.8.3 1.3-.3 4.6-1.3 7.4-1.5 3.9-1.6 5.4-.7 6.1.7.6 1.8 5.2 2.5 10.3s1.9 10.5 2.6 12c.7 1.4.9 3 .4 3.5-.9.9-1 5.8-.5 19.8.2 5.5.1 10.6-.4 11.4-.4.8-.3 2.3.3 3.2.8 1.4.8 2.7 0 5.1-2.2 6.1-1.5 21.9 1.2 24.8 1.2 1.3 1.5 2.4.8 3.2-.8 1.1-2.1 6-3.9 15.6-.3 1.3 0 3 .5 3.6 1 1.1 1.4 5.3 1.1 9.6-.1.8 0 7.9.2 15.8.2 7.8 0 14.6-.4 15s.2 2.7 1.4 5.1l2.2 4.4-3.6 3.2c-1.9 1.8-4.2 5.1-5.2 7.5-.9 2.3-3.1 6-4.8 8.1-3.3 4.1-3.9 6.1-3.9 11.6.1 4.2-3 10.1-7.7 14.6-2 2-6.4 7.5-9.7 12.3s-7.3 10-8.9 11.6c-1.5 1.5-2.6 3.4-2.3 4.2s-.5 2.4-1.8 3.6c-1.8 1.7-2.2 2.7-1.5 4s.5 2.1-.5 3c-.8.7-1.5 1.8-1.5 2.5 0 .6-.9 2-2 3s-2 2.5-2 3.2c0 .8-1.7 3.5-3.7 6-2.5 3.1-4.2 4.3-5.5 4-2.1-.6-2.4.6-.4 2.2 1.2 1 1.1 1.8-.8 5.4-1.2 2.3-3.4 4.8-4.9 5.5q-2.7 1.35-2.7 3.6c0 1.3-.9 3.1-2 4.1s-2 2.4-2 3c0 .7-.8 2.3-1.9 3.6-1 1.3-2.2 3.5-2.6 4.9s-1.4 3.3-2.2 4.2c-.9.9-1.6 3.1-1.7 4.7-.1 3.1-5.4 9.6-8.7 10.6-1 .3-2 2.1-2.4 4.2-.4 2.5-2.4 5.6-6.1 9.5-3.2 3.5-5.7 7.4-6.4 9.7-.5 2.1-1.9 4.6-3.1 5.7-1.2 1-3.7 4.1-5.5 6.9-1.9 2.7-4.9 7-6.8 9.5s-5.1 6.7-7 9.5c-2 2.7-4.9 6.8-6.5 9-1.7 2.2-4.6 6.3-6.6 9.2-4 5.8-11.3 12.8-15 14.5-1.4.6-2.5 1.6-2.5 2.3 0 1.5-11.4 13.5-12.8 13.5-.7 0-1.2.8-1.2 1.7s-1.2 3-2.7 4.5c-2.1 2.2-3.6 2.8-7.1 2.8-2.4 0-5.6.7-7.1 1.6-2.5 1.5-3 1.5-5.8.1-4.3-2.2-9.3-6.6-9.3-8.1 0-.7-2.3-3.6-5-6.5-3-3.1-5-6.1-5-7.5 0-1.3-1.2-3.1-3-4.4-1.6-1.3-3-2.9-3-3.6s-2-3.3-4.5-5.7l-4.6-4.4 2.5-2c2.3-1.8 2.4-2.4 1.6-6.7-.9-4.7-3.5-10.5-6.3-14.3-1.1-1.4-1.2-2.5-.4-4.2.9-2 .7-2.6-1.1-3.9l-2.2-1.5 2-3c1.2-1.6 3.1-2.9 4.2-2.9 1.9 0 1.9-.1-.3-1.9-2-1.7-2.2-2.3-1.2-3.8 2.7-3.8 5.2-9.6 4.7-10.5-.3-.5-.1-1.4.4-2.1s1.4-3.3 1.9-5.8c.9-3.9.7-5-.8-7-2.3-3-2.3-3.8-.3-6.1 1.4-1.4 1.4-2 .4-3.3s-1-1.9.4-3.3c1.8-2.1 2.2-6.7.6-7.7-.6-.4-.8-1-.5-1.5.3-.4-.7-1.5-2.1-2.5-2-1.3-2.3-1.9-1.4-3 .8-1 .8-1.5 0-2s-.7-1.2.3-2.3c3.2-3.7 4.9-8.4 4.2-11.9-.5-2.9-.1-3.9 2.4-6.8s2.9-4 2.4-7c-.3-2.1-.1-4.6.7-6 1.1-2 1.1-2.7 0-4-1.8-2.2-.4-6.6 3.1-9.6 3.1-2.5 7.2-11.9 6.3-14.3-.8-2.2 1.5-6.6 4-7.6 1.6-.6 2.4-1.7 2.4-3.2.1-3.6 1.7-11.1 2.9-13.2.6-1 .8-2.7.6-3.6-.3-1 .6-2.5 2.1-3.8 1.4-1.1 2.6-2.6 2.6-3.4s.4-1.8.9-2.4c1.5-1.5 1.5-5.7.1-8.7-1.2-2.5-1.1-3 1-5.2 1.3-1.4 3.2-2.5 4.3-2.5 1.6 0 1.7-.2.7-1.5s-1-1.9.4-3.4c1.5-1.6 1.5-1.9.1-3.1-2.2-1.9-1.9-2.8 2.5-7.2 2.2-2.2 4-4.8 4-5.7s.4-2.1.9-2.7c1.9-1.9 4.9-13.1 5.6-20.6.4-4.6 1.3-8.2 2.1-8.9.8-.6 1.4-1.7 1.4-2.4s.7-1.8 1.5-2.5c.9-.7 1.3-1.5 1.1-1.8-.3-.2.2-1.9 1.2-3.6.9-1.7 1.7-3.6 1.8-4.1.2-3.4 1.8-7.5 3.3-8.9 1.6-1.4 1.7-2.3.9-5.8-.8-3.8-.4-8.9 1-11.3.3-.5.7-1.6.8-2.5.2-.8.8-3.3 1.4-5.5.7-2.2 1.3-5.6 1.4-7.5.4-5.2 4.2-11.9 10-17.2 4.7-4.4 5-4.9 3.8-6.9-1.7-2.6 0-4.9 3.5-4.9 1.7 0 2.2-.4 1.6-1.3-1.1-1.8-.4-5.4 1.9-9.9 1.1-2.1 2.3-6.7 2.6-10.3.3-4.3 1-6.9 2.2-8 1.3-1.2 1.6-2.6 1.3-5.9-.4-2.9 0-5.5 1-7.5 1.2-2.5 1.3-3.8.4-6.7-1-3.4-.9-3.8 1.5-5.8 1.9-1.4 2.9-3.5 3.4-6.5.4-2.5 1.3-5.6 2-7 .8-1.4 1.9-5.1 2.5-8.1.7-3 1.7-6.1 2.3-6.9 1.4-1.7 3.6-8.1 3.6-10.3 0-1 .9-2.3 2-3s2-1.8 2-2.5 2-3.7 4.5-6.7c2.5-3.1 4.5-6.4 4.5-7.4s.5-2.3 1.1-2.9 1.6-2.1 2.3-3.4c.6-1.2 2.7-3 4.6-4.1 1.9-1 3.5-2.4 3.5-3.1 0-.6 1-1.6 2.2-2.2 1.6-.7 2.1-1.5 1.7-2.7-.3-1 .4-3.2 1.7-4.9 1.2-1.8 3.9-6.4 5.8-10.4 2-4 4.3-8 5-8.9 1-1.1 1-2 .3-2.9-.7-.8-.8-2.6-.3-4.9s.5-4-.2-4.7-.4-1.8.9-3.7c1-1.5 2.4-3.4 2.9-4.3.6-.9 4.5-5.2 8.8-9.5 8.6-8.7 10-11 10.2-17.4 0-3.6-.5-4.9-3.1-7.5-2.5-2.4-3-3.5-2.4-5.2.4-1.2.4-2.9-.2-3.9-.5-1-.7-2-.4-2.3s-.4-1.7-1.4-3.1c-1.1-1.3-2-3.1-2-3.8s-1.3-2.8-2.9-4.6-2.8-3.6-2.7-4c.1-.7-9-7.4-12-8.7-1.1-.5-3.2-2.3-4.7-4-1.4-1.7-3.2-3.1-3.9-3.1-.8 0-1.8-.4-2.4-.9-.5-.5-4.5-2.8-8.9-5.1-6.4-3.4-9-4.2-13-4.2-3.1.1-5.6-.5-6.6-1.4-1.4-1.2-2.5-1.3-5.2-.6-3.5 1-5.7.1-5.7-2.3 0-.5-1.4-1.8-3.1-2.7-2.4-1.4-3.3-1.5-5-.5-1.6 1-2.5.9-5-.6-1.7-.9-4.1-1.7-5.3-1.7-2.7 0-6.1-3.4-5.1-5 .4-.6.1-1.8-.7-2.7-.7-.9-1.2-1.8-1-2 .1-.1.2-.6.2-1s-.7.3-1.6 1.5c-1.2 1.8-1.9 2-2.9 1.2-.8-.6-1.1-1.8-.8-2.6.4-1-.4-1.4-2.9-1.4-4.2 0-9.4-2.5-10.9-5.1-.9-1.7-1.8-1.9-7.7-1.4-4.6.3-7.7 0-9.7-.9-7-3.2-8.1-3.7-10.5-4.1-1.4-.3-3.6-1.8-5-3.5s-3-3-3.6-3-1.7-.7-2.4-1.5-2.7-1.5-4.6-1.5c-2.3 0-3.8-.7-4.8-2.2-.9-1.2-3.5-3.1-5.8-4.3-2.4-1.1-4.2-2.6-4-3.3.1-.7-.8-1.2-2.2-1.2s-6-2.4-10.3-5.2c-4.3-2.9-8.7-5.7-9.8-6.3s-1.8-1.4-1.5-1.8c.8-1-6.5-4.4-10.8-5-3.7-.5-15.4-4.2-18.2-5.7-.8-.4-1.4-1.7-1.3-2.8.3-2.5-1.6-3.2-9.7-3.6-7.4-.4-10-2.3-10-7.6 0-2.9-.6-4.1-3-5.8-1.6-1.2-3.6-2.2-4.4-2.2s-2.3-1-3.3-2.3c-2.2-2.7-7.6-4.7-12.6-4.7-2.8 0-4-.6-5.3-2.5-.9-1.4-2.8-2.8-4.3-3.1-1.4-.4-4.1-2-5.8-3.7-2.5-2.3-3.1-3.6-2.7-5.4.5-1.7 0-3.1-1.6-4.8-2.1-2.3-2.2-2.6-.7-4.9.9-1.3 1.4-3.4 1.1-4.8-.3-1.2-.7-4.6-1-7.3-.2-2.8-.8-7.7-1.3-11-.6-3.8-.6-6.4 0-7.1.6-.8.2-1.7-1.5-2.8-2.4-1.5-3.1-4.9-1.5-7.1 1.1-1.5.4-6.2-1.1-8-1-1.2-1-1.9-.2-2.7.7-.7 1.2-3.5 1.2-6.3 0-3.9-.5-5.6-2-7-1.1-1-1.8-2-1.5-2.3 1-1-2.6-4-4.3-3.5-1 .2-3-.5-4.5-1.7-2.2-1.8-2.5-2.5-1.6-4.1.6-1.1.9-2.5.6-3.2-.2-.6.2-2.3.9-3.6 1.1-2.1 1.1-2.8-.1-4.1-2.4-2.7-1.8-4.5 3-8.9 2.5-2.3 4.5-4.7 4.5-5.4s.5-1.8 1.1-2.4c.5-.5 1-3.4 1.1-6.4 0-3 .5-6.2 1-7.2.6-1.2.5-1.7-.6-1.7-1.7 0-5.8-5.4-5.5-7.2.5-2.9-2.1-6.8-4.4-6.8-2.7 0-4.7-1.7-4.7-4.2 0-1-3.5-5.7-7.9-10.5-7-7.9-7.8-9.1-7.4-12 .4-2.5-.1-4-2.1-6.4-1.4-1.7-2.6-3.8-2.6-4.7 0-2.6-7.5-10-10.7-10.7-3.4-.8-4-1.1-7.8-3.3-2.4-1.5-2.9-2.5-2.7-4.6.3-2-.8-4-4.2-8.1-2.5-2.9-4.6-5.8-4.6-6.5 0-.6-.4-.9-.9-.5-.5.3-1.6-.3-2.3-1.3-1.7-2.5-6.4-4.1-5.5-1.9.3.9 0 2-.7 2.6-.9.8-1.8.4-3.4-1.4-1.2-1.4-2.9-2.5-3.7-2.5s-2.2-1.1-3-2.4c-1.6-2.5-8.9-5.6-13-5.6-1.2 0-3.7-.7-5.5-1.6-4.4-2.3-9.8-3.6-14.1-3.4-2 0-4.7-.4-6.1-.9-3.8-1.4-28.2 2.1-30.9 4.5-.8.8-1.9 1.4-2.3 1.4-.5 0-2.1 1.1-3.8 2.5-1.6 1.4-3.9 2.5-5.1 2.5-2.3.1-7.7 4.2-7.7 5.9s-4 3.9-6.1 3.4c-2.3-.6-6 2.3-5.3 4.2.4.8-1 2.4-3.3 3.8-4.7 3-11.9 10.4-11.5 11.9.2.6 0 1.8-.4 2.7s-.8 2-.8 2.5c-.1.9-2 2.1-4.8 3-1 .3-1.8 1.4-1.8 2.5 0 1-1.6 3.2-3.5 4.8-3 2.4-3.6 3.7-4.4 8.8-.5 3.3-1.6 8.5-2.5 11.5s-1.6 6.6-1.6 7.9c0 1.4-1 3.5-2.2 4.8-1.9 2.1-2 2.4-.6 4 1.6 1.7 1.8 7.6.4 9-1 1 .5 7.6 2.1 9.5.8.9 1.7 3.4 2 5.6.4 3.2.2 4.2-1.6 5.5-2.1 1.4-2.2 1.6-.7 5.2 1.8 4.2 2 7.6.7 9-1.4 1.4-1.5 4.3-.7 10.6.7 5 1.2 6 4.3 8 3.5 2.3 8.8 10.3 7.9 11.8-.7 1 .5 2.4 4.2 5 1.7 1.2 3.2 2.8 3.2 3.5s.9 2.1 2 3.1c1 .9 1.8 2.7 1.7 3.8-.1 1.4.4 2.2 1.4 2.2.9 0 3.9 2.6 6.8 5.7 2.9 3.2 5.7 5.8 6.2 5.8 2.1 0 19.9 19 20.3 21.7.2 1 .7 1.8 1.3 1.8 1.1 0 5.9 3.7 13.6 10.6 2.9 2.6 6.2 4.9 7.4 5.3 1.1.4 3.4 2.3 4.9 4.3 1.5 1.9 4.7 4.4 7.1 5.5 2.5 1.1 4.9 3 5.5 4.4.6 1.3 1.8 2.4 2.6 2.4s3 1.1 4.8 2.5 3.6 2.5 4 2.5 3.1 1.6 6.1 3.6c2.9 1.9 7.3 4.4 9.8 5.5 2.4 1.1 5.7 3 7.2 4.3s4 2.6 5.5 3c1.5.3 4.6 2.4 7 4.6 2.3 2.3 5.3 4.3 6.7 4.7 3.4.8 5.3 2.3 4.7 3.8-.2.7.2 2.5 1 4 1.2 2.4 1.2 3 .1 4.4-1.9 2.2-2.9 8.2-4.1 25.1-.2 2.5-.6 5.2-1 6.1-.4 1-.3 1.9.2 2.3.5.3.7 7.2.6 15.3-.2 8.6.2 16.1.8 17.9.8 2.3.6 4.9-.9 11.5-1.1 4.6-1.9 10.3-1.7 12.7.1 2.3-.2 4.5-.7 4.8-1.4.8-1.1 5.6.6 8.7 1.3 2.6 1.2 2.8-1.2 4.4s-2.5 2-2 7.9c.7 6.8-.3 8.5-5.4 9.7-2.2.6-2.5 1.1-2.1 3.7.2 1.7.8 3.3 1.3 3.6s0 1.7-1.1 3.1-1.7 2.9-1.4 3.4c.2.5-.3 2-1.2 3.4s-1.3 2.5-.9 2.5c.5 0 .2.8-.7 1.7-2 2.5-3.8 7-3.8 9.6 0 1.3-.6 2.9-1.2 3.5-1 1-1 1.7 0 3.2 1 1.7.9 2.2-.8 3.2-1.1.7-2 2.1-2 3 0 1.5-2.9 7.5-5 10.3-1 1.4-3.1 9.4-3.4 13.5-.7 7-1.9 11.2-3.7 12.3-1.3.8-1.5 1.4-.7 2.4s.8 2 0 3.6c-.6 1.2-1.4 5-1.7 8.5-.9 8.3-3.6 15.5-6.2 16.6l-2.1 1 2.2 1.7c2 1.6 2 1.8.3 3.6-.9 1.1-1.7 2.9-1.7 4s-1.1 3-2.5 4.3c-1.6 1.5-2.3 3-2 4.1.4 1 0 2.9-.6 4.1-.7 1.3-1.4 6.3-1.5 11.1-.2 4.9-.8 9.5-1.4 10.2-.7.8-.9 1.9-.6 2.4.4.5-.2 1.6-1.1 2.3-2.6 1.9-6.1 9.6-6.6 14.6-.3 2.4-1.3 5.2-2.2 6.2-1 1.1-1.7 3.2-1.7 4.7s-.4 3.3-.8 3.8c-.5.6-1.1 5.1-1.4 10-1.2 18.7-1.5 20.5-3.8 24.3-2.9 4.6-4.9 12.3-3.7 13.8.6.7.2 1.7-1.1 2.9-1.1 1-1.8 2.1-1.5 2.5.6.9-2.5 9-4.2 11.1-.7.8-1.3 2.5-1.3 3.6s-.7 2.6-1.5 3.3-1.5 2.1-1.5 3.1c0 1.1-1.1 3.6-2.4 5.7-1.3 2-2.9 5.5-3.6 7.7s-2 4.9-3 6c-3.1 3.5-4.2 6.6-3.6 10.3.3 2.4-.1 4.4-1 5.6-.8 1.1-1.4 2.6-1.4 3.4s-1.1 2.8-2.5 4.4c-1.6 1.9-2.3 3.7-2 4.8.3 1 .1 2.1-.4 2.4-1.4.9-4.1 6.6-4.1 8.6 0 .9-.5 2.1-1.2 2.8s-1.3 2.9-1.5 4.9c-.2 3.8-2.6 9.8-4.4 10.9-.7.4-.4 1.3.7 2.5 1.7 1.8 1.6 2.1-.9 4.7-1.5 1.6-2.7 3.8-2.7 4.9 0 1.2-.4 2.4-.9 2.7-.4.3-1.1 1.9-1.4 3.6-.4 1.9-1.8 3.7-3.7 4.8-2 1.3-2.6 2.2-1.9 2.9.6.6.9 2.6.7 4.4-.2 2.8-1 3.7-4.3 5.4-2.7 1.3-4 2.5-3.7 3.7.2.9-1.3 3.7-3.2 6.3-2 2.6-3.6 5.5-3.6 6.5s-1.3 2.8-2.9 3.9-3.6 3.7-4.6 5.6c-.9 2-2.2 3.9-3 4.1-.7.3-2.3 3.3-3.6 6.7-1.2 3.4-3.5 7.6-5.1 9.2-1.5 1.7-2.8 3.7-2.8 4.4 0 2.7-6.1 13.9-10 18.4-2.3 2.5-4 5.2-3.8 5.9.4 2.1-3.9 10.2-7.1 13.3-1.7 1.5-3.3 4.1-3.6 5.6-.4 1.6-1.5 3.5-2.6 4.3-1.1.7-1.7 1.9-1.4 2.7s-2.2 4.3-6 8.3c-3.6 3.9-6.5 7.5-6.5 8.1 0 1.6-2.7 3.8-8 6.6-2.5 1.3-7.1 4.9-10.1 8-4.8 4.8-6.1 5.5-8.6 5.2-1.8-.3-4.3.3-6.6 1.6-5.4 3-7.8 2.7-11.8-1.6-5.4-5.8-9.9-11.9-9.9-13.6 0-2-7.2-8.9-8.7-8.3-1.4.6-3.7-2-2.9-3.3 1-1.5 9-5.1 11.7-5.2 2.3 0 2.3-.1.3-.9-1.2-.5-2.9-2.2-3.7-3.8-1.2-2.5-1.2-3.2-.1-4.4 1.6-1.5.9-2.7-2.8-5.1-1.6-1-2.8-2.5-2.8-3.4s-.7-2.5-1.7-3.5c-1.5-1.7-1.5-1.9.2-3.8s1.7-2-.9-3c-3.2-1.2-5-5.3-3.6-8 1.4-2.6 1.3-9.3-.2-10.8-1.3-1.3-1.7-3.3-2.2-10.4-.2-2.5-.7-5.1-1-5.6-.3-.6-.4-1.6-.1-2.4.3-.7-.1-3.8-.9-6.8l-1.4-5.4 2.9-3.4c3.6-4.1 4-10.5.9-14.5-2.4-3.1-2.6-8.4-.4-10.9 1.4-1.5 1.5-2 .3-3.4-.7-.9-1.4-3.9-1.6-6.7s-.7-5.5-1.3-6.1c-1.2-1.2-1.3-5.3-.2-5.9 1.7-1.1-.1-14.2-2.9-21.2-2.7-6.7-3.3-9.5-2.2-10.6.6-.6.9-2.8.6-5-.5-3.4-.2-4.4 2.2-7 1.6-1.6 3.5-2.9 4.2-2.9 1.7 0-.3-3.6-3.4-6.3-4.8-3.9-2.3-10.4 6.8-18.4 3-2.7 7.4-6.9 9.8-9.5 2.4-2.7 5-4.8 5.7-4.8s2.9-1.4 4.7-3c1.9-1.7 4-3 4.6-3s1.1-.5 1.1-1.2c0-.6.7-1.9 1.5-2.8 1.4-1.6 1.4-2.1-.1-5.4-1.7-3.5-1.7-3.7.2-6.4 2.7-3.7 8.3-6.5 10.1-5.1.7.6 1 1.6.6 2.2-1.4 2.4 4.6-3.1 10.7-9.6 3.5-3.8 7.6-7.5 9.1-8.2 1.5-.8 4.8-3.9 7.4-7 3.7-4.3 4.5-5.8 3.6-6.9s-.4-1.9 2.5-4.1l3.7-2.8-2.7-1.9c-1.4-1.1-2.4-2.4-2.1-2.9.7-1 7.9-4.3 11.8-5.3 2.3-.5 2.6-1 1.8-2s-.7-1.7.4-2.6c1.2-1 1.5-2.3 1-5-.5-3.2-.3-4 1.9-5.8 1.4-1.1 2.6-2.5 2.6-3.1s1.5-2.8 3.3-4.8c3.1-3.5 6.7-10 6.7-12 0-.5 1.3-2.4 3-4.3 1.6-1.9 2.9-4.4 3-5.5 0-3.1 4.7-9.3 7.2-9.7 1.7-.2 2.2-.9 2.1-2.6-.3-2.2 3.5-9.4 5.6-10.7 1.9-1.1 4.4-11.4 3.2-12.9-.8-.9.1-2.2 3.4-4.9 2.4-2 4.9-3.7 5.5-3.7.7 0 .9-.7.6-1.5-.3-.9.6-3.4 2.1-5.7 1.5-2.2 2.8-5 2.9-6.2.3-4.1 1.6-9.6 2.6-10.2.5-.3.4-1.1-.2-1.9-.9-1-.5-2.5 1.5-6.2 1.5-2.6 3.2-5.5 3.8-6.3 2.7-3.5 3.7-6.2 3.7-10.4 0-3.5.5-4.8 2.2-6 1.2-.9 1.9-1.6 1.4-1.6-.4 0 .2-1.6 1.3-3.6l2.1-3.6-2.1-3c-2.2-3-2.2-3-.3-9.1 1-3.4 2.6-7.8 3.6-9.8 2.6-5.1 3.4-10.5 1.8-12.4-1-1.3-1-1.9.4-3.3 2.1-2.4 2-3.5-.3-2.7-1 .3-2.4-.1-3.1-1-1-1.2-.9-2 .5-4.2l1.8-2.7 1.8 2.2c.9 1.2 2 2.2 2.3 2.2 1.6 0 .3-6.1-1.9-9.5-1.9-2.7-2.3-4-1.5-5 .6-.7.8-1.9.4-2.8-.6-1.5 5.1-6.7 7.5-6.7 1.4 0 .9-7.5-.7-10.7-.9-1.6-.9-2.3.2-3.2 1.8-1.5 1.7-5.7 0-7.2-.8-.6-1.4-1.8-1.4-2.5 0-.8-1.1-3.2-2.5-5.4s-2.5-5-2.5-6.4c0-1.3-.7-2.9-1.5-3.6s-1.5-1.8-1.5-2.5c0-.6-.9-2-2-3s-2-2.9-2-4.2c0-1.5-.6-2.3-1.8-2.3-2.1 0-4.2-1.9-4.2-3.8 0-.8-1-2.8-2.2-4.5-1.3-1.7-2.7-3.9-3.3-4.7-4.7-7.4-5.8-9-6.3-9.1-4.7-.5-7.2-2.3-7.2-5 0-1-.5-2.1-1.1-2.5-.6-.3-.9-1.5-.6-2.5.4-1.5 0-1.9-2.4-1.9-1.7 0-4.3-.7-5.8-1.5-1.6-.8-3.1-1.2-3.4-.9s-1.7-1.1-3.2-3c-2.6-3.4-2.9-3.5-8-3.2-4.5.4-5.6.1-7.3-1.7-1.1-1.2-2.2-3.1-2.4-4.2-.5-2.8-4.6-3.2-6.5-.6-1.5 2.2-6.7 2.9-7.8 1.1-.3-.6-1.7-1-3-1s-2.7-.5-3-1.1c-.4-.6-1.4-.8-2.2-.5-.8.4-3.2-.4-5.1-1.6-2.9-1.8-5.2-2.3-11.3-2.3-5.1 0-8.2.5-9.3 1.4-1.4 1.2-2.1 1.2-4.1.1-1.8-1-2.8-1-3.8-.2-.8.7-4.9 1-11.3.8-9.7-.4-10-.3-13.2 2.5-1.8 1.6-3.7 2.9-4.3 2.9s-3.5 1.6-6.5 3.6c-4.1 2.8-6 3.5-8 3-3.2-.8-10.5 3.4-17.9 10.4-2.7 2.6-6.3 5.2-8 5.8-8.2 2.8-14 6.8-16.3 11-1.4 2.4-3.2 4.6-4.1 5-.9.3-2.2 1.4-2.9 2.4s-2.1 1.8-3 1.8-3.1 1.4-4.9 3c-2.4 2.2-3.1 3.7-3.1 6.1.1 2.8-.7 4.1-5.2 8.1-3.2 2.8-6.3 4.8-7.7 4.8-3.9 0-7.4 2.9-6.7 5.5.3 1.3.1 3.3-.6 4.5-.8 1.6-.9 2.5 0 3.5.9 1.1.6 1.7-1.4 3-1.4 1-2.6 2.3-2.6 3 0 .8-1.1 2.2-2.4 3.2-1.3 1.1-2.7 3.3-3 5-.4 1.7-1.8 4.1-3.2 5.3-1.3 1.3-2.4 3.1-2.4 4 0 1-2 4.8-4.5 8.4-2.5 3.7-4.5 7.1-4.5 7.5s-1.6 2.2-3.5 4.1c-2.6 2.5-3.3 3.9-2.9 5.6.3 1.2.1 2.5-.5 2.8-.5.4-.7 2.1-.5 3.9.5 2.6 0 3.7-2.5 6.1-1.7 1.7-3.1 3.7-3.1 4.7 0 .9-.7 2.2-1.5 2.9s-1.7 2.8-2.1 4.9c-.4 2-1.3 4.5-2 5.6-.8 1.1-1.4 3.1-1.4 4.5 0 3.8-2.4 9.7-5.1 12.8-4.2 4.6-6.9 9.1-6 9.6 1 .6.1 4.8-2.3 11.5-.9 2.4-1.6 5.2-1.6 6.2s-.9 2.4-1.9 3.1c-1.2.9-2.3 3.6-3.1 7.8-.7 3.6-1.7 6.9-2.1 7.4-.5.6-.9 2.1-.9 3.3 0 3.5-3.9 15-5.6 16.4-.8.6-1.4 2-1.4 3s-.4 2-.9 2.3-1.2 3.3-1.6 6.6-1.5 7.6-2.6 9.7c-1.3 2.5-1.7 4.8-1.3 7.3.4 2.6.2 4-1 4.9-1.1.9-1.2 1.7-.5 2.9 1 1.7.4 4.2-2 8.2-1.2 1.9-2.6 7.7-4.1 16.5-.7 3.8-1.5 7.4-1.9 8-.3.5-.6 4.8-.7 9.5 0 4.7-.6 9.6-1.1 11-.6 1.4-.8 4-.6 5.7.3 1.8.2 4.1-.2 5-.4 1-.7 3.1-.6 4.7.3 2.6-.4 4.7-3.1 9.9q-.9 1.8.3 3.3c.9 1.1.9 1.7-.1 2.9-.9 1.1-1 1.8-.1 2.9.6.7.9 2.9.7 4.8-.3 1.9-.1 5.2.4 7.3.6 2.8.5 4.6-.5 6.5-.8 1.5-1.4 4.5-1.3 6.7.1 6.1-1.1 10.1-3.5 11.8l-2.1 1.5 2.6 2.7c2.1 2.3 2.5 3.7 2.4 8.1-.1 2.9.1 5.5.5 5.8.4.2.3 1.9-.2 3.7-1.3 4.4-1.1 12.1.2 13.4.9.9.8 2-.4 4.5-.9 1.9-1.2 3.7-.7 4.2s.5 1.8 0 3.1c-.6 1.6-.5 2.7.4 3.5 1 .7 1.1 2.1.6 4.5-.4 1.9-.5 3.6-.3 3.9 1 .9.3 12-.7 13-.6.6-.5 1.5.5 2.6.9 1 1.6 3.5 1.6 5.6s.5 7 1 10.9c.5 3.8 1.1 8.5 1.2 10.3.2 1.7.7 3.5 1 3.9.4.3.7 4.1.7 8.2 0 6.7.3 7.8 2.1 8.9 1.9 1.2 2.1 2 1.6 6.6-.3 2.9-1.5 6.8-2.6 8.7-1.2 1.9-2.1 4.3-2.1 5.3 0 1.1-1.2 3.4-2.6 5.3-1.6 2.1-2.4 4.2-2.1 5.4s-.2 2.4-1.5 3.3c-1.1.8-1.7 1.9-1.4 2.4s-.1 1.5-.9 2.2-1.5 1.8-1.5 2.5c0 .6-.9 2-2.1 3.1-1.1 1-1.8 2.6-1.6 3.6.3.9-.1 2.2-.8 2.8-.8.6-1.7 2.6-2 4.3-.4 1.8-1.6 4.2-2.7 5.4-1.8 2-1.9 2.7-1 6.5.6 2.3.7 4.7.3 5.3-.4.5-.8 2.1-.9 3.5s-1.3 3.5-2.9 4.7c-1.5 1.3-2.8 2.7-2.8 3.2 0 .6-.6 1.6-1.2 2.3-.7.6-1.3 1.7-1.3 2.4 0 .6-.7 1.8-1.6 2.5-.9.8-2.7 3.1-4 5.1-1.3 2.1-4.2 4.7-6.4 5.8-2.3 1.2-3.8 2.5-3.4 3.1.7 1.3-2.4 4.9-4.3 4.9-.7 0-1.3.6-1.3 1.4 0 .7-.7 1.9-1.5 2.6-1.1.9-1.2 1.6-.2 3.2 1.1 1.7.7 2.3-2.8 5.1-2.2 1.7-5.6 4.8-7.5 6.9-3.3 3.5-3.8 3.7-8.5 3.4-2.7-.3-6.4-.5-8.2-.5-2.1-.1-4.5-1.2-6.6-3.1-1.9-1.7-4.1-3-5-3-1.7 0-3.3-1.8-3.8-4.4-.2-1-2.3-2.8-4.7-4.1-2.3-1.2-5.4-3.4-6.7-4.8-1.4-1.3-3.8-2.7-5.4-3-3.9-.8-9.1-5.4-9.1-8.1 0-3.1-2-5.4-5-5.8-1.6-.2-3-1.4-3.8-3.1-1.2-2.5-1.2-3.1.3-4.7 2.2-2.5.8-7.4-2.3-7.8-1.1-.2-2.6-.9-3.2-1.7-1-1.3-.3-2.1 6.9-7.2.6-.4 1.1-5.4 1.2-9.7 0-1.9-1-4-3-6-1.7-1.8-3.1-3.8-3.1-4.6s-.7-2.8-1.5-4.4c-.9-1.6-1.3-3.1-1-3.4s-.7-1.8-2.1-3.3l-2.7-2.8 2.7-3.1c2.2-2.7 2.4-3.4 1.4-5.3-2.5-4.5-4.6-12.3-4.1-14.8.3-1.5 0-3-.6-3.3-.6-.4-1.1-1.4-1.1-2.3s-.9-2.6-1.9-3.7c-2.2-2.4-3.8-12-2.2-13 .6-.4.2-1.9-1.1-4.2-1.9-3.2-1.9-3.6-.4-5.3 1.2-1.4 1.3-2 .3-3-.9-1-.7-1.6 1.2-3.2 1.9-1.5 2.1-2.2 1.1-3.4-.7-.8-.9-2.3-.4-3.7 1.6-4.7 1-10.2-1.5-13.6-2.2-3-2.3-3.6-1.2-7.2 1-3.3.9-4.4-.5-6.4-1.1-1.9-1.4-3.6-.9-6.5.6-3.6.4-4.3-2.1-6.4l-2.8-2.4 4.2-2.8c4.8-3.2 5.2-5.2 1.8-8.4-2-1.9-2.3-3-1.9-5.7.3-2 .1-4-.6-4.8-1.8-2.1-2.1-20.8-.5-23.1 1-1.3 1-2.2.2-3.5-.9-1.4-.9-2.2.2-3.4 1.1-1.4 1-2-.8-3.9-2.3-2.5-2.2-4.9.7-12.6 1.6-4.3 1.8-5.8.9-6.9-1.7-2-1.9-4.6-.9-11.2.6-3.3.6-7.3.1-9.6-.6-2.4-.5-4.3 0-4.8 1.4-1.4 1.2-5.8-.4-7.8-1.9-2.5-1.4-17.2.6-19.5 1.8-2.1 3.1-8 1.9-8.7-1.2-.8-2.3-10.6-1.3-11.9.9-1.2 1.5-5.4 1.4-9.7 0-3 2-5.4 7-8.2 4.1-2.3 4.7-3.8 2.3-5.8-1.2-1-1.3-1.6-.4-2.6.6-.8 1.8-1.4 2.5-1.4s2.1-1.2 3.1-2.8c2.5-3.9 12-14.2 16.2-17.5 3.3-2.6 6.1-6 7.8-9.7.3-.8 1.9-3.1 3.5-5 1.5-1.9 2.8-4.4 2.8-5.7 0-1.2 1.1-3 2.4-4.1 1.4-1 3.5-3.8 4.8-6.1 3.6-6.5 4.1-7.4 7.1-11.2 1.5-2 2.7-4 2.7-4.6 0-.5.9-1.8 2-2.8s2-2.3 2-3 .9-2 2-3 2-2.4 2-3c0-.7.7-1.8 1.5-2.5s1.3-1.6 1-2c-.4-.7 1.6-5.8 3.6-9 .5-.8 1.3-2.4 1.8-3.5s1.4-3.1 2-4.5 3.6-5.4 6.6-9 5.5-6.9 5.5-7.3c0-1.5 6.9-8.9 10-10.8 1.6-1 3-2.6 3-3.5 0-2.8 8.8-15.4 10.4-14.8 1 .4 1.6-.5 2.1-2.8s2.9-5.4 7.6-10c3.8-3.7 6.4-7 5.9-7.3-2.1-1.3-1-5.8 2.3-8.9 7.8-7.6 8.2-8.4 6.3-10.5-1.6-1.8-1.5-2 2.4-5.1 2.2-1.7 4-3.7 4-4.3 0-.9 3.8-8.9 6.9-14.7 3.2-5.9 4.1-8.1 4.1-9.8 0-1.1.7-2.5 1.6-3.3 2.3-1.9 8.4-11.4 8.4-13.1 0-2.4 3.9-6.7 7.3-8.2 2.4-1 3.2-2 3.4-4.1.1-2.5 2.1-8.2 4.3-12.6.5-.9.6-2.5.4-3.6-.3-1.1.3-2.6 1.5-3.7s2.1-2.7 2.1-3.6c0-1 .9-2.9 2-4.3 1.3-1.6 1.6-2.8 1-3.2-2.2-1.3-.8-4.5 3.5-8.1 2.5-2 4.5-4.1 4.5-4.8 0-.6 2.9-4.1 6.5-7.9 3.6-3.7 6.5-6.9 6.5-7.1s-.9-.6-2-.9-2.4-1.7-3-3.3c-.9-2.3-.7-3.1 1.1-5 1.2-1.3 2.6-2.1 3.1-1.8 1.4.9 4.6-3.8 5.3-7.9.5-2.8.3-4.3-.9-5.6-1.5-1.6-1.4-2.1.4-5.9 1.1-2.3 3-4.8 4.1-5.5 3.1-1.9 10.9-12.3 10.9-14.6 0-1.1 1.1-2.8 2.4-3.6 1.5-1 2.5-2.8 2.8-5.3.7-4.8 4.5-13.1 6.3-13.8.8-.3 1.7-2.5 2.1-5 .3-2.4 1.2-4.9 2-5.5s1.4-2.2 1.4-3.5c0-1.2.5-2.6 1.1-2.9.6-.4.8-1.3.5-2.1s.4-3 1.5-5c1.9-3.4 4.9-17.2 4.6-21.1-.1-1 .8-2.2 2.1-2.8 2.4-1.1 2.9-4.4 1-6.3-.9-.9-.7-1.7 1-3.5 1.2-1.3 2.2-3.5 2.2-4.9s.7-3.1 1.5-3.8c.7-.6 1.7-3.3 2.1-5.8.3-2.6 1.8-6.2 3.2-8.1 2.1-2.8 2.3-3.7 1.4-5.2-1-1.5-.9-2.1.7-3.1 1-.6 1.7-1.7 1.4-2.4-.2-.7.5-1.9 1.6-2.6 1.8-1.1 1.9-1.4.5-2.9-.9-1-1.1-1.9-.6-2.3.7-.4.6-1.6-.1-3.5-1-2.6-.7-3.3 2.2-6.7 2.8-3.1 3.2-4.3 2.8-7.1-.4-1.9-.2-4.2.2-5.1 2.1-4.3 3-8.6 2.1-9.7-.7-.8-.5-2.2.5-4.1 1-2 1.3-4.3.9-7-.5-3.6-.3-4.4 2-6.1 2.5-2 2.6-2.2 1-5.8-.8-2.1-1.2-4.4-.8-5.4.4-.9.9-2.1.9-2.6.5-3.2 1.8-7.4 3.2-10.2 1.3-2.6 1.3-3.5.4-4.7-.7-.9-.9-2.1-.5-2.8 1.2-1.9 1.4-7.7.4-8.3-.6-.4-.6-1.3-.1-2.3 1.5-2.8 3.3-13.1 2.5-14.4-.4-.6-.6-3.5-.5-6.4s-.3-5.5-.9-5.9c-1.5-.9-1.2-5.1.5-6.5 1.3-1.1 1.3-1.5 0-3.3-1-1.4-1.1-2.4-.4-3.3s.7-2.6-.1-5.5c-.6-2.3-.9-5.2-.6-6.5.3-1.2.1-2.6-.4-2.9-.8-.5-.8-1.1 0-2 .7-.9.9-3.1.5-5.9-.5-2.8-.3-5.1.3-5.9.6-.7 1.4-3.1 1.7-5.2.6-3.6.3-4.3-2.4-6.9-3.8-3.6-3.9-5.6-.6-8.4 1.4-1.2 2.5-3.2 2.5-4.5 0-1.2.7-5 1.6-8.2 1.9-7.5 1.2-11.5-2.9-15.4-2.5-2.6-3.1-3.8-2.8-6.6.2-2.5-.2-3.5-1.2-3.5-2.6 0-4-2.6-2.6-4.8.7-1.1.9-2.7.4-3.8-.4-1.1-.8-4.6-.9-7.9s-1-9-2-12.8c-1.8-6.4-1.8-6.8-.1-8.7s1.7-2-1.1-3.2c-4.1-1.7-6.4-3.8-6.4-5.9 0-1-1.1-3.8-2.4-6.2-1.7-2.9-2.2-4.8-1.5-5.8 1.5-2.4 1.1-3.3-4.6-8.9-6.1-6-10.9-12.5-12-16.2-.5-1.2-1.6-2.9-2.6-3.6s-1.6-1.8-1.3-2.6c.3-.7-.2-1.9-1.1-2.6-.8-.7-1.5-1.8-1.5-2.5 0-1.4-2.8-4.4-10-10.5-2.9-2.5-6.7-6.8-8.6-9.5-1.8-2.8-4.2-6-5.3-7.3-2.5-2.8-8.4-4-10.7-2.1-1.7 1.4-2.4.8-6.8-5.2-.6-.8-3.6-2-6.6-2.6-10.2-2.1-11.5-2.5-14.5-3.8-6.2-2.8-12.2-4.5-17.5-5.1-3-.4-6.1-1.2-6.9-1.8-.7-.5-6.3-1.2-12.5-1.3-17.2-.4-24.6-1-26-2.2-1.3-1.1-11.7-.8-14.7.4-1 .3-2 .2-2.4-.4-.8-1.4-3.9-1.2-9.5.6m73.4 66.5c5 1.4 8.8 4.8 11.6 10.2 2.9 5.7 6.3 11.1 8.2 13.3.9 1 1.8 3.1 2 4.6.3 1.7 1.3 3.3 2.8 4 1.3.7 2.7 2.3 3 3.7.4 1.4 1.9 4.5 3.4 6.8 1.4 2.3 2.6 5.4 2.6 7 0 1.5.7 3.8 1.6 5.1s1.7 4.2 1.8 6.6c0 2.3.8 5 1.6 6 .8.9 1.3 3 1.2 4.5-.2 1.6.2 3.1.7 3.5 3.3 2 6.4 12.7 6.5 22.6.1 2.5.7 5.3 1.3 6.1 1.1 1.2 1 1.8-.6 3.2-1.4 1.2-1.7 2.7-1.4 5.9.6 6 .5 18.6-.2 19.6-.2.5.2 1.4 1 2.1 1.2 1 1.2 1.5-.2 3.6-1.4 2.3-1.4 2.6.1 4.3 1.1 1.3 1.4 2.1.7 2.6-1.9 1.1-1.2 4 1.2 5 2.7 1.2 2.7 2.7.1 4-1.6.8-1.9 2-1.7 6.7.1 3.2-.3 6-.8 6.4-1.2.7-1.2 7.1.1 7.9.6.4.7 1.2.3 1.8-.4.7-.9 4.1-1 7.6-.2 4.2-.8 7-1.9 8.2-1.2 1.3-1.4 2.8-.9 5.9.5 3 .2 5.5-1.3 9.3-1.1 2.9-2.4 7.4-2.8 10.2-.4 2.7-.9 5.9-1.1 7s-.6 4.4-.8 7.4c-.5 5.5-2.9 19.9-4.6 28.1-2.4 11-3.1 18.1-2 19.4.8 1 .7 1.7-.4 2.6-1.2 1-1.4 2.4-.9 5.5.5 3.8.3 4.4-2.5 6.8-3.6 3-3.7 3.4-1.4 5.9 1.5 1.6 1.5 2 0 3.5-.8 1-2.5 4.9-3.8 8.8-2.8 8.4-6.7 17.4-8.7 19.7-1.2 1.4-1.2 2.1-.2 3.2.9 1.2.9 2.2-.4 4.7-.9 1.7-1.4 3.5-1.1 3.9s-.2 1.3-1 2-1.5 1.8-1.5 2.5c0 .6-.9 2-1.9 2.9-1.5 1.4-1.8 2.6-1.4 5.2s0 4.3-1.5 6.4c-1.5 2-2.6 6.1-3.7 13.4-.9 5.9-1.3 11.1-1 11.6s.1 1.1-.5 1.5c-.5.3-1 1.9-1 3.4 0 1.6-.7 3.4-1.4 4.1-.8.6-2.2 3.4-3.1 6-.9 2.7-2.7 6.5-4 8.5-1.4 1.9-2.2 4.2-1.8 5.1.3.9-.5 2.6-1.9 4.2-2.5 2.7-6.8 11.2-6.8 13.4 0 1.2-3 8.1-5.6 13-.8 1.4-1.4 3.2-1.4 4s-1.1 2.5-2.5 3.8-2.3 3-2 3.8c.3.7-.9 4.5-2.5 8.4-1.7 3.8-3 7.8-3 8.8s-1.6 3.2-3.6 4.9c-1.9 1.7-4 4.6-4.6 6.4-.6 1.7-2.4 5.1-3.9 7.5-1.6 2.4-2.9 4.7-2.9 5.3 0 .5-1.1 3.1-2.5 5.7s-2.5 5.2-2.5 5.8-.7 1.7-1.5 2.4c-.9.7-1.4 1.9-1.1 2.6.2.6-.6 2.2-2 3.5-1.3 1.2-2.4 3.3-2.4 4.5 0 1.3-.4 2.5-.9 2.9-.5.3-1.2 1.8-1.6 3.4-.3 1.6-1.6 3.8-2.9 5-1.5 1.4-2.2 3-1.9 4.4.6 3-2 8.9-5.8 13.2-2.4 2.7-2.9 3.8-2 4.9.9 1 .8 1.6-.4 2.6-.8.7-1.5 2.1-1.5 3.1s-.9 2.4-2 3.1-2 2-2 2.9-.7 2.2-1.5 2.9-1.5 1.8-1.5 2.5c0 .6-.9 2-1.9 2.9s-2.2 3.7-2.5 6c-.5 2.9-1.6 5.2-3.6 7.1-1.7 1.6-3 3.4-3 4 0 .7-.9 2-2 3s-2 2.4-2 3.1c0 .8-1.5 2.4-3.4 3.6-2.3 1.5-3.4 3-3.3 4.3.1 1.1-.6 2.4-1.8 2.9-1.9.9-6.5 6.9-6.5 8.6 0 .4-1.2 1.9-2.8 3.2-3.9 3.3-8.2 9.2-8.2 11.3 0 .9-1.2 3.4-2.7 5.4-3.4 4.4-5.3 7.7-5.3 9.2 0 .6-1.8 3.2-4 5.8s-4 5.5-4 6.4c0 1-.4 2.5-.9 3.5-.5.9-1.7 3.6-2.6 5.9-1 2.3-2.8 5.2-4.1 6.4s-2.4 3-2.4 4-1.1 3-2.4 4.6c-2 2.4-2.6 2.5-4 1.4-2.2-1.8-2-5.3.4-8.4 1.1-1.4 2-3.3 2-4.3 0-.9.8-2.6 1.7-3.6s1.8-2.8 1.9-4.1c.2-1.2 1-5.8 1.8-10.1 1.2-6.2 1.3-8.3.4-9.4-1.7-2-2-5.2-.7-6.8 1.2-1.5 5.8-17.3 6.3-21.9 1-8.4 2-13.2 3.2-14.6.8-.9 1.1-1.9.7-2.3-.7-.7-1.1-4.7-1.3-13.1-.1-3.6 1.2-8.4 2.6-9.6 2-1.6 1.7-3.9-.7-6.5-2.1-2.2-2.1-2.4-.5-4.9 1.2-1.9 1.4-3 .6-4.4-1.5-2.9-1.2-5.6.9-7.5 1.3-1.2 1.9-3 1.9-5.9s1-6.3 3.6-11.1c2.5-4.7 3.3-7.3 2.6-8-.5-.5-1-2.4-1-4.1s-.5-3.6-1.1-4.2c-.8-.8-.2-2.3 2.1-5.4 1.9-2.7 2.9-5.1 2.6-6.3-.6-2.1 2.1-11.3 3.5-12.2.5-.3.3-1.3-.3-2.3-.9-1.6-.6-2.5 1.9-5.7l3.1-3.9-2.2-1.7-2.1-1.8 2.5-2.1c1.4-1.2 2.4-2.6 2.2-3.2-.2-.5.5-1.8 1.5-2.9 1.4-1.5 1.8-3.7 1.8-8.7 0-5.9.4-7.3 2.8-10.5 2.3-2.9 2.6-4 1.7-5.1-.6-.8-.9-1.8-.6-2.3s.1-2.3-.4-4c-.8-3-.1-7.9 1.9-12.7.5-1.1.9-3.4 1-5 .1-1.7.7-5.5 1.5-8.5s1.7-7.6 2.1-10.3c.5-3.5 1.5-5.4 3.7-7.2 1.6-1.4 3.5-2.5 4.3-2.5 1.9 0 2.6-2.7.9-4-1.9-1.6-1.8-3.9.2-6.1.9-1 1.9-4 2.1-6.6.3-2.6 1.2-5.5 2-6.4 1-1.3 1.2-2.6.4-5.7-.6-3.1-.5-4.4.4-5.2 1.2-1 1.8-3.2 3.1-12.3.4-2 1-4 1.5-4.3s.9-1.5.9-2.8c0-1.2.7-3.1 1.5-4.2.8-1 1.5-2.6 1.5-3.5s.8-2.3 1.8-3.2c1.7-1.5 2.1-1.7 4.2-1.7 1.6 0 1.2-2.7-.5-3.4-.8-.3-2-1.7-2.7-3.1-1.2-2.6-1.1-2.9 4.4-13.7 1-2 1.7-4.2 1.6-4.9-.2-.7 1.1-2.2 2.9-3.4l3.2-2.2-2.5-2.4c-2.3-2.1-2.5-3-2.1-7.3.2-2.7.1-6.4-.3-8.2-.8-3.6.7-10.5 2.8-12.6.9-.9.7-1.7-1.1-3.6l-2.2-2.4 2.8-2.4c1.5-1.3 2.5-2.4 2.1-2.4-.5 0-.3-.5.4-1.2s1.2-2.4 1.2-3.8.9-4.4 2-6.5c2.4-4.6 2.3-4.2 1.7-20-.5-9.7-.3-12.3.9-13.6 1.8-1.9 1.9-3.8.6-9.8-1.2-5.5-.6-11.5 1.8-16.6 3.9-8.5 5.1-11.6 4.6-12.3-.3-.5-.1-2.7.5-5 .6-2.9.6-4.8-.2-6-.9-1.4-.6-2.7 1.4-6.2 1.3-2.5 2.2-5.1 2-5.8-.3-.7 0-1.8.5-2.5.6-.7 1.3-3.5 1.7-6.2.4-2.8 1.2-5.8 1.7-6.7.5-1.1.4-2.5-.4-3.7-1-1.6-1-2.7 0-5.4.7-1.8 1.2-4.7 1.2-6.3s1.4-5.5 3-8.7c2.5-4.5 2.9-6.5 2.4-9.2-.4-2.2-.2-4.1.6-5 .7-.8 1-2.1.7-2.9s.3-2.2 1.4-3.2c1.5-1.3 1.7-2.5 1.3-5.4-.5-3.2-.2-4 2.1-5.8 1.5-1.2 2.4-2.5 2.1-3.1-.3-.5.4-3.1 1.6-5.8 1.2-2.6 2.3-7.5 2.5-10.7.1-3.3.7-6.4 1.3-7 .5-.5 1-2.5 1-4.2 0-1.8.5-3.6 1.1-4s.8-2 .5-3.9c-.7-3.5 0-5.1 5.7-13.6 2.3-3.5 3.5-6.3 3.1-7.3-.4-1.1.9-3.1 4-6.3 2.5-2.5 4.6-5.4 4.6-6.3s1.1-2.7 2.5-4 2.5-3 2.5-3.8c0-1.5 2.8-5.2 3.8-5.2.3 0 2.3.5 4.6 1.2M2344.3 589c5.3 3.6 6.3 5.5 4.3 8.5-1.3 2-1.3 2.5-.1 3.5.8.7 1.5 2.6 1.5 4.2 0 2.1 1 3.8 3.5 6.1 3.1 2.7 3.5 3.6 3.5 7.9 0 4.4.4 5.2 4.4 9.1 3.5 3.4 4.2 4.5 3.3 5.8-.8 1.3 0 2.9 4 8 5.8 7.4 8.6 12.8 8.5 16.7 0 1.5 1.1 5.1 2.4 8 2.8 6.1 3 8.5.9 10.2-.8.7-1.5 2.9-1.6 4.9 0 4.6-.5 12.4-.9 13.1-.6 1.3-.9 6.7-.3 8 .3.8.7 2.3.8 3.2.1 1 .9 2.6 1.8 3.6s1.7 2.9 1.7 4.2.7 3.2 1.7 4.2c1.5 1.7 1.5 1.9-.1 3.7-1.7 1.8-1.7 2.2-.2 4.3.9 1.2 1.6 3.2 1.6 4.5 0 1.2.5 2.5 1.1 2.9.7.4.9 2.1.5 4.4-.4 2.7-.2 4.1.9 5s1.2 1.6.5 2.5c-.6.7-.8 3-.4 5.3s.3 4.9-.1 5.9-.8 4-.9 6.8c-.1 3.8.4 5.4 1.9 6.7 2 1.8 2 1.8-1.2 4.8-3.3 3-4.1 5.7-2.4 7.6.6.5.6 2.8 0 5.8-.6 3.2-.5 5.3.1 6.1 1.2 1.4.4 4.1-1.7 6.7-1.2 1.4-1.3 2.6-.4 6.9 1 4.4.9 5.5-.5 7-1 1.1-1.3 2.3-.7 3.1 1.6 2.6 1.1 9.2-1 11.5-1.1 1.2-2.5 3.3-3.1 4.5-1 2-.9 2.5.8 3.3 1.1.5 2.7 2.3 3.6 4 2.1 3.6.9 5.8-2.5 4.9-2.1-.5-2.3-.2-2.9 5.9-.4 3.5-.4 7.6-.1 9 .5 1.8.2 3.6-1 5.3-.9 1.4-1.4 3.2-1.1 4 .3.9-.1 2.9-1 4.6s-1.4 4.2-1.1 5.7c.3 1.4.1 3.4-.5 4.4-.7 1.3-.6 2.3.1 3 .8.8.6 1.7-.7 3.1-1.7 1.9-5.2 11.4-5.2 14 0 .6.7 2.4 1.5 4 1.5 2.7 1.4 3.1-.7 5.3-1.2 1.2-2.7 2.3-3.3 2.3-1.1 0-4.5 6.1-4.5 8.2 0 .6-.7 1.9-1.5 2.8-.8.8-1.7 3.5-2 5.9-.3 2.6-1.6 5.6-3.1 7.4-2.1 2.5-2.5 3.8-2 6.7.4 2.5.1 4.3-1 5.9-1.3 1.8-1.4 2.7-.5 4.4 1.4 2.7.8 9.1-.9 11.2-1 1.3-1 1.9.4 3.4 1.5 1.6 1.5 1.9.1 3.1-.9.7-2.5 2.6-3.7 4.2l-2 2.9 2.1 2.3c3.3 3.5 2.7 6.9-1.8 10.5-6.6 5.3-9.8 3.5-8.7-5 .6-4.5.5-5.2-1.7-6.9-1.8-1.4-2.6-3.3-3-7.1-.4-2.9-1.1-5.7-1.7-6.3-.5-.5-1-1.6-1-2.2 0-.7-.5-2.5-1.2-4.1-1.5-3.9-1-7.1 1.8-10.8 2.2-2.9 2.2-3.2.7-4.8-1.3-1.3-1.4-1.9-.5-2.9.7-.7 1.2-2.3 1.2-3.6 0-2-.3-2.2-1.4-1.3-1.1 1-1.7.7-3-1.1-.9-1.2-1.6-3-1.6-4 0-.9-.4-1.9-.9-2.2s-.9-3.5-.9-7.1c0-3.5-.3-6.8-.6-7.3s.3-1.7 1.4-2.7c2.6-2.3 2.5-2.8-.8-6.7-3.6-4.3-4-8-1-10.5 1.3-1 2.9-2.9 3.6-4.2 1.2-2.1 1.1-2.6-1-4.8-3.3-3.5-4.9-12.9-3.3-19.8 1-4.3 1-5.8.1-7.7-.8-1.5-1-3.3-.5-4.6.5-1.2.3-3.5-.3-5.2-.9-2.7-.7-3.4 1.2-5.5 1.2-1.3 2.8-2.1 3.6-1.8 1.7.6 1.9-1.3.3-2.3-.7-.4-.9-2.4-.6-4.9q.45-4.35-.9-5.7c-1.1-1-1.2-2.2-.4-4.8.6-2.2.6-6.5 0-12.4-1.2-10-1.7-12.4-3.3-14.5-.6-.7-1.2-2-1.3-2.8-.2-.8-1.2-2.5-2.4-3.8l-2.1-2.2 3-2.6c3-2.4 3-2.5 1-4.2-1-1-1.9-3.1-1.9-4.6s-.4-3-.8-3.3c-1.5-.9.3-9 2.6-12.1 2.1-2.9 2.6-7.5 1-10-.8-1.3.7-10.4 1.9-11.6 1.3-1.3.5-19.9-1-21.7-1.8-2.3-1.3-14.4.9-17.7 1.4-2.2 1.8-5 1.8-14.4.1-7.1.5-12.4 1.2-13.2 1.5-1.8 2.6-13.2 1.3-12.3-1.5.9-4.1-1.7-3-3 1.6-2 .9-6.8-1.5-10.4-3-4.4-3-5.7 0-8.7 1.9-1.9 2.7-4 3.2-8.5.4-3.5.3-6.5-.3-7.2-2-2.5-2.3-6.5-.8-7.8.8-.7 1.5-1.8 1.5-2.5 0-.8 1.1-2.2 2.5-3.3 2.5-2 2.5-2 .8-5.1-1.8-3.1-1.8-3.1 1-5.7 2.2-2 2.7-3.2 2.2-5.1-.5-2.1.2-3.3 4.1-6.9 2.6-2.4 5-4.4 5.5-4.4.4 0 2.8 1.3 5.2 3m-922.4 17.6c-.9 1.1-1.5 1.2-2.5.3-1.1-.9-1.2-1.5-.3-2.5.9-1.1 1.5-1.2 2.5-.3 1.1.9 1.2 1.5.3 2.5m269.9 74c1.7.8 3.9 2.5 4.9 3.7 1.2 1.6 4.2 2.8 9.5 4.1 4.3.9 8.8 2.6 10.2 3.7 2.1 1.7 2.3 2.3 1.5 5.2-.6 2.1-.6 3.3.1 3.5.6.2 3.2 1.8 5.8 3.5 3.5 2.4 4.7 3.9 4.9 5.9.1 1.5-.2 3-.8 3.3-.5.4-.9 1.4-.9 2.3 0 2.7 6 11.5 9.3 13.7 3.5 2.3 9.1 12.3 7.8 13.9-.4.6-1.1 3.1-1.4 5.6-.5 3.8-.3 4.8 1.4 5.8 1.6 1 1.7 1.6.7 3.1-.9 1.6-.6 2.3 2.2 4.8l3.3 3-3.3 4.1-3.3 4.1 3 2.5c2.6 2.2 3 3.2 3 7.5 0 3.6-.6 5.6-1.8 6.7s-1.5 2.1-1 3.3c.5.9 1.4 2.9 2.1 4.6.7 1.6 1.6 3.7 2 4.6.5 1 .3 2.6-.5 4-2.9 5-3.6 7.1-2.6 8.3 1.4 1.7.6 8.5-1.1 10.3-1.4 1.3-1.8 1.2-3.4-1.1-2.7-3.7-23.3-24.6-24.3-24.6-.5 0-1.5-.7-2.2-1.6-.8-.9-3.1-2.8-5.2-4.1-2.4-1.5-3.7-3-3.5-4.1.2-.9-.7-2.6-1.9-3.9-1.3-1.2-2.3-3.3-2.3-4.6s-.9-3.6-2-5-2-3.2-2-4-2.9-4.5-6.5-8.2-6.5-7.5-6.5-8.4c0-1-.9-2.6-2-3.6-2.4-2.2-2.5-3.8-.5-5.5s1.9-2.7-.5-3.3c-2.8-.7-4-4.6-2.9-9.3.4-2.2.9-4.2.9-4.5s-1.7-2.4-3.7-4.6c-7.6-8.1-10.5-12.3-9.4-13.6.6-.7.6-1.8.1-2.6-.8-1.4 0-3.5 2.6-7.1.6-.8 1.1-2.8 1.2-4.4s1.3-4.1 2.6-5.5 4.5-5 7.1-7.9c2.6-2.8 5.1-5.2 5.5-5.2s2.1.7 3.8 1.6m-139.6 322.6c1.3 1.8 3 4.6 3.9 6.2.9 1.8 3.1 3.5 5.6 4.5 5.5 2.1 8.2 4.7 7.6 7.2-.3 1.1.1 2.7 1 3.7 1.8 2.1 2.8 8.1 1.6 10.4-.5.9-1.1 3.4-1.3 5.5-.3 2.1-.9 5.6-1.5 7.7-.5 2.2-.7 4.4-.5 4.8.3.5-.8 2.7-2.5 5s-3.1 5.2-3.1 6.4-.9 3.3-2.1 4.8-1.8 3.3-1.5 4.4c.4 1.2-.4 3.2-2.4 5.7-2.7 3.5-3.7 6.6-3.1 10.5.5 3.4.1 5.2-1.8 7.8-1.2 1.8-2 4.4-1.9 7 0 2.3-.5 4.9-1.2 5.7-1.1 1.3-1.1 2 0 4s1 2.8-.3 4.9c-.9 1.3-3 3.3-4.7 4.3-2.3 1.3-3 2.3-2.6 3.8.4 1.4-.4 3-2.5 4.9-2.6 2.5-3 3.5-2.8 7.1.3 3.7-.2 4.7-3.4 8-2.8 2.9-3.4 4.1-2.6 5.1 1.4 1.7.4 3.3-2.8 4.5-1.3.5-2.1 1.4-1.8 1.9.7 1.2-6.1 11-7.6 11-.6 0-.8.4-.5.9s-.1 1.5-1 2.2c-.8.7-2.1 2.7-2.9 4.6-.8 1.8-2.6 4.9-4.1 6.9-1.5 1.9-2.9 4.7-3 6.1-.2 1.4-1.2 3.5-2.3 4.7-1.2 1.2-2.1 2.7-2.1 3.3s-1.4 2.7-3 4.8c-1.7 2.2-2.8 4.5-2.5 5.5s-.7 2.7-2.7 4.6c-1.8 1.7-6 6-9.2 9.6-3.3 3.7-7 6.9-8.4 7.3-1.4.3-3.3 1.6-4.3 2.8-1.7 2.1-1.9 2.1-3.5.5-1.5-1.4-1.6-2.3-.7-5.2.7-2.3.8-6.4.2-12.2-.6-5.4-.5-9.1 0-9.8.6-.7.6-1.7.1-2.6-1.4-2.2-1.2-5.8.5-8.4 1.6-2.4 1.1-8.1-.7-9.2-1.4-.9 2.2-4.4 4.5-4.4 1.9 0 1.9-.1.3-1.9-1-1.1-1.6-3-1.5-4.3.2-1.3 0-2.8-.4-3.5s0-2.4.9-3.8c1.3-2 1.4-2.9.5-3.8-1.6-1.6-1.4-3.7.6-5.9 1.1-1.2 1.6-3.2 1.4-5.3-.2-2.8.4-4.1 3.4-7.2 3.1-3.2 3.6-4.2 3-6.8-1.2-5.9-.6-11.9 1.5-13.7 1.2-.9 2-2.9 2-4.7 0-1.9.8-3.5 2.1-4.5 3.8-2.6 5-5.5 5.5-12.6.2-3.8.9-8.1 1.4-9.6.7-1.9.7-3.6-.2-6.1-1-2.7-1-3.8 0-5.1.7-.9 1.6-2.6 2.1-3.7.5-1.2 1.6-2.7 2.5-3.4s1.6-2.4 1.6-3.7c0-3 1.5-5.8 5.6-10.4 3.8-4.3 5.8-9.2 5.1-12.2-.8-3 .9-4.8 4.5-4.8 2.8 0 2.9-.2 2.2-3.4-.4-2.4-.1-4.2 1-5.8.9-1.2 1.6-3.2 1.6-4.5s1.1-3 2.6-4 3.9-3.1 5.3-4.8c1.4-1.6 4.1-4.4 5.9-6.2 2-2 2.8-3.4 2.1-3.8-.7-.5-.2-1.7 1.4-3.4 1.3-1.4 3-3.6 3.6-4.9 2.6-5 9.1-5.5 12.3-1m-227.4 534.1c3.2 3.3 3.2 3.3 1.2 5.2-1.1 1-2 2.3-2 3 0 .6-.5 1.6-1.2 2.3-1.7 1.7-7.3-2.5-5.8-4.3.7-.8.7-1.5.1-1.9-.9-.6-.2-2.6 2.2-6.4 1.2-1.8 2-1.5 5.5 2.1"/><path d="M1799 770.8c0 1.4 3.9 4.6 4.7 3.9.3-.4-.2-1.6-1.2-2.7-1.9-2.1-3.5-2.6-3.5-1.2M934.6 1039c.5.5 2.5 1.2 4.4 1.6 3.3.5 3.4.5 1.6-1-2.2-1.7-7.7-2.3-6-.6M441.2 1631.1c-.8 1.2-.8 2-.1 2.5.6.3 1.1.4 1.2.3.2-.2.8-1.1 1.5-2 1-1.3 1-1.8-.1-2.2-.7-.3-1.9.3-2.5 1.4M449 1630.9c0 1 3.5 2.1 6.5 2 1.3 0 .8-.5-1.5-1.4-4.3-1.7-5-1.7-5-.6M2566.5 1636.9c.3.5.1 1.2-.5 1.6-1.6 1-1.1 2.5.9 2.5 1.3 0 1.9-.7 1.9-2.5 0-1.5-.6-2.5-1.5-2.5-.8 0-1.2.4-.8.9M2076 1698.5c2.3 2.5 5 3.3 5 1.6 0-1.1-4.5-4.1-6.1-4.1-.7 0-.2 1.1 1.1 2.5M2551 1716.9c0 1.6 2.5 3 3.9 2.2 1.1-.7.9-1.1-.7-2-2.5-1.3-3.2-1.4-3.2-.2M2525 1733c1.4.4 3.6.8 5 .8 2.3.1 2.3 0 .5-.8-1.1-.5-3.3-.8-5-.8-2.9 0-2.9 0-.5.8M1604.6 1742.9c1.5 1.4 5.4 2.3 5.4 1.3 0-1.1-2.4-2.2-4.8-2.2q-1.5 0-.6.9M171 1801c0 .5 1.6 1 3.5 1s3.5-.5 3.5-1c0-.6-1.6-1-3.5-1s-3.5.4-3.5 1M1660.1 1830.4c-1.2 1.3-1.8 2.6-1.3 2.9 1.6 1.1 4.7-.4 5.9-2.9.9-2.1.9-2.4-.6-2.4-1 0-2.8 1.1-4 2.4M2111.4 1850.9c1 1.5-4.1 5.3-6.2 4.7-1.1-.4-2.3-.2-2.7.4s.9 1 3.5 1c3 0 4.7-.6 5.8-2 1.4-1.7 2.2-1.9 5-1.1 4.3 1.3 4 .7-.8-1.8-4.4-2.3-5.4-2.6-4.6-1.2M474.8 1852.8c-3.8 2.3-3.5 2.8 1.5 2.4 3.4-.3 4.3-.8 4.4-2.3.2-2.4-2.2-2.4-5.9-.1M915.8 1864.7c1.8.2 4.5.2 6 0s0-.4-3.3-.4-4.5.2-2.7.4"/></svg>